<?xml version="1.0" encoding="UTF-8"?>
<svg width="588px" height="217px" viewBox="0 0 588 217" version="1.1" xmlns="http://www.w3.org/2000/svg" xmlns:xlink="http://www.w3.org/1999/xlink">
    <!-- Generator: Sketch 49.3 (51167) - http://www.bohemiancoding.com/sketch -->
    <title>Logo_1</title>
    <desc>Created with Sketch.</desc>
    <defs>
        <linearGradient x1="50%" y1="12.261578%" x2="50%" y2="104.557122%" id="linearGradient-1">
            <stop stop-color="#11B6E5" offset="0%"></stop>
            <stop stop-color="#1185E5" offset="100%"></stop>
        </linearGradient>
    </defs>
    <g id="Logo" stroke="none" stroke-width="1" fill="none" fill-rule="evenodd">
        <g id="Group-7-Copy-10" transform="translate(-8.000000, -7.000000)">
            <g id="Group-3-Copy">
                <g id="Group-Copy-10">
                    <path d="M141.94543,88.9483052 L205.101025,88.9483052 L205.101025,124.770146 C205.101025,150.930159 191.084063,175.084598 168.371136,188.064167 L106.564946,223.384038 L44.7587552,188.064167 C25.6481059,177.143162 12.6937946,158.31087 9.06538883,137.029182 L80.9541574,137.029182 L75.9092763,162.240466 L137.220615,162.240466 L126.82051,110.266989 C134.214188,105.338153 139.701403,97.7875694 141.94543,88.9483052 Z M142.879596,76.3483055 C141.04856,57.956746 125.488793,43.5928205 106.564946,43.5928205 C86.4093996,43.5928205 70.0701012,59.8874096 70.0701012,79.9878039 C70.0701012,92.6147339 76.5180236,103.739792 86.3093821,110.266986 L83.4754689,124.429182 L8.02886577,124.429182 L8.02886577,19.5897366 C8.02886577,13.1478874 13.2510164,7.92573679 19.6928656,7.92573679 L193.437026,7.92573679 C199.878875,7.92573679 205.101025,13.1478874 205.101025,19.5897366 L205.101025,76.3483055 L142.879596,76.3483055 Z" id="Combined-Shape" fill="url(#linearGradient-1)"></path>
                    <path d="M99.264795,103.863201 C88.6531749,100.893927 80.870101,91.1522903 80.870101,79.5928195 C80.870101,65.6752442 92.152525,54.3928202 106.0701,54.3928202 C119.987676,54.3928202 131.2701,65.6752442 131.2701,79.5928195 C131.2701,90.529442 124.303166,99.8388499 114.565323,103.325018 L124.0701,149.792818 L89.8701007,149.792818 L99.264795,103.863201 Z" id="Combined-Shape" fill="#2F4F76"></path>
                </g>
            </g>
            <g id="Group-10" transform="translate(247.000000, 46.000000)">
                <path d="M11.75,73.1 C6.9833095,71.433325 3.300013,69.233347 0.7,66.5 L3.6,60.8 C6.133346,63.333346 9.499979,65.3833255 13.7,66.95 C17.900021,68.5166745 22.233311,69.3 26.7,69.3 C32.966698,69.3 37.666651,68.1500115 40.8,65.85 C43.933349,63.5499885 45.5,60.566685 45.5,56.9 C45.5,54.099986 44.6500085,51.866675 42.95,50.2 C41.2499915,48.533325 39.166679,47.2500045 36.7,46.35 C34.233321,45.4499955 30.800022,44.466672 26.4,43.4 C21.133307,42.06666 16.933349,40.7833395 13.8,39.55 C10.666651,38.3166605 7.9833445,36.433346 5.75,33.9 C3.5166555,31.366654 2.4,27.933355 2.4,23.6 C2.4,20.066649 3.333324,16.8500145 5.2,13.95 C7.066676,11.0499855 9.933314,8.733342 13.8,7 C17.666686,5.266658 22.466638,4.4 28.2,4.4 C32.20002,4.4 36.1166475,4.9499945 39.95,6.05 C43.7833525,7.1500055 47.099986,8.666657 49.9,10.6 L47.4,16.5 C44.466652,14.566657 41.33335,13.1166715 38,12.15 C34.66665,11.1833285 31.400016,10.7 28.2,10.7 C22.066636,10.7 17.4500155,11.8833215 14.35,14.25 C11.2499845,16.6166785 9.7,19.666648 9.7,23.4 C9.7,26.200014 10.5499915,28.4499915 12.25,30.15 C13.9500085,31.8500085 16.0833205,33.1499955 18.65,34.05 C21.2166795,34.9500045 24.666645,35.933328 29,37 C34.133359,38.266673 38.2833175,39.5166605 41.45,40.75 C44.6166825,41.9833395 47.299989,43.8499875 49.5,46.35 C51.700011,48.8500125 52.8,52.233312 52.8,56.5 C52.8,60.033351 51.8500095,63.2499855 49.95,66.15 C48.0499905,69.0500145 45.133353,71.3499915 41.2,73.05 C37.266647,74.7500085 32.433362,75.6 26.7,75.6 C21.499974,75.6 16.5166905,74.766675 11.75,73.1 Z M107.435443,22.4 L81.135443,81.3 C79.002099,86.233358 76.535457,89.733323 73.735443,91.8 C70.935429,93.866677 67.568796,94.9 63.635443,94.9 C61.102097,94.9 58.735454,94.500004 56.535443,93.7 C54.335432,92.899996 52.435451,91.700008 50.835443,90.1 L54.135443,84.8 C56.802123,87.46668 60.002091,88.8 63.735443,88.8 C66.135455,88.8 68.1854345,88.13334 69.885443,86.8 C71.5854515,85.46666 73.168769,83.200016 74.635443,80 L76.935443,74.9 L53.435443,22.4 L60.835443,22.4 L80.635443,67.1 L100.435443,22.4 L107.435443,22.4 Z M195.420886,27.7 C199.187572,31.500019 201.070886,37.099963 201.070886,44.5 L201.070886,75 L193.970886,75 L193.970886,45.2 C193.970886,39.733306 192.654233,35.566681 190.020886,32.7 C187.38754,29.833319 183.67091,28.4 178.870886,28.4 C173.404192,28.4 169.104235,30.0833165 165.970886,33.45 C162.837537,36.8166835 161.270886,41.466637 161.270886,47.4 L161.270886,75 L154.170886,75 L154.170886,45.2 C154.170886,39.733306 152.854233,35.566681 150.220886,32.7 C147.58754,29.833319 143.837577,28.4 138.970886,28.4 C133.570859,28.4 129.287569,30.0833165 126.120886,33.45 C122.954204,36.8166835 121.370886,41.466637 121.370886,47.4 L121.370886,75 L114.270886,75 L114.270886,22.4 L121.070886,22.4 L121.070886,32 C122.937562,28.799984 125.537536,26.333342 128.870886,24.6 C132.204236,22.866658 136.037531,22 140.370886,22 C144.770908,22 148.587537,22.933324 151.820886,24.8 C155.054236,26.666676 157.470878,29.433315 159.070886,33.1 C161.004229,29.633316 163.787535,26.9166765 167.420886,24.95 C171.054238,22.9833235 175.204196,22 179.870886,22 C186.470919,22 191.654201,23.899981 195.420886,27.7 Z M257.706329,25.35 C261.706349,27.5833445 264.839651,30.733313 267.106329,34.8 C269.373007,38.866687 270.506329,43.499974 270.506329,48.7 C270.506329,53.900026 269.373007,58.533313 267.106329,62.6 C264.839651,66.666687 261.706349,69.833322 257.706329,72.1 C253.706309,74.366678 249.239687,75.5 244.306329,75.5 C239.906307,75.5 235.956347,74.566676 232.456329,72.7 C228.956312,70.833324 226.139673,68.133351 224.006329,64.6 L224.006329,75 L217.206329,75 L217.206329,0.8 L224.306329,0.8 L224.306329,32.4 C226.50634,28.999983 229.322979,26.4166755 232.756329,24.65 C236.18968,22.8833245 240.039641,22 244.306329,22 C249.239687,22 253.706309,23.1166555 257.706329,25.35 Z M253.806329,66.65 C256.806344,64.9499915 259.156321,62.533349 260.856329,59.4 C262.556338,56.266651 263.406329,52.70002 263.406329,48.7 C263.406329,44.69998 262.556338,41.133349 260.856329,38 C259.156321,34.866651 256.806344,32.4500085 253.806329,30.75 C250.806314,29.0499915 247.473014,28.2 243.806329,28.2 C240.072977,28.2 236.723011,29.0499915 233.756329,30.75 C230.789648,32.4500085 228.456338,34.866651 226.756329,38 C225.056321,41.133349 224.206329,44.69998 224.206329,48.7 C224.206329,52.70002 225.056321,56.266651 226.756329,59.4 C228.456338,62.533349 230.789648,64.9499915 233.756329,66.65 C236.723011,68.3500085 240.072977,69.2 243.806329,69.2 C247.473014,69.2 250.806314,68.3500085 253.806329,66.65 Z M289.641772,72.05 C285.575085,69.7499885 282.375117,66.566687 280.041772,62.5 C277.708427,58.433313 276.541772,53.833359 276.541772,48.7 C276.541772,43.566641 277.708427,38.966687 280.041772,34.9 C282.375117,30.833313 285.575085,27.666678 289.641772,25.4 C293.708459,23.133322 298.27508,22 303.341772,22 C308.408464,22 312.975085,23.133322 317.041772,25.4 C321.108459,27.666678 324.291761,30.833313 326.591772,34.9 C328.891784,38.966687 330.041772,43.566641 330.041772,48.7 C330.041772,53.833359 328.891784,58.433313 326.591772,62.5 C324.291761,66.566687 321.108459,69.7499885 317.041772,72.05 C312.975085,74.3500115 308.408464,75.5 303.341772,75.5 C298.27508,75.5 293.708459,74.3500115 289.641772,72.05 Z M313.391772,66.65 C316.358454,64.9499915 318.675097,62.533349 320.341772,59.4 C322.008447,56.266651 322.841772,52.70002 322.841772,48.7 C322.841772,44.69998 322.008447,41.133349 320.341772,38 C318.675097,34.866651 316.358454,32.4500085 313.391772,30.75 C310.425091,29.0499915 307.075124,28.2 303.341772,28.2 C299.60842,28.2 296.258454,29.0499915 293.291772,30.75 C290.325091,32.4500085 287.991781,34.866651 286.291772,38 C284.591764,41.133349 283.741772,44.69998 283.741772,48.7 C283.741772,52.70002 284.591764,56.266651 286.291772,59.4 C287.991781,62.533349 290.325091,64.9499915 293.291772,66.65 C296.258454,68.3500085 299.60842,69.2 303.341772,69.2 C307.075124,69.2 310.425091,68.3500085 313.391772,66.65 Z M341.377215,0.8 L348.477215,0.8 L348.477215,75 L341.377215,75 L341.377215,0.8 Z" id="Symbol" fill="#2F4F76"></path>
                <path d="M7.54,139.412 C4.6466522,138.571996 2.32267544,137.480007 0.568,136.136 L3.648,129.304 C5.3280084,130.536006 7.32532176,131.52533 9.64,132.272 C11.9546782,133.01867 14.2693218,133.392 16.584,133.392 C19.1600129,133.392 21.0639938,133.009337 22.296,132.244 C23.5280062,131.478663 24.144,130.46134 24.144,129.192 C24.144,128.258662 23.7800036,127.484003 23.052,126.868 C22.3239964,126.251997 21.3906724,125.757335 20.252,125.384 C19.1133276,125.010665 17.573343,124.600002 15.632,124.152 C12.6453184,123.442663 10.2000095,122.733337 8.296,122.024 C6.39199048,121.314663 4.75867348,120.176008 3.396,118.608 C2.03332652,117.039992 1.352,114.949346 1.352,112.336 C1.352,110.058655 1.96799384,107.996009 3.2,106.148 C4.43200616,104.299991 6.28932092,102.834672 8.772,101.752 C11.2546791,100.669328 14.2879821,100.128 17.872,100.128 C20.3733458,100.128 22.8186547,100.426664 25.208,101.024 C27.5973453,101.621336 29.687991,102.479994 31.48,103.6 L28.68,110.488 C25.0586486,108.434656 21.4373514,107.408 17.816,107.408 C15.2773206,107.408 13.4013394,107.818663 12.188,108.64 C10.9746606,109.461337 10.368,110.543993 10.368,111.888 C10.368,113.232007 11.067993,114.230663 12.468,114.884 C13.868007,115.537337 16.005319,116.18133 18.88,116.816 C21.8666816,117.525337 24.3119905,118.234663 26.216,118.944 C28.1200095,119.653337 29.7533265,120.773326 31.116,122.304 C32.4786735,123.834674 33.16,125.906654 33.16,128.52 C33.16,130.760011 32.5346729,132.803991 31.284,134.652 C30.0333271,136.500009 28.1573458,137.965328 25.656,139.048 C23.1546542,140.130672 20.1120179,140.672 16.528,140.672 C13.4293178,140.672 10.4333478,140.252004 7.54,139.412 Z M78.1180003,132.72 L78.1180003,140 L47.7660003,140 L47.7660003,100.8 L77.3900003,100.8 L77.3900003,108.08 L56.7820003,108.08 L56.7820003,116.592 L74.9820003,116.592 L74.9820003,123.648 L56.7820003,123.648 L56.7820003,132.72 L78.1180003,132.72 Z M101.544001,138.068 C98.3146512,136.331991 95.7760099,133.924015 93.9280007,130.844 C92.0799914,127.763985 91.1560007,124.282686 91.1560007,120.4 C91.1560007,116.517314 92.0799914,113.036015 93.9280007,109.956 C95.7760099,106.875985 98.3146512,104.468009 101.544001,102.732 C104.77335,100.995991 108.403981,100.128 112.436001,100.128 C115.833351,100.128 118.903987,100.725327 121.648001,101.92 C124.392014,103.114673 126.697325,104.831989 128.564001,107.072 L122.740001,112.448 C120.089321,109.386651 116.80402,107.856 112.884001,107.856 C110.457322,107.856 108.29201,108.387995 106.388001,109.452 C104.483991,110.516005 103.000006,111.99999 101.936001,113.904 C100.871995,115.80801 100.340001,117.973321 100.340001,120.4 C100.340001,122.826679 100.871995,124.99199 101.936001,126.896 C103.000006,128.80001 104.483991,130.283995 106.388001,131.348 C108.29201,132.412005 110.457322,132.944 112.884001,132.944 C116.80402,132.944 120.089321,131.394682 122.740001,128.296 L128.564001,133.672 C126.697325,135.949345 124.382681,137.685327 121.620001,138.88 C118.85732,140.074673 115.777351,140.672 112.380001,140.672 C108.385314,140.672 104.77335,139.804009 101.544001,138.068 Z M147.062001,136.024 C143.944652,132.925318 142.386001,128.501362 142.386001,122.752 L142.386001,100.8 L151.458001,100.8 L151.458001,122.416 C151.458001,129.434702 154.369972,132.944 160.194001,132.944 C163.031349,132.944 165.19666,132.094675 166.690001,130.396 C168.183342,128.697325 168.930001,126.037351 168.930001,122.416 L168.930001,100.8 L177.890001,100.8 L177.890001,122.752 C177.890001,128.501362 176.33135,132.925318 173.214001,136.024 C170.096652,139.122682 165.738029,140.672 160.138001,140.672 C154.537973,140.672 150.17935,139.122682 147.062001,136.024 Z M220.216001,140 L212.656001,129.08 L204.312001,129.08 L204.312001,140 L195.240001,140 L195.240001,100.8 L212.208001,100.8 C215.680019,100.8 218.694655,101.378661 221.252001,102.536 C223.809347,103.693339 225.778661,105.335989 227.160001,107.464 C228.541342,109.592011 229.232001,112.111985 229.232001,115.024 C229.232001,117.936015 228.532008,120.446656 227.132001,122.556 C225.731994,124.665344 223.744014,126.279994 221.168001,127.4 L229.960001,140 L220.216001,140 Z M217.920001,109.956 C216.501328,108.779994 214.429348,108.192 211.704001,108.192 L204.312001,108.192 L204.312001,121.856 L211.704001,121.856 C214.429348,121.856 216.501328,121.258673 217.920001,120.064 C219.338675,118.869327 220.048001,117.189344 220.048001,115.024 C220.048001,112.821322 219.338675,111.132006 217.920001,109.956 Z M244.790002,100.8 L253.862002,100.8 L253.862002,140 L244.790002,140 L244.790002,100.8 Z M279.668002,108.192 L267.124002,108.192 L267.124002,100.8 L301.284002,100.8 L301.284002,108.192 L288.740002,108.192 L288.740002,140 L279.668002,140 L279.668002,108.192 Z M333.362002,126.112 L333.362002,140 L324.290002,140 L324.290002,126 L309.114002,100.8 L318.746002,100.8 L329.218002,118.216 L339.690002,100.8 L348.594002,100.8 L333.362002,126.112 Z" id="SECURITY" fill="#1185E5"></path>
            </g>
        </g>
    </g>
</svg>