<?xml version="1.0" encoding="utf-8"?>
<!-- Generator: Adobe Illustrator 15.1.0, SVG Export Plug-In . SVG Version: 6.00 Build 0)  -->
<!DOCTYPE svg PUBLIC "-//W3C//DTD SVG 1.1//EN" "http://www.w3.org/Graphics/SVG/1.1/DTD/svg11.dtd">
<svg version="1.1" id="Capa_1" xmlns="http://www.w3.org/2000/svg" xmlns:xlink="http://www.w3.org/1999/xlink" x="0px" y="0px"
	 width="850.389px" height="850.391px" viewBox="0 0 850.389 850.391" enable-background="new 0 0 850.389 850.391"
	 xml:space="preserve">
<g>
	<g>
		<path fill="#10B4DF" d="M850.389,161.521c-31.623,13.872-65.32,23.067-100.452,27.532c36.142-21.579,63.727-55.488,76.694-96.36
			c-33.696,20.09-70.9,34.281-110.55,42.201c-31.996-34.069-77.599-55.169-127.347-55.169c-96.519,0-174.223,78.342-174.223,174.383
			c0,13.819,1.169,27.106,4.039,39.756c-144.938-7.069-273.188-76.535-359.343-182.355c-15.041,26.096-23.864,55.966-23.864,88.122
			c0,60.377,31.093,113.899,77.438,144.885c-28.009-0.531-55.487-8.663-78.767-21.472c0,0.532,0,1.223,0,1.914
			c0,84.72,60.431,155.089,139.676,171.3c-14.19,3.88-29.657,5.74-45.708,5.74c-11.161,0-22.429-0.638-33.006-2.977
			c22.589,69.041,86.687,119.799,162.902,121.446c-59.314,46.399-134.627,74.355-216.158,74.355c-14.297,0-28.01-0.638-41.722-2.392
			c77.226,49.802,168.749,78.236,267.447,78.236c320.81,0,496.202-265.747,496.202-496.096c0-7.707-0.266-15.147-0.638-22.535
			C797.613,227.479,826.685,196.813,850.389,161.521z"/>
	</g>
</g>
</svg>
