<svg xmlns="http://www.w3.org/2000/svg" xmlns:xlink="http://www.w3.org/1999/xlink" width="60.005" height="60.385" viewBox="0 0 60.005 60.385">
  <defs>
    <linearGradient id="linear-gradient" x1="1.089" y1="1.009" x2="0.334" y2="0.364" gradientUnits="objectBoundingBox">
      <stop offset="0" stop-color="#dae3fe"/>
      <stop offset="1" stop-color="#e9effd"/>
    </linearGradient>
    <linearGradient id="linear-gradient-2" x1="0.397" y1="-0.354" x2="-0.376" y2="1.649" gradientUnits="objectBoundingBox">
      <stop offset="0" stop-color="#0f8faf"/>
      <stop offset="1" stop-color="#10b5df"/>
    </linearGradient>
    <linearGradient id="linear-gradient-3" x1="-0.898" y1="0.932" x2="-0.675" y2="-0.163" gradientUnits="objectBoundingBox">
      <stop offset="0" stop-color="#09005d"/>
      <stop offset="1" stop-color="#1a0f91"/>
    </linearGradient>
    <linearGradient id="linear-gradient-4" x1="-0.284" y1="-1.658" x2="-1.176" y2="3.408" xlink:href="#linear-gradient-3"/>
    <linearGradient id="linear-gradient-5" x1="1.547" y1="-0.453" x2="1.146" y2="-0.125" gradientUnits="objectBoundingBox">
      <stop offset="0" stop-color="#ff928e"/>
      <stop offset="1" stop-color="#fe7062"/>
    </linearGradient>
    <linearGradient id="linear-gradient-6" x1="5.381" y1="0.417" x2="6.04" y2="1.226" xlink:href="#linear-gradient-3"/>
    <linearGradient id="linear-gradient-7" x1="7.783" y1="0.26" x2="9.144" y2="1.995" xlink:href="#linear-gradient-3"/>
    <linearGradient id="linear-gradient-8" x1="1.61" y1="0.212" x2="1.158" y2="0.899" gradientUnits="objectBoundingBox">
      <stop offset="0" stop-color="#febbba"/>
      <stop offset="1" stop-color="#ff928e"/>
    </linearGradient>
    <linearGradient id="linear-gradient-9" x1="1.576" y1="-0.457" x2="0.358" y2="0.524" xlink:href="#linear-gradient-5"/>
    <linearGradient id="linear-gradient-10" x1="0.755" y1="0.791" x2="1.452" y2="-1.379" xlink:href="#linear-gradient-8"/>
    <linearGradient id="linear-gradient-11" x1="-2.192" y1="1.062" x2="-2.081" y2="0.1" xlink:href="#linear-gradient-8"/>
    <linearGradient id="linear-gradient-12" x1="-0.618" y1="0.82" x2="-0.929" y2="-0.114" xlink:href="#linear-gradient-8"/>
    <linearGradient id="linear-gradient-13" x1="-0.349" y1="-0.467" x2="-0.172" y2="0.954" xlink:href="#linear-gradient-3"/>
    <linearGradient id="linear-gradient-14" x1="-8.072" y1="2.058" x2="-9.545" y2="-0.895" xlink:href="#linear-gradient-8"/>
    <linearGradient id="linear-gradient-15" x1="3.36" y1="0.5" x2="4.36" y2="0.5" xlink:href="#linear-gradient-3"/>
    <linearGradient id="linear-gradient-16" x1="2.391" y1="-0.604" x2="1.651" y2="0.973" xlink:href="#linear-gradient-3"/>
    <linearGradient id="linear-gradient-17" x1="2.382" y1="-4.979" x2="-0.903" y2="4.529" gradientUnits="objectBoundingBox">
      <stop offset="0" stop-color="#e1473d"/>
      <stop offset="1" stop-color="#e9605a"/>
    </linearGradient>
    <linearGradient id="linear-gradient-18" x1="1.098" y1="-5.386" x2="0.088" y2="4.552" xlink:href="#linear-gradient-17"/>
    <linearGradient id="linear-gradient-19" x1="0.87" y1="-5.586" x2="0.313" y2="3.494" xlink:href="#linear-gradient-17"/>
  </defs>
  <g id="Group_1582" data-name="Group 1582" transform="translate(-463.815 -455)">
    <path id="Path_4174" data-name="Path 4174" d="M600.8,568c-5.571,13.308-20.409,20.764-33.277,18.753a24.551,24.551,0,0,1-12.917-5.9c-9.784-8.853-11.876-26.383-3.984-38.737a30.321,30.321,0,0,1,25.826-13.833,28.267,28.267,0,0,1,17.283,6.332,26.88,26.88,0,0,1,5.415,6.233C604.015,548.566,604.433,559.324,600.8,568Z" transform="translate(-80.211 -71.69)" fill="url(#linear-gradient)"/>
    <g id="Group_1415" data-name="Group 1415" transform="translate(463.815 472.04)">
      <path id="Path_4175" data-name="Path 4175" d="M464.145,1266.935a11.01,11.01,0,0,1,15.562-7.446,1.278,1.278,0,0,0,1.805-.854,17.508,17.508,0,0,1,34.54,4.508c0,.264-.005.624-.01.97.034.743.351,1.059.823,1.138a7.976,7.976,0,0,1-.908,15.885H474.914A11.336,11.336,0,0,1,464.145,1266.935Z" transform="translate(-463.815 -1245.151)" fill="url(#linear-gradient-2)"/>
      <path id="Path_4176" data-name="Path 4176" d="M613.149,1443.358a9.831,9.831,0,0,1,13.895-6.648,1.141,1.141,0,0,0,1.612-.762,15.632,15.632,0,0,1,30.84,4.025c0,.235,0,.557-.009.866.031.664.313.945.735,1.016a7.121,7.121,0,0,1-.811,14.183H622.764A10.122,10.122,0,0,1,613.149,1443.358Z" transform="translate(-609.64 -1420.053)" fill="#91b3fa" opacity="0.21"/>
    </g>
    <g id="Group_1420" data-name="Group 1420" transform="translate(469.434 492.313)">
      <path id="Path_4177" data-name="Path 4177" d="M827.094,2205.76a.607.607,0,0,0,.605.6h32.737a.607.607,0,0,0,.605-.6l.272-18.813a1.054,1.054,0,0,0-1.11-.933l-31.994-.828a1.526,1.526,0,0,0-1.565,1.56Z" transform="translate(-824.438 -2185.185)" fill="url(#linear-gradient-3)"/>
      <path id="Path_4178" data-name="Path 4178" d="M854.519,2237.727a.574.574,0,0,0,.573.573h31.383a.574.574,0,0,0,.573-.573l.257-17.079a1.41,1.41,0,0,0-1.478-1.375l-30.664-.823a1.072,1.072,0,0,0-1.1,1.1Z" transform="translate(-851.265 -2217.733)" fill="#10b5df"/>
      <g id="Group_1416" data-name="Group 1416" transform="translate(24.392 1.603)">
        <path id="Path_4179" data-name="Path 4179" d="M2363.989,2665.636h0a.084.084,0,0,1-.083-.085l.02-1.385a.084.084,0,0,1,.084-.083h0a.084.084,0,0,1,.083.085l-.021,1.385A.084.084,0,0,1,2363.989,2665.636Z" transform="translate(-2352.938 -2655.358)" fill="#fff"/>
        <path id="Path_4180" data-name="Path 4180" d="M1866.492,2266.411h0a.084.084,0,0,1-.083-.085l.078-5.3a1,1,0,0,0-.284-.746,1.4,1.4,0,0,0-.928-.317l-9.8-.263a.084.084,0,0,1-.082-.086.08.08,0,0,1,.086-.082l9.795.263a1.542,1.542,0,0,1,1.045.363,1.158,1.158,0,0,1,.336.868l-.078,5.306A.084.084,0,0,1,1866.492,2266.411Z" transform="translate(-1855.391 -2259.528)" fill="#fff"/>
      </g>
      <rect id="Rectangle_177" data-name="Rectangle 177" width="38.596" height="1.653" rx="0.826" transform="translate(38.596 22.741) rotate(180)" fill="url(#linear-gradient-4)"/>
      <path id="Path_4181" data-name="Path 4181" d="M921.753,2311.472H909.67a.807.807,0,0,1-.807-.807v-15.772a.807.807,0,0,1,.838-.806l12.083.462a.807.807,0,0,1,.776.806v15.31A.807.807,0,0,1,921.753,2311.472Z" transform="translate(-904.884 -2291.738)" fill="#0f8faf"/>
      <g id="Group_1417" data-name="Group 1417" transform="translate(6.347 8.536)">
        <rect id="Rectangle_178" data-name="Rectangle 178" width="8.234" height="1.064" rx="0.532" fill="#fff" opacity="0.51"/>
        <rect id="Rectangle_179" data-name="Rectangle 179" width="8.234" height="1.064" rx="0.532" transform="translate(0.016 1.699)" fill="#fff" opacity="0.51"/>
        <rect id="Rectangle_180" data-name="Rectangle 180" width="8.234" height="1.064" rx="0.532" transform="translate(0.064 3.433)" fill="#fff" opacity="0.51"/>
        <rect id="Rectangle_181" data-name="Rectangle 181" width="8.234" height="1.064" rx="0.532" transform="translate(0.081 5.131)" fill="#fff" opacity="0.51"/>
      </g>
      <g id="Group_1419" data-name="Group 1419" transform="translate(20.296 2.888)">
        <rect id="Rectangle_182" data-name="Rectangle 182" width="11.838" height="1.064" rx="0.532" transform="translate(0 5.647)" fill="#fff" opacity="0.51"/>
        <rect id="Rectangle_183" data-name="Rectangle 183" width="11.838" height="1.064" rx="0.532" transform="translate(0.037 7.347)" fill="#fff" opacity="0.51"/>
        <rect id="Rectangle_184" data-name="Rectangle 184" width="7.014" height="1.064" rx="0.532" transform="translate(0.037 9.081)" fill="#fff" opacity="0.51"/>
        <g id="Group_1418" data-name="Group 1418" transform="translate(3.121)" opacity="0.51">
          <path id="Path_4182" data-name="Path 4182" d="M1831.471,2320.8h-.18a.162.162,0,0,1-.162-.162v-.616a.4.4,0,0,0-.4-.4h-1.117a.4.4,0,0,0-.4.4v.616a.162.162,0,0,1-.162.162h-.18a.162.162,0,0,1-.162-.162v-.616a.9.9,0,0,1,.9-.9h1.117a.9.9,0,0,1,.9.9v.616A.162.162,0,0,1,1831.471,2320.8Z" transform="translate(-1828.308 -2319.116)" fill="#fff"/>
          <path id="Path_4183" data-name="Path 4183" d="M1813.566,2403.874h-3.048a.338.338,0,0,0-.338.338v2.339a.338.338,0,0,0,.338.338h3.048a.338.338,0,0,0,.338-.338v-2.339A.338.338,0,0,0,1813.566,2403.874Zm-1.088,2.261a.125.125,0,0,1-.122.155h-.629a.125.125,0,0,1-.122-.155l.147-.611a.565.565,0,1,1,.579,0Z" transform="translate(-1810.18 -2402.046)" fill="#fff"/>
        </g>
      </g>
    </g>
    <g id="Group_1429" data-name="Group 1429" transform="translate(486.799 455)">
      <g id="Group_1424" data-name="Group 1424" transform="translate(0 0)">
        <g id="Group_1421" data-name="Group 1421" transform="translate(0 11.662)">
          <path id="Path_4184" data-name="Path 4184" d="M2364.958,1112.616a.072.072,0,0,1-.035-.009.072.072,0,0,1-.028-.1q.07-.126.136-.254a.073.073,0,1,1,.129.067q-.067.13-.138.258A.072.072,0,0,1,2364.958,1112.616Z" transform="translate(-2346.87 -1109.703)" fill="#91b3fa"/>
          <path id="Path_4185" data-name="Path 4185" d="M1553.573,1057.037h-.129a.073.073,0,0,1,0-.145h0c.188,0,.378,0,.565-.009a.074.074,0,0,1,.076.069.073.073,0,0,1-.069.076C1553.87,1057.034,1553.72,1057.037,1553.573,1057.037Zm-1.051-.057h-.008c-.19-.021-.381-.047-.568-.078a.073.073,0,0,1,.024-.143c.185.031.373.057.56.077a.073.073,0,0,1-.008.145Zm2.413-.039a.073.073,0,0,1-.01-.144c.186-.026.373-.058.557-.1a.073.073,0,1,1,.029.142c-.186.038-.377.07-.565.1Zm-3.881-.235-.019,0c-.184-.049-.369-.1-.55-.164a.073.073,0,0,1,.046-.138c.178.059.36.113.541.162a.073.073,0,0,1-.019.143Zm5.339-.087a.073.073,0,0,1-.021-.142c.18-.054.36-.115.536-.18a.073.073,0,1,1,.05.136c-.178.066-.361.127-.544.182A.07.07,0,0,1,1556.394,1056.62Zm-6.748-.408a.071.071,0,0,1-.029-.006c-.175-.077-.349-.16-.518-.247a.073.073,0,1,1,.066-.129c.166.085.338.167.51.243a.073.073,0,0,1-.029.139Zm8.139-.134a.073.073,0,0,1-.031-.138c.169-.081.338-.169.5-.26a.073.073,0,0,1,.071.127c-.167.093-.338.182-.51.264A.072.072,0,0,1,1557.785,1056.078Zm-9.455-.572a.071.071,0,0,1-.039-.012c-.16-.1-.32-.212-.473-.324a.073.073,0,0,1,.086-.117c.151.11.308.218.466.319a.073.073,0,0,1-.039.134Zm10.746-.178a.073.073,0,0,1-.041-.132c.154-.107.308-.219.456-.334a.073.073,0,0,1,.089.115c-.15.117-.306.231-.463.339A.073.073,0,0,1,1559.076,1055.327Zm-11.936-.722a.072.072,0,0,1-.048-.018c-.142-.126-.283-.258-.418-.392a.073.073,0,1,1,.1-.1c.133.133.272.263.412.387a.073.073,0,0,1-.048.127Zm13.1-.218a.073.073,0,0,1-.05-.125c.137-.129.271-.263.4-.4a.073.073,0,0,1,.106.1c-.131.138-.267.275-.406.405A.072.072,0,0,1,1560.238,1054.388Zm-14.137-.854a.072.072,0,0,1-.056-.026c-.122-.146-.241-.3-.354-.451a.073.073,0,1,1,.117-.086c.112.151.229.3.349.445a.073.073,0,0,1-.056.119Zm15.142-.25a.073.073,0,0,1-.057-.117c.116-.149.228-.3.334-.456a.073.073,0,1,1,.12.082c-.108.156-.222.312-.339.463A.073.073,0,0,1,1561.243,1053.283Zm-16.007-.967a.073.073,0,0,1-.062-.035c-.1-.164-.193-.332-.281-.5a.073.073,0,1,1,.129-.067c.086.166.179.331.276.493a.073.073,0,0,1-.062.11Zm-.667-1.336a.073.073,0,0,1-.067-.045c-.072-.177-.139-.358-.2-.538a.073.073,0,1,1,.137-.047c.06.177.126.355.2.53a.073.073,0,0,1-.04.095A.072.072,0,0,1,1544.568,1050.981Z" transform="translate(-1543.979 -1049.125)" fill="#91b3fa"/>
          <path id="Path_4186" data-name="Path 4186" d="M1529.694,996.173a.073.073,0,0,1-.071-.056q-.034-.143-.063-.286a.073.073,0,1,1,.142-.029c.019.094.04.188.062.281a.072.072,0,0,1-.054.087Z" transform="translate(-1529.559 -995.744)" fill="#91b3fa"/>
        </g>
        <g id="Group_1422" data-name="Group 1422" transform="translate(1.293)">
          <path id="Path_4187" data-name="Path 4187" d="M1589.595,654.68a.072.072,0,0,1-.039-.011.072.072,0,0,1-.023-.1q.078-.123.159-.245a.073.073,0,1,1,.12.081q-.081.12-.157.241A.073.073,0,0,1,1589.595,654.68Z" transform="translate(-1589.522 -649.993)" fill="#91b3fa"/>
          <path id="Path_4188" data-name="Path 4188" d="M1640.759,462.119a.073.073,0,0,1-.07-.052c-.055-.189-.118-.379-.185-.565a.073.073,0,0,1,.137-.049c.068.188.131.381.188.573a.073.073,0,0,1-.049.09A.072.072,0,0,1,1640.759,462.119Zm-.563-1.466a.073.073,0,0,1-.066-.041c-.086-.178-.178-.355-.274-.527a.073.073,0,1,1,.127-.071c.1.174.191.354.278.535a.073.073,0,0,1-.034.1A.072.072,0,0,1,1640.2,460.653Zm-.793-1.355a.072.072,0,0,1-.059-.031c-.113-.161-.233-.321-.356-.476a.073.073,0,0,1,.114-.09c.125.157.246.319.361.483a.073.073,0,0,1-.059.114Zm-15.451-.634a.073.073,0,0,1-.056-.119c.127-.153.262-.306.4-.452a.073.073,0,0,1,.106.1c-.135.144-.268.294-.393.445A.073.073,0,0,1,1623.952,458.665Zm14.45-.576a.072.072,0,0,1-.052-.022c-.137-.141-.28-.28-.426-.413a.073.073,0,0,1,.1-.107c.148.135.294.276.433.419a.073.073,0,0,1-.052.123Zm-13.354-.548a.073.073,0,0,1-.048-.127c.151-.132.308-.261.466-.383a.073.073,0,1,1,.089.115c-.156.12-.311.247-.459.377A.073.073,0,0,1,1625.048,457.541Zm12.174-.487a.073.073,0,0,1-.043-.014c-.158-.118-.322-.232-.487-.339a.073.073,0,1,1,.079-.122c.167.109.334.225.495.344a.073.073,0,0,1-.043.131Zm-10.913-.448a.073.073,0,0,1-.038-.134c.17-.106.345-.208.522-.3a.073.073,0,0,1,.069.128c-.174.094-.347.194-.514.3A.072.072,0,0,1,1626.31,456.606Zm9.581-.382a.072.072,0,0,1-.033-.008c-.175-.09-.355-.176-.536-.256a.073.073,0,0,1,.058-.133c.183.081.366.168.544.259a.073.073,0,0,1-.033.137Zm-8.185-.337a.073.073,0,0,1-.028-.14c.184-.077.374-.149.564-.214a.073.073,0,0,1,.047.137c-.187.064-.374.135-.556.211A.073.073,0,0,1,1627.706,455.887Zm6.737-.267a.073.073,0,0,1-.022,0c-.187-.061-.379-.116-.57-.166a.073.073,0,1,1,.036-.141c.194.05.389.107.579.168a.073.073,0,0,1-.022.142Zm-5.243-.216a.073.073,0,0,1-.017-.143c.2-.046.394-.086.591-.12a.073.073,0,0,1,.025.143c-.194.033-.39.073-.582.118Zm3.716-.146h-.011c-.2-.03-.393-.054-.59-.072a.073.073,0,0,1,.013-.145c.2.018.4.043.6.073a.073.073,0,0,1-.011.144Zm-2.164-.089a.073.073,0,0,1-.005-.145c.2-.014.4-.022.6-.024h0a.073.073,0,0,1,0,.145c-.2,0-.4.01-.594.023Z" transform="translate(-1623.139 -455)" fill="#91b3fa"/>
          <path id="Path_4189" data-name="Path 4189" d="M2413.835,822.842a.073.073,0,0,1-.072-.061q-.022-.142-.049-.284a.073.073,0,0,1,.143-.027q.027.144.049.288a.073.073,0,0,1-.061.083Z" transform="translate(-2395.939 -814.488)" fill="#91b3fa"/>
        </g>
        <g id="Group_1423" data-name="Group 1423" transform="translate(2.016 2.32)">
          <path id="Path_4190" data-name="Path 4190" d="M1638.078,569.829a.117.117,0,0,0-.07-.116l-1.3-.565a6.185,6.185,0,0,0-.62-1.9l.718-1.223a.116.116,0,0,0-.012-.135l-1.106-1.294a.117.117,0,0,0-.131-.033l-1.319.52a6.184,6.184,0,0,0-1.786-.907l-.357-1.373a.117.117,0,0,0-.1-.087l-1.7-.132a.117.117,0,0,0-.116.07l-.565,1.3a6.182,6.182,0,0,0-1.9.62l-1.223-.718a.117.117,0,0,0-.135.012l-1.293,1.107a.117.117,0,0,0-.033.131l.52,1.319a6.179,6.179,0,0,0-.907,1.785l-1.373.357a.116.116,0,0,0-.087.1l-.132,1.7a.116.116,0,0,0,.07.116l1.3.565a6.182,6.182,0,0,0,.62,1.9l-.718,1.223a.117.117,0,0,0,.012.135l1.106,1.294a.117.117,0,0,0,.131.033l1.319-.52a6.184,6.184,0,0,0,1.786.907l.357,1.373a.117.117,0,0,0,.1.087l1.7.132a.116.116,0,0,0,.116-.07l.566-1.3a6.181,6.181,0,0,0,1.9-.62l1.223.718a.116.116,0,0,0,.135-.012l1.293-1.106a.116.116,0,0,0,.033-.131l-.52-1.319a6.179,6.179,0,0,0,.907-1.785l1.374-.357a.117.117,0,0,0,.087-.1Z" transform="translate(-1623.043 -562.58)" fill="#91b3fa"/>
          <path id="Path_4191" data-name="Path 4191" d="M1898.132,839.255a1.625,1.625,0,1,1,.277-.024A1.643,1.643,0,0,1,1898.132,839.255Zm.006-3.024a1.42,1.42,0,0,0-.24.021,1.4,1.4,0,1,0,1.047.238h0A1.393,1.393,0,0,0,1898.138,836.232Z" transform="translate(-1890.618 -830.117)" fill="#fff" opacity="0.7"/>
          <path id="Path_4192" data-name="Path 4192" d="M1778.656,724.091q-.166,0-.334-.013a4.217,4.217,0,0,1-3.889-4.2q0-.167.013-.334a4.216,4.216,0,0,1,7.407-2.413,4.235,4.235,0,0,1,.508.74l-.192.1a4.023,4.023,0,0,0-.482-.7,4,4,0,0,0-7.025,2.288q-.012.159-.012.317a4,4,0,0,0,7.79,1.267l.207.069a4.219,4.219,0,0,1-3.991,2.874Z" transform="translate(-1771.168 -712.357)" fill="#fff" opacity="0.7"/>
        </g>
      </g>
      <g id="Group_1428" data-name="Group 1428" transform="translate(17.021 9.283)">
        <g id="Group_1425" data-name="Group 1425" transform="translate(0 5.986)">
          <path id="Path_4193" data-name="Path 4193" d="M2744.693,1223.218a.071.071,0,0,1-.037-.01.073.073,0,0,1-.026-.1c.049-.082.1-.167.139-.25a.073.073,0,0,1,.129.067c-.044.086-.093.173-.143.258A.073.073,0,0,1,2744.693,1223.218Z" transform="translate(-2735.437 -1221.529)" fill="#91b3fa"/>
          <path id="Path_4194" data-name="Path 4194" d="M2341.392,1220.463h-.006a5.107,5.107,0,0,1-.588-.081.073.073,0,0,1,.028-.142,4.963,4.963,0,0,0,.571.079.073.073,0,0,1-.006.145Zm.949-.015a.073.073,0,0,1-.008-.145,4.961,4.961,0,0,0,.568-.1.073.073,0,0,1,.033.141,5.073,5.073,0,0,1-.585.1Zm-2.439-.336a.073.073,0,0,1-.027-.005,5.048,5.048,0,0,1-.536-.255.073.073,0,1,1,.07-.127,4.925,4.925,0,0,0,.52.248.073.073,0,0,1-.027.14Zm3.917-.065a.073.073,0,0,1-.03-.139,4.908,4.908,0,0,0,.512-.266.073.073,0,0,1,.074.125,5.034,5.034,0,0,1-.527.274A.07.07,0,0,1,2343.819,1220.046Zm-5.229-.723a.073.073,0,0,1-.047-.017,5.1,5.1,0,0,1-.432-.406.073.073,0,1,1,.105-.1,5,5,0,0,0,.42.395.073.073,0,0,1-.046.128Zm6.513-.11a.073.073,0,0,1-.048-.127l.043-.038a5.011,5.011,0,0,0,.365-.37.073.073,0,1,1,.108.1,5.11,5.11,0,0,1-.375.38l-.044.04A.072.072,0,0,1,2345.1,1219.214Zm-7.526-1.039a.072.072,0,0,1-.061-.033,5.038,5.038,0,0,1-.29-.518.072.072,0,1,1,.13-.063,4.985,4.985,0,0,0,.282.5.072.072,0,0,1-.022.1A.071.071,0,0,1,2337.578,1218.176Z" transform="translate(-2336.822 -1216.344)" fill="#91b3fa"/>
          <path id="Path_4195" data-name="Path 4195" d="M2318.928,1163.42a.072.072,0,0,1-.07-.054c-.025-.094-.048-.191-.067-.287a.073.073,0,1,1,.142-.029c.019.093.041.187.065.278a.073.073,0,0,1-.052.089Z" transform="translate(-2318.79 -1162.992)" fill="#91b3fa"/>
        </g>
        <g id="Group_1426" data-name="Group 1426" transform="translate(0.664)">
          <path id="Path_4196" data-name="Path 4196" d="M2349.661,982.6a.071.071,0,0,1-.039-.011.072.072,0,0,1-.023-.1c.052-.083.107-.165.164-.245a.073.073,0,0,1,.118.084c-.055.077-.109.157-.159.238A.073.073,0,0,1,2349.661,982.6Z" transform="translate(-2349.588 -980.127)" fill="#91b3fa"/>
          <path id="Path_4197" data-name="Path 4197" d="M2393.6,888.6a.073.073,0,0,1-.067-.044,4.842,4.842,0,0,0-.252-.508.073.073,0,0,1,.126-.072,5.05,5.05,0,0,1,.259.523.073.073,0,0,1-.067.1Zm-.792-1.281a.073.073,0,0,1-.055-.026q-.055-.065-.114-.129c-.089-.1-.182-.192-.278-.281a.073.073,0,1,1,.1-.106c.1.092.195.19.286.29q.06.066.117.133a.072.072,0,0,1-.055.12Zm-7.253-.372a.073.073,0,0,1-.05-.125l.089-.083c.114-.1.233-.2.355-.3a.073.073,0,1,1,.088.116c-.118.09-.234.187-.345.287l-.087.081A.072.072,0,0,1,2385.559,886.948Zm6.116-.616a.072.072,0,0,1-.039-.011,4.936,4.936,0,0,0-.5-.275.073.073,0,1,1,.063-.131,5.094,5.094,0,0,1,.511.283.073.073,0,0,1-.039.134Zm-4.885-.251a.073.073,0,0,1-.032-.138,5.1,5.1,0,0,1,.537-.229.073.073,0,0,1,.049.137,4.913,4.913,0,0,0-.522.223A.071.071,0,0,1,2386.791,886.081Zm3.5-.352-.019,0a4.951,4.951,0,0,0-.556-.114.073.073,0,0,1-.061-.082.072.072,0,0,1,.082-.061,5.1,5.1,0,0,1,.572.117.073.073,0,0,1-.019.143Zm-2.07-.106a.073.073,0,0,1-.011-.144,5.111,5.111,0,0,1,.581-.058.073.073,0,1,1,.006.145,4.968,4.968,0,0,0-.564.056Z" transform="translate(-2384.713 -885.421)" fill="#91b3fa"/>
          <path id="Path_4198" data-name="Path 4198" d="M2771.8,1067.964a.073.073,0,0,1-.072-.061c-.015-.094-.032-.188-.052-.281a.073.073,0,1,1,.142-.031c.021.1.039.193.054.289a.073.073,0,0,1-.061.083Z" transform="translate(-2762.569 -1063.605)" fill="#91b3fa"/>
        </g>
        <g id="Group_1427" data-name="Group 1427" transform="translate(1.071 1.223)">
          <path id="Path_4199" data-name="Path 4199" d="M2376.169,945.844a.06.06,0,0,0-.036-.06l-.668-.29a3.182,3.182,0,0,0-.318-.978l.369-.628a.06.06,0,0,0-.006-.069l-.568-.664a.06.06,0,0,0-.067-.017l-.678.267a3.177,3.177,0,0,0-.917-.466l-.183-.706a.06.06,0,0,0-.053-.045l-.872-.068a.06.06,0,0,0-.06.036l-.291.669a3.178,3.178,0,0,0-.978.318l-.628-.369a.06.06,0,0,0-.069.006l-.665.568a.059.059,0,0,0-.017.067l.267.678a3.179,3.179,0,0,0-.466.917l-.705.183a.06.06,0,0,0-.045.053l-.068.872a.059.059,0,0,0,.036.06l.669.29a3.176,3.176,0,0,0,.318.978l-.369.628a.06.06,0,0,0,.006.069l.568.664a.06.06,0,0,0,.068.017l.678-.267a3.174,3.174,0,0,0,.917.466l.184.706a.06.06,0,0,0,.053.045l.872.068a.06.06,0,0,0,.06-.036l.29-.669a3.177,3.177,0,0,0,.978-.318l.628.369a.06.06,0,0,0,.069-.006l.664-.568a.06.06,0,0,0,.017-.068l-.267-.678a3.178,3.178,0,0,0,.466-.917l.706-.183a.06.06,0,0,0,.045-.053Z" transform="translate(-2368.446 -942.12)" fill="#91b3fa"/>
          <path id="Path_4200" data-name="Path 4200" d="M2507.353,1081.889a.888.888,0,1,1,.151-.013A.892.892,0,0,1,2507.353,1081.889Zm0-1.553a.667.667,0,1,0,.385.123h0A.663.663,0,0,0,2507.356,1080.336Z" transform="translate(-2503.494 -1077.142)" fill="#fff" opacity="0.7"/>
          <path id="Path_4201" data-name="Path 4201" d="M2446.031,1022.781q-.088,0-.176-.007a2.219,2.219,0,1,1,1.858-3.654l.019.022a2.236,2.236,0,0,1,.229.331h0l0,.005.005.009,0,.005.008.016-.191.1a2.028,2.028,0,0,0-.241-.351h0a2,2,0,1,0,.376,1.938l.207.069a2.22,2.22,0,0,1-2.1,1.513Z" transform="translate(-2442.185 -1016.701)" fill="#fff" opacity="0.7"/>
        </g>
      </g>
    </g>
    <g id="Group_1432" data-name="Group 1432" transform="translate(494.326 474.742)">
      <g id="Group_1430" data-name="Group 1430" transform="translate(0 0)">
        <path id="Path_4202" data-name="Path 4202" d="M1878.881,1375.029a.86.86,0,0,1,.665-.229,14.93,14.93,0,0,0,10.675-4.284c.221-.226.625-.1.878.091,3.544,2.649,9.418,3.2,11.457,3.309a.861.861,0,0,1,.808.771c1.854,17.912-9.808,24.4-12.226,25.548a.862.862,0,0,1-.824-.048c-12.055-7.509-11.539-17.274-11.706-24.509A.861.861,0,0,1,1878.881,1375.029Z" transform="translate(-1878.608 -1370.396)" fill="url(#linear-gradient-5)"/>
        <path id="Path_4203" data-name="Path 4203" d="M1949.628,1469.424a.287.287,0,0,1-.155-.045c-4.621-2.954-7.634-6.486-9.209-10.8-1.406-3.851-1.475-7.771-1.536-11.231l-.008-.461a.285.285,0,0,1,.286-.29h0a16.631,16.631,0,0,0,10.309-4.087.285.285,0,0,1,.348-.025c3.462,2.3,8.4,2.966,11.036,3.16a.285.285,0,0,1,.263.26c.613,6.989-.841,12.9-4.321,17.565a20.741,20.741,0,0,1-6.885,5.92h0A.285.285,0,0,1,1949.628,1469.424Zm.077-.136.027.052-.027-.052a20.615,20.615,0,0,0,6.844-5.886c3.462-4.643,4.908-10.526,4.3-17.485a.167.167,0,0,0-.155-.153c-2.647-.2-7.608-.868-11.092-3.18a.168.168,0,0,0-.205.015,16.755,16.755,0,0,1-10.385,4.117h0a.17.17,0,0,0-.124.051.165.165,0,0,0-.048.12l.008.461c.061,3.45.129,7.361,1.529,11.193,1.566,4.286,4.562,7.8,9.161,10.739A.17.17,0,0,0,1949.7,1469.289Z" transform="translate(-1937.424 -1440.886)" fill="#fff" opacity="0.61"/>
      </g>
      <g id="Group_1431" data-name="Group 1431" transform="translate(6.856 6.309)">
        <path id="Path_4204" data-name="Path 4204" d="M2260.887,1668.015h-.545a.49.49,0,0,1-.49-.49v-1.863a1.208,1.208,0,0,0-1.208-1.208h-3.378a1.208,1.208,0,0,0-1.208,1.208v1.863a.49.49,0,0,1-.49.49h-.545a.49.49,0,0,1-.49-.49v-1.863a2.733,2.733,0,0,1,2.733-2.733h3.378a2.733,2.733,0,0,1,2.733,2.733v1.863A.49.49,0,0,1,2260.887,1668.015Z" transform="translate(-2251.325 -1662.929)" fill="#fff" opacity="0.61"/>
        <path id="Path_4205" data-name="Path 4205" d="M2206.756,1919.172h-9.215a1.022,1.022,0,0,0-1.022,1.022v7.072a1.022,1.022,0,0,0,1.022,1.022h9.215a1.022,1.022,0,0,0,1.022-1.022v-7.072A1.022,1.022,0,0,0,2206.756,1919.172Zm-3.289,6.835a.379.379,0,0,1-.368.467h-1.9a.379.379,0,0,1-.368-.467l.443-1.846a1.708,1.708,0,1,1,1.75,0Z" transform="translate(-2196.519 -1913.646)" fill="#fff" opacity="0.61"/>
      </g>
    </g>
    <g id="Group_1434" data-name="Group 1434" transform="translate(464.085 467.948)">
      <path id="Path_4206" data-name="Path 4206" d="M671.2,1811.972s.746.04.838,1.575a8.867,8.867,0,0,1-4.068,1.921c-.176.028.245-1.2.309-1.364C668.582,1813.313,669.53,1812.8,671.2,1811.972Z" transform="translate(-663.798 -1795.656)" fill="url(#linear-gradient-6)"/>
      <path id="Path_4207" data-name="Path 4207" d="M731.873,1461.609H730.3s-4.834-5.339-8-5.877c0,0-2.207,2.817.118,8.081a.768.768,0,0,0,1.1.362.63.63,0,0,0,.251-.3l-.187-4.495s4.123,3.606,4.84,4.3S732.776,1463.955,731.873,1461.609Z" transform="translate(-716.063 -1447.098)" fill="#7d97f4"/>
      <path id="Path_4208" data-name="Path 4208" d="M502.557,2183.876a5.921,5.921,0,0,1,3.23-1.413l.513.314a5.6,5.6,0,0,1-.925.993,6.462,6.462,0,0,1-2.1.845C502.588,2184.707,502.487,2184.293,502.557,2183.876Z" transform="translate(-501.974 -2158.156)" fill="url(#linear-gradient-7)"/>
      <path id="Path_4209" data-name="Path 4209" d="M653.83,1874.916c.407.132.585.708,1.617.327a9.136,9.136,0,0,0,2.122-1.118c.008.074.016.152.021.234a8.861,8.861,0,0,1-4.163,2.1.233.233,0,0,1-.251-.313A5.871,5.871,0,0,1,653.83,1874.916Z" transform="translate(-649.347 -1856.468)" fill="#91b3fa"/>
      <path id="Path_4210" data-name="Path 4210" d="M476.437,2243.668a5.456,5.456,0,0,1,.5-.494c-.07.417.031.83.716.739a6.463,6.463,0,0,0,2.1-.845,4.544,4.544,0,0,1-3.06,1.175A.347.347,0,0,1,476.437,2243.668Z" transform="translate(-476.351 -2217.455)" fill="#91b3fa"/>
      <path id="Path_4211" data-name="Path 4211" d="M646.046,1781.1l-7.375.08a15.533,15.533,0,0,0-4.976,8.8s-.127.391.635.458a14.621,14.621,0,0,0,4.207-4.6c2.036-3.605,6.069-1.982,6.069-1.982,1.938.428,3.48.269,4.609-1.468Z" transform="translate(-630.294 -1765.446)" fill="#7d97f4"/>
      <path id="Path_4212" data-name="Path 4212" d="M908.579,1505.6a8.151,8.151,0,0,1-4.684,5.553l-1.384-.163-.327.521,3.246.1a8.877,8.877,0,0,0,4.245-4.094C909.724,1507.427,910.534,1505.755,908.579,1505.6Z" transform="translate(-893.001 -1495.896)" fill="url(#linear-gradient-8)"/>
      <path id="Path_4213" data-name="Path 4213" d="M1173.389,1338.258a21.255,21.255,0,0,0,1.1-4.839,10.428,10.428,0,0,0-1.073-.813.3.3,0,0,1-.116-.387,22.963,22.963,0,0,1,2.277-3.132c.747-.187,3.813-1.644,5.971,1.309.927,1.267-.184,5.168-4.387,9.208A4.107,4.107,0,0,1,1173.389,1338.258Z" transform="translate(-1158.236 -1322.673)" fill="url(#linear-gradient-9)"/>
      <path id="Path_4214" data-name="Path 4214" d="M949.1,1578.635s-2.508,2.97-5.716,3.4c0,0-.829-.756-1.445-.486a5.561,5.561,0,0,0-1.461,1.461H944.6s3.894-.137,5.839-2.5A3.044,3.044,0,0,0,949.1,1578.635Z" transform="translate(-930.472 -1567.351)" fill="url(#linear-gradient-10)"/>
      <path id="Path_4215" data-name="Path 4215" d="M1328.578,1256.236l.549,1.831a.2.2,0,0,1-.078.224,2.045,2.045,0,0,1-1.9.191.3.3,0,0,1-.192-.256l-.13-1.595Z" transform="translate(-1308.483 -1251.905)" fill="url(#linear-gradient-11)"/>
      <g id="Group_1433" data-name="Group 1433" transform="translate(15.683)">
        <path id="Path_4216" data-name="Path 4216" d="M1259.117,1130.725s.27,1.9,1,2.481,2.149.144,2.629-1.286l-.956-2.446Z" transform="translate(-1257.919 -1127.877)" fill="url(#linear-gradient-12)"/>
        <path id="Path_4217" data-name="Path 4217" d="M1207.526,1058.585a.094.094,0,0,1-.122-.075,2.455,2.455,0,0,0-.225-.758s.069-.249-.629.127-1.748.928-2.366.6c-.6-.321-1.213-1.935.379-1.636a.094.094,0,0,0,.112-.1.968.968,0,0,1,.625-1.071.888.888,0,0,1,1.026.235.093.093,0,0,0,.146,0,1.083,1.083,0,0,1,1.337-.4c.57.251.659.6.65.822a.094.094,0,0,0,.133.089.564.564,0,0,1,.725.215c.372.466-.16.871-.319.977a.094.094,0,0,0-.043.078,3.2,3.2,0,0,1-.57,1.9.1.1,0,0,1-.157-.027l-.408-.973a.094.094,0,0,0-.116-.053Z" transform="translate(-1203.548 -1055.404)" fill="url(#linear-gradient-13)"/>
        <path id="Path_4218" data-name="Path 4218" d="M1387.6,1177.927s.249-1.016.628-.686-.1,1.055-.532,1.194Z" transform="translate(-1383.635 -1174.549)" fill="url(#linear-gradient-14)"/>
      </g>
      <path id="Path_4219" data-name="Path 4219" d="M710.33,1484.519l-1.849-6.166a.631.631,0,0,0-.561-.448l-2.5-.171a.354.354,0,0,0-.358.47l2.067,5.889a.518.518,0,0,0,.437.344l2.458.273Z" transform="translate(-700.113 -1468.625)" fill="url(#linear-gradient-15)"/>
      <path id="Path_4220" data-name="Path 4220" d="M787.681,1573.258c.138.279.376.442.532.365s.171-.366.033-.645-.376-.442-.532-.365S787.543,1572.979,787.681,1573.258Z" transform="translate(-780.874 -1561.441)" fill="#91b3fa"/>
      <path id="Path_4221" data-name="Path 4221" d="M925.435,1767.921h.012l5.238-.265a.235.235,0,1,0-.024-.469l-5.238.265a.235.235,0,0,0,.012.469Z" transform="translate(-915.521 -1751.836)" fill="url(#linear-gradient-16)"/>
      <path id="Path_4222" data-name="Path 4222" d="M1228.181,1435.335a.036.036,0,0,1-.036-.036,11.2,11.2,0,0,1,.426-2.584.036.036,0,1,1,.07.02,11.131,11.131,0,0,0-.423,2.563.036.036,0,0,1-.036.036Z" transform="translate(-1211.932 -1424.553)" fill="url(#linear-gradient-17)"/>
      <path id="Path_4223" data-name="Path 4223" d="M1338.641,1465.479a.036.036,0,0,1-.028-.059,13.167,13.167,0,0,0,1.54-2.449.036.036,0,0,1,.068.027,13.239,13.239,0,0,1-1.55,2.468A.036.036,0,0,1,1338.641,1465.479Z" transform="translate(-1320.009 -1454.158)" fill="url(#linear-gradient-18)"/>
      <path id="Path_4224" data-name="Path 4224" d="M1405.423,1557.824l-.207-.293a.036.036,0,0,1,.059-.042l.173.245a6.475,6.475,0,0,0,2.626-2.661.036.036,0,0,1,.065.033,6.526,6.526,0,0,1-2.689,2.706Z" transform="translate(-1385.177 -1544.278)" fill="url(#linear-gradient-19)"/>
    </g>
  </g>
</svg>
