<svg xmlns="http://www.w3.org/2000/svg" xmlns:xlink="http://www.w3.org/1999/xlink" width="59.794" height="59.438" viewBox="0 0 59.794 59.438">
  <defs>
    <linearGradient id="linear-gradient" x1="1.091" y1="1.163" x2="0.386" y2="0.408" gradientUnits="objectBoundingBox">
      <stop offset="0" stop-color="#dae3fe"/>
      <stop offset="1" stop-color="#e9effd"/>
    </linearGradient>
    <linearGradient id="linear-gradient-2" y1="0.5" x2="1" y2="0.5" gradientUnits="objectBoundingBox">
      <stop offset="0" stop-color="#09005d"/>
      <stop offset="1" stop-color="#1a0f91"/>
    </linearGradient>
    <linearGradient id="linear-gradient-3" x1="1.323" y1="0.021" x2="0.034" y2="0.708" gradientUnits="objectBoundingBox">
      <stop offset="0" stop-color="#4f52ff"/>
      <stop offset="1" stop-color="#4042e2"/>
    </linearGradient>
    <linearGradient id="linear-gradient-4" x1="0.571" y1="0.385" x2="-2.067" y2="3.776" xlink:href="#linear-gradient-3"/>
    <linearGradient id="linear-gradient-6" x1="0.168" y1="0.318" x2="2.168" y2="0.866" xlink:href="#linear-gradient-2"/>
    <linearGradient id="linear-gradient-7" x1="1.406" y1="0.512" x2="5.004" y2="0.56" xlink:href="#linear-gradient-2"/>
    <linearGradient id="linear-gradient-8" x1="-9.109" y1="0.5" x2="-8.109" y2="0.5" xlink:href="#linear-gradient-2"/>
    <linearGradient id="linear-gradient-9" x1="-22.236" y1="0.318" x2="-20.236" y2="0.866" xlink:href="#linear-gradient-2"/>
    <linearGradient id="linear-gradient-10" x1="-156.808" y1="0.512" x2="-153.21" y2="0.56" xlink:href="#linear-gradient-2"/>
    <linearGradient id="linear-gradient-11" y1="0.5" x2="1" y2="0.5" gradientUnits="objectBoundingBox">
      <stop offset="0" stop-color="#febbba"/>
      <stop offset="1" stop-color="#ff928e"/>
    </linearGradient>
    <linearGradient id="linear-gradient-13" x1="0.508" y1="1.162" x2="0.501" y2="0.545" xlink:href="#linear-gradient-3"/>
    <linearGradient id="linear-gradient-14" x1="0.539" y1="-0.093" x2="0.506" y2="0.69" xlink:href="#linear-gradient-3"/>
    <linearGradient id="linear-gradient-16" x1="1.872" y1="-1.669" x2="0.597" y2="0.314" xlink:href="#linear-gradient-3"/>
    <linearGradient id="linear-gradient-17" x1="0.953" y1="-0.153" x2="0.074" y2="1.115" xlink:href="#linear-gradient-3"/>
    <linearGradient id="linear-gradient-18" x1="0.411" y1="0.932" x2="0.634" y2="-0.163" gradientUnits="objectBoundingBox">
      <stop offset="0" stop-color="#0f8faf"/>
      <stop offset="1" stop-color="#10b5df"/>
    </linearGradient>
    <linearGradient id="linear-gradient-19" x1="0.864" y1="-0.394" x2="0.318" y2="0.974" xlink:href="#linear-gradient-18"/>
    <linearGradient id="linear-gradient-20" x1="0.516" y1="-9.336" x2="0.508" y2="-4.75" xlink:href="#linear-gradient-18"/>
    <clipPath id="clip-path">
      <path id="Path_4266" data-name="Path 4266" d="M994.522,1110.283l15.976-13.3a.365.365,0,0,0-.2-.643c-.112-.011-1.38-15.086-1.5-15.08l-29.729,2.76c-.374.021-1.2,14.194-1.5,14.377a.363.363,0,0,0-.053.575l12.036,11.193A3.839,3.839,0,0,0,994.522,1110.283Z" transform="translate(-977.407 -1081.256)" fill="none"/>
    </clipPath>
    <linearGradient id="linear-gradient-21" x1="0.657" y1="-0.028" x2="0.33" y2="1.17" gradientUnits="objectBoundingBox">
      <stop offset="0" stop-color="#ff928e"/>
      <stop offset="1" stop-color="#fe7062"/>
    </linearGradient>
    <linearGradient id="linear-gradient-22" x1="0.5" y1="-8.27" x2="0.5" y2="-5.631" gradientUnits="objectBoundingBox">
      <stop offset="0" stop-color="#e1473d"/>
      <stop offset="1" stop-color="#e9605a"/>
    </linearGradient>
    <linearGradient id="linear-gradient-23" x1="0.5" y1="-5.74" x2="0.5" y2="-3.237" xlink:href="#linear-gradient-22"/>
    <linearGradient id="linear-gradient-24" x1="0.5" y1="-7.373" x2="0.5" y2="-4.985" xlink:href="#linear-gradient-22"/>
    <linearGradient id="linear-gradient-25" x1="0.5" y1="-6.663" x2="0.5" y2="-3.835" xlink:href="#linear-gradient-22"/>
    <linearGradient id="linear-gradient-26" x1="0.5" y1="-3.087" x2="0.5" y2="-1.862" xlink:href="#linear-gradient-22"/>
    <linearGradient id="linear-gradient-27" x1="0.443" y1="0.025" x2="0.574" y2="1.573" xlink:href="#linear-gradient-18"/>
    <linearGradient id="linear-gradient-28" x1="0.422" y1="-0.02" x2="0.7" y2="1.608" xlink:href="#linear-gradient-18"/>
    <linearGradient id="linear-gradient-29" x1="-11.663" y1="0.5" x2="-10.663" y2="0.5" xlink:href="#linear-gradient-2"/>
    <linearGradient id="linear-gradient-30" x1="-11.14" y1="-42.682" x2="-11.288" y2="-13.23" gradientUnits="objectBoundingBox">
      <stop offset="0" stop-color="#53d8ff"/>
      <stop offset="1" stop-color="#3840f7"/>
    </linearGradient>
    <linearGradient id="linear-gradient-31" x1="-30.227" y1="-0.843" x2="-30.734" y2="2.39" xlink:href="#linear-gradient-11"/>
    <linearGradient id="linear-gradient-32" x1="-7.423" y1="-39.924" x2="-7.524" y2="-11.71" xlink:href="#linear-gradient-30"/>
    <linearGradient id="linear-gradient-33" x1="-8.102" y1="0.5" x2="-7.102" y2="0.5" xlink:href="#linear-gradient-2"/>
    <linearGradient id="linear-gradient-34" x1="-26.311" y1="-1.316" x2="-26.791" y2="1.399" xlink:href="#linear-gradient-11"/>
    <linearGradient id="linear-gradient-35" x1="0.484" y1="0.526" x2="1.93" y2="-0.715" xlink:href="#linear-gradient-2"/>
    <linearGradient id="linear-gradient-36" x1="2.065" y1="-1.35" x2="1.229" y2="-0.408" xlink:href="#linear-gradient-21"/>
    <linearGradient id="linear-gradient-37" x1="0.699" y1="-0.143" x2="-0.009" y2="2.143" xlink:href="#linear-gradient-11"/>
    <linearGradient id="linear-gradient-38" x1="0.447" y1="0.412" x2="-0.055" y2="3.293" xlink:href="#linear-gradient-11"/>
    <linearGradient id="linear-gradient-39" x1="1.987" y1="-0.97" x2="1.326" y2="-0.359" xlink:href="#linear-gradient-21"/>
    <linearGradient id="linear-gradient-40" x1="3.246" y1="-3.101" x2="2.063" y2="-1.609" xlink:href="#linear-gradient-21"/>
    <linearGradient id="linear-gradient-41" x1="0.54" y1="1.217" x2="0.415" y2="-0.22" xlink:href="#linear-gradient-11"/>
    <linearGradient id="linear-gradient-42" x1="2.333" y1="0.199" x2="5.139" y2="-0.265" xlink:href="#linear-gradient-11"/>
    <linearGradient id="linear-gradient-43" x1="-35.108" y1="-22.139" x2="-34.019" y2="-22.139" xlink:href="#linear-gradient-2"/>
    <linearGradient id="linear-gradient-44" x1="-50.362" y1="15.247" x2="-57.266" y2="18.44" xlink:href="#linear-gradient-11"/>
    <linearGradient id="linear-gradient-45" x1="-28.123" y1="9.144" x2="-25.101" y2="10.916" xlink:href="#linear-gradient-11"/>
    <linearGradient id="linear-gradient-46" x1="-13.935" y1="8.991" x2="-12.29" y2="10.951" xlink:href="#linear-gradient-11"/>
    <linearGradient id="linear-gradient-47" x1="0.244" y1="0.957" x2="0.656" y2="0.003" xlink:href="#linear-gradient-21"/>
  </defs>
  <g id="Group_1583" data-name="Group 1583" transform="translate(-446.635 -455)">
    <path id="Path_4225" data-name="Path 4225" d="M510.083,505.531a22.632,22.632,0,0,1-3.976,3.223c-10.3,6.867-22.066,4.887-25.705,4.211-5.871-1.091-10.827-1.861-15.085-5.7-9.676-8.731-9.2-26.943-1.812-38.225.877-1.338,8.259-12.267,20.054-13.807.288-.038.5-.059.692-.079,1.825-.193,13.132-1.211,22.352,6.5a27.481,27.481,0,0,1,5.413,6.134C519.219,478.9,519.242,496.1,510.083,505.531Z" transform="translate(-11.125 0)" fill="url(#linear-gradient)"/>
    <g id="Group_1436" data-name="Group 1436" transform="translate(490.45 455.953)">
      <path id="Path_4226" data-name="Path 4226" d="M2510.651,538.394s-.694-23.1,5.346-37.712a1.059,1.059,0,0,1,2.012-.049C2521.114,507.076,2528.807,527.158,2510.651,538.394Z" transform="translate(-2510.627 -499.928)" fill="#bdd0fb"/>
      <path id="Path_4227" data-name="Path 4227" d="M2579.831,873.27c-.032.066.044.13.083.07,1.425-2.2,6.547-12.412,5.5-29.231,0-.054-.07-.054-.07,0C2585.312,848.095,2584.833,862.9,2579.831,873.27Z" transform="translate(-2578.354 -836.763)" fill="#fff" opacity="0.5"/>
    </g>
    <g id="Group_1437" data-name="Group 1437" transform="translate(495.437 468.075)">
      <path id="Path_4228" data-name="Path 4228" d="M2746.24,1104.4s-1.7-3.935.418-9.677c1.967-5.327,7.042-17.893,6.96-23.526a.23.23,0,0,1,.439-.1,28.277,28.277,0,0,1,2.083,16.706C2754.294,1098.1,2746.24,1104.4,2746.24,1104.4Z" transform="translate(-2745.594 -1070.959)" fill="#91b3fa"/>
      <path id="Path_4229" data-name="Path 4229" d="M2817,1317.853a9.826,9.826,0,0,1,.354,1.739c.009.073.02.147.029.22l.02.221.04.443.022.444c.006.148.018.3.015.445a21.01,21.01,0,0,1-.257,3.548c-.035.3-.1.585-.156.877s-.106.585-.183.871l-.213.865c-.032.145-.08.286-.122.428l-.129.426-.129.426-.065.213-.075.21-.3.839c-.051.139-.1.281-.152.418l-.164.413-.327.825c-.446,1.1-.9,2.19-1.379,3.271-.236.542-.481,1.081-.723,1.621l-.743,1.611c-.5,1.073-.994,2.145-1.455,3.23-.119.27-.225.545-.335.818-.057.136-.1.275-.155.414s-.1.276-.148.416c-.086.281-.183.56-.25.846-.082.283-.128.573-.183.862v0a.036.036,0,0,1-.071-.011,10.471,10.471,0,0,1,.383-1.738c.043-.142.093-.282.139-.423s.092-.282.146-.421c.1-.277.2-.557.316-.831.439-1.1.928-2.179,1.406-3.26l.718-1.621c.238-.541.479-1.08.711-1.623q.7-1.625,1.367-3.268l.326-.823.163-.412c.055-.137.1-.276.153-.414l.3-.829.075-.207.066-.211.13-.422a26.089,26.089,0,0,0,.836-3.426,20.831,20.831,0,0,0,.335-3.511c.007-.147,0-.294,0-.442l-.006-.442-.024-.441-.012-.221c-.006-.073-.014-.147-.021-.22-.015-.147-.026-.294-.045-.44l-.06-.438a8.668,8.668,0,0,0-.175-.867,0,0,0,0,1,.009,0Z" transform="translate(-2808.405 -1312.609)" fill="#fff" opacity="0.45"/>
    </g>
    <g id="Group_1439" data-name="Group 1439" transform="translate(471.328 455)">
      <path id="Path_4230" data-name="Path 4230" d="M2363.1,923.78a22.917,22.917,0,0,1,4.527,2.788l-4.743-.21Z" transform="translate(-2346.902 -913.829)" fill="url(#linear-gradient-2)"/>
      <path id="Path_4231" data-name="Path 4231" d="M1969.916,983.284s2.446.651,3.1.855c.842.263,2,6.785,2.1,9.415s-.376,11.94-.376,11.94l-13.036-.017-.21-19.812,4.892-2.419Z" transform="translate(-1954.03 -972.031)" fill="#91b3fa"/>
      <path id="Path_4232" data-name="Path 4232" d="M2192.441,1144.3l2.25,13.5a1.183,1.183,0,0,1-.114.733l-1.649,3.22a.424.424,0,0,1-.756,0l-1.637-3.274a1.178,1.178,0,0,1-.122-.614l.976-13.4Z" transform="translate(-2178.085 -1129.666)" fill="url(#linear-gradient-3)"/>
      <path id="Path_4233" data-name="Path 4233" d="M2212.572,1053.96l-.083.773a.6.6,0,0,0,.063.339l.264.515a.6.6,0,0,0,.5.327c.127.007.274.012.414.012a.6.6,0,0,0,.564-.4l.17-.467a.6.6,0,0,0,.028-.308l-.147-.851a.6.6,0,0,0-.613-.5l-.583.019A.6.6,0,0,0,2212.572,1053.96Z" transform="translate(-2199.693 -1040.7)" fill="url(#linear-gradient-4)"/>
      <path id="Path_4234" data-name="Path 4234" d="M2260.735,990.767l1.151,3.192a.408.408,0,0,0,.753.036l1.369-2.9-.772-1.657Z" transform="translate(-2246.917 -978.095)" fill="#bdd0fb"/>
      <path id="Path_4235" data-name="Path 4235" d="M2118.065,988.2l2.367,1.578-.83,2.791a.408.408,0,0,1-.768.04l-1.242-2.989Z" transform="translate(-2106.813 -976.882)" fill="#bdd0fb"/>
      <path id="Path_4236" data-name="Path 4236" d="M1620.035,1012.978l-7.491,3.248a4.5,4.5,0,0,0-2.707,4.292l.519,14.06h13.225l-.812-16.919Z" transform="translate(-1609.834 -1001.133)" fill="url(#linear-gradient-2)"/>
      <path id="Path_4237" data-name="Path 4237" d="M2015.115,953.512a5.528,5.528,0,0,0-3.377,1.722.323.323,0,0,0-.044.366,44.419,44.419,0,0,1,2.978,6.713.425.425,0,0,1-.237.492l-.458.207a1.039,1.039,0,0,0-.557,1.28c.864,2.556,3.285,9.869,3.445,12.084l-.545-17.311s-1.574-3.237-1.784-3.658S2015.115,953.512,2015.115,953.512Z" transform="translate(-2003.126 -942.93)" fill="url(#linear-gradient-6)"/>
      <path id="Path_4238" data-name="Path 4238" d="M1853.177,1491.706a.1.1,0,0,1-.1-.093l-.6-11.481a.1.1,0,0,1,.1-.1.1.1,0,0,1,.11.092l.6,11.481a.1.1,0,0,1-.1.1Z" transform="translate(-1847.323 -1458.272)" fill="url(#linear-gradient-7)"/>
      <path id="Path_4239" data-name="Path 4239" d="M2322.544,1012.978l7.491,3.248a4.5,4.5,0,0,1,2.707,4.292l-.519,14.06H2319l.812-16.919Z" transform="translate(-2303.943 -1001.133)" fill="url(#linear-gradient-8)"/>
      <path id="Path_4240" data-name="Path 4240" d="M2321.139,953.512a5.528,5.528,0,0,1,3.377,1.722.323.323,0,0,1,.044.366,44.4,44.4,0,0,0-2.979,6.713.425.425,0,0,0,.237.492l.458.207a1.039,1.039,0,0,1,.557,1.28c-.865,2.556-3.285,9.869-3.445,12.084l.544-17.311s1.574-3.237,1.784-3.658S2321.139,953.512,2321.139,953.512Z" transform="translate(-2304.326 -942.93)" fill="url(#linear-gradient-9)"/>
      <path id="Path_4241" data-name="Path 4241" d="M2685.986,1491.706a.1.1,0,0,0,.1-.093l.6-11.481a.1.1,0,0,0-.1-.1.1.1,0,0,0-.11.092l-.6,11.481a.1.1,0,0,0,.1.1Z" transform="translate(-2663.039 -1458.272)" fill="url(#linear-gradient-10)"/>
      <path id="Path_4242" data-name="Path 4242" d="M2085.381,739.211s.105,6.1,3.682,6.154,3.524-7.416,3.524-7.416Z" transform="translate(-2075.286 -731.943)" fill="url(#linear-gradient-11)"/>
      <path id="Path_4243" data-name="Path 4243" d="M2057.661,815.474l7.8-.325a.164.164,0,0,1,.166.2l-.091.363a.164.164,0,0,1-.139.123l-.345.043-.207.964a.8.8,0,0,1-.786.635h-1.135a.8.8,0,0,1-.752-.522l-.241-.643a.317.317,0,0,0-.3-.205h0a.316.316,0,0,0-.3.228l-.164.564a.8.8,0,0,1-.772.579h-1.079a.8.8,0,0,1-.771-.579l-.231-.792h-.56a.164.164,0,0,1-.158-.121l-.084-.308A.164.164,0,0,1,2057.661,815.474Z" transform="translate(-2048 -807.504)" fill="url(#linear-gradient-2)"/>
      <path id="Path_4244" data-name="Path 4244" d="M1905.7,709.344l-3.374-1.076-4.05-.051v0h-.158v0l-4.05.051-3.374,1.076a.265.265,0,0,0-.171.336.26.26,0,0,0,.074.113c.3.268,2.1,1.368,7.6,1.319,5.759.049,7.3-1.051,7.6-1.319a.261.261,0,0,0,.074-.113A.265.265,0,0,0,1905.7,709.344Z" transform="translate(-1884.557 -702.841)" fill="url(#linear-gradient-13)"/>
      <path id="Path_4245" data-name="Path 4245" d="M2049.321,460.393a16.723,16.723,0,0,1,1.642-4.87.761.761,0,0,1,1.067-.268l.881.556a.759.759,0,0,0,.907-.072l.627-.551a.759.759,0,0,1,1.157.188,21.627,21.627,0,0,1,2.261,5.113.558.558,0,0,1-.395.671,15.5,15.5,0,0,1-7.736-.125A.558.558,0,0,1,2049.321,460.393Z" transform="translate(-2039.982 -455)" fill="url(#linear-gradient-14)"/>
      <g id="Group_1438" data-name="Group 1438" transform="translate(9.329 4.402)">
        <path id="Path_4246" data-name="Path 4246" d="M2057.564,662.437a12.967,12.967,0,0,1-8.034-.083c-.093.394-.162.735-.209.991a.559.559,0,0,0,.411.642,15.5,15.5,0,0,0,7.736.125.558.558,0,0,0,.395-.671C2057.785,663.116,2057.683,662.778,2057.564,662.437Z" transform="translate(-2049.312 -662.354)" fill="url(#linear-gradient-2)"/>
      </g>
    </g>
    <g id="Group_1440" data-name="Group 1440" transform="translate(480.206 461.497)">
      <path id="Path_4247" data-name="Path 4247" d="M2037.715,1354.8l-9.341,7.7a.871.871,0,0,0-.073,1.276l.058.06a.809.809,0,0,0,1.148.017l8.706-8.5Z" transform="translate(-2028.057 -1342.194)" fill="url(#linear-gradient-16)"/>
      <ellipse id="Ellipse_108" data-name="Ellipse 108" cx="6.626" cy="6.506" rx="6.626" ry="6.506" transform="translate(6.419 4.422) rotate(-19.492)" fill="#fff" opacity="0.19"/>
      <path id="Path_4248" data-name="Path 4248" d="M2385.162,812.721a7.241,7.241,0,1,0,9.366,4.365A7.307,7.307,0,0,0,2385.162,812.721Zm4.476,12.647a6.177,6.177,0,1,1,3.869-7.921A6.234,6.234,0,0,1,2389.638,825.368Z" transform="translate(-2372.742 -811.202)" fill="url(#linear-gradient-17)"/>
      <path id="Path_4249" data-name="Path 4249" d="M2403.9,844.781a.019.019,0,0,1-.017-.01c-.077-.154-.15-.312-.215-.472a.019.019,0,0,1,.035-.014c.065.159.137.317.214.469a.019.019,0,0,1-.008.025Zm-.628-1.925a.019.019,0,0,1-.019-.016,6.626,6.626,0,0,1-.079-1.409,6.78,6.78,0,0,1,1.334-3.7,6.994,6.994,0,0,1,7.112-2.652.019.019,0,1,1-.008.037,6.957,6.957,0,0,0-7.073,2.638,6.743,6.743,0,0,0-1.327,3.678,6.616,6.616,0,0,0,.078,1.4.019.019,0,0,1-.015.022Z" transform="translate(-2395.203 -833.347)" fill="#fff"/>
      <path id="Path_4250" data-name="Path 4250" d="M2041.329,1683.87a.662.662,0,0,1-.692-.373.651.651,0,0,1,.191-.732l1.11-.958a.016.016,0,1,1,.021.024l-1.11.958a.618.618,0,0,0-.182.7.637.637,0,0,0,.673.353h0a.016.016,0,0,1,0,.032Z" transform="translate(-2040.327 -1662.258)" fill="#fff"/>
      <path id="Path_4251" data-name="Path 4251" d="M2119.828,1662.211a.016.016,0,0,1-.012-.005.016.016,0,0,1,0-.023l.144-.124a.016.016,0,1,1,.021.024l-.144.124A.016.016,0,0,1,2119.828,1662.211Z" transform="translate(-2117.864 -1642.929)" fill="#fff"/>
    </g>
    <g id="Group_1443" data-name="Group 1443" transform="translate(446.781 477.635)">
      <g id="Group_1442" data-name="Group 1442" transform="translate(2.658 0)">
        <path id="Path_4252" data-name="Path 4252" d="M631.6,1553.079a.938.938,0,0,1-.936.935H580.068a.938.938,0,0,1-.936-.935L578.711,1524a1.629,1.629,0,0,1,1.716-1.442l49.445-1.279a2.358,2.358,0,0,1,2.419,2.411Z" transform="translate(-578.711 -1521.282)" fill="url(#linear-gradient-18)"/>
        <path id="Path_4253" data-name="Path 4253" d="M690.349,1603.3a.888.888,0,0,1-.885.885h-48.5a.888.888,0,0,1-.885-.885l-.4-26.394a2.178,2.178,0,0,1,2.283-2.126l47.389-1.271a1.657,1.657,0,0,1,1.7,1.7Z" transform="translate(-638.387 -1572.401)" fill="url(#linear-gradient-19)"/>
        <g id="Group_1441" data-name="Group 1441" transform="translate(1.946 2.536)">
          <path id="Path_4254" data-name="Path 4254" d="M670.59,1651.266a.072.072,0,0,1-.072-.071l-.12-8.2a1.736,1.736,0,0,1,.5-1.3,2.385,2.385,0,0,1,1.581-.545l15.133-.406h0a.072.072,0,0,1,0,.144l-15.138.406a2.238,2.238,0,0,0-1.481.505,1.6,1.6,0,0,0-.457,1.2l.12,8.2a.072.072,0,0,1-.071.073Z" transform="translate(-670.398 -1640.744)" fill="#91b3fa"/>
        </g>
        <path id="Path_4255" data-name="Path 4255" d="M754.55,1693.277c.051-2.181.032-21.5-.093-23.168s2.473-1.981,6.463-2.169,37.649-.931,38.515-1c1.948-.158,2.351,2.754,2.156,9.075-.146,4.749-.389,12.572-.5,16.17a1.985,1.985,0,0,1-1.981,1.924c-8.1.022-39.144.111-41.211.173C755.52,1694.352,754.529,1694.142,754.55,1693.277Z" transform="translate(-750.721 -1663.841)" fill="#91b3fa" opacity="0.24"/>
      </g>
      <rect id="Rectangle_187" data-name="Rectangle 187" width="59.648" height="2.555" rx="1.277" transform="translate(0 31.661)" fill="url(#linear-gradient-20)"/>
    </g>
    <g id="Group_1451" data-name="Group 1451" transform="translate(457.01 468.294)">
      <g id="Group_1444" data-name="Group 1444" transform="translate(0.598 3.747)">
        <path id="Path_4256" data-name="Path 4256" d="M980.057,1258.583l-16.551,12.988a2.3,2.3,0,0,0,1.07.2l31.362-1.546a2.258,2.258,0,0,0,1.392-.562l-12.312-10.949A4,4,0,0,0,980.057,1258.583Z" transform="translate(-963.506 -1257.785)" fill="#7d97f4"/>
      </g>
      <path id="Path_4257" data-name="Path 4257" d="M967.756,1816.924H937.565a2.207,2.207,0,0,1-2.207-2.207v-19.659a2.207,2.207,0,0,1,2.084-2.2l31.356-1.748a2.207,2.207,0,0,1,2.327,2.324l-1.165,21.407A2.207,2.207,0,0,1,967.756,1816.924Z" transform="translate(-935.358 -1776.034)" fill="#72c9df"/>
      <g id="Group_1445" data-name="Group 1445" transform="translate(0.694 15.069)">
        <path id="Path_4258" data-name="Path 4258" d="M985.365,1805.063l16.5-13.745a2.193,2.193,0,0,0-1.071-.21l-31.356,1.748a2.2,2.2,0,0,0-1.39.6L980.4,1804.94A3.839,3.839,0,0,0,985.365,1805.063Z" transform="translate(-968.051 -1791.104)" fill="#7d97f4"/>
      </g>
      <g id="Group_1450" data-name="Group 1450" transform="translate(0.893)">
        <g id="Group_1449" data-name="Group 1449" clip-path="url(#clip-path)">
          <g id="Group_1448" data-name="Group 1448" transform="translate(4.39 3.202)">
            <path id="Path_4259" data-name="Path 4259" d="M1208.026,1262.24h-23.813v-27.054a1.954,1.954,0,0,1,1.841-1.95l19.905-1.147a1.954,1.954,0,0,1,2.066,1.95Z" transform="translate(-1184.213 -1232.085)" fill="url(#linear-gradient-21)"/>
            <path id="Path_4260" data-name="Path 4260" d="M1244.781,1357.393H1222.6v-25.2a1.82,1.82,0,0,1,1.715-1.817l18.543-1.069a1.82,1.82,0,0,1,1.925,1.817Z" transform="translate(-1221.783 -1327.238)" fill="#fff" opacity="0.67"/>
            <g id="Group_1447" data-name="Group 1447" transform="translate(4.07 6.135)">
              <g id="Group_1446" data-name="Group 1446">
                <path id="Path_4261" data-name="Path 4261" d="M1901.652,1946.952a1.087,1.087,0,0,0-1.446.222h0a.32.32,0,0,1-.448.043l-1.073-.866a1.042,1.042,0,0,1-.788,1.017l1.03.823a.34.34,0,0,1,.053.482h0a1.064,1.064,0,0,0,.168,1.512h0a1.09,1.09,0,0,0,1.521-.167h0a1.062,1.062,0,0,1,1.224-1.514h0A1.067,1.067,0,0,0,1901.652,1946.952Z" transform="translate(-1886.816 -1937.324)" fill="url(#linear-gradient-22)"/>
                <path id="Path_4262" data-name="Path 4262" d="M1378.96,1524.71a1.259,1.259,0,0,0,1.626-.191h0a.363.363,0,0,1,.495-.031l1.142.912a3.7,3.7,0,0,1,.747-1.108l-.983-.793a.351.351,0,0,1-.059-.506h0a1.1,1.1,0,0,0-.186-1.591,1.228,1.228,0,0,0-1.679.083h0a1.064,1.064,0,0,0-.127,1.225,1.213,1.213,0,0,0-1.255.327h0A1.112,1.112,0,0,0,1378.96,1524.71Z" transform="translate(-1378.361 -1521.11)" fill="url(#linear-gradient-23)"/>
                <path id="Path_4263" data-name="Path 4263" d="M1380.7,1924.364a1.06,1.06,0,0,1-.514-1.18.874.874,0,0,0,.022-.147l-1.593,1.141a.368.368,0,0,1-.494-.066l-.017-.021a1.265,1.265,0,0,0-1.691-.228h0a1.081,1.081,0,0,0-.216,1.591h0a1.264,1.264,0,0,0,1.247.416,1.073,1.073,0,0,0,.107,1.228h0a1.242,1.242,0,0,0,1.673.2h0a1.081,1.081,0,0,0,.211-1.57h0a.343.343,0,0,1,.067-.5Z" transform="translate(-1375.944 -1914.505)" fill="url(#linear-gradient-24)"/>
                <path id="Path_4264" data-name="Path 4264" d="M1914.692,1555.673a3.608,3.608,0,0,1,.75,1.087l.811-.587a.325.325,0,0,1,.447.076h0a1.11,1.11,0,0,0,1.489.3,1.052,1.052,0,0,0,.226-1.508h0a1.114,1.114,0,0,0-1.1-.437,1.08,1.08,0,0,0-.092-1.17,1.111,1.111,0,0,0-1.52-.277h0a1.054,1.054,0,0,0-.2,1.5h0a.337.337,0,0,1-.063.48Z" transform="translate(-1903.255 -1552.287)" fill="url(#linear-gradient-25)"/>
              </g>
              <path id="Path_4265" data-name="Path 4265" d="M1577.489,1637.018a4.156,4.156,0,0,0-4.456-.044,3.248,3.248,0,0,0-1.163,4.368,1.863,1.863,0,0,1,.281,1.372.494.494,0,0,0,.373.616,4.307,4.307,0,0,0,.822.151c.479.048.608.194.521.638a1.749,1.749,0,0,1-.045.172c-.088.289.022.469.314.581a3.551,3.551,0,0,0,2.3.1c.661-.189.732-.317.543-.859a.42.42,0,0,1-.013-.087c-.04-.338.065-.47.409-.507.208-.022.419-.021.622-.059.515-.1.664-.3.59-.813a1.213,1.213,0,0,1,.107-.9,3.767,3.767,0,0,0,.47-2.147A2.953,2.953,0,0,0,1577.489,1637.018Zm-3.107,5.175a6.26,6.26,0,0,1-.741.173c-.462-.029-.758-.207-.837-.528a.789.789,0,0,1,.468-.962,2.689,2.689,0,0,1,.746-.159.708.708,0,0,1,.85.526A.719.719,0,0,1,1574.382,1642.193Zm1.37,1.391-.593,0a.33.33,0,0,1-.308-.464l.356-.746a.269.269,0,0,1,.48.006l.365.75A.32.32,0,0,1,1575.752,1643.584Zm2.218-1.659c-.077.308-.362.47-.915.451a4.318,4.318,0,0,1-.56-.138.76.76,0,0,1-.532-.989.516.516,0,0,1,.507-.458,3.439,3.439,0,0,1,1.024.162A.794.794,0,0,1,1577.97,1641.925Z" transform="translate(-1567.309 -1633.902)" fill="url(#linear-gradient-26)"/>
            </g>
          </g>
        </g>
      </g>
    </g>
    <g id="Group_1460" data-name="Group 1460" transform="translate(448.921 457.146)">
      <g id="Group_1456" data-name="Group 1456" transform="translate(0 1.963)" opacity="0.88">
        <g id="Group_1452" data-name="Group 1452">
          <path id="Path_4267" data-name="Path 4267" d="M559.222,1142.4a.072.072,0,0,1-.071-.059q-.026-.142-.048-.286a.072.072,0,1,1,.142-.021q.021.141.047.281a.072.072,0,0,1-.058.084Z" transform="translate(-559.002 -1131.496)" fill="#10b5df"/>
          <path id="Path_4268" data-name="Path 4268" d="M554.41,658.264a.072.072,0,0,1-.072-.068c-.007-.144-.01-.289-.01-.433,0-.047,0-.094,0-.141a.072.072,0,0,1,.144,0q0,.069,0,.139c0,.142,0,.285.01.427a.072.072,0,0,1-.068.075Zm.052-1.493h-.008a.072.072,0,0,1-.063-.08c.02-.173.046-.348.076-.52l.009-.048a.072.072,0,0,1,.142.026l-.009.047c-.03.169-.055.341-.075.512A.072.072,0,0,1,554.462,656.77Zm.293-1.465-.02,0a.072.072,0,0,1-.049-.089c.052-.183.111-.367.175-.547a.072.072,0,1,1,.135.048c-.063.177-.121.358-.172.538A.072.072,0,0,1,554.756,655.305Zm.527-1.4a.071.071,0,0,1-.031-.007.072.072,0,0,1-.034-.1c.082-.172.17-.344.263-.511a.072.072,0,1,1,.126.07c-.091.164-.178.334-.259.5A.072.072,0,0,1,555.283,653.907Zm.751-1.293a.072.072,0,0,1-.059-.113c.109-.157.225-.312.343-.461a.072.072,0,0,1,.113.089c-.117.147-.23.3-.338.454A.072.072,0,0,1,556.034,652.615Zm.953-1.152a.072.072,0,0,1-.051-.122c.133-.137.273-.271.414-.4a.072.072,0,1,1,.1.107c-.139.126-.276.258-.407.392A.071.071,0,0,1,556.987,651.463Zm1.128-.981a.072.072,0,0,1-.043-.13c.154-.113.313-.223.473-.326a.072.072,0,1,1,.078.121c-.158.1-.314.209-.466.321A.071.071,0,0,1,558.115,650.482Zm10.374-.3a.072.072,0,0,1-.039-.012c-.157-.1-.32-.2-.483-.294a.072.072,0,1,1,.071-.125c.166.094.331.194.491.3a.072.072,0,0,1-.039.132Zm-9.1-.485a.072.072,0,0,1-.033-.136c.169-.086.344-.168.519-.244a.072.072,0,0,1,.057.132c-.173.075-.345.156-.511.241A.072.072,0,0,1,559.386,649.7Zm7.787-.224a.071.071,0,0,1-.029-.006c-.172-.075-.349-.146-.525-.21a.072.072,0,1,1,.049-.135c.179.065.359.137.533.213a.072.072,0,0,1-.029.138Zm-6.4-.342a.072.072,0,0,1-.022-.141c.182-.058.368-.11.552-.156a.072.072,0,1,1,.035.14c-.181.045-.364.1-.543.154A.072.072,0,0,1,560.768,649.132Zm4.991-.142-.018,0c-.182-.046-.368-.087-.552-.122a.072.072,0,0,1,.027-.141c.188.035.376.077.561.124a.072.072,0,0,1-.018.142Zm-3.535-.191a.072.072,0,0,1-.01-.143c.189-.027.381-.048.571-.063a.072.072,0,0,1,.011.143c-.187.015-.376.036-.562.062Zm2.061-.057h-.006c-.187-.016-.377-.026-.564-.031a.072.072,0,0,1,0-.144h0c.19,0,.383.015.573.031a.072.072,0,0,1-.006.144Z" transform="translate(-554.328 -648.567)" fill="#10b5df"/>
          <path id="Path_4269" data-name="Path 4269" d="M1253.719,744.055a.072.072,0,0,1-.047-.017q-.108-.093-.219-.183a.072.072,0,0,1,.09-.112q.113.091.222.186a.072.072,0,0,1-.047.126Z" transform="translate(-1238.586 -741.707)" fill="#10b5df"/>
        </g>
        <g id="Group_1453" data-name="Group 1453" transform="translate(2.855 8.231)">
          <path id="Path_4270" data-name="Path 4270" d="M1411.2,1036.725a.072.072,0,0,1-.072-.067q-.009-.143-.023-.284a.072.072,0,1,1,.143-.014q.014.144.023.289a.072.072,0,0,1-.067.076Z" transform="translate(-1395.777 -1036.295)" fill="#10b5df"/>
          <path id="Path_4271" data-name="Path 4271" d="M738.1,1101.644a.072.072,0,0,1,0-.144c.185,0,.372-.013.556-.028a.071.071,0,0,1,.078.066.072.072,0,0,1-.066.078c-.187.015-.377.025-.564.029Zm-.91-.027h-.006c-.187-.015-.375-.036-.562-.062a.072.072,0,1,1,.02-.142c.183.026.369.047.553.061a.072.072,0,0,1-.006.144Zm2.373-.121a.072.072,0,0,1-.013-.143c.182-.034.364-.073.543-.118a.072.072,0,1,1,.035.14c-.182.045-.367.086-.552.12Zm-3.825-.112-.017,0c-.182-.044-.365-.1-.545-.151a.072.072,0,1,1,.042-.137c.177.055.357.1.536.148a.072.072,0,0,1-.017.142Zm5.243-.271a.072.072,0,0,1-.024-.14c.174-.062.348-.131.517-.2a.072.072,0,0,1,.057.132c-.172.074-.349.144-.525.207A.07.07,0,0,1,740.98,1101.111Zm-6.639-.192a.071.071,0,0,1-.028-.006c-.173-.073-.345-.153-.513-.237a.072.072,0,0,1,.064-.129c.165.083.335.161.505.233a.072.072,0,0,1-.028.138Zm7.978-.415a.072.072,0,0,1-.035-.135c.161-.089.322-.185.478-.284a.072.072,0,1,1,.077.121c-.158.1-.322.2-.486.289A.072.072,0,0,1,742.319,1100.5Zm-9.281-.267a.071.071,0,0,1-.038-.011c-.159-.1-.316-.207-.468-.317a.072.072,0,1,1,.084-.117c.15.108.3.213.461.312a.072.072,0,0,1-.039.133Zm10.506-.547a.072.072,0,0,1-.044-.128c.145-.114.289-.234.427-.357a.072.072,0,1,1,.1.107c-.14.125-.286.247-.433.363A.072.072,0,0,1,743.544,1099.691Zm1.079-1a.072.072,0,0,1-.053-.12c.125-.136.247-.278.364-.421a.072.072,0,1,1,.112.091c-.118.146-.243.29-.37.428A.071.071,0,0,1,744.623,1098.692Zm.9-1.16a.071.071,0,0,1-.039-.012.072.072,0,0,1-.021-.1c.1-.154.2-.314.291-.475a.072.072,0,0,1,.125.071c-.093.163-.193.325-.3.482A.072.072,0,0,1,745.527,1097.532Zm.705-1.291a.071.071,0,0,1-.029-.006.072.072,0,0,1-.036-.095c.075-.168.146-.341.21-.515a.072.072,0,0,1,.135.05c-.066.176-.138.352-.214.523A.072.072,0,0,1,746.232,1096.241Zm.487-1.387-.018,0a.072.072,0,0,1-.051-.088c.047-.178.089-.36.125-.542a.072.072,0,1,1,.141.028c-.037.185-.079.37-.127.551A.072.072,0,0,1,746.719,1094.853Zm.259-1.448h-.007a.072.072,0,0,1-.065-.078c.018-.184.03-.371.037-.555a.072.072,0,0,1,.144.005c-.007.187-.019.377-.038.564A.072.072,0,0,1,746.978,1093.406Z" transform="translate(-731.574 -1091.505)" fill="#10b5df"/>
          <path id="Path_4272" data-name="Path 4272" d="M689.119,1390.249a.072.072,0,0,1-.048-.018q-.108-.1-.214-.2a.072.072,0,0,1,.1-.1q.1.1.21.193a.072.072,0,0,1-.048.126Z" transform="translate(-688.835 -1382.404)" fill="#10b5df"/>
        </g>
        <g id="Group_1455" data-name="Group 1455" transform="translate(2.171 2.084)">
          <path id="Path_4273" data-name="Path 4273" d="M658.2,758.285a.109.109,0,0,0,.118.046l1.29-.327a5.8,5.8,0,0,0,1.553,1.058l.169,1.32a.109.109,0,0,0,.086.093l1.563.325a.11.11,0,0,0,.116-.051l.68-1.143a5.8,5.8,0,0,0,1.846-.351l1.053.814a.109.109,0,0,0,.127,0l1.335-.876a.109.109,0,0,0,.046-.118l-.327-1.29a5.8,5.8,0,0,0,1.058-1.553l1.32-.169a.109.109,0,0,0,.093-.086l.325-1.563a.109.109,0,0,0-.051-.116l-1.143-.681a5.8,5.8,0,0,0-.351-1.846l.814-1.053a.109.109,0,0,0,0-.127l-.876-1.335a.109.109,0,0,0-.118-.046l-1.29.327a5.8,5.8,0,0,0-1.553-1.058l-.169-1.32a.109.109,0,0,0-.086-.093l-1.563-.325a.109.109,0,0,0-.116.051l-.681,1.143a5.8,5.8,0,0,0-1.846.351l-1.053-.814a.109.109,0,0,0-.127,0l-1.335.876a.109.109,0,0,0-.046.118l.327,1.29a5.8,5.8,0,0,0-1.058,1.553l-1.32.169a.109.109,0,0,0-.093.086l-.325,1.563a.109.109,0,0,0,.051.116l1.143.681a5.8,5.8,0,0,0,.351,1.846l-.814,1.053a.109.109,0,0,0,0,.127Z" transform="translate(-656.597 -746.743)" fill="#10b5df"/>
          <g id="Group_1454" data-name="Group 1454" transform="translate(5.504 5.503)">
            <path id="Path_4274" data-name="Path 4274" d="M917.38,1009.051a1.528,1.528,0,1,1,.066,0Zm.062-.109h0Zm-.06-2.727h-.056a1.31,1.31,0,1,0,.111,2.618h0a1.31,1.31,0,0,0-.055-2.619Z" transform="translate(-915.856 -1005.999)" fill="#bdd0fb"/>
          </g>
          <path id="Path_4275" data-name="Path 4275" d="M806.354,898.165a4,4,0,0,1-.814-.084q-.144-.03-.285-.07a3.994,3.994,0,0,1-.388-.133l-.009,0-.121-.051a.108.108,0,0,1-.064-.1.106.106,0,0,1,.009-.044.108.108,0,0,1,.142-.055,3.776,3.776,0,0,0,.76.244q.138.029.276.047a3.711,3.711,0,0,0,1.566-.126l.012,0h0a3.754,3.754,0,0,0,.858-.386l0,0,.019-.012.026-.016.019-.012.038-.025a3.721,3.721,0,0,0,1.613-2.37,3.773,3.773,0,0,0,.08-.77,3.746,3.746,0,0,0-7.413-.754,3.743,3.743,0,0,0,.128,1.991.108.108,0,0,1-.2.071,3.962,3.962,0,1,1,7.7-1.308,4,4,0,0,1-.084.814,3.964,3.964,0,0,1-3.87,3.156Z" transform="translate(-799.29 -887.194)" fill="#bdd0fb"/>
        </g>
      </g>
      <path id="Path_4276" data-name="Path 4276" d="M1287.36,605.733l.706-.24a3.253,3.253,0,0,0,.914.522l.153.73a.061.061,0,0,0,.052.048l.888.112a.061.061,0,0,0,.063-.034l.329-.669a3.252,3.252,0,0,0,1.015-.278l.624.408a.061.061,0,0,0,.071,0l.707-.548a.061.061,0,0,0,.02-.068l-.24-.706a3.249,3.249,0,0,0,.522-.914l.73-.153a.062.062,0,0,0,.048-.052l.112-.888a.061.061,0,0,0-.034-.063l-.669-.329a3.248,3.248,0,0,0-.278-1.015l.408-.624a.061.061,0,0,0,0-.071l-.548-.707a.061.061,0,0,0-.068-.02l-.706.24a3.245,3.245,0,0,0-.914-.522l-.153-.73a.061.061,0,0,0-.052-.048l-.888-.112a.061.061,0,0,0-.062.034l-.329.669a3.251,3.251,0,0,0-1.015.278l-.624-.408a.061.061,0,0,0-.071,0l-.707.548a.061.061,0,0,0-.02.068l.24.706a3.249,3.249,0,0,0-.522.914l-.73.153a.061.061,0,0,0-.048.052l-.112.888a.061.061,0,0,0,.034.063l.669.329a3.248,3.248,0,0,0,.278,1.015l-.408.624a.061.061,0,0,0,0,.071l.548.707A.061.061,0,0,0,1287.36,605.733Z" transform="translate(-1270.632 -598.087)" fill="#10b5df"/>
      <g id="Group_1457" data-name="Group 1457" transform="translate(18.587 3.962)">
        <path id="Path_4277" data-name="Path 4277" d="M1430.815,744.551a.9.9,0,1,1,.11-.007h0A.9.9,0,0,1,1430.815,744.551Zm.1-.114h0Zm-.095-1.475a.708.708,0,0,0-.085.005.687.687,0,0,0,.167,1.363h0a.687.687,0,0,0-.082-1.368Z" transform="translate(-1429.913 -742.746)" fill="#bdd0fb"/>
      </g>
      <g id="Group_1458" data-name="Group 1458" transform="translate(14.637 0)">
        <path id="Path_4278" data-name="Path 4278" d="M1262.557,873.617a.072.072,0,0,1-.064-.039c-.045-.087-.087-.175-.126-.263a.072.072,0,0,1,.132-.058c.038.085.079.171.122.255a.072.072,0,0,1-.031.1A.071.071,0,0,1,1262.557,873.617Z" transform="translate(-1261.967 -866.482)" fill="#10b5df"/>
        <path id="Path_4279" data-name="Path 4279" d="M1244.005,562.12a.072.072,0,0,1-.07-.056,4.945,4.945,0,0,1-.087-.5c0-.021-.005-.042-.007-.063a.072.072,0,1,1,.143-.015q0,.03.007.061a4.836,4.836,0,0,0,.085.485.072.072,0,0,1-.054.086Zm-.106-1.465h-.006a.072.072,0,0,1-.066-.077,4.813,4.813,0,0,1,.079-.565.072.072,0,0,1,.141.028,4.688,4.688,0,0,0-.077.548A.072.072,0,0,1,1243.9,560.655Zm.343-1.429a.072.072,0,0,1-.067-.1,4.9,4.9,0,0,1,.247-.514.072.072,0,0,1,.126.07,4.764,4.764,0,0,0-.24.5A.072.072,0,0,1,1244.242,559.226Zm.759-1.258a.072.072,0,0,1-.055-.118,4.909,4.909,0,0,1,.39-.415.072.072,0,1,1,.1.1,4.785,4.785,0,0,0-.379.4A.072.072,0,0,1,1245,557.969Zm1.1-.97a.072.072,0,0,1-.039-.133,4.844,4.844,0,0,1,.5-.278.072.072,0,0,1,.063.13,4.709,4.709,0,0,0-.483.269A.072.072,0,0,1,1246.1,557Zm1.345-.589a.072.072,0,0,1-.018-.141,4.927,4.927,0,0,1,.558-.113.072.072,0,1,1,.02.142,4.8,4.8,0,0,0-.542.11Zm2.019-.1h-.012a4.713,4.713,0,0,0-.55-.058.072.072,0,0,1-.069-.075.07.07,0,0,1,.075-.068,4.859,4.859,0,0,1,.567.06.072.072,0,0,1-.012.143Z" transform="translate(-1243.827 -556.11)" fill="#10b5df"/>
        <path id="Path_4280" data-name="Path 4280" d="M1548.172,570.268a.072.072,0,0,1-.029-.006c-.086-.038-.175-.074-.262-.107a.072.072,0,1,1,.05-.135c.09.034.181.071.27.11a.072.072,0,0,1-.029.138Z" transform="translate(-1541.381 -569.721)" fill="#10b5df"/>
      </g>
      <g id="Group_1459" data-name="Group 1459" transform="translate(17.278 2.961)">
        <path id="Path_4281" data-name="Path 4281" d="M1678.127,695.987a.072.072,0,0,1-.068-.049c-.031-.089-.064-.178-.1-.265a.072.072,0,0,1,.133-.055c.037.09.072.181.1.273a.072.072,0,0,1-.045.091A.071.071,0,0,1,1678.127,695.987Z" transform="translate(-1671.38 -695.574)" fill="#10b5df"/>
        <path id="Path_4282" data-name="Path 4282" d="M1422.5,754.926a.072.072,0,0,1-.006-.144l.158-.017c.127-.016.255-.036.38-.062a.072.072,0,1,1,.029.141c-.129.026-.26.048-.391.064l-.163.017Zm-.9,0h-.007a4.876,4.876,0,0,1-.554-.087.072.072,0,1,1,.031-.141,4.712,4.712,0,0,0,.537.085.072.072,0,0,1-.007.144Zm2.3-.337a.072.072,0,0,1-.027-.138,4.708,4.708,0,0,0,.49-.236.072.072,0,1,1,.07.126,4.85,4.85,0,0,1-.505.243A.075.075,0,0,1,1423.9,754.585Zm1.238-.745a.072.072,0,0,1-.046-.127,4.74,4.74,0,0,0,.4-.371.072.072,0,0,1,.1.1,4.892,4.892,0,0,1-.41.382A.071.071,0,0,1,1425.137,753.839Zm.96-1.08a.071.071,0,0,1-.039-.012.072.072,0,0,1-.021-.1,4.723,4.723,0,0,0,.27-.472.072.072,0,0,1,.129.064,4.919,4.919,0,0,1-.278.487A.071.071,0,0,1,1426.1,752.759Zm.6-1.316-.02,0a.072.072,0,0,1-.05-.089,4.679,4.679,0,0,0,.117-.532.072.072,0,1,1,.142.023,4.852,4.852,0,0,1-.12.548A.072.072,0,0,1,1426.693,751.443Zm.175-1.435a.072.072,0,0,1-.072-.07c0-.145-.015-.291-.033-.436q-.006-.053-.014-.106a.072.072,0,1,1,.142-.021q.008.054.015.109c.018.149.03.3.034.449a.072.072,0,0,1-.07.074Z" transform="translate(-1419.862 -748.174)" fill="#10b5df"/>
        <path id="Path_4283" data-name="Path 4283" d="M1368.606,984.337a.071.071,0,0,1-.028-.006c-.088-.038-.177-.079-.265-.122a.072.072,0,0,1,.064-.129c.085.042.171.082.257.119a.072.072,0,0,1-.028.138Z" transform="translate(-1368.273 -977.949)" fill="#10b5df"/>
      </g>
      <path id="Path_4284" data-name="Path 4284" d="M1368.573,682.395a2.3,2.3,0,0,1-.288-.018h0a2.284,2.284,0,0,1-.47-.111.108.108,0,0,1,.071-.2,2.067,2.067,0,0,0,.425.1l.03,0a2.038,2.038,0,0,0,1.468-.406l.016-.012a2.038,2.038,0,0,0,.778-1.364,2.067,2.067,0,0,0,.016-.261,2.051,2.051,0,1,0-3.93.829.108.108,0,0,1-.055.142.108.108,0,0,1-.142-.055,2.267,2.267,0,1,1,4.343-.916,2.3,2.3,0,0,1-.018.289,2.268,2.268,0,0,1-2.244,1.983Z" transform="translate(-1349.065 -675.276)" fill="#bdd0fb"/>
    </g>
    <g id="Group_1461" data-name="Group 1461" transform="translate(482.433 497.904)">
      <path id="Path_4285" data-name="Path 4285" d="M2163.362,2481.339h-.648a.033.033,0,0,1-.033-.033v-2.785a2.247,2.247,0,0,1,1.976-2.231l1.432-.174a2.216,2.216,0,0,1,2.1.952,2.3,2.3,0,0,1,.383,1.3v1.125a.033.033,0,0,1-.033.033h-.648a.033.033,0,0,1-.033-.033v-1.142a1.552,1.552,0,0,0-.176-.738,1.5,1.5,0,0,0-1.505-.783l-1.432.174a1.533,1.533,0,0,0-1.348,1.521v2.785A.033.033,0,0,1,2163.362,2481.339Z" transform="translate(-2162.051 -2476.101)" fill="url(#linear-gradient-27)"/>
      <path id="Path_4286" data-name="Path 4286" d="M2133.4,2676.727l6.262-.347a.444.444,0,0,1,.468.443v4.961a.444.444,0,0,1-.444.444h-6.112a.444.444,0,0,1-.444-.429l-.15-4.614A.444.444,0,0,1,2133.4,2676.727Z" transform="translate(-2132.986 -2672.128)" fill="url(#linear-gradient-28)"/>
      <path id="Path_4287" data-name="Path 4287" d="M2254.378,2736.366l-.379-1.09a.364.364,0,0,1,.083-.376,1.032,1.032,0,1,0-1.384.077.368.368,0,0,1,.119.406l-.342.982a.368.368,0,0,0,.347.489h1.208A.368.368,0,0,0,2254.378,2736.366Z" transform="translate(-2249.783 -2727.688)" fill="#91b3fa"/>
    </g>
    <g id="Group_1468" data-name="Group 1468" transform="translate(446.635 480.932)">
      <g id="Group_1462" data-name="Group 1462" transform="translate(5.033 15.655)">
        <path id="Path_4288" data-name="Path 4288" d="M735.86,3160.972a.2.2,0,0,0-.005-.053,3.25,3.25,0,0,0-1.577-1.7l-.52.041a3.608,3.608,0,0,0-.213,1.744c0,.007,0,.014.005.021A12.35,12.35,0,0,0,735.86,3160.972Z" transform="translate(-732.455 -3143.4)" fill="url(#linear-gradient-29)"/>
        <path id="Path_4289" data-name="Path 4289" d="M735.311,3241.926a.225.225,0,0,0,.165.167,7.136,7.136,0,0,0,1.988-.028.19.19,0,0,0,.157-.189A12.329,12.329,0,0,1,735.311,3241.926Z" transform="translate(-734.216 -3224.304)" fill="url(#linear-gradient-30)"/>
        <path id="Path_4290" data-name="Path 4290" d="M735.222,3124.64l.22,1.061a.173.173,0,0,0,.148.143,1.474,1.474,0,0,0,.341-.005.218.218,0,0,0,.173-.256l-.153-.942Z" transform="translate(-734.129 -3109.556)" fill="url(#linear-gradient-31)"/>
        <path id="Path_4291" data-name="Path 4291" d="M902.975,3236.852a3.109,3.109,0,0,1-1.025-.146c0,.057,0,.115,0,.176a.113.113,0,0,0,.108.115l3.154-.02a.144.144,0,0,0,.116-.21C904.916,3236.8,903.863,3236.876,902.975,3236.852Z" transform="translate(-897.317 -3219.243)" fill="url(#linear-gradient-32)"/>
        <path id="Path_4292" data-name="Path 4292" d="M905.335,3168.307a.158.158,0,0,0-.013-.024,4.02,4.02,0,0,0-2.39-1.5l-.673-.021a3.228,3.228,0,0,0-.305,1.485,3.108,3.108,0,0,0,1.025.146C903.868,3168.418,904.922,3168.341,905.335,3168.307Z" transform="translate(-897.322 -3150.784)" fill="url(#linear-gradient-33)"/>
        <path id="Path_4293" data-name="Path 4293" d="M909.043,3110.186c.011.049.151.8.2,1.1a.146.146,0,0,0,.131.124,1.541,1.541,0,0,0,.461-.036.2.2,0,0,0,.138-.208l-.075-1.194Z" transform="translate(-904.26 -3095.196)" fill="url(#linear-gradient-34)"/>
        <path id="Path_4294" data-name="Path 4294" d="M688.249,2414.643s.668,6.865,1.336,14.43a.288.288,0,0,1-.238.293,3.507,3.507,0,0,1-.752.087.278.278,0,0,1-.266-.233c-.227-1.334-1.851-8.493-2.277-10.068,0,0-.489,6.693-.333,10.165a.164.164,0,0,1-.145.171,2.75,2.75,0,0,1-.6,0,.22.22,0,0,1-.2-.187,101.382,101.382,0,0,1-1.055-12.689c0-.273.32-2.516.32-2.516Z" transform="translate(-683.718 -2414.094)" fill="url(#linear-gradient-35)"/>
      </g>
      <g id="Group_1464" data-name="Group 1464" transform="translate(8.44 2.803)">
        <g id="Group_1463" data-name="Group 1463" transform="translate(0 1.889)">
          <path id="Path_4295" data-name="Path 4295" d="M848.876,1946.328c-.133.943-.273,1.16-.381,1.165-.346.018-.276-2.108-1.543-3.184a3.681,3.681,0,0,0-2.749-.656l1.2,4.3a4.587,4.587,0,0,0,2.659,2.688,1.97,1.97,0,0,0,1.358.058c.958-.412,1.408-2.1.979-4.213A4.2,4.2,0,0,0,848.876,1946.328Z" transform="translate(-844.203 -1942.65)" fill="url(#linear-gradient-36)"/>
          <path id="Path_4296" data-name="Path 4296" d="M1049.954,1897.668l.159.9a7.014,7.014,0,0,1,.147,2.781c.219.009.448.024.688.048.3.029.574.068.835.112a16.045,16.045,0,0,0-.88-2.966C1050.455,1897.894,1050.4,1898.314,1049.954,1897.668Z" transform="translate(-1045.586 -1897.668)" fill="url(#linear-gradient-37)"/>
        </g>
        <path id="Path_4297" data-name="Path 4297" d="M1031.068,1808.693a.591.591,0,0,0-.468.21l-1.131,1.34s-.206-.042-.225-.436a.489.489,0,0,0-.438-.442s.06.55.175,1.363a1.724,1.724,0,0,0,.564,1.01l.654-.225a7.44,7.44,0,0,0,1.179-2.812Z" transform="translate(-1024.888 -1808.693)" fill="url(#linear-gradient-38)"/>
      </g>
      <path id="Path_4298" data-name="Path 4298" d="M633.292,1933.542c.075-.02.59-.552.668-.567,1.269-.242,4.438-1.1,6.558.469.005.045.009.081.011.111a1.171,1.171,0,0,1,.087.15,7.155,7.155,0,0,0,.716,1.118.73.73,0,0,0-.147.209c-.51,1.092-2.441,5.451-2.1,8.116a.252.252,0,0,1-.214.284,10.1,10.1,0,0,1-4.137-.12.177.177,0,0,1-.109-.166,19.59,19.59,0,0,0-.866-5.654,3.164,3.164,0,0,1-.078-.317l-.03.064Z" transform="translate(-629.33 -1927.093)" fill="url(#linear-gradient-39)"/>
      <path id="Path_4299" data-name="Path 4299" d="M517.16,1942.329c-2.367.173-2.862,1.526-4.5.7l.29,2.533a4.4,4.4,0,0,0,2.677,1.3Z" transform="translate(-511.26 -1936.689)" fill="url(#linear-gradient-40)"/>
      <path id="Path_4300" data-name="Path 4300" d="M771.895,1834.4a6.209,6.209,0,0,0-.626,2.4c.087.033,1.251.84,2.031.058a7.085,7.085,0,0,1-.1-2.173Z" transform="translate(-764.378 -1831.05)" fill="url(#linear-gradient-41)"/>
      <g id="Group_1465" data-name="Group 1465" transform="translate(6.906)">
        <path id="Path_4301" data-name="Path 4301" d="M812.291,1726.245c.022.036.6,2.78.6,2.78l-1.574.3-.938-2.519S811.918,1725.64,812.291,1726.245Z" transform="translate(-809.568 -1725.021)" fill="url(#linear-gradient-42)"/>
        <path id="Path_4302" data-name="Path 4302" d="M773.357,1678.636a.231.231,0,0,0-.036.2l.384,1.345a.217.217,0,0,0,.025.058c.062.1.285.4.586.153a2.031,2.031,0,0,1,.708-.446.23.23,0,0,1,.273.179,8.592,8.592,0,0,1,.173,1.256.229.229,0,0,1-.2.237,6.384,6.384,0,0,1-1.439.031.23.23,0,0,1-.186-.146c-.135-.349-.516-1.325-.666-1.584-.139-.24-.51-.263-.68-.26a.231.231,0,0,1-.171-.071.507.507,0,0,1,.015-.795.23.23,0,0,0,.012-.321.509.509,0,0,1,0-.748.718.718,0,0,1,.849-.166.239.239,0,0,0,.278-.07.152.152,0,0,1,.139-.06.223.223,0,0,0,.243-.207.589.589,0,0,1,.493-.567c.69-.169,1.072.51,1.084,1s-.746.632-1.184.572C773.734,1678.184,773.473,1678.478,773.357,1678.636Z" transform="translate(-771.94 -1676.629)" fill="url(#linear-gradient-43)"/>
        <path id="Path_4303" data-name="Path 4303" d="M785.369,1812.256s-.146-.869-.5-.932-.711.206-.389.7A.58.58,0,0,0,785.369,1812.256Z" transform="translate(-784.095 -1808.456)" fill="url(#linear-gradient-44)"/>
      </g>
      <g id="Group_1467" data-name="Group 1467" transform="translate(0 0.674)">
        <path id="Path_4304" data-name="Path 4304" d="M735.548,1708.394a.807.807,0,0,1,.2.019c.166.035.388.121.33.281-.087.24-.536.016-.776.4-.211.341-.038.712-.1,1.08a.915.915,0,0,1-.306.549c-.072.047-.636.136-.667.036l-.157-.509c-.141-.458.4-1.221.681-1.53A1.09,1.09,0,0,1,735.548,1708.394Z" transform="translate(-727.946 -1708.394)" fill="url(#linear-gradient-45)"/>
        <g id="Group_1466" data-name="Group 1466" transform="translate(0 1.54)">
          <path id="Path_4305" data-name="Path 4305" d="M599.743,1781.224l-.54.449a7.016,7.016,0,0,0-2.333,1.521,3.077,3.077,0,0,0-1.027-1.136,11.46,11.46,0,0,1,1.821-.728C599.771,1780.483,599.743,1781.224,599.743,1781.224Z" transform="translate(-592.676 -1780.924)" fill="url(#linear-gradient-46)"/>
          <path id="Path_4306" data-name="Path 4306" d="M450.829,1835.495c-1.7,1.753-1.205.862-1.219,2.357a25.612,25.612,0,0,1-.489,2.685c-5.207-2.249-.862-5.32.681-6.177A3.077,3.077,0,0,1,450.829,1835.495Z" transform="translate(-446.635 -1833.225)" fill="url(#linear-gradient-47)"/>
        </g>
      </g>
    </g>
  </g>
</svg>
