<svg xmlns="http://www.w3.org/2000/svg" width="28.033" height="22.507" viewBox="0 0 28.033 22.507">
  <path id="Icon_awesome-angle-double-left" data-name="Icon awesome-angle-double-left" d="M15.729,16.8l9.563-9.562a1.681,1.681,0,0,1,2.384,0l1.589,1.589a1.681,1.681,0,0,1,0,2.384L22.493,18l6.778,6.778a1.681,1.681,0,0,1,0,2.384l-1.589,1.6a1.681,1.681,0,0,1-2.384,0L15.736,19.2a1.683,1.683,0,0,1-.007-2.391ZM2.229,19.2l9.563,9.563a1.681,1.681,0,0,0,2.384,0l1.589-1.589a1.681,1.681,0,0,0,0-2.384L8.993,18l6.778-6.778a1.681,1.681,0,0,0,0-2.384l-1.589-1.6a1.681,1.681,0,0,0-2.384,0L2.236,16.8A1.683,1.683,0,0,0,2.229,19.2Z" transform="translate(-1.734 -6.746)" fill="#10b5df"/>
</svg>
