<svg id="ab-seal-horizontal" xmlns="http://www.w3.org/2000/svg" width="157.1" height="55.014" viewBox="0 0 157.1 55.014">
  <path id="Path_3" data-name="Path 3" d="M53.181,56.069H10.114c-4.058-.36-6.641-3.157-6.571-6.784V8.784A6.754,6.754,0,0,1,10.114,2H53.181Z" transform="translate(-2.785 -1.573)" fill="#fff"/>
  <path id="Path_4" data-name="Path 4" d="M330.506,49.866V9.3a6.659,6.659,0,0,0-6.659-6.659H235V56.525h88.847a6.659,6.659,0,0,0,6.659-6.659" transform="translate(-184.778 -2.076)" fill="#015a75"/>
  <path id="Path_5" data-name="Path 5" d="M181.159,55.014H91.75V0h89.409a7.232,7.232,0,0,1,7.223,7.223V47.79a7.232,7.232,0,0,1-7.223,7.223m-88.28-1.128h88.28a6.1,6.1,0,0,0,6.1-6.1V7.223a6.1,6.1,0,0,0-6.1-6.1H92.879Zm-28.787-35.7L61.769,21.39a4.335,4.335,0,0,0,.786,5.595l4.308,3.11c.739.534.8,1.069.447,1.626l.626.466,2.182-3.022a4.089,4.089,0,0,0-.769-5.864L65,20.134a1.085,1.085,0,0,1-.286-1.5l-.626-.447M67.819,4.037l-3.618,5A6.21,6.21,0,0,0,65.44,17.1l5.948,4.366a3.356,3.356,0,0,1,.485,4.293l.5.378,4.1-5.77a6.074,6.074,0,0,0-1.158-8.523L68.96,7.219a1.934,1.934,0,0,1-.594-2.8l-.547-.387M58.285,35.416h4.794l.855,2.906h7.835l.855-2.906h4.8l-.628-2.137H58.913l-.628,2.137m2.246,9.724a2.478,2.478,0,0,0,1.359-2.212c0-1.985-1.626-2.8-3.4-2.8H53.53V50.675h4.915c2.1,0,4.321-.917,3.962-3.332-.214-1.383-.761-1.71-1.874-2.206m-4.766-2.988h2.582a1.127,1.127,0,1,1,.1,2.248H55.768Zm2.879,6.533H55.768v-2.4h2.879C60.76,46.279,60.63,48.684,58.646,48.684ZM70.375,45.14a2.478,2.478,0,0,0,1.359-2.212c0-1.985-1.626-2.8-3.4-2.8H63.374V50.675h4.915c2.1,0,4.321-.917,3.962-3.332-.214-1.383-.761-1.71-1.874-2.206M65.62,42.146h2.575a1.127,1.127,0,1,1,.1,2.248H65.618Zm2.872,6.535H65.618v-2.4H68.49c2.111,0,1.983,2.4,0,2.4Zm13.6-1.336c-.214-1.383-.761-1.71-1.874-2.206a2.478,2.478,0,0,0,1.359-2.212c0-1.985-1.626-2.8-3.4-2.8H73.217V50.675h4.915c2.1,0,4.321-.917,3.962-3.332m-6.625-5.2h2.567a1.127,1.127,0,1,1,.1,2.248H75.461Zm2.872,6.535H75.461v-2.4h2.872c2.111,0,1.983,2.4,0,2.4Z" transform="translate(-42.09)" fill="#015a75"/>
  <path id="Path_6" data-name="Path 6" d="M277.52,89.031,277.04,87.7h-3.362l-.494,1.327h-1.9l3.033-7.839H276.4l3.02,7.839Zm-2.161-6.172-1.222,3.372h2.445Zm4.5,2.257a3.988,3.988,0,0,1,4.172-4.061,3.588,3.588,0,0,1,3.278,1.923l-1.434.705a2.124,2.124,0,0,0-1.834-1.146,2.567,2.567,0,0,0,0,5.129,2.1,2.1,0,0,0,1.844-1.139l1.425.712a3.609,3.609,0,0,1-3.278,1.923A3.983,3.983,0,0,1,279.861,85.115Zm8.157,0a3.988,3.988,0,0,1,4.172-4.061,3.588,3.588,0,0,1,3.278,1.923l-1.434.705a2.124,2.124,0,0,0-1.844-1.146,2.567,2.567,0,0,0,0,5.129,2.1,2.1,0,0,0,1.844-1.139l1.434.692a3.609,3.609,0,0,1-3.278,1.923A3.951,3.951,0,0,1,288.018,85.115Zm12.964,3.915-1.539-2.778h-1.222v2.778h-1.669V81.192h3.667a2.441,2.441,0,0,1,2.633,2.526,2.244,2.244,0,0,1-1.71,2.327l1.763,2.992Zm.158-5.313a1.064,1.064,0,0,0-1.175-1.058h-1.75v2.116h1.75A1.061,1.061,0,0,0,301.14,83.718Zm3.052,5.313V81.192h5.557V82.66h-3.887v1.656h3.8v1.468h-3.8v1.774h3.879v1.468Zm6.935,0V81.192h3.09a3.926,3.926,0,1,1,0,7.839Zm5.557-3.913a2.3,2.3,0,0,0-2.456-2.456h-1.421v4.9h1.421a2.344,2.344,0,0,0,2.447-2.445Zm2.966,3.913V81.192h1.669v7.839Zm5.112,0V82.66h-2.293V81.192h6.253V82.66h-2.28v6.371Zm5.112,0V81.192h5.557V82.66h-3.887v1.656h3.791v1.468h-3.791v1.774h3.879v1.468Zm6.935,0V81.192h3.09a3.926,3.926,0,1,1,0,7.839Zm5.557-3.913a2.3,2.3,0,0,0-2.456-2.456h-1.421v4.9h1.421a2.343,2.343,0,0,0,2.447-2.445Zm-70.249,17.377V94.656h4.125a2.026,2.026,0,0,1,2.257,2,1.74,1.74,0,0,1-1.351,1.8,1.892,1.892,0,0,1,1.5,1.923,2.064,2.064,0,0,1-2.28,2.116Zm4.678-5.557a.855.855,0,0,0-.917-.855h-2.092v1.71h2.092a.834.834,0,0,0,.915-.846Zm.152,3.206a.916.916,0,0,0-1.011-.917h-2.15v1.821h2.15A.889.889,0,0,0,276.945,100.144Zm3.037-.776V94.656h1.71V99.31a1.839,1.839,0,1,0,3.678,0V94.656h1.71v4.7c0,1.951-1.152,3.278-3.537,3.278S279.982,101.3,279.982,99.368Zm8.177,2.022.9-1.269a3.437,3.437,0,0,0,2.492,1.058c.917,0,1.363-.427,1.363-.87,0-.575-.729-.739-1.586-.951-1.282-.293-2.926-.641-2.926-2.432,0-1.3,1.128-2.385,2.973-2.385a4.365,4.365,0,0,1,3.056,1.092l-.93,1.225a3.366,3.366,0,0,0-2.28-.855c-.716,0-1.116.318-1.116.786,0,.507.716.669,1.562.87,1.282.306,2.939.695,2.939,2.468,0,1.434-1.022,2.515-3.137,2.515a4.535,4.535,0,0,1-3.315-1.252Zm7.664,1.1V94.656h1.669v7.839Zm8.709,0-3.738-5.112v5.112h-1.669V94.656h1.71l3.633,4.915V94.656h1.669v7.839Zm3.244,0V94.656h5.557v1.468h-3.887V97.78h3.8v1.468h-3.8v1.774h3.877v1.468Zm6.4-1.1.9-1.269a3.436,3.436,0,0,0,2.492,1.058c.917,0,1.363-.427,1.363-.87,0-.575-.729-.739-1.586-.951-1.282-.293-2.926-.641-2.926-2.432,0-1.3,1.128-2.385,2.973-2.385a4.365,4.365,0,0,1,3.056,1.092l-.923,1.225A3.368,3.368,0,0,0,317.25,96c-.716,0-1.116.318-1.116.786,0,.507.718.669,1.562.87,1.282.306,2.939.695,2.939,2.468,0,1.434-1.022,2.515-3.137,2.515a4.562,4.562,0,0,1-3.321-1.252Zm7.142,0,.9-1.269a3.436,3.436,0,0,0,2.492,1.058c.917,0,1.363-.427,1.363-.87,0-.575-.729-.739-1.586-.951-1.282-.293-2.926-.641-2.926-2.432,0-1.3,1.128-2.385,2.973-2.385a4.365,4.365,0,0,1,3.056,1.092l-.93,1.225a3.368,3.368,0,0,0-2.28-.855c-.716,0-1.116.318-1.116.786,0,.507.718.669,1.562.87,1.282.306,2.939.695,2.939,2.468,0,1.434-1.022,2.515-3.137,2.515a4.528,4.528,0,0,1-3.315-1.252Z" transform="translate(-213.304 -63.731)" fill="#fff"/>
  <path id="Path_7" data-name="Path 7" d="M147.816,50.383v-.026a4.642,4.642,0,0,1,9.284-.026v.026a4.642,4.642,0,0,1-9.284.026Zm8.861-.026v-.026a4.219,4.219,0,0,0-8.437.026v.026a4.219,4.219,0,1,0,8.437-.026Zm-6.04-2.513h2.137a1.981,1.981,0,0,1,1.411.5,1.252,1.252,0,0,1,.385.923v.026a1.409,1.409,0,0,1-1.231,1.4l1.475,1.911h-.872l-1.372-1.8h-1.218v1.8h-.705Zm2.064,2.334c.667,0,1.128-.308,1.128-.855V49.3c0-.5-.41-.821-1.09-.821h-1.4v1.693ZM50.789,55.014H7.223A7.232,7.232,0,0,1,0,47.79V7.223A7.232,7.232,0,0,1,7.223,0H50.789V55.014M7.223,1.128a6.1,6.1,0,0,0-6.1,6.1V47.79a6.1,6.1,0,0,0,6.1,6.1H49.66V1.128Z" fill="#015a75"/>
</svg>
