<svg xmlns="http://www.w3.org/2000/svg" xmlns:xlink="http://www.w3.org/1999/xlink" width="460.37" height="289.912" viewBox="0 0 460.37 289.912">
  <defs>
    <linearGradient id="linear-gradient" y1="0.5" x2="1" y2="0.5" gradientUnits="objectBoundingBox">
      <stop offset="0" stop-color="#dae3fe"/>
      <stop offset="1" stop-color="#e9effd"/>
    </linearGradient>
    <linearGradient id="linear-gradient-6" x1="0.563" y1="0.236" x2="0.125" y2="1.943" gradientUnits="objectBoundingBox">
      <stop offset="0" stop-color="#fe7062"/>
      <stop offset="1" stop-color="#ff928e"/>
    </linearGradient>
    <linearGradient id="linear-gradient-7" x1="0.593" y1="-2.498" x2="0.551" y2="-1.147" gradientUnits="objectBoundingBox">
      <stop offset="0" stop-color="#ff928e"/>
      <stop offset="1" stop-color="#feb3b1"/>
    </linearGradient>
    <linearGradient id="linear-gradient-8" x1="0.63" y1="-22.884" x2="0.582" y2="-14.138" xlink:href="#linear-gradient-7"/>
    <linearGradient id="linear-gradient-9" x1="0.67" y1="-10.035" x2="0.609" y2="-6.306" xlink:href="#linear-gradient-7"/>
    <linearGradient id="linear-gradient-10" x1="0.655" y1="-2.692" x2="0.585" y2="-1.217" xlink:href="#linear-gradient-7"/>
    <linearGradient id="linear-gradient-11" x1="0.722" y1="-2.267" x2="0.622" y2="-0.939" xlink:href="#linear-gradient-7"/>
    <linearGradient id="linear-gradient-12" x1="0.621" y1="-1.92" x2="0.575" y2="-0.943" xlink:href="#linear-gradient-7"/>
    <linearGradient id="linear-gradient-13" x1="0.697" y1="-4.943" x2="0.619" y2="-2.851" xlink:href="#linear-gradient-7"/>
    <linearGradient id="linear-gradient-14" x1="0.929" y1="-9.59" x2="0.708" y2="-4.38" xlink:href="#linear-gradient-7"/>
    <linearGradient id="linear-gradient-15" x1="0.876" y1="-8.36" x2="0.656" y2="-3.15" xlink:href="#linear-gradient-7"/>
    <linearGradient id="linear-gradient-16" x1="1.078" y1="-13.123" x2="0.858" y2="-7.912" xlink:href="#linear-gradient-7"/>
    <linearGradient id="linear-gradient-17" x1="0.913" y1="-9.218" x2="0.692" y2="-4.008" xlink:href="#linear-gradient-7"/>
    <linearGradient id="linear-gradient-18" x1="0.99" y1="-11.05" x2="0.77" y2="-5.84" xlink:href="#linear-gradient-7"/>
    <linearGradient id="linear-gradient-19" x1="1.103" y1="-13.713" x2="0.883" y2="-8.503" xlink:href="#linear-gradient-7"/>
    <linearGradient id="linear-gradient-20" x1="1.127" y1="-14.276" x2="0.906" y2="-9.066" xlink:href="#linear-gradient-7"/>
    <linearGradient id="linear-gradient-21" x1="1.145" y1="-14.718" x2="0.925" y2="-9.508" xlink:href="#linear-gradient-7"/>
    <linearGradient id="linear-gradient-22" x1="0.908" y1="-9.116" x2="0.688" y2="-3.905" xlink:href="#linear-gradient-7"/>
    <linearGradient id="linear-gradient-23" x1="1.011" y1="-11.551" x2="0.791" y2="-6.341" xlink:href="#linear-gradient-7"/>
    <linearGradient id="linear-gradient-24" x1="0.393" y1="0.97" x2="-0.421" y2="3.48" xlink:href="#linear-gradient-6"/>
    <linearGradient id="linear-gradient-25" x1="0.592" y1="0.222" x2="-0.078" y2="2.47" xlink:href="#linear-gradient-6"/>
    <linearGradient id="linear-gradient-26" x1="0.245" y1="0.907" x2="1.349" y2="-0.548" gradientUnits="objectBoundingBox">
      <stop offset="0" stop-color="#e1473d"/>
      <stop offset="1" stop-color="#e9605a"/>
    </linearGradient>
    <linearGradient id="linear-gradient-27" x1="171.559" y1="78.572" x2="173.439" y2="71.697" gradientUnits="objectBoundingBox">
      <stop offset="0" stop-color="#09005d"/>
      <stop offset="1" stop-color="#1a0f91"/>
    </linearGradient>
    <linearGradient id="linear-gradient-28" x1="198.075" y1="-12.943" x2="194.376" y2="11.132" gradientUnits="objectBoundingBox">
      <stop offset="0" stop-color="#53d8ff"/>
      <stop offset="1" stop-color="#3840f7"/>
    </linearGradient>
    <linearGradient id="linear-gradient-29" x1="1.897" y1="-1.465" x2="1.036" y2="-0.268" xlink:href="#linear-gradient-7"/>
    <linearGradient id="linear-gradient-30" x1="510.77" y1="-0.843" x2="510.264" y2="2.39" xlink:href="#linear-gradient-7"/>
    <linearGradient id="linear-gradient-31" x1="134.176" y1="-5.387" x2="131.66" y2="17.678" xlink:href="#linear-gradient-28"/>
    <linearGradient id="linear-gradient-32" x1="119.21" y1="88.911" x2="120.516" y2="81.191" xlink:href="#linear-gradient-27"/>
    <linearGradient id="linear-gradient-33" x1="518.896" y1="-0.224" x2="518.381" y2="2.539" xlink:href="#linear-gradient-7"/>
    <linearGradient id="linear-gradient-34" x1="0" y1="0.5" x2="1" y2="0.5" xlink:href="#linear-gradient-26"/>
    <linearGradient id="linear-gradient-35" x1="32.072" y1="-0.048" x2="31.144" y2="2.025" xlink:href="#linear-gradient-6"/>
    <linearGradient id="linear-gradient-36" x1="1.732" y1="-0.346" x2="-0.367" y2="1.373" xlink:href="#linear-gradient-7"/>
    <linearGradient id="linear-gradient-37" x1="0.842" y1="0.024" x2="-1.535" y2="2.749" xlink:href="#linear-gradient-7"/>
    <linearGradient id="linear-gradient-38" x1="0.595" y1="-0.905" x2="0.39" y2="3.004" xlink:href="#linear-gradient-7"/>
    <linearGradient id="linear-gradient-39" x1="1.286" y1="0.078" x2="0.507" y2="0.508" xlink:href="#linear-gradient-7"/>
    <linearGradient id="linear-gradient-40" x1="0.596" y1="-0.955" x2="0.566" y2="-0.449" xlink:href="#linear-gradient-26"/>
    <linearGradient id="linear-gradient-41" x1="206.968" y1="241.156" x2="209.426" y2="238.508" xlink:href="#linear-gradient-7"/>
    <linearGradient id="linear-gradient-42" x1="-9.231" y1="1.712" x2="-20.224" y2="3.086" xlink:href="#linear-gradient-6"/>
    <linearGradient id="linear-gradient-43" x1="347.734" y1="-0.866" x2="346.811" y2="0.839" xlink:href="#linear-gradient-6"/>
    <linearGradient id="linear-gradient-48" x1="2.527" y1="-13.912" x2="1.93" y2="-11.988" xlink:href="#linear-gradient-27"/>
    <linearGradient id="linear-gradient-49" x1="0.5" y1="0.348" x2="0.5" y2="1.479" xlink:href="#linear-gradient-6"/>
    <linearGradient id="linear-gradient-50" x1="-0.16" y1="-0.191" x2="1.984" y2="2.225" xlink:href="#linear-gradient-7"/>
    <linearGradient id="linear-gradient-51" x1="-172.046" y1="-0.938" x2="-169.775" y2="1.478" xlink:href="#linear-gradient-7"/>
    <linearGradient id="linear-gradient-52" x1="0.897" y1="-0.17" x2="0.341" y2="0.767" xlink:href="#linear-gradient-27"/>
    <linearGradient id="linear-gradient-53" x1="2.267" y1="2.255" x2="-2.813" y2="-2.832" gradientUnits="objectBoundingBox">
      <stop offset="0" stop-color="#4042e2"/>
      <stop offset="1" stop-color="#4f52ff"/>
    </linearGradient>
    <linearGradient id="linear-gradient-54" x1="2.58" y1="-4.058" x2="-0.86" y2="3.366" xlink:href="#linear-gradient-7"/>
    <linearGradient id="linear-gradient-55" x1="0.077" y1="1.062" x2="2.611" y2="-2.206" xlink:href="#linear-gradient-53"/>
    <linearGradient id="linear-gradient-56" x1="3.788" y1="-6.36" x2="0.301" y2="1.144" xlink:href="#linear-gradient-7"/>
    <linearGradient id="linear-gradient-57" x1="0.524" y1="0.523" x2="1.255" y2="-0.826" xlink:href="#linear-gradient-53"/>
    <linearGradient id="linear-gradient-58" x1="0.489" y1="-0.848" x2="0.495" y2="-0.118" xlink:href="#linear-gradient-53"/>
    <linearGradient id="linear-gradient-59" x1="0.51" y1="0.028" x2="0.466" y2="2.116" xlink:href="#linear-gradient-7"/>
    <linearGradient id="linear-gradient-60" x1="0.535" y1="0.04" x2="0.457" y2="0.995" xlink:href="#linear-gradient-7"/>
    <linearGradient id="linear-gradient-61" x1="1.247" y1="-1.154" x2="0.981" y2="-0.578" xlink:href="#linear-gradient-27"/>
    <linearGradient id="linear-gradient-62" x1="0.721" y1="-1.213" x2="0.22" y2="2.506" xlink:href="#linear-gradient-7"/>
    <linearGradient id="linear-gradient-63" x1="0" y1="0.5" x2="1" y2="0.5" xlink:href="#linear-gradient-53"/>
  </defs>
  <g id="Group_1768" data-name="Group 1768" transform="translate(-121.68 -135.789)">
    <path id="Path_4940" data-name="Path 4940" d="M659.038,294.8c-7.579-8.309-16.542-16.413-18.879-27.695-4.044-19.522,13.25-36.168,18.911-55.234a49.546,49.546,0,0,0-5.341-39.7c-7.236-11.5-19.542-19.265-32.544-20.528-22.372-2.173-44.267,13.783-66.3,9.162-17.646-3.7-31.59-20.022-49.5-21.77-21.078-2.058-38.567,16.359-58.7,23.293-24.076,8.293-50.179-.374-73.849-9.885s-48.575-20.123-73.526-15.571c-27.774,5.067-51.06,30.681-54.775,60.25-3.681,29.3,27.194,52.827.912,88.012-8.213,11-13.676,26.3-10.045,39.784,3.528,13.1,18.54,21.381,18.649,35,.086,10.751-9.491,19.305-10.263,30.026-.662,9.2,5.59,17.708,13.275,22.069s16.6,5.427,25.269,6.416l-2.555,2.907c43.665,4.148,87.6,3.225,131.432,2.3l207.368-4.385c7.1-.15,14.381-.335,21-3.069s12.556-8.587,13.564-16.031c1.716-12.669-10.8-23.664-9.64-36.4,1.476-16.268,23.12-22.544,27.238-38.295C673.645,314.323,666.617,303.112,659.038,294.8Z" transform="translate(-89.357 0)" fill="url(#linear-gradient)"/>
    <g id="Group_1739" data-name="Group 1739" transform="translate(432.619 139.757)">
      <path id="Path_4941" data-name="Path 4941" d="M1698.772,156.2c6.369,19.064,38.9,131.52-61.14,181.005,0,0-40.477-68.52,58.247-181.59A1.7,1.7,0,0,1,1698.772,156.2Z" transform="translate(-1629.416 -155.032)" fill="#bdd0fb"/>
      <path id="Path_4942" data-name="Path 4942" d="M1807.044,252.248c-.5,6.408-1.131,12.8-1.818,19.182s-1.452,12.761-2.29,19.129c-1.676,12.735-3.635,25.435-5.986,38.068s-5.088,25.2-8.5,37.607q-2.531,9.311-5.747,18.431a162.484,162.484,0,0,1-7.429,17.862.864.864,0,0,1-1.549-.768l0,0v0a160.915,160.915,0,0,0,7.463-17.626q3.256-9.022,5.831-18.288c3.479-12.328,6.282-24.851,8.718-37.439s4.467-25.261,6.222-37.969q1.318-9.531,2.412-19.092c.727-6.373,1.4-12.756,1.939-19.143v0a.366.366,0,0,1,.73.059Z" transform="translate(-1743.892 -231.886)" fill="url(#linear-gradient)"/>
    </g>
    <g id="Group_1740" data-name="Group 1740" transform="translate(426.384 160.494)">
      <path id="Path_4943" data-name="Path 4943" d="M1733.647,257.463a1.911,1.911,0,0,0-3.611-.837c-8.682,17.133-32.857,61.347-60.641,81.847-45.24,33.379-83.078,94.635-66.053,133.615C1603.341,472.087,1737.279,473.9,1733.647,257.463Z" transform="translate(-1599.181 -255.583)" fill="#bdd0fb"/>
      <path id="Path_4944" data-name="Path 4944" d="M1789.021,385.62c-.161.557-.347,1.034-.523,1.542l-.552,1.495-1.138,2.975c-.77,1.979-1.56,3.949-2.355,5.918q-2.4,5.9-4.942,11.74c-3.386,7.788-6.976,15.486-10.685,23.127s-7.6,15.193-11.656,22.657l-1.515,2.8-1.552,2.782c-1.043,1.85-2.052,3.719-3.126,5.552l-3.184,5.519-3.267,5.472a413.278,413.278,0,0,1-28.858,42c-.646.844-1.319,1.667-2,2.484l-2.025,2.463-2.024,2.462c-.686.812-1.392,1.606-2.087,2.41-1.4,1.6-2.771,3.224-4.205,4.792l-4.329,4.68a225.047,225.047,0,0,1-18.592,17.428.216.216,0,0,1-.28-.329l0,0a241.78,241.78,0,0,0,18.218-17.709l4.265-4.709c1.412-1.577,2.758-3.215,4.14-4.819.684-.808,1.379-1.607,2.053-2.423l1.992-2.475,1.992-2.474c.668-.822,1.329-1.648,1.964-2.5l3.866-5.042c1.278-1.689,2.51-3.412,3.768-5.117.623-.856,1.258-1.7,1.871-2.567l1.821-2.6,1.821-2.6c.611-.866,1.215-1.735,1.8-2.62,4.78-7,9.28-14.182,13.709-21.406,8.8-14.487,16.862-29.421,24.442-44.588q5.667-11.386,10.892-22.987,2.62-5.8,5.122-11.644c.826-1.953,1.647-3.908,2.447-5.871l1.182-2.951.574-1.481c.181-.491.381-1,.527-1.462l.014-.045a.214.214,0,0,1,.41.124Z" transform="translate(-1663.377 -358.585)" fill="url(#linear-gradient)"/>
    </g>
    <g id="Group_1741" data-name="Group 1741" transform="translate(442.23 249.165)">
      <path id="Path_4945" data-name="Path 4945" d="M1676.018,857.058s1.3-27.5,29.744-54.631c26.39-25.169,91.16-83.3,106.6-116.021a1.48,1.48,0,0,1,2.824.644c-.277,17.191-4.355,60.191-35.179,102.234C1740.252,843.5,1676.018,857.058,1676.018,857.058Z" transform="translate(-1676.018 -685.545)" fill="#91b3fa"/>
      <path id="Path_4946" data-name="Path 4946" d="M1830.839,837.511a63.352,63.352,0,0,1-2.889,11.024c-.154.45-.3.9-.46,1.351l-.51,1.333-1.021,2.667-1.132,2.622c-.385.87-.735,1.759-1.174,2.6a134.777,134.777,0,0,1-11.515,19.724c-1.036,1.6-2.235,3.087-3.377,4.614-1.165,1.508-2.263,3.071-3.521,4.505l-3.673,4.385c-.6.745-1.268,1.423-1.912,2.125l-1.948,2.093-1.949,2.093-.977,1.044-1.025,1-4.1,3.989c-.687.659-1.355,1.343-2.059,1.981l-2.108,1.918-4.217,3.835-4.26,3.787c-1.424,1.258-2.836,2.53-4.277,3.767q-4.3,3.742-8.658,7.415c-2.893,2.463-5.825,4.878-8.743,7.308l-8.83,7.2c-5.89,4.789-11.786,9.567-17.512,14.527-1.45,1.221-2.834,2.51-4.242,3.776-.712.625-1.379,1.3-2.061,1.95s-1.37,1.306-2.03,1.982c-1.29,1.379-2.635,2.714-3.825,4.18l-.922,1.076c-.151.182-.313.355-.455.544l-.422.567-1.692,2.274-.007.009a.216.216,0,0,1-.354-.248,67.168,67.168,0,0,1,7.127-8.931c.649-.7,1.331-1.362,2-2.045s1.328-1.367,2.027-2.012c1.384-1.306,2.748-2.637,4.172-3.9,5.643-5.1,11.508-9.937,17.323-14.817s11.645-9.737,17.411-14.664,11.467-9.931,17.119-14.986l4.2-3.829,2.1-1.915c.7-.637,1.367-1.306,2.052-1.958l4.084-3.932,1.021-.983.974-1.029,1.942-2.064a167.348,167.348,0,0,0,14.5-17.408,133.648,133.648,0,0,0,11.84-19.319c.454-.831.817-1.705,1.233-2.554l1.212-2.567,1.1-2.614.552-1.309c.175-.439.334-.885.5-1.328.325-.889.679-1.769.982-2.665l.888-2.7a55.933,55.933,0,0,0,1.432-5.5.026.026,0,0,1,.03-.023A.028.028,0,0,1,1830.839,837.511Z" transform="translate(-1705.333 -806.146)" fill="#bdd0fb"/>
    </g>
    <g id="Group_1742" data-name="Group 1742" transform="translate(124.497 152.116)">
      <path id="Path_4947" data-name="Path 4947" d="M239.953,397.3s-27.57-116.412-84.71-179.924a7.252,7.252,0,0,0-12.4,2.914C132.705,257.327,113.241,369.674,239.953,397.3Z" transform="translate(-135.342 -214.959)" fill="#91b3fa"/>
      <path id="Path_4948" data-name="Path 4948" d="M300,534.97a.316.316,0,0,1-.411.48c-11.756-8.744-57.209-51.709-73.986-137.328a.221.221,0,0,1,.428-.111C231.733,417.859,255.061,491.041,300,534.97Z" transform="translate(-206.982 -360.137)" fill="#bdd0fb"/>
    </g>
    <g id="Group_1743" data-name="Group 1743" transform="translate(197.797 136.938)">
      <path id="Path_4949" data-name="Path 4949" d="M535.832,284.68s10.99-83.772-10.808-140.034a5.122,5.122,0,0,0-8.915-1.184C500.125,165.372,459.1,234.666,535.832,284.68Z" transform="translate(-490.768 -141.362)" fill="#bdd0fb"/>
      <path id="Path_4950" data-name="Path 4950" d="M612.655,378.105a.223.223,0,0,1-.391.214c-5.569-8.721-24.8-48.486-14.41-109.221a.156.156,0,0,1,.31.034C596.954,283.666,594,337.833,612.655,378.105Z" transform="translate(-573.364 -242.651)" fill="url(#linear-gradient)"/>
    </g>
    <g id="Group_1744" data-name="Group 1744" transform="translate(121.68 297.999)">
      <path id="Path_4951" data-name="Path 4951" d="M121.971,923.461a.6.6,0,0,1,.378-1.117A116.161,116.161,0,0,1,197.8,964.159c25.576,31.467,38.365,57.734,42.728,67.7a2.813,2.813,0,0,1-2.854,3.928c-12.685-1.263-48.019-6.659-62.8-28.225C157.216,981.787,148.194,939.653,121.971,923.461Z" transform="translate(-121.68 -922.339)" fill="#bdd0fb"/>
      <path id="Path_4952" data-name="Path 4952" d="M269.025,1014.073s33.362,12.59,85.8,90.91C354.82,1104.983,297.956,1029.064,269.025,1014.073Z" transform="translate(-238.638 -995.155)" fill="url(#linear-gradient)"/>
    </g>
    <g id="Group_1748" data-name="Group 1748" transform="translate(177.013 217.511)">
      <g id="Group_1747" data-name="Group 1747" transform="translate(16.059)">
        <path id="Path_4953" data-name="Path 4953" d="M787.414,724.188a5.667,5.667,0,0,1-5.653,5.648H476.054a5.667,5.667,0,0,1-5.653-5.648l-2.544-175.681c0-3.106,3.66-9.171,10.367-8.715l298.77-7.731a14.247,14.247,0,0,1,14.618,14.571Z" transform="translate(-467.857 -532.056)" fill="#10b5df"/>
        <path id="Path_4954" data-name="Path 4954" d="M811.934,744.555a5.364,5.364,0,0,1-5.348,5.348H513.528a5.364,5.364,0,0,1-5.348-5.348l-2.4-159.485c.283-9.6,8.7-13.047,13.8-12.843l286.344-7.682a10.013,10.013,0,0,1,10.272,10.246Z" transform="translate(-497.958 -557.841)" fill="#0f8faf"/>
        <g id="Group_1745" data-name="Group 1745" transform="translate(11.763 15.326)">
          <path id="Path_4955" data-name="Path 4955" d="M530.382,1015.218a.433.433,0,0,1-.432-.426l-.19-12.934a.432.432,0,0,1,.425-.438h.007a.433.433,0,0,1,.432.426l.19,12.934a.433.433,0,0,1-.426.439Z" transform="translate(-528.758 -919.949)" fill="#91b3fa"/>
          <path id="Path_4956" data-name="Path 4956" d="M526.056,669.945a.432.432,0,0,1-.432-.426l-.728-49.537a10.487,10.487,0,0,1,3.029-7.863c3.629-3.478,9.31-3.3,9.55-3.294l91.443-2.454a.432.432,0,1,1,.023.864l-91.467,2.454c-.256-.008-5.582-.173-8.951,3.054a9.651,9.651,0,0,0-2.763,7.234l.727,49.529a.432.432,0,0,1-.426.438Z" transform="translate(-524.897 -606.372)" fill="#91b3fa"/>
        </g>
        <g id="Group_1746" data-name="Group 1746" transform="translate(22.542 18.683)" opacity="0.22">
          <path id="Path_4957" data-name="Path 4957" d="M577.753,781.831c.307-13.182.193-129.908-.564-139.989s14.944-11.972,39.049-13.106,227.489-5.626,232.726-6.051c11.771-.954,14.207,16.64,13.03,54.835-.884,28.7-2.351,75.967-3.026,97.706A12,12,0,0,1,847,786.851c-48.943.135-236.525.672-249.013,1.044C583.618,788.323,577.631,787.058,577.753,781.831Z" transform="translate(-577.163 -622.647)" fill="#10b5df"/>
        </g>
      </g>
      <rect id="Rectangle_409" data-name="Rectangle 409" width="360.416" height="15.436" rx="7.505" transform="translate(0 191.31)" fill="#10b5df"/>
    </g>
    <g id="Group_1749" data-name="Group 1749" transform="translate(427.583 172.008)">
      <path id="Path_4958" data-name="Path 4958" d="M1679.1,311.8l-70.386-.392a3.7,3.7,0,0,0-3.188,5.6l.354.589a3.693,3.693,0,0,0,3.167,1.793h70.033a3.7,3.7,0,0,0,3.7-3.695v-.2A3.7,3.7,0,0,0,1679.1,311.8Z" transform="translate(-1604.994 -311.413)" fill="#91b3fa"/>
      <path id="Path_4959" data-name="Path 4959" d="M2012.017,317.406v.115a3.694,3.694,0,0,0,3.694,3.695h15.626a3.7,3.7,0,0,0,3.569-2.741h0a3.7,3.7,0,0,0-3.543-4.648l-15.625-.115A3.7,3.7,0,0,0,2012.017,317.406Z" transform="translate(-1928.077 -313.237)" fill="#91b3fa"/>
    </g>
    <g id="Group_1750" data-name="Group 1750" transform="translate(427.583 185.27)">
      <path id="Path_4960" data-name="Path 4960" d="M1662.17,376.115l-53.455-.392a3.7,3.7,0,0,0-3.188,5.6l.354.589a3.693,3.693,0,0,0,3.167,1.793h53.1a3.7,3.7,0,0,0,3.695-3.695v-.2A3.7,3.7,0,0,0,1662.17,376.115Z" transform="translate(-1604.994 -375.723)" fill="#91b3fa"/>
      <path id="Path_4961" data-name="Path 4961" d="M1929.917,381.716v.114a3.7,3.7,0,0,0,3.7,3.695h15.625a3.7,3.7,0,0,0,3.569-2.741h0a3.7,3.7,0,0,0-3.543-4.648l-15.625-.114A3.7,3.7,0,0,0,1929.917,381.716Z" transform="translate(-1862.908 -377.547)" fill="#91b3fa"/>
    </g>
    <path id="Path_4962" data-name="Path 4962" d="M919.574,228.388H844.391a32.268,32.268,0,1,0,.437,14.021h37.225v8.112a5.508,5.508,0,0,0,5.508,5.508h.2a5.508,5.508,0,0,0,5.508-5.508v-8.112h14.021v12.518a5.508,5.508,0,0,0,5.508,5.508h.2a5.508,5.508,0,0,0,5.508-5.508V242.408h1.068a6.943,6.943,0,0,0,6.944-6.944v-.133A6.944,6.944,0,0,0,919.574,228.388ZM813.147,256.3a19.9,19.9,0,1,1,19.9-19.9A19.9,19.9,0,0,1,813.147,256.3Z" transform="translate(-523.27 -54.264)" fill="url(#linear-gradient-6)"/>
    <g id="Group_1753" data-name="Group 1753" transform="translate(222.925 243.648)">
      <g id="Group_1751" data-name="Group 1751" transform="translate(6.697 10.37)">
        <path id="Path_4963" data-name="Path 4963" d="M712.151,831.67a1.725,1.725,0,0,1-1.283-.493,1.745,1.745,0,0,1-.537-1.266v-6.236a5.641,5.641,0,0,0-5.617-5.644V799.427a5.655,5.655,0,0,0-5.649-5.648H680.733v3.889h18.332a1.762,1.762,0,0,1,1.76,1.759v18.655l-50.065.705a1.794,1.794,0,0,1-1.26-.507,1.746,1.746,0,0,1-.524-1.253V757.268h-3.889v59.759a5.649,5.649,0,0,0,5.728,5.648l53.843-.758a1.808,1.808,0,0,1,1.26.506,1.748,1.748,0,0,1,.524,1.253v6.236a5.649,5.649,0,0,0,5.642,5.648c.067,0,.134,0,.2,0l21.229-.732-.134-3.886Z" transform="translate(-645.087 -747.33)" fill="url(#linear-gradient-7)"/>
        <path id="Path_4964" data-name="Path 4964" d="M723.423,1153a5.675,5.675,0,0,0-5.552,5.647,1.762,1.762,0,0,1-1.76,1.76H694.323v3.889h21.789a5.655,5.655,0,0,0,5.648-5.649,1.768,1.768,0,0,1,1.729-1.759l46.912-.8-.066-3.888Z" transform="translate(-684.169 -1060.817)" fill="url(#linear-gradient-8)"/>
        <path id="Path_4965" data-name="Path 4965" d="M809.747,1197.656v2.1a1.762,1.762,0,0,1-1.76,1.76H774.349a5.655,5.655,0,0,0-5.649,5.648v7.575a5.65,5.65,0,0,0,5.642,5.649c.072,0,.144,0,.216,0l19.491-.722-.144-3.886-19.491.722a1.76,1.76,0,0,1-1.825-1.759v-7.575a1.761,1.761,0,0,1,1.76-1.759h33.639a5.655,5.655,0,0,0,5.648-5.649v-2.1a1.762,1.762,0,0,1,1.76-1.76h14.011v-3.888H815.4A5.655,5.655,0,0,0,809.747,1197.656Z" transform="translate(-743.207 -1092.414)" fill="url(#linear-gradient-9)"/>
        <path id="Path_4966" data-name="Path 4966" d="M815.518,772.457h.035c7.132-.033,20.027-.08,26.263-.013a1.765,1.765,0,0,1,1.738,1.76v39.73a5.655,5.655,0,0,0,5.648,5.648h11.419v-3.888H849.2a1.762,1.762,0,0,1-1.76-1.76V774.2a5.666,5.666,0,0,0-5.585-5.648c-6.264-.068-19.181-.021-26.324.013h-.017a3.584,3.584,0,0,1-3.575-3.542c-.028-2.992-.051-7.167,0-10.064a1.752,1.752,0,0,1,1.638-1.726l21.68-1.5-.267-3.879-21.679,1.5a5.619,5.619,0,0,0-5.259,5.534c-.054,2.942-.031,7.156,0,10.172A7.479,7.479,0,0,0,815.518,772.457Z" transform="translate(-774.422 -739.864)" fill="url(#linear-gradient-10)"/>
        <path id="Path_4967" data-name="Path 4967" d="M1475.02,786.985a5.639,5.639,0,0,0,5.038-5.615V750.747a1.768,1.768,0,0,1,1.511-1.742l8.762-1.252a5.675,5.675,0,0,0,4.85-5.591V709.079h-3.888v33.082a1.769,1.769,0,0,1-1.511,1.742l-8.762,1.252a5.676,5.676,0,0,0-4.85,5.592v30.623a1.757,1.757,0,0,1-1.569,1.749l-16.572,1.8.42,3.866Z" transform="translate(-1290.375 -709.079)" fill="url(#linear-gradient-11)"/>
        <path id="Path_4968" data-name="Path 4968" d="M1518.458,913.2V898.371a1.766,1.766,0,0,1,1.744-1.76l7.1-.063a5.636,5.636,0,0,0,5.595-5.458l1.547-46.013-3.887-.131-1.546,46.013a1.756,1.756,0,0,1-1.743,1.7l-7.1.064a5.666,5.666,0,0,0-5.6,5.648v14.781l-2.919-.039a5.649,5.649,0,0,0-5.722,5.648v28.789a1.747,1.747,0,0,1-.524,1.252,1.766,1.766,0,0,1-1.259.507l-26.294-.337a1.767,1.767,0,0,1-1.737-1.759V926.49a5.655,5.655,0,0,0-5.649-5.648h-11.419v3.889h11.419a1.762,1.762,0,0,1,1.76,1.76v20.724a5.67,5.67,0,0,0,5.576,5.648l26.294.337h.074a5.648,5.648,0,0,0,5.646-5.648V918.761A1.76,1.76,0,0,1,1511.6,917l29.085.383.051-3.889Z" transform="translate(-1291.184 -816.926)" fill="url(#linear-gradient-12)"/>
        <path id="Path_4969" data-name="Path 4969" d="M1486.546,1069.231l.379,27.745,3.888-.053-.382-27.911,10.608-.6a5.652,5.652,0,0,0,5.329-5.639V1046.4h-3.889v16.375a1.761,1.761,0,0,1-1.66,1.757l-42.305,2.395.22,3.882Z" transform="translate(-1290.761 -976.831)" fill="url(#linear-gradient-13)"/>
      </g>
      <g id="Group_1752" data-name="Group 1752" transform="translate(0 0)">
        <path id="Path_4970" data-name="Path 4970" d="M1787.481,786.672l-8.8,1.686a4.023,4.023,0,0,0-3.267,3.951v10.575a4.023,4.023,0,0,0,4.023,4.023h8.8a4.023,4.023,0,0,0,4.023-4.023v-12.26A4.023,4.023,0,0,0,1787.481,786.672Z" transform="translate(-1535.609 -760.243)" fill="url(#linear-gradient-14)"/>
        <path id="Path_4971" data-name="Path 4971" d="M1601.014,658.869l-8.8,1.686a4.023,4.023,0,0,0-3.266,3.951v10.575a4.023,4.023,0,0,0,4.023,4.023h8.8a4.023,4.023,0,0,0,4.023-4.023V662.82A4.023,4.023,0,0,0,1601.014,658.869Z" transform="translate(-1387.598 -658.796)" fill="url(#linear-gradient-15)"/>
        <path id="Path_4972" data-name="Path 4972" d="M1833.574,1136.561l-8.8,1.685a4.024,4.024,0,0,0-3.267,3.952v10.574a4.024,4.024,0,0,0,4.023,4.023h8.8a4.023,4.023,0,0,0,4.023-4.023v-12.26A4.023,4.023,0,0,0,1833.574,1136.561Z" transform="translate(-1572.196 -1037.974)" fill="url(#linear-gradient-16)"/>
        <path id="Path_4973" data-name="Path 4973" d="M624.68,709.153l-8.8,1.685a4.023,4.023,0,0,0-3.267,3.951v10.575a4.023,4.023,0,0,0,4.023,4.023h8.8a4.023,4.023,0,0,0,4.023-4.023V713.1A4.023,4.023,0,0,0,624.68,709.153Z" transform="translate(-612.612 -698.71)" fill="url(#linear-gradient-17)"/>
        <path id="Path_4974" data-name="Path 4974" d="M790.2,895.62l-8.8,1.685a4.023,4.023,0,0,0-3.266,3.951v10.575a4.023,4.023,0,0,0,4.023,4.023h8.8a4.023,4.023,0,0,0,4.023-4.023v-12.26A4.023,4.023,0,0,0,790.2,895.62Z" transform="translate(-743.994 -846.722)" fill="url(#linear-gradient-18)"/>
        <path id="Path_4975" data-name="Path 4975" d="M651.917,1153.322l-8.8,1.685a4.024,4.024,0,0,0-3.266,3.951v10.575a4.024,4.024,0,0,0,4.023,4.023h8.8a4.023,4.023,0,0,0,4.023-4.023v-12.26A4.023,4.023,0,0,0,651.917,1153.322Z" transform="translate(-634.232 -1051.278)" fill="url(#linear-gradient-19)"/>
        <path id="Path_4976" data-name="Path 4976" d="M1577.967,1241.317l-8.8,1.686a4.023,4.023,0,0,0-3.267,3.951v10.575a4.023,4.023,0,0,0,4.024,4.023h8.8a4.023,4.023,0,0,0,4.023-4.023v-12.26A4.023,4.023,0,0,0,1577.967,1241.317Z" transform="translate(-1369.303 -1121.126)" fill="url(#linear-gradient-20)"/>
        <path id="Path_4977" data-name="Path 4977" d="M871.906,1260.173l-8.8,1.685a4.023,4.023,0,0,0-3.266,3.951v10.575a4.023,4.023,0,0,0,4.023,4.023h8.8a4.023,4.023,0,0,0,4.023-4.023v-12.261A4.023,4.023,0,0,0,871.906,1260.173Z" transform="translate(-808.853 -1136.093)" fill="url(#linear-gradient-21)"/>
        <path id="Path_4978" data-name="Path 4978" d="M911.715,709.153l-8.8,1.685a4.023,4.023,0,0,0-3.266,3.951v10.575a4.023,4.023,0,0,0,4.023,4.023h8.8a4.023,4.023,0,0,0,4.023-4.023V713.1A4.023,4.023,0,0,0,911.715,709.153Z" transform="translate(-840.451 -698.71)" fill="url(#linear-gradient-22)"/>
        <path id="Path_4979" data-name="Path 4979" d="M1651.3,975.235l-8.8,1.686a4.023,4.023,0,0,0-3.266,3.951v10.574a4.023,4.023,0,0,0,4.023,4.023h8.8a4.023,4.023,0,0,0,4.023-4.023v-12.26A4.023,4.023,0,0,0,1651.3,975.235Z" transform="translate(-1427.51 -909.918)" fill="url(#linear-gradient-23)"/>
      </g>
    </g>
    <g id="Group_1755" data-name="Group 1755" transform="translate(309.595 257.907)">
      <g id="Group_1754" data-name="Group 1754" transform="translate(0 0)">
        <path id="Path_4980" data-name="Path 4980" d="M1082.563,796.958h-9.413v-37.51a29.2,29.2,0,0,1,25.654-28.96l19.245-2.339a29.174,29.174,0,0,1,32.693,28.96v32.747h-9.412V757.109a19.761,19.761,0,0,0-22.145-19.617l-19.245,2.339a19.779,19.779,0,0,0-17.377,19.616Z" transform="translate(-1064.844 -727.936)" fill="url(#linear-gradient-24)"/>
        <path id="Path_4981" data-name="Path 4981" d="M1038.4,1004.157l82.51-4.571a5.846,5.846,0,0,1,6.17,5.838v65.366a5.846,5.846,0,0,1-5.846,5.847H1040.7a5.847,5.847,0,0,1-5.844-5.656l-1.983-60.795A5.847,5.847,0,0,1,1038.4,1004.157Z" transform="translate(-1032.874 -943.556)" fill="url(#linear-gradient-25)"/>
        <path id="Path_4982" data-name="Path 4982" d="M1221.9,1119.024l-4.994-14.357a4.809,4.809,0,0,1,1.093-4.957,13.6,13.6,0,1,0-18.238,1.014,4.847,4.847,0,0,1,1.574,5.355l-4.5,12.945a4.845,4.845,0,0,0,4.576,6.437h15.916A4.845,4.845,0,0,0,1221.9,1119.024Z" transform="translate(-1161.345 -1004.67)" fill="url(#linear-gradient-26)"/>
      </g>
    </g>
    <g id="Group_1757" data-name="Group 1757" transform="translate(173.729 261.093)">
      <path id="Path_4983" data-name="Path 4983" d="M453.233,1288.135a.675.675,0,0,0-.018-.178c-.89-3.526-5.3-5.723-5.3-5.723l-1.749.137a12.133,12.133,0,0,0-.715,5.864c0,.023.012.046.018.069A41.487,41.487,0,0,0,453.233,1288.135Z" transform="translate(-430.637 -1171.108)" fill="url(#linear-gradient-27)"/>
      <path id="Path_4984" data-name="Path 4984" d="M445.959,1311.02a.756.756,0,0,0,.555.56,23.963,23.963,0,0,0,6.686-.094.636.636,0,0,0,.528-.635A41.525,41.525,0,0,1,445.959,1311.02Z" transform="translate(-431.133 -1193.823)" fill="url(#linear-gradient-28)"/>
      <path id="Path_4985" data-name="Path 4985" d="M397.774,1008.136a16.28,16.28,0,0,1-3.791,2.771,31.48,31.48,0,0,0,6.929,6.162l.857,1.924,2.746-3.292A14.91,14.91,0,0,1,397.774,1008.136Z" transform="translate(-389.875 -953.537)" fill="url(#linear-gradient-29)"/>
      <path id="Path_4986" data-name="Path 4986" d="M445.928,1270.264l.741,3.567a.583.583,0,0,0,.5.48,4.96,4.96,0,0,0,1.148-.018.733.733,0,0,0,.581-.862l-.515-3.167Z" transform="translate(-431.108 -1161.606)" fill="url(#linear-gradient-30)"/>
      <path id="Path_4987" data-name="Path 4987" d="M507.1,1309.6a10.456,10.456,0,0,1-3.448-.493c0,.192,0,.387.006.59a.382.382,0,0,0,.364.388l10.609-.069a.485.485,0,0,0,.39-.705C513.627,1309.425,510.084,1309.682,507.1,1309.6Z" transform="translate(-476.925 -1192.438)" fill="url(#linear-gradient-31)"/>
      <path id="Path_4988" data-name="Path 4988" d="M515.02,1290.09a.5.5,0,0,0-.042-.08,13.518,13.518,0,0,0-8.039-5.046l-2.262-.072a10.854,10.854,0,0,0-1.026,4.994,10.454,10.454,0,0,0,3.448.493C510.086,1290.462,513.629,1290.2,515.02,1290.09Z" transform="translate(-476.927 -1173.218)" fill="url(#linear-gradient-32)"/>
      <path id="Path_4989" data-name="Path 4989" d="M506.593,1266.158c.025.168.335,2.731.455,3.724a.493.493,0,0,0,.415.445,5.192,5.192,0,0,0,1.554-.024.67.67,0,0,0,.507-.672v-4.022Z" transform="translate(-479.262 -1157.911)" fill="url(#linear-gradient-33)"/>
      <path id="Path_4990" data-name="Path 4990" d="M442.47,1041.494a201.406,201.406,0,0,1,5.357,46.827,1.01,1.01,0,0,1-.8.984,11.732,11.732,0,0,1-2.529.293.937.937,0,0,1-.893-.783c-.765-4.486-5.155-29.76-7.657-33.863,0,0-1.646,22.51-1.12,34.188a.554.554,0,0,1-.488.576,9.323,9.323,0,0,1-2.031-.006.741.741,0,0,1-.66-.629c-.545-3.8-3.681-26.4-3.548-42.678.008-.918,2.428-4.91,2.428-4.91Z" transform="translate(-416.954 -980.015)" fill="url(#linear-gradient-34)"/>
      <path id="Path_4991" data-name="Path 4991" d="M417.423,824.988c-2.4,4.458-6.37,9.007-12.839,10.226-5.971,1.125-16.694,2.516-21,3.059a5.281,5.281,0,0,0-3.336,1.791c-3.387,3.92-10.82,14.652-2.071,25.466a16.306,16.306,0,0,0,3.791-2.771c-.968-2.728-1.047-6.215.981-10.491a9.975,9.975,0,0,0,.259,1,62.217,62.217,0,0,1,2.939,17.927.561.561,0,0,0,.352.524c3.68,1.474,10.763.6,13.141.243a.8.8,0,0,0,.669-.908c-1.167-8.454,4.822-22.362,6.4-25.845a2.31,2.31,0,0,1,1.149-1.15c9.046-4.092,12.978-10.391,14.572-16.066A8.652,8.652,0,0,0,417.423,824.988Z" transform="translate(-374.065 -808.159)" fill="url(#linear-gradient-35)"/>
      <path id="Path_4992" data-name="Path 4992" d="M589.311,790.17a27.466,27.466,0,0,0,.429-12.838H587.68a33.372,33.372,0,0,1-3.375,9.828A8.654,8.654,0,0,1,589.311,790.17Z" transform="translate(-540.947 -770.331)" fill="url(#linear-gradient-36)"/>
      <path id="Path_4993" data-name="Path 4993" d="M595.252,751.484s-3.137-4.064-2.118-6.18,4.514-1.911,4.514-1.911l.49,1.659a2.089,2.089,0,0,1-.049,1.329l-1.931,5.1Z" transform="translate(-547.794 -743.387)" fill="url(#linear-gradient-37)"/>
      <path id="Path_4994" data-name="Path 4994" d="M448.311,849.182l-.709,7.245s4.076,1.228,7.041-.864l-2.084-6.585Z" transform="translate(-432.437 -827.202)" fill="url(#linear-gradient-38)"/>
      <g id="Group_1756" data-name="Group 1756" transform="translate(12.552 10.133)">
        <path id="Path_4995" data-name="Path 4995" d="M453.228,808.749c.1.092,4.14,8.03,4.14,8.03l-4.581,2.211-4.949-6.954S451.586,807.2,453.228,808.749Z" transform="translate(-445.176 -805.159)" fill="url(#linear-gradient-39)"/>
        <path id="Path_4996" data-name="Path 4996" d="M439.618,799.589a.732.732,0,0,0,.055.642l2.285,3.809a.7.7,0,0,0,.125.156,1.2,1.2,0,0,0,1.922-.013,6.438,6.438,0,0,1,1.805-1.952.73.73,0,0,1,.986.324,27.256,27.256,0,0,1,1.564,3.709.727.727,0,0,1-.423.892,20.293,20.293,0,0,1-4.388,1.28.731.731,0,0,1-.691-.294c-.7-.959-2.673-3.639-3.346-4.309-.626-.623-1.78-.388-2.3-.239a.733.733,0,0,1-.584-.077,1.61,1.61,0,0,1-.606-2.45.731.731,0,0,0-.226-.994,1.617,1.617,0,0,1-.619-2.294,2.278,2.278,0,0,1,2.468-1.208.759.759,0,0,0,.8-.443.483.483,0,0,1,.377-.3.709.709,0,0,0,.574-.833,1.872,1.872,0,0,1,1.045-2.145c1.977-1.087,3.708.684,4.148,2.179s-1.77,2.552-3.16,2.728C440.4,797.891,439.844,799.006,439.618,799.589Z" transform="translate(-434.929 -792.519)" fill="url(#linear-gradient-40)"/>
        <path id="Path_4997" data-name="Path 4997" d="M448.475,844.617s-.879-2.572-2-2.478-2.01,1.215-.616,2.475C447.589,846.182,448.475,844.617,448.475,844.617Z" transform="translate(-443.034 -831.904)" fill="url(#linear-gradient-41)"/>
      </g>
      <path id="Path_4998" data-name="Path 4998" d="M411.325,919.378a22.915,22.915,0,0,1-.939-9.009l.409.047a22.46,22.46,0,0,0,.917,8.821Z" transform="translate(-402.816 -875.933)" fill="url(#linear-gradient-42)"/>
      <path id="Path_4999" data-name="Path 4999" d="M449.108,1087.944a.205.205,0,0,1-.2-.154c-.452-1.745-3.84-3.662-3.874-3.682a.206.206,0,1,1,.2-.358c.146.082,3.575,2.023,4.071,3.938a.206.206,0,0,1-.148.251A.2.2,0,0,1,449.108,1087.944Z" transform="translate(-430.315 -1013.536)" fill="url(#linear-gradient-43)"/>
    </g>
    <g id="Group_1760" data-name="Group 1760" transform="translate(494.138 189.165)">
      <path id="Path_5000" data-name="Path 5000" d="M2115.137,412.265l-2.137-.487a1.813,1.813,0,0,1-1.273-1.091,19.312,19.312,0,0,0-2.121-3.872,1.818,1.818,0,0,1-.234-1.662l.744-2.065a2.17,2.17,0,0,0-.681-2.423l-2.152-1.731a2.167,2.167,0,0,0-2.513-.146l-1.858,1.168a1.814,1.814,0,0,1-1.673.128,19.361,19.361,0,0,0-4.237-1.242,1.814,1.814,0,0,1-1.338-1.01l-.933-1.983a2.17,2.17,0,0,0-2.2-1.232l-2.745.3a2.169,2.169,0,0,0-1.88,1.674l-.487,2.138a1.812,1.812,0,0,1-1.09,1.273,19.345,19.345,0,0,0-3.873,2.121,1.813,1.813,0,0,1-1.662.233l-2.065-.743a2.168,2.168,0,0,0-2.423.681l-1.731,2.152a2.171,2.171,0,0,0-.146,2.513l1.169,1.857a1.814,1.814,0,0,1,.128,1.674,19.391,19.391,0,0,0-1.242,4.237,1.811,1.811,0,0,1-1.008,1.338l-1.984.934a2.167,2.167,0,0,0-1.231,2.2l.3,2.746a2.167,2.167,0,0,0,1.674,1.88l2.138.487a1.811,1.811,0,0,1,1.272,1.09,19.315,19.315,0,0,0,2.121,3.873,1.81,1.81,0,0,1,.233,1.662l-.743,2.065a2.167,2.167,0,0,0,.682,2.423l2.152,1.731a2.168,2.168,0,0,0,2.513.146l1.858-1.168a1.813,1.813,0,0,1,1.673-.128,19.354,19.354,0,0,0,4.237,1.242,1.81,1.81,0,0,1,1.337,1.01l.935,1.983a2.168,2.168,0,0,0,2.2,1.232l2.745-.3a2.168,2.168,0,0,0,1.881-1.674l.487-2.138a1.815,1.815,0,0,1,1.091-1.273,19.321,19.321,0,0,0,3.872-2.121,1.814,1.814,0,0,1,1.662-.233l2.065.743a2.168,2.168,0,0,0,2.423-.681l1.731-2.152a2.169,2.169,0,0,0,.145-2.513l-1.168-1.858a1.815,1.815,0,0,1-.128-1.674,19.333,19.333,0,0,0,1.242-4.237,1.813,1.813,0,0,1,1.01-1.338l1.983-.934a2.169,2.169,0,0,0,1.232-2.2l-.3-2.745A2.169,2.169,0,0,0,2115.137,412.265Zm-18.118,21.5a16.069,16.069,0,1,1,12.386-19.054A16.069,16.069,0,0,1,2097.019,433.762Zm6.917-15.912a10.418,10.418,0,1,1-10.417-10.417A10.417,10.417,0,0,1,2103.936,417.85Z" transform="translate(-2040.855 -394.605)" fill="#7d97f4"/>
      <g id="Group_1758" data-name="Group 1758" transform="translate(46.576 44.658)">
        <path id="Path_5001" data-name="Path 5001" d="M2186.16,623.977l-1.551-.353a1.314,1.314,0,0,1-.925-.792,14.075,14.075,0,0,0-1.541-2.812,1.32,1.32,0,0,1-.169-1.207l.54-1.5a1.574,1.574,0,0,0-.5-1.76l-1.562-1.257a1.574,1.574,0,0,0-1.825-.106l-1.349.848a1.317,1.317,0,0,1-1.215.093,14.041,14.041,0,0,0-3.077-.9,1.318,1.318,0,0,1-.972-.733l-.678-1.441a1.572,1.572,0,0,0-1.593-.894l-1.994.216a1.575,1.575,0,0,0-1.366,1.215l-.353,1.553a1.32,1.32,0,0,1-.792.924,14.037,14.037,0,0,0-2.813,1.54,1.319,1.319,0,0,1-1.208.17l-1.5-.539a1.575,1.575,0,0,0-1.76.495l-1.256,1.563a1.572,1.572,0,0,0-.106,1.825l.848,1.349a1.319,1.319,0,0,1,.094,1.215,14.039,14.039,0,0,0-.9,3.077,1.319,1.319,0,0,1-.734.972l-1.44.678a1.574,1.574,0,0,0-.894,1.594l.215,1.994a1.576,1.576,0,0,0,1.217,1.365l1.552.354a1.318,1.318,0,0,1,.923.792,14.112,14.112,0,0,0,1.54,2.812,1.317,1.317,0,0,1,.17,1.207l-.539,1.5a1.575,1.575,0,0,0,.494,1.76l1.563,1.257a1.575,1.575,0,0,0,1.825.106l1.348-.849a1.318,1.318,0,0,1,1.215-.093,14.063,14.063,0,0,0,3.078.9,1.312,1.312,0,0,1,.971.733l.678,1.44a1.575,1.575,0,0,0,1.594.895l1.995-.216a1.575,1.575,0,0,0,1.365-1.216l.354-1.552a1.316,1.316,0,0,1,.792-.924,14.021,14.021,0,0,0,2.811-1.541,1.32,1.32,0,0,1,1.208-.17l1.5.54a1.572,1.572,0,0,0,1.759-.495l1.257-1.563a1.574,1.574,0,0,0,.106-1.825l-.847-1.349a1.315,1.315,0,0,1-.094-1.215,13.989,13.989,0,0,0,.9-3.077,1.316,1.316,0,0,1,.732-.972l1.442-.678a1.574,1.574,0,0,0,.894-1.594l-.216-1.994A1.574,1.574,0,0,0,2186.16,623.977ZM2173,639.589A11.67,11.67,0,1,1,2182,625.751,11.671,11.671,0,0,1,2173,639.589Zm5.933-11.9a8.354,8.354,0,1,1-8.354-8.354A8.354,8.354,0,0,1,2178.936,627.686Z" transform="translate(-2153.562 -611.152)" fill="#7d97f4"/>
      </g>
      <g id="Group_1759" data-name="Group 1759" transform="translate(0 37.907)">
        <path id="Path_5002" data-name="Path 5002" d="M1969.137,608.276l-1.333-1.593a1.72,1.72,0,0,1-.335-1.554,18.351,18.351,0,0,0,.621-4.139,1.716,1.716,0,0,1,.777-1.388l1.746-1.133a2.056,2.056,0,0,0,.875-2.219l-.632-2.541a2.055,2.055,0,0,0-1.813-1.551l-2.071-.184a1.721,1.721,0,0,1-1.337-.863,18.353,18.353,0,0,0-2.486-3.368,1.719,1.719,0,0,1-.43-1.529l.432-2.033a2.054,2.054,0,0,0-.95-2.188l-2.243-1.35a2.055,2.055,0,0,0-2.379.185l-1.593,1.334a1.719,1.719,0,0,1-1.554.335,18.349,18.349,0,0,0-4.139-.62,1.72,1.72,0,0,1-1.388-.777l-1.133-1.745a2.056,2.056,0,0,0-2.22-.876l-2.541.631a2.055,2.055,0,0,0-1.551,1.813l-.184,2.072a1.719,1.719,0,0,1-.862,1.337,18.3,18.3,0,0,0-3.368,2.486,1.719,1.719,0,0,1-1.529.431l-2.033-.433a2.055,2.055,0,0,0-2.188.95l-1.35,2.243a2.055,2.055,0,0,0,.185,2.379l1.334,1.593a1.719,1.719,0,0,1,.335,1.553,18.3,18.3,0,0,0-.62,4.14,1.721,1.721,0,0,1-.778,1.388l-1.745,1.133a2.055,2.055,0,0,0-.875,2.22l.631,2.54a2.055,2.055,0,0,0,1.813,1.552l2.072.184a1.721,1.721,0,0,1,1.336.863,18.443,18.443,0,0,0,2.486,3.368,1.717,1.717,0,0,1,.432,1.529l-.433,2.033a2.056,2.056,0,0,0,.95,2.189l2.243,1.349a2.055,2.055,0,0,0,2.379-.185l1.593-1.334a1.72,1.72,0,0,1,1.554-.335,18.358,18.358,0,0,0,4.139.62,1.718,1.718,0,0,1,1.389.777l1.133,1.745a2.055,2.055,0,0,0,2.22.876l2.54-.631a2.056,2.056,0,0,0,1.552-1.813l.184-2.072a1.721,1.721,0,0,1,.863-1.337,18.343,18.343,0,0,0,3.368-2.486,1.721,1.721,0,0,1,1.53-.431l2.032.433a2.054,2.054,0,0,0,2.188-.95l1.35-2.243A2.054,2.054,0,0,0,1969.137,608.276Zm-26,5.833a15.233,15.233,0,1,1,20.277-7.277A15.233,15.233,0,0,1,1943.132,614.109Z" transform="translate(-1927.718 -578.417)" fill="#7d97f4"/>
      </g>
    </g>
    <g id="Group_1762" data-name="Group 1762" transform="translate(148.313 377.777)">
      <path id="Path_5003" data-name="Path 5003" d="M333.643,1355.664h-78.3c-2.5,0-4.521-1.109-4.521-2.476v-41.411c0-1.365,2.017-2.473,4.509-2.476l78.924-.116c2.511,0,4.546,1.114,4.533,2.49l-.626,41.527C338.151,1354.563,336.131,1355.664,333.643,1355.664Z" transform="translate(-250.824 -1309.184)" fill="#7d97f4"/>
      <path id="Path_5004" data-name="Path 5004" d="M346.788,1324.554l-70.011.236c-2.531.009-4.571,1.138-4.559,2.524l.489,34.829c.011,1.365,2.011,2.476,4.5,2.5l68.025.68c2.541.026,4.635-1.085,4.67-2.477l1.5-35.745C351.439,1325.694,349.358,1324.545,346.788,1324.554Z" transform="translate(-267.806 -1321.384)" fill="#91b3fa"/>
      <path id="Path_5005" data-name="Path 5005" d="M401.814,1337.323v.264c0,.415-.614.752-1.372.752H346.5c-.758,0-1.372-.337-1.372-.752v-.264c0-.415.614-.752,1.372-.752h53.944C401.2,1336.571,401.814,1336.908,401.814,1337.323Z" transform="translate(-325.678 -1330.923)" fill="#bdd0fb"/>
      <path id="Path_5006" data-name="Path 5006" d="M398.684,1353.292h0c-.039.393-.626.7-1.345.711l-47.176.471c-.768.007-1.4-.331-1.4-.752v-.062c0-.41.6-.745,1.35-.751l47.176-.41C398.087,1352.492,398.727,1352.857,398.684,1353.292Z" transform="translate(-328.567 -1343.566)" fill="#bdd0fb"/>
      <g id="Group_1761" data-name="Group 1761" transform="translate(7 12.171)">
        <path id="Path_5007" data-name="Path 5007" d="M352.7,1398.506h-.048l-63.808-.419a4.912,4.912,0,0,1-3.466-1.222,2.032,2.032,0,0,1-.612-1.491l1.643-24.616c.051-1.471,1.845-2.58,4.194-2.558l63.7.679a4.905,4.905,0,0,1,3.44,1.224,2.033,2.033,0,0,1,.61,1.485c0,.009,0,.018,0,.026l-1.531,24.329C356.775,1397.4,355.007,1398.506,352.7,1398.506Zm-62.173-28.579c-1.533,0-2.382.647-2.391.917l-1.643,24.616c0,.057.092.165.133.207a3.319,3.319,0,0,0,2.23.69l63.808.42h.036c1.535,0,2.384-.649,2.392-.917l1.531-24.335a.437.437,0,0,0-.131-.228,3.305,3.305,0,0,0-2.21-.69l-63.7-.679Zm66.96,1.632h0Z" transform="translate(-284.769 -1368.199)" fill="#bdd0fb"/>
      </g>
      <path id="Path_5008" data-name="Path 5008" d="M362.586,1392.933H293.094a.864.864,0,1,1,0-1.728h69.492a.864.864,0,1,1,0,1.728Z" transform="translate(-283.691 -1374.29)" fill="#bdd0fb"/>
    </g>
    <g id="Group_1763" data-name="Group 1763" transform="translate(192.817 393.147)">
      <path id="Path_5009" data-name="Path 5009" d="M557.615,1414.823H471.59c-2.743,0-4.967-.742-4.967-1.657v-27.718c0-.913,2.216-1.654,4.953-1.657l86.714-.078c2.759,0,4.995.746,4.98,1.667l-.688,27.795C562.568,1414.086,560.348,1414.823,557.615,1414.823Z" transform="translate(-466.623 -1383.713)" fill="#7d97f4"/>
      <path id="Path_5010" data-name="Path 5010" d="M572.058,1394l-76.921.158c-2.78.006-5.022.761-5.009,1.689l.537,23.312c.013.914,2.21,1.657,4.948,1.674l74.738.455c2.791.017,5.092-.726,5.131-1.658l1.646-23.925C577.168,1394.763,574.881,1393.994,572.058,1394Z" transform="translate(-485.281 -1391.878)" fill="#bdd0fb"/>
      <path id="Path_5011" data-name="Path 5011" d="M632.513,1402.547v.177c0,.278-.675.5-1.508.5H571.739c-.833,0-1.508-.225-1.508-.5v-.177c0-.278.675-.5,1.508-.5h59.267C631.838,1402.044,632.513,1402.269,632.513,1402.547Z" transform="translate(-548.864 -1398.264)" fill="url(#linear-gradient)"/>
      <path id="Path_5012" data-name="Path 5012" d="M629.074,1413.235h0c-.043.263-.688.471-1.478.476l-51.832.315c-.844.005-1.535-.222-1.535-.5v-.041c0-.275.661-.5,1.484-.5l51.832-.274C628.419,1412.7,629.121,1412.944,629.074,1413.235Z" transform="translate(-552.037 -1406.726)" fill="url(#linear-gradient)"/>
      <path id="Path_5013" data-name="Path 5013" d="M578.883,1442.682h-.047l-70.105-.281c-.7,0-3.042-.091-4-1.108a1.353,1.353,0,0,1-.4-1.022c0-.015,0-.03,0-.045l1.8-16.44c.113-1.466,2.5-1.981,4.516-1.959l69.983.454c.691,0,3.019.1,3.971,1.108a1.355,1.355,0,0,1,.4,1.018c0,.014,0,.029,0,.043l-1.682,16.283C583.247,1442.162,580.895,1442.682,578.883,1442.682Zm-72.8-2.5a5.739,5.739,0,0,0,2.656.495l70.105.281h.041a5.7,5.7,0,0,0,2.733-.519l1.644-15.931a5.705,5.705,0,0,0-2.633-.5l-69.983-.455a5.771,5.771,0,0,0-2.8.519Zm75.523.374c0,.015,0,.03,0,.046Zm2.54-16.192h0Zm-76.281-.45h0Z" transform="translate(-496.555 -1413.966)" fill="url(#linear-gradient)"/>
      <path id="Path_5014" data-name="Path 5014" d="M589.743,1438.953h-76.35a.864.864,0,0,1,0-1.729h76.35a.864.864,0,0,1,0,1.729Z" transform="translate(-503.062 -1426.189)" fill="url(#linear-gradient)"/>
    </g>
    <g id="Group_1767" data-name="Group 1767" transform="translate(484.462 344.341)">
      <g id="Group_1766" data-name="Group 1766">
        <path id="Path_5015" data-name="Path 5015" d="M1996,1180.047c-.064.12-4.083,3.079-4.083,3.079s.888,6.35,4.492,8.857c3.963,2.757,9.56-2.271,9.56-2.271s4.454,1.058,6.822-8.213c.543-2.127-2.594-2.307-6.379-1.915C2001.527,1180.089,1996,1180.047,1996,1180.047Z" transform="translate(-1968.999 -1172.744)" fill="url(#linear-gradient-48)"/>
        <path id="Path_5016" data-name="Path 5016" d="M1949.261,1277.562a16.945,16.945,0,0,1,5.154-2.4c.692-.188,4.43.9,6.741.845,3.171-.073,6.4-1.516,9.015-.865a18.883,18.883,0,0,1,5.95,2.366c3.674,2.613,5.831,7.485,7.146,12.311a16.826,16.826,0,0,1-5.622,3.691l-.579,23.458-13.871,7.1-15.832-7.949.567-22.924s-5.028-2.342-5.4-3.193S1944.825,1280.611,1949.261,1277.562Z" transform="translate(-1929.776 -1248.594)" fill="url(#linear-gradient-49)"/>
        <path id="Path_5017" data-name="Path 5017" d="M1938.138,1347.333s-6.737,18.678,8.626,26.355c3.189-.424,1.962-5.722,1.962-5.722s-6.675-1.477-4.67-17.058A43.158,43.158,0,0,0,1938.138,1347.333Z" transform="translate(-1925.146 -1306.029)" fill="url(#linear-gradient-50)"/>
        <path id="Path_5018" data-name="Path 5018" d="M2096.955,1347.333s4.636,19.5-8.626,26.355c-3.19-.424-1.963-5.722-1.963-5.722s5.379-2.65,4.67-17.058A43.153,43.153,0,0,1,2096.955,1347.333Z" transform="translate(-2043.788 -1306.029)" fill="url(#linear-gradient-51)"/>
        <rect id="Rectangle_410" data-name="Rectangle 410" width="30.418" height="20.542" rx="8.334" transform="translate(17.405 48.428)" fill="url(#linear-gradient-52)"/>
        <g id="Group_1764" data-name="Group 1764" transform="translate(46.888 74.443)">
          <path id="Path_5019" data-name="Path 5019" d="M2129.672,1509.151c-3.481-.8-11.526-.369-11.526-.369l-.328.886-.541,4.4a91.594,91.594,0,0,0,11.438,1.378,3.568,3.568,0,0,0,1.06-.159c.116-.1.228-.211.334-.326A4.152,4.152,0,0,0,2129.672,1509.151Z" transform="translate(-2115.397 -1508.534)" fill="url(#linear-gradient-53)"/>
          <path id="Path_5020" data-name="Path 5020" d="M2108.6,1508.023l1.363.058a2.623,2.623,0,0,1,1.913.99,3.225,3.225,0,0,1,.7,2.209,2.535,2.535,0,0,1-.737,1.68,2.062,2.062,0,0,1-1.594.606l-2.084-.148Z" transform="translate(-2108.161 -1508.023)" fill="url(#linear-gradient-54)"/>
        </g>
        <g id="Group_1765" data-name="Group 1765" transform="translate(0 74.325)">
          <path id="Path_5021" data-name="Path 5021" d="M1882.315,1507.763c3.5-.692,11.532-.016,11.532-.016l.305.9.432,4.42a91.455,91.455,0,0,1-11.469,1.026,3.582,3.582,0,0,1-1.056-.191c-.112-.107-.223-.218-.326-.337A4.147,4.147,0,0,1,1882.315,1507.763Z" transform="translate(-1880.8 -1507.452)" fill="url(#linear-gradient-55)"/>
          <path id="Path_5022" data-name="Path 5022" d="M1939.676,1508.029l-1.364.017a2.605,2.605,0,0,0-1.937.93,3.209,3.209,0,0,0-.757,2.187,2.556,2.556,0,0,0,.695,1.7,2.075,2.075,0,0,0,1.578.655l2.087-.084Z" transform="translate(-1924.312 -1507.91)" fill="url(#linear-gradient-56)"/>
        </g>
        <path id="Path_5023" data-name="Path 5023" d="M1997.548,1430.838c-1.579-3.633-5.44-4.223-8.726-2.524-.057.075-20.87,10.741-39.224,15.416a19.956,19.956,0,0,1,.854,5.239q.015.589-.019,1.161c14.075-.723,29.351-5.417,42.477-9.542A7.255,7.255,0,0,0,1997.548,1430.838Z" transform="translate(-1935.41 -1369.587)" fill="url(#linear-gradient-57)"/>
        <path id="Path_5024" data-name="Path 5024" d="M1938.728,1447.335a12.1,12.1,0,0,1,1.184-5.671c.024-.08.053-.157.079-.237-1.048-.325-2.4-.764-4.181-1.368a200.606,200.606,0,0,1-32.465-14.148c-3.687-2.014-7.878-.665-9.058,3.7-1.054,3.894,1.26,7.219,4.771,8.387,10.5,3.5,5.036,2.525,8.466,3.629a143.578,143.578,0,0,0,31.226,6.153C1938.741,1447.63,1938.733,1447.483,1938.728,1447.335Z" transform="translate(-1891.302 -1367.677)" fill="url(#linear-gradient-58)"/>
        <path id="Path_5025" data-name="Path 5025" d="M2000.276,1252.665a8.039,8.039,0,0,0,8.207,5.948c6.931-.126,7.549-5.968,7.549-5.968l-4.527-.969-.378-5.045-6.811.5-.126,4.792Z" transform="translate(-1975.637 -1226.095)" fill="url(#linear-gradient-59)"/>
        <path id="Path_5026" data-name="Path 5026" d="M2012.662,1177.32s-7.806,15.118,1.454,18.787c6.531,2.587,10.625-10.04,9.4-13.46-1.889-5.288-3.132-4.661-3.132-4.661Z" transform="translate(-1983.027 -1171.078)" fill="url(#linear-gradient-60)"/>
        <path id="Path_5027" data-name="Path 5027" d="M2011.123,1151.919c3.855,1.06.56,9.423-5.246,7.445s-8.086-1.949-8.99-.355-1.1,7.255-3.062,4.457c-2.152-3.067-3.352-9.225-.713-11.209,2.358-1.774,2.909-4.525,5.736-4.429,3.754.127,6.657-1.538,8.352-.338C2009.146,1148.868,2008.285,1151.139,2011.123,1151.919Z" transform="translate(-1968.752 -1147.052)" fill="url(#linear-gradient-61)"/>
        <path id="Path_5028" data-name="Path 5028" d="M2007.872,1208.648s-1.665-1.791-1.932.368.589,4.939,1.592,3.415A5.217,5.217,0,0,0,2007.872,1208.648Z" transform="translate(-1980.094 -1195.392)" fill="url(#linear-gradient-62)"/>
      </g>
      <path id="Path_5029" data-name="Path 5029" d="M2032.988,1401.947a1.856,1.856,0,0,1-1.513,2.24,1.994,1.994,0,0,1-2.265-1.681,1.9,1.9,0,0,1,1.427-2.333A2.148,2.148,0,0,1,2032.988,1401.947Z" transform="translate(-1998.581 -1347.956)" fill="url(#linear-gradient-63)"/>
    </g>
  </g>
</svg>
