<svg xmlns="http://www.w3.org/2000/svg" width="20.23" height="20.23" viewBox="0 0 20.23 20.23">
  <path id="Icon_awesome-bug" data-name="Icon awesome-bug" d="M20.23,11.415a1.282,1.282,0,0,1-1.29,1.229H16.753v.632a5.668,5.668,0,0,1-.537,2.416l2.38,2.38a1.264,1.264,0,0,1-1.788,1.788L14.645,17.7a5.666,5.666,0,0,1-3.581,1.269V9.325a.474.474,0,0,0-.474-.474H9.641a.474.474,0,0,0-.474.474v9.641A5.666,5.666,0,0,1,5.586,17.7L3.423,19.86a1.264,1.264,0,0,1-1.788-1.788l2.38-2.38a5.668,5.668,0,0,1-.537-2.416v-.632H1.291A1.282,1.282,0,0,1,0,11.415a1.264,1.264,0,0,1,1.264-1.3H3.477V7.794L1.635,5.952A1.264,1.264,0,1,1,3.423,4.164L5.581,6.322h9.068l2.158-2.158A1.264,1.264,0,0,1,18.6,5.952L16.753,7.794v2.321h2.213A1.264,1.264,0,0,1,20.23,11.415ZM10.155,0A4.425,4.425,0,0,0,5.729,4.425H14.58A4.425,4.425,0,0,0,10.155,0Z" transform="translate(0)" fill="#10b5df"/>
</svg>
