<svg xmlns="http://www.w3.org/2000/svg" xmlns:xlink="http://www.w3.org/1999/xlink" width="278.603" height="147.049" viewBox="0 0 278.603 147.049">
  <defs>
    <clipPath id="clip-path">
      <rect id="Rectangle_412" data-name="Rectangle 412" width="74.187" height="48.984" rx="14.222" fill="none"/>
    </clipPath>
    <radialGradient id="radial-gradient" cx="0.109" cy="0.359" r="0.627" gradientTransform="translate(0.159) scale(0.683 1)" gradientUnits="objectBoundingBox">
      <stop offset="0" stop-color="#fff"/>
      <stop offset="1" stop-color="#fff" stop-opacity="0"/>
    </radialGradient>
    <linearGradient id="linear-gradient" x1="0.5" x2="0.5" y2="1" gradientUnits="objectBoundingBox">
      <stop offset="0" stop-color="#ffd71d"/>
      <stop offset="1" stop-color="#feb200"/>
    </linearGradient>
    <linearGradient id="linear-gradient-2" x1="-0.692" y1="0.5" x2="0.308" y2="0.5" gradientUnits="objectBoundingBox">
      <stop offset="0" stop-color="#343a44"/>
      <stop offset="0.301" stop-color="#232c3d"/>
      <stop offset="0.639" stop-color="#172339"/>
      <stop offset="1" stop-color="#142138"/>
    </linearGradient>
    <linearGradient id="linear-gradient-3" x1="0.15" y1="0.5" x2="1.15" y2="0.5" xlink:href="#linear-gradient-2"/>
  </defs>
  <g id="Group_1855" data-name="Group 1855" transform="translate(0 0)">
    <g id="Group_1854" data-name="Group 1854" transform="translate(0 0)">
      <path id="Path_5358" data-name="Path 5358" d="M119.795,149.557c-14.064,8.844-21.431,28.775-10.046,55.335h224c3.8-9.623,6.077-22.265,6.792-29.789,1.559-16.417-4.023-33.468-13.86-42.471-24.893-22.783-45.59,8.863-58.676-4.515-7.554-7.722-6.838-29.4-12.748-39.458a60.2,60.2,0,0,0-61.829-29.228c-16.116,2.616-30.652,11.145-39.52,25.574-12.145,19.763-3.3,33.922-8.666,47.582C139.267,147.816,129.191,143.648,119.795,149.557Z" transform="translate(-88.661 -58.644)" fill="#afb3bd"/>
      <g id="Group_1826" data-name="Group 1826" transform="translate(48.717 46.003)">
        <g id="Group_1820" data-name="Group 1820">
          <path id="Path_5359" data-name="Path 5359" d="M181.806,169.354a19.381,19.381,0,0,0,2.046-1.163l.878-1.361s.859-.554,1.474-.853a8.648,8.648,0,0,0,1.747-2.139l-.447-.562a7.688,7.688,0,0,1-.857.916,1.1,1.1,0,0,1-.645.021,11.56,11.56,0,0,1,.5-1.388,12.935,12.935,0,0,1,1.393-2.136l-.394-.413a11.306,11.306,0,0,0-.857.9c-.227.3-.663.931-.663.931a12.432,12.432,0,0,1,.734-1.525c.281-.415.585-.976.585-.976l-.456-.316a10.281,10.281,0,0,0-.807,1.15c-.275.492-.782,1.309-.782,1.309a16.2,16.2,0,0,1,.577-1.614,5.767,5.767,0,0,0,.262-.546l-.54-.185a4.34,4.34,0,0,0-.639,1.141,6.046,6.046,0,0,1-.411.943,6.489,6.489,0,0,1,.338-1.369,1.188,1.188,0,0,0,.185-.438l-.438-.083s-.842,1.549-1.283,2.509-.787,2.258-1.037,2.961a27.148,27.148,0,0,0-.573,3.095Z" transform="translate(-179.467 -159.287)" fill="#f5c5b3"/>
          <path id="Path_5360" data-name="Path 5360" d="M192.124,187.469l-10.648-1.834a35.5,35.5,0,0,1-.116-5.457,14.408,14.408,0,0,1,.578-4.075l-2.857-.4s-.564,2.509-.969,4.313c-.9,4-1.717,7.746-1.033,8.581.995,1.212,9.855,3.678,12.887,5.952C191.792,195.923,191.686,191.541,192.124,187.469Z" transform="translate(-176.826 -168.202)" fill="#42b2fc"/>
        </g>
        <path id="Path_5361" data-name="Path 5361" d="M242.685,263.816l-.539,3.683,1.113,2.524.813-1.1.187-2.058,1.2.181.59-.74L246,264.764l-.2-4.2Z" transform="translate(-212.289 -214.273)" fill="#fec4ad"/>
        <path id="Path_5362" data-name="Path 5362" d="M237.505,206.058a14.262,14.262,0,0,0-3.5-.105,11.02,11.02,0,0,0,.835,5.066c1.087,2.208,3.783,10.251,4.125,11.006s-.715,12.105-.715,12.105l3.911-.8s1.885-8.753,1.87-10.979-2.1-10.553-3.576-13.208S239.5,206.793,237.505,206.058Z" transform="translate(-207.857 -184.588)" fill="#42b2fc"/>
        <path id="Path_5363" data-name="Path 5363" d="M219.937,188.346s-.861,3.774-.187,4.652c.394.515,2.067,2.348,2.067,2.348s-5.541,2.925-7.17,2.925S213.589,195,213.589,195s1.776-1.4,2.041-2.114a15.942,15.942,0,0,0,.412-2.763Z" transform="translate(-196.732 -175.063)" fill="#fec4ad"/>
        <g id="Group_1824" data-name="Group 1824" transform="translate(15.955 5.463)">
          <g id="Group_1821" data-name="Group 1821" transform="translate(7.788 6.62)">
            <path id="Path_5364" data-name="Path 5364" d="M228.88,187.062s-.063-1.374,1.088-1.339c.735.022.792.7.219,1.566-.241.366-.266,1.193-.565,1.46-.364.324-.668-.176-.779-.4A2.738,2.738,0,0,1,228.88,187.062Z" transform="translate(-228.771 -185.722)" fill="#f5c5b3"/>
          </g>
          <g id="Group_1822" data-name="Group 1822" transform="translate(0 6.62)">
            <path id="Path_5365" data-name="Path 5365" d="M213.426,187.062s.064-1.374-1.088-1.339c-.735.022-.792.7-.219,1.566.241.366.266,1.193.565,1.46.364.324.668-.176.779-.4A2.738,2.738,0,0,0,213.426,187.062Z" transform="translate(-211.732 -185.722)" fill="#f5c5b3"/>
          </g>
          <path id="Path_5366" data-name="Path 5366" d="M221.462,177.23a13.062,13.062,0,0,1-.233,1.4c-.027.16-.057.342-.087.554-.238,1.65-.54,3.893-.67,4.228a5.91,5.91,0,0,1-1.953,1.783,3.36,3.36,0,0,1-2.527-.067c-.56-.329-1.826-1.161-2.041-1.715-.132-.341-.445-2.649-.684-4.326-.027-.191-.054-.356-.08-.5a12.63,12.63,0,0,1-.227-1.351c-.085-1.394,1.483-3.421,4.251-3.421C220.486,173.809,221.548,175.836,221.462,177.23Z" transform="translate(-212.397 -172.634)" fill="#f5c5b3"/>
          <path id="Path_5367" data-name="Path 5367" d="M216,176.064a6.621,6.621,0,0,1,5.07.186l.977-.622a8.012,8.012,0,0,0-3.47-.73C216.529,174.913,216,176.064,216,176.064Z" transform="translate(-214.049 -173.225)" fill="#e8d4e5" style="mix-blend-mode: multiply;isolation: isolate"/>
          <g id="Group_1823" data-name="Group 1823" transform="translate(0.79 5.609)">
            <path id="Path_5368" data-name="Path 5368" d="M221.5,183.9c-.027.16-.057.342-.087.554-.238,1.65-.54,3.893-.67,4.228a5.9,5.9,0,0,1-1.953,1.783,3.36,3.36,0,0,1-2.527-.067c-.56-.329-1.826-1.161-2.041-1.715-.132-.341-.445-2.649-.685-4.326-.027-.191-.053-.356-.079-.5l.226-.337a9.715,9.715,0,0,0,1.032,3.135c.623.742.743.777.743.777l1.277-.315.1-.026a3,3,0,0,1,1.49.012l.081.022.093.027.967.28s.225-.035.85-.777a8.861,8.861,0,0,0,.925-3.135Z" transform="translate(-213.461 -183.511)" fill="#7b2b1a"/>
          </g>
          <path id="Path_5369" data-name="Path 5369" d="M230.5,177.308c-.009.046-.234,1.675-.326,1.933-.142.395-.25.68-.25.68l-.168-.364a5.422,5.422,0,0,1-.5-2.152l-.03-1.4.465-.411C230.609,175.733,230.707,176.263,230.5,177.308Z" transform="translate(-221.231 -173.604)" fill="#7b2b1a"/>
          <path id="Path_5370" data-name="Path 5370" d="M214.027,176.187v.006l-.223,1.438a5.431,5.431,0,0,1-.668,1.892l-.019.033-.254.437s-.075-.254-.178-.615c-.077-.266-.266-1.629-.312-1.821-.015-.06-.027-.118-.038-.175-.2-1.023,0-1.451.9-1.587Z" transform="translate(-212.021 -173.713)" fill="#7b2b1a"/>
          <path id="Path_5371" data-name="Path 5371" d="M221.046,173.231l-.465.411-.885.318a7.027,7.027,0,0,0-3.119-.56c-1.774.137-2.017.647-2.042.679v0l-.183-.04-.872-.191-.178-.039a5.522,5.522,0,0,1,.347-.986c.7-1.052,2.6-1.733,4.322-1.558.059.006.116.012.173.02a4.158,4.158,0,0,1,2.351.972Z" transform="translate(-212.583 -171.239)" fill="#7b2b1a"/>
        </g>
        <path id="Path_5372" data-name="Path 5372" d="M231.805,371.488v3.456h-6.642s.25-1.251,3.4-1.828l.464-1.628Z" transform="translate(-203.069 -274.492)" fill="#133a50"/>
        <path id="Path_5373" data-name="Path 5373" d="M209.7,371.488v3.456h-6.642s.25-1.251,3.4-1.828l.463-1.628Z" transform="translate(-191.07 -274.492)" fill="#133a50"/>
        <path id="Path_5374" data-name="Path 5374" d="M222.724,258.934s.93,11.133.962,20.21.573,32.029.573,32.029h-3.666s-3.78-22.043-5.154-27.879-4.947-24.251-4.947-24.251Z" transform="translate(-195.104 -213.386)" fill="#133a50"/>
        <path id="Path_5375" data-name="Path 5375" d="M209.426,270.942s-.687,13.832-.825,16.556,0,23.715,0,23.715-3.435.092-3.435,0-3.239-22.355-3.659-29.065-.174-14.666-.731-15.595,1.5-7.521,1.5-7.521l4.863,1.3Z" transform="translate(-189.777 -213.439)" fill="#133a50"/>
        <path id="Path_5376" data-name="Path 5376" d="M209.484,199.908s-1.524,3.455.769,3.836c3.644.607,4.754-4.056,4.754-4.056l4.018,2.069s-.074,25.012,1.506,32.647c.916,4.433-14.341,2.32-16.58-1.615-1.937-3.406,3.659-31.708,3.659-31.708Z" transform="translate(-191.331 -181.221)" fill="#fff"/>
        <path id="Path_5377" data-name="Path 5377" d="M225.884,200.635c-.111.153-5.5,15.927-3.666,30.772.427,3.462,6.739.6,8.245.6,0,0,.716-11.08.891-15.2s-1.789-5.475-1.613-7.491,2.367-5.61,2.367-5.61Z" transform="translate(-201.263 -181.735)" fill="#42b2fc"/>
        <g id="Group_1825" data-name="Group 1825" transform="translate(10.683 19.05)">
          <path id="Path_5378" data-name="Path 5378" d="M205.126,233.157c.616-10.32.868-31.923.868-31.923l-3.641-.271s-1.822,18.118-1.848,20.178c-.011.819.245,10.769-.308,12.631C201.425,233.958,205.052,234.4,205.126,233.157Z" transform="translate(-200.197 -200.964)" fill="#42b2fc"/>
        </g>
      </g>
      <path id="Path_5379" data-name="Path 5379" d="M284.512,188.343c-2.859.98-5.8,2.006-8.067,4s-3.733,5.223-2.776,8.09,4.941,4.536,7.244,2.58a2.6,2.6,0,0,0,.895-2.9c-.879-1.959-3.94-1.04-5.375.557a8.637,8.637,0,0,0-2.363,6.995,5.618,5.618,0,0,0,5.161,4.766c2.547,0,6.175-3.844,4-5.16-2.768-1.672-6.325,2.309-7.687,5.242s-.511,6.9,2.271,8.552,9.31-.436,7.6-3.18c-1.807-2.9-7.148,1.282-7.857,4.625a6.441,6.441,0,0,0,5.3,7.419c3.393.412,9.27-3.452,6.922-5.934-3.394-3.588-9.051,5.548-7.418,10.209s8.382,6.515,12.168,3.345a2.792,2.792,0,0,0,1.217-2.359c-.219-1.525-2.307-1.955-3.769-1.466a6.442,6.442,0,1,0,7.188,9.983,2.758,2.758,0,0,0,.666-2.177,2.219,2.219,0,0,0-2.579-1.468,4.2,4.2,0,0,0-2.556,1.919,7.835,7.835,0,0,0,12.184,9.771,3.29,3.29,0,0,0,1.088-2.717,2.574,2.574,0,0,0-2.614-1.9,4.562,4.562,0,0,0-3.058,1.543c-3.414,3.545-1.955,10.407,2.606,12.256s13.608-3.244,10.406-6.981c-2.139-2.5-6.359,2.9-5.819,6.145a6.181,6.181,0,0,0,7.448,4.617c3.179-.835,7.366-5.4,4.91-7.579-1.738-1.546-4.55,1.722-5.087,3.985a5.342,5.342,0,0,0,2.755,5.845c2.247,1.105,5,.44,7.159-.825s3.954-3.071,6.035-4.464a18.881,18.881,0,0,1,14.421-2.7" transform="translate(-180.524 -129.058)" fill="none" stroke="#fff" stroke-miterlimit="10" stroke-width="2"/>
      <g id="Group_1831" data-name="Group 1831" transform="translate(178.6 74.001)">
        <path id="Path_5380" data-name="Path 5380" d="M560.537,220.716c-4.63-2.955-45.9,31.838-44.389,59.325,0,0,8.034-10.85,15.038-16.138s7.686-10.824,7.673-16.306,10.46-3.218,11.64-9.3C552.585,227.539,564.7,223.375,560.537,220.716Z" transform="translate(-490.906 -220.539)" fill="#4fae86"/>
        <g id="Group_1828" data-name="Group 1828" transform="translate(24.032 6.874)">
          <g id="Group_1827" data-name="Group 1827" transform="translate(0.81)">
            <path id="Path_5381" data-name="Path 5381" d="M562.821,254.489c-6.668,4.039-4.7,9.422-8.636,12.567-2.859,2.287-7.63,1.09-10.008,4.2-2.68,3.51.367,8.34.593,12.57.311,5.843-4.9,10.223-10.2,12-6.149,2.061-14.107,1.416-17.473-4.7-3.973-7.217-1-18.1,5.972-21.487,1.693-.823,3.843-1.047,5.226-2.713,2.335-2.813.836-6.86,1.918-10.438,1.054-3.487,4.5-5.94,7.679-7.027s6.412-1.307,9.516-2.568c4.227-1.717,7.929-5.49,11.449-8.034,3.14-2.27,14.163-6.53,15.955.914C576.449,246.559,568.422,251.1,562.821,254.489Z" transform="translate(-515.32 -235.577)" fill="#319188"/>
          </g>
          <path id="Path_5382" data-name="Path 5382" d="M562.547,253.219s-27.253,13.7-49,57.889" transform="translate(-513.549 -245.155)" fill="none" stroke="#194459" stroke-miterlimit="10" stroke-width="1"/>
        </g>
        <path id="Path_5383" data-name="Path 5383" d="M580.543,298.379s-35.043-.392-64.161,33.009" transform="translate(-491.055 -262.799)" fill="none" stroke="#fff" stroke-miterlimit="10" stroke-width="1"/>
        <g id="Group_1830" data-name="Group 1830" transform="translate(26.67 42.294)">
          <g id="Group_1829" data-name="Group 1829" transform="translate(5.406)">
            <path id="Path_5384" data-name="Path 5384" d="M571.182,321.979c-3.34,1.336-4.246,6.967-7.842,7.681-2.616.52-5.408-1.8-7.964-.595-2.881,1.354-2.374,5.416-3.552,8.176-1.626,3.812-6.461,4.894-10.533,4.293-4.729-.7-9.81-3.7-10.126-8.683-.372-5.879,5.016-11.818,10.707-11.7,1.382.029,2.88.589,4.32-.018,2.433-1.025,2.708-4.084,4.549-6,1.794-1.871,4.853-2.3,7.3-1.958s4.667,1.261,7.123,1.473c3.345.289,6.987-.9,10.121-1.367,2.8-.417,14.221-.2,10.306,5.785C582.885,323.209,575.633,320.2,571.182,321.979Z" transform="translate(-531.148 -313.066)" fill="#4fae86"/>
          </g>
          <path id="Path_5385" data-name="Path 5385" d="M571.967,320.494s-24.342,2.072-52.646,23.043" transform="translate(-519.321 -317.099)" fill="none" stroke="#194459" stroke-miterlimit="10" stroke-width="1"/>
        </g>
        <path id="Path_5386" data-name="Path 5386" d="M460.974,355.49s5.539-9.7,6.442-10.7c5.7-6.307,13.256-6.376,20.951-4.784,2.226.461,8.121,3.558,10.26,3.13,1.666-.334,3.665-6.665,9-6.332s5.653,6.665,5.653,6.665,3.344-7.357,8.676-6.678,5.332,5.645,1.333,9.327c0,0,8.5-2.549,16.745,1.4s4.308,9.128,4.308,9.128Z" transform="translate(-460.974 -283.63)" fill="#319188"/>
      </g>
      <g id="Group_1836" data-name="Group 1836" transform="translate(10.515 74.001)">
        <path id="Path_5387" data-name="Path 5387" d="M135.665,220.716c4.63-2.955,45.9,31.838,44.389,59.325,0,0-8.035-10.85-15.037-16.138s-7.687-10.824-7.673-16.306-10.46-3.218-11.639-9.3C143.617,227.539,131.5,223.375,135.665,220.716Z" transform="translate(-115.808 -220.539)" fill="#4fae86"/>
        <g id="Group_1833" data-name="Group 1833" transform="translate(4.936 6.874)">
          <g id="Group_1832" data-name="Group 1832">
            <path id="Path_5388" data-name="Path 5388" d="M116.26,254.489c6.668,4.039,4.7,9.422,8.636,12.567,2.859,2.287,7.63,1.09,10.008,4.2,2.68,3.51-.368,8.34-.593,12.57-.311,5.843,4.9,10.223,10.2,12,6.149,2.061,14.107,1.416,17.473-4.7,3.973-7.217,1-18.1-5.971-21.487-1.693-.823-3.843-1.047-5.226-2.713-2.335-2.813-.836-6.86-1.918-10.438-1.054-3.487-4.5-5.94-7.679-7.027s-6.412-1.307-9.516-2.568c-4.227-1.717-7.929-5.49-11.449-8.034-3.14-2.27-14.163-6.53-15.955.914C102.632,246.559,110.659,251.1,116.26,254.489Z" transform="translate(-104.05 -235.577)" fill="#319188"/>
          </g>
          <path id="Path_5389" data-name="Path 5389" d="M129.257,253.219s27.253,13.7,49,57.889" transform="translate(-117.735 -245.155)" fill="none" stroke="#194459" stroke-miterlimit="10" stroke-width="1"/>
        </g>
        <path id="Path_5390" data-name="Path 5390" d="M93.251,298.379s35.043-.392,64.161,33.009" transform="translate(-93.251 -262.799)" fill="none" stroke="#fff" stroke-miterlimit="10" stroke-width="1"/>
        <g id="Group_1835" data-name="Group 1835" transform="translate(2.154 42.294)">
          <g id="Group_1834" data-name="Group 1834">
            <path id="Path_5391" data-name="Path 5391" d="M113.187,321.979c3.34,1.336,4.245,6.967,7.842,7.681,2.616.52,5.408-1.8,7.964-.595,2.881,1.354,2.374,5.416,3.551,8.176,1.627,3.812,6.461,4.894,10.534,4.293,4.729-.7,9.81-3.7,10.126-8.683.373-5.879-5.016-11.818-10.707-11.7-1.382.029-2.88.589-4.32-.018-2.434-1.025-2.708-4.084-4.549-6-1.794-1.871-4.853-2.3-7.3-1.958s-4.667,1.261-7.123,1.473c-3.345.289-6.987-.9-10.121-1.367-2.8-.417-14.221-.2-10.306,5.785C101.484,323.209,108.736,320.2,113.187,321.979Z" transform="translate(-97.964 -313.066)" fill="#4fae86"/>
          </g>
          <path id="Path_5392" data-name="Path 5392" d="M115.5,320.494s24.342,2.072,52.646,23.043" transform="translate(-107.486 -317.099)" fill="none" stroke="#194459" stroke-miterlimit="10" stroke-width="1"/>
        </g>
        <path id="Path_5393" data-name="Path 5393" d="M188.893,355.49s-5.54-9.7-6.443-10.7c-5.7-6.307-13.256-6.376-20.951-4.784-2.227.461-8.121,3.558-10.26,3.13-1.666-.334-3.665-6.665-9-6.332s-5.653,6.665-5.653,6.665-3.345-7.357-8.676-6.678-5.332,5.645-1.333,9.327c0,0-8.5-2.549-16.745,1.4s-4.308,9.128-4.308,9.128Z" transform="translate(-99.406 -283.63)" fill="#319188"/>
      </g>
      <g id="Group_1843" data-name="Group 1843" transform="translate(142.819 86.431)">
        <g id="Group_1837" data-name="Group 1837" transform="translate(5.872 51.792)">
          <path id="Path_5394" data-name="Path 5394" d="M406.549,369.52h-8.62a1.829,1.829,0,0,1-1.822-1.678l-.565-6.806h13.394l-.565,6.806A1.829,1.829,0,0,1,406.549,369.52Z" transform="translate(-395.542 -361.037)" fill="#21295b"/>
          <path id="Path_5395" data-name="Path 5395" d="M517.9,369.52h-8.62a1.829,1.829,0,0,1-1.822-1.678l-.565-6.806h13.394l-.565,6.806A1.829,1.829,0,0,1,517.9,369.52Z" transform="translate(-455.996 -361.037)" fill="#21295b"/>
        </g>
        <path id="Path_5396" data-name="Path 5396" d="M460,298.018H397.5l4.42-32.224a5.077,5.077,0,0,1,5.03-4.387h43.607a5.077,5.077,0,0,1,5.03,4.387Z" transform="translate(-390.731 -255.155)" fill="#ff3a46"/>
        <path id="Path_5397" data-name="Path 5397" d="M461.587,284.342H415.951l3.242-32.373a4.708,4.708,0,0,1,4.684-4.239h29.783a4.707,4.707,0,0,1,4.684,4.239Z" transform="translate(-400.75 -247.731)" fill="#ff3a46"/>
        <path id="Path_5398" data-name="Path 5398" d="M398.5,325.5l-1,7.316H460l-1-7.316Z" transform="translate(-390.73 -289.951)" fill="#cfcfcf" style="mix-blend-mode: multiply;isolation: isolate"/>
        <path id="Path_5399" data-name="Path 5399" d="M458.733,349.23H382.695l1.408-16.52h73.223Z" transform="translate(-382.695 -293.867)" fill="#ff3a46"/>
        <g id="Group_1842" data-name="Group 1842" transform="translate(18.77 0.896)">
          <ellipse id="Ellipse_146" data-name="Ellipse 146" cx="13.912" cy="13.912" rx="13.912" ry="13.912" transform="translate(0 15.18) rotate(-33.065)" fill="#cfcfcf" style="mix-blend-mode: multiply;isolation: isolate"/>
          <ellipse id="Ellipse_147" data-name="Ellipse 147" cx="12.029" cy="12.029" rx="12.029" ry="12.029" transform="translate(6.942 7.504) rotate(-1.34)" fill="#fff"/>
          <g id="Group_1841" data-name="Group 1841" transform="translate(8.786 8.788)">
            <g id="Group_1838" data-name="Group 1838" transform="translate(12.258 17.231)">
              <path id="Path_5400" data-name="Path 5400" d="M471.365,309.737a1.571,1.571,0,0,1-1.107-.455,1.265,1.265,0,0,1-.192-.241,1.539,1.539,0,0,1-.147-.268,2.19,2.19,0,0,1-.089-.29,1.8,1.8,0,0,1-.031-.308,1.567,1.567,0,0,1,1.869-1.53,1.676,1.676,0,0,1,.29.09,1.742,1.742,0,0,1,.272.143,1.631,1.631,0,0,1,.236.2,1.57,1.57,0,0,1,.46,1.1,1.8,1.8,0,0,1-.032.308,2.118,2.118,0,0,1-.089.29,1.939,1.939,0,0,1-.143.268,1.478,1.478,0,0,1-.2.241,1.626,1.626,0,0,1-.236.192,1.225,1.225,0,0,1-.272.143,1.384,1.384,0,0,1-.29.09A1.455,1.455,0,0,1,471.365,309.737Z" transform="translate(-469.799 -306.616)" fill="#b3b3b3"/>
            </g>
            <g id="Group_1839" data-name="Group 1839">
              <path id="Path_5401" data-name="Path 5401" d="M451.964,289.82h0a1.561,1.561,0,0,1-1.325-1.767h0a1.562,1.562,0,0,1,1.767-1.325h0a1.567,1.567,0,0,1,1.326,1.767h0a1.564,1.564,0,0,1-1.549,1.342h0A1.208,1.208,0,0,1,451.964,289.82Zm-5.019-2.132h0a1.567,1.567,0,0,1-.268-2.2h0a1.561,1.561,0,0,1,2.191-.267h0a1.561,1.561,0,0,1,.268,2.19h0a1.552,1.552,0,0,1-1.232.6h0A1.554,1.554,0,0,1,446.945,287.687Zm-3.279-4.364a1.556,1.556,0,0,1,.861-2.03h0a1.563,1.563,0,0,1,2.035.861h0a1.569,1.569,0,0,1-.866,2.035h0a1.58,1.58,0,0,1-.585.112h0A1.55,1.55,0,0,1,443.666,283.323Zm.66-3.649a1.564,1.564,0,0,1-1.33-1.767h0a1.563,1.563,0,0,1,1.767-1.325h0a1.563,1.563,0,0,1,1.33,1.762h0a1.564,1.564,0,0,1-1.548,1.343h0A1.756,1.756,0,0,1,444.326,279.674Zm1.075-4.6a1.561,1.561,0,0,1-.272-2.19h0a1.558,1.558,0,0,1,2.191-.272h0a1.558,1.558,0,0,1,.272,2.191h0a1.552,1.552,0,0,1-1.231.6h0A1.554,1.554,0,0,1,445.4,275.078Zm12.608-1.553a1.558,1.558,0,0,1-.272-2.19h0a1.562,1.562,0,0,1,2.191-.277h0a1.567,1.567,0,0,1,.272,2.195h0a1.567,1.567,0,0,1-1.232.6h0A1.571,1.571,0,0,1,458.01,273.526Zm-9.383-1.891a1.556,1.556,0,0,1,.861-2.03h0a1.563,1.563,0,0,1,2.035.861h0a1.565,1.565,0,0,1-.866,2.035h0a1.564,1.564,0,0,1-.584.112h0A1.556,1.556,0,0,1,448.627,271.634Zm5.84.393a1.562,1.562,0,0,1-1.325-1.767h0a1.557,1.557,0,0,1,1.763-1.326h0a1.558,1.558,0,0,1,1.329,1.763h0a1.563,1.563,0,0,1-1.544,1.343h0A1.823,1.823,0,0,1,454.467,272.027Z" transform="translate(-442.981 -268.918)" fill="#b3b3b3"/>
            </g>
            <g id="Group_1840" data-name="Group 1840" transform="translate(17.233 5.541)">
              <path id="Path_5402" data-name="Path 5402" d="M482.244,284.163a1.706,1.706,0,0,1-.3-.031,1.613,1.613,0,0,1-.295-.089,1.876,1.876,0,0,1-.267-.143,1.7,1.7,0,0,1-.241-.2,1.567,1.567,0,0,1-.455-1.1,1.467,1.467,0,0,1,.031-.308,1.361,1.361,0,0,1,.09-.29,1.54,1.54,0,0,1,.143-.272,1.607,1.607,0,0,1,.192-.237,1.808,1.808,0,0,1,.508-.339,1.6,1.6,0,0,1,.295-.085,1.571,1.571,0,0,1,1.405.424,1.382,1.382,0,0,1,.2.237,1.57,1.57,0,0,1,.143.272,1.386,1.386,0,0,1,.09.29,1.465,1.465,0,0,1,.031.308,1.568,1.568,0,0,1-1.561,1.561Z" transform="translate(-480.682 -281.041)" fill="#b3b3b3"/>
            </g>
          </g>
        </g>
      </g>
      <g id="Group_1844" data-name="Group 1844" transform="translate(98.185 33.279)">
        <path id="Path_5403" data-name="Path 5403" d="M426.087,172.66a6.673,6.673,0,0,1,1.34-6.978s11.312,7.33,23.956,5.262c0,0,1.386,3.813-2.5,7.345C448.882,178.288,435.348,180.854,426.087,172.66Z" transform="translate(-361.372 -150.034)" fill="#d6313b"/>
        <path id="Path_5404" data-name="Path 5404" d="M369.128,137.849c-8.14-6.864-23.56-7.829-43.078-4.687-16.783,2.7-33.877,9.041-39.582,18-2.6,4.078-.834,15.4-.834,15.4,15.461.966,21.124-12.326,21.124-12.326s-1.034-3.771,2.43-5.438c12.12-5.833,30.912-7.825,37.9-6.1a5.179,5.179,0,0,1,4.014,4.4s9.549,10.843,23.925,5.073C375.029,152.17,372.825,140.967,369.128,137.849Z" transform="translate(-285.048 -131.449)" fill="#ff3a46"/>
        <path id="Path_5405" data-name="Path 5405" d="M310.287,187.224a6.672,6.672,0,0,0-3.462-6.2s-8.44,10.51-21.094,12.515c0,0-.12,4.055,4.679,6.188C290.41,199.722,304.065,197.911,310.287,187.224Z" transform="translate(-285.419 -158.361)" fill="#d6313b"/>
      </g>
      <g id="Group_1846" data-name="Group 1846" transform="translate(52.272 97.646)">
        <g id="Group_1845" data-name="Group 1845" transform="translate(0)" clip-path="url(#clip-path)">
          <rect id="Rectangle_411" data-name="Rectangle 411" width="74.187" height="48.984" rx="14.222" fill="#ffd71d"/>
          <path id="Path_5406" data-name="Path 5406" d="M258.791,278.768a6.5,6.5,0,0,0-6.5-6.5H191.1a6.5,6.5,0,0,0-6.5,6.5l33.64,27.272a5.421,5.421,0,0,0,6.823,0Z" transform="translate(-184.604 -272.267)" fill="#ffd71d" style="mix-blend-mode: multiply;isolation: isolate"/>
          <path id="Path_5407" data-name="Path 5407" d="M188.934,316.2V280.214a6.5,6.5,0,0,1,6.5-6.5h60.9a6.439,6.439,0,0,0-4.041-1.446H191.1a6.5,6.5,0,0,0-6.5,6.5V314.75a6.5,6.5,0,0,0,6.5,6.5h.289A6.461,6.461,0,0,1,188.934,316.2Z" transform="translate(-184.604 -272.267)" opacity="0.7" fill="url(#radial-gradient)" style="mix-blend-mode: overlay;isolation: isolate"/>
          <path id="Path_5408" data-name="Path 5408" d="M217.6,301.3,184.6,272.267h74.187L225.8,301.3A6.207,6.207,0,0,1,217.6,301.3Z" transform="translate(-184.604 -272.267)" fill="url(#linear-gradient)"/>
          <path id="Path_5409" data-name="Path 5409" d="M217.6,301.3,184.6,272.267h74.187L225.8,301.3A6.207,6.207,0,0,1,217.6,301.3Z" transform="translate(-184.604 -272.267)" fill="#fd0" opacity="0.7" style="mix-blend-mode: overlay;isolation: isolate"/>
        </g>
      </g>
      <g id="Group_1849" data-name="Group 1849" transform="translate(126.671 41.484)">
        <g id="Group_1847" data-name="Group 1847" transform="translate(15.606)">
          <path id="Path_5410" data-name="Path 5410" d="M391.1,175.93s2.111-6.093,2.259-6.764c.875-3.959,1.113-12.543,1.058-14.369s-.225-3.428-.261-3.674a8.168,8.168,0,0,0-1.173-1.448,2.477,2.477,0,0,1-.352.037l-.013.229-.49-.421-.408-.023-.043.191-.582-.279-.561-.01s.362,1.159.568,1.863-.009.763-.009.763a1.536,1.536,0,0,1-.629.117,4.375,4.375,0,0,0-.8-.034s1.7,2.218,1.783,2.424a4.014,4.014,0,0,1,.686,3.208,81.867,81.867,0,0,1-2.428,8.871c.053-.124-2.294,6.576-2.294,6.576Z" transform="translate(-384.714 -149.4)" fill="#fec4ad"/>
          <path id="Path_5411" data-name="Path 5411" d="M386.758,209.244a48.638,48.638,0,0,1,3.278-11.117s-4.01-.794-5.046-2.22c0,0-1.382,3.375-2.177,5.054-.879,1.858-2.113,3.881-.563,4.984C383.746,207.01,386.53,211.03,386.758,209.244Z" transform="translate(-381.51 -174.649)" fill="#42b2fc"/>
        </g>
        <path id="Path_5412" data-name="Path 5412" d="M359.364,372.337v3.3H365.7s-.238-1.193-3.243-1.744l-.442-1.553Z" transform="translate(-353.881 -270.434)" fill="#133a50"/>
        <path id="Path_5413" data-name="Path 5413" d="M380.446,372.337v3.3h6.336s-.238-1.193-3.243-1.744l-.442-1.553Z" transform="translate(-365.326 -270.434)" fill="#133a50"/>
        <path id="Path_5414" data-name="Path 5414" d="M359.954,264.971s-.887,9.212-.918,17.872-.547,31.959-.547,31.959h3.5s3.606-22.433,4.917-28,4.719-21.727,4.719-21.727Z" transform="translate(-353.405 -212.144)" fill="#133a50"/>
        <path id="Path_5415" data-name="Path 5415" d="M369.829,198.129s-.226,1.763-.412,2.66a7.182,7.182,0,0,1-.477,1.643,20.1,20.1,0,0,1-2.163,2.457s5.8,3.061,7.5,3.061,1.107-3.419,1.107-3.419-1.859-1.469-2.136-2.211a16.68,16.68,0,0,1-.431-2.892Z" transform="translate(-357.905 -175.855)" fill="#fec4ad"/>
        <path id="Path_5416" data-name="Path 5416" d="M378.33,274.817s.655,14.6.786,17.2,0,22.622,0,22.622,3.277.089,3.277,0,3.089-22.731,3.49-29.132.166-13.991.7-14.876-1.435-5.768-1.435-5.768l-4.638-.17Z" transform="translate(-364.177 -211.993)" fill="#133a50"/>
        <path id="Path_5417" data-name="Path 5417" d="M362.248,207.975s-4.9-1.965-5.7-.352c-.612,1.219-.085,9.051.186,11.24.237,1.9,1.555,17.921,1.555,17.921s1.83,2.835,10.635,1.706a9.167,9.167,0,0,0,5.065-2.09s-.952-19.113-1.214-21.03a41.364,41.364,0,0,0-1.168-4.91l-2.621-1.726s.836,1.845-1.53,2.371C362.684,212.165,362.248,207.975,362.248,207.975Z" transform="translate(-352.195 -180.665)" fill="#42b2fc"/>
        <path id="Path_5418" data-name="Path 5418" d="M375.972,183.55c.555.223,1.525.723,1.634,1.186a18.4,18.4,0,0,1,.553,2.62c.051.814.168,2.352.167,3.311a8.454,8.454,0,0,1-.8,3.1,4.769,4.769,0,0,1-2.374.383c-.545-.155-3.74-1.808-3.94-3.832,0,0-.567.3-1.608-1.39-.272-.44.666-3.712.791-4.294.306-1.417,3.8-.3,4.584-.524A1.7,1.7,0,0,0,375.972,183.55Z" transform="translate(-359.413 -167.94)" fill="#fec4ad"/>
        <path id="Path_5419" data-name="Path 5419" d="M375.62,182.828a13.635,13.635,0,0,1-3.4,1.612c-.955.079-2.358,1.391-2.332,1.8a.885.885,0,0,1-.4.687s-.595-.947-1.082-.848c-.965.2-.4,1.385.126,1.646a8.089,8.089,0,0,0,1.033.423,4.994,4.994,0,0,1,.046,1.02,4.683,4.683,0,0,1-.408,1.2,13.321,13.321,0,0,0-2.143-3.267c-2.408-2.111-.665-6.033,1.708-6.77a9.268,9.268,0,0,1,4.87.079A3.489,3.489,0,0,1,375.62,182.828Z" transform="translate(-357.428 -166.033)" fill="#133a50"/>
        <path id="Path_5420" data-name="Path 5420" d="M373.907,191.661c.036.1.286.113.333.134.1.044.057.059.5.734.325.5.87.658,1.889.318.778-.26.669-.928.724-1.247s.122-.372.246-.394.191.008.351.288.235,1,1.047.883c.56-.084.708-.239.783-.682a4.617,4.617,0,0,0,.064-1.073c-.022-.293-.028-.472-.177-.488a2.726,2.726,0,0,0-.667.073,2.692,2.692,0,0,0-1.1.285c-.263.19-.234.307-.372.333s-.165-.094-.477-.184a9.446,9.446,0,0,0-2.088.222c-.485.085-1.15.267-1.137.45A1.37,1.37,0,0,0,373.907,191.661Zm4.187-.722c.025-.238.043-.212.642-.348s.662-.111.783-.015a1.276,1.276,0,0,1,.148.967.662.662,0,0,1-.578.694c-.527.093-.65-.169-.8-.534A2.274,2.274,0,0,1,378.095,190.939Zm-3.491.39a4.544,4.544,0,0,1,1.5-.316c.61-.075.813-.1.917.114a2.258,2.258,0,0,1,.076.784c-.016.394-.093.74-1.044.911a1.022,1.022,0,0,1-1.273-.567A1.112,1.112,0,0,1,374.6,191.329Zm-2.035.606,1.338-.274.452-.661s-.514.073-1.364.262a2.6,2.6,0,0,0-.806.38A1.314,1.314,0,0,1,372.569,191.935Z" transform="translate(-360.844 -171.513)" fill="#21295b"/>
        <g id="Group_1848" data-name="Group 1848" transform="translate(0 4.773)">
          <path id="Path_5421" data-name="Path 5421" d="M348.538,182.159s-1.158-7.337-1.169-8.023c-.066-4.054,1.989-9.5,2.408-11.279s.7-1.5.781-1.73a15.378,15.378,0,0,1,3.029-.684,7.85,7.85,0,0,1,.976-.349c.185-.018.962-.25.962-.25l-.452.812s-1.836,1.4-1.954,1.582a4.014,4.014,0,0,0-1.313,3.007c-.075,3.628-.064,7.558-.064,7.558-.027-.133,1.737,7.513,1.737,7.513Z" transform="translate(-347.368 -159.843)" fill="#fec4ad"/>
          <path id="Path_5422" data-name="Path 5422" d="M352.423,214.685c-1.246-3.536-4.1-13.032-4.1-13.032s4.238-1.067,5.433-2.362c0,0,1.43,4.246,2.024,6.006.657,1.948,1.647,4.1-.021,5.016C354.152,211.2,353.021,216.383,352.423,214.685Z" transform="translate(-347.888 -181.259)" fill="#42b2fc"/>
        </g>
      </g>
      <g id="Group_1853" data-name="Group 1853" transform="translate(183.514 44.761)">
        <g id="Group_1850" data-name="Group 1850" transform="translate(2.813 31.549)">
          <path id="Path_5423" data-name="Path 5423" d="M521.358,243.954c1.1,1.024,1.878.681,3.53,6.336,1.056,3.613,4.905,21.836,4.905,21.836l-2.3,1c-3.11-8.71-3.106-8.7-6.739-15.772a31.44,31.44,0,0,1-2.5-6.807l-6.716-.4c-4.2-1.726-2.76-7.855-2.76-7.855S520.257,242.93,521.358,243.954Z" transform="translate(-494.526 -234.655)" fill="url(#linear-gradient-2)"/>
          <path id="Path_5424" data-name="Path 5424" d="M479.268,229.471l6.06-3.881,5.863,4.554,7.3,2.359-.039.022c2.937,1.019,6.291,2.505,7.32,3.463,1.1,1.024,3.269,2.477,1.52,8.1-1.117,3.595-5.988,21.8-5.988,21.8l-2.468-.439s.877-10.551,1.755-18.444c.426-3.826.57-4.894.57-4.894s-16.3,1.778-21.557-1C475.929,239.179,479.268,232.413,479.268,229.471Z" transform="translate(-477.879 -225.59)" fill="url(#linear-gradient-3)"/>
          <path id="Path_5425" data-name="Path 5425" d="M525.762,310.881s-.072.663-1.134.962a1.807,1.807,0,0,1-1.784-.578l-.235,2.165L526,315.82h2.817l-1.524-1.691Z" transform="translate(-502.163 -271.895)" fill="#133a50"/>
          <path id="Path_5426" data-name="Path 5426" d="M551.51,304.318a1.164,1.164,0,0,1-.421,1.536,1.806,1.806,0,0,1-1.876-.007l.435,2.134,8.008-2.5Z" transform="translate(-516.607 -268.332)" fill="#133a50"/>
        </g>
        <g id="Group_1852" data-name="Group 1852" transform="translate(0 0)">
          <path id="Path_5427" data-name="Path 5427" d="M530.048,174.588A17.091,17.091,0,0,1,528.714,173l-.308-1.394s-.539-.721-.956-1.157a7.627,7.627,0,0,1-.787-2.3l.542-.327a6.769,6.769,0,0,0,.428,1.019.969.969,0,0,0,.526.215,10.158,10.158,0,0,0,.016-1.3,11.375,11.375,0,0,0-.5-2.192l.452-.22a9.949,9.949,0,0,1,.433,1c.1.318.262.973.262.973a10.969,10.969,0,0,0-.139-1.485c-.105-.429-.184-.986-.184-.986l.474-.122a9.071,9.071,0,0,1,.315,1.2c.076.491.245,1.321.245,1.321a14.387,14.387,0,0,0,.018-1.511,4.914,4.914,0,0,1-.049-.532l.5.013a3.83,3.83,0,0,1,.178,1.139,5.293,5.293,0,0,0,.051.905,5.725,5.725,0,0,0,.14-1.234,1.051,1.051,0,0,1-.019-.419l.388.066s.22,1.538.29,2.467-.043,2.107-.051,2.764-.025,1.17-.025,1.17Z" transform="translate(-501.552 -160.999)" fill="#fec4ad"/>
          <path id="Path_5428" data-name="Path 5428" d="M506.964,185.115a61,61,0,0,0,6.25,4.465s1.163-2.916,1.717-4.982c.662-2.467.856-3.6.856-3.6l2.358-.193s-.747,6.309-1.675,10.589c-.9,4.16-2.035,3.417-3.032,3.213s-10.381-5.246-10.381-5.246l1-5.358S504.729,183.28,506.964,185.115Z" transform="translate(-488.736 -169.725)" fill="#fec4ad"/>
          <path id="Path_5429" data-name="Path 5429" d="M489.911,156.808a5.981,5.981,0,0,1,4.443.449c2.9,1.787,1.509,6.684,1.328,7.812s.859,3.16.842,4.507-.338,1.835-1.344,3.139a2.5,2.5,0,0,0-.375,1.041,9.61,9.61,0,0,1-1.351-3.98c-.238-2.317-.73-1.777-1.889-4.321a19.213,19.213,0,0,1-1.21-6.376Z" transform="translate(-481.599 -156.57)" fill="#471a16"/>
          <path id="Path_5430" data-name="Path 5430" d="M485.116,158.734l-2.414-1.66a3.53,3.53,0,0,0-3.26,1.559c-1.2,1.834-1.614,4.491-1.884,6.486a70.667,70.667,0,0,0-.924,7.235c.048,1.488,1.856,1.691,1.856,1.691l6.064-2.624a18,18,0,0,1-.056-6.587A32.686,32.686,0,0,0,485.116,158.734Z" transform="translate(-474.389 -156.835)" fill="#471a16"/>
          <path id="Path_5431" data-name="Path 5431" d="M492.132,160.654a36.087,36.087,0,0,1,.769,4.394c.058,1.422-.111,3.765-1.053,4.411s-2.711.13-4.005-.405a3.051,3.051,0,0,1-1.86-2.278,13.522,13.522,0,0,1,.132-4.64,2.828,2.828,0,0,1,2.472-2.447C489.757,159.471,492.132,160.654,492.132,160.654Z" transform="translate(-479.386 -158.249)" fill="#fec4ad"/>
          <path id="Path_5432" data-name="Path 5432" d="M484.472,173.409s.331,3.534-.412,5.2c-.513,1.148-2.591,1.635-2.591,1.635a11.717,11.717,0,0,0,2.007,6.248c2.085,3.069,8.606,4.2,8.606,4.2a28.457,28.457,0,0,0,1.947-5.433,6.339,6.339,0,0,0-1.149-5.09s-1.763-.577-2.609-.9c-2.055-.774-1.814-4.04-1.814-4.04Z" transform="translate(-477.015 -165.712)" fill="#fec4ad"/>
          <path id="Path_5433" data-name="Path 5433" d="M484.381,188.841a29.789,29.789,0,0,1-5.482-1.893l-4.181,2.485s-2.456,2.344,1.735,8.5c0,0,1.591,5.61-.992,15.5,0,0,.7,2.546,4.614,1.19,3.371-1.167,3.446-2.078,6.4-2.828a25.328,25.328,0,0,0,5.507-1.786c-2.29-3.441-1.883-8.816-1.883-8.816s2.6-2.485,1.483-5.025a35.63,35.63,0,0,1-2.145-8.854l-2.237-.567a16.866,16.866,0,0,1-1.788,1.9A.957.957,0,0,1,484.381,188.841Z" transform="translate(-472.962 -172.953)" fill="#42b2fc"/>
          <path id="Path_5434" data-name="Path 5434" d="M498.544,186.243s-.513,1.91-1.837,2.325c0,0,.518,2.617,1.757,2.162,1.74-.638,1.062-4.257,1.062-4.257Z" transform="translate(-485.288 -172.68)" fill="#fff"/>
          <path id="Path_5435" data-name="Path 5435" d="M483.61,185.783s.826,4,3.034,4.32S489.6,188,489.6,188s-4.681-1.373-5.139-2.805Z" transform="translate(-478.178 -172.11)" fill="#fff"/>
          <path id="Path_5436" data-name="Path 5436" d="M484.39,159.568c-.407.027-.708,1.953-.749,3.027s-1.65,1.923-.94,4.287.614,4.647,1.566,7.238-.234,3.54-.748,4.432a34.468,34.468,0,0,1-2.727-3.351,2.689,2.689,0,0,0-2.913-1.305s3.11-6.041,3.005-7.671-.393-4.117.9-5.6A2.549,2.549,0,0,1,484.39,159.568Z" transform="translate(-475.067 -158.166)" fill="#471a16"/>
          <path id="Path_5437" data-name="Path 5437" d="M486.282,169.221s-.865-.947-1.436-.8-.607,1-.172,1.7,2.044,1.1,2.044,1.1Z" transform="translate(-478.595 -162.994)" fill="#fec4ad"/>
          <path id="Path_5438" data-name="Path 5438" d="M491.007,161.925a11.457,11.457,0,0,0,2.455-.178,3.8,3.8,0,0,1,2.229.23l-.593-2.607a8.241,8.241,0,0,0-3.127-1.008c-1.651.011-3.095.643-2.277,1.176A4.874,4.874,0,0,1,491.007,161.925Z" transform="translate(-481.353 -157.543)" fill="#471a16"/>
          <g id="Group_1851" data-name="Group 1851" transform="translate(0 16.28)">
            <path id="Path_5439" data-name="Path 5439" d="M477.031,195.308c-.28,3.271-1.242,12.593-1.242,12.593,2.977,2.6,7.191,6.935,7.191,6.935s-1.2,2.365-1.712,1.964c-4.1-3.206-8.79-5.1-9.125-7.336-.55-3.666-.739-12.89.611-15.89C473.793,191.262,477.327,191.838,477.031,195.308Z" transform="translate(-471.726 -192.186)" fill="#fec4ad"/>
            <path id="Path_5440" data-name="Path 5440" d="M495.811,241.7c1.246.468,2.031.927,1.956,1.392-.051.32-1.115-.265-1.752-.245a3.534,3.534,0,0,0,1.515,1.486c.823.405,1.284.968.843,1.444s-1.253,1.143-1.784.9-2.412-1.558-3.121-1.922-.992-1.255-1.357-1.5.668-2.119.668-2.119c.2.054,1.224.274,1.224.274a6.54,6.54,0,0,0,1.019.085A2.487,2.487,0,0,1,495.811,241.7Z" transform="translate(-482.752 -218.763)" fill="#fec4ad"/>
          </g>
        </g>
      </g>
      <line id="Line_30" data-name="Line 30" x2="278.603" transform="translate(0 146.461)" fill="none" stroke="#194459" stroke-miterlimit="10" stroke-width="1"/>
    </g>
  </g>
</svg>
