<svg xmlns="http://www.w3.org/2000/svg" xmlns:xlink="http://www.w3.org/1999/xlink" width="236.183" height="235.203" viewBox="0 0 236.183 235.203">
  <defs>
    <linearGradient id="linear-gradient" x1="1.051" y1="0.838" x2="-0.723" y2="-0.247" gradientUnits="objectBoundingBox">
      <stop offset="0" stop-color="#0f8faf"/>
      <stop offset="1" stop-color="#10b5df"/>
    </linearGradient>
    <linearGradient id="linear-gradient-2" x1="0.5" y1="0" x2="0.5" y2="1" xlink:href="#linear-gradient"/>
    <linearGradient id="linear-gradient-6" x1="-0.434" y1="-2.808" x2="1.03" y2="2.188" gradientUnits="objectBoundingBox">
      <stop offset="0" stop-color="#ffc444"/>
      <stop offset="0.996" stop-color="#f36f56"/>
    </linearGradient>
    <linearGradient id="linear-gradient-7" x1="-0.277" y1="-3.449" x2="0.707" y2="1.437" xlink:href="#linear-gradient-6"/>
    <linearGradient id="linear-gradient-9" x1="-0.26" y1="-5.205" x2="0.666" y2="1.693" xlink:href="#linear-gradient-6"/>
    <linearGradient id="linear-gradient-10" x1="-0.34" y1="-5.415" x2="0.581" y2="1.403" xlink:href="#linear-gradient-6"/>
    <linearGradient id="linear-gradient-14" x1="0.586" y1="-0.02" x2="0.297" y2="1.731" xlink:href="#linear-gradient"/>
    <linearGradient id="linear-gradient-15" y1="0.5" x2="1" y2="0.5" gradientUnits="objectBoundingBox">
      <stop offset="0" stop-color="#311944"/>
      <stop offset="1" stop-color="#a03976"/>
    </linearGradient>
    <linearGradient id="linear-gradient-16" x1="0" y1="0.5" x2="1" y2="0.5" xlink:href="#linear-gradient"/>
    <linearGradient id="linear-gradient-17" y1="0.5" x2="1" y2="0.5" gradientUnits="objectBoundingBox">
      <stop offset="0" stop-color="#444b8c"/>
      <stop offset="0.996" stop-color="#26264f"/>
    </linearGradient>
    <linearGradient id="linear-gradient-19" x1="0.73" y1="0.758" x2="-0.115" y2="-0.571" xlink:href="#linear-gradient"/>
    <linearGradient id="linear-gradient-20" y1="0.5" x2="1" y2="0.5" gradientUnits="objectBoundingBox">
      <stop offset="0" stop-color="#311944"/>
      <stop offset="1" stop-color="#893976"/>
    </linearGradient>
    <linearGradient id="linear-gradient-21" x1="1.069" y1="-0.986" x2="0.322" y2="0.94" xlink:href="#linear-gradient"/>
    <linearGradient id="linear-gradient-23" x1="0.908" y1="-0.734" x2="0.034" y2="2.341" xlink:href="#linear-gradient"/>
    <linearGradient id="linear-gradient-24" x1="-2.944" y1="-0.378" x2="-1.627" y2="2.004" xlink:href="#linear-gradient-6"/>
    <linearGradient id="linear-gradient-25" x1="-1.336" y1="1.155" x2="9.374" y2="-2.542" xlink:href="#linear-gradient-6"/>
    <linearGradient id="linear-gradient-26" x1="-14.315" y1="4.307" x2="-13.263" y2="5.756" xlink:href="#linear-gradient-17"/>
    <linearGradient id="linear-gradient-27" x1="-40.685" y1="3.547" x2="-40.685" y2="2.195" xlink:href="#linear-gradient-6"/>
    <linearGradient id="linear-gradient-28" x1="-18.632" y1="4.854" x2="-17.3" y2="6.642" xlink:href="#linear-gradient-17"/>
    <linearGradient id="linear-gradient-29" x1="-7.829" y1="-0.515" x2="-6.735" y2="0.793" xlink:href="#linear-gradient-17"/>
    <linearGradient id="linear-gradient-30" x1="-41.051" y1="1.222" x2="-41.051" y2="-0.193" xlink:href="#linear-gradient-6"/>
    <linearGradient id="linear-gradient-31" x1="0.623" y1="1.071" x2="0.389" y2="0.243" gradientUnits="objectBoundingBox">
      <stop offset="0.004" stop-color="#e38ddd"/>
      <stop offset="1" stop-color="#9571f6"/>
    </linearGradient>
    <linearGradient id="linear-gradient-32" x1="-0.885" y1="0.911" x2="8.851" y2="-1.979" xlink:href="#linear-gradient-6"/>
    <linearGradient id="linear-gradient-33" x1="-10.225" y1="-1.298" x2="-8.864" y2="0.479" xlink:href="#linear-gradient-17"/>
    <linearGradient id="linear-gradient-34" x1="-16.356" y1="0.884" x2="-15.839" y2="-0.213" xlink:href="#linear-gradient-6"/>
    <linearGradient id="linear-gradient-35" x1="0.49" y1="0.185" x2="0.583" y2="2.5" gradientUnits="objectBoundingBox">
      <stop offset="0" stop-color="#ab316d"/>
      <stop offset="1" stop-color="#792d3d"/>
    </linearGradient>
    <linearGradient id="linear-gradient-36" x1="-24.053" y1="-2.784" x2="-8.05" y2="10.461" xlink:href="#linear-gradient-6"/>
    <linearGradient id="linear-gradient-37" x1="0.405" y1="-1.346" x2="0.689" y2="4.864" xlink:href="#linear-gradient-35"/>
    <linearGradient id="linear-gradient-38" x1="-0.283" y1="0.99" x2="8.555" y2="-3.392" xlink:href="#linear-gradient-6"/>
  </defs>
  <g id="Cyber_security_software" data-name="Cyber security software" transform="translate(-449.167 -455)">
    <path id="Path_4577" data-name="Path 4577" d="M505.944,469.137c-7.932,11.356,1.369,29.766-10.4,38.306-11.457,8.313-25.533-5.313-36.331,1.843-16.018,10.616-13.093,59.191,10.326,89.372,7.043,9.076,12.928,12.608,15.534,22.873,5.6,22.042-14.073,35.153-10.33,46.055,8.428,24.546,138.044,45.143,190.052-28.626,24.29-34.453,27.924-84.2,6.222-121.99C631.8,448.692,523.743,443.657,505.944,469.137Z" transform="translate(0)" fill="#f4f7fa"/>
    <g id="Group_1645" data-name="Group 1645" transform="translate(450.824 457.929)">
      <path id="Path_4578" data-name="Path 4578" d="M604.136,1616.465l-3.791-.032a29.492,29.492,0,0,0-1.338-4.989l3.289-1.863a1.862,1.862,0,0,0,.687-2.553l-3.242-5.647a1.9,1.9,0,0,0-2.569-.72l-3.332,1.876a30.419,30.419,0,0,0-3.656-3.676l1.933-3.306a1.893,1.893,0,0,0-.691-2.579l-5.657-3.338a1.884,1.884,0,0,0-2.59.648l-1.945,3.317a30.266,30.266,0,0,0-5.019-1.4v-3.885a1.936,1.936,0,0,0-1.906-1.921l-6.6-.111a1.867,1.867,0,0,0-1.915,1.862v3.9a29.938,29.938,0,0,0-5.063,1.25l-1.97-3.4a1.959,1.959,0,0,0-2.63-.737l-5.771,3.193a1.869,1.869,0,0,0-.708,2.589l1.978,3.4a29.794,29.794,0,0,0-3.744,3.625l-3.426-1.988a1.945,1.945,0,0,0-2.651.664l-3.357,5.667a1.9,1.9,0,0,0,.712,2.615l3.4,1.962a29.178,29.178,0,0,0-1.383,5.046l-3.929-.033a1.91,1.91,0,0,0-1.948,1.894v6.6a1.943,1.943,0,0,0,1.948,1.921l3.9.021a29.468,29.468,0,0,0,1.364,5.094l-3.351,1.887a1.885,1.885,0,0,0-.712,2.6l3.357,5.714a1.961,1.961,0,0,0,2.651.7l3.326-1.884a30.375,30.375,0,0,0,3.778,3.734l-1.911,3.258a1.885,1.885,0,0,0,.708,2.6l5.771,3.273a1.942,1.942,0,0,0,2.63-.7l1.887-3.228a30.232,30.232,0,0,0,5.146,1.347v3.727a1.9,1.9,0,0,0,1.915,1.888l6.6-.02a1.9,1.9,0,0,0,1.906-1.894v-3.715a29.93,29.93,0,0,0,5.1-1.354l1.863,3.2a1.9,1.9,0,0,0,2.59.685l5.657-3.259a1.877,1.877,0,0,0,.691-2.569l-1.867-3.221a29.792,29.792,0,0,0,3.688-3.682l3.234,1.865a1.882,1.882,0,0,0,2.569-.684l3.242-5.6a1.877,1.877,0,0,0-.687-2.562l-3.239-1.88a29.167,29.167,0,0,0,1.32-5l3.761.021a1.861,1.861,0,0,0,1.873-1.862v-6.468A1.892,1.892,0,0,0,604.136,1616.465Zm-33.124-14.135a19.362,19.362,0,0,1,19.186,19.232,19.041,19.041,0,0,1-19.186,18.968,19.353,19.353,0,0,1-19.4-19.234A19.034,19.034,0,0,1,571.012,1602.33Z" transform="translate(-529.728 -1494.191)" fill="url(#linear-gradient)"/>
      <g id="Group_1644" data-name="Group 1644" transform="translate(31.065 0)">
        <path id="Path_4579" data-name="Path 4579" d="M1163.606,757.829l-3.431-.094a25.82,25.82,0,0,0-1.212-4.422l2.978-1.582a1.6,1.6,0,0,0,.622-2.237l-2.935-5.04a1.769,1.769,0,0,0-2.328-.685l-3.022,1.59a28.082,28.082,0,0,0-3.319-3.317l1.755-2.881a1.669,1.669,0,0,0-.627-2.291l-5.141-3.066a1.722,1.722,0,0,0-2.356.519l-1.771,2.892a28.731,28.731,0,0,0-4.575-1.338v-3.438a1.791,1.791,0,0,0-1.739-1.741l-6.028-.241a1.637,1.637,0,0,0-1.752,1.609v3.453a27.774,27.774,0,0,0-4.637,1l-1.806-3.056a1.859,1.859,0,0,0-2.413-.71l-5.3,2.714a1.609,1.609,0,0,0-.651,2.285l1.818,3.06a26.143,26.143,0,0,0-3.443,3.146l-3.155-1.835a1.808,1.808,0,0,0-2.443.538l-3.1,4.977a1.681,1.681,0,0,0,.657,2.341l3.137,1.809a24.877,24.877,0,0,0-1.275,4.464l-3.625-.1a1.7,1.7,0,0,0-1.8,1.652v5.876a1.8,1.8,0,0,0,1.8,1.743l3.6.083a25.8,25.8,0,0,0,1.257,4.553l-3.091,1.627A1.63,1.63,0,0,0,1103.6,774l3.1,5.133a1.861,1.861,0,0,0,2.443.661l3.062-1.627a28.153,28.153,0,0,0,3.474,3.371l-1.757,2.868a1.66,1.66,0,0,0,.651,2.318l5.3,2.981a1.8,1.8,0,0,0,2.413-.588l1.73-2.839a28.744,28.744,0,0,0,4.713,1.262v3.3a1.738,1.738,0,0,0,1.752,1.7l6.028.063a1.685,1.685,0,0,0,1.739-1.653v-3.288a27.7,27.7,0,0,0,4.65-1.131l1.7,2.855a1.771,1.771,0,0,0,2.356.637l5.141-2.807a1.619,1.619,0,0,0,.627-2.259l-1.7-2.869a26.078,26.078,0,0,0,3.348-3.2l2.933,1.691a1.715,1.715,0,0,0,2.328-.568l2.935-4.892a1.648,1.648,0,0,0-.622-2.269l-2.933-1.706a24.83,24.83,0,0,0,1.2-4.386l3.4.078a1.627,1.627,0,0,0,1.694-1.61v-5.7A1.729,1.729,0,0,0,1163.606,757.829Zm-30.112-13.1c9.69.322,17.479,8.091,17.479,17.355s-7.789,16.641-17.479,16.475c-9.78-.167-17.776-7.941-17.776-17.363S1123.714,744.407,1133.494,744.732Z" transform="translate(-1078.683 -710.246)" fill="#0f8faf"/>
        <g id="Group_1643" data-name="Group 1643">
          <path id="Path_4580" data-name="Path 4580" d="M893.521,489.94c-29.92-1.487-54.81,20.825-54.81,49.874s24.891,52.616,54.81,52.637c29.088.02,52.081-22.34,52.081-49.943S922.609,491.386,893.521,489.94Zm0,90.255c-22.688-.149-41.444-18.078-41.444-40.044s18.756-38.95,41.444-37.955c22.206.974,39.864,18.876,39.864,40S915.727,580.341,893.521,580.2Z" transform="translate(-838.711 -489.87)" fill="#fff" opacity="0.74"/>
          <g id="Group_1642" data-name="Group 1642" transform="translate(0 0.002)">
            <path id="Path_4581" data-name="Path 4581" d="M932.954,1315.263l-11.513,6.082a54.533,54.533,0,0,0,18.587,18.9l6.559-10.722A41.411,41.411,0,0,1,932.954,1315.263Z" transform="translate(-914.492 -1245.931)" fill="url(#linear-gradient-2)"/>
            <path id="Path_4582" data-name="Path 4582" d="M1742.384,608.345l10.7-5.639a54.786,54.786,0,0,0-17.207-16.434l-6.252,10.234A41.734,41.734,0,0,1,1742.384,608.345Z" transform="translate(-1654.787 -578.176)" fill="url(#linear-gradient-2)"/>
            <path id="Path_4583" data-name="Path 4583" d="M962.587,578.986a38.885,38.885,0,0,1,13.429-11.122l-6.539-11.033a51.1,51.1,0,0,0-18.416,15.458Z" transform="translate(-941.623 -551.207)" fill="url(#linear-gradient-2)"/>
            <path id="Path_4584" data-name="Path 4584" d="M852.077,1069.412c0-.47.021-.934.038-1.4l-13.383-.346q-.02.7-.021,1.409a50.235,50.235,0,0,0,5.775,23.347l11.562-6.093A38.17,38.17,0,0,1,852.077,1069.412Z" transform="translate(-838.711 -1019.133)" fill="url(#linear-gradient-2)"/>
            <path id="Path_4585" data-name="Path 4585" d="M1925.568,1098.143a36.928,36.928,0,0,1-3.687,16.141l10.662,6.2a48.531,48.531,0,0,0,5.242-22.03q0-.671-.019-1.34l-12.233-.316C1925.549,1097.243,1925.568,1097.691,1925.568,1098.143Z" transform="translate(-1830.893 -1045.814)" opacity="0.25" fill="url(#linear-gradient-6)"/>
            <path id="Path_4586" data-name="Path 4586" d="M1768.772,1329.14a38.348,38.348,0,0,1-12.895,13.534l6.245,10.552a50.452,50.452,0,0,0,17.289-17.917Z" transform="translate(-1678.834 -1258.642)" opacity="0.25" fill="url(#linear-gradient-7)"/>
            <path id="Path_4587" data-name="Path 4587" d="M1896.912,810.959a38.557,38.557,0,0,1,5.6,16.571l12.264.331a50.593,50.593,0,0,0-7.213-22.531Z" transform="translate(-1808.022 -778.833)" fill="url(#linear-gradient-2)"/>
            <path id="Path_4588" data-name="Path 4588" d="M1193.912,1505.481a42.532,42.532,0,0,1-19.4-5.432l-6.539,10.7a55.947,55.947,0,0,0,25.942,7.008Z" transform="translate(-1140.313 -1415.195)" opacity="0.25" fill="url(#linear-gradient-9)"/>
            <path id="Path_4589" data-name="Path 4589" d="M1524.617,1504.462a40.861,40.861,0,0,1-19.006,5.077V1521.8a53.74,53.74,0,0,0,25.255-6.8Z" transform="translate(-1449.591 -1419.237)" opacity="0.25" fill="url(#linear-gradient-10)"/>
            <path id="Path_4590" data-name="Path 4590" d="M1202.771,505.53a41.236,41.236,0,0,1,17.034-3.335V489.916a54.235,54.235,0,0,0-23.567,4.576Z" transform="translate(-1166.206 -489.893)" fill="url(#linear-gradient-2)"/>
            <path id="Path_4591" data-name="Path 4591" d="M853.873,787.561a36.851,36.851,0,0,1,6.022-16.811l-11.507-6.672a48.438,48.438,0,0,0-7.929,23.121Z" transform="translate(-840.312 -741.046)" fill="url(#linear-gradient-2)"/>
            <path id="Path_4592" data-name="Path 4592" d="M1505.611,503.861a42.568,42.568,0,0,1,16.723,4.745l6.272-10.252a55.979,55.979,0,0,0-22.994-6.757Z" transform="translate(-1449.591 -491.454)" fill="url(#linear-gradient-2)"/>
          </g>
        </g>
      </g>
      <path id="Path_4593" data-name="Path 4593" d="M499.127,1199.42l-1.674.014a12.044,12.044,0,0,0-.591-2.114l1.451-.817a.786.786,0,0,0,.3-1.092l-1.431-2.379a.845.845,0,0,0-1.133-.287l-1.469.824a12.809,12.809,0,0,0-1.611-1.536l.852-1.422a.781.781,0,0,0-.3-1.091l-2.492-1.375a.856.856,0,0,0-1.14.3l-.856,1.426a13.472,13.472,0,0,0-2.208-.553v-1.651a.819.819,0,0,0-.838-.8l-2.9.007a.825.825,0,0,0-.841.806v1.654a13.694,13.694,0,0,0-2.222.571l-.864-1.427a.865.865,0,0,0-1.153-.292l-2.529,1.4a.788.788,0,0,0-.31,1.1l.866,1.427a13.223,13.223,0,0,0-1.64,1.566l-1.5-.817a.876.876,0,0,0-1.16.3l-1.468,2.427a.784.784,0,0,0,.311,1.1l1.488.807a12.213,12.213,0,0,0-.605,2.149l-1.718.014a.84.84,0,0,0-.852.817v2.8a.821.821,0,0,0,.852.8l1.7-.017a12.034,12.034,0,0,0,.6,2.15l-1.466.822a.793.793,0,0,0-.311,1.109l1.468,2.4a.867.867,0,0,0,1.16.28l1.456-.82a12.833,12.833,0,0,0,1.655,1.559l-.837,1.394a.779.779,0,0,0,.31,1.1l2.529,1.354a.875.875,0,0,0,1.153-.313l.828-1.381a13.516,13.516,0,0,0,2.259.54v1.582a.807.807,0,0,0,.841.79l2.9-.047a.837.837,0,0,0,.838-.816v-1.579a13.682,13.682,0,0,0,2.244-.606l.82,1.35a.847.847,0,0,0,1.14.275l2.492-1.421a.79.79,0,0,0,.3-1.1l-.823-1.359a13.193,13.193,0,0,0,1.626-1.59l1.426.773a.854.854,0,0,0,1.133-.307l1.431-2.406a.777.777,0,0,0-.3-1.087l-1.43-.779a12.2,12.2,0,0,0,.582-2.137l1.66-.017a.823.823,0,0,0,.827-.806v-2.755A.805.805,0,0,0,499.127,1199.42Zm-14.59-5.766a8.208,8.208,0,0,1,8.442,8.034,8.394,8.394,0,0,1-8.442,8.191,8.209,8.209,0,0,1-8.511-8.034A8.394,8.394,0,0,1,484.537,1193.655Z" transform="translate(-468.889 -1128.314)" fill="url(#linear-gradient-14)"/>
    </g>
    <g id="Group_1649" data-name="Group 1649" transform="translate(592.376 472.214)">
      <g id="Group_1648" data-name="Group 1648" transform="translate(0 0)" style="isolation: isolate">
        <g id="Group_1646" data-name="Group 1646" transform="translate(0 3.193)">
          <path id="Path_4594" data-name="Path 4594" d="M2199.868,697.964c9.224.483,17.024,8.74,17.42,18.44a18.034,18.034,0,0,1-.09,2.706,12.511,12.511,0,0,1,5.244-.83c7.612.4,14.047,7.211,14.374,15.216.311,7.61-5,13.556-12.066,13.786-.371.01-.746.009-1.125-.011l-63.09-3.52a8.842,8.842,0,0,1-6.517-8.16,6.962,6.962,0,0,1,7.255-7.571,7.6,7.6,0,0,1,2.545.586,19.845,19.845,0,0,1-.646-4.262c-.409-10.028,6.988-17.753,16.523-17.254a17.343,17.343,0,0,1,5.125,1.071A14.909,14.909,0,0,1,2199.868,697.964Z" transform="translate(-2154.01 -697.942)" fill="url(#linear-gradient-15)"/>
        </g>
        <g id="Group_1647" data-name="Group 1647" transform="translate(4.208)">
          <path id="Path_4595" data-name="Path 4595" d="M2249.962,659.948c9.223.483,17.023,8.74,17.418,18.44a17.969,17.969,0,0,1-.09,2.706,12.52,12.52,0,0,1,5.245-.83c7.612.4,14.046,7.211,14.373,15.216.31,7.61-5,13.556-12.066,13.786-.371.01-.746.009-1.125-.011l-63.09-3.52a8.843,8.843,0,0,1-6.517-8.16,6.962,6.962,0,0,1,7.255-7.571,7.6,7.6,0,0,1,2.545.586,19.834,19.834,0,0,1-.646-4.262c-.41-10.028,6.987-17.753,16.522-17.254a17.351,17.351,0,0,1,5.125,1.071A14.909,14.909,0,0,1,2249.962,659.948Z" transform="translate(-2204.103 -659.926)" fill="url(#linear-gradient-16)"/>
        </g>
      </g>
    </g>
    <g id="Group_1651" data-name="Group 1651" transform="translate(620.85 519.368)">
      <g id="Group_1650" data-name="Group 1650" transform="translate(0 0)">
        <path id="Path_4596" data-name="Path 4596" d="M2494.669,1229.911a1.685,1.685,0,0,1-1.685-1.685v-5.265a1.685,1.685,0,0,1,3.37,0v5.265A1.685,1.685,0,0,1,2494.669,1229.911Z" transform="translate(-2492.984 -1221.277)" fill="#413974"/>
        <path id="Path_4597" data-name="Path 4597" d="M2494.669,1391.752a1.685,1.685,0,0,1-1.685-1.685v-8.093a1.685,1.685,0,0,1,3.37,0v8.093A1.685,1.685,0,0,1,2494.669,1391.752Z" transform="translate(-2492.984 -1366.933)" fill="#413974"/>
        <path id="Path_4598" data-name="Path 4598" d="M2494.669,1581.608a1.685,1.685,0,0,1-1.685-1.684v-5.265a1.685,1.685,0,1,1,3.37,0v5.265A1.685,1.685,0,0,1,2494.669,1581.608Z" transform="translate(-2492.984 -1543.431)" fill="#413974"/>
      </g>
    </g>
    <g id="Group_1653" data-name="Group 1653" transform="translate(525.953 539.732)">
      <g id="Group_1652" data-name="Group 1652" transform="translate(0)">
        <path id="Path_4599" data-name="Path 4599" d="M1364.951,1472.34a1.685,1.685,0,0,1-1.685-1.685v-5.264a1.685,1.685,0,0,1,3.369,0v5.264A1.685,1.685,0,0,1,1364.951,1472.34Z" transform="translate(-1363.266 -1463.706)" fill="#413974"/>
        <path id="Path_4600" data-name="Path 4600" d="M1364.951,1634.181a1.685,1.685,0,0,1-1.685-1.685V1624.4a1.685,1.685,0,0,1,3.369,0v8.093A1.685,1.685,0,0,1,1364.951,1634.181Z" transform="translate(-1363.266 -1609.362)" fill="#413974"/>
        <path id="Path_4601" data-name="Path 4601" d="M1364.951,1824.038a1.685,1.685,0,0,1-1.685-1.684v-5.265a1.685,1.685,0,0,1,3.369,0v5.265A1.685,1.685,0,0,1,1364.951,1824.038Z" transform="translate(-1363.266 -1785.861)" fill="#413974"/>
      </g>
    </g>
    <g id="Group_1655" data-name="Group 1655" transform="translate(574.879 512.132)">
      <g id="Group_1654" data-name="Group 1654">
        <path id="Path_4602" data-name="Path 4602" d="M1947.4,1143.767a1.685,1.685,0,0,1-1.685-1.685v-5.264a1.685,1.685,0,0,1,3.37,0v5.264A1.685,1.685,0,0,1,1947.4,1143.767Z" transform="translate(-1945.718 -1135.133)" fill="#413974"/>
        <path id="Path_4603" data-name="Path 4603" d="M1947.4,1305.609a1.685,1.685,0,0,1-1.685-1.685v-8.093a1.685,1.685,0,0,1,3.37,0v8.093A1.685,1.685,0,0,1,1947.4,1305.609Z" transform="translate(-1945.718 -1280.79)" fill="#413974"/>
        <path id="Path_4604" data-name="Path 4604" d="M1947.4,1495.465a1.685,1.685,0,0,1-1.685-1.684v-5.265a1.685,1.685,0,0,1,3.37,0v5.265A1.685,1.685,0,0,1,1947.4,1495.465Z" transform="translate(-1945.718 -1457.288)" fill="#413974"/>
      </g>
    </g>
    <g id="Group_1657" data-name="Group 1657" transform="translate(490.625 569.634)">
      <g id="Group_1656" data-name="Group 1656" transform="translate(0)">
        <path id="Path_4605" data-name="Path 4605" d="M944.388,1828.3a1.685,1.685,0,0,1-1.685-1.684v-5.264a1.685,1.685,0,1,1,3.369,0v5.264A1.685,1.685,0,0,1,944.388,1828.3Z" transform="translate(-942.703 -1819.67)" fill="#413974"/>
        <path id="Path_4606" data-name="Path 4606" d="M944.388,1990.145a1.685,1.685,0,0,1-1.685-1.685v-8.093a1.685,1.685,0,1,1,3.369,0v8.093A1.685,1.685,0,0,1,944.388,1990.145Z" transform="translate(-942.703 -1965.326)" fill="#413974"/>
        <path id="Path_4607" data-name="Path 4607" d="M944.388,2180a1.684,1.684,0,0,1-1.685-1.684v-5.265a1.685,1.685,0,1,1,3.369,0v5.265A1.684,1.684,0,0,1,944.388,2180Z" transform="translate(-942.703 -2141.825)" fill="#413974"/>
      </g>
    </g>
    <g id="Group_1661" data-name="Group 1661" transform="translate(474.914 592.845)">
      <path id="Path_4608" data-name="Path 4608" d="M916.932,2943.319l-144.112-1.228v3.635a1.935,1.935,0,0,0,1.48,1.975l40.751,7.157a5.711,5.711,0,0,0,1.462.066l98.854-8.16a1.845,1.845,0,0,0,1.566-1.927Z" transform="translate(-771.379 -2871.018)" fill="#26264f"/>
      <g id="Group_1658" data-name="Group 1658" transform="translate(0)">
        <path id="Path_4609" data-name="Path 4609" d="M848.928,2162.469l-90.324,6.649a2.738,2.738,0,0,1-2.931-2.824v-67.262a2.988,2.988,0,0,1,2.931-3.04h90.324a2.594,2.594,0,0,1,2.408,2.748v60.8A2.837,2.837,0,0,1,848.928,2162.469Z" transform="translate(-755.673 -2095.992)" fill="#26264f"/>
        <path id="Path_4610" data-name="Path 4610" d="M866.074,2162.469l-90.324,6.649a2.738,2.738,0,0,1-2.93-2.824v-67.262a2.988,2.988,0,0,1,2.93-3.04h90.324a2.594,2.594,0,0,1,2.408,2.748v60.8A2.836,2.836,0,0,1,866.074,2162.469Z" transform="translate(-771.379 -2095.992)" fill="url(#linear-gradient-17)"/>
        <path id="Path_4611" data-name="Path 4611" d="M906.1,2200.768l-84.128,5.776a2.244,2.244,0,0,1-2.384-2.318v-58.888a2.448,2.448,0,0,1,2.384-2.492l84.128-.363a2.124,2.124,0,0,1,1.987,2.251v53.636A2.322,2.322,0,0,1,906.1,2200.768Z" transform="translate(-814.224 -2138.578)" fill="#fff"/>
        <path id="Path_4612" data-name="Path 4612" d="M1360.635,2105.562a1.044,1.044,0,1,1-1.039-1.131A1.092,1.092,0,0,1,1360.635,2105.562Z" transform="translate(-1307.912 -2103.722)" fill="#fff"/>
      </g>
      <path id="Path_4613" data-name="Path 4613" d="M869.674,2882.771l-96.855,7,42.23,7.417a5.712,5.712,0,0,0,1.462.067l100.42-8.29-45.717-6.146A7.494,7.494,0,0,0,869.674,2882.771Z" transform="translate(-771.379 -2816.664)" fill="url(#linear-gradient-17)"/>
      <path id="Path_4614" data-name="Path 4614" d="M941.062,2902.534l80.635-5.914,24.956,3.328-79.94,6.322Z" transform="translate(-925.489 -2829.367)" fill="#26264f"/>
      <g id="Group_1660" data-name="Group 1660" transform="translate(5.518 4.116)">
        <path id="Path_4615" data-name="Path 4615" d="M857.544,2206.418l-34.32,2.309a1.743,1.743,0,0,1-1.861-1.74v-60.107a1.744,1.744,0,0,1,1.737-1.744l34.444-.139Z" transform="translate(-821.364 -2144.997)" fill="#d8dee8"/>
        <path id="Path_4616" data-name="Path 4616" d="M1385.386,2447.61l-36.159,1.271v-3.656l36.159-1.134Z" transform="translate(-1304.886 -2418.967)" fill="#d8dee8"/>
        <path id="Path_4617" data-name="Path 4617" d="M1385.386,2516.238l-36.159,1.5v-3.656l36.159-1.358Z" transform="translate(-1304.886 -2481.829)" fill="#d8dee8"/>
        <path id="Path_4618" data-name="Path 4618" d="M983.52,2464.624l-20.763.707V2462.6l20.763-.651Z" transform="translate(-950.88 -2435.324)" fill="#fff"/>
        <path id="Path_4619" data-name="Path 4619" d="M983.52,2516.806l-20.763.8v-2.733l20.763-.744Z" transform="translate(-950.88 -2483.123)" fill="#fff"/>
        <path id="Path_4620" data-name="Path 4620" d="M983.52,2568.987l-20.763.894v-2.733l20.763-.837Z" transform="translate(-950.88 -2530.92)" fill="#fff"/>
        <path id="Path_4621" data-name="Path 4621" d="M983.52,2621.169l-20.763.988v-2.733l20.763-.931Z" transform="translate(-950.88 -2578.719)" fill="#fff"/>
        <path id="Path_4622" data-name="Path 4622" d="M1365.205,2595.46l-15.979.76v-3.656l15.979-.7Z" transform="translate(-1304.886 -2554.328)" fill="#d8dee8"/>
        <g id="Group_1659" data-name="Group 1659" transform="translate(57.747 6.673)">
          <path id="Path_4623" data-name="Path 4623" d="M1508.817,2291.718v5.492a2.839,2.839,0,0,0,2.979,2.8l4.073-.106a2.983,2.983,0,0,0,2.935-2.921v-5.435Zm3.751,5.678.757-2.294a.99.99,0,0,1-.544-.881,1.062,1.062,0,0,1,1.055-1.041,1.013,1.013,0,0,1,1.053,1,1.04,1.04,0,0,1-.542.9l.754,2.256Z" transform="translate(-1508.817 -2285.908)" fill="#d8dee8"/>
          <path id="Path_4624" data-name="Path 4624" d="M1521.836,2229.6a.757.757,0,0,1-.783-.747,2.934,2.934,0,0,0-3.026-2.888,3.05,3.05,0,0,0-3.046,2.986.8.8,0,0,1-.794.778.766.766,0,0,1-.8-.753,4.633,4.633,0,0,1,4.636-4.536,4.458,4.458,0,0,1,4.591,4.389A.786.786,0,0,1,1521.836,2229.6Z" transform="translate(-1513.007 -2224.435)" fill="#d8dee8"/>
        </g>
      </g>
      <path id="Path_4625" data-name="Path 4625" d="M775.749,2169.118l89.868-6.616.457-.033a2.426,2.426,0,0,0,1.591-.805c-6.467-.354-10.484-2.649-13.075-5.021-5.2-4.761-4.3-9.458-9.912-12.589-7-3.905-12.5,1.043-17.813-3.839-3.22-2.96-1.639-5.168-5.6-9.591-4.388-4.9-7.245-3.252-11.655-7.661-5.576-5.576-2.787-9.914-7.59-13.917-5.827-4.856-12.111-.361-17.658-5.019a14.181,14.181,0,0,1-4.391-8.034h-4.22a2.988,2.988,0,0,0-2.93,3.04v67.262A2.738,2.738,0,0,0,775.749,2169.118Z" transform="translate(-771.379 -2095.992)" fill="#fff" opacity="0.48" style="mix-blend-mode: soft-light;isolation: isolate"/>
    </g>
    <g id="Group_1663" data-name="Group 1663" transform="translate(534.96 539.695)">
      <path id="Path_4626" data-name="Path 4626" d="M1521.451,1588.862a13.129,13.129,0,0,1-7.144-1.847,138.125,138.125,0,0,1-24.822-18.812c-11-10.722-17.318-21.62-18.7-32.322l-.022-.168-.268-45.665c0-9.025,5.887-16.351,16.938-21.164,9.131-3.977,21.233-5.948,34.018-5.578,12.636.366,24.329,2.973,32.984,7.318,10.288,5.164,15.686,12.421,15.686,21.026l-.245,43.634-.02.161c-1.263,10.248-7.078,20.841-17.354,31.553a143.314,143.314,0,0,1-23.954,19.619A13.6,13.6,0,0,1,1521.451,1588.862Z" transform="translate(-1470.495 -1463.262)" fill="#10b5df"/>
      <path id="Path_4627" data-name="Path 4627" d="M1558.646,1588.862a12.823,12.823,0,0,1-7.049-1.847A136.477,136.477,0,0,1,1527.1,1568.2c-10.853-10.722-17.089-21.62-18.453-32.322l-.021-.168-.265-45.665c0-9.025,5.809-16.351,16.714-21.164,9.01-3.977,20.952-5.948,33.569-5.578,12.469.366,24.007,2.973,32.547,7.318,10.152,5.164,15.479,12.421,15.479,21.026l-.241,43.634-.019.161c-1.247,10.248-6.984,20.841-17.125,31.553a141.814,141.814,0,0,1-23.637,19.619A13.3,13.3,0,0,1,1558.646,1588.862Z" transform="translate(-1505.182 -1463.262)" fill="#0f8faf"/>
      <path id="Path_4628" data-name="Path 4628" d="M1544.256,1520.667l.267,45.435c2.991,23.182,30.234,41.95,42.1,49.081a10.477,10.477,0,0,0,11.12-.3c11.618-7.645,37.37-26.891,40.121-49.179l.244-43.513C1638.108,1489.909,1544.256,1486.957,1544.256,1520.667Z" transform="translate(-1538.06 -1493.849)" fill="url(#linear-gradient-19)"/>
      <path id="Path_4629" data-name="Path 4629" d="M1690.3,1700.687a1.618,1.618,0,0,1-.879-.233,128.973,128.973,0,0,1-22.6-17.248c-8.9-8.742-14.032-17.241-15.209-25.224l-.261-44.682c.011-4.287,3.4-7.957,10.057-10.892,7.426-3.278,17.973-5,28.888-4.738,10.806.257,21.045,2.432,28.138,5.952,6.274,3.113,9.446,6.783,9.456,10.922l-.243,43.135c-1.1,7.724-5.916,16.052-14.374,24.806a133.977,133.977,0,0,1-22.1,17.928A1.678,1.678,0,0,1,1690.3,1700.687Z" transform="translate(-1636.159 -1586.356)" fill="url(#linear-gradient-20)"/>
      <path id="Path_4630" data-name="Path 4630" d="M1709.546,1728.392a125.282,125.282,0,0,1-21.363-16.44c-8.363-8.231-13.2-16.13-14.341-23.438l-.259-44.422c.008-3.065,2.825-5.877,8.353-8.325,7.035-3.115,17.114-4.756,27.609-4.521,10.394.233,20.191,2.286,26.923,5.617,5.231,2.589,7.877,5.412,7.884,8.4l-.243,42.976c-1.067,7.091-5.633,14.846-13.615,23.092A130.152,130.152,0,0,1,1709.546,1728.392Z" transform="translate(-1656.524 -1617.115)" fill="#f4f7fa"/>
      <g id="Group_1662" data-name="Group 1662" transform="translate(32.817 32.295)">
        <path id="Path_4631" data-name="Path 4631" d="M1899.024,2095.582l-33.224.3a4.578,4.578,0,0,0-4.635,4.446v21.287a4.29,4.29,0,0,0,4.618,4.188l33.107-1.356a4.459,4.459,0,0,0,4.277-4.356l.1-20.335A4.164,4.164,0,0,0,1899.024,2095.582Z" transform="translate(-1861.165 -2074.761)" fill="url(#linear-gradient-21)"/>
        <path id="Path_4632" data-name="Path 4632" d="M2074.5,2196.6a4.114,4.114,0,0,0-4.475-4.054,4.394,4.394,0,0,0-4.113,4.013,4,4,0,0,0,2.142,3.782,1.482,1.482,0,0,1,.745,1.584l-.96,5.378a1.08,1.08,0,0,0,1.136,1.261l2.43-.085a1.17,1.17,0,0,0,1.134-1.335l-.929-5.326a1.586,1.586,0,0,1,.792-1.613A4.248,4.248,0,0,0,2074.5,2196.6Z" transform="translate(-2048.707 -2163.571)" fill="url(#linear-gradient-20)"/>
        <path id="Path_4633" data-name="Path 4633" d="M1933.547,1866.428a1.773,1.773,0,0,1-1.8-1.771l.02-4.637a8.616,8.616,0,0,0-8.629-8.536l-10.844-.108a8.815,8.815,0,0,0-9.053,8.628l0,4.783a1.9,1.9,0,0,1-1.934,1.852,1.879,1.879,0,0,1-1.939-1.833l0-4.8a12.543,12.543,0,0,1,12.936-12.282l10.849.151a12.261,12.261,0,0,1,12.229,12.152l-.022,4.619A1.813,1.813,0,0,1,1933.547,1866.428Z" transform="translate(-1896.155 -1847.718)" fill="url(#linear-gradient-23)"/>
      </g>
    </g>
    <g id="Group_1666" data-name="Group 1666" transform="translate(597.795 536.749)">
      <g id="Group_1665" data-name="Group 1665">
        <path id="Path_4634" data-name="Path 4634" d="M2228.908,1838.519l-2.6-2.842a9.655,9.655,0,0,0-2.317-2c-2.1-1.285-4.98-1.915-5.412-1.182-.49.833,2.25,3.3,3.182,4.113l3.864,2.807Z" transform="translate(-2218.517 -1798.25)" fill="url(#linear-gradient-24)"/>
        <path id="Path_4635" data-name="Path 4635" d="M2781.408,1677.6c.708.267,11.5,4.558,13.715,15.82.178.909,1.913,10.585-4.649,17.42-7.357,7.665-21.525,7.474-27.148,1.067a11.482,11.482,0,0,1-2.391-4.542h0l1.481-3.937A9.647,9.647,0,0,1,2768,1700.4c3.242-.8,5.688.645,7.544-.918a4.891,4.891,0,0,0,1.413-3.221c.621-3.787-1.517-6.118-1.672-8.453-.117-1.746-.728-5.571,1.551-8.065A7.358,7.358,0,0,1,2781.408,1677.6Z" transform="translate(-2715.371 -1656.646)" fill="url(#linear-gradient-25)"/>
        <path id="Path_4636" data-name="Path 4636" d="M3054.664,3162.3c.126-.693,2.364-1.321,3.473-.392.551.461.93,1.4.611,1.818-.115.154.359.424-.1.429C3057.144,3164.176,3054.539,3162.992,3054.664,3162.3Z" transform="translate(-2984.422 -3015.848)" fill="url(#linear-gradient-26)"/>
        <path id="Path_4637" data-name="Path 4637" d="M3071.574,3112.526l2.3-.325c-1.067-1.284-.869-5.375-.869-5.375l-2.449.546s.279,1.123.753,2.779A10.912,10.912,0,0,1,3071.574,3112.526Z" transform="translate(-2998.987 -2965.819)" fill="url(#linear-gradient-27)"/>
        <path id="Path_4638" data-name="Path 4638" d="M3079.783,3167.9s2.771-.639,3.071-.089.533,2.022-1.226,1.974S3079.626,3168.366,3079.783,3167.9Z" transform="translate(-3007.399 -3021.477)" fill="url(#linear-gradient-28)"/>
        <path id="Path_4639" data-name="Path 4639" d="M2678.449,3196c.222-.669,2.526-.976,3.494.1.481.533.725,1.512.351,1.885-.136.136.3.469-.155.412C2680.643,3198.2,2678.229,3196.668,2678.449,3196Z" transform="translate(-2639.801 -3046.948)" fill="url(#linear-gradient-29)"/>
        <path id="Path_4640" data-name="Path 4640" d="M2702.746,3150.154h2.326c-.877-1.421-.108-5.443-.108-5.443l-2.5.2s.119,1.151.357,2.857A10.83,10.83,0,0,1,2702.746,3150.154Z" transform="translate(-2661.81 -3000.521)" fill="url(#linear-gradient-30)"/>
        <path id="Path_4641" data-name="Path 4641" d="M2586.452,2142.052a107.637,107.637,0,0,0-3.605,16.5c-2.824,20.547,3.179,21.2,2.058,43.97-.357,7.268,6.3,24.026,6.883,24.4a7.139,7.139,0,0,0,.92.036,9.178,9.178,0,0,0,2.344-.39c1.054-.182,4.854-10.476,3.973-16.6-.623-4.331-.442-8.979-.081-18.277.059-1.506,3.913-29.309,3.913-29.309h0c1.172,10.291,2.52,19.035,3.689,25.814,3.756,21.781,15.967,34.965,16.6,35.177a2.586,2.586,0,0,0,2.209-.15,1.527,1.527,0,0,0,.559-.63c.327-.256-.1-21.746-3.821-37.919-5.406-23.475-3.052-28.968-4.765-39.454C2615.849,2136.148,2586.452,2142.052,2586.452,2142.052Z" transform="translate(-2551.543 -2080.357)" fill="url(#linear-gradient-31)"/>
        <path id="Path_4642" data-name="Path 4642" d="M2628.3,1652.871c-3.59-.106-11.839-1.373-16.384,2.716-.079.071.852.568.394,1.105a29.709,29.709,0,0,0-3.208,4.6,30.952,30.952,0,0,0-2.7,6.669,57.332,57.332,0,0,0-2.129,11.637c-.831,10.924-.007,15.964.74,19.391a37.813,37.813,0,0,0,21.572,3.168,33.674,33.674,0,0,0,10.754-3.543c-2.585-7.828-.557-12.017.4-15.878,1.365-5.505,1.386-5.089,2.51-9.462,1.854-7.216,2.158-14.59.884-16.1C2637.7,1653.113,2631.515,1652.966,2628.3,1652.871Z" transform="translate(-2571.555 -1633.753)" fill="url(#linear-gradient-32)"/>
        <path id="Path_4643" data-name="Path 4643" d="M2702.9,3205.273s2.834-.243,3.054.343.245,2.077-1.49,1.784S2702.682,3205.713,2702.9,3205.273Z" transform="translate(-2662.128 -3055.95)" fill="url(#linear-gradient-33)"/>
        <g id="Group_1664" data-name="Group 1664" transform="translate(44.428)">
          <path id="Path_4644" data-name="Path 4644" d="M2749.634,1515.412a6.235,6.235,0,0,1-.5-4.491c.467-1.943.641-2.238,1-2.648l.509-.539s.031-.024.066-.046a7.275,7.275,0,0,1,1.964-.655c.913-.046,2.771,3.228,3.834,8.273.086.18.173.362.257.546.528,1.145.98,2.27,1.369,3.368,6.169.522,7.026,1.246,7.053,1.664.058.88-3.458,1.9-6.1,2.283-5.766.844-11.692-.676-11.665-1.752.011-.468,1.157-1.078,6.045-1.718q-.171-1.213-.343-2.426C2752.723,1517.181,2750.453,1516.8,2749.634,1515.412Z" transform="translate(-2747.418 -1500.409)" fill="url(#linear-gradient-34)"/>
          <path id="Path_4645" data-name="Path 4645" d="M2757.87,1434.578a5.992,5.992,0,0,0,2.022,3.158,2.665,2.665,0,0,1,.721.461.8.8,0,0,1,.136.159c.6.881-.643,2.436-.229,2.791.3.258,1.237-.444,1.435-.2s-.544.989-.329,1.26c.163.2.643-.15,1.076.115.216.132.2.286.526.779a5.027,5.027,0,0,0,.573.732c.774.763,2.371.691,2.564.252.053-.123-.038-.189-.046-.55a2.8,2.8,0,0,1,.115-.755,7.27,7.27,0,0,1,1.443-1.923,5.164,5.164,0,0,0,1.326-2.678c.013-.115.018-.2.021-.261a5.93,5.93,0,0,0-1.164-3.793c-1.314-1.491-3.026-.161-5.06-1.443-2.347-1.479-1.977-4.455-3.045-4.488C2758.776,1428.153,2757.1,1431.731,2757.87,1434.578Z" transform="translate(-2756.813 -1428.19)" fill="url(#linear-gradient-35)"/>
          <path id="Path_4646" data-name="Path 4646" d="M2794.363,1572.725c.239-.62,1.033-.309,1.216.361a1.267,1.267,0,0,1-.948,1.578C2793.964,1574.7,2794.041,1573.559,2794.363,1572.725Z" transform="translate(-2790.199 -1560.277)" fill="url(#linear-gradient-36)"/>
        </g>
        <path id="Path_4647" data-name="Path 4647" d="M2985.87,1926.082a.085.085,0,0,1-.083-.075,21.853,21.853,0,0,1,1.071-9.112c.172-.6.333-1.169.474-1.737.776-3.129,1.115-4.337,1.475-5.616.233-.83.474-1.69.848-3.124a.083.083,0,1,1,.162.042c-.374,1.436-.616,2.3-.849,3.127-.36,1.278-.7,2.484-1.473,5.61-.142.571-.3,1.14-.476,1.744a21.684,21.684,0,0,0-1.065,9.047.084.084,0,0,1-.074.093Z" transform="translate(-2921.226 -1866.189)" fill="#9b305e"/>
        <path id="Path_4648" data-name="Path 4648" d="M2764.358,1562.028l-.572,1.374s-.573,1.649-1.328,1.031c-.618-.505-.731-.46-.751-.427,0,.006,0,.014,0,.014s-.017-.329-.023-.618a5.3,5.3,0,0,0-.32,1.809,2.946,2.946,0,0,0,.6,2.2,2.264,2.264,0,0,0,1.557.664,5.985,5.985,0,0,0,1.649-.618,7.964,7.964,0,0,1-1.877-.939c-.25-.685.622-1.323.961-2.954A5.988,5.988,0,0,0,2764.358,1562.028Z" transform="translate(-2715.76 -1550.785)" fill="url(#linear-gradient-37)"/>
        <path id="Path_4649" data-name="Path 4649" d="M2299.378,1700.352a7.188,7.188,0,0,0-2.355,2.929,21.759,21.759,0,0,0,7.6,9.464,22.368,22.368,0,0,0,25.617-.536c8.962-6.848,10.46-19.978,6.7-25.6-.433-.647-1.858-2.775-4.07-3.02-1.4-.154-3.3.422-6.3,3.939-6.259,7.328-4.048,11.9-7.746,14.048C2313.272,1704.79,2305.032,1696.4,2299.378,1700.352Z" transform="translate(-2290.428 -1662.114)" fill="url(#linear-gradient-38)"/>
        <path id="Path_4650" data-name="Path 4650" d="M2624.508,1918.98a.084.084,0,0,1-.018-.165c.087-.019,8.783-2.022,12.7-12.825a.084.084,0,0,1,.157.057,21.389,21.389,0,0,1-7.9,10.6,15.624,15.624,0,0,1-4.917,2.336Z" transform="translate(-2590.327 -1865.803)" fill="#9b305e"/>
      </g>
    </g>
    <path id="Path_4651" data-name="Path 4651" d="M2585.464,866.8l-1.27.01a9.139,9.139,0,0,0-.448-1.6l1.1-.62a.6.6,0,0,0,.23-.829l-1.086-1.805a.642.642,0,0,0-.86-.217l-1.114.625a9.761,9.761,0,0,0-1.223-1.165l.646-1.079a.593.593,0,0,0-.231-.828l-1.891-1.043a.649.649,0,0,0-.865.225l-.649,1.081a10.274,10.274,0,0,0-1.675-.42v-1.253a.621.621,0,0,0-.635-.607l-2.2,0a.626.626,0,0,0-.638.612v1.255a10.383,10.383,0,0,0-1.686.433l-.656-1.082a.656.656,0,0,0-.875-.221l-1.919,1.063a.6.6,0,0,0-.236.837l.658,1.082a9.994,9.994,0,0,0-1.245,1.188l-1.138-.62a.665.665,0,0,0-.88.229l-1.114,1.841a.594.594,0,0,0,.236.837l1.129.612a9.292,9.292,0,0,0-.459,1.63l-1.3.011a.637.637,0,0,0-.646.62v2.121a.623.623,0,0,0,.646.607l1.294-.013a9.1,9.1,0,0,0,.452,1.631l-1.112.624a.6.6,0,0,0-.236.841l1.114,1.821a.658.658,0,0,0,.88.212l1.1-.622a9.762,9.762,0,0,0,1.256,1.183l-.635,1.057a.591.591,0,0,0,.236.833l1.919,1.027a.664.664,0,0,0,.875-.237l.628-1.048a10.249,10.249,0,0,0,1.714.41v1.2a.613.613,0,0,0,.638.6l2.2-.036a.635.635,0,0,0,.635-.619V878a10.406,10.406,0,0,0,1.7-.46l.622,1.024a.642.642,0,0,0,.865.209l1.891-1.078a.6.6,0,0,0,.231-.833l-.625-1.03a9.957,9.957,0,0,0,1.233-1.206l1.082.586a.649.649,0,0,0,.86-.233l1.086-1.825a.589.589,0,0,0-.23-.825l-1.085-.591a9.259,9.259,0,0,0,.442-1.621l1.259-.013a.624.624,0,0,0,.627-.612V867.4A.61.61,0,0,0,2585.464,866.8Zm-11.069-4.375a6.227,6.227,0,0,1,6.4,6.1,6.368,6.368,0,0,1-6.4,6.215,6.228,6.228,0,0,1-6.458-6.095A6.369,6.369,0,0,1,2574.4,862.429Z" transform="translate(-1935.832 -368.484)" fill="#fff"/>
  </g>
</svg>
