<svg xmlns="http://www.w3.org/2000/svg" xmlns:xlink="http://www.w3.org/1999/xlink" width="234.55" height="233" viewBox="0 0 234.55 233">
  <defs>
    <linearGradient id="linear-gradient" x1="1.13" y1="1.295" x2="0.236" y2="0.19" gradientUnits="objectBoundingBox">
      <stop offset="0" stop-color="#dae3fe"/>
      <stop offset="1" stop-color="#e9effd"/>
    </linearGradient>
    <linearGradient id="linear-gradient-2" x1="-0.256" y1="0.932" x2="-0.033" y2="-0.163" gradientUnits="objectBoundingBox">
      <stop offset="0" stop-color="#0f8faf"/>
      <stop offset="1" stop-color="#10b5df"/>
    </linearGradient>
    <linearGradient id="linear-gradient-3" x1="0.234" y1="-0.287" x2="-1.049" y2="2.167" gradientUnits="objectBoundingBox">
      <stop offset="0" stop-color="#ff928e"/>
      <stop offset="1" stop-color="#fe7062"/>
    </linearGradient>
    <linearGradient id="linear-gradient-4" x1="0.507" y1="-0.558" x2="0.577" y2="-11.299" xlink:href="#linear-gradient-2"/>
    <linearGradient id="linear-gradient-5" x1="2.196" y1="-7.686" x2="3.032" y2="-7.686" gradientUnits="objectBoundingBox">
      <stop offset="0" stop-color="#4f52ff"/>
      <stop offset="1" stop-color="#4042e2"/>
    </linearGradient>
    <linearGradient id="linear-gradient-6" x1="63.201" y1="-74.857" x2="64.682" y2="-74.857" xlink:href="#linear-gradient-5"/>
    <linearGradient id="linear-gradient-7" x1="56.37" y1="-83.112" x2="57.14" y2="-83.112" xlink:href="#linear-gradient-5"/>
    <linearGradient id="linear-gradient-8" x1="2.694" y1="-7.639" x2="3.576" y2="-7.639" xlink:href="#linear-gradient-5"/>
    <linearGradient id="linear-gradient-9" x1="80.299" y1="-59.772" x2="81.811" y2="-59.772" xlink:href="#linear-gradient-5"/>
    <linearGradient id="linear-gradient-10" x1="5.39" y1="-2.553" x2="1.914" y2="-4.08" xlink:href="#linear-gradient-5"/>
    <linearGradient id="linear-gradient-11" x1="76.471" y1="-70.518" x2="77.256" y2="-70.518" xlink:href="#linear-gradient-5"/>
    <linearGradient id="linear-gradient-12" x1="3.625" y1="-13.962" x2="4.371" y2="-13.962" xlink:href="#linear-gradient-5"/>
    <linearGradient id="linear-gradient-13" x1="5.215" y1="-9.271" x2="6.3" y2="-9.271" xlink:href="#linear-gradient-5"/>
    <linearGradient id="linear-gradient-14" x1="120.892" y1="-65.476" x2="122.645" y2="-65.476" xlink:href="#linear-gradient-5"/>
    <linearGradient id="linear-gradient-15" x1="8.634" y1="-2.659" x2="3.439" y2="-4.94" xlink:href="#linear-gradient-5"/>
    <linearGradient id="linear-gradient-16" x1="-1.056" y1="-0.119" x2="-0.617" y2="0.805" xlink:href="#linear-gradient-2"/>
    <linearGradient id="linear-gradient-17" x1="-2.98" y1="0.171" x2="-2.849" y2="1.72" xlink:href="#linear-gradient-3"/>
    <linearGradient id="linear-gradient-18" x1="0.564" y1="-0.182" x2="0.198" y2="3.174" xlink:href="#linear-gradient-3"/>
    <linearGradient id="linear-gradient-19" x1="-8.671" y1="0.162" x2="-9.706" y2="0.923" gradientUnits="objectBoundingBox">
      <stop offset="0" stop-color="#e1473d"/>
      <stop offset="1" stop-color="#e9605a"/>
    </linearGradient>
    <linearGradient id="linear-gradient-20" x1="4.119" y1="-47.346" x2="3.122" y2="-43.142" gradientUnits="objectBoundingBox">
      <stop offset="0" stop-color="#53d8ff"/>
      <stop offset="1" stop-color="#3840f7"/>
    </linearGradient>
    <linearGradient id="linear-gradient-21" x1="-19.208" y1="0.5" x2="-18.208" y2="0.5" gradientUnits="objectBoundingBox">
      <stop offset="0" stop-color="#a22b25"/>
      <stop offset="1" stop-color="#c0423c"/>
    </linearGradient>
    <linearGradient id="linear-gradient-22" x1="2.675" y1="-48.467" x2="2.039" y2="-44.087" xlink:href="#linear-gradient-20"/>
    <linearGradient id="linear-gradient-23" x1="-19.314" y1="0.5" x2="-18.314" y2="0.5" xlink:href="#linear-gradient-21"/>
    <linearGradient id="linear-gradient-24" x1="1.519" y1="-1.602" x2="1.326" y2="-1.214" xlink:href="#linear-gradient-5"/>
    <linearGradient id="linear-gradient-25" x1="-16.274" y1="1.427" x2="-14.751" y2="1.427" xlink:href="#linear-gradient-21"/>
    <linearGradient id="linear-gradient-26" x1="-0.787" y1="-0.21" x2="-0.931" y2="1.394" xlink:href="#linear-gradient-5"/>
    <linearGradient id="linear-gradient-27" x1="-3.656" y1="-1.615" x2="-5.94" y2="1.548" xlink:href="#linear-gradient-21"/>
    <linearGradient id="linear-gradient-28" x1="-3.29" y1="-2.795" x2="-5.129" y2="5.663" xlink:href="#linear-gradient-21"/>
    <linearGradient id="linear-gradient-29" x1="3.406" y1="-0.816" x2="2.258" y2="-0.279" xlink:href="#linear-gradient-21"/>
    <linearGradient id="linear-gradient-30" x1="-8.626" y1="14.664" x2="-9.844" y2="15.96" xlink:href="#linear-gradient-21"/>
    <linearGradient id="linear-gradient-31" x1="-3.319" y1="-0.451" x2="-3.222" y2="2.181" gradientUnits="objectBoundingBox">
      <stop offset="0" stop-color="#09005d"/>
      <stop offset="1" stop-color="#1a0f91"/>
    </linearGradient>
    <linearGradient id="linear-gradient-32" x1="-28.307" y1="47.579" x2="-25.606" y2="45.041" xlink:href="#linear-gradient-21"/>
  </defs>
  <g id="Group_3237" data-name="Group 3237" transform="translate(-440.471 -425.472)">
    <path id="Path_6538" data-name="Path 6538" d="M661.2,637.991a83.058,83.058,0,0,1-12.706,10.7c-41.45,29.741-90.5,21.072-100.921,18.954-15.393-3.126-45.146-9.169-66.658-34.466-32.545-38.272-27.477-98.569-2.233-138.372,4.617-7.281,29.009-47.69,78.584-54.17,30-3.922,64.975,3.988,90.3,25.207C700.726,510.382,696.941,600.359,661.2,637.991Z" transform="translate(-16.178 -13.018)" fill="url(#linear-gradient)"/>
    <g id="Group_3221" data-name="Group 3221" transform="translate(440.526 497.156)">
      <g id="Group_3220" data-name="Group 3220" transform="translate(10.738)">
        <path id="Path_6539" data-name="Path 6539" d="M573.455,1418.493a3.787,3.787,0,0,0,3.778,3.774H781.521a3.787,3.787,0,0,0,3.778-3.774l1.7-117.4a6.579,6.579,0,0,0-6.928-5.824L580.418,1290.1a9.52,9.52,0,0,0-9.768,9.737Z" transform="translate(-570.647 -1290.101)" fill="url(#linear-gradient-2)"/>
        <path id="Path_6540" data-name="Path 6540" d="M618,1464.393a3.585,3.585,0,0,0,3.574,3.574H817.411a3.584,3.584,0,0,0,3.574-3.574l1.6-106.575c-.189-6.413-5.812-8.719-9.22-8.582L622.02,1344.1a6.691,6.691,0,0,0-6.864,6.847Z" transform="translate(-611.464 -1339.622)" fill="url(#linear-gradient-3)"/>
        <g id="Group_3219" data-name="Group 3219" transform="translate(138.689 10.249)" opacity="0.37">
          <path id="Path_6541" data-name="Path 6541" d="M3069.179,2079.591h0a.282.282,0,0,1-.277-.286l.127-8.643a.291.291,0,0,1,.286-.277.282.282,0,0,1,.278.286l-.127,8.643A.282.282,0,0,1,3069.179,2079.591Z" transform="translate(-3000.463 -2015.942)" fill="#fff"/>
          <path id="Path_6542" data-name="Path 6542" d="M2312.492,1456.185h0a.281.281,0,0,1-.277-.286l.486-33.1a6.453,6.453,0,0,0-1.849-4.834c-2.253-2.159-5.814-2.049-5.965-2.043l-61.143-1.64a.281.281,0,0,1,.007-.563h.005l61.125,1.64c.145-.007,3.936-.124,6.36,2.2a7,7,0,0,1,2.022,5.244l-.486,33.108A.282.282,0,0,1,2312.492,1456.185Z" transform="translate(-2243.465 -1413.716)" fill="#fff"/>
        </g>
        <path id="Path_6543" data-name="Path 6543" d="M884.981,1546.591c-.205-8.808-.129-86.811.377-93.547s-9.986-8-26.095-8.758-152.019-3.76-155.519-4.043c-7.866-.638-10.9,2.674-8.707,36.643,1.237,19.145,1.571,50.764,2.022,65.291a8.016,8.016,0,0,0,8,7.769c32.706.09,158.057.449,166.4.7C881.062,1550.93,885.062,1550.084,884.981,1546.591Z" transform="translate(-684.088 -1427.733)" fill="#fff" opacity="0.37"/>
      </g>
      <rect id="Rectangle_883" data-name="Rectangle 883" width="234.101" height="10.315" rx="5.158" transform="translate(234.101 138.158) rotate(180)" fill="url(#linear-gradient-4)"/>
      <rect id="Rectangle_884" data-name="Rectangle 884" width="159.44" height="13.309" rx="6.654" transform="translate(29.341 22.636)" fill="#fff" opacity="0.37"/>
      <rect id="Rectangle_885" data-name="Rectangle 885" width="173.016" height="13.309" rx="6.654" transform="translate(29.341 103.288)" fill="#fff" opacity="0.37"/>
      <rect id="Rectangle_886" data-name="Rectangle 886" width="93.428" height="16.237" transform="translate(108.928 84.124)" fill="#fff" opacity="0.37"/>
      <rect id="Rectangle_887" data-name="Rectangle 887" width="73.731" height="3.46" transform="translate(29.341 41.535)" fill="#fff"/>
      <rect id="Rectangle_888" data-name="Rectangle 888" width="73.731" height="3.46" transform="translate(29.341 47.391)" fill="#fff"/>
      <rect id="Rectangle_889" data-name="Rectangle 889" width="73.731" height="3.46" transform="translate(29.341 53.247)" fill="#fff"/>
      <rect id="Rectangle_890" data-name="Rectangle 890" width="73.731" height="41.258" transform="translate(29.341 59.103)" fill="#fff" opacity="0.53"/>
    </g>
    <g id="Group_3222" data-name="Group 3222" transform="translate(503.429 425.472)">
      <path id="Path_6544" data-name="Path 6544" d="M1337.23,466.449a1.058,1.058,0,0,1-1.071-.995c-.11-5.57-1.989-33.229-28.331-39.009-29.327-6.435-42.748,21.143-42.748,21.143s-36.286-12.87-43.245,21.6c-22.752,5.049-28.663,32.524-13.865,45.95a13.268,13.268,0,0,0,8.8,3.366l142.488,1.187a9.325,9.325,0,0,0,9.078-6.2C1372.784,499.6,1378.618,467.346,1337.23,466.449Z" transform="translate(-1199.854 -425.472)" fill="#7d97f4"/>
      <path id="Path_6545" data-name="Path 6545" d="M1380.04,503.552a1.057,1.057,0,0,1-1.071-.993c-.117-5.343-1.977-30.989-26.787-36.366-27.731-6.009-40.421,19.744-40.421,19.744s-34.311-12.018-40.891,20.173c-21.307,4.67-26.994,29.882-13.507,42.546a13.253,13.253,0,0,0,8.954,3.51l134.133,1.1a9.322,9.322,0,0,0,9.085-6.227C1413.717,533.851,1418.681,504.407,1380.04,503.552Z" transform="translate(-1245.92 -461.984)" fill="#91b3fa"/>
    </g>
    <g id="Group_3231" data-name="Group 3231" transform="translate(574.869 435.413)">
      <g id="Group_3226" data-name="Group 3226" transform="translate(30.323 5.066)">
        <g id="Group_3223" data-name="Group 3223" transform="translate(7.94)" opacity="0.3">
          <path id="Path_6546" data-name="Path 6546" d="M2523.275,618.823a.832.832,0,0,1-.011-1.112c.621-.7,1.282-1.392,1.965-2.044a.832.832,0,0,1,1.176.027l.011.012a.831.831,0,0,1-.038,1.164c-.648.62-1.276,1.273-1.867,1.942a.831.831,0,0,1-1.174.073A.764.764,0,0,1,2523.275,618.823Zm5.368-4.863a.9.9,0,0,1-.062-.076.832.832,0,0,1,.187-1.161c.765-.552,1.56-1.078,2.365-1.561a.831.831,0,1,1,.856,1.425c-.765.459-1.521.958-2.247,1.483A.832.832,0,0,1,2528.643,613.959Zm6.306-3.56a.832.832,0,0,1,.287-1.328c.866-.368,1.76-.7,2.655-.994a.831.831,0,1,1,.516,1.581c-.85.277-1.7.595-2.521.944A.832.832,0,0,1,2534.948,610.4Zm6.945-2.061a.832.832,0,0,1,.467-1.381c.928-.165,1.873-.291,2.811-.376a.832.832,0,0,1,.15,1.656c-.89.081-1.789.2-2.67.357A.831.831,0,0,1,2541.893,608.338Zm7.229-.461a.832.832,0,0,1,.652-1.393c.938.045,1.888.131,2.823.256a.831.831,0,1,1-.22,1.648c-.888-.119-1.791-.2-2.683-.243A.829.829,0,0,1,2549.123,607.877Zm7.151,1.15a.831.831,0,0,1,.834-1.364c.907.252,1.814.546,2.7.874a.831.831,0,0,1-.579,1.559c-.839-.312-1.7-.591-2.562-.831A.825.825,0,0,1,2556.274,609.027Zm22.079,21.088a.831.831,0,0,1-.177-.3c-.278-.849-.6-1.7-.949-2.521a.831.831,0,0,1,1.53-.652c.37.867.706,1.761,1,2.654a.832.832,0,0,1-1.4.822Zm-15.365-18.383a.832.832,0,0,1,1.007-1.294c.828.447,1.647.936,2.434,1.453a.831.831,0,1,1-.913,1.39c-.747-.491-1.524-.955-2.311-1.38A.837.837,0,0,1,2562.988,611.731Zm12.345,11.8a.824.824,0,0,1-.1-.134c-.462-.765-.963-1.521-1.489-2.246a.832.832,0,1,1,1.346-.977c.553.763,1.08,1.558,1.566,2.363a.832.832,0,0,1-1.323.993Zm-6.4-7.663a.831.831,0,0,1,1.162-1.187c.706.621,1.4,1.28,2.047,1.961l.012.013a.831.831,0,0,1-1.212,1.138c-.62-.646-1.274-1.272-1.945-1.862A.867.867,0,0,1,2568.93,615.868Z" transform="translate(-2523.056 -606.483)" fill="url(#linear-gradient-5)"/>
          <path id="Path_6547" data-name="Path 6547" d="M3201.119,930.2a.828.828,0,0,1-.211-.45c-.058-.425-.126-.855-.2-1.28a.831.831,0,1,1,1.637-.292c.08.447.151.9.212,1.346a.831.831,0,0,1-1.436.675Z" transform="translate(-3144.512 -900.881)" fill="url(#linear-gradient-6)"/>
        </g>
        <g id="Group_3224" data-name="Group 3224" transform="translate(0 35.263)" opacity="0.3">
          <path id="Path_6548" data-name="Path 6548" d="M3123.226,1228.047a.832.832,0,0,1-.04-1.077c.266-.336.529-.684.782-1.033a.831.831,0,1,1,1.346.976c-.266.367-.543.734-.823,1.088a.831.831,0,0,1-1.168.137A.808.808,0,0,1,3123.226,1228.047Z" transform="translate(-3065.326 -1209.527)" fill="url(#linear-gradient-7)"/>
          <path id="Path_6549" data-name="Path 6549" d="M2447.268,1114.969q-.388-.422-.765-.861a.831.831,0,0,1,1.261-1.084c.58.675,1.186,1.325,1.809,1.938a.832.832,0,1,1-1.167,1.184C2448.02,1115.767,2447.637,1115.37,2447.268,1114.969Zm-3.392-4.378a.824.824,0,0,1-.087-.112c-.5-.779-.98-1.588-1.416-2.4a.831.831,0,1,1,1.467-.783c.414.776.866,1.544,1.345,2.284a.831.831,0,0,1-1.31,1.015Zm7.85,8.4a.832.832,0,0,1,1.11-1.228c.7.526,1.44,1.028,2.188,1.493a.832.832,0,1,1-.879,1.412c-.788-.49-1.563-1.019-2.3-1.573A.826.826,0,0,1,2451.726,1118.995Zm-11.04-14.781a.837.837,0,0,1-.168-.276c-.32-.87-.607-1.764-.853-2.657a.831.831,0,0,1,1.6-.44c.233.848.505,1.7.81,2.523a.832.832,0,0,1-1.393.85Zm17.185,18.384a.832.832,0,0,1,.951-1.323c.8.358,1.63.686,2.462.976a.831.831,0,0,1-.547,1.57c-.876-.305-1.749-.651-2.593-1.027A.829.829,0,0,1,2457.872,1122.6Zm6.787,2.167a.831.831,0,0,1,.776-1.378c.863.174,1.744.314,2.618.415a.831.831,0,1,1-.192,1.652c-.919-.107-1.846-.254-2.754-.437A.827.827,0,0,1,2464.659,1124.765Zm7.1.636a.832.832,0,0,1,.6-1.394c.881-.018,1.771-.073,2.645-.165a.831.831,0,0,1,.173,1.654c-.92.1-1.857.154-2.784.173A.831.831,0,0,1,2471.757,1125.4Zm7.068-.927a.832.832,0,0,1,.414-1.37c.856-.21,1.712-.459,2.545-.74a.831.831,0,1,1,.532,1.575c-.877.3-1.779.558-2.679.78A.831.831,0,0,1,2478.824,1124.474Zm6.694-2.457a.833.833,0,0,1,.24-1.307c.786-.392,1.566-.824,2.318-1.282a.832.832,0,1,1,.866,1.42c-.792.483-1.613.937-2.44,1.35A.832.832,0,0,1,2485.519,1122.017Zm5.987-3.865c-.012-.013-.023-.026-.034-.039a.831.831,0,0,1,.121-1.169c.5-.409,1-.838,1.475-1.276q.259-.238.511-.48a.831.831,0,0,1,1.175.024.822.822,0,0,1-.023,1.175q-.265.255-.537.505c-.5.46-1.023.912-1.552,1.342A.831.831,0,0,1,2491.505,1118.152Z" transform="translate(-2438.612 -1094.557)" fill="url(#linear-gradient-8)"/>
          <path id="Path_6550" data-name="Path 6550" d="M2427.646,1034.524a.827.827,0,0,1-.212-.454c-.059-.446-.109-.9-.15-1.355a.831.831,0,1,1,1.656-.149c.039.43.086.863.142,1.287a.831.831,0,0,1-1.437.671Z" transform="translate(-2427.281 -1031.809)" fill="url(#linear-gradient-9)"/>
        </g>
        <g id="Group_3225" data-name="Group 3225" transform="translate(8.22 7.952)">
          <path id="Path_6551" data-name="Path 6551" d="M2526.426,726.724a.389.389,0,0,0,.207.4l4.206,2.163a20.6,20.6,0,0,0,1.648,6.468l-2.654,3.911a.389.389,0,0,0,.01.451l3.4,4.542a.389.389,0,0,0,.43.137l4.5-1.444a20.6,20.6,0,0,0,5.742,3.4l.889,4.645a.389.389,0,0,0,.326.312l5.616.808a.388.388,0,0,0,.4-.207l2.163-4.206a20.606,20.606,0,0,0,6.468-1.648l3.911,2.654a.388.388,0,0,0,.451-.01l4.542-3.4a.388.388,0,0,0,.137-.43l-1.444-4.5a20.6,20.6,0,0,0,3.4-5.741l4.645-.889a.389.389,0,0,0,.312-.326l.808-5.615a.389.389,0,0,0-.207-.4l-4.206-2.163a20.6,20.6,0,0,0-1.648-6.468l2.654-3.911a.389.389,0,0,0-.01-.451l-3.4-4.542a.388.388,0,0,0-.43-.137l-4.5,1.444a20.6,20.6,0,0,0-5.741-3.4l-.89-4.645a.388.388,0,0,0-.326-.312l-5.615-.808a.389.389,0,0,0-.4.207l-2.163,4.206a20.6,20.6,0,0,0-6.469,1.648l-3.911-2.654a.389.389,0,0,0-.451.011l-4.542,3.4a.389.389,0,0,0-.137.43l1.444,4.5a20.605,20.605,0,0,0-3.4,5.741l-4.646.89a.389.389,0,0,0-.312.326Z" transform="translate(-2526.422 -702.4)" fill="url(#linear-gradient-10)"/>
          <path id="Path_6552" data-name="Path 6552" d="M2761.471,945.508a5.706,5.706,0,1,1,.611.573A5.711,5.711,0,0,1,2761.471,945.508Zm7.426-6.81a4.423,4.423,0,0,0-.473-.444,4.359,4.359,0,1,0,.473.444Z" transform="translate(-2740.609 -916.588)" fill="#91b3fa"/>
          <path id="Path_6553" data-name="Path 6553" d="M2676.066,859.261a14.266,14.266,0,0,1-.921-1.109h0q-.137-.183-.268-.37a14.1,14.1,0,0,1-1.137-1.936l-.013-.027-.037-.078c-.024-.051-.048-.1-.071-.153a.333.333,0,0,1,.6-.277,13.371,13.371,0,0,0,13.169,7.754,13.274,13.274,0,0,0,6.982-2.621,13.521,13.521,0,0,0,1.058-.878,13.357,13.357,0,0,0-17.064-20.508,13.369,13.369,0,0,0-4.357,5.625.329.329,0,0,1-.082.119.333.333,0,0,1-.533-.371,13.984,13.984,0,0,1,3.478-5,14.023,14.023,0,0,1,20.723,1.913,14.026,14.026,0,0,1-1.713,18.706q-.528.485-1.11.922a14.025,14.025,0,0,1-18.707-1.715Z" transform="translate(-2661.187 -824.68)" fill="#91b3fa"/>
        </g>
      </g>
      <g id="Group_3230" data-name="Group 3230" transform="translate(0 0)">
        <g id="Group_3227" data-name="Group 3227" transform="translate(3.013)" opacity="0.3">
          <path id="Path_6554" data-name="Path 6554" d="M2098.018,660.812a.513.513,0,0,1-.062-.612c.225-.374.464-.745.711-1.1a.514.514,0,0,1,.847.581c-.235.343-.463.7-.678,1.054a.514.514,0,0,1-.705.175A.521.521,0,0,1,2098.018,660.812Z" transform="translate(-2097.882 -649.462)" fill="url(#linear-gradient-11)"/>
          <path id="Path_6555" data-name="Path 6555" d="M2126.235,553.545a.513.513,0,0,1-.006-.688,22.225,22.225,0,0,1,1.583-1.612q.174-.16.353-.318a.532.532,0,0,1,.725.046.514.514,0,0,1-.045.725q-.171.151-.338.3a21.264,21.264,0,0,0-1.51,1.537.514.514,0,0,1-.725.044C2126.26,553.57,2126.247,553.558,2126.235,553.545Zm4-3.525a.556.556,0,0,1-.046-.058.514.514,0,0,1,.134-.714,22.265,22.265,0,0,1,2.345-1.4.514.514,0,1,1,.472.912,21.262,21.262,0,0,0-2.238,1.339A.513.513,0,0,1,2130.236,550.02Zm4.736-2.45a.522.522,0,0,1-.1-.17.514.514,0,0,1,.3-.659,22.153,22.153,0,0,1,2.62-.784.514.514,0,0,1,.233,1,21.06,21.06,0,0,0-2.5.748A.514.514,0,0,1,2134.972,547.57Zm5.193-1.211a.513.513,0,0,1,.324-.858,22.281,22.281,0,0,1,2.732-.12.514.514,0,0,1-.019,1.027,21.209,21.209,0,0,0-2.6.114A.513.513,0,0,1,2140.165,546.36Zm5.331.095a.514.514,0,0,1,.45-.856,22.454,22.454,0,0,1,2.677.547.513.513,0,0,1-.267.992,21.389,21.389,0,0,0-2.554-.522A.513.513,0,0,1,2145.5,546.455Zm5.146,1.386a.514.514,0,0,1,.571-.824,22.105,22.105,0,0,1,2.462,1.184.514.514,0,0,1-.5.9,21.062,21.062,0,0,0-2.348-1.128A.513.513,0,0,1,2150.643,547.84Zm4.65,2.6a.514.514,0,0,1,.683-.761,22.238,22.238,0,0,1,2.1,1.753.514.514,0,0,1-.706.747,21.129,21.129,0,0,0-2-1.672A.52.52,0,0,1,2155.292,550.441Zm5.445,5.825a.492.492,0,0,1-.055-.072,21.309,21.309,0,0,0-1.321-1.844c-.071-.09-.142-.178-.214-.264a.514.514,0,0,1,.068-.723.508.508,0,0,1,.723.068c.076.093.152.186.227.28a22.389,22.389,0,0,1,1.383,1.931.513.513,0,0,1-.811.624Z" transform="translate(-2123.761 -545.379)" fill="url(#linear-gradient-12)"/>
        </g>
        <g id="Group_3228" data-name="Group 3228" transform="translate(0 23.621)" opacity="0.3">
          <path id="Path_6556" data-name="Path 6556" d="M2075.315,886.857a.514.514,0,0,1,.752-.7,21.218,21.218,0,0,0,1.869,1.755.514.514,0,0,1-.656.79,22.343,22.343,0,0,1-1.96-1.84Zm-1.685-2.016a.552.552,0,0,1-.035-.043,22.467,22.467,0,0,1-1.466-2.254.514.514,0,0,1,.893-.507,21.457,21.457,0,0,0,1.4,2.151.514.514,0,0,1-.791.653Zm5.719,5.365a.513.513,0,0,1,.655-.78,21.345,21.345,0,0,0,2.239,1.251.514.514,0,0,1-.446.925,22.3,22.3,0,0,1-2.347-1.312A.519.519,0,0,1,2079.349,890.207Zm-8.306-9.93a.51.51,0,0,1-.1-.151,22.044,22.044,0,0,1-.879-2.543.514.514,0,1,1,.99-.275,21.088,21.088,0,0,0,.838,2.425.513.513,0,0,1-.852.544Zm13.03,12.2a.514.514,0,0,1,.543-.834,21.127,21.127,0,0,0,2.473.676.514.514,0,0,1-.21,1.006,22.336,22.336,0,0,1-2.594-.709A.514.514,0,0,1,2084.073,892.482Zm5.132,1.076a.514.514,0,0,1,.422-.859,21.462,21.462,0,0,0,2.564.066.513.513,0,1,1,.036,1.026,22.441,22.441,0,0,1-2.688-.068A.512.512,0,0,1,2089.2,893.558Zm5.242-.185a.508.508,0,0,1-.129-.267.513.513,0,0,1,.427-.587,20.993,20.993,0,0,0,2.505-.552.514.514,0,1,1,.282.988,22.2,22.2,0,0,1-2.627.579A.513.513,0,0,1,2094.447,893.373Z" transform="translate(-2069.344 -873.065)" fill="url(#linear-gradient-13)"/>
          <path id="Path_6557" data-name="Path 6557" d="M2061.825,832.427a.512.512,0,0,1-.13-.271c-.065-.435-.117-.873-.156-1.3a.514.514,0,0,1,1.023-.092c.037.41.087.829.149,1.244a.514.514,0,0,1-.886.423Z" transform="translate(-2061.537 -830.292)" fill="url(#linear-gradient-14)"/>
        </g>
        <g id="Group_3229" data-name="Group 3229" transform="translate(5.458 5.304)">
          <path id="Path_6558" data-name="Path 6558" d="M2127.368,625.624a.26.26,0,0,0,.139.268l2.814,1.447a13.8,13.8,0,0,0,1.1,4.328l-1.776,2.617a.261.261,0,0,0,.007.3l2.275,3.039a.26.26,0,0,0,.288.092l3.012-.966a13.782,13.782,0,0,0,3.842,2.278l.6,3.108a.26.26,0,0,0,.218.209l3.758.541a.26.26,0,0,0,.268-.139l1.447-2.815a13.781,13.781,0,0,0,4.328-1.1l2.617,1.776a.26.26,0,0,0,.3-.007l3.039-2.275a.26.26,0,0,0,.092-.288l-.966-3.012a13.772,13.772,0,0,0,2.278-3.842l3.109-.6a.261.261,0,0,0,.209-.218l.54-3.758a.259.259,0,0,0-.138-.268l-2.815-1.447a13.779,13.779,0,0,0-1.1-4.328l1.776-2.617a.26.26,0,0,0-.007-.3l-2.275-3.039a.26.26,0,0,0-.288-.092l-3.012.966a13.781,13.781,0,0,0-3.842-2.278l-.595-3.108a.26.26,0,0,0-.219-.209l-3.757-.541a.26.26,0,0,0-.269.138l-1.447,2.814a13.787,13.787,0,0,0-4.328,1.1l-2.617-1.776a.26.26,0,0,0-.3.007l-3.039,2.275a.26.26,0,0,0-.092.288l.966,3.012a13.787,13.787,0,0,0-2.278,3.842l-3.108.6a.26.26,0,0,0-.208.218Z" transform="translate(-2127.365 -609.348)" fill="url(#linear-gradient-15)"/>
          <path id="Path_6559" data-name="Path 6559" d="M2283.814,771.309a3.894,3.894,0,1,1,.42.394A3.975,3.975,0,0,1,2283.814,771.309Zm4.97-4.556a2.9,2.9,0,0,0-.306-.287,2.857,2.857,0,0,0-3.6,4.44h0a2.857,2.857,0,0,0,3.9-4.153Z" transform="translate(-2269.908 -751.915)" fill="#91b3fa"/>
          <path id="Path_6560" data-name="Path 6560" d="M2224.06,711.219q-.33-.359-.628-.757a9.735,9.735,0,0,1-1.016-1.689l-.037-.08a.514.514,0,0,1,.118-.592.52.52,0,0,1,.134-.089.515.515,0,0,1,.681.253,8.668,8.668,0,0,0,.941,1.582h0l.061.081a8.56,8.56,0,0,0,3.318,2.63,8.7,8.7,0,0,0,2.234.655l.019,0,.058.008a8.592,8.592,0,0,0,6.413-1.636,8.859,8.859,0,0,0,.685-.568,8.647,8.647,0,1,0-13.867-9.635.507.507,0,0,1-.128.183.513.513,0,0,1-.823-.573,9.649,9.649,0,0,1,2.4-3.446q.361-.332.756-.628a9.674,9.674,0,0,1,12.359,14.853,9.82,9.82,0,0,1-.765.636A9.688,9.688,0,0,1,2224.06,711.219Z" transform="translate(-2214.325 -687.89)" fill="#91b3fa"/>
        </g>
      </g>
    </g>
    <g id="Group_3236" data-name="Group 3236" transform="translate(440.471 478.178)">
      <g id="Group_3233" data-name="Group 3233" transform="translate(37.154)">
        <path id="Path_6561" data-name="Path 6561" d="M889.018,1104.094a14.541,14.541,0,0,1,8.281-12.185l61.71-29.308a14.557,14.557,0,0,1,12.49,0l61.71,29.308a14.541,14.541,0,0,1,8.281,12.185c5.788,89.475-51.581,122.075-70.388,130.311a14.575,14.575,0,0,1-11.7,0C940.6,1226.17,883.23,1193.569,889.018,1104.094Z" transform="translate(-888.61 -1061.193)" fill="#0f8faf"/>
        <path id="Path_6562" data-name="Path 6562" d="M1869.151,1132.853a.7.7,0,0,1-.3-.068l-14.581-6.925a.7.7,0,0,1,.6-1.271l14.581,6.925a.7.7,0,0,1-.3,1.34Z" transform="translate(-1773.839 -1119.27)" fill="#91b3fa"/>
        <path id="Path_6563" data-name="Path 6563" d="M2145.417,1287.254h-.024a.7.7,0,0,1-.68-.727c.194-5.767.092-11.782-.3-17.878a8.8,8.8,0,0,0-5.017-7.373l-41.513-19.716a.7.7,0,0,1,.6-1.271L2140,1260a10.214,10.214,0,0,1,5.818,8.554c.4,6.141.5,12.2.3,18.016A.7.7,0,0,1,2145.417,1287.254Z" transform="translate(-1997.254 -1225.377)" fill="#91b3fa"/>
        <path id="Path_6564" data-name="Path 6564" d="M1070.96,1279.559a3.635,3.635,0,0,1,2.069-3.1l57.688-27.4a3.629,3.629,0,0,1,3.113,0l57.688,27.4a3.634,3.634,0,0,1,2.069,3.1c1.706,33.377-6,61.225-22.93,82.81a102.336,102.336,0,0,1-36.848,29.389,3.637,3.637,0,0,1-3.071,0,102.338,102.338,0,0,1-36.848-29.389C1076.964,1340.784,1069.254,1312.935,1070.96,1279.559Z" transform="translate(-1055.629 -1233.165)" fill="url(#linear-gradient-16)"/>
        <g id="Group_3232" data-name="Group 3232" transform="translate(46.982 40.093)">
          <path id="Path_6565" data-name="Path 6565" d="M1558.131,1586.941h5.75v-22.912a17.837,17.837,0,0,0-15.67-17.69l-11.756-1.429a17.82,17.82,0,0,0-19.97,17.69v20h5.75v-20a12.071,12.071,0,0,1,13.527-11.982l11.756,1.429a12.082,12.082,0,0,1,10.614,11.982Z" transform="translate(-1511.411 -1544.78)" fill="url(#linear-gradient-17)"/>
          <path id="Path_6566" data-name="Path 6566" d="M1509.458,1960.314l-50.4-2.792a3.572,3.572,0,0,0-3.769,3.566v39.927a3.572,3.572,0,0,0,3.572,3.572h49.189a3.572,3.572,0,0,0,3.57-3.455L1512.83,1964A3.571,3.571,0,0,0,1509.458,1960.314Z" transform="translate(-1455.289 -1923.298)" fill="url(#linear-gradient-18)"/>
          <path id="Path_6567" data-name="Path 6567" d="M1701.371,2100.433l3.05-8.77a2.937,2.937,0,0,0-.667-3.028,8.3,8.3,0,1,1,11.14.62,2.96,2.96,0,0,0-.962,3.271l2.751,7.908a2.959,2.959,0,0,1-2.8,3.931h-9.722A2.959,2.959,0,0,1,1701.371,2100.433Z" transform="translate(-1680.817 -2030.581)" fill="url(#linear-gradient-19)"/>
        </g>
      </g>
      <g id="Group_3235" data-name="Group 3235" transform="translate(0 59.114)">
        <path id="Path_6568" data-name="Path 6568" d="M456.4,3158.035s-.905,1.427-1.133,5.422a.651.651,0,0,0,.646.689h7.08a.417.417,0,0,0,.4-.549,11.33,11.33,0,0,0-4.468-5.932Z" transform="translate(-454.039 -3042.967)" fill="url(#linear-gradient-20)"/>
        <path id="Path_6569" data-name="Path 6569" d="M465.233,3125.358l.4,3.358a.631.631,0,0,0,.551.555,5.557,5.557,0,0,0,1.5-.014,1.036,1.036,0,0,0,.855-1.028v-3.242Z" transform="translate(-463.18 -3012.997)" fill="url(#linear-gradient-21)"/>
        <path id="Path_6570" data-name="Path 6570" d="M665.566,3157.665a9.887,9.887,0,0,0-1.326,5,1.251,1.251,0,0,0,1.258,1.223h11a.526.526,0,0,0,.3-.958c-2.081-1.461-6.171-4.191-9.129-5.264Z" transform="translate(-645.687 -3042.967)" fill="url(#linear-gradient-22)"/>
        <path id="Path_6571" data-name="Path 6571" d="M666.581,3096.107l.854,4.147a.855.855,0,0,0,1.012.673,3.1,3.1,0,0,0,.967-.4.982.982,0,0,0,.438-1l-.883-5.024Z" transform="translate(-647.835 -2985.035)" fill="url(#linear-gradient-23)"/>
        <path id="Path_6572" data-name="Path 6572" d="M444.093,2418.459s-2.97,2.618-3.529,5.769,1.584,54.353,1.584,54.353,2.97.494,4.5-.434c0,0,1.816-33.23,3.2-40.909,0,0,7.238,34.422,9.244,40.642,0,0,2.861.348,3.784-.2,0,0-1.9-44.621-4.279-52.554Z" transform="translate(-440.471 -2365.046)" fill="#7d97f4"/>
        <path id="Path_6573" data-name="Path 6573" d="M504.036,2551.223a.4.4,0,0,0,.1-.013.393.393,0,0,0,.281-.479l-1.262-4.839a.393.393,0,0,0-.168-.232l-2.726-1.749a.393.393,0,0,0-.424.662l2.6,1.666,1.223,4.69A.393.393,0,0,0,504.036,2551.223Z" transform="translate(-494.75 -2480.04)" fill="#91b3fa"/>
        <path id="Path_6574" data-name="Path 6574" d="M631.386,2029.408c-11.621,4.728-13.365,8.514-13.365,8.514l9.648,5.743s10.847-5.772,15.63-15.8a21.485,21.485,0,0,1-5.524-3.1A16.552,16.552,0,0,1,631.386,2029.408Z" transform="translate(-603.301 -2003.989)" fill="url(#linear-gradient-24)"/>
        <path id="Path_6575" data-name="Path 6575" d="M859.07,1774.4a.383.383,0,0,0-.717.2l.117,3.758a3.546,3.546,0,0,0,.7,2.01l1.4,1.514a3.42,3.42,0,0,1,.609,2.744,23.8,23.8,0,0,1-4.878,10.351,21.485,21.485,0,0,0,5.524,3.1,21.563,21.563,0,0,0,1.981-12.688,1.673,1.673,0,0,0,.3-2.017Z" transform="translate(-821.822 -1774.208)" fill="url(#linear-gradient-25)"/>
        <path id="Path_6576" data-name="Path 6576" d="M504.525,2041.232c-4.4-4.743-12.785-6.885-17.639-7.766a4.453,4.453,0,0,0-4.976,2.823c-2.184,5.872-8.125,21.148-9.277,23.774-.945,2.154-1.931,4.258-2.558,5.573a1.579,1.579,0,0,0,.737,2.1,115.456,115.456,0,0,0,14.411,5.064,1.022,1.022,0,0,0,1.308-.984,3.2,3.2,0,0,1,.455-1.643l11.283-18.8c7.032,7.8,13.191,8.51,17.922,6.8a35.586,35.586,0,0,1-1.566-7.389C507.636,2049.593,504.525,2041.232,504.525,2041.232Z" transform="translate(-467.479 -2011.905)" fill="url(#linear-gradient-26)"/>
        <path id="Path_6577" data-name="Path 6577" d="M1020.687,2208.844l-1.261-1.682c-4.083,2.8-7.5,3.469-10.291,2.99a35.577,35.577,0,0,0,1.566,7.389C1016.933,2215.293,1020.687,2208.844,1020.687,2208.844Z" transform="translate(-961.989 -2171.267)" fill="url(#linear-gradient-27)"/>
        <path id="Path_6578" data-name="Path 6578" d="M1130.032,2187.947l7.106.277,6.542-3.654c-.939-.589-6.25.615-6.25.615s-5.552-.839-7.054-.842c-1.248,0-1.07,1.793-.973,2.4.02.124.036.2.036.2Z" transform="translate(-1072.223 -2150.34)" fill="url(#linear-gradient-28)"/>
        <path id="Path_6579" data-name="Path 6579" d="M713.61,1929.209l-3.749,9.149s4.308,2.982,7.774,2.7l1.871-8.226Z" transform="translate(-687.527 -1916.358)" fill="url(#linear-gradient-29)"/>
        <g id="Group_3234" data-name="Group 3234" transform="translate(23.096 2.386)">
          <path id="Path_6580" data-name="Path 6580" d="M758.879,1848.033c.086.122,2.712,9.61,2.712,9.61l-5.45,1.385-3.825-8.623S757.441,1846,758.879,1848.033Z" transform="translate(-749.557 -1843.806)" fill="url(#linear-gradient-30)"/>
          <path id="Path_6581" data-name="Path 6581" d="M723.855,1810.9l1.658,4.7a.686.686,0,0,0,.086.168c.225.32,1.08,1.363,2.094.423a6.259,6.259,0,0,1,2.56-1.756.7.7,0,0,1,.792.5,30.051,30.051,0,0,1,.916,4.578.694.694,0,0,1-.564.748,22.43,22.43,0,0,1-5.205.433.7.7,0,0,1-.586-.4c-.519-1.135-2.11-4.577-2.7-5.468-.555-.836-1.917-.812-2.488-.762a.684.684,0,0,1-.513-.168,1.8,1.8,0,0,1-.113-2.894.7.7,0,0,0-.016-1,1.807,1.807,0,0,1-.232-2.685,2.549,2.549,0,0,1,3.043-.728.7.7,0,0,0,.838-.309.55.55,0,0,1,.568-.266.685.685,0,0,0,.731-.7,2.078,2.078,0,0,1,1.6-2.168c2.381-.741,3.865,1.559,4.012,3.275s-2.48,2.373-4.024,2.257c-1.174-.088-2.046,1.076-2.4,1.639A.69.69,0,0,0,723.855,1810.9Z" transform="translate(-719.044 -1802.988)" fill="url(#linear-gradient-31)"/>
          <path id="Path_6582" data-name="Path 6582" d="M735.994,1931.487s-.385-2.979-1.624-3.125-2.446.873-1.214,2.545C734.689,1932.987,735.994,1931.487,735.994,1931.487Z" transform="translate(-731.513 -1917.955)" fill="url(#linear-gradient-32)"/>
        </g>
      </g>
    </g>
  </g>
</svg>
