<svg xmlns="http://www.w3.org/2000/svg" xmlns:xlink="http://www.w3.org/1999/xlink" width="259.935" height="258.275" viewBox="0 0 259.935 258.275">
  <defs>
    <linearGradient id="linear-gradient" x1="0.116" y1="0.059" x2="0.469" y2="0.605" gradientUnits="objectBoundingBox">
      <stop offset="0" stop-color="#ffc444"/>
      <stop offset="0.996" stop-color="#f36f56"/>
    </linearGradient>
    <linearGradient id="linear-gradient-2" x1="0.371" y1="0.008" x2="0.797" y2="2.01" gradientUnits="objectBoundingBox">
      <stop offset="0.004" stop-color="#e38ddd"/>
      <stop offset="1" stop-color="#9571f6"/>
    </linearGradient>
    <clipPath id="clip-path">
      <path id="Path_6467" data-name="Path 6467" d="M751.323,707.952c-8.213-6.323-9.08-22.035-6.574-32.452,2.925-12.162,9.272-12.225,10.811-21.86,2.865-17.94-17.962-25.078-16.507-43.4,1.189-14.977,15.559-15.89,16.121-32.535.406-12.011-6.882-17.309-3.083-27.648.325-.884,3.963-10.365,12.268-12.273,8.382-1.926,16.615,4.99,20.6,10.451,7.37,10.095,1.332,16.726,5.677,31.9,5.916,20.657,20.61,20.593,21.823,36.7,1,13.3-8.788,16.416-7.385,31.145,1.3,13.677,10.217,15.963,10.212,25.249C815.274,694.6,768.076,720.85,751.323,707.952Z" transform="translate(-738.979 -537.457)" fill="url(#linear-gradient)"/>
    </clipPath>
    <linearGradient id="linear-gradient-4" x1="0.371" y1="0.008" x2="0.797" y2="2.01" gradientUnits="objectBoundingBox">
      <stop offset="0" stop-color="#0f8faf"/>
      <stop offset="1" stop-color="#10b5df"/>
    </linearGradient>
    <clipPath id="clip-path-2">
      <path id="Path_6474" data-name="Path 6474" d="M500.062,1139.943a14.751,14.751,0,0,0,6.01-3.506c4.579-6.416,13.934-17.872,13.059-26.159-.149-1.415-6.553-2.439-7.5-3.7-3.924-1.644-5.388-1.97-8.351-5.366-8.748-10.024,9.2-30.438-13.054-36.29-16.3-4.287-29.612,1.876-29.039-23.145s-21.31-69.553-46.84-50.935c-14.652,10.685,1.674,31.183-5.378,47.187-6.7,15.208.168,27.155,16.373,35.345s8.087,15.439,4.152,29.779c-4.727,17.225,21.517,19.023,33.7,18.819C473.01,1121.807,498.111,1128.011,500.062,1139.943Z" transform="translate(-406.418 -986.412)" fill="url(#linear-gradient-2)"/>
    </clipPath>
    <linearGradient id="linear-gradient-5" x1="0.422" y1="0.517" x2="0.352" y2="0.841" gradientUnits="objectBoundingBox">
      <stop offset="0" stop-color="#40447e"/>
      <stop offset="0.996" stop-color="#3c3b6b"/>
    </linearGradient>
    <linearGradient id="linear-gradient-6" x1="0.48" y1="0.467" x2="0.372" y2="0.528" xlink:href="#linear-gradient-5"/>
    <linearGradient id="linear-gradient-7" x1="0" y1="0.5" x2="1" y2="0.5" xlink:href="#linear-gradient-5"/>
    <linearGradient id="linear-gradient-10" x1="0.375" y1="1.966" x2="0.752" y2="-2.404" gradientUnits="objectBoundingBox">
      <stop offset="0" stop-color="#ff9085"/>
      <stop offset="1" stop-color="#fb6fbb"/>
    </linearGradient>
    <linearGradient id="linear-gradient-11" x1="0.402" y1="0.066" x2="0.958" y2="2.529" xlink:href="#linear-gradient-2"/>
    <linearGradient id="linear-gradient-12" x1="0.047" y1="-0.6" x2="1.09" y2="1.933" xlink:href="#linear-gradient-2"/>
    <linearGradient id="linear-gradient-13" x1="0.321" y1="-1.2" x2="0.645" y2="1.873" xlink:href="#linear-gradient-2"/>
    <linearGradient id="linear-gradient-14" x1="0.491" y1="0.225" x2="0.5" y2="0.781" gradientUnits="objectBoundingBox">
      <stop offset="0" stop-color="#444b8c"/>
      <stop offset="0.996" stop-color="#26264f"/>
    </linearGradient>
    <linearGradient id="linear-gradient-15" x1="0.57" y1="0.933" x2="0.212" y2="-1.046" xlink:href="#linear-gradient-14"/>
    <linearGradient id="linear-gradient-16" x1="0.193" y1="-2.461" x2="0.881" y2="4.375" xlink:href="#linear-gradient-10"/>
    <linearGradient id="linear-gradient-17" x1="0" y1="0.5" x2="1" y2="0.5" xlink:href="#linear-gradient-14"/>
    <linearGradient id="linear-gradient-18" x1="0.404" y1="0.025" x2="0.948" y2="2.849" xlink:href="#linear-gradient-2"/>
    <linearGradient id="linear-gradient-19" x1="0.07" y1="-0.691" x2="1.061" y2="2.078" xlink:href="#linear-gradient-2"/>
    <linearGradient id="linear-gradient-20" x1="0.316" y1="-1.822" x2="0.649" y2="2.379" xlink:href="#linear-gradient-2"/>
    <linearGradient id="linear-gradient-21" x1="0" y1="0.5" x2="1" y2="0.5" xlink:href="#linear-gradient-4"/>
    <linearGradient id="linear-gradient-22" x1="0.5" y1="0" x2="0.5" y2="1" xlink:href="#linear-gradient-4"/>
  </defs>
  <g id="Virtualization_technology" data-name="Virtualization technology" transform="translate(-365.448 -426.88)">
    <path id="Path_6460" data-name="Path 6460" d="M594.109,649a99.385,99.385,0,0,1-17.455,14.169c-45.2,30.184-96.879,21.484-112.855,18.51-25.776-4.8-47.534-8.182-66.229-25.071-42.479-38.378-40.413-118.438-7.954-168.032,3.849-5.88,36.259-53.922,88.045-60.692,1.267-.166,2.212-.26,3.039-.348,8.011-.848,57.655-5.325,98.134,28.589A120.761,120.761,0,0,1,602.6,483.094C634.219,531.926,634.32,607.555,594.109,649Z" transform="translate(0 0)" fill="#f4f7fa"/>
    <g id="Group_3186" data-name="Group 3186" transform="translate(369.105 436.749)">
      <g id="Group_3179" data-name="Group 3179" transform="translate(29.683)">
        <g id="Group_3178" data-name="Group 3178">
          <path id="Path_6461" data-name="Path 6461" d="M751.323,707.952c-8.213-6.323-9.08-22.035-6.574-32.452,2.925-12.162,9.272-12.225,10.811-21.86,2.865-17.94-17.962-25.078-16.507-43.4,1.189-14.977,15.559-15.89,16.121-32.535.406-12.011-6.882-17.309-3.083-27.648.325-.884,3.963-10.365,12.268-12.273,8.382-1.926,16.615,4.99,20.6,10.451,7.37,10.095,1.332,16.726,5.677,31.9,5.916,20.657,20.61,20.593,21.823,36.7,1,13.3-8.788,16.416-7.385,31.145,1.3,13.677,10.217,15.963,10.212,25.249C815.274,694.6,768.076,720.85,751.323,707.952Z" transform="translate(-738.979 -537.457)" fill="url(#linear-gradient)"/>
          <g id="Group_3177" data-name="Group 3177" clip-path="url(#clip-path)">
            <g id="Group_3176" data-name="Group 3176" transform="translate(9.528 -12.994)">
              <path id="Path_6462" data-name="Path 6462" d="M1007.637,668.909a.178.178,0,0,1-.084-.335,61.089,61.089,0,0,0,20.264-17.249c5.09-6.765,10.352-13.759,10.324-22.7-.021-6.763-3.041-10.532-6.863-15.3-3.725-4.651-8.362-10.441-11.344-20.948-1.7-6-3.823-13.466-1.578-22.252a26.735,26.735,0,0,1,5.323-10.443c1.968-2.608,3.522-4.669,3.388-8.444-.22-6.165-3.373-10.269-7.024-15.02a62.47,62.47,0,0,1-6.594-9.892c-5.639-11.028-5.214-25.509,1.265-43.04a.178.178,0,1,1,.334.123c-6.443,17.434-6.874,31.819-1.281,42.755a62.153,62.153,0,0,0,6.56,9.837c3.689,4.8,6.874,8.946,7.1,15.225.139,3.9-1.528,6.112-3.459,8.671A26.43,26.43,0,0,0,1018.7,570.2c-2.22,8.693-.115,16.108,1.576,22.066,2.963,10.438,7.574,16.2,11.279,20.823,3.866,4.827,6.919,8.639,6.941,15.526.029,9.065-5.27,16.108-10.394,22.919a61.446,61.446,0,0,1-20.383,17.351A.178.178,0,0,1,1007.637,668.909Z" transform="translate(-993.024 -475.011)" fill="#fff" opacity="0.7" style="mix-blend-mode: soft-light;isolation: isolate"/>
              <path id="Path_6463" data-name="Path 6463" d="M874.244,1047.4a.177.177,0,0,1-.124-.05c-13.041-12.658-18.936-24.157-21.585-31.574-2.875-8.05-2.656-13.181-2.654-13.232a.178.178,0,1,1,.355.018c0,.05-.216,5.127,2.642,13.117,2.638,7.377,8.508,18.815,21.49,31.416a.178.178,0,0,1-.124.306Z" transform="translate(-849.506 -947.888)" fill="#fff" opacity="0.7" style="mix-blend-mode: soft-light;isolation: isolate"/>
              <path id="Path_6464" data-name="Path 6464" d="M1181.563,1198.927a.178.178,0,0,1-.107-.32c17.452-13.1,22.508-28.288,23.677-38.728a48.743,48.743,0,0,0-1.662-19.729.178.178,0,0,1,.336-.119,49.123,49.123,0,0,1,1.682,19.871c-1.174,10.514-6.258,25.813-23.819,38.99A.177.177,0,0,1,1181.563,1198.927Z" transform="translate(-1151.426 -1073.146)" fill="#fff" opacity="0.7" style="mix-blend-mode: soft-light;isolation: isolate"/>
              <path id="Path_6465" data-name="Path 6465" d="M886.389,1856.005a.18.18,0,0,1-.057-.01c-19.735-6.686-29.722-17.78-34.624-25.909-5.316-8.816-5.968-16.154-5.974-16.227a.178.178,0,1,1,.355-.029c.006.072.655,7.343,5.934,16.09,4.872,8.072,14.8,19.091,34.423,25.739a.178.178,0,0,1-.057.347Z" transform="translate(-845.733 -1686.764)" fill="#fff" opacity="0.7" style="mix-blend-mode: soft-light;isolation: isolate"/>
              <path id="Path_6466" data-name="Path 6466" d="M1068.018,441.229a.178.178,0,0,1-.126-.3c11.734-11.714,13.627-24.358,13.149-32.9a43.591,43.591,0,0,0-3.884-15.89.178.178,0,0,1,.316-.163A43.989,43.989,0,0,1,1081.4,408c.482,8.616-1.425,21.366-13.252,33.173A.177.177,0,0,1,1068.018,441.229Z" transform="translate(-1048.016 -391.874)" fill="#fff" opacity="0.7" style="mix-blend-mode: soft-light;isolation: isolate"/>
            </g>
          </g>
        </g>
      </g>
      <g id="Group_3185" data-name="Group 3185" transform="translate(0 40.072)">
        <g id="Group_3184" data-name="Group 3184">
          <g id="Group_3183" data-name="Group 3183">
            <path id="Path_6468" data-name="Path 6468" d="M500.062,1139.943a14.751,14.751,0,0,0,6.01-3.506c4.579-6.416,13.934-17.872,13.059-26.159-.149-1.415-6.553-2.439-7.5-3.7-3.924-1.644-5.388-1.97-8.351-5.366-8.748-10.024,9.2-30.438-13.054-36.29-16.3-4.287-29.612,1.876-29.039-23.145s-21.31-69.553-46.84-50.935c-14.652,10.685,1.674,31.183-5.378,47.187-6.7,15.208.168,27.155,16.373,35.345s8.087,15.439,4.152,29.779c-4.727,17.225,21.517,19.023,33.7,18.819C473.01,1121.807,498.111,1128.011,500.062,1139.943Z" transform="translate(-406.418 -986.412)" fill="url(#linear-gradient-4)"/>
            <g id="Group_3182" data-name="Group 3182" clip-path="url(#clip-path-2)">
              <g id="Group_3181" data-name="Group 3181" transform="translate(-3.325 -3.47)" opacity="0.3">
                <g id="Group_3180" data-name="Group 3180">
                  <path id="Path_6469" data-name="Path 6469" d="M657.578,1088.671l.151-.349c-53.826-23.213-88.046-75.846-91.54-140.792l-.38.02c1.656,30.78,10.587,59.894,25.827,84.194A145.95,145.95,0,0,0,657.578,1088.671Z" transform="translate(-548.257 -947.529)" fill="#fcfdfe"/>
                  <path id="Path_6470" data-name="Path 6470" d="M632.354,2314.056c14.986-5.7,40.433-7.013,56.725-2.932l.092-.369c-16.356-4.1-41.9-2.776-56.952,2.945Z" transform="translate(-608.74 -2186.911)" fill="#fcfdfe"/>
                  <path id="Path_6471" data-name="Path 6471" d="M1362.408,1906.11l.241-.294c-6.744-5.543-10.427-14.283-10.946-25.977-.38-8.574.917-18.508,3.858-29.525l-.368-.1c-2.95,11.054-4.253,21.026-3.87,29.64C1351.848,1891.662,1355.577,1900.5,1362.408,1906.11Z" transform="translate(-1263.601 -1769.646)" fill="#fcfdfe"/>
                  <path id="Path_6472" data-name="Path 6472" d="M410.51,1711.622l.256-.281c-12.175-11.1-29.346-13.428-41.607-13.424v.381C381.354,1698.293,398.425,1700.6,410.51,1711.622Z" transform="translate(-369.16 -1630.941)" fill="#fcfdfe"/>
                  <path id="Path_6473" data-name="Path 6473" d="M655.554,1018.657l.378-.045c-2.2-18.432,7.689-35.223,13.778-43.591l-.308-.224C663.28,983.21,653.341,1000.1,655.554,1018.657Z" transform="translate(-629.704 -972.363)" fill="#fcfdfe"/>
                </g>
              </g>
            </g>
          </g>
        </g>
      </g>
    </g>
    <g id="Group_3189" data-name="Group 3189" transform="translate(374.019 596.93)">
      <path id="Path_6475" data-name="Path 6475" d="M620.9,3138.3l-142.448-1.241v3.671a1.947,1.947,0,0,0,1.463,1.994l40.28,7.229a5.538,5.538,0,0,0,1.445.068l97.712-8.241a1.854,1.854,0,0,0,1.548-1.947Z" transform="translate(-476.932 -3065.214)" fill="url(#linear-gradient-5)"/>
      <path id="Path_6476" data-name="Path 6476" d="M559.578,2399.225l-95.025,6.715a2.83,2.83,0,0,1-3.083-2.852v-67.931a3.078,3.078,0,0,1,3.083-3.07h95.025a2.662,2.662,0,0,1,2.534,2.775v61.408A2.9,2.9,0,0,1,559.578,2399.225Z" transform="translate(-461.471 -2332.087)" fill="url(#linear-gradient-6)"/>
      <path id="Path_6477" data-name="Path 6477" d="M576.554,2399.225l-95.025,6.715a2.83,2.83,0,0,1-3.083-2.852v-67.931a3.078,3.078,0,0,1,3.083-3.07h95.025a2.662,2.662,0,0,1,2.534,2.775v61.408A2.9,2.9,0,0,1,576.554,2399.225Z" transform="translate(-476.932 -2332.087)" fill="url(#linear-gradient-7)"/>
      <path id="Path_6478" data-name="Path 6478" d="M615.772,2435.141l-88.505,5.833a2.319,2.319,0,0,1-2.508-2.341v-59.474a2.521,2.521,0,0,1,2.508-2.517l88.505-.366a2.181,2.181,0,0,1,2.09,2.274v54.17A2.376,2.376,0,0,1,615.772,2435.141Z" transform="translate(-519.109 -2372.332)" fill="#fff"/>
      <path id="Path_6479" data-name="Path 6479" d="M1060.575,2341.25a1.1,1.1,0,1,1-1.093-1.142A1.123,1.123,0,0,1,1060.575,2341.25Z" transform="translate(-1005.109 -2339.392)" fill="#fff"/>
      <path id="Path_6480" data-name="Path 6480" d="M574.183,3080.68l-95.736,7.068,41.743,7.491a5.538,5.538,0,0,0,1.445.068l99.26-8.372-45.189-6.207A7.254,7.254,0,0,0,574.183,3080.68Z" transform="translate(-476.932 -3013.846)" fill="url(#linear-gradient-7)"/>
      <path id="Path_6481" data-name="Path 6481" d="M634.958,3101.125l79.7-5.972,24.668,3.361-79.017,6.384Z" transform="translate(-619.473 -3027.045)" opacity="0.3" fill="url(#linear-gradient-7)" style="mix-blend-mode: multiply;isolation: isolate"/>
      <g id="Group_3188" data-name="Group 3188" transform="translate(5.638 3.944)">
        <path id="Path_6482" data-name="Path 6482" d="M617.762,2387.775l-93.126,1.157v-10.52a2.136,2.136,0,0,1,2.136-2.136h88.854a2.136,2.136,0,0,1,2.136,2.136Z" transform="translate(-524.636 -2376.276)" fill="url(#linear-gradient-10)"/>
        <g id="Group_3187" data-name="Group 3187" transform="translate(5.733 15.603)">
          <path id="Path_6483" data-name="Path 6483" d="M641.517,2580.29l-52.652,2.176v-24.871l52.652-.883Z" transform="translate(-588.866 -2556.209)" fill="url(#linear-gradient-11)"/>
          <path id="Path_6484" data-name="Path 6484" d="M1240.405,2573.927l-26.852,1.11v-23.5l26.852-.45Z" transform="translate(-1157.796 -2551.084)" fill="url(#linear-gradient-12)"/>
          <path id="Path_6485" data-name="Path 6485" d="M671.474,2854.406l-82.609,4.918v-15.213l82.609-3.678Z" transform="translate(-588.866 -2814.607)" fill="url(#linear-gradient-13)"/>
        </g>
        <path id="Path_6486" data-name="Path 6486" d="M573.106,2430.195a1.247,1.247,0,0,1-1.289,1.187,1.23,1.23,0,0,1-1.292-1.171,1.247,1.247,0,0,1,1.292-1.186A1.23,1.23,0,0,1,573.106,2430.195Z" transform="translate(-566.429 -2424.316)" fill="#9d3060"/>
        <path id="Path_6487" data-name="Path 6487" d="M625.572,2429.947a1.238,1.238,0,0,1-1.277,1.181,1.221,1.221,0,0,1-1.28-1.166,1.238,1.238,0,0,1,1.28-1.181A1.221,1.221,0,0,1,625.572,2429.947Z" transform="translate(-614.234 -2424.094)" fill="#9d3060"/>
        <path id="Path_6488" data-name="Path 6488" d="M677.557,2429.7a1.229,1.229,0,0,1-1.265,1.175,1.212,1.212,0,0,1-1.269-1.161,1.229,1.229,0,0,1,1.269-1.175A1.212,1.212,0,0,1,677.557,2429.7Z" transform="translate(-661.6 -2423.875)" fill="#9d3060"/>
      </g>
      <path id="Path_6489" data-name="Path 6489" d="M553.66,2380.594c-7.326-3.941-13.086,1.053-18.644-3.875-3.37-2.988-1.716-5.215-5.862-9.68-4.593-4.945-7.583-3.283-12.2-7.733-5.836-5.627-2.917-10.005-7.945-14.045-6.1-4.9-12.676-.365-18.482-5.065a14.184,14.184,0,0,1-4.6-8.109h-5.681a1.8,1.8,0,0,0-1.8,1.8v70.417a1.657,1.657,0,0,0,1.8,1.674l96.845-6.874a1.56,1.56,0,0,0,1.167-.714c-7.089-.259-11.445-2.635-14.229-5.092C558.588,2388.494,559.533,2383.754,553.66,2380.594Z" transform="translate(-476.932 -2332.087)" fill="#fff" opacity="0.48" style="mix-blend-mode: soft-light;isolation: isolate"/>
    </g>
    <g id="Group_3195" data-name="Group 3195" transform="translate(491.634 558.036)">
      <path id="Path_6490" data-name="Path 6490" d="M2331.176,2923.868a6.505,6.505,0,0,1-4.313-4.9l-3.206-15.868-27.426.974-3.375,16.53c-.473,2.315,1.42,4.638,3.6,5.49l11.474,4.49a14.92,14.92,0,0,0,6.708.973l24.249-2.075a1.5,1.5,0,0,0,1.36-1.333c.082-.715.579-1.518-.1-1.742Z" transform="translate(-2246.944 -2813.242)" fill="#97a6b7"/>
      <path id="Path_6491" data-name="Path 6491" d="M2340.883,2915.719a6.448,6.448,0,0,1-4.309-4.836l-3.2-15.668-26.757.963-3.372,16.323a4.776,4.776,0,0,0,2.954,5.42l11.463,4.433a15.062,15.062,0,0,0,6.7.96l24.225-2.048a1.495,1.495,0,0,0,.34-2.91Z" transform="translate(-2256.38 -2806.058)" fill="url(#linear-gradient-14)"/>
      <path id="Path_6492" data-name="Path 6492" d="M1907.513,1975.157v-71.15a2.8,2.8,0,0,0-2.676-2.76l-122.237-4.914a3.068,3.068,0,0,0-3.387,2.856v78.632Z" transform="translate(-1779.213 -1896.33)" fill="url(#linear-gradient-15)"/>
      <g id="Group_3191" data-name="Group 3191" transform="translate(3.781 4.136)">
        <path id="Path_6493" data-name="Path 6493" d="M1821.572,2050.974V2112.4a2.893,2.893,0,0,0,3.145,2.7l116.011-3.3a2.6,2.6,0,0,0,2.515-2.558v-54.782Z" transform="translate(-1821.572 -2041.307)" fill="#fff"/>
        <path id="Path_6494" data-name="Path 6494" d="M1943.242,1955.817v-6.287a2.57,2.57,0,0,0-2.463-2.527l-116.127-4.332a2.8,2.8,0,0,0-3.08,2.615v7.049Z" transform="translate(-1821.572 -1942.668)" fill="url(#linear-gradient-16)"/>
        <g id="Group_3190" data-name="Group 3190" transform="translate(6.335 3.892)">
          <path id="Path_6495" data-name="Path 6495" d="M1894.705,1987.263a.983.983,0,0,1-1.075.922,1.064,1.064,0,0,1-1.078-.992.983.983,0,0,1,1.078-.922A1.064,1.064,0,0,1,1894.705,1987.263Z" transform="translate(-1892.552 -1986.27)" fill="#9d3060"/>
          <path id="Path_6496" data-name="Path 6496" d="M1946.888,1989.03a.974.974,0,0,1-1.063.917,1.054,1.054,0,0,1-1.065-.986.974.974,0,0,1,1.065-.917A1.054,1.054,0,0,1,1946.888,1989.03Z" transform="translate(-1940.1 -1987.885)" fill="#9d3060"/>
          <path id="Path_6497" data-name="Path 6497" d="M1998.462,1990.776a.964.964,0,0,1-1.05.911,1.044,1.044,0,0,1-1.053-.98.965.965,0,0,1,1.053-.911A1.044,1.044,0,0,1,1998.462,1990.776Z" transform="translate(-1987.093 -1989.48)" fill="#9d3060"/>
        </g>
      </g>
      <path id="Path_6498" data-name="Path 6498" d="M1779.213,2777.5v15.7a3.061,3.061,0,0,0,3.387,2.85l122.237-5.168a2.812,2.812,0,0,0,2.676-2.766v-13.74Z" transform="translate(-1779.213 -2696.012)" fill="url(#linear-gradient-17)"/>
      <g id="Group_3193" data-name="Group 3193" transform="translate(12.688 20.448)">
        <g id="Group_3192" data-name="Group 3192">
          <path id="Path_6499" data-name="Path 6499" d="M1988.773,2153.2l-67.4.365v-28.145l67.4,1.226Z" transform="translate(-1921.369 -2125.421)" fill="url(#linear-gradient-18)"/>
          <path id="Path_6500" data-name="Path 6500" d="M2754.968,2166.24l-34.107.185v-26.46l34.107.621Z" transform="translate(-2649.502 -2138.667)" fill="url(#linear-gradient-19)"/>
          <path id="Path_6501" data-name="Path 6501" d="M2026.834,2487.574l-105.466,2.42v-17.216l105.466-.9Z" transform="translate(-1921.369 -2440.958)" fill="url(#linear-gradient-20)"/>
        </g>
      </g>
      <g id="Group_3194" data-name="Group 3194" transform="translate(0 0)" opacity="0.48" style="mix-blend-mode: soft-light;isolation: isolate">
        <path id="Path_6502" data-name="Path 6502" d="M1894.273,1965.971c-10.04-3.391-18.345,3.526-25.562-1.92-8.136-6.14-1.56-17.935-9.086-24.884-10.454-9.653-31.355,5.317-40.433-3.783-6.241-6.257,1.121-16.273-4.164-26.811-2.687-5.357-7.722-9.01-13.834-11.493l-18.6-.748a3.068,3.068,0,0,0-3.387,2.856v94.335a3.061,3.061,0,0,0,3.387,2.85l122.237-5.168a2.812,2.812,0,0,0,2.676-2.766v-10.153C1903.208,1970.678,1898.456,1967.384,1894.273,1965.971Z" transform="translate(-1779.213 -1896.33)" fill="#fff"/>
      </g>
    </g>
    <g id="Group_3199" data-name="Group 3199" transform="translate(424.552 438.352)">
      <g id="Group_3198" data-name="Group 3198" transform="translate(0)" style="isolation: isolate">
        <g id="Group_3196" data-name="Group 3196" transform="translate(0 2.997)">
          <path id="Path_6503" data-name="Path 6503" d="M1120.434,589.039c18.667.978,34.446,17.682,35.247,37.312a36.54,36.54,0,0,1-.179,5.475,25.319,25.319,0,0,1,10.613-1.678c15.405.807,28.43,14.6,29.091,30.8.628,15.395-10.131,27.427-24.421,27.9-.75.022-1.51.015-2.277-.025l-127.679-7.123a17.892,17.892,0,0,1-13.183-16.515c-.363-8.9,6.207-15.766,14.676-15.322a15.431,15.431,0,0,1,5.158,1.189,39.886,39.886,0,0,1-1.31-8.628c-.828-20.294,14.143-35.923,33.435-34.912a35.088,35.088,0,0,1,10.373,2.166A30.173,30.173,0,0,1,1120.434,589.039Z" transform="translate(-1027.631 -588.995)" fill="#413974"/>
        </g>
        <g id="Group_3197" data-name="Group 3197" transform="translate(5.105)">
          <path id="Path_6504" data-name="Path 6504" d="M1177.634,555.461c18.667.978,34.446,17.682,35.247,37.312a36.507,36.507,0,0,1-.179,5.475,25.319,25.319,0,0,1,10.613-1.678c15.406.807,28.43,14.6,29.091,30.8.628,15.395-10.131,27.427-24.421,27.9-.75.022-1.51.016-2.276-.025l-127.679-7.123a17.893,17.893,0,0,1-13.183-16.515c-.363-8.9,6.207-15.766,14.676-15.322a15.435,15.435,0,0,1,5.158,1.188,39.877,39.877,0,0,1-1.31-8.627c-.828-20.294,14.143-35.923,33.435-34.912a35.087,35.087,0,0,1,10.373,2.166A30.173,30.173,0,0,1,1177.634,555.461Z" transform="translate(-1084.831 -555.417)" fill="url(#linear-gradient-21)"/>
        </g>
      </g>
    </g>
    <g id="Group_3203" data-name="Group 3203" transform="translate(403.366 540.088)">
      <g id="Group_3202" data-name="Group 3202" transform="translate(0)" style="isolation: isolate">
        <g id="Group_3200" data-name="Group 3200" transform="translate(0 2.413)">
          <path id="Path_6505" data-name="Path 6505" d="M824.916,1722.295c6.968.365,12.861,6.6,13.16,13.931a13.536,13.536,0,0,1-.068,2.044,9.454,9.454,0,0,1,3.962-.627c5.751.3,10.613,5.448,10.859,11.5.234,5.75-3.781,10.242-9.116,10.416-.28.008-.563.007-.85-.009l-47.665-2.659a6.681,6.681,0,0,1-4.924-6.165,5.26,5.26,0,0,1,5.482-5.72,5.744,5.744,0,0,1,1.923.443,14.981,14.981,0,0,1-.489-3.22c-.309-7.576,5.279-13.413,12.483-13.036a13.116,13.116,0,0,1,3.872.81A11.264,11.264,0,0,1,824.916,1722.295Z" transform="translate(-790.269 -1722.278)" fill="#413974"/>
        </g>
        <g id="Group_3201" data-name="Group 3201" transform="translate(3.179)">
          <path id="Path_6506" data-name="Path 6506" d="M860.533,1695.263c6.968.365,12.861,6.6,13.16,13.931a13.547,13.547,0,0,1-.068,2.044,9.452,9.452,0,0,1,3.962-.627c5.751.3,10.613,5.448,10.859,11.5.235,5.75-3.781,10.241-9.116,10.415-.28.008-.563.007-.85-.008l-47.665-2.659a6.681,6.681,0,0,1-4.924-6.165,5.26,5.26,0,0,1,5.482-5.72,5.745,5.745,0,0,1,1.923.443,14.967,14.967,0,0,1-.489-3.22c-.309-7.576,5.279-13.413,12.483-13.036a13.1,13.1,0,0,1,3.872.81A11.264,11.264,0,0,1,860.533,1695.263Z" transform="translate(-825.886 -1695.246)" fill="#f8f8f8"/>
        </g>
      </g>
    </g>
    <g id="Group_3207" data-name="Group 3207" transform="translate(549.05 508.243)">
      <g id="Group_3206" data-name="Group 3206" transform="translate(0)" style="isolation: isolate">
        <g id="Group_3204" data-name="Group 3204" transform="translate(0 2.477)">
          <path id="Path_6507" data-name="Path 6507" d="M2457.134,1366.233c6.968.365,12.861,6.6,13.16,13.931a13.908,13.908,0,0,1-.067,2.044,9.453,9.453,0,0,1,3.962-.627c5.751.3,10.613,5.448,10.859,11.5.234,5.747-3.781,10.239-9.116,10.416-.28.008-.563.007-.85-.008l-47.668-2.66a6.681,6.681,0,0,1-4.921-6.165,5.26,5.26,0,0,1,5.479-5.72,5.744,5.744,0,0,1,1.926.443,14.984,14.984,0,0,1-.489-3.22c-.309-7.576,5.279-13.413,12.483-13.035a13.105,13.105,0,0,1,3.872.81A11.263,11.263,0,0,1,2457.134,1366.233Z" transform="translate(-2422.487 -1366.216)" fill="#413974"/>
        </g>
        <g id="Group_3205" data-name="Group 3205" transform="translate(3.023)">
          <path id="Path_6508" data-name="Path 6508" d="M2491,1338.477c6.968.365,12.861,6.6,13.16,13.932a13.94,13.94,0,0,1-.067,2.044,9.452,9.452,0,0,1,3.961-.627c5.751.3,10.613,5.448,10.86,11.5.235,5.747-3.781,10.239-9.116,10.416-.28.008-.563.007-.85-.008l-47.668-2.66a6.682,6.682,0,0,1-4.921-6.165,5.26,5.26,0,0,1,5.479-5.72,5.744,5.744,0,0,1,1.926.443,14.983,14.983,0,0,1-.489-3.22c-.309-7.576,5.279-13.413,12.483-13.036a13.108,13.108,0,0,1,3.872.81A11.264,11.264,0,0,1,2491,1338.477Z" transform="translate(-2456.354 -1338.46)" fill="url(#linear-gradient-22)"/>
        </g>
      </g>
    </g>
    <g id="Group_3212" data-name="Group 3212" transform="translate(439.873 525.765)">
      <g id="Group_3208" data-name="Group 3208" transform="translate(33.535)">
        <path id="Path_6509" data-name="Path 6509" d="M1650.093,1541.295a1.273,1.273,0,0,1-1.273-1.273v-3.978a1.273,1.273,0,0,1,2.546,0v3.978A1.273,1.273,0,0,1,1650.093,1541.295Z" transform="translate(-1642.232 -1534.772)" fill="#413974"/>
        <path id="Path_6510" data-name="Path 6510" d="M1650.093,1747.615a1.273,1.273,0,0,1-1.273-1.273v-8.2a1.273,1.273,0,1,1,2.546,0v8.2A1.273,1.273,0,0,1,1650.093,1747.615Zm0-16.406a1.273,1.273,0,0,1-1.273-1.273v-8.2a1.273,1.273,0,0,1,2.546,0v8.2A1.273,1.273,0,0,1,1650.093,1731.209Zm0-16.407a1.273,1.273,0,0,1-1.273-1.273v-8.2a1.273,1.273,0,0,1,2.546,0v8.2A1.273,1.273,0,0,1,1650.093,1714.8Zm0-16.406a1.273,1.273,0,0,1-1.273-1.273v-8.2a1.273,1.273,0,1,1,2.546,0v8.2A1.273,1.273,0,0,1,1650.093,1698.4Zm0-16.406a1.273,1.273,0,0,1-1.273-1.273v-8.2a1.273,1.273,0,0,1,2.546,0v8.2A1.273,1.273,0,0,1,1650.093,1681.99Z" transform="translate(-1642.232 -1659.06)" fill="#413974"/>
        <path id="Path_6511" data-name="Path 6511" d="M1584.145,2596.859l-7.886-.157a1.273,1.273,0,0,1,.025-2.545h.026l5.29.1v-2.679a1.273,1.273,0,0,1,2.545,0Z" transform="translate(-1575.011 -2496.099)" fill="#413974"/>
      </g>
      <g id="Group_3209" data-name="Group 3209" transform="translate(98.477 3.818)">
        <path id="Path_6512" data-name="Path 6512" d="M2303.88,1584.074a1.273,1.273,0,0,1-1.273-1.273v-3.978a1.273,1.273,0,0,1,2.545,0v3.978A1.273,1.273,0,0,1,2303.88,1584.074Z" transform="translate(-2302.607 -1577.551)" fill="#413974"/>
        <path id="Path_6513" data-name="Path 6513" d="M2303.88,1716.1a1.273,1.273,0,0,1-1.273-1.273v-7.493a1.273,1.273,0,0,1,2.545,0v7.493A1.273,1.273,0,0,1,2303.88,1716.1Z" transform="translate(-2302.607 -1694.593)" fill="#413974"/>
        <path id="Path_6514" data-name="Path 6514" d="M2303.88,1880.49a1.273,1.273,0,0,1-1.273-1.273v-3.977a1.273,1.273,0,0,1,2.545,0v3.977A1.273,1.273,0,0,1,2303.88,1880.49Z" transform="translate(-2302.607 -1847.51)" fill="#413974"/>
      </g>
      <g id="Group_3210" data-name="Group 3210" transform="translate(134.535 8.909)">
        <path id="Path_6515" data-name="Path 6515" d="M2707.874,1641.113a1.273,1.273,0,0,1-1.273-1.273v-3.977a1.273,1.273,0,1,1,2.545,0v3.977A1.273,1.273,0,0,1,2707.874,1641.113Z" transform="translate(-2706.601 -1634.59)" fill="#413974"/>
        <path id="Path_6516" data-name="Path 6516" d="M2707.874,1756.315a1.273,1.273,0,0,1-1.273-1.273v-6.114a1.273,1.273,0,0,1,2.545,0v6.114A1.273,1.273,0,0,1,2707.874,1756.315Z" transform="translate(-2706.601 -1737.563)" fill="#413974"/>
        <path id="Path_6517" data-name="Path 6517" d="M2707.874,1891.185a1.273,1.273,0,0,1-1.273-1.273v-3.977a1.273,1.273,0,1,1,2.545,0v3.977A1.273,1.273,0,0,1,2707.874,1891.185Z" transform="translate(-2706.601 -1862.342)" fill="#413974"/>
      </g>
      <g id="Group_3211" data-name="Group 3211" transform="translate(0 41.962)">
        <path id="Path_6518" data-name="Path 6518" d="M1200.566,2011.428a1.273,1.273,0,0,1-1.273-1.273v-3.977a1.273,1.273,0,1,1,2.545,0v3.977A1.273,1.273,0,0,1,1200.566,2011.428Z" transform="translate(-1199.293 -2004.905)" fill="#413974"/>
        <path id="Path_6519" data-name="Path 6519" d="M1200.566,2126.63a1.273,1.273,0,0,1-1.273-1.273v-6.114a1.273,1.273,0,0,1,2.545,0v6.114A1.273,1.273,0,0,1,1200.566,2126.63Z" transform="translate(-1199.293 -2107.878)" fill="#413974"/>
        <path id="Path_6520" data-name="Path 6520" d="M1200.566,2261.5a1.273,1.273,0,0,1-1.273-1.273v-3.977a1.273,1.273,0,0,1,2.545,0v3.977A1.273,1.273,0,0,1,1200.566,2261.5Z" transform="translate(-1199.293 -2232.657)" fill="#413974"/>
      </g>
    </g>
    <g id="Group_3218" data-name="Group 3218" transform="translate(462.582 458.328)" opacity="0.5">
      <path id="Path_6521" data-name="Path 6521" d="M1940.65,781.1l-22.918-1.871a3.741,3.741,0,0,0-3.877,3.9l-.155,7.123a4.3,4.3,0,0,0,3.695,4.506l22.919,1.8a3.724,3.724,0,0,0,3.837-3.888l.154-7.08A4.285,4.285,0,0,0,1940.65,781.1Z" transform="translate(-1872.644 -779.216)" fill="#fff"/>
      <g id="Group_3213" data-name="Group 3213" transform="translate(0 23.168)">
        <path id="Path_6522" data-name="Path 6522" d="M1985.384,1077.457l-16.077-1.229a1.953,1.953,0,0,0-2.017,2.03l-.175,8.052a2.221,2.221,0,0,0,1.922,2.326l16.078,1.189a1.948,1.948,0,0,0,2-2.027l.174-8.02A2.216,2.216,0,0,0,1985.384,1077.457Z" transform="translate(-1921.292 -1072.882)" fill="#fff"/>
        <path id="Path_6523" data-name="Path 6523" d="M2244.455,1097.242l-15.931-1.218a1.94,1.94,0,0,0-2,2.021l-.174,8.015a2.206,2.206,0,0,0,1.9,2.315l15.931,1.178a1.936,1.936,0,0,0,1.985-2.019l.173-7.984A2.2,2.2,0,0,0,2244.455,1097.242Z" transform="translate(-2157.39 -1090.912)" fill="#fff"/>
        <path id="Path_6524" data-name="Path 6524" d="M1471.991,1040.025l-16.077-1.229a1.953,1.953,0,0,0-2.017,2.03l-.175,8.052a2.221,2.221,0,0,0,1.922,2.326l16.078,1.189a1.948,1.948,0,0,0,2-2.027l.174-8.02A2.216,2.216,0,0,0,1471.991,1040.025Z" transform="translate(-1453.722 -1038.791)" fill="#fff"/>
        <path id="Path_6525" data-name="Path 6525" d="M1731.061,1059.81l-15.931-1.218a1.941,1.941,0,0,0-2,2.021l-.174,8.015a2.207,2.207,0,0,0,1.9,2.315l15.931,1.178a1.936,1.936,0,0,0,1.985-2.019l.173-7.984A2.2,2.2,0,0,0,1731.061,1059.81Z" transform="translate(-1689.819 -1056.821)" fill="#fff"/>
        <path id="Path_6526" data-name="Path 6526" d="M2501.17,1116.848l-15.786-1.207a1.928,1.928,0,0,0-1.981,2.013l-.173,7.979a2.193,2.193,0,0,0,1.887,2.3l15.787,1.168a1.924,1.924,0,0,0,1.967-2.01l.172-7.948A2.187,2.187,0,0,0,2501.17,1116.848Z" transform="translate(-2391.341 -1108.778)" fill="#fff"/>
      </g>
      <g id="Group_3214" data-name="Group 3214" transform="translate(32.621 17.074)">
        <path id="Path_6527" data-name="Path 6527" d="M2078.165,982.678l-.719-.055.186-8.548.719.056Z" transform="translate(-2054.396 -973.756)" fill="#fff"/>
        <path id="Path_6528" data-name="Path 6528" d="M1819.933,977.666l-.726-.056.047-2.174a1.9,1.9,0,0,1,1.96-1.974l15.9,1.232a1.173,1.173,0,0,0,1.208-1.221l.064-2.961.72.056-.064,2.961a1.89,1.89,0,0,1-1.946,1.967l-15.9-1.23a1.179,1.179,0,0,0-1.216,1.226Z" transform="translate(-1819.207 -970.511)" fill="#fff"/>
        <path id="Path_6529" data-name="Path 6529" d="M2143.584,987.669l-.713-.055.047-2.155a1.331,1.331,0,0,0-1.139-1.4l-15.727-1.216a2.156,2.156,0,0,1-1.847-2.258l.064-2.956.718.056-.064,2.956a1.338,1.338,0,0,0,1.146,1.4l15.726,1.219a2.145,2.145,0,0,1,1.834,2.249Z" transform="translate(-2096.983 -976.997)" fill="#fff"/>
      </g>
      <g id="Group_3215" data-name="Group 3215" transform="translate(10.431 37.725)">
        <path id="Path_6530" data-name="Path 6530" d="M1589.969,1211.915l-.713-.055.047-2.155a1.332,1.332,0,0,0-1.139-1.4l-15.726-1.217a2.155,2.155,0,0,1-1.847-2.258l.064-2.956.718.056-.064,2.956a1.338,1.338,0,0,0,1.147,1.4l15.726,1.219a2.145,2.145,0,0,1,1.834,2.249Z" transform="translate(-1570.59 -1201.879)" fill="#fff"/>
      </g>
      <g id="Group_3216" data-name="Group 3216" transform="translate(22.203 48.365)">
        <path id="Path_6531" data-name="Path 6531" d="M1720.751,1322.245l-16.078-1.154a1.964,1.964,0,0,0-2.017,2.039l-.175,8.052a2.209,2.209,0,0,0,1.922,2.317l16.079,1.114a1.959,1.959,0,0,0,2-2.036l.174-8.02A2.2,2.2,0,0,0,1720.751,1322.245Z" transform="translate(-1702.48 -1321.087)" fill="#fff"/>
        <path id="Path_6532" data-name="Path 6532" d="M1979.847,1340.823l-15.932-1.143a1.951,1.951,0,0,0-2,2.03l-.174,8.015a2.194,2.194,0,0,0,1.9,2.306l15.933,1.1a1.947,1.947,0,0,0,1.985-2.027l.173-7.984A2.189,2.189,0,0,0,1979.847,1340.823Z" transform="translate(-1938.601 -1338.016)" fill="#fff"/>
        <path id="Path_6533" data-name="Path 6533" d="M2236.588,1359.233,2220.8,1358.1a1.939,1.939,0,0,0-1.981,2.022l-.173,7.979a2.18,2.18,0,0,0,1.887,2.295l15.789,1.094a1.934,1.934,0,0,0,1.967-2.019l.172-7.948A2.175,2.175,0,0,0,2236.588,1359.233Z" transform="translate(-2172.575 -1354.792)" fill="#fff"/>
      </g>
      <g id="Group_3217" data-name="Group 3217" transform="translate(32.11 40.563)">
        <path id="Path_6534" data-name="Path 6534" d="M2072.457,1245.632l-.719-.052.186-8.548.719.053Z" transform="translate(-2048.686 -1236.733)" fill="#fff"/>
        <path id="Path_6535" data-name="Path 6535" d="M1814.2,1240.921l-.726-.052.047-2.174a1.91,1.91,0,0,1,1.96-1.983l15.9,1.158a1.18,1.18,0,0,0,1.208-1.227l.064-2.961.721.053-.064,2.961a1.9,1.9,0,0,1-1.946,1.976l-15.9-1.156a1.186,1.186,0,0,0-1.216,1.231Z" transform="translate(-1813.473 -1233.681)" fill="#fff"/>
        <path id="Path_6536" data-name="Path 6536" d="M2137.883,1250.324l-.713-.051.047-2.155a1.324,1.324,0,0,0-1.139-1.391l-15.728-1.143a2.143,2.143,0,0,1-1.847-2.249l.064-2.956.718.053-.064,2.956a1.331,1.331,0,0,0,1.147,1.4l15.728,1.146a2.133,2.133,0,0,1,1.834,2.24Z" transform="translate(-2091.276 -1239.781)" fill="#fff"/>
        <path id="Path_6537" data-name="Path 6537" d="M2368.368,1280.777l.713.048.251-2.141a1.324,1.324,0,0,1,1.32-1.22l15.735,1.039a2.144,2.144,0,0,0,2.14-1.972l.344-2.937-.719-.047-.344,2.937a1.33,1.33,0,0,1-1.328,1.224l-15.736-1.036a2.132,2.132,0,0,0-2.126,1.965Z" transform="translate(-2318.841 -1269.989)" fill="#fff"/>
      </g>
    </g>
  </g>
</svg>
