<svg xmlns="http://www.w3.org/2000/svg" xmlns:xlink="http://www.w3.org/1999/xlink" width="267.158" height="268.852" viewBox="0 0 267.158 268.852">
  <defs>
    <linearGradient id="linear-gradient" x1="1.089" y1="1.009" x2="0.334" y2="0.364" gradientUnits="objectBoundingBox">
      <stop offset="0" stop-color="#dae3fe"/>
      <stop offset="1" stop-color="#e9effd"/>
    </linearGradient>
    <linearGradient id="linear-gradient-2" x1="0.397" y1="-0.354" x2="-0.376" y2="1.649" gradientUnits="objectBoundingBox">
      <stop offset="0" stop-color="#0f8faf"/>
      <stop offset="1" stop-color="#10b5df"/>
    </linearGradient>
    <linearGradient id="linear-gradient-3" x1="-0.898" y1="0.932" x2="-0.675" y2="-0.163" gradientUnits="objectBoundingBox">
      <stop offset="0" stop-color="#09005d"/>
      <stop offset="1" stop-color="#1a0f91"/>
    </linearGradient>
    <linearGradient id="linear-gradient-4" x1="-0.284" y1="-1.658" x2="-1.176" y2="3.408" xlink:href="#linear-gradient-3"/>
    <linearGradient id="linear-gradient-5" x1="1.547" y1="-0.453" x2="1.146" y2="-0.125" gradientUnits="objectBoundingBox">
      <stop offset="0" stop-color="#ff928e"/>
      <stop offset="1" stop-color="#fe7062"/>
    </linearGradient>
    <linearGradient id="linear-gradient-6" x1="5.381" y1="0.417" x2="6.04" y2="1.226" xlink:href="#linear-gradient-3"/>
    <linearGradient id="linear-gradient-7" x1="7.783" y1="0.26" x2="9.144" y2="1.995" xlink:href="#linear-gradient-3"/>
    <linearGradient id="linear-gradient-8" x1="1.61" y1="0.212" x2="1.158" y2="0.899" gradientUnits="objectBoundingBox">
      <stop offset="0" stop-color="#febbba"/>
      <stop offset="1" stop-color="#ff928e"/>
    </linearGradient>
    <linearGradient id="linear-gradient-9" x1="1.576" y1="-0.457" x2="0.358" y2="0.524" xlink:href="#linear-gradient-5"/>
    <linearGradient id="linear-gradient-10" x1="0.755" y1="0.791" x2="1.452" y2="-1.379" xlink:href="#linear-gradient-8"/>
    <linearGradient id="linear-gradient-11" x1="-2.192" y1="1.062" x2="-2.081" y2="0.1" xlink:href="#linear-gradient-8"/>
    <linearGradient id="linear-gradient-12" x1="-0.618" y1="0.82" x2="-0.929" y2="-0.114" xlink:href="#linear-gradient-8"/>
    <linearGradient id="linear-gradient-13" x1="-0.349" y1="-0.467" x2="-0.172" y2="0.954" xlink:href="#linear-gradient-3"/>
    <linearGradient id="linear-gradient-14" x1="-8.072" y1="2.058" x2="-9.545" y2="-0.895" xlink:href="#linear-gradient-8"/>
    <linearGradient id="linear-gradient-15" x1="3.36" y1="0.5" x2="4.36" y2="0.5" xlink:href="#linear-gradient-3"/>
    <linearGradient id="linear-gradient-16" x1="2.391" y1="-0.604" x2="1.651" y2="0.973" xlink:href="#linear-gradient-3"/>
    <linearGradient id="linear-gradient-17" x1="2.382" y1="-4.979" x2="-0.903" y2="4.529" gradientUnits="objectBoundingBox">
      <stop offset="0" stop-color="#e1473d"/>
      <stop offset="1" stop-color="#e9605a"/>
    </linearGradient>
    <linearGradient id="linear-gradient-18" x1="1.098" y1="-5.386" x2="0.088" y2="4.552" xlink:href="#linear-gradient-17"/>
    <linearGradient id="linear-gradient-19" x1="0.87" y1="-5.586" x2="0.313" y2="3.494" xlink:href="#linear-gradient-17"/>
  </defs>
  <g id="Group_1861" data-name="Group 1861" transform="translate(-463.815 -455)">
    <path id="Path_4174" data-name="Path 4174" d="M790.711,705.148c-24.8,59.252-90.868,92.445-148.161,83.492-9.323-1.457-34.881-5.8-57.509-26.272C541.479,722.952,532.164,644.9,567.3,589.9c25.576-40.033,71.422-62.726,114.985-61.59,9.384.245,45.345,1.751,76.949,28.193a119.675,119.675,0,0,1,24.108,27.753C805.012,618.635,806.874,666.532,790.711,705.148Z" transform="translate(-74.108 -66.235)" fill="url(#linear-gradient)"/>
    <g id="Group_1415" data-name="Group 1415" transform="translate(463.815 530.869)">
      <path id="Path_4175" data-name="Path 4175" d="M465.287,1342.139a49.018,49.018,0,0,1,69.285-33.15,5.689,5.689,0,0,0,8.036-3.8c8.688-34.528,39.264-60.037,75.654-60.037,43.149,0,78.129,35.866,78.129,80.108,0,1.174-.023,2.778-.043,4.318.153,3.309,1.561,4.713,3.665,5.065,16.906,1.8,30.192,16.094,30.929,33.719.847,20.238-15.218,37-34.973,37H513.23C481.948,1405.365,457.455,1375.562,465.287,1342.139Z" transform="translate(-463.815 -1245.151)" fill="url(#linear-gradient-2)"/>
      <path id="Path_4176" data-name="Path 4176" d="M614.168,1510.5a43.768,43.768,0,0,1,61.863-29.6,5.079,5.079,0,0,0,7.175-3.394c7.757-30.829,35.058-53.6,67.549-53.6,38.527,0,69.759,32.023,69.759,71.526,0,1.048-.021,2.48-.039,3.854.137,2.955,1.395,4.209,3.272,4.524,15.094,1.611,26.957,14.369,27.615,30.106.756,18.07-13.588,33.04-31.227,33.04H656.976C629.045,1566.958,607.176,1540.348,614.168,1510.5Z" transform="translate(-598.543 -1406.744)" fill="#91b3fa" opacity="0.21"/>
    </g>
    <g id="Group_1420" data-name="Group 1420" transform="translate(488.832 621.13)">
      <path id="Path_4177" data-name="Path 4177" d="M828.648,2276.789a2.7,2.7,0,0,0,2.7,2.693H977.1a2.7,2.7,0,0,0,2.7-2.693l1.213-83.76a4.7,4.7,0,0,0-4.943-4.155l-142.447-3.687a6.793,6.793,0,0,0-6.97,6.948Z" transform="translate(-816.824 -2185.185)" fill="url(#linear-gradient-3)"/>
      <path id="Path_4178" data-name="Path 4178" d="M856.094,2304.277a2.557,2.557,0,0,0,2.55,2.55H998.368a2.557,2.557,0,0,0,2.55-2.55l1.145-76.039a6.277,6.277,0,0,0-6.579-6.124l-136.523-3.661a4.772,4.772,0,0,0-4.9,4.884Z" transform="translate(-841.609 -2215.256)" fill="#10b5df"/>
      <g id="Group_1416" data-name="Group 1416" transform="translate(108.599 7.138)">
        <path id="Path_4179" data-name="Path 4179" d="M2364.279,2671h0a.375.375,0,0,1-.371-.379l.091-6.167a.373.373,0,0,1,.374-.368h0a.375.375,0,0,1,.371.379l-.092,6.167A.373.373,0,0,1,2364.279,2671Z" transform="translate(-2315.077 -2625.238)" fill="#fff"/>
        <path id="Path_4180" data-name="Path 4180" d="M1904.814,2290.176h-.005a.374.374,0,0,1-.369-.38l.347-23.619a4.442,4.442,0,0,0-1.266-3.322,6.245,6.245,0,0,0-4.13-1.409l-43.636-1.17a.373.373,0,0,1-.363-.384.357.357,0,0,1,.384-.363l43.61,1.17a6.861,6.861,0,0,1,4.653,1.617,5.154,5.154,0,0,1,1.5,3.865l-.347,23.625A.374.374,0,0,1,1904.814,2290.176Z" transform="translate(-1855.391 -2259.528)" fill="#fff"/>
      </g>
      <rect id="Rectangle_177" data-name="Rectangle 177" width="171.839" height="7.36" rx="3.68" transform="translate(171.839 101.251) rotate(180)" fill="url(#linear-gradient-4)"/>
      <path id="Path_4181" data-name="Path 4181" d="M966.252,2371.493h-53.8a3.592,3.592,0,0,1-3.592-3.593v-70.222a3.593,3.593,0,0,1,3.729-3.59l53.8,2.059a3.592,3.592,0,0,1,3.454,3.589V2367.9A3.592,3.592,0,0,1,966.252,2371.493Z" transform="translate(-891.148 -2283.63)" fill="#0f8faf"/>
      <g id="Group_1417" data-name="Group 1417" transform="translate(28.257 38.006)">
        <rect id="Rectangle_178" data-name="Rectangle 178" width="36.659" height="4.736" rx="2.368" fill="#fff" opacity="0.51"/>
        <rect id="Rectangle_179" data-name="Rectangle 179" width="36.659" height="4.736" rx="2.368" transform="translate(0.072 7.563)" fill="#fff" opacity="0.51"/>
        <rect id="Rectangle_180" data-name="Rectangle 180" width="36.659" height="4.736" rx="2.368" transform="translate(0.287 15.284)" fill="#fff" opacity="0.51"/>
        <rect id="Rectangle_181" data-name="Rectangle 181" width="36.659" height="4.736" rx="2.368" transform="translate(0.359 22.847)" fill="#fff" opacity="0.51"/>
      </g>
      <g id="Group_1419" data-name="Group 1419" transform="translate(90.361 12.86)">
        <rect id="Rectangle_182" data-name="Rectangle 182" width="52.705" height="4.736" rx="2.368" transform="translate(0 25.141)" fill="#fff" opacity="0.51"/>
        <rect id="Rectangle_183" data-name="Rectangle 183" width="52.705" height="4.736" rx="2.368" transform="translate(0.163 32.709)" fill="#fff" opacity="0.51"/>
        <rect id="Rectangle_184" data-name="Rectangle 184" width="31.23" height="4.736" rx="2.368" transform="translate(0.163 40.431)" fill="#fff" opacity="0.51"/>
        <g id="Group_1418" data-name="Group 1418" transform="translate(13.897)" opacity="0.51">
          <path id="Path_4182" data-name="Path 4182" d="M1841.01,2326.606h-.8a.721.721,0,0,1-.722-.721v-2.744a1.779,1.779,0,0,0-1.778-1.779h-4.974a1.779,1.779,0,0,0-1.779,1.779v2.744a.722.722,0,0,1-.722.721h-.8a.721.721,0,0,1-.721-.721v-2.744a4.023,4.023,0,0,1,4.025-4.024h4.974a4.024,4.024,0,0,1,4.025,4.024v2.744A.721.721,0,0,1,1841.01,2326.606Z" transform="translate(-1826.929 -2319.116)" fill="#fff"/>
          <path id="Path_4183" data-name="Path 4183" d="M1825.256,2403.875h-13.571a1.5,1.5,0,0,0-1.506,1.505v10.415a1.505,1.505,0,0,0,1.506,1.506h13.571a1.5,1.5,0,0,0,1.505-1.506V2405.38A1.5,1.5,0,0,0,1825.256,2403.875Zm-4.843,10.066a.558.558,0,0,1-.543.688h-2.8a.557.557,0,0,1-.543-.687l.654-2.718a2.516,2.516,0,1,1,2.577,0Z" transform="translate(-1810.18 -2395.736)" fill="#fff"/>
        </g>
      </g>
    </g>
    <g id="Group_1429" data-name="Group 1429" transform="translate(566.146 455)">
      <g id="Group_1424" data-name="Group 1424" transform="translate(0 0)">
        <g id="Group_1421" data-name="Group 1421" transform="translate(0 51.921)">
          <path id="Path_4184" data-name="Path 4184" d="M2365.208,1114a.319.319,0,0,1-.157-.041.323.323,0,0,1-.126-.439q.313-.562.606-1.13a.323.323,0,1,1,.574.3q-.3.577-.615,1.147A.323.323,0,0,1,2365.208,1114Z" transform="translate(-2284.679 -1101.031)" fill="#91b3fa"/>
          <path id="Path_4185" data-name="Path 4185" d="M1585.6,1080.289q-.286,0-.572,0a.323.323,0,0,1,0-.646h0c.836.011,1.681,0,2.515-.04a.328.328,0,0,1,.338.308.324.324,0,0,1-.309.337C1586.921,1080.275,1586.254,1080.289,1585.6,1080.289Zm-4.678-.252-.035,0c-.844-.091-1.7-.208-2.53-.348a.324.324,0,0,1,.107-.638c.822.138,1.66.254,2.492.344a.323.323,0,0,1-.034.645Zm10.745-.173a.323.323,0,0,1-.046-.643c.828-.117,1.662-.26,2.48-.424a.323.323,0,1,1,.127.634c-.83.167-1.677.312-2.517.43A.425.425,0,0,1,1591.663,1079.864Zm-17.28-1.045a.312.312,0,0,1-.083-.011c-.82-.219-1.643-.464-2.447-.73a.323.323,0,0,1,.2-.614c.792.262,1.6.5,2.41.719a.323.323,0,0,1-.083.636Zm23.772-.386a.324.324,0,0,1-.093-.634c.8-.242,1.6-.512,2.385-.8a.323.323,0,1,1,.223.606c-.794.293-1.608.566-2.422.812A.309.309,0,0,1,1598.155,1078.433Zm-30.044-1.818a.322.322,0,0,1-.131-.027c-.777-.343-1.552-.712-2.3-1.1a.324.324,0,0,1,.3-.576c.741.38,1.5.745,2.27,1.082a.323.323,0,0,1-.13.619Zm36.239-.6a.323.323,0,0,1-.141-.615c.753-.363,1.5-.752,2.235-1.159a.323.323,0,0,1,.314.566c-.742.413-1.5.809-2.268,1.177A.327.327,0,0,1,1604.35,1076.019Zm-42.094-2.547a.319.319,0,0,1-.174-.052c-.714-.458-1.423-.943-2.108-1.441a.324.324,0,0,1,.381-.523c.673.492,1.372.969,2.075,1.42a.323.323,0,0,1-.175.6Zm47.843-.795a.324.324,0,0,1-.184-.59c.687-.474,1.37-.975,2.029-1.489a.324.324,0,0,1,.4.51c-.67.521-1.363,1.03-2.061,1.511A.328.328,0,0,1,1610.1,1072.677Zm-53.143-3.214a.323.323,0,0,1-.215-.081c-.632-.56-1.259-1.148-1.861-1.747a.323.323,0,1,1,.455-.458c.594.59,1.211,1.17,1.835,1.721a.323.323,0,0,1-.214.565Zm58.314-.97a.323.323,0,0,1-.222-.559c.608-.573,1.207-1.171,1.779-1.778a.324.324,0,0,1,.471.445c-.582.615-1.19,1.223-1.806,1.8A.322.322,0,0,1,1615.27,1068.493Zm-62.943-3.8a.322.322,0,0,1-.249-.117c-.542-.65-1.072-1.326-1.576-2.008a.323.323,0,1,1,.52-.385c.5.673,1.019,1.339,1.553,1.98a.323.323,0,0,1-.042.455A.319.319,0,0,1,1552.327,1064.691Zm67.418-1.114a.323.323,0,0,1-.255-.522c.515-.662,1.015-1.345,1.487-2.029a.323.323,0,1,1,.533.366c-.479.7-.986,1.389-1.509,2.06A.325.325,0,0,1,1619.745,1063.577Zm-71.27-4.306a.322.322,0,0,1-.277-.157c-.439-.729-.859-1.479-1.25-2.227a.323.323,0,1,1,.573-.3c.385.737.8,1.475,1.231,2.194a.323.323,0,0,1-.277.49Zm-2.971-5.947a.324.324,0,0,1-.3-.2c-.319-.788-.619-1.593-.89-2.393a.323.323,0,0,1,.612-.208c.267.789.562,1.582.878,2.358a.323.323,0,0,1-.178.421A.32.32,0,0,1,1545.5,1053.324Z" transform="translate(-1542.882 -1045.063)" fill="#91b3fa"/>
          <path id="Path_4186" data-name="Path 4186" d="M1530.159,997.653a.323.323,0,0,1-.314-.249q-.149-.635-.279-1.272a.323.323,0,0,1,.634-.129c.084.419.177.836.274,1.253a.323.323,0,0,1-.24.389A.375.375,0,0,1,1530.159,997.653Z" transform="translate(-1529.559 -995.744)" fill="#91b3fa"/>
        </g>
        <g id="Group_1422" data-name="Group 1422" transform="translate(5.758)">
          <path id="Path_4187" data-name="Path 4187" d="M1589.845,656.021a.323.323,0,0,1-.273-.5q.345-.549.71-1.091a.323.323,0,0,1,.537.361q-.359.533-.7,1.075A.324.324,0,0,1,1589.845,656.021Z" transform="translate(-1589.523 -635.156)" fill="#91b3fa"/>
          <path id="Path_4188" data-name="Path 4188" d="M1699.031,486.695a.324.324,0,0,1-.311-.232c-.247-.843-.524-1.688-.822-2.514a.323.323,0,1,1,.608-.22c.3.838.583,1.7.835,2.552a.324.324,0,0,1-.22.4A.32.32,0,0,1,1699.031,486.695Zm-2.5-6.525a.325.325,0,0,1-.292-.183c-.381-.793-.791-1.583-1.219-2.347a.323.323,0,1,1,.565-.315c.434.776.851,1.577,1.238,2.383a.324.324,0,0,1-.152.431A.319.319,0,0,1,1696.526,480.17ZM1693,474.137a.324.324,0,0,1-.265-.138c-.5-.718-1.035-1.431-1.583-2.119a.323.323,0,0,1,.506-.4c.556.7,1.1,1.422,1.607,2.151a.323.323,0,0,1-.265.509Zm-68.792-2.821a.32.32,0,0,1-.206-.075.323.323,0,0,1-.042-.455c.568-.683,1.165-1.36,1.777-2.012a.323.323,0,0,1,.472.443c-.6.642-1.193,1.31-1.751,1.982A.324.324,0,0,1,1624.2,471.316Zm64.338-2.565a.322.322,0,0,1-.232-.1c-.609-.628-1.248-1.247-1.9-1.84a.323.323,0,0,1,.436-.478c.661.6,1.309,1.231,1.927,1.868a.323.323,0,0,1-.232.548Zm-59.457-2.438a.323.323,0,0,1-.213-.567c.673-.588,1.371-1.161,2.075-1.7a.324.324,0,1,1,.4.512c-.695.536-1.383,1.1-2.045,1.68A.323.323,0,0,1,1629.084,466.313Zm54.2-2.168a.324.324,0,0,1-.192-.063c-.7-.524-1.435-1.032-2.17-1.51a.323.323,0,1,1,.353-.542c.745.486,1.487,1,2.2,1.533a.323.323,0,0,1-.193.583ZM1634.7,462.15a.323.323,0,0,1-.171-.6c.757-.471,1.537-.925,2.323-1.349a.323.323,0,1,1,.308.569c-.774.418-1.544.865-2.289,1.329A.321.321,0,0,1,1634.7,462.15Zm42.658-1.7a.318.318,0,0,1-.148-.036c-.78-.4-1.583-.785-2.387-1.138a.323.323,0,0,1,.26-.591c.816.358,1.631.747,2.423,1.155a.323.323,0,0,1-.148.611Zm-36.444-1.5a.323.323,0,0,1-.124-.622c.821-.341,1.665-.662,2.51-.953a.323.323,0,0,1,.211.611c-.832.287-1.664.6-2.473.939A.322.322,0,0,1,1640.915,458.949Zm29.994-1.19a.323.323,0,0,1-.1-.016c-.834-.271-1.689-.519-2.539-.738a.323.323,0,1,1,.16-.626c.864.223,1.732.474,2.578.749a.323.323,0,0,1-.1.631Zm-23.344-.96a.323.323,0,0,1-.074-.638c.87-.2,1.755-.385,2.632-.535a.323.323,0,0,1,.109.637c-.863.148-1.736.325-2.592.527A.336.336,0,0,1,1647.565,456.8Zm16.545-.652a.316.316,0,0,1-.049,0c-.869-.133-1.751-.241-2.626-.32a.323.323,0,0,1,.059-.644c.887.081,1.784.19,2.666.326a.323.323,0,0,1-.049.643Zm-9.634-.4a.323.323,0,0,1-.023-.646c.888-.063,1.79-.1,2.683-.105h0a.323.323,0,0,1,0,.647c-.88.008-1.769.042-2.642.1Z" transform="translate(-1620.581 -455)" fill="#91b3fa"/>
          <path id="Path_4189" data-name="Path 4189" d="M2414.255,824.331a.325.325,0,0,1-.32-.274q-.1-.633-.215-1.264a.322.322,0,0,1,.258-.377.327.327,0,0,1,.377.259q.118.641.22,1.283a.325.325,0,0,1-.27.369A.372.372,0,0,1,2414.255,824.331Z" transform="translate(-2334.576 -787.133)" fill="#91b3fa"/>
        </g>
        <g id="Group_1423" data-name="Group 1423" transform="translate(8.976 10.33)">
          <path id="Path_4190" data-name="Path 4190" d="M1689.982,594.857a.521.521,0,0,0-.31-.516l-5.8-2.517a27.539,27.539,0,0,0-2.758-8.479l3.2-5.444a.519.519,0,0,0-.054-.6l-4.925-5.759a.521.521,0,0,0-.586-.145l-5.873,2.316a27.53,27.53,0,0,0-7.95-4.039l-1.589-6.115a.519.519,0,0,0-.462-.387l-7.555-.588a.518.518,0,0,0-.517.311l-2.517,5.795a27.523,27.523,0,0,0-8.479,2.759l-5.444-3.2a.521.521,0,0,0-.6.053L1632,573.227a.519.519,0,0,0-.146.585l2.317,5.874a27.508,27.508,0,0,0-4.039,7.949l-6.115,1.59a.518.518,0,0,0-.387.462l-.588,7.555a.519.519,0,0,0,.311.517l5.795,2.518a27.547,27.547,0,0,0,2.759,8.479l-3.2,5.444a.519.519,0,0,0,.053.6l4.926,5.759a.519.519,0,0,0,.585.146l5.875-2.316a27.522,27.522,0,0,0,7.949,4.039l1.59,6.115a.52.52,0,0,0,.462.387l7.555.589a.519.519,0,0,0,.516-.311l2.518-5.795a27.524,27.524,0,0,0,8.479-2.759l5.444,3.2a.519.519,0,0,0,.6-.053l5.759-4.926a.519.519,0,0,0,.146-.585l-2.315-5.874a27.513,27.513,0,0,0,4.039-7.949l6.115-1.589a.52.52,0,0,0,.387-.462Z" transform="translate(-1623.043 -562.58)" fill="#91b3fa"/>
          <path id="Path_4191" data-name="Path 4191" d="M1903.712,850.445a7.233,7.233,0,1,1,1.232-.105A7.339,7.339,0,0,1,1903.712,850.445Zm.028-13.462a6.309,6.309,0,0,0-1.066.091,6.245,6.245,0,1,0,4.661,1.058h0A6.2,6.2,0,0,0,1903.74,836.983Z" transform="translate(-1870.257 -809.759)" fill="#fff" opacity="0.7"/>
          <path id="Path_4192" data-name="Path 4192" d="M1793.235,753.2q-.74,0-1.488-.058a18.774,18.774,0,0,1-17.315-18.684q0-.742.059-1.489a18.772,18.772,0,0,1,32.979-10.744,18.868,18.868,0,0,1,2.262,3.294l-.852.461a17.94,17.94,0,0,0-2.146-3.125,17.8,17.8,0,0,0-31.276,10.189q-.056.709-.056,1.412a17.8,17.8,0,0,0,34.682,5.64l.919.308a18.784,18.784,0,0,1-17.768,12.8Z" transform="translate(-1759.897 -700.96)" fill="#fff" opacity="0.7"/>
        </g>
      </g>
      <g id="Group_1428" data-name="Group 1428" transform="translate(75.781 41.328)">
        <g id="Group_1425" data-name="Group 1425" transform="translate(0 26.652)">
          <path id="Path_4193" data-name="Path 4193" d="M2744.943,1224.6a.314.314,0,0,1-.164-.046.323.323,0,0,1-.114-.442c.217-.367.425-.741.617-1.114a.324.324,0,0,1,.575.3c-.2.384-.411.769-.634,1.146A.327.327,0,0,1,2744.943,1224.6Z" transform="translate(-2703.732 -1217.075)" fill="#91b3fa"/>
          <path id="Path_4194" data-name="Path 4194" d="M2355.8,1230.624h-.024a22.646,22.646,0,0,1-2.619-.361.323.323,0,0,1,.124-.634,22.129,22.129,0,0,0,2.545.35.323.323,0,0,1-.026.645Zm4.227-.068a.323.323,0,0,1-.034-.645,22,22,0,0,0,2.53-.434.323.323,0,0,1,.146.63,22.622,22.622,0,0,1-2.6.447A.245.245,0,0,1,2360.024,1230.556Zm-10.861-1.5a.32.32,0,0,1-.122-.024,22.361,22.361,0,0,1-2.385-1.136.323.323,0,1,1,.311-.566,21.973,21.973,0,0,0,2.316,1.1.323.323,0,0,1-.122.623Zm17.44-.29a.323.323,0,0,1-.133-.618,21.919,21.919,0,0,0,2.279-1.184.323.323,0,1,1,.331.556,22.422,22.422,0,0,1-2.346,1.218A.32.32,0,0,1,2366.6,1228.769Zm-23.279-3.217a.326.326,0,0,1-.208-.075,22.8,22.8,0,0,1-1.925-1.809.324.324,0,1,1,.469-.446,22.077,22.077,0,0,0,1.871,1.758.324.324,0,0,1-.207.572Zm29-.489a.323.323,0,0,1-.215-.564l.19-.171a22.384,22.384,0,0,0,1.625-1.645.323.323,0,0,1,.483.43,22.808,22.808,0,0,1-1.672,1.693l-.2.176A.324.324,0,0,1,2372.322,1225.063Zm-33.506-4.624a.323.323,0,0,1-.272-.149,22.539,22.539,0,0,1-1.293-2.306.323.323,0,1,1,.581-.282,22.217,22.217,0,0,0,1.256,2.24.321.321,0,0,1-.1.446A.314.314,0,0,1,2338.816,1220.439Z" transform="translate(-2335.449 -1212.285)" fill="#91b3fa"/>
          <path id="Path_4195" data-name="Path 4195" d="M2319.407,1164.9a.323.323,0,0,1-.312-.24c-.111-.421-.212-.85-.3-1.276a.323.323,0,1,1,.633-.129c.085.414.183.831.29,1.24a.323.323,0,0,1-.229.4A.38.38,0,0,1,2319.407,1164.9Z" transform="translate(-2318.79 -1162.992)" fill="#91b3fa"/>
        </g>
        <g id="Group_1426" data-name="Group 1426" transform="translate(2.957)">
          <path id="Path_4196" data-name="Path 4196" d="M2349.912,983.933a.324.324,0,0,1-.275-.5c.233-.369.479-.735.731-1.089a.323.323,0,1,1,.526.376c-.245.344-.484.7-.709,1.058A.325.325,0,0,1,2349.912,983.933Z" transform="translate(-2349.588 -972.92)" fill="#91b3fa"/>
          <path id="Path_4197" data-name="Path 4197" d="M2421.631,899.579a.324.324,0,0,1-.3-.2,21.4,21.4,0,0,0-1.121-2.263.323.323,0,0,1,.562-.32,22.307,22.307,0,0,1,1.155,2.331.323.323,0,0,1-.3.45Zm-3.527-5.7a.328.328,0,0,1-.248-.114q-.245-.291-.5-.575c-.4-.432-.812-.854-1.238-1.253a.323.323,0,1,1,.441-.472c.439.411.867.844,1.273,1.289q.267.292.521.591a.323.323,0,0,1-.245.533Zm-32.293-1.658a.323.323,0,0,1-.223-.557c.13-.125.262-.248.4-.371.5-.461,1.037-.9,1.58-1.317a.323.323,0,1,1,.39.515c-.527.4-1.043.831-1.535,1.279q-.195.179-.386.362A.322.322,0,0,1,2385.81,892.218Zm27.232-2.742a.317.317,0,0,1-.171-.05,21.9,21.9,0,0,0-2.209-1.223.323.323,0,1,1,.28-.583,22.83,22.83,0,0,1,2.274,1.259.324.324,0,0,1-.174.6Zm-21.747-1.117a.323.323,0,0,1-.144-.613,22.624,22.624,0,0,1,2.392-1.021.323.323,0,0,1,.22.608,21.98,21.98,0,0,0-2.324.991A.314.314,0,0,1,2391.294,888.36Zm15.605-1.565a.337.337,0,0,1-.084-.011,22.074,22.074,0,0,0-2.474-.507.323.323,0,0,1-.273-.366.319.319,0,0,1,.366-.273,22.7,22.7,0,0,1,2.547.521.323.323,0,0,1-.082.636Zm-9.218-.473a.323.323,0,0,1-.049-.642,22.721,22.721,0,0,1,2.586-.258.323.323,0,1,1,.027.646,22.089,22.089,0,0,0-2.512.251A.318.318,0,0,1,2397.682,886.322Z" transform="translate(-2382.041 -885.421)" fill="#91b3fa"/>
          <path id="Path_4198" data-name="Path 4198" d="M2772.231,1069.45a.324.324,0,0,1-.319-.274c-.066-.417-.143-.838-.232-1.252a.323.323,0,1,1,.631-.136c.092.426.173.859.239,1.289a.322.322,0,0,1-.269.369A.336.336,0,0,1,2772.231,1069.45Z" transform="translate(-2731.144 -1050.047)" fill="#91b3fa"/>
        </g>
        <g id="Group_1427" data-name="Group 1427" transform="translate(4.768 5.444)">
          <path id="Path_4199" data-name="Path 4199" d="M2402.831,958.7a.266.266,0,0,0-.16-.265l-2.977-1.293a14.153,14.153,0,0,0-1.417-4.356l1.642-2.8a.266.266,0,0,0-.026-.308l-2.531-2.958a.265.265,0,0,0-.3-.075l-3.018,1.19a14.147,14.147,0,0,0-4.084-2.075l-.816-3.141a.267.267,0,0,0-.236-.2l-3.882-.3a.267.267,0,0,0-.266.16l-1.293,2.977a14.153,14.153,0,0,0-4.355,1.417l-2.8-1.643a.266.266,0,0,0-.308.027l-2.959,2.531a.264.264,0,0,0-.073.3l1.189,3.017a14.151,14.151,0,0,0-2.075,4.083l-3.14.817a.268.268,0,0,0-.2.237l-.3,3.881a.266.266,0,0,0,.159.266l2.977,1.293A14.136,14.136,0,0,0,2373,965.84l-1.643,2.8a.266.266,0,0,0,.029.309l2.529,2.958a.268.268,0,0,0,.3.075l3.017-1.19a14.141,14.141,0,0,0,4.082,2.075l.818,3.141a.266.266,0,0,0,.237.2l3.881.3a.267.267,0,0,0,.266-.16l1.292-2.977a14.138,14.138,0,0,0,4.356-1.417l2.8,1.643a.268.268,0,0,0,.309-.027l2.957-2.531a.269.269,0,0,0,.075-.3l-1.189-3.017a14.142,14.142,0,0,0,2.074-4.084l3.141-.816a.265.265,0,0,0,.2-.237Z" transform="translate(-2368.446 -942.12)" fill="#91b3fa"/>
          <path id="Path_4200" data-name="Path 4200" d="M2510.4,1088a3.952,3.952,0,1,1,.674-.057A3.992,3.992,0,0,1,2510.4,1088Zm.012-6.914a2.97,2.97,0,1,0,1.714.546h0A2.954,2.954,0,0,0,2510.414,1081.089Z" transform="translate(-2493.217 -1066.868)" fill="#fff" opacity="0.7"/>
          <path id="Path_4201" data-name="Path 4201" d="M2453.7,1038.1c-.259,0-.521-.01-.783-.031a9.878,9.878,0,1,1,8.273-16.27c.028.032.056.065.084.1a9.938,9.938,0,0,1,1.017,1.473l0,.006c0,.008.009.015.012.023l.022.04.013.022.037.07-.852.46a9.009,9.009,0,0,0-1.074-1.563h0a8.908,8.908,0,1,0,1.676,8.628l.92.308a9.883,9.883,0,0,1-9.35,6.734Z" transform="translate(-2436.574 -1011.025)" fill="#fff" opacity="0.7"/>
        </g>
      </g>
    </g>
    <g id="Group_1432" data-name="Group 1432" transform="translate(599.661 542.895)">
      <g id="Group_1430" data-name="Group 1430" transform="translate(0 0)">
        <path id="Path_4202" data-name="Path 4202" d="M1879.821,1391.027a3.832,3.832,0,0,1,2.962-1.02c11.634,1.047,33.343-4.558,47.53-19.075.985-1.007,2.782-.438,3.911.406,15.778,11.792,41.932,14.235,51.011,14.734a3.832,3.832,0,0,1,3.6,3.432c8.257,79.748-43.666,108.645-54.435,113.746a3.839,3.839,0,0,1-3.669-.212c-53.671-33.431-51.376-76.907-52.118-109.121A3.836,3.836,0,0,1,1879.821,1391.027Z" transform="translate(-1878.609 -1370.396)" fill="url(#linear-gradient-5)"/>
        <path id="Path_4203" data-name="Path 4203" d="M1987.284,1562.584a1.278,1.278,0,0,1-.688-.2c-20.576-13.153-33.987-28.879-41-48.074-6.263-17.144-6.57-34.6-6.839-50l-.037-2.053a1.269,1.269,0,0,1,1.275-1.292h0c12.743,0,31.87-5.627,45.9-18.2a1.272,1.272,0,0,1,1.552-.112c15.414,10.227,37.4,13.205,49.134,14.07a1.267,1.267,0,0,1,1.173,1.158c2.727,31.116-3.744,57.429-19.236,78.206a92.348,92.348,0,0,1-30.653,26.359h0A1.268,1.268,0,0,1,1987.284,1562.584Zm.341-.6.119.232-.119-.232a91.78,91.78,0,0,0,30.472-26.207c15.412-20.672,21.85-46.864,19.135-77.848a.746.746,0,0,0-.69-.682c-11.786-.869-33.873-3.863-49.386-14.157a.75.75,0,0,0-.914.066c-14.13,12.662-33.4,18.33-46.235,18.33h0a.76.76,0,0,0-.552.226.734.734,0,0,0-.212.534l.037,2.054c.27,15.361.575,32.772,6.808,49.833,6.97,19.084,20.313,34.724,40.789,47.813A.756.756,0,0,0,1987.625,1561.98Z" transform="translate(-1932.949 -1435.522)" fill="#fff" opacity="0.61"/>
      </g>
      <g id="Group_1431" data-name="Group 1431" transform="translate(30.525 28.089)">
        <path id="Path_4204" data-name="Path 4204" d="M2289.727,1685.575H2287.3a2.182,2.182,0,0,1-2.182-2.183v-8.3a5.378,5.378,0,0,0-5.378-5.377H2264.7a5.377,5.377,0,0,0-5.377,5.377v8.3a2.183,2.183,0,0,1-2.182,2.183h-2.428a2.183,2.183,0,0,1-2.183-2.183v-8.3a12.169,12.169,0,0,1,12.169-12.168h15.038a12.169,12.169,0,0,1,12.169,12.168v8.3A2.183,2.183,0,0,1,2289.727,1685.575Z" transform="translate(-2247.154 -1662.929)" fill="#fff" opacity="0.61"/>
        <path id="Path_4205" data-name="Path 4205" d="M2242.1,1919.172h-41.028a4.552,4.552,0,0,0-4.552,4.553v31.486a4.552,4.552,0,0,0,4.552,4.552H2242.1a4.552,4.552,0,0,0,4.552-4.552v-31.486A4.552,4.552,0,0,0,2242.1,1919.172Zm-14.644,30.432a1.686,1.686,0,0,1-1.639,2.081h-8.461a1.686,1.686,0,0,1-1.64-2.081l1.975-8.217a7.6,7.6,0,1,1,7.792,0Z" transform="translate(-2196.519 -1894.568)" fill="#fff" opacity="0.61"/>
      </g>
    </g>
    <g id="Group_1434" data-name="Group 1434" transform="translate(465.018 512.65)">
      <path id="Path_4206" data-name="Path 4206" d="M682.5,1811.972s3.323.176,3.73,7.012c0,0-7.705,6.907-18.114,8.551-.781.124,1.092-5.334,1.374-6.073C670.833,1817.945,675.054,1815.68,682.5,1811.972Z" transform="translate(-649.534 -1739.328)" fill="url(#linear-gradient-6)"/>
      <path id="Path_4207" data-name="Path 4207" d="M768.213,1481.9H761.2s-21.522-23.77-35.638-26.168c0,0-9.826,12.542.523,35.979a3.421,3.421,0,0,0,4.9,1.613,2.806,2.806,0,0,0,1.119-1.333l-.832-20.011s18.359,16.057,21.549,19.155S772.232,1492.345,768.213,1481.9Z" transform="translate(-697.823 -1417.293)" fill="#7d97f4"/>
      <path id="Path_4208" data-name="Path 4208" d="M502.621,2188.755A26.369,26.369,0,0,1,517,2182.463l2.286,1.4a24.953,24.953,0,0,1-4.121,4.422c-2.447,1.421-6.226,3.345-9.359,3.762C502.761,2192.452,502.312,2190.611,502.621,2188.755Z" transform="translate(-500.024 -2074.244)" fill="url(#linear-gradient-7)"/>
      <path id="Path_4209" data-name="Path 4209" d="M656.142,1877.647c1.81.586,2.606,3.151,7.2,1.454a40.687,40.687,0,0,0,9.448-4.977c.038.331.07.676.092,1.044,0,0-8.125,7.728-18.533,9.371a1.036,1.036,0,0,1-1.119-1.4A26.139,26.139,0,0,1,656.142,1877.647Z" transform="translate(-636.183 -1795.513)" fill="#91b3fa"/>
      <path id="Path_4210" data-name="Path 4210" d="M476.735,2245.741a24.331,24.331,0,0,1,2.214-2.2c-.31,1.856.14,3.7,3.186,3.292,3.133-.417,6.912-2.342,9.359-3.763a20.228,20.228,0,0,1-13.625,5.228A1.544,1.544,0,0,1,476.735,2245.741Z" transform="translate(-476.351 -2129.031)" fill="#91b3fa"/>
      <path id="Path_4211" data-name="Path 4211" d="M688.714,1781.1l-32.837.355s-18.753,15.514-22.154,39.173c0,0-.565,1.74,2.825,2.038a65.1,65.1,0,0,0,18.73-20.5c9.065-16.053,27.023-8.826,27.023-8.826,8.627,1.9,15.494,1.2,20.519-6.537Z" transform="translate(-618.58 -1711.417)" fill="#7d97f4"/>
      <path id="Path_4212" data-name="Path 4212" d="M930.655,1505.6s-3.535,17.715-20.855,24.724l-6.161-.726-1.454,2.318,14.452.461a39.525,39.525,0,0,0,18.9-18.226C935.752,1513.716,939.356,1506.274,930.655,1505.6Z" transform="translate(-861.297 -1462.377)" fill="url(#linear-gradient-8)"/>
      <path id="Path_4213" data-name="Path 4213" d="M1173.814,1371.726a94.65,94.65,0,0,0,4.884-21.545,46.4,46.4,0,0,0-4.78-3.618,1.329,1.329,0,0,1-.519-1.723c1.351-2.8,9.524-13.793,10.136-13.945,3.328-.831,16.975-7.319,26.586,5.828,4.125,5.642-.818,23.012-19.532,41C1184.567,1378.7,1178.937,1376.966,1173.814,1371.726Z" transform="translate(-1106.349 -1302.335)" fill="url(#linear-gradient-9)"/>
      <path id="Path_4214" data-name="Path 4214" d="M978.87,1578.635s-11.168,13.224-25.448,15.156c0,0-3.69-3.364-6.434-2.163s-6.507,6.5-6.507,6.5h18.335s17.335-.611,26-11.123C984.117,1583.33,982.029,1581.133,978.87,1578.635Z" transform="translate(-895.916 -1528.396)" fill="url(#linear-gradient-10)"/>
      <path id="Path_4215" data-name="Path 4215" d="M1334.633,1256.236l2.443,8.15a.9.9,0,0,1-.347,1,9.105,9.105,0,0,1-8.471.851,1.33,1.33,0,0,1-.854-1.141l-.579-7.1Z" transform="translate(-1245.163 -1236.952)" fill="url(#linear-gradient-11)"/>
      <g id="Group_1433" data-name="Group 1433" transform="translate(69.824)">
        <path id="Path_4216" data-name="Path 4216" d="M1259.117,1135.045s1.2,8.448,4.447,11.047,9.568.641,11.7-5.728l-4.256-10.89Z" transform="translate(-1253.781 -1122.362)" fill="url(#linear-gradient-12)"/>
        <path id="Path_4217" data-name="Path 4217" d="M1221.259,1069.564a.418.418,0,0,1-.543-.336,10.933,10.933,0,0,0-1-3.374s.309-1.109-2.8.566-7.784,4.134-10.535,2.669c-2.683-1.428-5.4-8.616,1.689-7.283a.42.42,0,0,0,.5-.439c-.087-1.181.03-3.9,2.781-4.77a3.954,3.954,0,0,1,4.567,1.048.415.415,0,0,0,.651-.012,4.824,4.824,0,0,1,5.951-1.791c2.54,1.12,2.935,2.684,2.894,3.659a.416.416,0,0,0,.594.4,2.51,2.51,0,0,1,3.228.958c1.657,2.076-.71,3.877-1.421,4.349a.419.419,0,0,0-.189.345c-.007,1.08-.176,5.79-2.536,8.447a.422.422,0,0,1-.7-.12l-1.818-4.332a.419.419,0,0,0-.516-.237Z" transform="translate(-1203.548 -1055.404)" fill="url(#linear-gradient-13)"/>
        <path id="Path_4218" data-name="Path 4218" d="M1387.6,1180.522s1.11-4.522,2.8-3.053-.439,4.7-2.371,5.314Z" transform="translate(-1369.931 -1165.483)" fill="url(#linear-gradient-14)"/>
      </g>
      <path id="Path_4219" data-name="Path 4219" d="M728.575,1507.945l-8.232-27.454a2.807,2.807,0,0,0-2.5-1.994l-11.114-.76a1.576,1.576,0,0,0-1.595,2.095l9.2,26.218a2.309,2.309,0,0,0,1.945,1.531l10.945,1.215Z" transform="translate(-683.086 -1437.182)" fill="url(#linear-gradient-15)"/>
      <path id="Path_4220" data-name="Path 4220" d="M788.008,1575.549c.615,1.241,1.676,1.967,2.371,1.624s.76-1.629.145-2.87-1.676-1.967-2.37-1.623S787.393,1574.309,788.008,1575.549Z" transform="translate(-757.702 -1522.935)" fill="#91b3fa"/>
      <path id="Path_4221" data-name="Path 4221" d="M926.245,1770.457h.054l23.321-1.179a1.045,1.045,0,1,0-.106-2.088l-23.321,1.179a1.045,1.045,0,0,0,.052,2.089Z" transform="translate(-882.103 -1698.843)" fill="url(#linear-gradient-16)"/>
      <path id="Path_4222" data-name="Path 4222" d="M1228.306,1444.47a.162.162,0,0,1-.161-.161,49.834,49.834,0,0,1,1.9-11.5.161.161,0,1,1,.31.09,49.556,49.556,0,0,0-1.884,11.412.162.162,0,0,1-.161.162Z" transform="translate(-1155.959 -1396.463)" fill="url(#linear-gradient-17)"/>
      <path id="Path_4223" data-name="Path 4223" d="M1338.766,1474.218a.163.163,0,0,1-.1-.034.162.162,0,0,1-.026-.228c.051-.064,5.12-6.508,6.854-10.905a.162.162,0,1,1,.3.119c-1.752,4.44-6.85,10.921-6.9,10.986A.164.164,0,0,1,1338.766,1474.218Z" transform="translate(-1255.813 -1423.816)" fill="url(#linear-gradient-18)"/>
      <path id="Path_4224" data-name="Path 4224" d="M1406.161,1567.387l-.923-1.3a.162.162,0,0,1,.264-.187l.771,1.091c7.192-3.154,11.646-11.758,11.69-11.846a.162.162,0,1,1,.288.147c-.046.089-4.6,8.891-11.971,12.048Z" transform="translate(-1316.022 -1507.078)" fill="url(#linear-gradient-19)"/>
    </g>
  </g>
</svg>
