<svg xmlns="http://www.w3.org/2000/svg" width="11.851" height="11.851" viewBox="0 0 11.851 11.851">
  <path id="Icon_awesome-phone-alt" data-name="Icon awesome-phone-alt" d="M9.707,7.061,7.521,6.124a.468.468,0,0,0-.546.135L6.007,7.442A7.234,7.234,0,0,1,2.549,3.984l1.183-.968a.467.467,0,0,0,.135-.546L2.929.283A.471.471,0,0,0,2.393.012L.363.481A.468.468,0,0,0,0,.937,9.054,9.054,0,0,0,9.055,9.992a.468.468,0,0,0,.457-.363L9.98,7.6a.474.474,0,0,0-.273-.539Z" transform="matrix(0.208, -0.978, 0.978, 0.208, 0, 9.773)" fill="#10b5df"/>
</svg>
