<svg xmlns="http://www.w3.org/2000/svg" width="23" height="23" viewBox="0 0 23 23">
  <g id="Group_7558" data-name="Group 7558" transform="translate(0.104)">
    <g id="Ellipse_111" data-name="Ellipse 111" transform="translate(-0.104)" fill="none" stroke="#10b5df" stroke-width="1">
      <circle cx="11.5" cy="11.5" r="11.5" stroke="none"/>
      <circle cx="11.5" cy="11.5" r="11" fill="none"/>
    </g>
    <g id="instagram" transform="translate(4.917 4.918)">
      <path id="Path_3705" data-name="Path 3705" d="M13.644,3.89a4.835,4.835,0,0,0-.308-1.605A3.39,3.39,0,0,0,11.4.349,4.847,4.847,0,0,0,9.8.041C9.087.008,8.862,0,7.066,0S5.044.008,4.339.039A4.836,4.836,0,0,0,2.734.346a3.228,3.228,0,0,0-1.174.765A3.258,3.258,0,0,0,.8,2.282,4.848,4.848,0,0,0,.49,3.888C.456,4.6.449,4.821.449,6.617S.456,8.639.487,9.344a4.835,4.835,0,0,0,.308,1.605,3.389,3.389,0,0,0,1.936,1.936,4.848,4.848,0,0,0,1.605.308c.706.031.931.039,2.727.039s2.021-.008,2.727-.039a4.834,4.834,0,0,0,1.605-.308,3.384,3.384,0,0,0,1.936-1.936,4.851,4.851,0,0,0,.308-1.605c.031-.706.039-.931.039-2.727s0-2.021-.034-2.727Zm-1.192,5.4a3.627,3.627,0,0,1-.227,1.228,2.195,2.195,0,0,1-1.256,1.256A3.64,3.64,0,0,1,9.741,12c-.7.031-.907.039-2.673.039S5.091,12.035,4.4,12a3.625,3.625,0,0,1-1.228-.227,2.036,2.036,0,0,1-.76-.494,2.057,2.057,0,0,1-.494-.76A3.64,3.64,0,0,1,1.687,9.3c-.031-.7-.039-.907-.039-2.673s.008-1.977.039-2.673a3.625,3.625,0,0,1,.227-1.228,2.011,2.011,0,0,1,.5-.76,2.054,2.054,0,0,1,.76-.494A3.642,3.642,0,0,1,4.4,1.241c.7-.031.907-.039,2.673-.039s1.977.008,2.673.039a3.627,3.627,0,0,1,1.228.227,2.035,2.035,0,0,1,.76.494,2.057,2.057,0,0,1,.494.76,3.641,3.641,0,0,1,.227,1.228c.031.7.039.907.039,2.673s-.008,1.972-.039,2.67Zm0,0" transform="translate(-0.449 0)" fill="#10b5df"/>
      <path id="Path_3706" data-name="Path 3706" d="M128.348,124.5a3.4,3.4,0,1,0,3.4,3.4A3.4,3.4,0,0,0,128.348,124.5Zm0,5.6a2.2,2.2,0,1,1,2.2-2.2,2.205,2.205,0,0,1-2.2,2.2Zm0,0" transform="translate(-121.731 -121.282)" fill="#10b5df"/>
      <path id="Path_3707" data-name="Path 3707" d="M364.037,89.4a.794.794,0,1,1-.794-.794A.794.794,0,0,1,364.037,89.4Zm0,0" transform="translate(-353.093 -86.312)" fill="#10b5df"/>
    </g>
  </g>
</svg>
