<svg xmlns="http://www.w3.org/2000/svg" width="418.11" height="326.391" viewBox="0 0 418.11 326.391">
  <g id="Group_7344" data-name="Group 7344" transform="translate(-94.782 -336.998)">
    <g id="Group_7343" data-name="Group 7343" transform="translate(94.782 336.998)">
      <g id="Group_7189" data-name="Group 7189" transform="translate(0 56.131)">
        <g id="Group_7184" data-name="Group 7184" transform="translate(24.341)">
          <g id="Group_7182" data-name="Group 7182">
            <g id="Group_7181" data-name="Group 7181">
              <path id="Path_11062" data-name="Path 11062" d="M232.2,589.428a33.461,33.461,0,0,1,5.141,10.75c.077.239.15.48.225.721,1.319,4.242,2.622,8.492,5.34,11.931,3.158,4,8.135,6.82,11.029,10.788.193.264.375.535.551.812a11.158,11.158,0,0,1,1.492,3.6c.965,4.465-1.222,8.907-2.6,13.269-.028.08-.054.162-.079.244-.047.15-.091.3-.133.446a36,36,0,0,0,1.629,24.669c2.658,5.952,6.893,9.537,11.207,14.147,2.338,2.5,2.992,4.8,2.562,6.846a5.26,5.26,0,0,1-.185.677c-1.221,3.641-5.869,6.387-10.294,7.817a31.672,31.672,0,0,1-25.121-2.2c-5.782-3.29-10.681-9.22-10.691-15.764,0-.238.006-.476.021-.714.008-.211.024-.414.045-.623.3-2.916,1.55-5.938.5-8.677-1.3-3.373-5.436-4.619-7.786-7.37-2.809-3.284-2.6-8.244-.875-12.254.092-.217.187-.432.29-.64.014-.035.031-.068.048-.1,2.022-4.124,5.34-7.444,8.037-11.163a23.518,23.518,0,0,0,3.564-6.83c.065-.224.13-.448.185-.677a11.937,11.937,0,0,0,.218-5.28c-.831-4.249-4.186-7.557-7.78-9.968-3.268-2.195-6.876-3.9-9.973-6.309-.272-.213-.546-.433-.808-.66-.035-.024-.068-.056-.1-.082A23.076,23.076,0,0,1,200,587.951a15.856,15.856,0,0,1,1.143-4.969c.106-.252.223-.5.346-.745,1.815-3.618,9.079-2.731,12.3-2.364a29.943,29.943,0,0,1,14.723,5.862A20.6,20.6,0,0,1,232.2,589.428Z" transform="translate(-199.943 -579.505)" fill="#e5e6eb"/>
            </g>
          </g>
          <g id="Group_7183" data-name="Group 7183" transform="translate(1.201 2.735)">
            <path id="Path_11063" data-name="Path 11063" d="M234.091,618.561c-4.1-6.1-10.008-10.754-15.726-15.256-3.246-2.557-6.6-5.2-9.594-8.077a22.293,22.293,0,0,1-3.295-3.906c-.121.243-.238.49-.344.742a23.566,23.566,0,0,0,3.153,3.668c3.017,2.9,6.386,5.557,9.647,8.123,5.789,4.556,11.775,9.271,15.822,15.465.128.191.253.389.376.585.028.047.056.088.082.137a34.109,34.109,0,0,1,1.672,3.031,9.953,9.953,0,0,1-5.78-1.068,35.739,35.739,0,0,1-3.352-1.916c-.863-.538-1.755-1.09-2.674-1.575A23.032,23.032,0,0,0,211.938,616c.262.228.537.448.808.66l0,0a22.15,22.15,0,0,1,11,2.474c.9.473,1.779,1.021,2.634,1.551a35.826,35.826,0,0,0,3.419,1.952,10.443,10.443,0,0,0,6.395,1.09,48.149,48.149,0,0,1,3.438,10.938c.049.232.093.469.135.7.478,2.51.821,5.069,1.094,7.64a27.806,27.806,0,0,0-10.455-4.766l-.129-.027c-.055.229-.12.453-.185.677.054.009.109.023.162.034a27.144,27.144,0,0,1,10.706,5.036c.244,2.445.433,4.9.62,7.33.02.272.043.542.063.814.02.237.037.472.056.71.03.4.063.809.1,1.209.273,3.421.633,6.861,1.187,10.232a51.93,51.93,0,0,1-24.537-7.271c-.1.207-.2.422-.29.64a52.658,52.658,0,0,0,24.949,7.337,49.574,49.574,0,0,0,5.053,15.513,82.4,82.4,0,0,1-21.882,6.073c-.015.238-.02.476-.021.714a83.427,83.427,0,0,0,22.249-6.171,30.721,30.721,0,0,0,4.566,6.081c5.127,5.279,11.736,8.194,19.292,10.24a5.25,5.25,0,0,0,.185-.677c-7.451-2.019-13.955-4.885-18.973-10.051a29.971,29.971,0,0,1-4.423-5.875c-.118-.206-.234-.409-.346-.615a48.658,48.658,0,0,1-4.983-15.213c-.044-.232-.083-.464-.123-.7-.564-3.389-.93-6.86-1.205-10.308-.036-.448-.069-.893-.1-1.343a49.763,49.763,0,0,1,14.76-1.556c.041-.149.086-.3.132-.446.025-.082.051-.164.079-.244a50.544,50.544,0,0,0-15.027,1.536c-.017-.225-.034-.455-.053-.683-.17-2.213-.342-4.439-.554-6.664-.031-.326-.062-.653-.1-.979-.289-2.858-.659-5.7-1.192-8.492a33.1,33.1,0,0,1,18.036-1.588c-.176-.276-.357-.548-.551-.812l0,0a33.9,33.9,0,0,0-17.62,1.7,47.976,47.976,0,0,0-3.633-11.32l0-.008-.005-.01-.048-.158a.072.072,0,0,1-.025.006,35.865,35.865,0,0,0-1.862-3.374c-.059-.1-.118-.186-.179-.279a26.012,26.012,0,0,1,7.009-9.275c-.074-.241-.148-.483-.225-.721A26.772,26.772,0,0,0,234.091,618.561Z" transform="translate(-205.132 -591.321)" fill="#fff"/>
          </g>
        </g>
        <g id="Group_7185" data-name="Group 7185" transform="translate(13.279 34.745)">
          <path id="Path_11064" data-name="Path 11064" d="M193.209,793.743c-2.444-.034-4.1,2.335-5.8,4.091a9.131,9.131,0,0,1-6.677,3.11c-2.528-.106-5.043-2.112-5.089-4.642-.04-2.188,1.679-4.068,3.634-5.051a36.267,36.267,0,0,1,6.268-1.912c2.1-.613,4.241-1.644,5.34-3.537s.627-4.787-1.394-5.628a4.436,4.436,0,0,0-4.562,1.268,32,32,0,0,0-3,4.005,15.039,15.039,0,0,1-17.715,4.443c-2.308-1.061-4.544-3.268-4.086-5.768.575-3.137,4.433-3.807,7.086-3.582,3.062.26,5.906,1.718,8.982,1.873,4.029.2,11.273-3.081,10.491-8.077-.313-2-3.21-2.158-4.718-1.79a22.572,22.572,0,0,0-4.989,2.428c-7.746,4.09-16.807,2.075-22.906-3.942-5.251-5.18,1.48-7.169,5.976-7.609a15.436,15.436,0,0,1,8.991,1.8c1.473.823,2.871,1.912,4.539,2.167s3.7-.8,3.687-2.489c-.018-1.758-2.029-2.7-3.708-3.22l-9.07-2.814A12.7,12.7,0,0,1,159.7,756.6a4.334,4.334,0,0,1-1.408-4.782c.815-1.825,3.227-2.461,5.152-1.923a12.715,12.715,0,0,1,4.935,3.3l7.957,7.372c1.084,1,2.491,2.087,3.89,1.611,1.476-.5,1.89-2.408,1.737-3.959-.328-3.309-2.094-6.286-3.938-9.054s-3.843-5.524-4.744-8.725-.459-7.028,2.02-9.245c3.6-3.214,9.932-1.207,12.176,3.063s1.122,9.659-1.466,13.729c-1.118,1.759-2.546,3.88-1.58,5.727,1,1.91,3.942,1.819,5.644.5s2.593-3.4,3.8-5.188,3.125-3.45,5.258-3.142c2.236.323,3.673,2.908,3.226,5.122a6.725,6.725,0,0,1-4.483,4.681c-3.663,1.31-8.271.417-11.055,3.134a5.155,5.155,0,0,0-1.223,5.524,4.411,4.411,0,0,0,4.883,2.586c3.119-.747,4.162-4.687,6.678-6.677a6.183,6.183,0,0,1,8.454,8.961c-1.5,1.687-3.783,2.418-5.971,2.983s-4.481,1.076-6.247,2.484-2.8,4.041-1.65,5.986c1.588,2.686,5.878,2.013,8.129-.148s3.4-5.249,5.534-7.525,6.209-3.414,8.2-1.012c1.906,2.3.278,5.958-2.192,7.636s-5.551,2.205-8.149,3.677-4.762,4.656-3.468,7.347c1.139,2.369,4.443,2.962,6.876,1.969s4.2-3.106,5.887-5.121,3.521-4.091,6-4.958,5.769,0,6.659,2.474c.837,2.325-.757,4.867-2.731,6.355s-4.37,2.379-6.209,4.031-2.98,4.56-1.576,6.594c1.493,2.164,4.752,1.975,7.243,1.135s5.121-2.105,7.624-1.3a4.928,4.928,0,0,1,.134,9.339c-3.081,1.089-7.013-.9-9.53,1.187-1.448,1.2-1.754,3.343-1.375,5.183a36.844,36.844,0,0,0,1.97,5.273c1.487,3.991,1.4,8.809-1.216,12.169s-8.109,4.464-11.271,1.61c-2.426-2.189-2.871-5.843-2.526-9.092s1.315-6.461,1.093-9.721-2.09-6.755-5.283-7.446c-2.207-.478-4.452.479-6.457,1.517s-4.07,2.213-6.328,2.208-4.693-1.749-4.505-4a4.322,4.322,0,0,1,1.714-2.859c3.376-2.755,9.8-3.123,10.56-8.393C196.854,796.725,195.581,793.777,193.209,793.743Z" transform="translate(-152.153 -729.614)" fill="#ff654f"/>
        </g>
        <g id="Group_7188" data-name="Group 7188" transform="translate(0 72.997)">
          <g id="Group_7186" data-name="Group 7186">
            <path id="Path_11065" data-name="Path 11065" d="M102.043,920.957c.143.233.285.466.427.7.234.374.468.747.7,1.117,5.338,8.36,11.669,16.537,13.493,26.291.1.516.179,1.041.251,1.567.036.244.069.489.1.737,1.075,8.735-.4,18.365,5.077,25.123,5.917,7.3,16.789,7.363,25.558,10.735a31.3,31.3,0,0,1,3.6,1.653c.272.142.541.289.807.446a33.371,33.371,0,0,1,13.495,14.435,34.767,34.767,0,0,1,3.168,12.655c.2,2.9-.505,5.939,1.762,8.2,2.882,2.863,9.039,3.072,14.278,2.526.245-.025.49-.054.735-.083a48.823,48.823,0,0,0,5.695-1.014c7.228-1.775,14.1-7.112,15.372-14.445,2.067-11.936-10.852-23.188-7.521-34.838,1.168-4.078,4.233-7.491,5.849-11.34.106-.255.209-.509.3-.767a12.127,12.127,0,0,0,.686-2.97c.58-6.224-4.668-11.694-10.5-13.962-4.9-1.9-10.224-2.185-15.473-2.745l-.833-.094c-.714-.081-1.424-.169-2.136-.271-6.191-.874-12.737-3.03-16.256-8.2-3.429-5.042-3.2-11.8-6.1-17.163-2.553-4.712-7.207-7.755-12.361-9.527h0c-.231-.079-.465-.154-.7-.225a36.754,36.754,0,0,0-5.547-1.3c-7.387-1.155-14.968-.621-22.346-1.861-6.964-1.167-14.14-4.372-17.72-10.369-.217-.349-.414-.715-.6-1.084-.036.165-.069.325-.1.49C93.48,904.211,97.294,913.151,102.043,920.957Z" transform="translate(-94.782 -894.88)" fill="#e5e6eb"/>
          </g>
          <g id="Group_7187" data-name="Group 7187" transform="translate(0.372)">
            <path id="Path_11066" data-name="Path 11066" d="M104.062,911.92c-5.283-4.888-8.083-11.012-7.623-16.55.032-.165.065-.325.1-.49.185.369.382.735.6,1.084-.226,5.173,2.478,10.837,7.426,15.418a60.754,60.754,0,0,0,8.824,6.479h0c.232.153.464.3.7.443.317.2.63.4.943.594,1.8,1.133,3.652,2.3,5.423,3.529a82.1,82.1,0,0,1,9.8,8.056,56.127,56.127,0,0,0,12.5-20.991c.234.072.468.146.7.225a56.851,56.851,0,0,1-12.668,21.272c3.062,2.953,5.928,6.094,8.663,9.315.161.187.319.378.477.566,2.794,3.316,5.445,6.7,8.017,10.055,3.162,4.114,6.355,8.352,9.488,12.731a55.731,55.731,0,0,0,22.885-18.777l.833.094a56.5,56.5,0,0,1-23.278,19.3c3.16,4.439,6.253,9.019,9.188,13.762.134.219.268.434.4.652q2.5,4.075,4.823,8.314a12.573,12.573,0,0,0,5.834-2.735,34.6,34.6,0,0,0,6.118-7.172,34.244,34.244,0,0,1,6.3-7.288c4.477-3.546,10.456-4.563,14.558-5.018.446-.047.893-.095,1.343-.135-.092.257-.195.512-.3.767-.318.031-.641.062-.959.1-4.015.445-9.855,1.437-14.186,4.865a33.7,33.7,0,0,0-6.163,7.157,35.166,35.166,0,0,1-6.245,7.3,13.384,13.384,0,0,1-5.926,2.841c1.283,2.372,2.519,4.792,3.686,7.25a120.011,120.011,0,0,1,10.4,32.124c-.245.029-.49.058-.735.083a119.411,119.411,0,0,0-10.328-31.893q-1.81-3.794-3.8-7.452c-.12-.234-.248-.468-.376-.7q-2.2-4.008-4.576-7.874A67.466,67.466,0,0,1,153.3,989.321c-.266-.157-.535-.3-.807-.446a66.838,66.838,0,0,0,14.023-10.316c-2.974-4.825-6.121-9.483-9.337-13.991-.144-.207-.292-.41-.436-.613-3.1-4.326-6.252-8.511-9.378-12.58-2.583-3.357-5.243-6.756-8.041-10.076a69.2,69.2,0,0,1-21.068,10.066c-.029-.248-.062-.493-.1-.737a68.493,68.493,0,0,0,20.693-9.891c-2.707-3.186-5.544-6.292-8.574-9.211-.175-.172-.353-.343-.531-.51a81.825,81.825,0,0,0-9.7-7.982c-1.759-1.22-3.61-2.386-5.4-3.508-.425-.268-.85-.539-1.28-.809a26.039,26.039,0,0,1-9.653,2.937c-.142-.229-.284-.462-.427-.7a25.431,25.431,0,0,0,9.369-2.691A59.69,59.69,0,0,1,104.062,911.92Z" transform="translate(-96.39 -894.88)" fill="#fff"/>
          </g>
        </g>
      </g>
      <g id="Group_7195" data-name="Group 7195" transform="translate(318.982 58.505)">
        <g id="Group_7193" data-name="Group 7193">
          <g id="Group_7191" data-name="Group 7191">
            <g id="Group_7190" data-name="Group 7190">
              <path id="Path_11067" data-name="Path 11067" d="M1527.329,596.734a35.483,35.483,0,0,0-7.173,10.4c-.12.237-.237.478-.355.718-2.088,4.223-4.158,8.457-7.577,11.606-3.973,3.667-9.654,5.789-13.345,9.464-.246.244-.481.5-.712.758a11.838,11.838,0,0,0-2.163,3.524c-1.753,4.515-.2,9.531.518,14.328.016.088.03.179.043.269.024.164.046.326.065.489a38.178,38.178,0,0,1-5.81,25.563c-3.774,5.791-8.805,8.841-14.089,12.95-2.864,2.225-3.933,4.53-3.822,6.743a5.559,5.559,0,0,0,.081.74c.674,4.016,5.084,7.665,9.48,9.9,8.153,4.144,18.044,5.117,26.674,1.874,6.6-2.483,12.72-7.879,13.819-14.73.039-.249.073-.5.1-.751.026-.222.044-.438.057-.659.174-3.1-.635-6.477.924-9.169,1.927-3.315,6.462-3.933,9.38-6.423,3.488-2.972,4.091-8.2,2.955-12.687-.06-.243-.124-.484-.2-.718-.009-.039-.021-.076-.033-.113-1.431-4.656-4.354-8.684-6.559-13.028a24.942,24.942,0,0,1-2.6-7.746c-.031-.246-.061-.491-.081-.74a12.658,12.658,0,0,1,.65-5.566c1.578-4.311,5.641-7.217,9.806-9.145,3.788-1.755,7.849-2.935,11.493-4.948.32-.177.644-.362.956-.557.041-.02.08-.047.119-.07a24.468,24.468,0,0,0,11.361-18.468,16.813,16.813,0,0,0-.371-5.394c-.069-.282-.15-.56-.238-.837-1.3-4.091-9.054-4.371-12.488-4.522a31.75,31.75,0,0,0-16.394,3.69A21.846,21.846,0,0,0,1527.329,596.734Z" transform="translate(-1472.901 -589.761)" fill="#e5e6eb"/>
            </g>
          </g>
          <g id="Group_7192" data-name="Group 7192" transform="translate(0.008 4.555)">
            <path id="Path_11068" data-name="Path 11068" d="M1526.215,633.206c5.31-5.711,12.27-9.6,19.008-13.361,3.824-2.138,7.779-4.349,11.391-6.863a23.617,23.617,0,0,0,4.1-3.542c.087.274.168.553.237.835a24.98,24.98,0,0,1-3.913,3.317c-3.642,2.536-7.612,4.757-11.454,6.9-6.821,3.807-13.873,7.75-19.143,13.563-.165.179-.33.365-.491.55-.037.044-.073.083-.109.13a36.21,36.21,0,0,0-2.255,2.9,10.555,10.555,0,0,0,6.231-.157,37.87,37.87,0,0,0,3.829-1.449c.993-.42,2.02-.849,3.062-1.2a24.422,24.422,0,0,1,13.133-.618c-.312.195-.636.38-.957.557l0,0a23.487,23.487,0,0,0-11.934.761c-1.017.346-2.032.773-3.016,1.186a37.942,37.942,0,0,1-3.906,1.475,11.073,11.073,0,0,1-6.878.078,51.058,51.058,0,0,0-5.42,10.883c-.09.235-.176.476-.259.714-.918,2.549-1.7,5.172-2.417,7.819a29.487,29.487,0,0,1,11.742-3.252l.14-.007c.02.249.05.495.081.74-.059,0-.118.005-.175.009a28.779,28.779,0,0,0-12.049,3.493c-.662,2.52-1.268,5.055-1.868,7.573-.066.281-.135.56-.2.842-.06.245-.117.489-.177.734-.1.417-.2.836-.3,1.251-.854,3.536-1.8,7.08-2.945,10.518a55.064,55.064,0,0,0,26.906-3.533c.073.234.136.475.2.718a55.837,55.837,0,0,1-27.348,3.533,52.575,52.575,0,0,1-7.873,15.406,87.364,87.364,0,0,0,21.905,10c-.024.252-.058.5-.1.751a88.467,88.467,0,0,1-22.273-10.164,32.581,32.581,0,0,1-5.793,5.608c-6.248,4.676-13.654,6.628-21.906,7.514a5.6,5.6,0,0,1-.081-.74c8.139-.875,15.427-2.795,21.542-7.369a31.764,31.764,0,0,0,5.609-5.417c.158-.2.313-.39.465-.586a51.585,51.585,0,0,0,7.749-15.1c.085-.235.165-.472.245-.714,1.155-3.456,2.115-7.03,2.978-10.594.112-.463.221-.923.332-1.389a52.766,52.766,0,0,0-15.2-4.085c-.019-.163-.041-.325-.065-.489-.013-.091-.026-.181-.042-.269a53.594,53.594,0,0,1,15.482,4.109c.055-.233.111-.471.169-.706.546-2.29,1.1-4.592,1.689-6.887.087-.337.174-.673.266-1.009.778-2.945,1.639-5.861,2.662-8.7a35.106,35.106,0,0,0-18.624-4.664c.23-.26.466-.514.712-.758l0,0a35.946,35.946,0,0,1,18.17,4.713,50.873,50.873,0,0,1,5.688-11.251l0-.007.007-.009.076-.157a.08.08,0,0,0,.025.01,38.026,38.026,0,0,1,2.511-3.224c.077-.09.154-.175.234-.262a27.583,27.583,0,0,0-5.8-10.88c.118-.24.235-.481.355-.718A28.388,28.388,0,0,1,1526.215,633.206Z" transform="translate(-1472.934 -609.439)" fill="#fff"/>
          </g>
        </g>
        <g id="Group_7194" data-name="Group 7194" transform="translate(5.105 38.482)">
          <path id="Path_11069" data-name="Path 11069" d="M1539.425,817.808c2.5.675,3.5,3.573,4.726,5.859a9.683,9.683,0,0,0,5.9,5.113c2.609.627,5.756-.687,6.54-3.254.677-2.22-.529-4.637-2.238-6.207s-3.871-2.536-5.835-3.772-3.846-2.91-4.417-5.159.752-5.064,3.057-5.334c1.76-.206,3.391,1.088,4.284,2.62a33.915,33.915,0,0,1,1.9,4.957,15.947,15.947,0,0,0,16.773,9.681c2.662-.411,5.584-2.011,5.844-4.694.326-3.366-3.414-5.171-6.184-5.713-3.2-.625-6.522.035-9.7-.7-4.167-.964-10.6-6.419-8.349-11.286.9-1.95,3.9-1.268,5.331-.454,1.722.98,2.97,2.575,4.382,3.927,6.71,6.423,16.535,7,24.5,2.64,6.861-3.756.575-7.741-3.882-9.5a16.368,16.368,0,0,0-9.691-.781c-1.742.411-3.483,1.115-5.259.89s-3.544-1.894-3.036-3.61c.529-1.788,2.854-2.162,4.718-2.205l10.067-.232a13.465,13.465,0,0,0,5.54-.915c1.7-.813,3.093-2.6,2.826-4.468-.3-2.1-2.575-3.448-4.695-3.459a13.483,13.483,0,0,0-5.992,1.93l-10.258,5.2c-1.4.709-3.147,1.4-4.436.512-1.359-.94-1.228-3.005-.62-4.543,1.3-3.28,3.963-5.8,6.648-8.088s5.525-4.516,7.374-7.518,2.511-7.034.628-10.015c-2.732-4.323-9.778-4.119-13.307-.417s-3.953,9.524-2.5,14.426c.629,2.118,1.468,4.7-.054,6.3-1.575,1.657-4.549.709-5.9-1.136s-1.655-4.223-2.367-6.4-2.183-4.427-4.448-4.733c-2.374-.321-4.591,1.9-4.779,4.285a7.131,7.131,0,0,0,3.211,6.077c3.355,2.4,8.313,2.83,10.362,6.411a5.467,5.467,0,0,1-.359,5.989,4.677,4.677,0,0,1-5.731,1.217c-2.963-1.669-2.882-5.99-4.869-8.75a6.557,6.557,0,0,0-11.227,6.681c1.041,2.157,3.155,3.566,5.221,4.778s4.256,2.4,5.648,4.35,1.68,4.935-.057,6.584c-2.4,2.278-6.579.344-8.247-2.514s-1.94-6.341-3.455-9.283-5.339-5.287-8.069-3.417c-2.612,1.789-2.016,5.995.015,8.424s5.019,3.863,7.241,6.119,3.5,6.133,1.4,8.5c-1.85,2.084-5.391,1.728-7.585.008s-3.378-4.389-4.514-6.934-2.4-5.2-4.68-6.8-5.883-1.677-7.51.586c-1.53,2.128-.643,5.184.937,7.274s3.765,3.7,5.16,5.915,1.713,5.516-.31,7.182c-2.151,1.772-5.42.632-7.715-.949s-4.61-3.636-7.4-3.543a5.226,5.226,0,0,0-2.852,9.484c2.825,2.006,7.412,1.126,9.374,3.981,1.129,1.642.817,3.919-.1,5.686a39.045,39.045,0,0,1-3.542,4.8c-2.677,3.638-3.99,8.575-2.3,12.763s6.971,6.91,11.025,4.919c3.11-1.528,4.626-5.123,5.219-8.537s.538-6.971,1.712-10.231,4.095-6.281,7.553-6.057c2.389.154,4.4,1.782,6.144,3.424s3.507,3.44,5.811,4.091,5.294-.419,5.757-2.768a4.584,4.584,0,0,0-.917-3.414c-2.642-3.791-9.083-6.033-8.328-11.63C1534.84,819.788,1537,817.152,1539.425,817.808Z" transform="translate(-1494.955 -756.017)" fill="#ff654f"/>
        </g>
      </g>
      <g id="Group_7196" data-name="Group 7196" transform="translate(23.869 299.851)">
        <ellipse id="Ellipse_760" data-name="Ellipse 760" cx="190.665" cy="13.27" rx="190.665" ry="13.27" fill="#e5e6eb"/>
      </g>
      <g id="Group_7204" data-name="Group 7204" transform="translate(73.496 91.007)">
        <g id="Group_7197" data-name="Group 7197" transform="translate(17.452 17.452)">
          <rect id="Rectangle_1621" data-name="Rectangle 1621" width="237.151" height="129.558" fill="#155bcd"/>
        </g>
        <g id="Group_7198" data-name="Group 7198">
          <path id="Path_11070" data-name="Path 11070" d="M673.776,730.18H422.9a10.59,10.59,0,0,0-10.589,10.589V892.833A10.59,10.59,0,0,0,422.9,903.424H673.776a10.591,10.591,0,0,0,10.589-10.592V740.769A10.59,10.59,0,0,0,673.776,730.18Zm1.069,154.943H421.828V739.7H674.845Z" transform="translate(-412.31 -730.18)" fill="#155bcd"/>
        </g>
        <g id="Group_7199" data-name="Group 7199" transform="translate(17.452 17.452)">
          <rect id="Rectangle_1622" data-name="Rectangle 1622" width="237.151" height="129.558" fill="#e5e6eb"/>
        </g>
        <g id="Group_7200" data-name="Group 7200" transform="translate(9.518 9.52)">
          <path id="Path_11071" data-name="Path 11071" d="M453.43,771.31V916.733H706.448V771.31ZM698.515,908.8H461.365V779.242H698.515Z" transform="translate(-453.43 -771.31)" fill="#84a9ff"/>
        </g>
        <g id="Group_7201" data-name="Group 7201" transform="translate(130.05 158.622)">
          <circle id="Ellipse_761" data-name="Ellipse 761" cx="5.977" cy="5.977" r="5.977" fill="#050f64"/>
        </g>
        <g id="Group_7202" data-name="Group 7202" transform="translate(105.813 173.243)">
          <rect id="Rectangle_1623" data-name="Rectangle 1623" width="60.429" height="30.583" fill="#050f64"/>
        </g>
        <g id="Group_7203" data-name="Group 7203" transform="translate(41.208 203.09)">
          <path id="Path_11072" data-name="Path 11072" d="M779.982,1627.869H590.342l8.966-20.266H771.016Z" transform="translate(-590.342 -1607.603)" fill="#155bcd"/>
        </g>
      </g>
      <g id="Group_7205" data-name="Group 7205" transform="translate(128.509 80.512)">
        <path id="Path_11073" data-name="Path 11073" d="M800.361,695.328V908.557H660.471V695.328A10.486,10.486,0,0,0,649.99,684.84H789.876v0l0,0A10.486,10.486,0,0,1,800.361,695.328Z" transform="translate(-649.99 -684.84)" fill="#fff"/>
      </g>
      <g id="Group_7207" data-name="Group 7207" transform="translate(139.464 80.512)">
        <g id="Group_7206" data-name="Group 7206">
          <path id="Path_11074" data-name="Path 11074" d="M818.694,684.84c4.349,1.118,7.518,6.117,7.518,10.49l.109,202.811H707.261l-.106-202.814a14.219,14.219,0,0,0-4.979-10.487H697.32c4.352,1.118,7.52,6.117,7.52,10.49l.109,205.126H828.635l-.109-205.128a14.219,14.219,0,0,0-4.979-10.487Z" transform="translate(-697.32 -684.84)" fill="#84a9ff"/>
        </g>
      </g>
      <g id="Group_7208" data-name="Group 7208" transform="translate(128.506 80.513)">
        <path id="Path_11075" data-name="Path 11075" d="M649.976,684.845h0Z" transform="translate(-649.976 -684.845)" fill="#fff"/>
      </g>
      <g id="Group_7209" data-name="Group 7209" transform="translate(118.021 80.513)">
        <path id="Path_11076" data-name="Path 11076" d="M625.647,695.332h-20.97a10.485,10.485,0,1,1,20.97,0Z" transform="translate(-604.677 -684.845)" fill="#050f64"/>
      </g>
      <g id="Group_7210" data-name="Group 7210" transform="translate(160.148 106.507)">
        <rect id="Rectangle_1624" data-name="Rectangle 1624" width="97.393" height="15.177" fill="#155bcd"/>
      </g>
      <g id="Group_7212" data-name="Group 7212" transform="translate(160.148 134.358)">
        <g id="Group_7211" data-name="Group 7211">
          <rect id="Rectangle_1625" data-name="Rectangle 1625" width="97.393" height="2.207" fill="#84a9ff"/>
        </g>
      </g>
      <g id="Group_7214" data-name="Group 7214" transform="translate(160.148 146.759)">
        <g id="Group_7213" data-name="Group 7213">
          <rect id="Rectangle_1626" data-name="Rectangle 1626" width="97.393" height="2.207" fill="#84a9ff"/>
        </g>
      </g>
      <g id="Group_7216" data-name="Group 7216" transform="translate(160.148 159.161)">
        <g id="Group_7215" data-name="Group 7215">
          <rect id="Rectangle_1627" data-name="Rectangle 1627" width="97.393" height="2.207" fill="#84a9ff"/>
        </g>
      </g>
      <g id="Group_7218" data-name="Group 7218" transform="translate(160.148 171.562)">
        <g id="Group_7217" data-name="Group 7217">
          <rect id="Rectangle_1628" data-name="Rectangle 1628" width="97.393" height="2.207" fill="#84a9ff"/>
        </g>
      </g>
      <g id="Group_7220" data-name="Group 7220" transform="translate(160.148 183.964)">
        <g id="Group_7219" data-name="Group 7219">
          <rect id="Rectangle_1629" data-name="Rectangle 1629" width="97.393" height="2.207" fill="#84a9ff"/>
        </g>
      </g>
      <g id="Group_7222" data-name="Group 7222" transform="translate(160.148 196.365)">
        <g id="Group_7221" data-name="Group 7221">
          <rect id="Rectangle_1630" data-name="Rectangle 1630" width="97.393" height="2.207" fill="#84a9ff"/>
        </g>
      </g>
      <g id="Group_7224" data-name="Group 7224" transform="translate(160.148 208.767)">
        <g id="Group_7223" data-name="Group 7223">
          <rect id="Rectangle_1631" data-name="Rectangle 1631" width="97.393" height="2.207" fill="#84a9ff"/>
        </g>
      </g>
      <g id="Group_7226" data-name="Group 7226" transform="translate(160.148 221.168)">
        <g id="Group_7225" data-name="Group 7225">
          <rect id="Rectangle_1632" data-name="Rectangle 1632" width="97.393" height="2.207" fill="#84a9ff"/>
        </g>
      </g>
      <g id="Group_7228" data-name="Group 7228" transform="translate(160.148 233.57)">
        <g id="Group_7227" data-name="Group 7227">
          <rect id="Rectangle_1633" data-name="Rectangle 1633" width="97.393" height="2.207" fill="#84a9ff"/>
        </g>
      </g>
      <g id="Group_7230" data-name="Group 7230" transform="translate(160.148 245.971)">
        <g id="Group_7229" data-name="Group 7229">
          <rect id="Rectangle_1634" data-name="Rectangle 1634" width="51.425" height="2.207" fill="#84a9ff"/>
        </g>
      </g>
      <g id="Group_7232" data-name="Group 7232" transform="translate(160.148 258.373)">
        <g id="Group_7231" data-name="Group 7231">
          <rect id="Rectangle_1635" data-name="Rectangle 1635" width="44.351" height="2.207" fill="#84a9ff"/>
        </g>
      </g>
      <g id="Group_7234" data-name="Group 7234" transform="translate(160.148 270.774)">
        <g id="Group_7233" data-name="Group 7233">
          <rect id="Rectangle_1636" data-name="Rectangle 1636" width="50.443" height="2.207" fill="#84a9ff"/>
        </g>
      </g>
      <g id="Group_7239" data-name="Group 7239" transform="translate(217.27 244.116)">
        <g id="Group_7236" data-name="Group 7236" transform="translate(8.95 1.307)">
          <g id="Group_7235" data-name="Group 7235">
            <path id="Path_11077" data-name="Path 11077" d="M1101.614,1397.382l-17.235,21.346a1.23,1.23,0,0,1-1.982-.094l-4.189-6.324c-.744-1.123-2.718-1.021-4.333.224s-2.217,3.127-1.321,4.133l9.4,10.892a1.408,1.408,0,0,0,2.272-.192l17.9-29.629C1102.261,1397.513,1101.779,1397.178,1101.614,1397.382Z" transform="translate(-1072.138 -1397.319)" fill="#155bcd"/>
          </g>
        </g>
        <g id="Group_7238" data-name="Group 7238">
          <g id="Group_7237" data-name="Group 7237">
            <path id="Path_11078" data-name="Path 11078" d="M1053.605,1431.94a20.135,20.135,0,1,1,8.652-38.321,1.308,1.308,0,0,1-1.125,2.361,17.361,17.361,0,0,0-7.527-1.694,17.5,17.5,0,1,0,17.048,13.464,1.307,1.307,0,1,1,2.544-.6,20.223,20.223,0,0,1,.542,4.659,20.135,20.135,0,0,1-20.135,20.135Z" transform="translate(-1033.47 -1391.67)" fill="#155bcd"/>
          </g>
        </g>
      </g>
      <g id="Group_7249" data-name="Group 7249" transform="translate(223.591 63.685)">
        <g id="Group_7240" data-name="Group 7240">
          <path id="Path_11079" data-name="Path 11079" d="M1096.355,700.568c-.09-.069-2.248-1.734-5.488-4.511a175.919,175.919,0,0,1-13.939-13.286c-10.716-11.516-16.15-21.373-16.15-29.3V619.295l2.3-.825a104.482,104.482,0,0,1,35.343-6.327,100.429,100.429,0,0,1,13.065.86,109.136,109.136,0,0,1,22.377,5.465l2.306.823v34.184c0,8.4-6.086,18.945-18.089,31.34a179.826,179.826,0,0,1-17.488,15.755l-2.119,1.631Z" transform="translate(-1060.778 -612.142)" fill="#84a9ff"/>
        </g>
        <g id="Group_7241" data-name="Group 7241" transform="translate(7.447 8.209)">
          <path id="Path_11080" data-name="Path 11080" d="M1153.449,653.02v28.051c0,15.916-30.249,39.194-30.249,39.194s-1.89-1.455-4.726-3.886a151.671,151.671,0,0,1-12.071-11.5c-6.966-7.486-13.452-16.435-13.452-23.8V653.02a87.162,87.162,0,0,1,41.35-4.678A92.96,92.96,0,0,1,1153.449,653.02Z" transform="translate(-1092.95 -647.608)" fill="#155bcd"/>
        </g>
        <g id="Group_7248" data-name="Group 7248" transform="translate(25.208 21.015)">
          <g id="Group_7243" data-name="Group 7243" transform="translate(0 9.504)">
            <g id="Group_7242" data-name="Group 7242">
              <rect id="Rectangle_1637" data-name="Rectangle 1637" width="24.976" height="20.714" rx="10.357" fill="#fff"/>
            </g>
          </g>
          <g id="Group_7245" data-name="Group 7245" transform="translate(2.984)">
            <g id="Group_7244" data-name="Group 7244">
              <path id="Path_11081" data-name="Path 11081" d="M1201.586,718.209h-19.007v-5.771a9.5,9.5,0,0,1,19.007,0Zm-15.594-3.414h12.18v-2.357a6.09,6.09,0,0,0-12.18,0Z" transform="translate(-1182.579 -702.935)" fill="#fff"/>
            </g>
          </g>
          <g id="Group_7247" data-name="Group 7247" transform="translate(5.729 14.338)">
            <g id="Group_7246" data-name="Group 7246">
              <path id="Path_11082" data-name="Path 11082" d="M1199.4,776.327l-4.733-5.153a.832.832,0,0,1-.014-1.136.8.8,0,0,1,1.164.018l3.634,3.957a.691.691,0,0,0,1.054-.043l6.832-8.767a.815.815,0,0,1,1-.246.8.8,0,0,1,.282,1.215l-7.871,10.1A.882.882,0,0,1,1199.4,776.327Z" transform="translate(-1194.435 -764.878)" fill="#155bcd"/>
            </g>
          </g>
        </g>
      </g>
      <g id="Group_7296" data-name="Group 7296" transform="translate(201.651 112.994)">
        <g id="Group_7283" data-name="Group 7283" transform="translate(91.568 65.573)">
          <g id="Group_7254" data-name="Group 7254" transform="translate(34.62 133.345)">
            <g id="Group_7251" data-name="Group 7251" transform="translate(1.734)">
              <g id="Group_7250" data-name="Group 7250">
                <path id="Path_11083" data-name="Path 11083" d="M1526.269,1684.615c.007,3.756-5.591,6.074-6.6,6.264-.665.126-.9-.724-1.01-1.305a5.587,5.587,0,0,0,2.759-1.842c1.794-1.954,1.845-3.16,1.845-3.16l3,.037Z" transform="translate(-1518.658 -1684.573)" fill="#f4bcc7"/>
              </g>
            </g>
            <g id="Group_7253" data-name="Group 7253" transform="translate(0 0.042)">
              <g id="Group_7252" data-name="Group 7252">
                <path id="Path_11084" data-name="Path 11084" d="M1520.513,1684.755c-.142,3.709-5.238,5.768-6.25,5.957a1.226,1.226,0,0,1-1.362-1c-.273.079-1.077.308-1.325.414-.9.386-.135,1.082.652,1.428a4.36,4.36,0,0,0,2.549.112,10.7,10.7,0,0,0,5.055-3.357l-.041,3.338,1.263.015.05-4.052A5.1,5.1,0,0,0,1520.513,1684.755Z" transform="translate(-1511.167 -1684.755)" fill="#050f64"/>
              </g>
            </g>
          </g>
          <g id="Group_7259" data-name="Group 7259" transform="translate(49.856 133.077)">
            <g id="Group_7256" data-name="Group 7256" transform="translate(1.694)">
              <g id="Group_7255" data-name="Group 7255">
                <path id="Path_11085" data-name="Path 11085" d="M1591.7,1683.42c.173,3.753-5.318,6.315-6.32,6.549-.659.155-.932-.684-1.066-1.259a5.585,5.585,0,0,0,2.675-1.961c1.706-2.031,1.7-3.238,1.7-3.238l3-.1Z" transform="translate(-1584.314 -1683.415)" fill="#f4bcc7"/>
              </g>
            </g>
            <g id="Group_7258" data-name="Group 7258" transform="translate(0 0.005)">
              <g id="Group_7257" data-name="Group 7257">
                <path id="Path_11086" data-name="Path 11086" d="M1586.074,1683.438c.022,3.711-4.979,5.993-5.981,6.227a1.226,1.226,0,0,1-1.405-.937c-.269.091-1.062.355-1.306.472-.887.426-.087,1.087.714,1.4a4.359,4.359,0,0,0,2.552,0,10.7,10.7,0,0,0,4.9-3.577l.106,3.336,1.263-.04-.129-4.05A5.094,5.094,0,0,0,1586.074,1683.438Z" transform="translate(-1576.994 -1683.438)" fill="#050f64"/>
              </g>
            </g>
          </g>
          <g id="Group_7260" data-name="Group 7260" transform="translate(33.818 54.986)">
            <path id="Path_11087" data-name="Path 11087" d="M1507.724,1379.127l0-.008a5.459,5.459,0,0,1,.035-1.213h0l0-.016c.026-.183,6.1-31.857,6.1-31.857s20.23,0,20.23,0c3.426,12.434,3.724,24.58.015,33.214h0l-1.2,44.9-3.258.1-7.02-50.612a32.131,32.131,0,0,1-4,6.466l-.609,44.336-3.423-.048S1507.739,1379.3,1507.724,1379.127Z" transform="translate(-1507.704 -1346.033)" fill="#050f64"/>
          </g>
          <g id="Group_7262" data-name="Group 7262" transform="translate(44.851 2.775)">
            <g id="Group_7261" data-name="Group 7261">
              <path id="Path_11088" data-name="Path 11088" d="M1566.719,1120.459s2.353.136,2.678,3.739c.387,4.284-1.468,9.2-5.631,10.544-5.617,1.808-8.4-3.928-8.4-3.928s1.645.543,1.344-2.388S1566.719,1120.459,1566.719,1120.459Z" transform="translate(-1555.368 -1120.459)" fill="#050f64"/>
            </g>
          </g>
          <g id="Group_7266" data-name="Group 7266" transform="translate(0 19.839)">
            <g id="Group_7265" data-name="Group 7265">
              <g id="Group_7264" data-name="Group 7264">
                <g id="Group_7263" data-name="Group 7263">
                  <path id="Path_11089" data-name="Path 11089" d="M1361.62,1212.648a1.344,1.344,0,0,1,1.386-1.179c1.926.187,3.848.359,5.758.486s3.809.216,5.669.2a31.61,31.61,0,0,0,5.389-.45,19.215,19.215,0,0,0,4.811-1.516,23.092,23.092,0,0,0,4.263-2.725,46.125,46.125,0,0,0,3.976-3.6c.322-.33.647-.645.966-.985l.959-1.009c.634-.692,1.269-1.373,1.9-2.083,1.259-1.4,2.5-2.851,3.748-4.306,1.618-1.809,4.632-1.729,6.626.214h0a4.58,4.58,0,0,1,.3,6.655c-1.488,1.29-2.983,2.578-4.526,3.851-.762.639-1.553,1.268-2.334,1.9l-1.2.934c-.4.312-.817.615-1.224.922a53.184,53.184,0,0,1-5.24,3.464,29.655,29.655,0,0,1-6.011,2.646,25.147,25.147,0,0,1-6.494,1.019,36.608,36.608,0,0,1-6.217-.406c-2-.287-3.951-.676-5.875-1.1s-3.823-.884-5.713-1.359A1.337,1.337,0,0,1,1361.62,1212.648Z" transform="translate(-1361.596 -1194.183)" fill="#ea8096"/>
                </g>
              </g>
            </g>
          </g>
          <g id="Group_7267" data-name="Group 7267" transform="translate(36.666 18.149)">
            <path id="Path_11090" data-name="Path 11090" d="M1533.343,1186.882h0a13.331,13.331,0,0,0-13.183,15.314l3.159,21.524c5.831,2.18,13.48,1.883,20.23,0l.79-24.941A11.03,11.03,0,0,0,1533.343,1186.882Z" transform="translate(-1520.009 -1186.882)" fill="#fff"/>
          </g>
          <g id="Group_7268" data-name="Group 7268" transform="translate(36.474 17.989)">
            <path id="Path_11091" data-name="Path 11091" d="M1519.329,1201.692l.29,1.979.2-.007-.293-2a13.25,13.25,0,0,1,1.4-8.229l-.159-.11A13.511,13.511,0,0,0,1519.329,1201.692Zm1.382,8.079-.194.011.843,5.744.191-.035Zm.683-17.506.165.1a13.325,13.325,0,0,1,10.147-5.981l.034-.2a13.527,13.527,0,0,0-10.347,6.076Zm.529,25.762-.183.091.764,5.211.108.041a27.045,27.045,0,0,0,9.458,1.537,39.4,39.4,0,0,0,6.207-.509l-.058-.186c-5.429.866-11.027.662-15.539-1.025Zm19.536-27.673-.123.158a10.976,10.976,0,0,1,2.364,7.734l-.165,5.229.2-.042.164-5.181A11.255,11.255,0,0,0,1541.46,1190.355Zm1.8,21.894-.243,7.651.193.021.245-7.728Z" transform="translate(-1519.178 -1186.189)" fill="#155bcd"/>
          </g>
          <g id="Group_7282" data-name="Group 7282" transform="translate(45.386)">
            <g id="Group_7270" data-name="Group 7270" transform="translate(1.534 12.363)">
              <g id="Group_7269" data-name="Group 7269">
                <path id="Path_11092" data-name="Path 11092" d="M1565.291,1161.886l-.981,8.12a4.534,4.534,0,0,0,5.291.639l.98-8.12Z" transform="translate(-1564.31 -1161.886)" fill="#f4bcc7"/>
              </g>
            </g>
            <g id="Group_7272" data-name="Group 7272" transform="translate(2.182 13.099)">
              <g id="Group_7271" data-name="Group 7271">
                <path id="Path_11093" data-name="Path 11093" d="M1567.352,1165.064l-.243,2.014a5.814,5.814,0,0,0,2.589,1.134c.055.008.11.017.165.023a3.546,3.546,0,0,0,2.556-.675l.224-1.858Z" transform="translate(-1567.109 -1165.064)" fill="#ea8096"/>
              </g>
            </g>
            <g id="Group_7274" data-name="Group 7274" transform="translate(0.666 2.677)">
              <g id="Group_7273" data-name="Group 7273">
                <path id="Path_11094" data-name="Path 11094" d="M1561.137,1121.814l-.478,4.964-.08.831a5.065,5.065,0,0,0,4.2,5.435,2.888,2.888,0,0,0,1.175-.045,2.744,2.744,0,0,0,1.093-.543,8.52,8.52,0,0,0,1.677-1.963c.094-.141.187-.282.277-.424a7.969,7.969,0,0,0,1.461-3.866l-.051-4.258-7.478-1.91Z" transform="translate(-1560.559 -1120.036)" fill="#f4bcc7"/>
              </g>
            </g>
            <g id="Group_7279" data-name="Group 7279">
              <g id="Group_7276" data-name="Group 7276">
                <g id="Group_7275" data-name="Group 7275">
                  <path id="Path_11095" data-name="Path 11095" d="M1566.506,1113.051s-3.544-1.529-5.76-.527c-1.133.512-1.809,2.646-2.324,5.624,0,0-2.072-4.2.716-7.461s8.908-2.959,9.848,1.132Z" transform="translate(-1557.681 -1108.471)" fill="#050f64"/>
                </g>
              </g>
              <g id="Group_7278" data-name="Group 7278" transform="translate(8.824 3.28)">
                <g id="Group_7277" data-name="Group 7277">
                  <path id="Path_11096" data-name="Path 11096" d="M1595.806,1123.941a8.311,8.311,0,0,1,.5,6.241s1.706.91,2.173-.565,1.937-5.582-1.166-6.976Z" transform="translate(-1595.806 -1122.641)" fill="#050f64"/>
                </g>
              </g>
            </g>
            <g id="Group_7281" data-name="Group 7281" transform="translate(8.264 7.491)">
              <g id="Group_7280" data-name="Group 7280" transform="translate(0 0)">
                <circle id="Ellipse_762" data-name="Ellipse 762" cx="1.939" cy="1.939" r="1.939" transform="translate(0 3.791) rotate(-77.862)" fill="#f4bcc7"/>
              </g>
            </g>
          </g>
        </g>
        <g id="Group_7291" data-name="Group 7291">
          <g id="Group_7285" data-name="Group 7285" transform="translate(65.549 64.447)">
            <g id="Group_7284" data-name="Group 7284" transform="translate(0 0)">
              <rect id="Rectangle_1638" data-name="Rectangle 1638" width="11.218" height="18.808" transform="translate(0 8.075) rotate(-46.045)" fill="#155bcd"/>
            </g>
          </g>
          <g id="Group_7287" data-name="Group 7287" transform="translate(77.142 75.483)">
            <g id="Group_7286" data-name="Group 7286" transform="translate(0 0)">
              <rect id="Rectangle_1639" data-name="Rectangle 1639" width="16.826" height="57.319" transform="translate(0 12.113) rotate(-46.045)" fill="#84a9ff"/>
            </g>
          </g>
          <g id="Group_7290" data-name="Group 7290">
            <g id="Group_7288" data-name="Group 7288">
              <path id="Path_11097" data-name="Path 11097" d="M1038.367,837.125a42.734,42.734,0,1,0-3.055,64.21,43.171,43.171,0,0,0,7.786-8.076A42.8,42.8,0,0,0,1038.367,837.125ZM986.83,890.576a31.517,31.517,0,1,1,44.565-.812A31.553,31.553,0,0,1,986.83,890.576Z" transform="translate(-965.99 -825.173)" fill="#84a9ff"/>
            </g>
            <g id="Group_7289" data-name="Group 7289" transform="translate(11.212 11.212)" opacity="0.5">
              <path id="Path_11098" data-name="Path 11098" d="M1068.623,926.99a31.519,31.519,0,1,1-.815-44.566A31.551,31.551,0,0,1,1068.623,926.99Z" transform="translate(-1014.43 -873.611)" fill="#84a9ff"/>
            </g>
          </g>
        </g>
        <g id="Group_7295" data-name="Group 7295" transform="translate(103.665 88.933)">
          <g id="Group_7294" data-name="Group 7294">
            <g id="Group_7293" data-name="Group 7293">
              <g id="Group_7292" data-name="Group 7292">
                <path id="Path_11099" data-name="Path 11099" d="M1413.861,1234.169a1.343,1.343,0,0,1,1.187-1.378c1.932-.113,3.858-.24,5.764-.411s3.8-.375,5.632-.677a31.605,31.605,0,0,0,5.255-1.278,19.217,19.217,0,0,0,4.518-2.242,23.108,23.108,0,0,0,3.791-3.351,46.031,46.031,0,0,0,3.372-4.17c.268-.376.54-.737.8-1.123l.791-1.145c.52-.781,1.042-1.552,1.552-2.351,1.027-1.581,2.034-3.2,3.037-4.834,1.319-2.037,4.309-2.424,6.58-.813h0a4.58,4.58,0,0,1,1.322,6.529c-1.271,1.5-2.549,3.009-3.876,4.5-.654.749-1.338,1.493-2.013,2.236l-1.042,1.109c-.343.37-.712.734-1.067,1.1a53.175,53.175,0,0,1-4.641,4.233,29.621,29.621,0,0,1-5.53,3.543,25.115,25.115,0,0,1-6.258,2.011,36.625,36.625,0,0,1-6.2.56c-2.024.026-4.008-.058-5.974-.177s-3.914-.282-5.855-.459A1.337,1.337,0,0,1,1413.861,1234.169Z" transform="translate(-1413.861 -1209.398)" fill="#f4bcc7"/>
              </g>
            </g>
          </g>
        </g>
      </g>
      <g id="Group_7336" data-name="Group 7336" transform="translate(77.347 178.847)">
        <g id="Group_7325" data-name="Group 7325" transform="translate(7.952)">
          <g id="Group_7298" data-name="Group 7298" transform="translate(32.369 136.079)">
            <g id="Group_7297" data-name="Group 7297">
              <path id="Path_11100" data-name="Path 11100" d="M603.17,1701.661h13.4a2.061,2.061,0,0,0-.377-1.256,2.122,2.122,0,0,0-1.343-.715,12.9,12.9,0,0,0-1.555-.09,8.229,8.229,0,0,1-3.635-1.053,12.332,12.332,0,0,0-1.745-.952l-3.651.1a4.183,4.183,0,0,0-.976,1.969A7.369,7.369,0,0,0,603.17,1701.661Z" transform="translate(-603.151 -1697.596)" fill="#050f64"/>
            </g>
          </g>
          <g id="Group_7300" data-name="Group 7300" transform="translate(2.659 136.079)">
            <g id="Group_7299" data-name="Group 7299">
              <path id="Path_11101" data-name="Path 11101" d="M474.811,1701.661h13.4a2.063,2.063,0,0,0-.377-1.256,2.122,2.122,0,0,0-1.343-.715,12.9,12.9,0,0,0-1.555-.09,8.228,8.228,0,0,1-3.635-1.053,12.341,12.341,0,0,0-1.745-.952l-3.651.1a4.183,4.183,0,0,0-.976,1.969A7.374,7.374,0,0,0,474.811,1701.661Z" transform="translate(-474.792 -1697.596)" fill="#050f64"/>
            </g>
          </g>
          <g id="Group_7301" data-name="Group 7301" transform="translate(3.444 63.028)">
            <path id="Path_11102" data-name="Path 11102" d="M479.049,1387.778c.153-3.6,28.131-8.057,28.375-4.462l3.586,28.219q.276,2.268.345,4.555l1.17,39.11-4.674-.029L494.98,1402.2l-5.59,19.841-6.568,33-4.638.123S478.969,1389.666,479.049,1387.778Z" transform="translate(-478.184 -1381.988)" fill="#050f64"/>
          </g>
          <g id="Group_7306" data-name="Group 7306" transform="translate(17.609 21.009)">
            <g id="Group_7303" data-name="Group 7303" transform="translate(33.794 40.719)">
              <g id="Group_7302" data-name="Group 7302">
                <path id="Path_11103" data-name="Path 11103" d="M689.277,1377.72l-2.748-1.349-1.142,3,2.933.862a1.346,1.346,0,1,0,.957-2.515Z" transform="translate(-685.387 -1376.371)" fill="#f4bcc7"/>
              </g>
            </g>
            <g id="Group_7304" data-name="Group 7304" transform="translate(0.186 0.187)">
              <path id="Path_11104" data-name="Path 11104" d="M573.766,1245.009l1.455-3.454a97.052,97.052,0,0,1-10.763-5.979,36.13,36.13,0,0,1-4.607-3.608,25.235,25.235,0,0,1-3.663-4.242,32.151,32.151,0,0,1-4.395-10.344c-.467-1.884-.829-3.822-1.131-5.784l-.212-1.479-.181-1.493-.089-.746-.074-.753-.147-1.5c-.007-.073-.015-.147-.026-.219a4.516,4.516,0,0,0-.633-1.752,5.007,5.007,0,0,0-4.846-2.359h-.013a4.767,4.767,0,0,0-3.328,1.94,4.922,4.922,0,0,0-.836,3.85l.354,1.607.178.8.2.8c.131.536.257,1.07.394,1.606l.431,1.606c.6,2.141,1.27,4.279,2.077,6.4a47.269,47.269,0,0,0,2.914,6.25,34.35,34.35,0,0,0,4.046,5.753,31.668,31.668,0,0,0,5.168,4.7,41.811,41.811,0,0,0,5.774,3.5c1.971,1,3.965,1.863,5.961,2.66S571.768,1244.3,573.766,1245.009Z" transform="translate(-540.188 -1201.259)" fill="#fff"/>
            </g>
            <g id="Group_7305" data-name="Group 7305">
              <path id="Path_11105" data-name="Path 11105" d="M549.694,1208.35l.178-.084-.034-.283-.089-.745-.22-2.254c-.007-.074-.016-.152-.027-.227a4.694,4.694,0,0,0-.659-1.825,5.41,5.41,0,0,0-.411-.575l-.113.157a5.69,5.69,0,0,1,.365.517,4.511,4.511,0,0,1,.632,1.752c.011.073.018.147.026.219l.147,1.505.074.753.088.746Zm1.426,8.179.175-.073c-.3-1.228-.567-2.545-.815-3.985l-.182.049C550.531,1213.874,550.8,1215.215,551.12,1216.529Zm-11.5-9.393.2.052-.16-.725a4.917,4.917,0,0,1,.836-3.85,4.761,4.761,0,0,1,3.327-1.94l.013,0a5.028,5.028,0,0,1,2.888.535l.112-.153a5.2,5.2,0,0,0-3.021-.567H543.8a4.982,4.982,0,0,0-1.936.641,4.928,4.928,0,0,0-1.521,1.376,5.133,5.133,0,0,0-.869,3.995Zm7.843,20.807.143-.123c-.5-.745-.962-1.508-1.4-2.281a47.4,47.4,0,0,1-2.915-6.25c-.806-2.121-1.478-4.26-2.077-6.4l-.431-1.607c0-.011-.006-.023-.009-.034l-.172.078v0l.431,1.608c.669,2.391,1.35,4.49,2.083,6.419a47.188,47.188,0,0,0,2.926,6.276Q546.717,1226.827,547.462,1227.943Zm9.1,9.081a43.646,43.646,0,0,0,4.544,2.641c1.769.9,3.668,1.746,5.977,2.667.816.325,1.655.649,2.566.989l-.067-.225q-1.215-.455-2.429-.937c-2-.8-3.991-1.659-5.961-2.66a43.5,43.5,0,0,1-4.541-2.641C556.624,1236.914,556.594,1236.969,556.564,1237.024Zm8.72-1.139.047-.192q-.7-.439-1.387-.894a35.583,35.583,0,0,1-4.583-3.589,24.5,24.5,0,0,1-5.071-6.594l-.187.046a24.675,24.675,0,0,0,5.131,6.685,36.216,36.216,0,0,0,4.606,3.608Q564.551,1235.43,565.284,1235.885Zm1.478.894c2.511,1.476,5.165,2.828,7.842,4.155l-.673,1.6.137.156.776-1.842-.157-.079c-2.467-1.223-5.207-2.608-7.84-4.155Z" transform="translate(-539.384 -1200.452)" fill="#83a8ff"/>
            </g>
          </g>
          <g id="Group_7307" data-name="Group 7307" transform="translate(0.187 18.894)">
            <path id="Path_11106" data-name="Path 11106" d="M468.234,1241.234c10.678,1.848,17.641,2.846,28.375-4.462l-4.079-26.572-.624-3.965-.23-1.455-.441-2.8c-.06-.392-.137-.779-.231-1.155a12.547,12.547,0,0,0-9.152-9.143,11.98,11.98,0,0,0-1.3-.25,12.5,12.5,0,0,0-4.64.23q-.621.149-1.218.345a15.118,15.118,0,0,0-2.47,1.056,15.363,15.363,0,0,0-8,15.4l.047.385.179,1.463.22,1.851Z" transform="translate(-464.113 -1191.31)" fill="#fff"/>
          </g>
          <g id="Group_7308" data-name="Group 7308" transform="translate(0 18.706)">
            <path id="Path_11107" data-name="Path 11107" d="M491.264,1205.467l.024.147.624,3.965.576,3.752.186-.018-.577-3.762-.624-3.967-.025-.156Zm-8.312,36.207c.018.06.035.121.052.181l.049-.007a28.567,28.567,0,0,0,10.411-3.87l-.118-.148A28.148,28.148,0,0,1,482.952,1241.673Zm-15.506-.9.137.024c1.033.178,2.018.346,2.962.5l.034-.182c-.958-.155-1.944-.323-2.963-.5l-3.565-29.08-.221-1.851-.179-1.463-.046-.385a15.321,15.321,0,0,1,1.063-7.736l-.2-.014a15.541,15.541,0,0,0-1.05,7.773l.046.385.179,1.463.22,1.85Zm8.922-50.134c-.307.045-.616.1-.922.172l.137.161a12.486,12.486,0,0,1,4.352-.165,12.183,12.183,0,0,1,1.3.25,12.55,12.55,0,0,1,9.152,9.143c.047.187.089.376.128.567l.166-.114c-.034-.168-.072-.334-.112-.5a12.7,12.7,0,0,0-9.289-9.28,12.212,12.212,0,0,0-1.319-.253A12.582,12.582,0,0,0,476.368,1190.639Zm17.589,32.27,1.134,7.391.193.023-1.145-7.458Z" transform="translate(-463.305 -1190.501)" fill="#84a9ff"/>
          </g>
          <g id="Group_7310" data-name="Group 7310" transform="translate(13.978 23.241)">
            <g id="Group_7309" data-name="Group 7309">
              <path id="Path_11108" data-name="Path 11108" d="M523.694,1210.716q.816-.31,1.631-.624a128.131,128.131,0,0,1,8.54,36.241q-1.084,2.008-2.227,3.955-1.3-1.8-2.641-3.528A126.179,126.179,0,0,0,523.694,1210.716Z" transform="translate(-523.694 -1210.092)" fill="#ff654f"/>
            </g>
          </g>
          <g id="Group_7324" data-name="Group 7324" transform="translate(5.199)">
            <g id="Group_7312" data-name="Group 7312" transform="translate(3.102 19.012)">
              <g id="Group_7311" data-name="Group 7311">
                <path id="Path_11109" data-name="Path 11109" d="M499.171,1193.452l5.378,6.552,1.117-3.636,3.792,2.453-.661-6.751a12.037,12.037,0,0,0-1.3-.25l-.317.179-1.986,2.836-3.555-2.439A15.132,15.132,0,0,0,499.171,1193.452Z" transform="translate(-499.171 -1191.82)" fill="#83a8ff"/>
              </g>
            </g>
            <g id="Group_7319" data-name="Group 7319" transform="translate(1.947 1.745)">
              <g id="Group_7314" data-name="Group 7314" transform="translate(2.653 10.26)">
                <g id="Group_7313" data-name="Group 7313">
                  <path id="Path_11110" data-name="Path 11110" d="M511.441,1161.551l1.22,8.9a4.982,4.982,0,0,1-5.8.795l-1.22-8.9Z" transform="translate(-505.641 -1161.551)" fill="#f4bcc7"/>
                </g>
              </g>
              <g id="Group_7316" data-name="Group 7316" transform="translate(2.653 10.26)">
                <g id="Group_7315" data-name="Group 7315">
                  <path id="Path_11111" data-name="Path 11111" d="M511.441,1161.551l.552,4.027a4.745,4.745,0,0,1-1.258.476q-.217.048-.436.078a5.265,5.265,0,0,1-4.331-1.4l-.328-2.389Z" transform="translate(-505.641 -1161.551)" fill="#ea8096"/>
                </g>
              </g>
              <g id="Group_7318" data-name="Group 7318">
                <g id="Group_7317" data-name="Group 7317">
                  <path id="Path_11112" data-name="Path 11112" d="M504.522,1121.677l.368,3.739.149,1.513a4.17,4.17,0,0,1-3.241,4.481,4.672,4.672,0,0,1-2.026,0c-.152-.033-.3-.075-.448-.122-.091-.029-.181-.061-.27-.1a4.583,4.583,0,0,1-2.135-1.726c-.447-.672-.884-1.421-1.312-2.217-.246-.454-.489-.924-.728-1.4a6.343,6.343,0,0,1,.463-6.565,5.115,5.115,0,0,1,9.181,2.391Z" transform="translate(-494.178 -1117.223)" fill="#f4bcc7"/>
                </g>
              </g>
            </g>
            <g id="Group_7321" data-name="Group 7321">
              <g id="Group_7320" data-name="Group 7320">
                <path id="Path_11113" data-name="Path 11113" d="M498.611,1116.549s-.64-3.418-2.419-4.871a1.96,1.96,0,0,1,1.078.621,5.017,5.017,0,0,0-2.008-1.624,3.409,3.409,0,0,1,1.413-.413,13.381,13.381,0,0,0-3.012-.016c-.674.217.939-.534,1.633-.477,0,0-7.095-1.025-8.56,3.984l.027.035c-.386.3-2.223,2.053.35,6.642.93-1.065,1.811-1.38,3.113.058l.462-.068s-1.023-1.8-.721-2.951a3.829,3.829,0,0,0-.02-1.738,5.564,5.564,0,0,1,.912.2c1.831.541,2.253-.06,2.253-.06s-1.486.1-1.879-.567c0,0,2.21.339,3.093-.391,0,0-1.4.338-1.439-.289-.032-.452,2.041-1.361,3.861-.309a10.506,10.506,0,0,1,1.567,4.192,14.218,14.218,0,0,0-.312-3.03A5.733,5.733,0,0,1,498.611,1116.549Z" transform="translate(-485.768 -1109.683)" fill="#050f64"/>
              </g>
            </g>
            <g id="Group_7323" data-name="Group 7323" transform="translate(1.129 8.229)">
              <g id="Group_7322" data-name="Group 7322">
                <path id="Path_11114" data-name="Path 11114" d="M495.006,1146.9a2.208,2.208,0,1,1-2.438-1.636A2.083,2.083,0,0,1,495.006,1146.9Z" transform="translate(-490.644 -1145.236)" fill="#f4bcc7"/>
              </g>
            </g>
          </g>
        </g>
        <g id="Group_7330" data-name="Group 7330" transform="translate(0 22.837)">
          <g id="Group_7326" data-name="Group 7326" transform="translate(8.255 10.789)">
            <rect id="Rectangle_1640" data-name="Rectangle 1640" width="100.983" height="10.466" transform="translate(86.082 8.255) rotate(142.068)" fill="#ffca32"/>
          </g>
          <g id="Group_7327" data-name="Group 7327" transform="translate(0 72.866)">
            <rect id="Rectangle_1641" data-name="Rectangle 1641" width="10.466" height="10.466" transform="translate(14.688 8.255) rotate(142.068)" fill="#ff654f"/>
          </g>
          <g id="Group_7328" data-name="Group 7328" transform="translate(104.231)">
            <path id="Path_11115" data-name="Path 11115" d="M881,1213.481l-1.734-2.225,6.026-2.909Z" transform="translate(-879.266 -1208.348)" fill="#050f64"/>
          </g>
          <g id="Group_7329" data-name="Group 7329" transform="translate(87.904 2.909)">
            <path id="Path_11116" data-name="Path 11116" d="M815.162,1237.05l-6.435-8.256,16.327-7.879,1.734,2.225Z" transform="translate(-808.728 -1220.914)" fill="#f5bdc8"/>
          </g>
        </g>
        <g id="Group_7335" data-name="Group 7335" transform="translate(11.06 26.614)">
          <g id="Group_7332" data-name="Group 7332" transform="translate(33.794 40.719)">
            <g id="Group_7331" data-name="Group 7331">
              <path id="Path_11117" data-name="Path 11117" d="M626.625,1401.935l-2.748-1.349-1.142,3,2.934.862a1.346,1.346,0,1,0,.957-2.515Z" transform="translate(-622.735 -1400.586)" fill="#f4bcc7"/>
            </g>
          </g>
          <g id="Group_7333" data-name="Group 7333" transform="translate(0.186 0.187)">
            <path id="Path_11118" data-name="Path 11118" d="M511.114,1269.224l1.455-3.454a97.1,97.1,0,0,1-10.763-5.979,36.154,36.154,0,0,1-4.607-3.608,25.23,25.23,0,0,1-3.663-4.242,32.148,32.148,0,0,1-4.394-10.344c-.467-1.884-.829-3.821-1.131-5.784l-.212-1.479-.181-1.493-.089-.746-.074-.753-.147-1.5c-.007-.073-.015-.147-.025-.219a4.523,4.523,0,0,0-.633-1.752,5.01,5.01,0,0,0-4.846-2.359h-.012a4.768,4.768,0,0,0-3.328,1.94,4.923,4.923,0,0,0-.836,3.85l.354,1.607.178.8.2.8c.132.536.257,1.07.394,1.606l.431,1.606c.6,2.141,1.27,4.279,2.077,6.4a47.284,47.284,0,0,0,2.914,6.251,34.364,34.364,0,0,0,4.046,5.752,31.684,31.684,0,0,0,5.167,4.7,41.833,41.833,0,0,0,5.774,3.5c1.971,1,3.965,1.863,5.961,2.66S509.116,1268.519,511.114,1269.224Z" transform="translate(-477.536 -1225.474)" fill="#fff"/>
          </g>
          <g id="Group_7334" data-name="Group 7334">
            <path id="Path_11119" data-name="Path 11119" d="M487.043,1232.565l.178-.084-.034-.283-.089-.745-.22-2.254c-.008-.075-.016-.152-.027-.227a4.7,4.7,0,0,0-.659-1.825,5.416,5.416,0,0,0-.411-.575l-.113.157a5.655,5.655,0,0,1,.365.517,4.51,4.51,0,0,1,.633,1.752c.011.073.018.147.026.219l.147,1.505.073.753.089.745Zm1.426,8.179.175-.073c-.3-1.228-.567-2.545-.815-3.986l-.182.049C487.88,1238.089,488.149,1239.43,488.469,1240.744Zm-11.5-9.393.2.052-.16-.725a4.916,4.916,0,0,1,.836-3.85,4.762,4.762,0,0,1,3.327-1.94l.013,0a5.029,5.029,0,0,1,2.888.535l.112-.153a5.2,5.2,0,0,0-3.021-.567h-.013a4.982,4.982,0,0,0-1.936.64,4.928,4.928,0,0,0-1.521,1.376,5.133,5.133,0,0,0-.868,3.995Zm7.843,20.807.143-.123c-.5-.745-.962-1.508-1.4-2.281a47.49,47.49,0,0,1-2.915-6.25c-.806-2.121-1.478-4.26-2.076-6.4l-.431-1.607c0-.011-.006-.023-.009-.034l-.172.077v0l.431,1.608c.669,2.391,1.35,4.49,2.083,6.419a47.189,47.189,0,0,0,2.927,6.276Q484.066,1251.042,484.811,1252.158Zm9.1,9.081a43.646,43.646,0,0,0,4.544,2.641c1.769.9,3.668,1.746,5.977,2.667.816.325,1.655.649,2.566.989l-.067-.225q-1.215-.455-2.429-.937c-2-.8-3.991-1.659-5.962-2.66a43.554,43.554,0,0,1-4.541-2.641C493.973,1261.129,493.943,1261.184,493.913,1261.239Zm8.719-1.139.047-.192q-.7-.438-1.387-.894a35.579,35.579,0,0,1-4.582-3.589,24.5,24.5,0,0,1-5.071-6.595l-.187.046a24.676,24.676,0,0,0,5.131,6.685,36.192,36.192,0,0,0,4.607,3.608Q501.9,1259.645,502.633,1260.1Zm1.478.894c2.511,1.476,5.165,2.828,7.842,4.155l-.673,1.6.137.156.776-1.842-.157-.078c-2.467-1.223-5.207-2.608-7.84-4.155Z" transform="translate(-476.733 -1224.667)" fill="#83a8ff"/>
          </g>
        </g>
      </g>
      <g id="Group_7342" data-name="Group 7342" transform="translate(100.367 0)">
        <g id="Group_7338" data-name="Group 7338" transform="translate(0 33.974)">
          <g id="Group_7337" data-name="Group 7337">
            <path id="Path_11120" data-name="Path 11120" d="M577.741,506.432a5.586,5.586,0,0,0-7.422-7.309,7.043,7.043,0,0,0-10.113-8.145,10.188,10.188,0,0,0-19.928,2.986c0,.277.014.551.036.823a5.582,5.582,0,0,0-6.256,6.522l-.089,0a5.586,5.586,0,0,0-5.566,5.126Z" transform="translate(-528.403 -483.777)" fill="#e5e6eb"/>
          </g>
        </g>
        <g id="Group_7340" data-name="Group 7340" transform="translate(111.991)">
          <g id="Group_7339" data-name="Group 7339">
            <path id="Path_11121" data-name="Path 11121" d="M1012.64,356.5a4.809,4.809,0,0,1,6.39-6.293,6.063,6.063,0,0,1,8.706-7.012,8.771,8.771,0,0,1,17.157,2.57c0,.239-.012.474-.031.708a4.865,4.865,0,0,1,.653-.045,4.805,4.805,0,0,1,4.733,5.66l.077,0a4.809,4.809,0,0,1,4.792,4.414Z" transform="translate(-1012.246 -336.998)" fill="#e5e6eb"/>
          </g>
        </g>
        <g id="Group_7341" data-name="Group 7341" transform="translate(193.803 34.758)">
          <path id="Path_11122" data-name="Path 11122" d="M1412.149,489.749a11.391,11.391,0,0,0-6.033,1.718,8.376,8.376,0,0,0-15.458,2.1,10.7,10.7,0,0,0-19.725,5.43,9.381,9.381,0,0,0-5.229,8.416c0,.282.013.561.038.837h55.444a11.458,11.458,0,0,0-9.036-18.5Z" transform="translate(-1365.703 -487.166)" fill="#e5e6eb"/>
        </g>
      </g>
    </g>
  </g>
</svg>
