<svg xmlns="http://www.w3.org/2000/svg" xmlns:xlink="http://www.w3.org/1999/xlink" width="453.997" height="389.739" viewBox="0 0 453.997 389.739">
  <defs>
    <clipPath id="clip-path">
      <path id="Path_11127" data-name="Path 11127" d="M519.96,405.471c0,6.065,47.2,10.982,105.43,10.982s105.429-4.917,105.429-10.982-34.511-155.582-92.738-155.582S519.96,399.406,519.96,405.471Z" fill="none"/>
    </clipPath>
    <linearGradient id="linear-gradient" x1="0.615" y1="0.023" x2="0.414" y2="0.948" gradientUnits="objectBoundingBox">
      <stop offset="0.023" stop-color="#ed516f"/>
      <stop offset="1" stop-color="#d44751"/>
    </linearGradient>
    <linearGradient id="linear-gradient-2" x1="0.5" y1="0.47" x2="0.5" y2="-0.012" gradientUnits="objectBoundingBox">
      <stop offset="0.043" stop-color="#f0f5f7"/>
      <stop offset="0.483" stop-color="#edf2f5"/>
      <stop offset="0.811" stop-color="#e3eaf2"/>
      <stop offset="1" stop-color="#dae3ef"/>
    </linearGradient>
    <linearGradient id="linear-gradient-3" x1="0.5" y1="-7.519" x2="0.5" y2="-8.002" gradientUnits="objectBoundingBox">
      <stop offset="0.043" stop-color="#f0f5f7"/>
      <stop offset="0.478" stop-color="#ecf2f5"/>
      <stop offset="0.813" stop-color="#e3eaf2"/>
      <stop offset="1" stop-color="#dae3ef"/>
    </linearGradient>
    <linearGradient id="linear-gradient-4" x1="0" y1="0.5" x2="1" y2="0.5" xlink:href="#linear-gradient"/>
    <linearGradient id="linear-gradient-6" x1="0.076" y1="2.836" x2="0.64" y2="-0.273" xlink:href="#linear-gradient-3"/>
    <linearGradient id="linear-gradient-7" x1="29.862" y1="0.597" x2="31.252" y2="1.863" xlink:href="#linear-gradient"/>
    <linearGradient id="linear-gradient-8" x1="3.793" y1="1.723" x2="4.691" y2="1.723" gradientUnits="objectBoundingBox">
      <stop offset="0.043" stop-color="#7973fd"/>
      <stop offset="0.254" stop-color="#a4a4fd"/>
      <stop offset="0.535" stop-color="#7973fd"/>
      <stop offset="1" stop-color="#a4a4fd"/>
    </linearGradient>
    <linearGradient id="linear-gradient-9" x1="-0.06" y1="0.666" x2="0.039" y2="0.666" gradientUnits="objectBoundingBox">
      <stop offset="0.043" stop-color="#7973fd"/>
      <stop offset="0.254" stop-color="#a4a4fd"/>
      <stop offset="1" stop-color="#7973fd"/>
    </linearGradient>
    <linearGradient id="linear-gradient-10" x1="-0.072" y1="-5.537" x2="0.928" y2="-5.537" gradientUnits="objectBoundingBox">
      <stop offset="0.033" stop-color="#214f95"/>
      <stop offset="1" stop-color="#0e408c"/>
    </linearGradient>
    <linearGradient id="linear-gradient-11" x1="0" y1="0.5" x2="1" y2="0.5" xlink:href="#linear-gradient-9"/>
    <linearGradient id="linear-gradient-12" x1="-6.329" y1="5.07" x2="-5.777" y2="5.07" xlink:href="#linear-gradient-10"/>
    <linearGradient id="linear-gradient-13" x1="14.177" y1="0.179" x2="14.177" y2="0.961" xlink:href="#linear-gradient"/>
    <linearGradient id="linear-gradient-14" x1="0.78" y1="0.605" x2="0.316" y2="0.45" xlink:href="#linear-gradient-10"/>
    <linearGradient id="linear-gradient-15" x1="26.031" y1="0.259" x2="26.031" y2="1.931" xlink:href="#linear-gradient"/>
    <linearGradient id="linear-gradient-16" x1="25.259" y1="0.5" x2="26.259" y2="0.5" xlink:href="#linear-gradient-10"/>
    <linearGradient id="linear-gradient-17" x1="36.1" y1="0.5" x2="37.1" y2="0.5" xlink:href="#linear-gradient-10"/>
    <linearGradient id="linear-gradient-18" x1="0.507" y1="0.66" x2="0.481" y2="0.178" xlink:href="#linear-gradient-10"/>
  </defs>
  <g id="Group_7381" data-name="Group 7381" transform="translate(-276.822 -61.565)">
    <path id="Path_11123" data-name="Path 11123" d="M575.575,415.853c-.1.2-.207.4-.317.6H357.833a31.551,31.551,0,0,1-7.169-18.923q-.105-2.926-.3-5.853a172.627,172.627,0,0,0-11.32-52.1c-6.275-15.9-19.824-30.14-17.959-48.191,2.54-27.911,32.137-32.986,50.7-47.031a49.307,49.307,0,0,0,5.963-6.136,89.965,89.965,0,0,0,9.3-14.49c5.917-17.757,10.991-36.362,24.523-49.893,11.839-11.84,30.445-11.84,43.642-2.61A66.57,66.57,0,0,1,465,179.315c39.711,39.266,19.414,64.418,80.305,63.1,38.371-.837,22.179,60.464,19.113,82.054-2.17,15.257-5.08,31.005-2.118,46.361,1.466,7.608,4.63,14.218,8.5,20.851.07.121.139.248.214.369C575.264,399.285,579.772,407.529,575.575,415.853Z" fill="#dae3ef"/>
    <g id="Group_7349" data-name="Group 7349">
      <g id="Group_7348" data-name="Group 7348" clip-path="url(#clip-path)">
        <g id="Group_7347" data-name="Group 7347">
          <g id="Group_7346" data-name="Group 7346">
            <g id="Group_7345" data-name="Group 7345">
              <path id="Path_11124" data-name="Path 11124" d="M651.086,397.513c-29.152,18.678-25.242,40.842-34.781,39.01a5.607,5.607,0,0,1-1.327-.407c-6.909-3.11.674-18.931-15.825-47.593-10.426-18.142-30.66-51.15-19.416-61.805,9.63-9.112,21.424,20.5,35.78,8.594,10.438-8.655-17.023-20.993-9.064-31,8.813-11.085,21.141,11.117,27.322-.457,6.162-11.562-1.827-32.672,9.911-32.364.184,0,.363.023.527.038,11.148.824,9.979,18.229,8.653,29.6-1.346,11.55-2.517,14.957,1.063,15.085s17.331-10.7,21.889-.575c4.554,10.139-21.9,23.032-24.045,37.745-2.147,14.729,19.678-4.439,21.055,10.149C673.607,371.922,665.572,388.249,651.086,397.513Z" fill="#c4d5e8"/>
              <path id="Path_11125" data-name="Path 11125" d="M661.093,368.839,628.952,384.42l6.657-38.487.026.035,22.628-18.507-22.089,15.207,7.774-44.947-5.833,26.087-15.263-9.8,14.715,12.252-8.9,39.8-33.307-19.338,32.787,21.661-11.028,50.167,4.738.939,6.608-32.264Z" fill="#dae3ef"/>
            </g>
          </g>
          <path id="Path_11126" data-name="Path 11126" d="M675.073,345.748c3.672-2.852,19.808-15.959,12.734-20.8-6.306-4.314-11.117,11.488-12.844,18.238-.558-8.244-2.774-12.766-3.233-13.616,1.574-6.312,5.061-23.194-2.773-22.819-7.911.378-1.5,17.023,1.047,22.96a.883.883,0,0,0,.093.609c.036.062,2.5,4.514,3.072,13.194-2.906-5.977-10.931-20.828-16.653-15.576-6.338,5.818,12.6,15.559,16.751,17.591a64.293,64.293,0,0,1-.69,11.087c-.2,1.373-.457,2.831-.771,4.36-2.748-5.522-11.344-21.341-17.158-15.833-6.162,5.837,12.337,15.107,16.855,17.244a106.366,106.366,0,0,1-5.967,18.233c-2.427-4.978-11.372-22.041-17.384-16.363-6.239,5.9,12.73,15.333,16.972,17.335a155.29,155.29,0,0,1-7.787,15.443c-1.89-5.139-9.1-23.131-15.666-18.071-6.807,5.242,11.154,16.555,15.152,18.96-2.515,4.336-5.4,8.9-8.712,13.689-1.468-4.768-7.892-23.964-14.846-19.141-7.172,4.975,10.894,17.491,14.378,19.816-3.012,4.326-6.357,8.826-10.1,13.511-1.5-4.852-7.9-23.9-14.83-19.1-7.122,4.94,10.629,17.308,14.293,19.759-2.438,3.038-5.026,6.145-7.795,9.33a.9.9,0,0,0-.018,1.155.848.848,0,0,0,.107.109.894.894,0,0,0,1.263-.088c2.77-3.187,5.361-6.3,7.8-9.34,3.739,1.193,24.709,7.488,24.652-1.294-.054-8.422-19.165-1.419-24,.488,3.8-4.765,7.2-9.344,10.251-13.746,5.293,1.619,23.878,6.718,23.825-1.552-.05-7.819-16.528-2.342-22.757.009,2.974-4.357,5.6-8.528,7.915-12.514,4.777-.206,25.31-1.563,22.364-9.568-2.669-7.251-16.014,3.15-21.214,7.57a155.38,155.38,0,0,0,7.35-14.705c4.847-.95,24.693-5.333,20.615-12.768-3.644-6.643-14.924,5.029-19.589,10.334a106.553,106.553,0,0,0,5.457-17.056c4.762-2.223,22.458-11.063,16.8-17.231-4.9-5.343-12.6,7.274-16.114,13.859.174-.961.328-1.9.456-2.793A66.687,66.687,0,0,0,675.073,345.748Z" fill="url(#linear-gradient)"/>
        </g>
      </g>
    </g>
    <g id="Group_7356" data-name="Group 7356">
      <g id="Group_7352" data-name="Group 7352">
        <g id="Group_7350" data-name="Group 7350">
          <path id="Path_11128" data-name="Path 11128" d="M636.682,144.893v33.32H419.838v-33.32a26.068,26.068,0,0,1,26.068-26.068H610.615A26.068,26.068,0,0,1,636.682,144.893Z" fill="url(#linear-gradient-2)"/>
          <path id="Path_11129" data-name="Path 11129" d="M636.682,144.893v41.033H584.547V144.893a26.068,26.068,0,0,1,26.068-26.068h0A26.068,26.068,0,0,1,636.682,144.893Z" fill="#dae3ef"/>
        </g>
        <g id="Group_7351" data-name="Group 7351">
          <path id="Path_11130" data-name="Path 11130" d="M636.682,390.386V357.065H419.838v33.321a26.068,26.068,0,0,0,26.068,26.067H610.615A26.068,26.068,0,0,0,636.682,390.386Z" fill="url(#linear-gradient-3)"/>
          <path id="Path_11131" data-name="Path 11131" d="M636.682,390.386V349.352H584.547v41.034a26.068,26.068,0,0,0,26.068,26.067h0A26.068,26.068,0,0,0,636.682,390.386Z" fill="#dae3ef"/>
        </g>
        <rect id="Rectangle_1642" data-name="Rectangle 1642" width="164.716" height="233.738" transform="translate(419.838 145.894)" fill="#f0f5f7"/>
      </g>
      <text id="Term_And_Conditions" data-name="Term And Conditions" transform="translate(431.613 175.188)" fill="#849bad" font-size="13.019" font-family="Poppins-SemiBold, Poppins" font-weight="600"><tspan x="0" y="0">Term And Conditions</tspan></text>
      <g id="Group_7353" data-name="Group 7353">
        <rect id="Rectangle_1643" data-name="Rectangle 1643" width="112.731" height="2.569" transform="translate(461.656 192.77)" fill="#c3d3dd"/>
        <rect id="Rectangle_1644" data-name="Rectangle 1644" width="145.551" height="2.569" transform="translate(428.836 203.18)" fill="#c3d3dd"/>
        <rect id="Rectangle_1645" data-name="Rectangle 1645" width="145.551" height="2.569" transform="translate(428.836 213.589)" fill="#c3d3dd"/>
        <rect id="Rectangle_1646" data-name="Rectangle 1646" width="145.551" height="2.569" transform="translate(428.836 223.999)" fill="#c3d3dd"/>
        <rect id="Rectangle_1647" data-name="Rectangle 1647" width="145.551" height="2.569" transform="translate(428.836 234.409)" fill="#c3d3dd"/>
        <rect id="Rectangle_1648" data-name="Rectangle 1648" width="145.551" height="2.569" transform="translate(428.836 244.819)" fill="#c3d3dd"/>
        <rect id="Rectangle_1649" data-name="Rectangle 1649" width="145.551" height="2.569" transform="translate(428.836 255.229)" fill="#c3d3dd"/>
        <rect id="Rectangle_1650" data-name="Rectangle 1650" width="145.551" height="2.569" transform="translate(428.836 265.638)" fill="#c3d3dd"/>
        <rect id="Rectangle_1651" data-name="Rectangle 1651" width="129.141" height="2.569" transform="translate(428.836 276.048)" fill="#c3d3dd"/>
        <rect id="Rectangle_1652" data-name="Rectangle 1652" width="145.551" height="2.569" transform="translate(428.836 286.458)" fill="#c3d3dd"/>
        <rect id="Rectangle_1653" data-name="Rectangle 1653" width="145.551" height="2.569" transform="translate(428.836 296.867)" fill="#c3d3dd"/>
        <rect id="Rectangle_1654" data-name="Rectangle 1654" width="145.551" height="2.569" transform="translate(428.836 307.277)" fill="#c3d3dd"/>
        <rect id="Rectangle_1655" data-name="Rectangle 1655" width="145.551" height="2.569" transform="translate(428.836 317.687)" fill="#c3d3dd"/>
        <rect id="Rectangle_1656" data-name="Rectangle 1656" width="145.551" height="2.569" transform="translate(428.836 328.097)" fill="#c3d3dd"/>
        <rect id="Rectangle_1657" data-name="Rectangle 1657" width="35.505" height="2.569" transform="translate(538.882 366.946)" fill="#c3d3dd"/>
        <path id="Path_11132" data-name="Path 11132" d="M544.454,354.443a3.415,3.415,0,0,1,.042-2.722,2.081,2.081,0,0,1,2.331-1.11c1.093.337,1.541,1.647,1.6,2.789a7.875,7.875,0,0,0,.465,3.365,3.361,3.361,0,0,0,.921,1.044,2.62,2.62,0,0,0,1.411.59,2.988,2.988,0,0,0,2.222-1.116,7.064,7.064,0,0,0,1.7-3.119,14.1,14.1,0,0,0,.31-2.635q.18-3.33.361-6.661a17.769,17.769,0,0,0-.875,6.529,28.005,28.005,0,0,0,.907,9.014c.1.3.258.65.572.717a.862.862,0,0,0,.736-.329,5.653,5.653,0,0,0,1.365-3.732c.073-1.353-.078-2.716.086-4.062a14.673,14.673,0,0,0,.471,5.288,5.125,5.125,0,0,0,2.3-5.563,17.933,17.933,0,0,0,.973,5.043.482.482,0,0,0,.23.321.447.447,0,0,0,.374-.074,3.8,3.8,0,0,0,1.694-2.824,16.288,16.288,0,0,0-.066-3.4,48.007,48.007,0,0,1,.262-7.269q-.145,8.505-.025,17.01-8.879-.322-17.768-.138a5.235,5.235,0,0,0-1.72.23" fill="none" stroke="#849bad" stroke-linecap="round" stroke-linejoin="round" stroke-width="0.25"/>
      </g>
      <g id="Group_7355" data-name="Group 7355" opacity="0.3">
        <g id="Group_7354" data-name="Group 7354">
          <path id="Path_11133" data-name="Path 11133" d="M453.879,376.564a12.558,12.558,0,1,1,12.558-12.558A12.571,12.571,0,0,1,453.879,376.564Zm0-21.834a9.276,9.276,0,1,0,9.276,9.276A9.286,9.286,0,0,0,453.879,354.73Z" fill="url(#linear-gradient-4)"/>
        </g>
        <circle id="Ellipse_763" data-name="Ellipse 763" cx="13.913" cy="13.913" r="13.913" transform="translate(439.966 350.094)" fill="none" stroke="#707070" stroke-miterlimit="10" stroke-width="0.25"/>
        <circle id="Ellipse_764" data-name="Ellipse 764" cx="7.063" cy="7.063" r="7.063" transform="translate(446.816 356.943)" fill="url(#linear-gradient-4)"/>
      </g>
    </g>
    <ellipse id="Ellipse_765" data-name="Ellipse 765" cx="57.15" cy="9.125" rx="57.15" ry="9.125" transform="translate(308.847 433.055)" fill="url(#linear-gradient-6)"/>
    <g id="Group_7369" data-name="Group 7369">
      <g id="Group_7368" data-name="Group 7368">
        <path id="Path_11134" data-name="Path 11134" d="M329.829,250.938a5.234,5.234,0,0,0-.422,5.1c3.278,7.8,15.18,35.493,18.836,35.53,4.255.043-11.141-40.9-13.348-41.382C333.239,249.819,331.287,248.943,329.829,250.938Z" fill="#f2bc97"/>
        <path id="Path_11135" data-name="Path 11135" d="M358.175,230.389a4.227,4.227,0,0,0-4.512-.084c-6.332,3.585-27.359,15.95-25.061,20.818,2.7,5.724,20.7-6.358,25.475-10.517C358.052,237.14,361.366,232.662,358.175,230.389Z" fill="#f2bc97"/>
        <path id="Path_11136" data-name="Path 11136" d="M354.37,227.886l-17.479,12.26,6.919,10.682,12.381-9.347Z" fill="url(#linear-gradient-7)"/>
        <g id="Group_7358" data-name="Group 7358">
          <g id="Group_7357" data-name="Group 7357">
            <path id="Path_11137" data-name="Path 11137" d="M391.025,266.484l6.119.3-67.371-26.155a4.053,4.053,0,0,0-5.239,2.309l-.823,2.121,1.806.7.823-2.12a2.112,2.112,0,0,1,2.732-1.2Z" fill="url(#linear-gradient-8)"/>
          </g>
          <path id="Path_11138" data-name="Path 11138" d="M319.568,260.568l164.569,63.888,12.583,4.365,6.235-16.061-12.233-5.268L326.154,243.6a1.754,1.754,0,0,0-2.27,1l-5.316,13.7A1.753,1.753,0,0,0,319.568,260.568Z" fill="url(#linear-gradient-9)"/>
          <path id="Rectangle_1658" data-name="Rectangle 1658" d="M0,0H12.13a0,0,0,0,1,0,0V7.647a.566.566,0,0,1-.566.566h-11A.566.566,0,0,1,0,7.647V0A0,0,0,0,1,0,0Z" transform="matrix(-0.362, 0.932, -0.932, -0.362, 323.423, 245.798)" fill="url(#linear-gradient-10)"/>
          <path id="Path_11139" data-name="Path 11139" d="M525.75,331.79l4.264.713-3.628-2.351Z" fill="url(#linear-gradient-11)"/>
          <path id="Path_11140" data-name="Path 11140" d="M496.688,328.715l28.976,3.294.806-2.077L502.86,312.817Z" fill="url(#linear-gradient-12)"/>
        </g>
        <g id="Group_7359" data-name="Group 7359">
          <path id="Path_11141" data-name="Path 11141" d="M349.38,283.346c-2.569,1.382.316,5.545,1.353,6.928,1.688,2.253,5.367,3.61,6.272,2.956s-3.242-5.555-3.161-5.877,2.329,1.867,3.116,1.165-1.814-3.983-3.356-4.881S350.99,282.48,349.38,283.346Z" fill="#f2bc97"/>
        </g>
        <path id="Path_11142" data-name="Path 11142" d="M374.414,357.611c-13.817-7.156-5.717,56.419-.667,72.272s6.234-1.468,6.251-27.735S379.85,360.426,374.414,357.611Z" fill="#f2bc97"/>
        <path id="Path_11143" data-name="Path 11143" d="M372.684,429.04l-2.152-10.429,9.552-.2-.562,12.16Z" fill="#f2bc97"/>
        <path id="Path_11144" data-name="Path 11144" d="M346.483,352.959c-4.454-17.065-51.923,26.248-61.461,39.912s5.97,5.064,28.137-9.654S348.235,359.674,346.483,352.959Z" fill="#f2bc97"/>
        <path id="Path_11145" data-name="Path 11145" d="M363.92,320.005c.891,23.659,5.64,42.686,10.609,42.5s8.274-19.517,7.384-43.176-5.64-42.686-10.608-42.5S363.03,296.347,363.92,320.005Z" fill="#f2bc97"/>
        <ellipse id="Ellipse_766" data-name="Ellipse 766" cx="42.868" cy="9.003" rx="42.868" ry="9.003" transform="translate(332.363 348.926) rotate(-78.438)" fill="#f2bc97"/>
        <path id="Path_11146" data-name="Path 11146" d="M388.345,234.755a4.363,4.363,0,0,1,3.713,2.7c2.955,6.732,14.719,33.7,9.887,36.153-5.68,2.886-15.163-22-16.5-28.23C384.331,240.189,384.37,234.6,388.345,234.755Z" fill="#f2bc97"/>
        <path id="Path_11147" data-name="Path 11147" d="M399.519,254.89l4.816,12.789,9.525,10.381-9.257,2.729s-5.726-5.351-7.064-7.277-6.742-13-6.742-13Z" fill="#f2bc97"/>
        <g id="Group_7360" data-name="Group 7360">
          <path id="Path_11148" data-name="Path 11148" d="M398.77,271.28a5.562,5.562,0,0,0,1.571,5.2c6.282,6.432,28.852,29.181,32.482,27.792,4.225-1.616-26.965-36.1-29.337-35.719C401.706,268.844,399.434,268.739,398.77,271.28Z" fill="#f2bc97"/>
          <path id="Path_11149" data-name="Path 11149" d="M432.1,306.815a18.494,18.494,0,0,1-2.187-1.941c-1.433-1.482-2.613-3.378-1.183-4.758,1.393-1.351,2.549-1.4,4.39-.915,1.836.465,5.457,3.081,4.845,4.015-.607.953-3.527-.643-3.516-.285a.767.767,0,0,0,.066.114c.633.695,5.543,4.1,4.858,4.988C438.63,308.951,434.47,308.631,432.1,306.815Z" fill="#f2bc97"/>
        </g>
        <line id="Line_33" data-name="Line 33" x1="1.335" y2="10.439" transform="translate(377.19 219.389)" fill="#f2bc97"/>
        <path id="Path_11150" data-name="Path 11150" d="M378.526,219.389l-4.492-4.612-2.02,12.929s4.023,3.943,4.145,3.518,1.395-3.52,1.395-3.52" fill="#f2bc97"/>
        <g id="Group_7361" data-name="Group 7361">
          <path id="Path_11151" data-name="Path 11151" d="M387.657,245.205v.022c-.044.439-.11.855-.2,1.316-.065.329-.131.657-.2,1.008-.022.154-.066.285-.087.439-.044.219-.11.416-.154.614-.022.109-.044.2-.066.285a32.017,32.017,0,0,1-1.1,3.507c-.329.877-.658,1.688-.987,2.521a37.733,37.733,0,0,0-2.7,9.559c-1.337,8.638-1.951,13.023-1.951,13.023a76.745,76.745,0,0,1-33.5-4.45s.088-.307.219-.877c.79-3.311,3.53-15.588,2.675-25.52-.088-.943-.2-1.863-.351-2.74-1.995-11.839,4.867-20.762,17.978-18.329a81.169,81.169,0,0,1,11.926,2.785,9.952,9.952,0,0,1,5.657,4.363A17.408,17.408,0,0,1,387.657,245.205Z" fill="url(#linear-gradient-13)"/>
        </g>
        <path id="Path_11152" data-name="Path 11152" d="M387.021,248.6c-.022.109-.044.2-.066.285a32.017,32.017,0,0,1-1.1,3.507c-.329.877-.658,1.688-.987,2.521a27.437,27.437,0,0,0-2.959-8.045Z" fill="#d8d0bc" opacity="0.5" style="mix-blend-mode: multiply;isolation: isolate"/>
        <g id="Group_7362" data-name="Group 7362" opacity="0.5" style="mix-blend-mode: multiply;isolation: isolate">
          <path id="Path_11153" data-name="Path 11153" d="M346.941,272.18c.794-3.314,3.533-15.594,2.673-25.52l4.028-2.448S350.4,263.724,346.941,272.18Z" fill="#d8d0bc"/>
        </g>
        <path id="Path_11154" data-name="Path 11154" d="M390.912,203.187l-16.458-7.164,1.433,25.26s2.8,2.845,8.62-1.832,6.4-16.264,6.4-16.264" fill="#f2bc97"/>
        <path id="Path_11155" data-name="Path 11155" d="M371.448,191.017s-7.319-.849-10.985,4.239-2.356,15.389-8.086,17.072c-.572.168-1.21.332-1.891.5-6.735,1.691-1.012,5.6-7.475,8.346-5.762,2.448-5.4,6.1-4.334,12.79.38,2.375.6,10.788,10.218,10.339,5.983-.278,12.379-1.382,17.419-4.822a17.844,17.844,0,0,0,6.217-8.226c1.3-3.21,1.472-6.924,3.541-9.795,1.856-2.575,5.653-3.472,6.774-6.627.712-2-2.088-4.52.886-6.817s7.715-3.778,7.751-5.717.379-7.86-7.471-11.621S371.448,191.017,371.448,191.017Z" fill="url(#linear-gradient-14)"/>
        <g id="Group_7363" data-name="Group 7363">
          <path id="Path_11156" data-name="Path 11156" d="M400.7,255l-10.7,7.17-8.13-15.3-3.183-18.631.488.138s9.053,2.548,13.073,6.933C395.774,239.157,400.7,255,400.7,255Z" fill="url(#linear-gradient-15)"/>
        </g>
        <g id="Group_7365" data-name="Group 7365">
          <g id="Group_7364" data-name="Group 7364">
            <path id="Path_11157" data-name="Path 11157" d="M379.9,429.475a46.186,46.186,0,0,0,7.744,7.272c5.319,4.125,6.73,3.257,6.838,4.777s-22.253,0-22.253,0l.453-12.484S379.9,429.149,379.9,429.475Z" fill="url(#linear-gradient-16)"/>
          </g>
        </g>
        <g id="Group_7367" data-name="Group 7367">
          <g id="Group_7366" data-name="Group 7366">
            <path id="Path_11158" data-name="Path 11158" d="M290.856,396.879a46.221,46.221,0,0,0,0,10.623c.634,6.7,2.233,7.136,1.2,8.255s-15.231-16.223-15.231-16.223l9.41-8.215S291.094,396.656,290.856,396.879Z" fill="url(#linear-gradient-17)"/>
          </g>
        </g>
      </g>
      <path id="Path_11159" data-name="Path 11159" d="M380.189,281.13s3.878,22.5,3.414,56.63-3.135,81.031-3.135,81.031-10.034.548-10.1.154c-8.4-50.3-3.25-61.8-3.25-61.8l-8.2-39.9s-4.8,30.106-8.977,37.536-46.2,36.374-46.2,36.374l-7.972-11.377c14.86-16.33,39.548-32.505,39.548-32.505s-5.959-51.853,9.984-71.511" fill="url(#linear-gradient-18)"/>
      <path id="Path_11160" data-name="Path 11160" d="M380.189,281.13a154.838,154.838,0,0,1-35.214-4.581,21.278,21.278,0,0,1,1.748-3.51l33.262,4.129S380.058,278.61,380.189,281.13Z" fill="#072f56"/>
    </g>
    <g id="Group_7372" data-name="Group 7372">
      <g id="Group_7370" data-name="Group 7370">
        <path id="Path_11161" data-name="Path 11161" d="M650.7,227.511,645.6,249.475l-19.881-4.612,6.651-28.674,13.171,3.055Z" fill="#dae3ef"/>
        <path id="Path_11162" data-name="Path 11162" d="M643.99,225.954l6.71,1.556-5.153-8.266Z" fill="#e9eef4"/>
      </g>
      <g id="Group_7371" data-name="Group 7371">
        <rect id="Rectangle_1659" data-name="Rectangle 1659" width="16.2" height="0.831" transform="translate(631.967 227.259) rotate(13.06)" fill="#f9fbfc"/>
        <rect id="Rectangle_1660" data-name="Rectangle 1660" width="16.2" height="0.831" transform="translate(631.193 230.597) rotate(13.06)" fill="#f9fbfc"/>
        <rect id="Rectangle_1661" data-name="Rectangle 1661" width="16.2" height="0.831" transform="translate(630.419 233.935) rotate(13.06)" fill="#f9fbfc"/>
      </g>
    </g>
    <g id="Group_7375" data-name="Group 7375">
      <g id="Group_7373" data-name="Group 7373">
        <path id="Path_11163" data-name="Path 11163" d="M379.6,134.5l-5.1,21.964-19.881-4.612,6.651-28.674,13.171,3.055Z" fill="#dae3ef"/>
        <path id="Path_11164" data-name="Path 11164" d="M372.887,132.947l6.71,1.556-5.153-8.266Z" fill="#e9eef4"/>
      </g>
      <g id="Group_7374" data-name="Group 7374">
        <rect id="Rectangle_1662" data-name="Rectangle 1662" width="16.2" height="0.831" transform="matrix(0.974, 0.226, -0.226, 0.974, 360.865, 134.252)" fill="#f9fbfc"/>
        <rect id="Rectangle_1663" data-name="Rectangle 1663" width="16.2" height="0.831" transform="translate(360.09 137.59) rotate(13.06)" fill="#f9fbfc"/>
        <rect id="Rectangle_1664" data-name="Rectangle 1664" width="16.2" height="0.831" transform="translate(359.316 140.928) rotate(13.06)" fill="#f9fbfc"/>
      </g>
    </g>
    <g id="Group_7378" data-name="Group 7378">
      <g id="Group_7376" data-name="Group 7376">
        <path id="Path_11165" data-name="Path 11165" d="M537.33,64.709,550.6,88.274l-21.33,12.014L511.944,69.525l14.132-7.96Z" fill="#dae3ef"/>
        <path id="Path_11166" data-name="Path 11166" d="M530.131,68.764l7.2-4.055-11.254-3.144Z" fill="#e9eef4"/>
      </g>
      <g id="Group_7377" data-name="Group 7377">
        <rect id="Rectangle_1665" data-name="Rectangle 1665" width="19.432" height="0.996" transform="matrix(0.871, -0.491, 0.491, 0.871, 520.546, 79.652)" fill="#f9fbfc"/>
        <rect id="Rectangle_1666" data-name="Rectangle 1666" width="19.432" height="0.997" transform="translate(522.563 83.234) rotate(-29.391)" fill="#f9fbfc"/>
        <rect id="Rectangle_1667" data-name="Rectangle 1667" width="19.432" height="0.997" transform="translate(524.581 86.815) rotate(-29.39)" fill="#f9fbfc"/>
      </g>
    </g>
    <g id="Group_7380" data-name="Group 7380">
      <g id="Path_11167" data-name="Path 11167" fill="#7a76fd" stroke-miterlimit="10">
        <path d="M 583.9729614257812 295.018798828125 L 583.5659790039062 295.018798828125 L 583.552978515625 295.018798828125 L 582.9264526367188 295.018798828125 L 582.5440673828125 294.7603454589844 C 573.9705200195312 291.1582336425781 566.6463012695312 285.06298828125 560.7725830078125 276.6417846679688 C 556.1051025390625 269.9500122070312 552.34375 261.783935546875 549.5929565429688 252.3703155517578 C 548.2498779296875 247.7741088867188 546.4356689453125 240.3663024902344 545.4200439453125 231.1768493652344 C 544.8108520507812 225.6653289794922 544.7783813476562 222.1539154052734 544.7772827148438 222.0071411132812 L 544.7664794921875 220.5478668212891 L 546.1427612304688 220.0626220703125 L 582.7727661132812 207.1476135253906 L 582.7868041992188 207.1426391601562 L 582.8009643554688 207.1378784179688 L 582.9139404296875 207.0998992919922 L 583.5817260742188 206.8753662109375 L 584.2461547851562 207.1096038818359 L 620.9891967773438 220.0625915527344 L 622.3659057617188 220.5479125976562 L 622.354736328125 222.0075836181641 C 622.3536376953125 222.1546325683594 622.3203125 225.6722412109375 621.7083129882812 231.1923522949219 C 621.1452026367188 236.2724914550781 619.9613037109375 244.0782165527344 617.5197143554688 252.4152526855469 C 614.759521484375 261.8401489257812 610.9862670898438 270.0131225585938 606.3048095703125 276.7071533203125 C 600.3856811523438 285.1709899902344 592.9986572265625 291.2795104980469 584.3489990234375 294.8630065917969 L 583.9729614257812 295.018798828125 Z" stroke="none"/>
        <path d="M 583.5659790039062 209.0390014648438 L 583.4530029296875 209.0769958496094 L 546.822998046875 221.9920043945312 C 546.822998046875 221.9920043945312 547.2360229492188 277.8269958496094 583.4530029296875 292.9230041503906 C 583.4910278320312 292.9349975585938 583.5159912109375 292.947998046875 583.552978515625 292.9729919433594 L 583.5659790039062 292.9729919433594 C 619.8829956054688 277.927001953125 620.3090209960938 221.9920043945312 620.3090209960938 221.9920043945312 L 583.5659790039062 209.0390014648438 M 583.5972900390625 204.7116394042969 L 584.9263305664062 205.18017578125 L 621.6693725585938 218.1331787109375 L 624.4227294921875 219.1038208007812 L 624.4005126953125 222.0231628417969 C 624.3993530273438 222.1744995117188 624.3651123046875 225.7942199707031 623.74169921875 231.4177551269531 C 623.1694946289062 236.5790100097656 621.9662475585938 244.5112609863281 619.4830322265625 252.9902191162109 C 616.6602172851562 262.6289672851562 612.7904663085938 271.0029602050781 607.9813232421875 277.8795776367188 C 601.835205078125 286.66796875 594.1475830078125 293.0179138183594 585.1320190429688 296.7530212402344 L 584.3800048828125 297.0645751953125 L 583.5659790039062 297.0645751953125 L 583.552978515625 297.0645751953125 L 582.2996826171875 297.0645751953125 L 581.5635375976562 296.5669250488281 C 572.7088012695312 292.8029174804688 565.1504516601562 286.4944458007812 559.0946044921875 277.8121337890625 C 554.2999877929688 270.93798828125 550.4424438476562 262.5711669921875 547.6292724609375 252.9441375732422 C 546.2633666992188 248.2696990966797 544.41845703125 240.73779296875 543.3865966796875 231.4015808105469 C 542.7659912109375 225.7867431640625 542.732666015625 222.17333984375 542.7315063476562 222.0222473144531 L 542.7099609375 219.1037292480469 L 545.4624633789062 218.1332397460938 L 582.0924682617188 205.2182312011719 L 582.1204833984375 205.2083435058594 L 582.1486206054688 205.1988830566406 L 582.2615966796875 205.160888671875 L 583.5972900390625 204.7116394042969 Z" stroke="none" fill="#f9fbfc"/>
      </g>
      <path id="Path_11168" data-name="Path 11168" d="M583.453,209.077v83.846c-36.217-15.1-36.63-70.931-36.63-70.931Z" fill="#7a76fd" opacity="0.2" style="mix-blend-mode: multiply;isolation: isolate"/>
      <g id="Group_7379" data-name="Group 7379">
        <path id="Path_11169" data-name="Path 11169" d="M580.33,264.2l-16.521-13.727a3.131,3.131,0,1,1,4-4.817L580,255.787l21.834-21.228a3.132,3.132,0,1,1,4.367,4.492Z" fill="#fefefe"/>
      </g>
    </g>
  </g>
</svg>
