<svg xmlns="http://www.w3.org/2000/svg" xmlns:xlink="http://www.w3.org/1999/xlink" width="373.836" height="317.447" viewBox="0 0 373.836 317.447">
  <defs>
    <linearGradient id="linear-gradient" x1="0.5" y1="0.529" x2="0.5" y2="-0.044" gradientUnits="objectBoundingBox">
      <stop offset="0" stop-color="#e2f4ff"/>
      <stop offset="1" stop-color="#e4f4ff"/>
    </linearGradient>
    <linearGradient id="linear-gradient-2" y1="0.5" x2="1" y2="0.5" gradientUnits="objectBoundingBox">
      <stop offset="0" stop-color="#e2f4ff"/>
      <stop offset="1" stop-color="#d7ecff"/>
    </linearGradient>
    <linearGradient id="linear-gradient-9" x1="0.539" y1="-19.282" x2="0.498" y2="1.611" gradientUnits="objectBoundingBox">
      <stop offset="0" stop-color="#294698"/>
      <stop offset="1" stop-color="#0e4ba6"/>
    </linearGradient>
    <linearGradient id="linear-gradient-10" x1="-0.17" y1="1.929" x2="0.792" y2="1.929" xlink:href="#linear-gradient-2"/>
    <linearGradient id="linear-gradient-11" x1="0.257" y1="0.435" x2="1.102" y2="0.435" xlink:href="#linear-gradient-2"/>
    <linearGradient id="linear-gradient-12" y1="0.5" x2="1" y2="0.5" gradientUnits="objectBoundingBox">
      <stop offset="0" stop-color="#8ad3ff"/>
      <stop offset="1" stop-color="#5f9cff"/>
    </linearGradient>
    <linearGradient id="linear-gradient-13" x1="0.5" y1="0.99" x2="0.5" y2="0.173" gradientUnits="objectBoundingBox">
      <stop offset="0" stop-color="#8ad3ff"/>
      <stop offset="1" stop-color="#9fdbff"/>
    </linearGradient>
    <linearGradient id="linear-gradient-14" x1="0.959" y1="0.5" x2="0.306" y2="0.5" xlink:href="#linear-gradient-13"/>
    <linearGradient id="linear-gradient-18" y1="0.5" x2="1" y2="0.5" gradientUnits="objectBoundingBox">
      <stop offset="0" stop-color="#9972ff"/>
      <stop offset="1" stop-color="#7f85ff"/>
    </linearGradient>
    <linearGradient id="linear-gradient-19" x1="-5.564" y1="-0.013" x2="-5.444" y2="0.525" xlink:href="#linear-gradient-12"/>
    <linearGradient id="linear-gradient-20" x1="0" y1="0.5" x2="1" y2="0.5" xlink:href="#linear-gradient-9"/>
    <linearGradient id="linear-gradient-21" x1="-94.047" y1="0.03" x2="-94.047" y2="1.197" gradientUnits="objectBoundingBox">
      <stop offset="0" stop-color="#e6ecf7"/>
      <stop offset="1" stop-color="#c2d8f1"/>
    </linearGradient>
    <linearGradient id="linear-gradient-22" x1="-83.762" y1="0.143" x2="-83.762" y2="6.717" xlink:href="#linear-gradient-21"/>
    <linearGradient id="linear-gradient-23" x1="-34.809" y1="-29.599" x2="-33.71" y2="-29.599" xlink:href="#linear-gradient-18"/>
    <linearGradient id="linear-gradient-24" x1="-0.146" y1="-5.457" x2="0.961" y2="-5.457" xlink:href="#linear-gradient-12"/>
    <linearGradient id="linear-gradient-25" y1="0.5" x2="1" y2="0.5" gradientUnits="objectBoundingBox">
      <stop offset="0" stop-color="#263884"/>
      <stop offset="1" stop-color="#193f92"/>
    </linearGradient>
    <linearGradient id="linear-gradient-28" x1="0.5" y1="0.035" x2="0.5" y2="0.8" xlink:href="#linear-gradient-18"/>
    <linearGradient id="linear-gradient-29" x1="0.711" y1="0.391" x2="0.711" y2="2.023" xlink:href="#linear-gradient-18"/>
    <linearGradient id="linear-gradient-30" x1="1.253" y1="-7.017" x2="1.253" y2="8.184" xlink:href="#linear-gradient-18"/>
    <linearGradient id="linear-gradient-31" x1="2.525" y1="-1.676" x2="2.525" y2="1.849" xlink:href="#linear-gradient-9"/>
    <linearGradient id="linear-gradient-32" x1="0.316" y1="0.306" x2="0.89" y2="0.784" xlink:href="#linear-gradient-18"/>
    <linearGradient id="linear-gradient-33" x1="0.5" y1="0.127" x2="0.5" y2="1.039" xlink:href="#linear-gradient-9"/>
    <linearGradient id="linear-gradient-35" x1="-37.578" y1="0.5" x2="-36.578" y2="0.5" xlink:href="#linear-gradient-9"/>
    <linearGradient id="linear-gradient-36" x1="-172.921" y1="0.5" x2="-171.921" y2="0.5" xlink:href="#linear-gradient-9"/>
    <linearGradient id="linear-gradient-37" x1="-44.387" y1="0.5" x2="-43.387" y2="0.5" xlink:href="#linear-gradient-9"/>
    <linearGradient id="linear-gradient-38" x1="1.911" y1="-0.109" x2="1.911" y2="2.067" xlink:href="#linear-gradient-12"/>
    <linearGradient id="linear-gradient-39" x1="0.511" y1="-0.035" x2="0.511" y2="1.005" xlink:href="#linear-gradient-12"/>
    <linearGradient id="linear-gradient-40" x1="-32.592" y1="-206.608" x2="-31.712" y2="-206.608" gradientUnits="objectBoundingBox">
      <stop offset="0.043" stop-color="#7973fd"/>
      <stop offset="0.254" stop-color="#a4a4fd"/>
      <stop offset="0.535" stop-color="#7973fd"/>
      <stop offset="1" stop-color="#a4a4fd"/>
    </linearGradient>
    <linearGradient id="linear-gradient-41" x1="-22.66" y1="47.419" x2="-22.563" y2="47.419" xlink:href="#linear-gradient-18"/>
    <linearGradient id="linear-gradient-42" x1="-367.063" y1="385.592" x2="-366.063" y2="385.592" xlink:href="#linear-gradient-9"/>
    <linearGradient id="linear-gradient-43" x1="-142.586" y1="200.509" x2="-142.034" y2="200.509" xlink:href="#linear-gradient-9"/>
    <linearGradient id="linear-gradient-44" x1="-102.863" y1="0.5" x2="-101.863" y2="0.5" xlink:href="#linear-gradient-9"/>
    <linearGradient id="linear-gradient-45" x1="-1.162" y1="-0.076" x2="-1.162" y2="2.193" xlink:href="#linear-gradient-12"/>
  </defs>
  <g id="Group_7487" data-name="Group 7487" transform="translate(-41.904 -67.696)">
    <path id="Path_11170" data-name="Path 11170" d="M82,343.954c-6.85-26.82-31.022-49.643-24.455-78.961,3.4-15.163,15.513-26,22.458-39.461a42.548,42.548,0,0,0,3.364-8.454c2.059-3.912,1.143-6.659,1.143-10.322-1.832-13.429-10.173-26.451-11.734-39.88a32.963,32.963,0,0,1,.308-10.163c3.188-16.445,17.861-26.927,33.992-27.862,22.018-1.275,42.324-6.054,63.119-13.4,8.3-2.931,16.581-6.059,25.243-7.614,15.735-2.827,30.864,1.926,45.122,8.148,14.59,6.366,29.659,7.079,45.3,4.913,20.294-2.812,42.87-5.144,59.236,9.973,44.379,40.99-19.014,96.982.169,143.824q.383.926.8,1.839c2.788,6.054,8.8,9.375,14.842,11.567,8.982,3.26,19.037,4.211,27.125,9.652,25.02,16.832,17.735,52.625,11.16,77.024-.734,2.723-1.4,5.427-2.051,8.17-.457,1.932-1.225,3.954-3.306,4.526-1.829.5-3.79.133-5.651.089-6.564-.156-11.923-.481-18.488-.48l-262.833.029c-6.984,0-25.974,3.574-27.285-4.988-1-6.552,3.653-15.136,4.083-21.7A52.25,52.25,0,0,0,82,343.954Z" transform="translate(-1.56 -4.223)" fill="url(#linear-gradient)"/>
    <g id="Group_7384" data-name="Group 7384" transform="translate(128.942 122.364)">
      <rect id="Rectangle_1668" data-name="Rectangle 1668" width="197.745" height="261.644" rx="7.944" transform="translate(0 0)" fill="#fff"/>
      <g id="Group_7383" data-name="Group 7383" transform="translate(22.585 31.619)">
        <path id="Rectangle_1669" data-name="Rectangle 1669" d="M3.848,0h144.88a3.848,3.848,0,0,1,3.848,3.848v0A3.848,3.848,0,0,1,148.727,7.7H3.848A3.848,3.848,0,0,1,0,3.848v0A3.848,3.848,0,0,1,3.848,0Z" transform="translate(0 57.718)" fill="url(#linear-gradient-2)"/>
        <path id="Rectangle_1681" data-name="Rectangle 1681" d="M3.848,0h144.88a3.848,3.848,0,0,1,3.848,3.848v0A3.848,3.848,0,0,1,148.727,7.7H3.848A3.848,3.848,0,0,1,0,3.848v0A3.848,3.848,0,0,1,3.848,0Z" transform="translate(0 28.859)" fill="url(#linear-gradient-2)"/>
        <path id="Rectangle_1682" data-name="Rectangle 1682" d="M3.848,0h144.88a3.848,3.848,0,0,1,3.848,3.848v0A3.848,3.848,0,0,1,148.727,7.7H3.848A3.848,3.848,0,0,1,0,3.848v0A3.848,3.848,0,0,1,3.848,0Z" fill="url(#linear-gradient-2)"/>
        <path id="Rectangle_1670" data-name="Rectangle 1670" d="M3.848,0h144.88a3.848,3.848,0,0,1,3.848,3.848v0A3.848,3.848,0,0,1,148.727,7.7H3.848A3.848,3.848,0,0,1,0,3.848v0A3.848,3.848,0,0,1,3.848,0Z" transform="translate(0 86.576)" fill="url(#linear-gradient-2)"/>
        <path id="Rectangle_1671" data-name="Rectangle 1671" d="M3.848,0H148.727a3.848,3.848,0,0,1,3.848,3.848v0A3.848,3.848,0,0,1,148.727,7.7H3.848A3.848,3.848,0,0,1,0,3.848v0A3.848,3.848,0,0,1,3.848,0Z" transform="translate(0 115.435)" fill="url(#linear-gradient-2)"/>
        <path id="Rectangle_1672" data-name="Rectangle 1672" d="M3.848,0H148.727a3.848,3.848,0,0,1,3.848,3.848v0A3.848,3.848,0,0,1,148.727,7.7H3.848A3.848,3.848,0,0,1,0,3.848v0A3.848,3.848,0,0,1,3.848,0Z" transform="translate(0 144.294)" fill="url(#linear-gradient-2)"/>
        <path id="Rectangle_1673" data-name="Rectangle 1673" d="M3.848,0H148.727a3.848,3.848,0,0,1,3.848,3.848v0A3.848,3.848,0,0,1,148.727,7.7H3.848A3.848,3.848,0,0,1,0,3.848v0A3.848,3.848,0,0,1,3.848,0Z" transform="translate(0 173.153)" fill="url(#linear-gradient-2)"/>
      </g>
    </g>
    <rect id="Rectangle_1674" data-name="Rectangle 1674" width="371.417" height="2.366" transform="translate(41.904 382.777)" fill="url(#linear-gradient-9)"/>
    <g id="Group_7391" data-name="Group 7391" transform="translate(374.162 197.173)">
      <g id="Group_7389" data-name="Group 7389">
        <path id="Path_11171" data-name="Path 11171" d="M439.873,214.957l15.86,23.058-20.871,14.356-20.705-30.1,13.827-9.511Z" transform="translate(-414.156 -212.758)" fill="url(#linear-gradient-10)"/>
        <path id="Path_11172" data-name="Path 11172" d="M434.494,219.8l7.044-4.845-11.889-2.2Z" transform="translate(-415.821 -212.758)" fill="#f9fbfc"/>
      </g>
      <g id="Group_7390" data-name="Group 7390" transform="translate(9.802 7.757)">
        <rect id="Rectangle_1675" data-name="Rectangle 1675" width="20.108" height="1.031" transform="translate(0 11.396) rotate(-34.522)" fill="#fff"/>
        <rect id="Rectangle_1676" data-name="Rectangle 1676" width="20.108" height="1.031" transform="translate(2.411 14.9) rotate(-34.522)" fill="#fff"/>
        <rect id="Rectangle_1677" data-name="Rectangle 1677" width="20.108" height="1.031" transform="translate(4.821 18.405) rotate(-34.522)" fill="#fff"/>
      </g>
    </g>
    <path id="Path_11173" data-name="Path 11173" d="M152.871,112.436a13.333,13.333,0,1,0-19.118-6.539l-15.644,9.2a1.992,1.992,0,0,0,2.019,3.434l15.643-9.2A13.342,13.342,0,0,0,152.871,112.436Zm-14.817-6.757a9.351,9.351,0,1,1,12.8,3.324A9.36,9.36,0,0,1,138.054,105.679Z" transform="translate(-8.082 -2.14)" fill="url(#linear-gradient-11)"/>
    <g id="Group_7452" data-name="Group 7452" transform="translate(90.072 304.121)">
      <g id="Group_7412" data-name="Group 7412" transform="translate(6.761 52.309)">
        <g id="Group_7410" data-name="Group 7410">
          <g id="Group_7409" data-name="Group 7409">
            <g id="Group_7408" data-name="Group 7408">
              <path id="Path_11174" data-name="Path 11174" d="M225.237,394.793V413.77h4.629v3.618H116.4a13.02,13.02,0,0,1-9.167-3.85,13.161,13.161,0,0,1,5.7-21.878,12.757,12.757,0,0,1,3.467-.475H229.866v3.608Z" transform="translate(-103.445 -391.185)" fill="url(#linear-gradient-12)"/>
              <g id="Group_7392" data-name="Group 7392" transform="translate(67.72 3.607)">
                <path id="Path_11175" data-name="Path 11175" d="M179.317,404.716a9,9,0,0,0,.08,1.211c.028.224.063.448.1.672a9.325,9.325,0,0,0,1.372,3.311,5.818,5.818,0,0,0,.485.672,8.245,8.245,0,0,0,.744.843,9.421,9.421,0,0,0,6.709,2.78h44.522V395.226H188.807a9.422,9.422,0,0,0-6.655,2.727,7.047,7.047,0,0,0-.619.673,9.437,9.437,0,0,0-1.8,3.31c-.071.224-.125.448-.179.672A9.6,9.6,0,0,0,179.317,404.716Z" transform="translate(-179.317 -395.226)" fill="#f8f7f6"/>
              </g>
              <g id="Group_7393" data-name="Group 7393" transform="translate(67.718 3.612)">
                <path id="Path_11176" data-name="Path 11176" d="M233.384,395.232v18.975h-44.1a10.143,10.143,0,0,1-7.047-2.777,8.944,8.944,0,0,1-.781-.842l-.007-.008a7.984,7.984,0,0,1-.505-.666.007.007,0,0,0-.008-.007,9.137,9.137,0,0,1-1.431-3.305c-.037-.222-.076-.452-.107-.674a8.9,8.9,0,0,1-.084-1.209c0-.184.008-.368.015-.551s.023-.353.046-.52.046-.353.076-.528.07-.345.107-.512c.062-.222.115-.444.192-.673a9.414,9.414,0,0,1,1.89-3.306,7.7,7.7,0,0,1,.651-.673,10.18,10.18,0,0,1,6.993-2.724Z" transform="translate(-179.314 -395.232)" fill="#f8f7f6"/>
              </g>
              <g id="Group_7394" data-name="Group 7394" transform="translate(67.718 3.612)">
                <path id="Path_11177" data-name="Path 11177" d="M233.384,395.232v18.975H188.809a9.431,9.431,0,0,1-6.036-2.165,8.421,8.421,0,0,1-.674-.611v-.008a8.5,8.5,0,0,1-.75-.834v-.008a6.076,6.076,0,0,1-.482-.673c-.084-.122-.161-.245-.237-.368v-.007c-.145-.253-.29-.512-.42-.781a8.456,8.456,0,0,1-.444-1.132,3.9,3.9,0,0,1-.122-.406,5.442,5.442,0,0,1-.145-.611c-.038-.23-.077-.452-.1-.674a8.9,8.9,0,0,1-.084-1.209c0-.184.008-.368.015-.551s.023-.353.046-.52.046-.353.076-.528.062-.345.1-.512c.054-.222.107-.452.176-.673a7.307,7.307,0,0,1,.329-.9,7.983,7.983,0,0,1,.412-.857,9.335,9.335,0,0,1,1.064-1.554,4.277,4.277,0,0,1,.3-.344,4.453,4.453,0,0,1,.321-.329,9.411,9.411,0,0,1,1.026-.88c.122-.084.245-.176.368-.26.252-.161.512-.321.772-.467s.544-.268.827-.39.566-.222.865-.314a9.64,9.64,0,0,1,2.8-.413Z" transform="translate(-179.314 -395.232)" fill="#f8f7f6"/>
              </g>
              <g id="Group_7406" data-name="Group 7406" transform="translate(67.801 6.334)">
                <g id="Group_7396" data-name="Group 7396" transform="translate(2.135)">
                  <g id="Group_7395" data-name="Group 7395">
                    <path id="Path_11178" data-name="Path 11178" d="M181.8,398.954h51.8v-.673H182.418A7.047,7.047,0,0,0,181.8,398.954Z" transform="translate(-181.799 -398.281)" fill="#dfe9f4"/>
                  </g>
                </g>
                <g id="Group_7398" data-name="Group 7398" transform="translate(0.153 3.983)">
                  <g id="Group_7397" data-name="Group 7397">
                    <path id="Path_11179" data-name="Path 11179" d="M179.578,403.415h53.779v-.672h-53.6C179.686,402.967,179.632,403.191,179.578,403.415Z" transform="translate(-179.578 -402.743)" fill="#dfe9f4"/>
                  </g>
                </g>
                <g id="Group_7402" data-name="Group 7402" transform="translate(0 7.974)">
                  <g id="Group_7401" data-name="Group 7401">
                    <g id="Group_7400" data-name="Group 7400">
                      <g id="Group_7399" data-name="Group 7399">
                        <path id="Path_11180" data-name="Path 11180" d="M179.407,407.215c.028.224.063.448.1.672h53.832v-.672Z" transform="translate(-179.407 -407.215)" fill="#dfe9f4"/>
                      </g>
                    </g>
                  </g>
                </g>
                <g id="Group_7405" data-name="Group 7405" transform="translate(1.471 11.957)">
                  <g id="Group_7404" data-name="Group 7404">
                    <g id="Group_7403" data-name="Group 7403">
                      <path id="Path_11181" data-name="Path 11181" d="M181.055,411.677a5.818,5.818,0,0,0,.485.672h51.976v-.672Z" transform="translate(-181.055 -411.677)" fill="#dfe9f4"/>
                    </g>
                  </g>
                </g>
              </g>
              <g id="Group_7407" data-name="Group 7407" transform="translate(77.547 6.743)">
                <path id="Path_11182" data-name="Path 11182" d="M190.326,405.99l2.467-2.317L195,405.99v-7.25h-4.672Z" transform="translate(-190.326 -398.74)" fill="url(#linear-gradient-13)"/>
              </g>
            </g>
          </g>
        </g>
        <g id="Group_7411" data-name="Group 7411" transform="translate(63.463)">
          <path id="Path_11183" data-name="Path 11183" d="M181.115,397.844c-.111.112-.212.233-.3.344h.112a9.392,9.392,0,0,0-1.89,3.315c-.081.222-.132.444-.192.667-.041.171-.081.344-.112.515s-.051.354-.071.526-.041.344-.051.526-.01.363-.01.545a9.635,9.635,0,0,0,.08,1.213c.03.222.071.444.112.667a9.13,9.13,0,0,0,1.425,3.3.011.011,0,0,1,.011.011,7.566,7.566,0,0,0,.505.667l.01.01a7.55,7.55,0,0,0,.778.839,9.383,9.383,0,0,0,1.081.9c.071.04.132.091.2.131a.569.569,0,0,1,.091.07.236.236,0,0,1,.091.061H183a10.284,10.284,0,0,0,4.992,1.607h.273a.061.061,0,0,0,.04.01h49.2v3.609h-50a12.7,12.7,0,0,1-4.215-.718,12.907,12.907,0,0,1-4.952-3.123,13.161,13.161,0,0,1,5.7-21.878,12.7,12.7,0,0,1,3.467-.475h50v3.608H188.088c-.111,0-.212,0-.323.01-.131,0-.262.01-.395.021h-.02c-.233.02-.465.04-.7.08s-.445.071-.668.121a.152.152,0,0,0-.061.021c-.212.04-.424.1-.636.162-.293.091-.576.2-.859.313s-.556.253-.829.395-.515.3-.768.464c-.061.041-.121.081-.172.121a1.485,1.485,0,0,0-.2.142.532.532,0,0,0-.142.121c-.121.08-.232.171-.344.262-.181.162-.363.323-.536.5C181.328,397.622,181.216,397.734,181.115,397.844Z" transform="translate(-174.547 -391.185)" fill="url(#linear-gradient-14)"/>
        </g>
      </g>
      <g id="Group_7433" data-name="Group 7433" transform="translate(6.761)">
        <g id="Group_7431" data-name="Group 7431">
          <g id="Group_7430" data-name="Group 7430">
            <g id="Group_7429" data-name="Group 7429">
              <path id="Path_11184" data-name="Path 11184" d="M225.237,336.188v18.978h4.629v3.618H116.4a13.03,13.03,0,0,1-9.167-3.85,13.161,13.161,0,0,1,5.7-21.878,12.757,12.757,0,0,1,3.467-.475H229.866v3.608Z" transform="translate(-103.445 -332.58)" fill="url(#linear-gradient-12)"/>
              <g id="Group_7413" data-name="Group 7413" transform="translate(67.72 3.607)">
                <path id="Path_11185" data-name="Path 11185" d="M179.317,346.111a8.991,8.991,0,0,0,.08,1.21c.028.225.063.449.1.673a9.314,9.314,0,0,0,1.372,3.31,5.752,5.752,0,0,0,.485.673,8.251,8.251,0,0,0,.744.843,9.421,9.421,0,0,0,6.709,2.78h44.522V336.621H188.807a9.422,9.422,0,0,0-6.655,2.727,7.15,7.15,0,0,0-.619.672,9.446,9.446,0,0,0-1.8,3.31c-.071.225-.125.449-.179.673A9.6,9.6,0,0,0,179.317,346.111Z" transform="translate(-179.317 -336.621)" fill="#f8f7f6"/>
              </g>
              <g id="Group_7414" data-name="Group 7414" transform="translate(67.718 3.612)">
                <path id="Path_11186" data-name="Path 11186" d="M233.384,336.627V355.6h-44.1a10.139,10.139,0,0,1-7.047-2.778,8.829,8.829,0,0,1-.781-.842l-.007-.007a7.969,7.969,0,0,1-.505-.666.008.008,0,0,0-.008-.008A9.13,9.13,0,0,1,179.505,348c-.037-.221-.076-.451-.107-.673a8.91,8.91,0,0,1-.084-1.209c0-.183.008-.367.015-.551s.023-.352.046-.52.046-.352.076-.527.07-.345.107-.513c.062-.221.115-.443.192-.673a9.419,9.419,0,0,1,1.89-3.305,7.577,7.577,0,0,1,.651-.673,10.18,10.18,0,0,1,6.993-2.724Z" transform="translate(-179.314 -336.627)" fill="#f8f7f6"/>
              </g>
              <g id="Group_7415" data-name="Group 7415" transform="translate(67.718 3.612)">
                <path id="Path_11187" data-name="Path 11187" d="M233.384,336.627V355.6H188.809a9.436,9.436,0,0,1-6.036-2.165,8.432,8.432,0,0,1-.674-.612v-.007a8.5,8.5,0,0,1-.75-.835v-.007a6,6,0,0,1-.482-.674c-.084-.122-.161-.245-.237-.367v-.008c-.145-.252-.29-.512-.42-.78a8.514,8.514,0,0,1-.444-1.133,3.883,3.883,0,0,1-.122-.405A5.411,5.411,0,0,1,179.5,348c-.038-.229-.077-.451-.1-.673a8.91,8.91,0,0,1-.084-1.209c0-.183.008-.367.015-.551s.023-.352.046-.52.046-.352.076-.527.062-.345.1-.513c.054-.221.107-.451.176-.673a7.363,7.363,0,0,1,.329-.9,8.146,8.146,0,0,1,.412-.857,9.362,9.362,0,0,1,1.064-1.553,4.284,4.284,0,0,1,.3-.345c.1-.114.207-.221.321-.328a9.318,9.318,0,0,1,1.026-.88c.122-.084.245-.176.368-.261.252-.161.512-.321.772-.466s.544-.269.827-.39.566-.222.865-.314a9.64,9.64,0,0,1,2.8-.413Z" transform="translate(-179.314 -336.627)" fill="#f8f7f6"/>
              </g>
              <g id="Group_7427" data-name="Group 7427" transform="translate(67.801 6.334)">
                <g id="Group_7417" data-name="Group 7417" transform="translate(2.135)">
                  <g id="Group_7416" data-name="Group 7416">
                    <path id="Path_11188" data-name="Path 11188" d="M181.8,340.348h51.8v-.672H182.418A7.15,7.15,0,0,0,181.8,340.348Z" transform="translate(-181.799 -339.676)" fill="#dfe9f4"/>
                  </g>
                </g>
                <g id="Group_7419" data-name="Group 7419" transform="translate(0.153 3.982)">
                  <g id="Group_7418" data-name="Group 7418">
                    <path id="Path_11189" data-name="Path 11189" d="M179.578,344.81h53.779v-.673h-53.6C179.686,344.362,179.632,344.586,179.578,344.81Z" transform="translate(-179.578 -344.137)" fill="#dfe9f4"/>
                  </g>
                </g>
                <g id="Group_7423" data-name="Group 7423" transform="translate(0 7.973)">
                  <g id="Group_7422" data-name="Group 7422">
                    <g id="Group_7421" data-name="Group 7421">
                      <g id="Group_7420" data-name="Group 7420">
                        <path id="Path_11190" data-name="Path 11190" d="M179.407,348.609c.028.225.063.449.1.673h53.832v-.673Z" transform="translate(-179.407 -348.609)" fill="#dfe9f4"/>
                      </g>
                    </g>
                  </g>
                </g>
                <g id="Group_7426" data-name="Group 7426" transform="translate(1.471 11.956)">
                  <g id="Group_7425" data-name="Group 7425">
                    <g id="Group_7424" data-name="Group 7424">
                      <path id="Path_11191" data-name="Path 11191" d="M181.055,353.071a5.752,5.752,0,0,0,.485.673h51.976v-.673Z" transform="translate(-181.055 -353.071)" fill="#dfe9f4"/>
                    </g>
                  </g>
                </g>
              </g>
              <g id="Group_7428" data-name="Group 7428" transform="translate(77.547 6.743)">
                <path id="Path_11192" data-name="Path 11192" d="M190.326,347.385l2.467-2.317L195,347.385v-7.25h-4.672Z" transform="translate(-190.326 -340.134)" fill="url(#linear-gradient-13)"/>
              </g>
            </g>
          </g>
        </g>
        <g id="Group_7432" data-name="Group 7432" transform="translate(63.463)">
          <path id="Path_11193" data-name="Path 11193" d="M181.115,339.239a4.582,4.582,0,0,0-.3.344h.112a9.388,9.388,0,0,0-1.89,3.314c-.081.223-.132.445-.192.668-.041.171-.081.344-.112.515s-.051.353-.071.526-.041.344-.051.526-.01.363-.01.545a9.634,9.634,0,0,0,.08,1.213c.03.222.071.444.112.667a9.131,9.131,0,0,0,1.425,3.3.01.01,0,0,1,.011.01,7.445,7.445,0,0,0,.505.668l.01.01a7.713,7.713,0,0,0,.778.839,9.383,9.383,0,0,0,1.081.9c.071.04.132.09.2.131a.525.525,0,0,1,.091.071.236.236,0,0,1,.091.061H183a10.284,10.284,0,0,0,4.992,1.607h.273a.061.061,0,0,0,.04.01h49.2v3.608h-50a12.677,12.677,0,0,1-4.215-.718,12.9,12.9,0,0,1-4.952-3.122,13.161,13.161,0,0,1,5.7-21.878,12.7,12.7,0,0,1,3.467-.475h50v3.608H188.088c-.111,0-.212,0-.323.01-.131,0-.262.01-.395.021h-.02c-.233.02-.465.04-.7.08s-.445.071-.668.121a.141.141,0,0,0-.061.021c-.212.04-.424.1-.636.162-.293.091-.576.2-.859.313s-.556.253-.829.394-.515.3-.768.465c-.061.04-.121.081-.172.121a1.48,1.48,0,0,0-.2.141.549.549,0,0,0-.142.121c-.121.081-.232.172-.344.263-.181.162-.363.323-.536.495C181.328,339.017,181.216,339.128,181.115,339.239Z" transform="translate(-174.547 -332.58)" fill="url(#linear-gradient-14)"/>
        </g>
      </g>
      <g id="Group_7451" data-name="Group 7451" transform="translate(0 26.135)">
        <g id="Group_7449" data-name="Group 7449">
          <g id="Group_7448" data-name="Group 7448">
            <g id="Group_7447" data-name="Group 7447">
              <path id="Path_11194" data-name="Path 11194" d="M219.845,374.958a13.09,13.09,0,0,1-3.8,9.257,13.016,13.016,0,0,1-9.166,3.85H95.87v-3.618h4.639V365.469H95.87v-3.608H206.88a12.7,12.7,0,0,1,3.467.475A13.112,13.112,0,0,1,219.845,374.958Z" transform="translate(-95.87 -361.861)" fill="url(#linear-gradient-18)"/>
              <g id="Group_7434" data-name="Group 7434" transform="translate(4.693 3.607)">
                <path id="Path_11195" data-name="Path 11195" d="M178.094,375.392a9,9,0,0,1-.081,1.211c-.027.224-.062.448-.1.673a9.329,9.329,0,0,1-1.373,3.31,5.914,5.914,0,0,1-.484.672,8.256,8.256,0,0,1-.745.843,9.418,9.418,0,0,1-6.709,2.78H101.128V365.9H168.6a9.426,9.426,0,0,1,6.655,2.727,7.156,7.156,0,0,1,.619.673,9.424,9.424,0,0,1,1.8,3.31c.072.224.126.448.179.673A9.59,9.59,0,0,1,178.094,375.392Z" transform="translate(-101.128 -365.902)" fill="#f8f7f6"/>
              </g>
              <g id="Group_7435" data-name="Group 7435" transform="translate(4.638 3.612)">
                <path id="Path_11196" data-name="Path 11196" d="M101.066,365.908v18.975H168.12a10.139,10.139,0,0,0,7.047-2.777,8.93,8.93,0,0,0,.78-.842l.008-.008a7.881,7.881,0,0,0,.505-.666.007.007,0,0,1,.007-.007,9.136,9.136,0,0,0,1.431-3.305c.038-.222.077-.452.107-.674a8.9,8.9,0,0,0,.085-1.209c0-.184-.008-.368-.016-.551s-.022-.353-.046-.52-.046-.353-.077-.528-.069-.344-.107-.512c-.061-.222-.114-.444-.191-.674a9.432,9.432,0,0,0-1.89-3.305,7.835,7.835,0,0,0-.651-.673,10.181,10.181,0,0,0-6.993-2.724Z" transform="translate(-101.066 -365.908)" fill="#f8f7f6"/>
              </g>
              <g id="Group_7436" data-name="Group 7436" transform="translate(4.638 3.612)">
                <path id="Path_11197" data-name="Path 11197" d="M101.066,365.908v18.975h67.529a9.432,9.432,0,0,0,6.036-2.165,8.412,8.412,0,0,0,.673-.611V382.1a8.488,8.488,0,0,0,.75-.834v-.008a5.886,5.886,0,0,0,.483-.673c.084-.122.161-.245.237-.368v-.007c.145-.253.291-.513.421-.781a8.452,8.452,0,0,0,.444-1.132,4.189,4.189,0,0,0,.122-.405,5.5,5.5,0,0,0,.145-.612c.038-.23.077-.452.1-.674a8.9,8.9,0,0,0,.085-1.209c0-.184-.008-.368-.016-.551s-.022-.353-.046-.52-.046-.353-.077-.528-.061-.344-.1-.512c-.054-.222-.107-.452-.176-.674a7.347,7.347,0,0,0-.329-.894,7.913,7.913,0,0,0-.413-.858,9.307,9.307,0,0,0-1.063-1.553,4.465,4.465,0,0,0-.3-.345,4.268,4.268,0,0,0-.321-.328,9.484,9.484,0,0,0-1.025-.88c-.123-.084-.245-.176-.368-.26-.253-.161-.512-.321-.773-.467s-.543-.268-.826-.39-.567-.222-.865-.314a9.65,9.65,0,0,0-2.8-.413Z" transform="translate(-101.066 -365.908)" fill="#f8f7f6"/>
              </g>
              <g id="Group_7445" data-name="Group 7445" transform="translate(4.693 6.334)">
                <g id="Group_7438" data-name="Group 7438">
                  <g id="Group_7437" data-name="Group 7437">
                    <path id="Path_11198" data-name="Path 11198" d="M175.877,369.63H101.128v-.673h74.131A7.156,7.156,0,0,1,175.877,369.63Z" transform="translate(-101.128 -368.957)" fill="#dfe9f4"/>
                  </g>
                </g>
                <g id="Group_7440" data-name="Group 7440" transform="translate(0 3.983)">
                  <g id="Group_7439" data-name="Group 7439">
                    <path id="Path_11199" data-name="Path 11199" d="M177.86,374.092H101.128v-.673H177.68C177.753,373.643,177.806,373.867,177.86,374.092Z" transform="translate(-101.128 -373.419)" fill="#dfe9f4"/>
                  </g>
                </g>
                <g id="Group_7442" data-name="Group 7442" transform="translate(0 7.974)">
                  <g id="Group_7441" data-name="Group 7441">
                    <path id="Path_11200" data-name="Path 11200" d="M178.012,377.891c-.027.224-.062.448-.1.673H101.128v-.673Z" transform="translate(-101.128 -377.891)" fill="#dfe9f4"/>
                  </g>
                </g>
                <g id="Group_7444" data-name="Group 7444" transform="translate(0 11.957)">
                  <g id="Group_7443" data-name="Group 7443">
                    <path id="Path_11201" data-name="Path 11201" d="M176.541,382.353a5.914,5.914,0,0,1-.484.672h-74.93v-.672Z" transform="translate(-101.128 -382.353)" fill="#dfe9f4"/>
                  </g>
                </g>
              </g>
              <g id="Group_7446" data-name="Group 7446" transform="translate(67.16 6.743)">
                <path id="Path_11202" data-name="Path 11202" d="M175.786,376.666l-2.467-2.317-2.205,2.317v-7.25h4.672Z" transform="translate(-171.115 -369.416)" fill="#aa83ff"/>
              </g>
            </g>
          </g>
        </g>
        <g id="Group_7450" data-name="Group 7450">
          <path id="Path_11203" data-name="Path 11203" d="M181.636,374.958a13.1,13.1,0,0,1-3.79,9.257,12.9,12.9,0,0,1-4.952,3.123,12.69,12.69,0,0,1-4.214.718H95.87v-3.608h72.013a.037.037,0,0,0,.03-.011h.283a9.375,9.375,0,0,0,1.859-.283,10.06,10.06,0,0,0,3.133-1.324h.01a.235.235,0,0,1,.091-.061.521.521,0,0,1,.091-.071c.071-.04.131-.091.2-.131a9.311,9.311,0,0,0,1.082-.9,7.552,7.552,0,0,0,.778-.839l.01-.01a7.753,7.753,0,0,0,.505-.667.01.01,0,0,1,.01-.01c.131-.182.243-.374.364-.566.01-.011.01-.03.02-.041a5.548,5.548,0,0,0,.284-.545.01.01,0,0,0,.01-.011,9.1,9.1,0,0,0,.748-2.142c.04-.222.08-.445.111-.667a9.47,9.47,0,0,0,.081-1.213c0-.181-.01-.363-.01-.545s-.03-.354-.051-.526-.04-.353-.071-.525-.071-.345-.112-.516c-.061-.222-.111-.444-.192-.667a9.733,9.733,0,0,0-.778-1.758,9.456,9.456,0,0,0-1.111-1.557h.111c-.091-.111-.192-.232-.3-.344s-.212-.222-.324-.323c-.171-.172-.353-.334-.536-.5a4.151,4.151,0,0,0-.344-.262.529.529,0,0,0-.141-.121,1.44,1.44,0,0,0-.2-.142c-.05-.04-.111-.08-.171-.12-.253-.162-.505-.324-.768-.465s-.546-.273-.829-.395-.566-.222-.859-.313c-.212-.061-.425-.121-.637-.162a.144.144,0,0,0-.061-.021c-.222-.05-.445-.091-.667-.12a4.563,4.563,0,0,0-.526-.061.929.929,0,0,0-.171-.021h-.071c-.112-.01-.233-.021-.344-.021s-.212-.01-.323-.01H95.87v-3.608h72.811a12.709,12.709,0,0,1,3.467.475A13.1,13.1,0,0,1,181.636,374.958Z" transform="translate(-95.87 -361.861)" fill="#aa83ff"/>
        </g>
      </g>
    </g>
    <g id="Group_7455" data-name="Group 7455" transform="translate(367.541 306.594)">
      <path id="Path_11204" data-name="Path 11204" d="M438.575,349.251a15.289,15.289,0,0,1,4.176-4.528.4.4,0,0,0,.173-.22c2.339-1.777,8.611-6.92,5.568-8.845-3.014-1.907-5.424,5.553-6.219,8.4a15.86,15.86,0,0,0-4.335,4.659c.833-3.057,2.477-10.386-.985-10.1-3.884.327-.444,9.131.368,11.083a30.3,30.3,0,0,0-2.177,4.473c-.15.383-.3.787-.446,1.207.088-3.393-.123-10.11-3.261-9.1-3.623,1.169,1.391,8.637,2.775,10.585a48.427,48.427,0,0,0-1.67,7.97c-.654-3.145-2.495-10.293-5.427-8.484-3.282,2.025,3.583,8.213,5.286,9.676a70.783,70.783,0,0,0-.394,7.465c-1.065-2.915-4.007-10.023-6.69-7.755-2.962,2.5,4.853,7.65,6.7,8.8.021,2.1.123,4.334.321,6.725-1.936-2.327-7.223-8.192-9-5.111-1.877,3.258,6.617,5.413,9.073,5.961.221,2.426.536,5,.968,7.737-1.484-1.84-7.47-8.9-9.382-5.58-1.993,3.46,7.713,5.678,9.458,6.045q.424,2.627.99,5.445a.408.408,0,1,0,.8-.162c-.38-1.881-.706-3.691-.988-5.438,2-.147,11.794-1.054,10.087-4.607-1.661-3.456-8.47,2.64-10.151,4.223-.427-2.692-.739-5.222-.959-7.609,1.9-.137,11.853-1.032,10.133-4.609-1.667-3.468-8.516,2.681-10.167,4.238-.234-2.637-.352-5.09-.372-7.37,2.121-.054,11.763-.5,10.247-4.1-1.462-3.476-8.351,2.022-10.251,3.63a70.547,70.547,0,0,1,.386-7.855c2.127.161,11.747.686,10.6-3.045-1.1-3.6-8.47,1.145-10.547,2.568A48.372,48.372,0,0,1,435,357.088c2.266.17,11.662.655,10.536-3.036-1.063-3.484-8.013.843-10.339,2.409.22-.675.445-1.309.674-1.9a29.192,29.192,0,0,1,2.216-4.54c2.1.129,11.773.528,10.572-3.2C447.572,343.468,441.066,347.54,438.575,349.251Z" transform="translate(-408.492 -335.35)" fill="url(#linear-gradient-19)"/>
      <path id="Path_11205" data-name="Path 11205" d="M410.563,378.69a16.143,16.143,0,0,0,7.047-2.189S412.446,376.981,410.563,378.69Zm.24,1.879a18.87,18.87,0,0,0,8.361-2.106S413.109,378.695,410.8,380.568Zm15.9,10.474c.419-.312,1.4-1.038,2.451-1.742,1.383-.93,3.045-3.814,3.045-3.814-.856.839-2.315,1.865-3.281,2.736a20.33,20.33,0,0,0-2.253,2.732q-.541-1.279-1.132-2.536c2.239-.831,5.717-5.73,5.717-5.73-2.345.823-5.095,4.576-5.792,5.57q-.557-1.185-1.159-2.349c2.206-.8,5.6-5.968,5.6-5.968-2.4.94-5.12,5.041-5.651,5.87-.1-.186-.187-.374-.285-.558-.262-.486-.537-.966-.811-1.445.3-.293,1.251-1.2,2.283-2.094,1.25-1.085,2.538-4.132,2.538-4.132-.742.931-2.056,2.121-2.9,3.1a20.842,20.842,0,0,0-1.947,3.078q-.548-.957-1.129-1.894c.313-.349,1.28-1.417,2.34-2.48a10.669,10.669,0,0,0,1.97-4.083c-.741,1.083-1.6,1.835-2.452,2.977a22.9,22.9,0,0,0-1.891,3.532c-.527-.849-1.075-1.686-1.648-2.5,2.123-.85,5.31-5.78,5.31-5.78-2.275.911-4.828,4.789-5.387,5.673-.357-.506-.718-1.01-1.094-1.5-.071-.092-.147-.181-.22-.273a17.687,17.687,0,0,0,5.047-6.149c-2.319,1.107-4.735,5.488-5.073,6.118q-.723-.918-1.488-1.8a17.742,17.742,0,0,0,4.524-6.476c-2.176,1.249-4.2,5.609-4.569,6.425-.369-.426-.736-.852-1.126-1.259-.1-.112-.213-.22-.32-.331A15.9,15.9,0,0,0,420,368.159c-1.958,1.112-3.8,5.024-4.123,5.745q-.411-.427-.839-.839a17.7,17.7,0,0,0,2.858-7.416c-1.842,1.766-2.76,6.629-2.893,7.383q-.432-.415-.883-.81a12.48,12.48,0,0,0,.071-6.849c-1.1,2.3-.248,6.219-.107,6.817-.266-.233-.539-.459-.816-.679a12.464,12.464,0,0,0-2.479-6.434c-.182,2.687,2.326,6.228,2.466,6.424-.108-.085-.212-.175-.321-.258-.158-.116-.261-.158-.308-.151a12.474,12.474,0,0,0-4.434-5.255c.694,2.56,4.127,5.053,4.418,5.26-.02.013-.014.046.021.1-.414-.064-3.964-.581-5.581.264a12.357,12.357,0,0,0,5.592-.248,1.11,1.11,0,0,0,.184.175q.426.347.834.713c-.6.027-5.121.27-6.925,1.72a15.823,15.823,0,0,0,6.949-1.7c.35.314.688.643,1.02.976-.411.087-4.994,1.093-6.565,2.87a15.815,15.815,0,0,0,6.577-2.856c.444.445.878.9,1.3,1.372.066.072.126.151.191.224-1.163.412-2.257.552-3.546.978a24.772,24.772,0,0,0-3.748,1.914s1.711-.41,3.508-.73a10.143,10.143,0,0,0,3.83-2.111c.906,1.018,1.754,2.088,2.575,3.176.594.8,1.154,1.632,1.7,2.468-1.109.015-6.138.172-8.265,1.755a19.2,19.2,0,0,0,8.32-1.672c.32.491.636.984.942,1.484-.845.155-6.048,1.183-7.932,3.176a19.117,19.117,0,0,0,7.962-3.127c.495.809.969,1.63,1.432,2.458-1.051.055-7.207.458-9.685,2.472a22.365,22.365,0,0,0,9.718-2.413c.175.314.354.626.525.943.136.255.263.515.4.772-.66.07-5.214.6-6.959,2.181a16.243,16.243,0,0,0,6.977-2.147q.494.961.964,1.936c-.583-.006-6.98-.028-9.6,1.866a21.542,21.542,0,0,0,9.6-1.848q.523,1.091,1.017,2.2c-1.551.271-2.934.182-4.635.42a30.473,30.473,0,0,0-4.948,1.489s2.157-.119,4.4-.112c2.054.006,4.76-1.515,5.2-1.769a93.554,93.554,0,0,1,4.227,11.528c.143.45.313.433.179-.049A79.074,79.074,0,0,0,426.7,391.043Z" transform="translate(-406.738 -338.544)" fill="url(#linear-gradient-20)"/>
      <g id="Group_7454" data-name="Group 7454" transform="translate(10.431 53.69)">
        <g id="Group_7453" data-name="Group 7453">
          <path id="Path_11206" data-name="Path 11206" d="M420.089,395.517l.184,2.13,1.649,18.638a1.961,1.961,0,0,0,1.943,1.807l15.83.138a1.961,1.961,0,0,0,1.974-1.773l1.78-16.761v-.034l.418-3.937Z" transform="translate(-418.603 -395.504)" fill="url(#linear-gradient-21)"/>
          <path id="Path_11207" data-name="Path 11207" d="M420.3,397.762l1.649,18.638a1.961,1.961,0,0,0,1.943,1.807l7.532.066c-6.845-2.729-8.514-8.8-7.123-13.462,1.508-5.042,17.474-5.014,19.174-5l.146,0-.146-.036-15.139-3.184Z" transform="translate(-418.625 -395.62)" fill="#d3dee5" opacity="0.2" style="mix-blend-mode: multiply;isolation: isolate"/>
          <rect id="Rectangle_1678" data-name="Rectangle 1678" width="26.68" height="4.033" rx="0.689" transform="matrix(-1, -0.009, 0.009, -1, 26.679, 4.267)" fill="url(#linear-gradient-22)"/>
        </g>
      </g>
    </g>
    <g id="Group_7471" data-name="Group 7471" transform="translate(53.837 186.114)">
      <g id="Group_7470" data-name="Group 7470">
        <path id="Path_11208" data-name="Path 11208" d="M83.181,307.877l19.091-3.666-2.137-33.981-2.951-9.424L86.258,258.5l-6.5,2.244a7.921,7.921,0,0,0-5.207,8.9l6.381,26.838Z" transform="translate(-57.332 -206.614)" fill="#edbeab"/>
        <path id="Path_11209" data-name="Path 11209" d="M84.108,253.6l1.12,7.721s1.773.738,5.59.184c2.058-.3,2.38-1.341,2.38-1.341l-.414-2.854Z" transform="translate(-58.371 -206.088)" fill="#edbeab"/>
        <path id="Path_11210" data-name="Path 11210" d="M82.117,245.769c.059.277.105.537.161.787.012.091.017.182.031.281.476,4.61,4.128,9.092,8.654,9.117,0,0,.037,0,.1,0,.036-.005.091,0,.154-.013.964-.021,4.432-.237,5.487-1.8a11.785,11.785,0,0,0,1.815-7.037,26.216,26.216,0,0,0-.853-3.283c-.093-.64-.04-2.695-.16-3.565-.563-4.094-3.9-7.754-8.794-7.044C81.381,234.279,81.2,240.874,82.117,245.769Z" transform="translate(-58.116 -203.888)" fill="#edbeab"/>
        <path id="Path_11211" data-name="Path 11211" d="M94.245,260.665" transform="translate(-59.461 -206.846)" fill="#6ebaad"/>
        <g id="Group_7458" data-name="Group 7458" transform="translate(7.714 54.384)">
          <path id="Path_11212" data-name="Path 11212" d="M65.075,292.255c2.219,1.382,11.437-10.762,14.966-16.206S85.38,265.684,82.672,264s-6.327,2.107-9.656,7.677S62.857,290.873,65.075,292.255Z" transform="translate(-63.994 -261.545)" fill="#edbeab"/>
          <g id="Group_7456" data-name="Group 7456" transform="translate(0.644 27.561)">
            <path id="Path_11213" data-name="Path 11213" d="M81.985,319.609c1.982-1.2-6.307-16.118-8.8-20.237s-5.43-8.282-7.653-6.937.106,5.878,2.6,10S80,320.809,81.985,319.609Z" transform="translate(-64.638 -292.177)" fill="#edbeab"/>
          </g>
          <path id="Path_11214" data-name="Path 11214" d="M77.721,281.878s-6.916,9.278-6.931,9.463,10.5,21.618,10.5,21.618l-3.469,2.207s-14.359-16.982-13.9-22.569,6.176-16.1,6.176-16.1Z" transform="translate(-63.916 -262.931)" fill="#edbeab"/>
          <g id="Group_7457" data-name="Group 7457" transform="translate(13.91 50.021)">
            <path id="Path_11215" data-name="Path 11215" d="M82.543,317.552l.427-.2,0-.006.006,0,1.728.754a2.946,2.946,0,0,1,1.126.872l.877,1.948s-.227.619-.99-.328a2.355,2.355,0,0,0-1.075-.528l.625,1.028,1.34,2.63a1.733,1.733,0,0,1-.541,2.222,2.176,2.176,0,0,1-2.237-.38L82.2,324.423a6.549,6.549,0,0,1-1.848-2.14l-.852-2.728Z" transform="translate(-79.5 -317.341)" fill="#edbeab"/>
          </g>
          <path id="Path_11216" data-name="Path 11216" d="M78.662,280.6l-8.493-5.562s9.542-17.108,16.493-13.141C92.468,265.208,78.662,280.6,78.662,280.6Z" transform="translate(-64.588 -261.298)" fill="url(#linear-gradient-23)"/>
        </g>
        <g id="Group_7461" data-name="Group 7461" transform="translate(1.99 100.23)">
          <path id="Path_11217" data-name="Path 11217" d="M88.449,317.15c-2.254.88-3.477,4.483-2.679,7.814a49.671,49.671,0,0,0,3.663,10.023c4.8,9.915,8.567,23.2,11.9,23.117s4.355-8.354.982-19.083c-3.049-9.7-5.881-22.427-8.341-23.036C92.726,315.676,90.421,316.38,88.449,317.15Z" transform="translate(-60.514 -313.012)" fill="#edbeab"/>
          <g id="Group_7460" data-name="Group 7460" transform="translate(0 40.539)">
            <path id="Path_11218" data-name="Path 11218" d="M68.993,392.659c-.013.171-7.464,9.542-7.464,9.542s4.041,4.141,4.315,3.833,7.5-7.768,7.5-7.768Z" transform="translate(-57.936 -361.797)" fill="#edbeab"/>
            <g id="Group_7459" data-name="Group 7459" transform="translate(5.051)">
              <path id="Path_11219" data-name="Path 11219" d="M103.051,359.229c-4.516-8.325-36.232,31.125-39.516,38.806s16.012-11.651,25.815-20.849S104.828,362.5,103.051,359.229Z" transform="translate(-63.162 -358.082)" fill="#edbeab"/>
            </g>
            <path id="Path_11220" data-name="Path 11220" d="M66.38,406.015a15.618,15.618,0,0,0-.205,5.011c.228,3.037,1.975,3.982,1.34,4.431-.611.431-10.012-8.55-10.012-8.55L61.86,402S66.381,406.02,66.38,406.015Z" transform="translate(-57.503 -362.8)" fill="url(#linear-gradient-24)"/>
          </g>
          <path id="Path_11221" data-name="Path 11221" d="M101.618,312.663s5.5,32.176,4.82,42.2c-.517,7.6-34.917,39.441-34.917,39.441l-6.2-6.049c.074-1.549,6.564-10.868,14.016-19.179,7.672-8.558,12.689-14.68,12.689-14.68s-11.951-26.975-11.668-38.644" transform="translate(-58.343 -312.663)" fill="url(#linear-gradient-25)"/>
        </g>
        <path id="Path_11222" data-name="Path 11222" d="M101.181,313.588c-2.071,1.252-2.661,5.011-1.3,8.157a49.663,49.663,0,0,0,5.321,9.25c6.422,8.95,12.4,21.394,15.674,20.745s2.863-8.975-2.293-18.971c-4.661-9.034-9.625-21.093-12.153-21.272C105.144,311.405,102.992,312.492,101.181,313.588Z" transform="translate(-59.987 -212.307)" fill="#edbeab"/>
        <g id="Group_7463" data-name="Group 7463" transform="translate(55.629 133.421)">
          <g id="Group_7462" data-name="Group 7462">
            <path id="Path_11223" data-name="Path 11223" d="M124.03,349.987c-8.942-3.119-6.783,47.391-4.043,55.284s4.929-19.381,5.991-32.781S127.548,351.215,124.03,349.987Z" transform="translate(-117.599 -349.849)" fill="#edbeab"/>
          </g>
          <path id="Path_11224" data-name="Path 11224" d="M118.055,400.932c.1.141.291,12.112.291,12.112s5.751.634,5.767.222.86-10.763.86-10.763Z" transform="translate(-117.648 -355.337)" fill="#edbeab"/>
          <path id="Path_11225" data-name="Path 11225" d="M124.158,413.341s.54,1.789,4.126,4.229,4.569,1.975,4.619,2.838-15.281-.435-15.281-.435l.511-7.06S124.165,413.157,124.158,413.341Z" transform="translate(-117.601 -356.624)" fill="url(#linear-gradient-12)"/>
        </g>
        <path id="Path_11226" data-name="Path 11226" d="M106.773,312.056s15.246,26.04,16.573,34.893-2.139,50.163-2.139,50.163-6.786,1.18-8.04-1.033-1.624-45.811-1.624-45.811-20.851-20.525-26.31-28.032a19.193,19.193,0,0,1-3.061-6.555Z" transform="translate(-58.163 -212.368)" fill="url(#linear-gradient-20)"/>
        <path id="Path_11227" data-name="Path 11227" d="M97.719,308.651s-16.35,2.152-16.4,1.375c-.33-5.218-3.067-23.07-4.355-27.211-4.576-14.664-2.858-19.853,1.157-21.624,6.013-2.671,17.94-1.863,19.707-.646s3.352,3.58,4.4,8.723a23.774,23.774,0,0,1,1.158,6.517,14.277,14.277,0,0,1-.12,2.029l0,.015a7.342,7.342,0,0,1-.129.781c-.1.507-.163.89-.208,1.045-1.916,7.919,1.833,23,3.152,26.57C106.223,306.615,97.719,308.651,97.719,308.651Z" transform="translate(-57.31 -206.711)" fill="url(#linear-gradient-28)"/>
        <g id="Group_7466" data-name="Group 7466" transform="translate(69.939)">
          <path id="Path_11228" data-name="Path 11228" d="M194.966,205.41a18.085,18.085,0,1,0,.511,25.571A18.092,18.092,0,0,0,194.966,205.41Zm-21.951,22.855a13.6,13.6,0,1,1,19.228-.388A13.605,13.605,0,0,1,173.015,228.265Z" transform="translate(-136.931 -200.368)" fill="url(#linear-gradient-29)"/>
          <g id="Group_7464" data-name="Group 7464" transform="translate(2.199 27.306)">
            <rect id="Rectangle_1679" data-name="Rectangle 1679" width="44.719" height="5.005" transform="matrix(0.693, -0.721, 0.721, 0.693, 0, 32.252)" fill="url(#linear-gradient-30)"/>
          </g>
          <g id="Group_7465" data-name="Group 7465" transform="translate(0 43.712)">
            <path id="Path_11229" data-name="Path 11229" d="M134.861,269.809a4.005,4.005,0,0,1-.114-5.662l13.039-13.576a4,4,0,1,1,5.776,5.547L140.522,269.7A4,4,0,0,1,134.861,269.809Z" transform="translate(-133.631 -249.341)" fill="url(#linear-gradient-31)"/>
          </g>
        </g>
        <g id="Group_7467" data-name="Group 7467" transform="translate(82.781 50.98)">
          <path id="Path_11230" data-name="Path 11230" d="M156.156,260.371l-1.018,1.712c-.678.792-1.056,1.539-1.99,2.006l-2.021.8-.642.256-2.224-2.887-.234-.408h-.007v-.007l.007-.015.52-1.485.1-.279c.007-.007.007-.022.015-.03a2.961,2.961,0,0,1,.769-1.161l1.877-1.018s.634.174-.256,1.011a2.4,2.4,0,0,0-.445,1.109l.159-.113.822-.588,2.519-1.531a1.731,1.731,0,0,1,2.255.37A2.173,2.173,0,0,1,156.156,260.371Z" transform="translate(-148.019 -257.485)" fill="#edbeab"/>
        </g>
        <g id="Group_7469" data-name="Group 7469" transform="translate(32.703 52.756)">
          <path id="Path_11231" data-name="Path 11231" d="M124.234,280.179c1.21-2.316-11.594-10.592-17.289-13.7s-10.738-4.54-12.216-1.713,2.579,6.15,8.383,9.049S123.023,282.5,124.234,280.179Z" transform="translate(-92.182 -259.88)" fill="#edbeab"/>
          <g id="Group_7468" data-name="Group 7468" transform="translate(28.804 1.357)">
            <path id="Path_11232" data-name="Path 11232" d="M150.369,261.243c-1.347-1.886-15.6,7.5-19.515,10.3s-7.849,6.04-6.34,8.154,5.853-.549,9.772-3.347S151.715,263.129,150.369,261.243Z" transform="translate(-124.184 -260.995)" fill="#edbeab"/>
          </g>
          <path id="Path_11233" data-name="Path 11233" d="M113.028,268.286s9.774,6.2,9.958,6.2,20.765-12.1,20.765-12.1l2.463,3.293s-15.85,15.6-21.456,15.562-16.525-4.942-16.525-4.942Z" transform="translate(-93.666 -259.787)" fill="#edbeab"/>
          <path id="Path_11234" data-name="Path 11234" d="M111.606,267.679l-4.906,8.889s-17.778-8.225-14.348-15.455C95.218,255.074,111.606,267.679,111.606,267.679Z" transform="translate(-91.913 -259.475)" fill="url(#linear-gradient-32)"/>
        </g>
        <path id="Path_11235" data-name="Path 11235" d="M90.512,261.364c-2.378,9.067-6.4,20.5-17.219,21.6-4.866.5-15.4,1.936-17.4-4.319a13.657,13.657,0,0,1,2.654-12.964c4.067-4.564,7.645-5.405,12.48-8.993a10.218,10.218,0,0,0,4.482-7.354c.546-6.02-1.284-11.555,4.361-15.872a11.913,11.913,0,0,1,10.827-1.8c2.322.777,4.564,2.614,4.721,5.058a8.474,8.474,0,0,1-.278,2.308C93.548,246.439,92.44,254.017,90.512,261.364Z" transform="translate(-55.274 -203.667)" fill="url(#linear-gradient-33)"/>
        <path id="Path_11236" data-name="Path 11236" d="M150.992,260.273l-.076-.015.158-.113Z" transform="translate(-65.549 -206.791)" fill="#edbeab"/>
        <path id="Path_11237" data-name="Path 11237" d="M156.156,260.371l-1.018,1.712c-.678.792-1.056,1.539-1.99,2.006l-2.021.8-3.1-3.061.52-1.485.1-.279c.007-.007.007-.022.015-.03l1.945-.06.159-.113.822-.588,2.519-1.531a1.731,1.731,0,0,1,2.255.37A2.173,2.173,0,0,1,156.156,260.371Z" transform="translate(-65.239 -206.505)" fill="#edbeab"/>
      </g>
      <path id="Path_11238" data-name="Path 11238" d="M103.177,312.883" transform="translate(-60.42 -212.457)" fill="none" stroke="#707070" stroke-miterlimit="10" stroke-width="0.845"/>
    </g>
    <path id="Path_11239" data-name="Path 11239" d="M309.563,84.973h-2.337a17.485,17.485,0,0,0-2.044-5.093h0l1.721-1.72a1.558,1.558,0,0,0,0-2.2l-3.767-3.768a1.558,1.558,0,0,0-2.2,0l-1.652,1.653a17.668,17.668,0,0,0-5.047-2.161v-2.43a1.557,1.557,0,0,0-1.557-1.557h-5.329a1.557,1.557,0,0,0-1.557,1.557v2.34a17.63,17.63,0,0,0-5.1,2.039h0l-1.718-1.719a1.559,1.559,0,0,0-2.2,0l-3.767,3.768a1.559,1.559,0,0,0,0,2.2l1.658,1.657a17.444,17.444,0,0,0-2.162,5.042h-2.432a1.557,1.557,0,0,0-1.558,1.557v5.329a1.557,1.557,0,0,0,1.558,1.557h2.344a17.343,17.343,0,0,0,2.037,5.092l-1.722,1.722a1.557,1.557,0,0,0,0,2.2l3.768,3.768a1.558,1.558,0,0,0,2.2,0l1.653-1.654h0a17.649,17.649,0,0,0,5.041,2.162h0v2.428a1.557,1.557,0,0,0,1.557,1.558h5.329a1.558,1.558,0,0,0,1.558-1.558V106.4h0a17.378,17.378,0,0,0,5.088-2.039h0l1.72,1.72a1.558,1.558,0,0,0,2.2,0l3.768-3.768a1.559,1.559,0,0,0,0-2.2l-1.656-1.656h0a17.482,17.482,0,0,0,2.167-5.042h2.425a1.557,1.557,0,0,0,1.557-1.557V86.531A1.558,1.558,0,0,0,309.563,84.973ZM289.815,98.912A9.913,9.913,0,1,1,299.734,89,9.913,9.913,0,0,1,289.815,98.912Z" transform="translate(-24.347)" fill="url(#linear-gradient-2)"/>
    <g id="Group_7485" data-name="Group 7485" transform="translate(244.256 213.41)">
      <g id="Group_7484" data-name="Group 7484">
        <g id="Group_7476" data-name="Group 7476" transform="translate(74.101 69.502)">
          <g id="Group_7473" data-name="Group 7473" transform="translate(0 0.073)">
            <path id="Path_11240" data-name="Path 11240" d="M380.729,309.2a5.914,5.914,0,0,1,5.167,6.964,38.707,38.707,0,0,1-3.7,10.454c-5.37,10.593-8.694,24.215-13.556,24.853s-7.691-7.124-4.527-18.2c2.86-10.009,4.912-22.9,8.392-24.011C374.267,308.7,377.735,308.882,380.729,309.2Z" transform="translate(-352.831 -308.899)" fill="#d69f80"/>
            <g id="Group_7472" data-name="Group 7472" transform="translate(0 38.844)">
              <path id="Path_11241" data-name="Path 11241" d="M364.869,353.036c8.71-6.139,7.652,35.32,5.239,46.956s-4.8,3.706-6.335-14.929S361.441,355.451,364.869,353.036Z" transform="translate(-352.797 -352.419)" fill="#d69f80"/>
              <path id="Path_11242" data-name="Path 11242" d="M371.685,404.421l.24,4.352-7.127.171L365,404.73Z" transform="translate(-353.049 -358.006)" fill="#edbeab"/>
              <path id="Path_11243" data-name="Path 11243" d="M363.229,409.352s-1.354,2.616-5.836,6.027-5.656,2.675-5.758,3.945,19.6.168,19.6.168l-.617-10.449S363.232,409.08,363.229,409.352Z" transform="translate(-351.635 -358.503)" fill="url(#linear-gradient-35)"/>
            </g>
          </g>
          <g id="Group_7475" data-name="Group 7475" transform="translate(28.646)">
            <path id="Path_11244" data-name="Path 11244" d="M392.944,308.969a5.913,5.913,0,0,1,7.158,4.892,38.673,38.673,0,0,1-.08,11.089c-1.613,11.768-.3,25.728-4.69,27.918s-9.6-4.219-10.226-15.719c-.568-10.394-2.84-23.243.085-25.434C386.672,310.6,390.01,309.645,392.944,308.969Z" transform="translate(-383.729 -308.817)" fill="#d69f80"/>
            <g id="Group_7474" data-name="Group 7474" transform="translate(4.907 38.918)">
              <path id="Path_11245" data-name="Path 11245" d="M391.639,353.036c8.711-6.139,7.652,35.32,5.239,46.956s-4.795,3.706-6.335-14.929S388.212,355.451,391.639,353.036Z" transform="translate(-389.227 -352.419)" fill="#d69f80"/>
              <path id="Path_11246" data-name="Path 11246" d="M398.188,405.889l.022,4.267-6.836.051.1-4.189Z" transform="translate(-389.457 -358.164)" fill="#edbeab"/>
            </g>
            <path id="Path_11247" data-name="Path 11247" d="M398.164,410.6s.1,2.4.274,3.324,1.953,5.243,1.61,5.586-8.84.273-9.525,0,.719-8.876.719-8.876Z" transform="translate(-384.439 -319.753)" fill="url(#linear-gradient-36)"/>
          </g>
        </g>
        <path id="Path_11248" data-name="Path 11248" d="M396.52,308.946s2.879,3.6,1.85,19.531c-1.168,18.112-1.645,24.466-1.645,25.8s-1.2,42.008-1.2,42.008-6.878.774-8.515-.634c-.857-.736-5.6-64.23-5.6-64.23s-7.257,14.855-7.949,20.7c-.434,3.665-.392,13.2-.274,22.41.133,10.422,1.234,18.914-.206,20.079-1.89,1.532-10.347.754-9.868,1.234s-3.6-34.745-2.262-50.164c1.571-18.127,8.772-35.773,8.772-35.773Z" transform="translate(-278.494 -239.329)" fill="url(#linear-gradient-37)"/>
        <path id="Path_11249" data-name="Path 11249" d="M375.47,263.85a4,4,0,0,1,1.411,3.952c-1.228,6.594-5.7,28.618-10.6,27.968-5.756-.765-.629-20.043,1.558-25.423C369.661,265.864,372.557,261.679,375.47,263.85Z" transform="translate(-278.823 -234.421)" fill="#edbeab"/>
        <path id="Path_11250" data-name="Path 11250" d="M381.7,259.539s-9.828.71-11.942,4.694c-1.782,3.358-5.021,15.5-5.021,15.5l9.3,2.467Z" transform="translate(-278.941 -234.021)" fill="url(#linear-gradient-38)"/>
        <g id="Group_7479" data-name="Group 7479" transform="translate(50.234 56.923)">
          <g id="Group_7477" data-name="Group 7477" transform="translate(3.231 1.196)">
            <path id="Path_11251" data-name="Path 11251" d="M363.645,304a4.281,4.281,0,0,1-3.739,1.163c-6.651-1.033-30.71-4.96-31.38-7.825-.777-3.325,34.217.74,34.986,2.374C364.11,300.981,365.2,302.395,363.645,304Z" transform="translate(-328.514 -296.064)" fill="#edbeab"/>
          </g>
          <g id="Group_7478" data-name="Group 7478">
            <path id="Path_11252" data-name="Path 11252" d="M333.14,296.382l-.086-.433,0-.006-.006,0-1.532-.866a2.744,2.744,0,0,0-1.282-.351l-1.944.437s-.334.515.8.554a2.192,2.192,0,0,1,1,.505l-1.117.111-2.713.475a1.617,1.617,0,0,0-1.354,1.649,2.033,2.033,0,0,0,1.538,1.456l1.766.578a6.125,6.125,0,0,0,2.632.179l2.512-.894Z" transform="translate(-324.894 -294.724)" fill="#edbeab"/>
          </g>
        </g>
        <path id="Path_11253" data-name="Path 11253" d="M391,258.617a29.07,29.07,0,0,1,4.435,1.034c2.493.807,5.15,2.144,5.365,4.208.411,3.958-2.6,13.721-2.6,40.039,0,2.314-27.876,3.141-27.72.737,1.165-17.956-1.542-37.95,1.3-40.776,2.724-2.707,5.756-4.215,10.742-4.472" transform="translate(-279.552 -233.922)" fill="url(#linear-gradient-39)"/>
        <g id="Group_7481" data-name="Group 7481" transform="translate(0 36.717)">
          <g id="Group_7480" data-name="Group 7480" transform="translate(88.916 34.569)">
            <path id="Path_11254" data-name="Path 11254" d="M372.175,310.816l-3.942.152,44.683,13.006a2.61,2.61,0,0,0,3.231-1.774l.41-1.406-1.2-.349-.41,1.406a1.36,1.36,0,0,1-1.685.926Z" transform="translate(-368.233 -310.816)" fill="url(#linear-gradient-40)"/>
          </g>
          <path id="Path_11255" data-name="Path 11255" d="M409.866,306.509,300.718,274.74l-8.317-2.1L289.3,283.3l8.143,2.695,109.149,31.77a1.129,1.129,0,0,0,1.4-.769l2.644-9.083A1.13,1.13,0,0,0,409.866,306.509Z" transform="translate(-270.836 -272.146)" fill="url(#linear-gradient-41)"/>
          <path id="Rectangle_1680" data-name="Rectangle 1680" d="M0,0H7.811a0,0,0,0,1,0,0V4.629a.659.659,0,0,1-.659.659H.659A.659.659,0,0,1,0,4.63V0A0,0,0,0,1,0,0Z" transform="translate(137.384 44.054) rotate(-73.772)" fill="url(#linear-gradient-42)"/>
          <path id="Path_11256" data-name="Path 11256" d="M271.389,272.3l-2.775-.219,2.459,1.305Z" transform="translate(-268.614 -272.086)" fill="#9fbccc"/>
          <path id="Path_11257" data-name="Path 11257" d="M290.5,272.659l-18.773-.491-.4,1.378,16.1,9.658Z" transform="translate(-268.905 -272.095)" fill="url(#linear-gradient-43)"/>
        </g>
        <path id="Path_11258" data-name="Path 11258" d="M383.565,254.666v4.814s.137,1.953,1.953,1.953,5.62-2.879,6.168-4.043-.24-1.764-.24-4.231v-2.738s4.626-7.333,1.542-11.685-12.011-1-12.267,2.4c-.484,6.437-.7,12.615.434,13.335A2.848,2.848,0,0,0,383.565,254.666Z" transform="translate(-280.616 -231.564)" fill="#edbeab"/>
        <path id="Path_11259" data-name="Path 11259" d="M391.182,249.8c-.19-.05,1.146-4.764.1-4.813-.823-.042-1.189,1.3-1.344,2.575-.421-.12-.935-.246-1.167-.3.535-2.245.683-5.185.049-5.924a2.272,2.272,0,0,0-2.023-.442c-1.2.137-2.346.552-3.537.735a4.362,4.362,0,0,1-3.668-.982c-2.14-1.975-2.152-5.9-.929-8.344a1.94,1.94,0,0,1,3.086-.925c1.133.706,1.984,1.733,3.051,2.514a8.485,8.485,0,0,0,3,1.4c1.1.265,2.3.04,3.344.538a4.787,4.787,0,0,1,2.034,1.7,5.407,5.407,0,0,1,.411.912,15.573,15.573,0,0,1,.63,3.478C394.573,245.575,391.365,249.86,391.182,249.8Z" transform="translate(-280.349 -230.949)" fill="url(#linear-gradient-44)"/>
        <path id="Path_11260" data-name="Path 11260" d="M402.945,264.866a3.9,3.9,0,0,1,2.7,3.065c1.268,6.4,5.168,27.927.507,29.106-5.479,1.385-7.8-17.891-7.763-23.543C398.42,268.783,399.528,263.955,402.945,264.866Z" transform="translate(-282.556 -234.581)" fill="#edbeab"/>
        <g id="Group_7482" data-name="Group 7482" transform="translate(88.258 56.607)">
          <path id="Path_11261" data-name="Path 11261" d="M404.1,298.437a4.449,4.449,0,0,1-3.006,2.83c-6.864,2.106-32.84,10.146-33.588,7.089-.617-2.518,32.837-15.1,34.372-13.907C403.069,295.373,404.8,296.2,404.1,298.437Z" transform="translate(-367.496 -294.371)" fill="#edbeab"/>
        </g>
        <path id="Path_11262" data-name="Path 11262" d="M405.515,281.594s1.679,14.888-1.267,17.32c-3.182,2.628-31.192,8.411-31.192,8.411l-1.472-3.553s24.628-10.409,24.937-10.82-.771-10.434-.771-10.434Z" transform="translate(-279.677 -236.39)" fill="#edbeab"/>
        <g id="Group_7483" data-name="Group 7483" transform="translate(84.818 66.978)">
          <path id="Path_11263" data-name="Path 11263" d="M370.952,306.785l-.216-.385v-.007h-.007l-1.724-.351a2.749,2.749,0,0,0-1.327.062l-1.714,1.017s-.159.594.931.281a2.19,2.19,0,0,1,1.1.172l-1.028.45-2.434,1.29a1.617,1.617,0,0,0-.778,1.986,2.029,2.029,0,0,0,1.912.91l1.858.005a6.105,6.105,0,0,0,2.559-.643l2.114-1.625Z" transform="translate(-363.642 -305.989)" fill="#edbeab"/>
        </g>
        <path id="Path_11264" data-name="Path 11264" d="M393.283,258.613s9.773.507,11.674,3.658,3.54,17.008,3.54,17.008l-10.622,1.08-1.027-6.168" transform="translate(-282.008 -233.921)" fill="url(#linear-gradient-45)"/>
      </g>
    </g>
    <g id="Group_7486" data-name="Group 7486" transform="translate(294.213 147.717)">
      <circle id="Ellipse_767" data-name="Ellipse 767" cx="23.852" cy="23.852" r="23.852" transform="translate(0 44.073) rotate(-67.5)" fill="url(#linear-gradient-18)"/>
      <path id="Path_11265" data-name="Path 11265" d="M345.7,188.968l3.164,8.321,25.9-10.933" transform="translate(-326.853 -160.466)" fill="none" stroke="#fff" stroke-linecap="round" stroke-linejoin="round" stroke-width="3.812"/>
    </g>
  </g>
</svg>
