<svg xmlns="http://www.w3.org/2000/svg" width="426" height="272.456" viewBox="0 0 426 272.456">
  <g id="Group_1864" data-name="Group 1864" transform="translate(-184.864 -145)">
    <path id="Path_4437" data-name="Path 4437" d="M247.867,416.966s-51.7-50.181-18.809-109.221,77.068-29.349,74.93-98.066,101.6-74.621,134.616-54.7,32.821,43.923,100.986,35.983,81.187,58.247,63.453,91.98c-25.161,47.861,69.833,39.967,9.976,134.02Z" transform="translate(-27.778)" fill="#ebf3fa"/>
    <g id="Group_1602" data-name="Group 1602" transform="translate(446.097 237.307)">
      <path id="Path_4438" data-name="Path 4438" d="M1779.87,818.108s10.985-46.561,48.045-51.681c0,0,7.21-.886,9.612,7.054s-11.936,8-20.8,11.191S1787.208,801.405,1779.87,818.108Z" transform="translate(-1778.839 -756.529)" fill="#aec3ff" opacity="0.3"/>
      <path id="Path_4439" data-name="Path 4439" d="M1773.787,759.244s-3.853-38.568,23.192-52.255c0,0,5.291-2.579,9.223,2.872s-7.037,9.272-12.985,14.054S1775.008,744.514,1773.787,759.244Z" transform="translate(-1773.598 -706.379)" fill="#aec3ff" opacity="0.3"/>
    </g>
    <rect id="Rectangle_403" data-name="Rectangle 403" width="426" height="1.17" rx="0.585" transform="translate(184.864 416.286)" fill="#2e3552"/>
    <path id="Path_4440" data-name="Path 4440" d="M553.625,1364.757c-5.722-13.037,15.032-24.239,15.032-24.239s27.348,8.852,31.275,6.424-21.9-12.134-21.9-12.134c6.373-6.236,30.812-11.95,30.812-11.95s16.485,22.749,19.693,19.429-15.624-19.4-15.624-19.4c8.305-3.381,20.834-.605,20.834-.605,18.04,6.423,8.86,29.257,8.86,29.257a45.669,45.669,0,0,0,17.569,12.684h0a33.17,33.17,0,0,1,5.622,2.618l-1.824,1.469c-.543-.369-1.088-.71-1.635-1.016a.014.014,0,0,0-.01-.006l-.024-.013c-.352-.181-.854-.437-1.472-.746h-.006c-1.435-.642-2.461-1.144-3.167-1.534l-.006,0c-4.427-2.079-10.425-4.6-12.782-4.247a4.537,4.537,0,0,0-.283-1.15l.283,1.15c2.266,9.2-12.443,22.89-22.576,28.11s-8.317-.286-6.841-8.037,12.132-14.6,13.773-18.5-3.852-2.044-9.29,3.071-3.667,13.247-12.313,21.682-29.968-3.433-29.968-3.433c8.082-3.2,16.8-16.107,15.453-18.7s-18.339,11.463-21.553,12.949S559.347,1377.794,553.625,1364.757Z" transform="translate(-307.293 -982.809)" fill="#cde0fb"/>
    <path id="Path_4441" data-name="Path 4441" d="M1649.717,1388.416c8.347-9.848-6.789-24.955-6.789-24.955s-26.058.613-28.842-2.513,22.176-4.875,22.176-4.875c-3.924-7.069-23.683-18.361-23.683-18.361s-20.214,15.5-22.143,11.787,18.6-12.813,18.6-12.813c-6.342-5.088-17.948-5.919-17.948-5.919-17.34.912-15.273,23.132-15.273,23.132a41.417,41.417,0,0,1-18.551,6.476h0a30.025,30.025,0,0,0-5.563.82l1.2,1.748c.567-.18,1.129-.335,1.684-.46a.013.013,0,0,1,.01,0l.024-.005c.353-.066.855-.159,1.472-.267h.005c1.414-.187,2.435-.358,3.15-.513l.006,0c4.385-.661,10.251-1.3,12.208-.382a4.116,4.116,0,0,1,.544-.927l-.544.927c-4.352,7.411,4.889,23.112,12.343,30.271s7.3,1.905,8.025-5.214-6.762-15.832-7.18-19.642,3.876-.779,7.278,5.074-.242,12.461,5.088,22.029,26.932,4.774,26.932,4.774c-6.2-4.874-10.433-18.347-8.59-20.247s12.969,14.708,15.379,16.831S1641.37,1398.265,1649.717,1388.416Z" transform="translate(-1142.089 -990.793)" fill="#cde0fb"/>
    <path id="Path_4442" data-name="Path 4442" d="M860.115,485.4c8.6-14.436,33.6-2.176,33.6-2.176s10.246,32.345,15.27,34.454-3.36-29.365-3.36-29.365c10.361,1.848,32.608,21.41,32.608,21.41s-10.554,31.436-5.166,32.242,7.925-28.311,7.925-28.311c8.943,5.662,14.866,19.6,14.866,19.6,6.2,21.737-22.035,28.573-22.035,28.573s-3.423,10.973-.142,25.577h0a39.093,39.093,0,0,1,1.339,7.2l-2.661-.745c-.018-.775-.064-1.531-.144-2.268a.016.016,0,0,0,0-.014c0-.011,0-.021,0-.032-.067-.463-.165-1.121-.292-1.925v0s0,0,0,0c-.367-1.82-.588-3.149-.7-4.1a.042.042,0,0,1,0-.009c-1.038-5.679-2.725-13.172-4.684-15.193a5.343,5.343,0,0,0,.911-1.061l-.911,1.061c-7.289,8.488-30.524,3.738-42.486-2.419s-5.428-8.187,3.032-12.084,22.35,1.643,27.218.549-.677-5.1-9.32-6.82-15.242,5.559-29.274,3.035-17.249-31.148-17.249-31.148c8.617,5.571,27,5.1,28.558,2.029s-23.587-9.761-27.218-11.831S851.512,499.839,860.115,485.4Z" transform="translate(-560.139 -278.555)" fill="#cde0fb" opacity="0.5"/>
    <g id="Group_1604" data-name="Group 1604" transform="translate(396.034 185.579)">
      <g id="Group_1603" data-name="Group 1603" transform="translate(0 0)">
        <path id="Path_4443" data-name="Path 4443" d="M1469.132,439.48a6.6,6.6,0,0,1,.5-2.587,6.048,6.048,0,0,1,1.412-2.057,6.487,6.487,0,0,1,2.194-1.357,8.079,8.079,0,0,1,2.889-.488,8.265,8.265,0,0,1,2.911.488,6.453,6.453,0,0,1,2.216,1.357,6.05,6.05,0,0,1,1.411,2.057,6.6,6.6,0,0,1,.5,2.587,6.447,6.447,0,0,1-.5,2.565,6.087,6.087,0,0,1-1.411,2.035,6.431,6.431,0,0,1-2.216,1.357,8.269,8.269,0,0,1-2.911.488,8.083,8.083,0,0,1-2.889-.488,6.465,6.465,0,0,1-2.194-1.357,6.086,6.086,0,0,1-1.412-2.035A6.447,6.447,0,0,1,1469.132,439.48Zm12.207-12.066h-10.426l-1.477-35.624h13.38Z" transform="translate(-1469.132 -391.789)" fill="#0f8faf"/>
      </g>
    </g>
    <g id="Group_1606" data-name="Group 1606" transform="translate(364.554 161.842)">
      <g id="Group_1605" data-name="Group 1605" transform="translate(0)">
        <path id="Path_4444" data-name="Path 4444" d="M1277.678,284.033a5.064,5.064,0,0,1,.383-1.985,4.645,4.645,0,0,1,1.083-1.578,4.978,4.978,0,0,1,1.684-1.041,6.2,6.2,0,0,1,2.217-.374,6.347,6.347,0,0,1,2.234.374,4.948,4.948,0,0,1,1.7,1.041,4.648,4.648,0,0,1,1.083,1.578,5.072,5.072,0,0,1,.383,1.985,4.951,4.951,0,0,1-.383,1.969,4.676,4.676,0,0,1-1.083,1.562,4.931,4.931,0,0,1-1.7,1.042,6.351,6.351,0,0,1-2.234.374,6.207,6.207,0,0,1-2.217-.374,4.961,4.961,0,0,1-1.684-1.042,4.672,4.672,0,0,1-1.083-1.562A4.943,4.943,0,0,1,1277.678,284.033Zm9.369-9.261h-8l-1.134-27.341h10.269Z" transform="translate(-1277.678 -247.431)" fill="#aec3ff"/>
      </g>
    </g>
    <g id="Group_1608" data-name="Group 1608" transform="translate(520 208.04)">
      <g id="Group_1607" data-name="Group 1607">
        <path id="Path_4445" data-name="Path 4445" d="M2223.052,564.992a5.064,5.064,0,0,1,.383-1.985,4.644,4.644,0,0,1,1.084-1.578,4.974,4.974,0,0,1,1.684-1.041,6.2,6.2,0,0,1,2.217-.374,6.339,6.339,0,0,1,2.233.374,4.943,4.943,0,0,1,1.7,1.041,4.65,4.65,0,0,1,1.083,1.578,5.073,5.073,0,0,1,.383,1.985,4.953,4.953,0,0,1-.383,1.969,4.677,4.677,0,0,1-1.083,1.562,4.933,4.933,0,0,1-1.7,1.041,6.339,6.339,0,0,1-2.233.374,6.2,6.2,0,0,1-2.217-.374,4.963,4.963,0,0,1-1.684-1.041,4.672,4.672,0,0,1-1.084-1.562A4.944,4.944,0,0,1,2223.052,564.992Zm9.369-9.261h-8l-1.134-27.341h10.269Z" transform="translate(-2223.052 -528.39)" fill="#aec3ff"/>
      </g>
    </g>
    <g id="Group_1610" data-name="Group 1610" transform="translate(475.575 277.55)">
      <g id="Group_1609" data-name="Group 1609" transform="translate(0 0)">
        <path id="Path_4446" data-name="Path 4446" d="M1979.7,1101.248a53.954,53.954,0,0,1-5.891,8.785h0c-2.237,2.67-4.526,4.7-6.458,5.386l-.015,0c-.1.035-.2.068-.3.094a.023.023,0,0,1-.015,0h0a3.519,3.519,0,0,1-1.123.144c-6.34-.285-13.022-13.885-13.022-13.885a4.835,4.835,0,0,1,1.407-2.751,5.7,5.7,0,0,1,1.9-1.253s6.828,7.012,8.5,7.517c1.049.316,2.428-4.58,4.4-10.73s8.922-7.666,8.922-7.666S1985.034,1091.349,1979.7,1101.248Z" transform="translate(-1952.871 -1064.575)" fill="#aec3ff"/>
        <path id="Path_4447" data-name="Path 4447" d="M2045.683,1203.207v0c-2.236,2.67-4.526,4.7-6.458,5.386l-.015.005-.3.094-.017,0h0a4.91,4.91,0,0,0,2.461-3.109c.332-2.034-1.82-3.7,3.587-6.843C2048.1,1196.913,2045.683,1203.207,2045.683,1203.207Z" transform="translate(-2024.75 -1157.751)" fill="#94b0ed"/>
        <path id="Path_4448" data-name="Path 4448" d="M2050.075,1753.409h14.859c1.065-.722-.287-7.781-.287-7.781s-4.056-1.539-4.756,1.591-5.166,4.121-7.527,4.5A2.543,2.543,0,0,0,2050.075,1753.409Z" transform="translate(-2034.092 -1614.673)" fill="#24406d"/>
        <path id="Path_4449" data-name="Path 4449" d="M2093.052,1324s-.468,8.669-1.054,18.713c-.422,7.2-.9,15.113-1.314,21.037-.055.786-.109,1.538-.161,2.248-.015.22-.032.438-.047.657a132.124,132.124,0,0,1-4.622,24.922c-4.178.88-6.065-.73-6.065-.73s-2.878-33.737-3.944-47.343c-.785-10.016-1.454-24.6-1.454-24.6Z" transform="translate(-2054.409 -1258.432)" fill="#ff9e55"/>
        <path id="Path_4450" data-name="Path 4450" d="M2132.56,1410.26c-.422,7.2-.9,15.113-1.314,21.038-2.731-6.443-8.311-31.554-8.311-31.554Z" transform="translate(-2094.971 -1325.978)" fill="#ed7d2b"/>
        <path id="Path_4451" data-name="Path 4451" d="M2184.1,1753.409h14.86c1.064-.722-.288-7.781-.288-7.781s-4.055-1.539-4.756,1.591-5.166,4.121-7.528,4.5A2.543,2.543,0,0,0,2184.1,1753.409Z" transform="translate(-2146.083 -1614.673)" fill="#24406d"/>
        <path id="Path_4452" data-name="Path 4452" d="M2098.939,1313.47s10.611,26.414,14,36.427c2.416,7.132,9.231,32.151,9.231,32.151a6.846,6.846,0,0,0,5.453-.842s2.536-25.562-2.586-32.769c-2.717-3.824-.675-39.751-11.691-40.059S2098.939,1313.47,2098.939,1313.47Z" transform="translate(-2074.921 -1249.625)" fill="#ff9e55"/>
        <path id="Path_4453" data-name="Path 4453" d="M2092.157,1112.838c-.045,3.756-.086,6.514-.077,7.211.03,2.272-1.423,2.786-2.921,3.132,0,0-1.384.3-3.13.594a34.467,34.467,0,0,1-5.229.559,47.172,47.172,0,0,1-13.687-2.253c-1.4,0-2.041-2.168-2.271-5.2-.155-2.049.477-22.486.557-27.589a13.321,13.321,0,0,1,2.625-7.536c5.2-4.6,20.556-4.021,23.318-.847.684.785.882,8.351.905,16.639C2092.263,1102.886,2092.208,1108.521,2092.157,1112.838Z" transform="translate(-2046.411 -1057.489)" fill="#aec3ff"/>
        <path id="Path_4454" data-name="Path 4454" d="M2132.578,1046.552c-1.959,2.124-8.542,1.809-8.348-.045.027-.228.07-1.586.091-1.8.017-.169.033-.334.046-.49.045-.457.081-.861.111-1.21.088-1.017.116-1.567.116-1.567h.006c.189-.053,4.422-1.255,6.527-1.753a3.391,3.391,0,0,1,1.167-.194C2131.649,1044.226,2133.22,1045.855,2132.578,1046.552Z" transform="translate(-2096.051 -1024.95)" fill="#ffb27d"/>
        <path id="Path_4455" data-name="Path 4455" d="M2132.635,1042.17s-1.768,1.8-6.873,1.925c.088-1.017.116-1.568.116-1.568h.006c.189-.053,4.422-1.255,6.527-1.753C2132.782,1040.927,2132.291,1041.914,2132.635,1042.17Z" transform="translate(-2097.334 -1026.033)" fill="#ed975d"/>
        <path id="Path_4456" data-name="Path 4456" d="M2114.17,984.321a15.97,15.97,0,0,0,2.94.686c2.41.325,5.578.134,6.574-2.782,1.676-4.907,3.818-7.85-1.116-9.854-2.641-1.073-4.332-1.13-5.479-.72a3.968,3.968,0,0,0-2.03,1.757C2114.1,974.91,2112.175,983.463,2114.17,984.321Z" transform="translate(-2086.92 -968.079)" fill="#ffb27d"/>
        <path id="Path_4457" data-name="Path 4457" d="M2120.949,952.655a2.328,2.328,0,0,0,.89,4.236,17.112,17.112,0,0,1,2.893.531c1.227.545,2.281,1.123,1.991,3.027-.1.647-.414,1.436,1.252,1.045a.812.812,0,0,1,.605.036c.691.41-.192,2.4-.459,2.828,0,0-.383,1.424.468,2.117.1.083,1.774.814,5.8-5.351a5.725,5.725,0,0,0,.259-5.246c-.977-2.1-3.7-4.753-8.833-4.753A9.786,9.786,0,0,0,2120.949,952.655Z" transform="translate(-2092.438 -951.124)" fill="#233862"/>
        <path id="Path_4458" data-name="Path 4458" d="M2205.633,1199.26c-.75,3.485-.56,3.521-1.709,2.607-4.687-3.724-3.316-5.676-2.276-8.9s-2.613-8.277,0-10.428c2.556-2.1,4.013,1.288,4.076,1.438C2205.739,1189.309,2205.685,1194.943,2205.633,1199.26Z" transform="translate(-2159.887 -1143.911)" fill="#94b0ed"/>
        <path id="Path_4459" data-name="Path 4459" d="M2186.849,1285.014s-1.766,2.888-2.924,2.787-2.721-.534-3.623.327-2.356,3.082-1.95,3.673,2.04.067,3.214-.581,3.022.319,4.008-.417a34.366,34.366,0,0,0,3.345-3.656Z" transform="translate(-2141.218 -1230.113)" fill="#ffb27d"/>
        <path id="Path_4460" data-name="Path 4460" d="M2210.025,1093.576s14.659,13.793,12.756,22.969c-.868,4.181-3.559,7.708-10.732,13.419,0,0-3.394-2.345-4.139-4.249,0,0,6.511-9.17,6.259-10.732-.308-1.911-4.752-6.7-6.347-7.449S2206.374,1095.177,2210.025,1093.576Z" transform="translate(-2165.093 -1070.153)" fill="#aec3ff"/>
        <path id="Path_4461" data-name="Path 4461" d="M2200.383,1296.588s-1.545-.676-2.042-.966-.386.179-.235.414a1.715,1.715,0,0,0,1.173.814A1.937,1.937,0,0,0,2200.383,1296.588Z" transform="translate(-2157.676 -1238.901)" fill="#ffb27d"/>
      </g>
    </g>
    <g id="Group_1612" data-name="Group 1612" transform="translate(243.091 273.68)">
      <path id="Path_4462" data-name="Path 4462" d="M609.135,959.173c-.53-1.022,11.563-4.7,11.754,5.385,0,0,22.653-.557,11.837-13.183-3.745-4.371-3.359-7.985-3.247-11.349s-2.332-13.143-10.717-12.158a6.244,6.244,0,0,0-4.936.528C607.594,931.628,593.634,962.893,609.135,959.173Z" transform="translate(-591.702 -927.59)" fill="#163560"/>
      <path id="Path_4463" data-name="Path 4463" d="M870.234,1162.43s1.475-2.244,2.663-2.289,3.389-.66,3.213-.22-1.54.484-1.672.748,2.025.66,2.641.7,2.068,0,2.025.308-2.618,1.584-4.434,1.408a12.325,12.325,0,0,0-4.061.528Z" transform="translate(-815.767 -1121.588)" fill="#ffb27d"/>
      <path id="Path_4464" data-name="Path 4464" d="M740.543,1089.31a22.1,22.1,0,0,0,2.255,3.411c1.752,2.194,4.454,4.73,7.846,5.23a8.42,8.42,0,0,0,4.661-.757h.005a21.256,21.256,0,0,0,7.218-6.034,3.387,3.387,0,0,0-.462-3.323s-8.319,1.871-9.111,1.475-5.663-11.2-6.54-13a9.866,9.866,0,0,0-4.824-4.923Z" transform="translate(-707.401 -1047.741)" fill="#aec3ff"/>
      <path id="Path_4465" data-name="Path 4465" d="M752.929,1178.737c1.752,2.194,4.454,4.729,7.846,5.23a8.425,8.425,0,0,0,4.661-.757c-.161.021-4.276.529-5.916-2.4-1.673-2.993-3.482-7.747-5.967-6.162C752.481,1175.328,752.529,1177.027,752.929,1178.737Z" transform="translate(-717.531 -1133.758)" fill="#94b0ed"/>
      <path id="Path_4466" data-name="Path 4466" d="M541.088,1720.929s-2.538,2.317-2.043,3.962,2.786,2.743,3.1,4.755,1.548,3.109,2.662,3.109h5.313s.82-1.416-1.161-1.842-2.728-2.791-2.6-4.985a38.669,38.669,0,0,0-.186-5.121l-4.21-.976Z" transform="translate(-538.981 -1589.564)" fill="#1d3356"/>
      <path id="Path_4467" data-name="Path 4467" d="M680.667,1732.485s-.913,9.814.2,10.362l14.262-.029s0-1.646-2.291-2.011-6.315-1.707-7-4.695S680.667,1732.485,680.667,1732.485Z" transform="translate(-657.076 -1600.137)" fill="#1d3356"/>
      <path id="Path_4468" data-name="Path 4468" d="M615.256,1076.706a56.729,56.729,0,0,0,0,6.591c.141,2.384,2.552,5.576,2.894,6.366.858,1.98,1.826,2.3,1.826,2.3l7.488,1.835,2.633.645,8.3-2.48s3.782-10.555,2.263-16.5a45.661,45.661,0,0,0-3.838-10.068s-5.629-2.221-15.6-.563Z" transform="translate(-602.635 -1041.756)" fill="#aec3ff"/>
      <path id="Path_4469" data-name="Path 4469" d="M629.066,1173.894a23.3,23.3,0,0,0,.7,5.393c.858,1.981,1.826,2.3,1.826,2.3l7.488,1.835,3.252-.956s-10.857-1.646-9.654-10.986Z" transform="translate(-614.254 -1131.38)" fill="#f2ccaa"/>
      <path id="Path_4470" data-name="Path 4470" d="M683.276,1242.691s4.112,12.8,4.376,17.156-7.86,61.9-8.187,63.909c-.308,1.893-2.658,3.1-2.658,3.1a3.555,3.555,0,0,1-2.624.2,6.49,6.49,0,0,1-2.817-1.328s-3.2-41.04-1.22-55.7a232.2,232.2,0,0,0,2-27.338Z" transform="translate(-648.039 -1190.88)" fill="#233862"/>
      <path id="Path_4471" data-name="Path 4471" d="M571.91,1240.371s-6.272,8.416-6.857,14.1-.917,25.671-2.163,31.217-5.823,16.219-5.823,33.516a3.451,3.451,0,0,0,1.945,1.519,16.068,16.068,0,0,0,1.71.473,2.689,2.689,0,0,0,3.007-1.427c3.094-6.23,12.951-26.324,13.456-30.495.358-2.952,3.47-22.488,10.258-33.951,1.63-2.752-1-13.7-1-13.7Z" transform="translate(-554.093 -1188.941)" fill="#2b478b"/>
      <path id="Path_4472" data-name="Path 4472" d="M660.894,1230.676a8.621,8.621,0,0,1-4.93,1.372c-3.917.079-13.622-1-13.622-1a8.022,8.022,0,0,0-.414,2.477s11.854,2.99,18.722.437A4.34,4.34,0,0,0,660.894,1230.676Z" transform="translate(-625.001 -1180.84)" fill="#233862"/>
      <g id="Group_1611" data-name="Group 1611" transform="translate(30.116 50.537)">
        <path id="Path_4473" data-name="Path 4473" d="M722.139,1236.965a1.8,1.8,0,1,1,1.787,2.023A1.918,1.918,0,0,1,722.139,1236.965Zm.592,0a1.214,1.214,0,1,0,1.195-1.43A1.33,1.33,0,0,0,722.731,1236.965Z" transform="translate(-722.139 -1234.942)" fill="#fff"/>
      </g>
      <path id="Path_4474" data-name="Path 4474" d="M571.586,1164.864l9.626,8.381a1.67,1.67,0,0,0,2.356-.162l12.282-14.1a1.669,1.669,0,0,0-.163-2.356l-9.625-8.382a1.67,1.67,0,0,0-2.356.163l-12.282,14.105A1.67,1.67,0,0,0,571.586,1164.864Z" transform="translate(-565.745 -1111.615)" fill="#f78248"/>
      <path id="Path_4475" data-name="Path 4475" d="M656.817,1244.992c.137.036,5.113.621,5.114,1.649a3.094,3.094,0,0,1-2.833,2.707c-.557-.031-3.124-2.391-3.124-2.391Z" transform="translate(-636.736 -1192.802)" fill="#ffb27d"/>
      <path id="Path_4476" data-name="Path 4476" d="M675.89,1033.893a16.557,16.557,0,0,0,.887-6.053l.376.074,6.321,1.252s-.144,1.989-.148,3.863c0,.016,0,.031,0,.047-.008,1.627,1.1,3.26-1.511,3.906C681.008,1037.181,674.7,1036.777,675.89,1033.893Z" transform="translate(-653.254 -1011.356)" fill="#ffb27d"/>
      <path id="Path_4477" data-name="Path 4477" d="M690.65,1029.542s-.144,1.99-.148,3.863c-3.537-.1-5.407-3.326-6.173-5.115Z" transform="translate(-660.43 -1011.732)" fill="#e8945b"/>
      <path id="Path_4478" data-name="Path 4478" d="M686.92,974.932s-8.369.138-8.375-5.075-1.09-8.706,4.254-9.015,6.383,1.68,6.808,3.419S689.1,974.762,686.92,974.932Z" transform="translate(-655.518 -955.348)" fill="#ffb27d"/>
      <path id="Path_4479" data-name="Path 4479" d="M672.936,954.844s-2.292,6.116-5.808,7.02-5.042-.038-5.042-.038a9.957,9.957,0,0,0,3.257-5.883S671.208,951.932,672.936,954.844Z" transform="translate(-641.844 -949.477)" fill="#163560"/>
      <path id="Path_4480" data-name="Path 4480" d="M724.618,958.18a5.192,5.192,0,0,1,2.4,1.874,8.426,8.426,0,0,1,1.131,4.786s1.726-4.157-.214-6.509C725.877,955.838,724.618,958.18,724.618,958.18Z" transform="translate(-694.094 -952.317)" fill="#163560"/>
      <path id="Path_4481" data-name="Path 4481" d="M661.105,1243.509a5.69,5.69,0,0,1,1.99-.271c.8.111,1.387-.016,1.387.207s-1.029.327-1.248.434A10.817,10.817,0,0,1,661.105,1243.509Z" transform="translate(-641.024 -1191.319)" fill="#ffb27d"/>
      <path id="Path_4482" data-name="Path 4482" d="M576.767,1067.964s-5.941.417-8.218,5.952-6.6,14.831-6.6,16.394,2.413,6.383,15.375,9.155c0,0,1.341-1.411,1.259-2.526,0,0-8.091-6.95-8.069-7.762.041-1.536,1.326-3.565,8.43-10.671C580.878,1076.575,576.767,1067.964,576.767,1067.964Z" transform="translate(-558.174 -1044.882)" fill="#aec3ff"/>
    </g>
    <g id="Group_1615" data-name="Group 1615" transform="translate(312.261 249.589)">
      <g id="Group_1614" data-name="Group 1614" transform="translate(0 0)">
        <path id="Path_4483" data-name="Path 4483" d="M1075.1,781.076h-64.2a5.855,5.855,0,0,0-4.14,1.715l-45.4,45.4a5.854,5.854,0,0,0-1.715,4.14v64.2a5.853,5.853,0,0,0,1.715,4.14l45.4,45.4a5.854,5.854,0,0,0,4.14,1.715h64.2a5.853,5.853,0,0,0,4.139-1.715l45.4-45.4a5.854,5.854,0,0,0,1.714-4.14v-64.2a5.855,5.855,0,0,0-1.714-4.14l-45.4-45.4A5.854,5.854,0,0,0,1075.1,781.076Z" transform="translate(-959.653 -781.076)" fill="#10b5df"/>
        <g id="Group_1613" data-name="Group 1613" transform="translate(8.345 8.345)">
          <path id="Path_4484" data-name="Path 4484" d="M1112.99,981.833h-55.166a8.359,8.359,0,0,1-5.949-2.464l-39.008-39.008a8.357,8.357,0,0,1-2.464-5.948V879.246a8.357,8.357,0,0,1,2.464-5.948l39.008-39.008a8.358,8.358,0,0,1,5.949-2.464h55.166a8.357,8.357,0,0,1,5.949,2.464l39.008,39.008a8.359,8.359,0,0,1,2.464,5.948v55.166a8.358,8.358,0,0,1-2.464,5.948l-39.008,39.008A8.357,8.357,0,0,1,1112.99,981.833Zm-55.166-144.287a2.674,2.674,0,0,0-1.9.789l-39.008,39.008a2.674,2.674,0,0,0-.789,1.9v55.166a2.674,2.674,0,0,0,.789,1.9l39.008,39.008a2.675,2.675,0,0,0,1.9.788h55.166a2.677,2.677,0,0,0,1.9-.788l39.008-39.008a2.677,2.677,0,0,0,.789-1.9V879.246a2.675,2.675,0,0,0-.789-1.9l-39.008-39.008a2.675,2.675,0,0,0-1.9-.789Z" transform="translate(-1010.403 -831.825)" fill="#ffe5d4"/>
        </g>
        <path id="Path_4485" data-name="Path 4485" d="M1362,1031.631l-1.124-.973a6.81,6.81,0,0,0-9.578.689l-6.348,7.331a1.5,1.5,0,0,1-2.628-.98h0a16.105,16.105,0,0,0-.093-1.721V989.822a5.528,5.528,0,0,0-5.511-5.512h-.407a5.528,5.528,0,0,0-5.511,5.512v30.04a1.32,1.32,0,0,1-1.32,1.32h0a1.458,1.458,0,0,1-1.457-1.458V984a5.343,5.343,0,0,0-5.327-5.327h-.776A5.343,5.343,0,0,0,1316.6,984v35.958a1.222,1.222,0,0,1-1.222,1.222h0a1.555,1.555,0,0,1-1.555-1.555V990.961a5.528,5.528,0,0,0-5.512-5.511h-.407a5.528,5.528,0,0,0-5.511,5.511v28.9a1.322,1.322,0,0,1-1.323,1.323h0a1.454,1.454,0,0,1-1.454-1.455V997.118a5.528,5.528,0,0,0-5.512-5.511h-.407a5.528,5.528,0,0,0-5.511,5.511v39.7c0,.11,0,.219.01.328-.006.185-.01.37-.01.556v21.85a16.194,16.194,0,0,0,16.147,16.146h21.85a16.17,16.17,0,0,0,13.579-7.438,34.181,34.181,0,0,1,2.862-3.864l20.073-23.184A6.81,6.81,0,0,0,1362,1031.631Z" transform="translate(-1234.162 -946.183)" fill="#ffe5d4"/>
      </g>
    </g>
  </g>
</svg>
