<svg xmlns="http://www.w3.org/2000/svg" xmlns:xlink="http://www.w3.org/1999/xlink" width="404.5" height="402.822" viewBox="0 0 404.5 402.822">
  <defs>
    <linearGradient id="linear-gradient" x1="0.3" y1="0.108" x2="0.553" y2="0.62" gradientUnits="objectBoundingBox">
      <stop offset="0.004" stop-color="#e38ddd"/>
      <stop offset="1" stop-color="#9571f6"/>
    </linearGradient>
    <linearGradient id="linear-gradient-2" x1="0.35" y1="0.316" x2="0.687" y2="0.751" xlink:href="#linear-gradient"/>
    <clipPath id="clip-path">
      <path id="Path_4493" data-name="Path 4493" d="M1366.947,821.461c-10.928-18.636-.324-49.67,12.656-67.839,15.155-21.212,27.468-16.375,37.97-33.789,19.554-32.423-15.107-62.49,2.019-96.751,14-28.009,42.479-18.543,56.572-50.266,10.17-22.89.23-38.821,15.648-55.828,1.318-1.454,15.757-16.93,33.294-14.127,17.7,2.829,28.2,22.625,31.639,36.292,6.352,25.264-10.5,33.359-13.958,66.071-4.712,44.536,23.729,55.894,13.482,87.971-8.463,26.487-29.809,24.852-38.608,54.406-8.171,27.445,7.266,38.828,0,56.765C1500.947,845.629,1389.236,859.472,1366.947,821.461Z" transform="translate(-1362.405 -502.522)" fill="url(#linear-gradient)"/>
    </clipPath>
    <clipPath id="clip-path-2">
      <path id="Path_4500" data-name="Path 4500" d="M1978.229,1212.872c-9.334-15.918-.276-42.427,10.812-57.947,12.945-18.12,23.463-13.988,32.434-28.863,16.7-27.7-12.905-53.378,1.725-82.644,11.959-23.924,36.285-15.839,48.324-42.936,8.687-19.553.2-33.161,13.366-47.688,1.126-1.242,13.46-14.461,28.44-12.067,15.118,2.417,24.09,19.326,27.025,31,5.426,21.58-8.967,28.494-11.923,56.437-4.024,38.042,20.27,47.744,11.517,75.143-7.228,22.625-25.461,21.228-32.978,46.473-6.979,23.443,6.207,33.167,0,48.488C2092.69,1233.516,1997.269,1245.341,1978.229,1212.872Z" transform="translate(-1974.35 -940.438)" fill="url(#linear-gradient-2)"/>
    </clipPath>
    <linearGradient id="linear-gradient-5" x1="0.366" y1="1.486" x2="0.46" y2="0.976" gradientUnits="objectBoundingBox">
      <stop offset="0" stop-color="#311944"/>
      <stop offset="1" stop-color="#893976"/>
    </linearGradient>
    <linearGradient id="linear-gradient-6" x1="0.56" y1="1.165" x2="0.511" y2="0.515" xlink:href="#linear-gradient-5"/>
    <clipPath id="clip-path-3">
      <path id="Path_4525" data-name="Path 4525" d="M1480.675,976.6l.572-1.537c8.812-23.643,10.014-44.994,3.572-63.459-7.99-22.905-24.673-33.679-42.336-45.085-2.93-1.892-5.96-3.849-8.9-5.84l-.563-.381.162-.661a26.456,26.456,0,0,0,.757-6.276,25.072,25.072,0,0,0-15.645-23.486,24.759,24.759,0,0,0-9.5,6.582l-.825.919-.7-1.015a68.234,68.234,0,0,1-8.446-16.623c-4.371-12.485-5.072-24.922-2.207-39.141l.158-.786,131.4.226c10.008.017,18.15,8.61,18.15,19.154V899.864c0,38.5-27.523,71.4-64.022,76.51Zm-45.441-117.164c2.75,1.85,5.574,3.674,8.311,5.441,17.162,11.084,34.909,22.544,43.121,46.084,6.453,18.5,5.438,39.765-3.015,63.229,34.729-5.712,60.717-37.365,60.717-74.327V799.193c0-9.468-7.267-17.184-16.2-17.2l-129.8-.223c-2.611,13.534-1.879,25.414,2.291,37.324a66.4,66.4,0,0,0,7.525,15.155,26.6,26.6,0,0,1,9.771-6.334l.338-.124.337.125a27.013,27.013,0,0,1,17.259,25.447A28.424,28.424,0,0,1,1435.234,859.437Zm82.917-85.722h-.015l-16.223-.05a4.652,4.652,0,0,1-.662.05h-.011l-17.431-.054a5.137,5.137,0,0,1-5-5.229V725.293a56.567,56.567,0,0,0-15.309-38.927,52.06,52.06,0,0,0-37.056-16.727l-22.636-.458a51.279,51.279,0,0,0-11.376,2.4l-.574.191-.427-.427c-8.528-8.539-19.766-16.171-33.4-22.684l-1.882-.9,1.9-.871a78.224,78.224,0,0,1,34.854-7.149l8.745.216a80.257,80.257,0,0,1,8.151-.216l33.59.83a79.7,79.7,0,0,1,56.494,25.728,86.391,86.391,0,0,1,23.243,59.274v42.957a5.252,5.252,0,0,1-1.536,3.752A4.836,4.836,0,0,1,1518.15,773.715Zm-16.382-2.005,16.373.051h.009a2.894,2.894,0,0,0,2.051-.863,3.312,3.312,0,0,0,.962-2.368V725.572a84.443,84.443,0,0,0-22.717-57.939,77.753,77.753,0,0,0-55.115-25.11l-33.589-.83a78.308,78.308,0,0,0-8,.215l-.05,0-8.845-.219a76.244,76.244,0,0,0-32.077,6.124c12.762,6.3,23.388,13.6,31.614,21.72a53.239,53.239,0,0,1,11.294-2.308l.055-.005,22.747.46a54,54,0,0,1,38.441,17.342,58.518,58.518,0,0,1,15.839,40.266v43.139a3.18,3.18,0,0,0,3.055,3.274l17.431.054a3.153,3.153,0,0,0,.446-.039Z" transform="translate(-1356.144 -639.715)" fill="#fff"/>
    </clipPath>
    <linearGradient id="linear-gradient-9" x1="-12.783" y1="-2.41" x2="-12.603" y2="2.649" gradientUnits="objectBoundingBox">
      <stop offset="0" stop-color="#311944"/>
      <stop offset="1" stop-color="#a03976"/>
    </linearGradient>
    <linearGradient id="linear-gradient-10" x1="-45.943" y1="1.152" x2="-46.065" y2="-5.07" gradientUnits="objectBoundingBox">
      <stop offset="0" stop-color="#ffc444"/>
      <stop offset="0.996" stop-color="#f36f56"/>
    </linearGradient>
    <linearGradient id="linear-gradient-11" x1="-9.74" y1="-1.485" x2="-9.455" y2="1.472" xlink:href="#linear-gradient-9"/>
    <linearGradient id="linear-gradient-12" x1="-16.003" y1="1.353" x2="-16.089" y2="-3.032" xlink:href="#linear-gradient-10"/>
    <linearGradient id="linear-gradient-13" x1="-6.756" y1="0.5" x2="-5.756" y2="0.5" gradientUnits="objectBoundingBox">
      <stop offset="0" stop-color="#444b8c"/>
      <stop offset="0.996" stop-color="#3e4177"/>
    </linearGradient>
    <linearGradient id="linear-gradient-14" x1="-7.258" y1="0.5" x2="-6.184" y2="0.5" xlink:href="#linear-gradient-13"/>
    <linearGradient id="linear-gradient-15" x1="-2.577" y1="0.5" x2="-1.577" y2="0.5" xlink:href="#linear-gradient-13"/>
    <linearGradient id="linear-gradient-16" x1="0.397" y1="1.247" x2="0.64" y2="0.017" gradientUnits="objectBoundingBox">
      <stop offset="0" stop-color="#0f8faf"/>
      <stop offset="1" stop-color="#10b5df"/>
    </linearGradient>
    <linearGradient id="linear-gradient-17" x1="-11.255" y1="1.122" x2="-11.255" y2="-0.088" xlink:href="#linear-gradient-10"/>
    <linearGradient id="linear-gradient-18" x1="8.554" y1="-23.525" x2="9.434" y2="-23.525" xlink:href="#linear-gradient-10"/>
    <linearGradient id="linear-gradient-19" x1="-30.183" y1="-10.612" x2="-30.848" y2="-12.828" xlink:href="#linear-gradient-13"/>
    <linearGradient id="linear-gradient-20" x1="-25.594" y1="1.73" x2="-24.474" y2="-0.567" xlink:href="#linear-gradient-10"/>
    <linearGradient id="linear-gradient-21" x1="0.297" y1="1.651" x2="0.592" y2="-0.103" xlink:href="#linear-gradient-16"/>
    <linearGradient id="linear-gradient-22" x1="0.342" y1="1.424" x2="0.594" y2="0" xlink:href="#linear-gradient-10"/>
    <linearGradient id="linear-gradient-23" x1="0.001" y1="-0.735" x2="0.756" y2="2.926" gradientUnits="objectBoundingBox">
      <stop offset="0" stop-color="#ab316d"/>
      <stop offset="1" stop-color="#792d3d"/>
    </linearGradient>
    <linearGradient id="linear-gradient-24" x1="0.191" y1="-2.078" x2="-0.333" y2="3.225" xlink:href="#linear-gradient-10"/>
    <linearGradient id="linear-gradient-25" x1="0.226" y1="-0.602" x2="-0.447" y2="0.977" xlink:href="#linear-gradient-10"/>
    <linearGradient id="linear-gradient-26" x1="-3.786" y1="-10.954" x2="-2.835" y2="-6.345" xlink:href="#linear-gradient-10"/>
    <linearGradient id="linear-gradient-27" x1="-9.345" y1="-13.702" x2="-8.098" y2="-10.653" xlink:href="#linear-gradient-10"/>
    <linearGradient id="linear-gradient-28" x1="-16.847" y1="3.788" x2="-17.629" y2="-3.871" gradientUnits="objectBoundingBox">
      <stop offset="0" stop-color="#444b8c"/>
      <stop offset="0.996" stop-color="#26264f"/>
    </linearGradient>
    <linearGradient id="linear-gradient-29" x1="-64.254" y1="2.667" x2="-64.254" y2="-7.099" xlink:href="#linear-gradient-10"/>
    <linearGradient id="linear-gradient-30" x1="-40.092" y1="2.211" x2="-40.092" y2="-7.544" xlink:href="#linear-gradient-10"/>
    <linearGradient id="linear-gradient-31" x1="-18.117" y1="1.325" x2="-19.094" y2="-2.713" xlink:href="#linear-gradient-28"/>
    <linearGradient id="linear-gradient-32" x1="-7.951" y1="0.102" x2="-8.121" y2="1.07" xlink:href="#linear-gradient-5"/>
    <linearGradient id="linear-gradient-34" x1="-3.665" y1="0.516" x2="-6.18" y2="0.483" xlink:href="#linear-gradient-5"/>
    <linearGradient id="linear-gradient-35" x1="-2.497" y1="1.443" x2="-1.911" y2="0.26" xlink:href="#linear-gradient-10"/>
    <linearGradient id="linear-gradient-36" x1="-1.338" y1="-0.656" x2="-0.873" y2="1.059" gradientUnits="objectBoundingBox">
      <stop offset="0" stop-color="#ff9085"/>
      <stop offset="1" stop-color="#fb6fbb"/>
    </linearGradient>
    <linearGradient id="linear-gradient-37" x1="-12.276" y1="0.36" x2="-12.927" y2="1.217" xlink:href="#linear-gradient-10"/>
    <linearGradient id="linear-gradient-38" x1="-2.959" y1="0.171" x2="-3.53" y2="1.131" xlink:href="#linear-gradient-28"/>
    <linearGradient id="linear-gradient-39" x1="-10.427" y1="0.851" x2="-9.989" y2="-1.509" gradientUnits="objectBoundingBox">
      <stop offset="0" stop-color="#aa80f9"/>
      <stop offset="0.996" stop-color="#6165d7"/>
    </linearGradient>
    <linearGradient id="linear-gradient-40" x1="-24.467" y1="0.147" x2="-25.572" y2="1.028" xlink:href="#linear-gradient-10"/>
    <linearGradient id="linear-gradient-41" x1="-5.248" y1="3.531" x2="-3.69" y2="0.734" xlink:href="#linear-gradient-10"/>
    <linearGradient id="linear-gradient-42" x1="-3.3" y1="1.016" x2="-2.759" y2="-0.054" xlink:href="#linear-gradient-28"/>
  </defs>
  <g id="Group_1641" data-name="Group 1641" transform="translate(-460.706 -455)">
    <path id="Path_4486" data-name="Path 4486" d="M557.945,479.212c-13.586,19.448,2.344,50.979-17.815,65.605-19.623,14.238-43.729-9.1-62.222,3.156-27.434,18.181-22.424,101.374,17.686,153.064,12.062,15.545,22.141,21.593,26.6,39.173,9.585,37.75-24.1,60.206-17.691,78.876C518.941,861.125,740.93,896.4,830,770.06c41.6-59.006,47.825-144.212,10.656-208.926C773.5,444.2,588.428,435.573,557.945,479.212Z" transform="translate(0)" fill="#f4f7fa"/>
    <g id="Group_1620" data-name="Group 1620" transform="translate(591.502 461.894)">
      <g id="Group_1619" data-name="Group 1619" transform="translate(0 0)">
        <path id="Path_4487" data-name="Path 4487" d="M1366.947,821.461c-10.928-18.636-.324-49.67,12.656-67.839,15.155-21.212,27.468-16.375,37.97-33.789,19.554-32.423-15.107-62.49,2.019-96.751,14-28.009,42.479-18.543,56.572-50.266,10.17-22.89.23-38.821,15.648-55.828,1.318-1.454,15.757-16.93,33.294-14.127,17.7,2.829,28.2,22.625,31.639,36.292,6.352,25.264-10.5,33.359-13.958,66.071-4.712,44.536,23.729,55.894,13.482,87.971-8.463,26.487-29.809,24.852-38.608,54.406-8.171,27.445,7.266,38.828,0,56.765C1500.947,845.629,1389.236,859.472,1366.947,821.461Z" transform="translate(-1362.405 -502.522)" fill="url(#linear-gradient)"/>
        <g id="Group_1618" data-name="Group 1618" clip-path="url(#clip-path)">
          <g id="Group_1617" data-name="Group 1617" transform="translate(19.121 -14.772)">
            <path id="Path_4488" data-name="Path 4488" d="M1494.442,822.109a.221.221,0,0,1-.023-.441,127.478,127.478,0,0,0,52.695-17.513c15.141-9.105,30.8-18.521,37.751-35.875,5.263-13.132,2.369-22.8-1.295-35.034-3.56-11.886-7.989-26.678-5.544-49.28,1.4-12.905,3.134-28.966,14.311-44.154,6.508-8.845,12.827-12.634,18.4-15.977,5.865-3.517,10.5-6.3,13.207-13.746,4.41-12.128,1.518-22.542-1.83-34.6-2.063-7.432-4.2-15.118-5.007-24.239-1.007-11.368.8-23.2,5.372-35.166,5.765-15.089,16.083-30.866,30.667-46.893a.221.221,0,0,1,.327.3c-14.547,15.986-24.836,31.716-30.582,46.753-4.548,11.9-6.345,23.668-5.344,34.969.8,9.081,2.933,16.747,4.992,24.16,3.368,12.133,6.278,22.61,1.82,34.871-2.763,7.6-7.69,10.552-13.4,13.974-5.54,3.322-11.817,7.087-18.274,15.86-11.106,15.092-12.836,31.087-14.227,43.94-2.436,22.513,1.979,37.258,5.527,49.105,3.688,12.319,6.6,22.05,1.282,35.325-7.01,17.492-22.731,26.947-37.934,36.089a127.917,127.917,0,0,1-52.875,17.574Z" transform="translate(-1494.221 -459.192)" fill="#fff" opacity="0.7" style="mix-blend-mode: soft-light;isolation: isolate"/>
            <path id="Path_4489" data-name="Path 4489" d="M2036.959,1077.3a.221.221,0,0,1-.2-.132c-15.293-34.622-17.7-61.422-17.02-77.808.733-17.772,5.153-27.487,5.2-27.583a.221.221,0,1,1,.4.186c-.044.1-4.432,9.751-5.159,27.446-.67,16.333,1.731,43.052,16.984,77.58a.221.221,0,0,1-.2.311Z" transform="translate(-1943.422 -888.826)" fill="#fff" opacity="0.7" style="mix-blend-mode: soft-light;isolation: isolate"/>
            <path id="Path_4490" data-name="Path 4490" d="M2068.18,1509.989a.221.221,0,0,1-.056-.435c19.436-5.159,36.173-13.408,49.747-24.521a106.487,106.487,0,0,0,26.364-31.892c11.3-20.9,12.209-39.287,12.217-39.47a.221.221,0,1,1,.441.019c-.008.185-.914,18.652-12.258,39.644a106.962,106.962,0,0,1-26.472,32.034c-13.625,11.157-30.422,19.438-49.925,24.614A.2.2,0,0,1,2068.18,1509.989Z" transform="translate(-1984.735 -1266.552)" fill="#fff" opacity="0.7" style="mix-blend-mode: soft-light;isolation: isolate"/>
            <path id="Path_4491" data-name="Path 4491" d="M1692.515,2047.344a.224.224,0,0,1-.144-.054c-14.513-12.5-25.934-26.214-33.948-40.764a111.608,111.608,0,0,1-12.653-36.264c-3.377-21.153,1.088-35.808,1.133-35.954a.221.221,0,0,1,.422.132c-.045.145-4.481,14.72-1.115,35.777a111.162,111.162,0,0,0,12.608,36.111c7.988,14.5,19.374,28.167,33.841,40.627a.221.221,0,0,1-.145.389Z" transform="translate(-1622.708 -1711.716)" fill="#fff" opacity="0.7" style="mix-blend-mode: soft-light;isolation: isolate"/>
            <path id="Path_4492" data-name="Path 4492" d="M2344.913,488.538a.221.221,0,0,1-.085-.425c14.077-5.956,25.787-14.245,34.8-24.639a85.841,85.841,0,0,0,16.4-28.746,90.988,90.988,0,0,0,4.92-33.8.221.221,0,0,1,.441-.04,91.5,91.5,0,0,1-4.942,33.982,86.3,86.3,0,0,1-16.48,28.893c-9.062,10.445-20.825,18.774-34.965,24.756A.22.22,0,0,1,2344.913,488.538Z" transform="translate(-2221.326 -400.688)" fill="#fff" opacity="0.7" style="mix-blend-mode: soft-light;isolation: isolate"/>
          </g>
        </g>
      </g>
    </g>
    <g id="Group_1624" data-name="Group 1624" transform="translate(680.268 525.416)">
      <g id="Group_1623" data-name="Group 1623" transform="translate(0 0)">
        <path id="Path_4494" data-name="Path 4494" d="M1978.229,1212.872c-9.334-15.918-.276-42.427,10.812-57.947,12.945-18.12,23.463-13.988,32.434-28.863,16.7-27.7-12.905-53.378,1.725-82.644,11.959-23.924,36.285-15.839,48.324-42.936,8.687-19.553.2-33.161,13.366-47.688,1.126-1.242,13.46-14.461,28.44-12.067,15.118,2.417,24.09,19.326,27.025,31,5.426,21.58-8.967,28.494-11.923,56.437-4.024,38.042,20.27,47.744,11.517,75.143-7.228,22.625-25.461,21.228-32.978,46.473-6.979,23.443,6.207,33.167,0,48.488C2092.69,1233.516,1997.269,1245.341,1978.229,1212.872Z" transform="translate(-1974.35 -940.438)" fill="url(#linear-gradient-2)"/>
        <g id="Group_1622" data-name="Group 1622" clip-path="url(#clip-path-2)">
          <g id="Group_1621" data-name="Group 1621" transform="translate(16.301 -12.65)">
            <path id="Path_4495" data-name="Path 4495" d="M2086.945,1213.269a.221.221,0,0,1-.023-.441,108.863,108.863,0,0,0,45-14.955c12.929-7.775,26.3-15.815,32.234-30.628,4.491-11.207,2.02-19.458-1.108-29.9-3.041-10.156-6.826-22.794-4.736-42.107,1.192-11.027,2.677-24.751,12.229-37.732,5.564-7.56,10.964-10.8,15.729-13.656,5.005-3,8.958-5.372,11.268-11.725,3.764-10.349,1.294-19.241-1.565-29.536-1.762-6.35-3.586-12.917-4.277-20.711-1.944-21.937,8.417-45.528,30.793-70.118a.221.221,0,0,1,.327.3c-22.291,24.495-32.612,47.973-30.679,69.781.687,7.754,2.5,14.3,4.262,20.632,2.879,10.369,5.365,19.323,1.554,29.806-2.363,6.5-6.577,9.027-11.456,11.953-4.729,2.836-10.088,6.05-15.6,13.539-9.481,12.885-10.958,26.543-12.146,37.517-2.079,19.224,1.691,31.815,4.72,41.933,3.153,10.529,5.644,18.845,1.095,30.2-5.992,14.951-19.425,23.029-32.415,30.842a109.3,109.3,0,0,1-45.18,15.016Z" transform="translate(-2086.724 -903.205)" fill="#fff" opacity="0.7" style="mix-blend-mode: soft-light;isolation: isolate"/>
            <path id="Path_4496" data-name="Path 4496" d="M2550.356,1431.247a.22.22,0,0,1-.2-.131c-13.065-29.579-15.118-52.477-14.54-66.477.627-15.187,4.405-23.491,4.443-23.573a.221.221,0,1,1,.4.186c-.038.082-3.785,8.326-4.4,23.436-.572,13.948,1.48,36.763,14.5,66.25a.22.22,0,0,1-.113.291A.211.211,0,0,1,2550.356,1431.247Z" transform="translate(-2470.426 -1270.194)" fill="#fff" opacity="0.7" style="mix-blend-mode: soft-light;isolation: isolate"/>
            <path id="Path_4497" data-name="Path 4497" d="M2577.024,1800.849a.221.221,0,0,1-.056-.434c16.6-4.4,30.889-11.449,42.48-20.937a90.954,90.954,0,0,0,22.512-27.231c9.652-17.851,10.426-33.547,10.432-33.7a.224.224,0,0,1,.23-.211.222.222,0,0,1,.212.23c-.007.157-.782,15.939-10.477,33.876a91.362,91.362,0,0,1-22.619,27.373c-11.643,9.533-25.994,16.609-42.657,21.032A.231.231,0,0,1,2577.024,1800.849Z" transform="translate(-2505.715 -1592.844)" fill="#fff" opacity="0.7" style="mix-blend-mode: soft-light;isolation: isolate"/>
            <path id="Path_4498" data-name="Path 4498" d="M2256.137,2259.852a.225.225,0,0,1-.145-.053c-12.4-10.679-22.158-22.4-29.006-34.83a95.358,95.358,0,0,1-10.811-30.987c-2.886-18.076.93-30.6.969-30.725a.221.221,0,1,1,.422.131c-1.336,4.275-3.251,16.163-.95,30.549a94.926,94.926,0,0,0,10.766,30.834c6.822,12.38,16.543,24.051,28.9,34.692a.221.221,0,0,1-.145.389Z" transform="translate(-2196.476 -1973.097)" fill="#fff" opacity="0.7" style="mix-blend-mode: soft-light;isolation: isolate"/>
            <path id="Path_4499" data-name="Path 4499" d="M2813.408,928.337a.221.221,0,0,1-.086-.425,80.045,80.045,0,0,0,29.716-21.038,73.264,73.264,0,0,0,14-24.543,77.7,77.7,0,0,0,4.2-28.858.222.222,0,0,1,.441-.04,78.19,78.19,0,0,1-4.225,29.04,73.719,73.719,0,0,1-14.082,24.691,80.484,80.484,0,0,1-29.88,21.155A.209.209,0,0,1,2813.408,928.337Z" transform="translate(-2707.81 -853.232)" fill="#fff" opacity="0.7" style="mix-blend-mode: soft-light;isolation: isolate"/>
          </g>
        </g>
      </g>
    </g>
    <g id="Group_1633" data-name="Group 1633" transform="translate(520.597 481.794)">
      <g id="Group_1627" data-name="Group 1627" transform="translate(0 0.978)">
        <g id="Group_1625" data-name="Group 1625">
          <path id="Path_4501" data-name="Path 4501" d="M1235.625,778.5l-17.431-.054a4.154,4.154,0,0,1-4.03-4.252V731.054c0-30.68-23.757-56.032-53.322-56.63l-33.59-.68c-30.189-.61-54.883,24.348-54.883,55.753v44.157a4.268,4.268,0,0,1-4.229,4.326l-18.421-.057a4.326,4.326,0,0,1-4.26-4.371V729.2c0-46.8,36.89-83.832,81.793-82.723l33.59.83c43.766,1.081,78.785,38.695,78.785,84.026v42.956A4.1,4.1,0,0,1,1235.625,778.5Z" transform="translate(-1020.528 -646.455)" fill="url(#linear-gradient-5)"/>
          <path id="Path_4502" data-name="Path 4502" d="M1098.715,1611.738l-206.635-.356a18.661,18.661,0,0,0-18.491,18.853V1735c0,42.541,33.684,75.995,74.734,74.736l96.888-2.968c39.241-1.2,70.679-35.3,70.679-76.183v-100.67C1115.89,1619.892,1108.213,1611.754,1098.715,1611.738Zm-81.906,142.948-39.44.864,10.479-46.617a25.961,25.961,0,0,1-16.11-24.33c0-14.583,11.4-26.472,25.414-26.555,13.946-.083,25.2,11.574,25.2,26.036a26.642,26.642,0,0,1-15.928,24.584Z" transform="translate(-873.589 -1471.414)" fill="url(#linear-gradient-6)"/>
        </g>
        <g id="Group_1626" data-name="Group 1626" transform="translate(16.896)">
          <path id="Path_4503" data-name="Path 4503" d="M1352.1,778.5l-17.431-.054a4.155,4.155,0,0,1-4.03-4.252V731.054c0-30.68-23.757-56.032-53.323-56.63l-33.59-.68c-30.189-.61-54.883,24.348-54.883,55.753v44.157a4.268,4.268,0,0,1-4.228,4.326l-18.421-.057a4.326,4.326,0,0,1-4.26-4.371V729.2c0-46.8,36.889-83.832,81.793-82.723l33.589.83c43.766,1.081,78.785,38.695,78.785,84.026v42.956A4.1,4.1,0,0,1,1352.1,778.5Z" transform="translate(-1137.006 -646.455)" fill="#10b5df"/>
          <path id="Path_4504" data-name="Path 4504" d="M1215.194,1611.738l-206.635-.356a18.661,18.661,0,0,0-18.491,18.853V1735c0,42.541,33.684,75.995,74.734,74.736l96.888-2.968c39.24-1.2,70.678-35.3,70.678-76.183v-100.67C1232.368,1619.892,1224.691,1611.754,1215.194,1611.738Zm-81.906,142.948-39.44.864,10.48-46.617a25.961,25.961,0,0,1-16.111-24.33c0-14.583,11.4-26.472,25.414-26.555,13.946-.083,25.2,11.574,25.2,26.036a26.641,26.641,0,0,1-15.928,24.584Z" transform="translate(-990.067 -1471.414)" fill="#10b5df"/>
        </g>
        <path id="Path_4505" data-name="Path 4505" d="M1682.814,2116.006l-10.48,46.617,39.439-.863-9.858-43.706c-13.479-10-25.9-18.621-34.9-30.532a27.6,27.6,0,0,0-.317,4.154A25.96,25.96,0,0,0,1682.814,2116.006Z" transform="translate(-1551.657 -1878.488)" fill="none"/>
        <path id="Path_4506" data-name="Path 4506" d="M1703.78,1986.022l-.522-2.312a26.64,26.64,0,0,0,15.928-24.583c0-14.462-11.258-26.119-25.2-26.037-12.652.075-23.176,9.78-25.1,22.4C1677.881,1967.4,1690.3,1976.023,1703.78,1986.022Z" transform="translate(-1553.522 -1746.456)" fill="none"/>
        <path id="Path_4507" data-name="Path 4507" d="M1161.938,731.768v44.35a4.327,4.327,0,0,0,4.26,4.371l18.421.057a4.268,4.268,0,0,0,4.229-4.326V732.064c0-31.4,24.694-56.363,54.883-55.753l4.188.085a114.326,114.326,0,0,0-14.407-26.939C1193.365,653.7,1161.938,688.571,1161.938,731.768Z" transform="translate(-1120.112 -649.022)" fill="#fff" opacity="0.48" style="mix-blend-mode: soft-light;isolation: isolate"/>
        <path id="Path_4508" data-name="Path 4508" d="M1123.428,1710.981l9.859,43.705-39.44.864,10.479-46.617a25.961,25.961,0,0,1-16.11-24.33,27.575,27.575,0,0,1,.317-4.154,66.641,66.641,0,0,1-11.695-24.782c-4.1-16.612-1.773-30.746,3.018-44.162l-71.3-.123a18.661,18.661,0,0,0-18.491,18.853V1735c0,42.541,33.684,75.995,74.734,74.736l96.888-2.968a69.381,69.381,0,0,0,28.638-7.17,172.631,172.631,0,0,0-13.986-31.991C1160.422,1739.444,1141.026,1724.036,1123.428,1710.981Z" transform="translate(-973.171 -1471.414)" fill="#fff" opacity="0.48" style="mix-blend-mode: soft-light;isolation: isolate"/>
      </g>
      <path id="Path_4509" data-name="Path 4509" d="M1417.348,673.966a52.153,52.153,0,0,0-11.649,2.45c-9.5-9.514-21.327-16.979-33.671-22.875a77.622,77.622,0,0,1,34.423-7.06l8.794.218a78.817,78.817,0,0,1,8.1-.218l33.589.83c43.766,1.081,78.785,38.694,78.785,84.026v42.956a4.1,4.1,0,0,1-4,4.209l-16.3-.051a3.831,3.831,0,0,1-.6.051l-17.431-.054a4.154,4.154,0,0,1-4.03-4.251V731.056c0-30.681-23.757-56.033-53.322-56.631Zm124.4,112.814-130.6-.225c-2.418,12-2.728,24.63,2.171,38.625a67.668,67.668,0,0,0,8.326,16.389,25.616,25.616,0,0,1,10.229-6.973,25.95,25.95,0,0,1,16.621,24.531,27.372,27.372,0,0,1-.785,6.508c20.033,13.557,42.123,24.208,51.613,51.413,7.572,21.706,3.781,44.374-3.579,64.122,35.671-5,63.18-37.3,63.18-75.542V804.956C1558.924,794.934,1551.247,786.8,1541.749,786.779Z" transform="translate(-1299.726 -645.478)" fill="#0f8faf"/>
      <g id="Group_1632" data-name="Group 1632" transform="translate(69.997 0)">
        <path id="Path_4510" data-name="Path 4510" d="M1480.675,976.6l.572-1.537c8.812-23.643,10.014-44.994,3.572-63.459-7.99-22.905-24.673-33.679-42.336-45.085-2.93-1.892-5.96-3.849-8.9-5.84l-.563-.381.162-.661a26.456,26.456,0,0,0,.757-6.276,25.072,25.072,0,0,0-15.645-23.486,24.759,24.759,0,0,0-9.5,6.582l-.825.919-.7-1.015a68.234,68.234,0,0,1-8.446-16.623c-4.371-12.485-5.072-24.922-2.207-39.141l.158-.786,131.4.226c10.008.017,18.15,8.61,18.15,19.154V899.864c0,38.5-27.523,71.4-64.022,76.51Zm-45.441-117.164c2.75,1.85,5.574,3.674,8.311,5.441,17.162,11.084,34.909,22.544,43.121,46.084,6.453,18.5,5.438,39.765-3.015,63.229,34.729-5.712,60.717-37.365,60.717-74.327V799.193c0-9.468-7.267-17.184-16.2-17.2l-129.8-.223c-2.611,13.534-1.879,25.414,2.291,37.324a66.4,66.4,0,0,0,7.525,15.155,26.6,26.6,0,0,1,9.771-6.334l.338-.124.337.125a27.013,27.013,0,0,1,17.259,25.447A28.424,28.424,0,0,1,1435.234,859.437Zm82.917-85.722h-.015l-16.223-.05a4.652,4.652,0,0,1-.662.05h-.011l-17.431-.054a5.137,5.137,0,0,1-5-5.229V725.293a56.567,56.567,0,0,0-15.309-38.927,52.06,52.06,0,0,0-37.056-16.727l-22.636-.458a51.279,51.279,0,0,0-11.376,2.4l-.574.191-.427-.427c-8.528-8.539-19.766-16.171-33.4-22.684l-1.882-.9,1.9-.871a78.224,78.224,0,0,1,34.854-7.149l8.745.216a80.257,80.257,0,0,1,8.151-.216l33.59.83a79.7,79.7,0,0,1,56.494,25.728,86.391,86.391,0,0,1,23.243,59.274v42.957a5.252,5.252,0,0,1-1.536,3.752A4.836,4.836,0,0,1,1518.15,773.715Zm-16.382-2.005,16.373.051h.009a2.894,2.894,0,0,0,2.051-.863,3.312,3.312,0,0,0,.962-2.368V725.572a84.443,84.443,0,0,0-22.717-57.939,77.753,77.753,0,0,0-55.115-25.11l-33.589-.83a78.308,78.308,0,0,0-8,.215l-.05,0-8.845-.219a76.244,76.244,0,0,0-32.077,6.124c12.762,6.3,23.388,13.6,31.614,21.72a53.239,53.239,0,0,1,11.294-2.308l.055-.005,22.747.46a54,54,0,0,1,38.441,17.342,58.518,58.518,0,0,1,15.839,40.266v43.139a3.18,3.18,0,0,0,3.055,3.274l17.431.054a3.153,3.153,0,0,0,.446-.039Z" transform="translate(-1356.144 -639.715)" fill="#fff"/>
        <g id="Group_1631" data-name="Group 1631" clip-path="url(#clip-path-3)">
          <g id="Group_1628" data-name="Group 1628" transform="translate(-54.079 0)">
            <path id="Path_4511" data-name="Path 4511" d="M1548.869,2025.838l10.573-47.033a26.823,26.823,0,0,1-15.954-24.919c0-15.095,11.837-27.446,26.386-27.532a25.456,25.456,0,0,1,18.175,7.493,27.879,27.879,0,0,1-7.764,44.673l10.467,46.4Zm21.158-97.53h-.141c-13.478.08-24.443,11.554-24.443,25.577a24.846,24.846,0,0,0,15.493,23.422l.777.307-10.389,46.214,37-.811-10.3-45.647.75-.32a25.91,25.91,0,0,0,7.9-41.819A23.481,23.481,0,0,0,1570.028,1928.308Z" transform="translate(-1462.234 -1739.72)" fill="#fff"/>
            <path id="Path_4512" data-name="Path 4512" d="M1346.355,773.716h-.016l-17.431-.054a5.136,5.136,0,0,1-5-5.229V725.294a56.568,56.568,0,0,0-15.309-38.927,52.059,52.059,0,0,0-37.056-16.727l-33.59-.68a51.574,51.574,0,0,0-37.393,14.927,55.258,55.258,0,0,0-16.493,39.848v44.157a5.318,5.318,0,0,1-1.565,3.8,5.108,5.108,0,0,1-3.627,1.507h-.016l-18.421-.057a5.31,5.31,0,0,1-5.234-5.349v-44.35a84.367,84.367,0,0,1,25.323-60.99,78.95,78.95,0,0,1,57.472-22.71l33.589.83a79.7,79.7,0,0,1,56.494,25.728,86.389,86.389,0,0,1,23.244,59.274V768.53a5.251,5.251,0,0,1-1.536,3.752A4.837,4.837,0,0,1,1346.355,773.716ZM1236.882,667c.369,0,.737,0,1.107.011l33.59.679a54,54,0,0,1,38.441,17.342,58.519,58.519,0,0,1,15.839,40.266v43.139a3.181,3.181,0,0,0,3.055,3.274l17.431.054h.009a2.9,2.9,0,0,0,2.051-.863,3.313,3.313,0,0,0,.962-2.368V725.574a84.442,84.442,0,0,0-22.717-57.939,77.756,77.756,0,0,0-55.115-25.11l-33.589-.83a77,77,0,0,0-56.059,22.155,82.429,82.429,0,0,0-24.733,59.591v44.35a3.352,3.352,0,0,0,3.285,3.394l18.421.057a3.139,3.139,0,0,0,2.258-.937,3.377,3.377,0,0,0,.99-2.412V723.736a57.2,57.2,0,0,1,17.08-41.244A53.523,53.523,0,0,1,1236.882,667Z" transform="translate(-1130.269 -639.717)" fill="#fff"/>
            <path id="Path_4513" data-name="Path 4513" d="M1056.792,1804.987a71.961,71.961,0,0,1-50.448-20.521,76.149,76.149,0,0,1-23.015-55.227V1624.474a19.876,19.876,0,0,1,5.844-14.173,19.129,19.129,0,0,1,13.593-5.657h.033l206.635.355c10.008.017,18.15,8.61,18.15,19.154v100.671a78.648,78.648,0,0,1-20.884,53.634,71.878,71.878,0,0,1-50.742,23.525l-96.888,2.969Q1057.93,1804.987,1056.792,1804.987ZM1002.766,1606.6a17.189,17.189,0,0,0-12.212,5.086,17.937,17.937,0,0,0-5.27,12.79v104.764a74.208,74.208,0,0,0,22.421,53.824A70.043,70.043,0,0,0,1059.011,1803l96.888-2.969a69.937,69.937,0,0,0,49.367-22.9,76.7,76.7,0,0,0,20.364-52.306V1624.154c0-9.468-7.267-17.184-16.2-17.2L1002.8,1606.6Zm84.093,144.2,10.574-47.033a26.822,26.822,0,0,1-15.954-24.918c0-15.1,11.837-27.445,26.386-27.532a25.46,25.46,0,0,1,18.175,7.492,27.879,27.879,0,0,1-7.763,44.673l10.467,46.4Zm21.158-97.529h-.141c-13.478.08-24.443,11.554-24.443,25.577a24.846,24.846,0,0,0,15.492,23.422l.778.307-10.389,46.213,37-.81-10.3-45.648.751-.319a25.911,25.911,0,0,0,7.9-41.819A23.483,23.483,0,0,0,1108.017,1653.264Z" transform="translate(-983.329 -1464.676)" fill="#fff"/>
            <path id="Path_4514" data-name="Path 4514" d="M1143.2,1876.729h0a57.463,57.463,0,0,1-41.456-17.588,61.872,61.872,0,0,1-17.357-43.5V1710.876a4.991,4.991,0,0,1,4.777-5.17l206.643.355c1.7,0,3.516,1.81,3.516,4.494v100.671c0,33.5-25.757,61.537-57.416,62.507l-96.889,2.968C1144.419,1876.72,1143.808,1876.729,1143.2,1876.729Zm-54.037-169.068a3.041,3.041,0,0,0-2.821,3.215v104.764a59.929,59.929,0,0,0,16.8,42.137,55.574,55.574,0,0,0,41.816,16.97l96.888-2.968c30.615-.938,55.521-28.1,55.521-60.553V1710.556c0-1.525-.942-2.538-1.565-2.54Z" transform="translate(-1069.732 -1551.078)" fill="#fff"/>
            <path id="Path_4515" data-name="Path 4515" d="M1416.829,852.14h-1.955V799.162a64.086,64.086,0,0,0-64.013-64.014h-36.648a64.086,64.086,0,0,0-64.013,64.014V852.14h-1.955V799.162a66.043,66.043,0,0,1,65.969-65.968h36.648a66.043,66.043,0,0,1,65.969,65.968Z" transform="translate(-1209.816 -719.635)" fill="#fff"/>
            <path id="Path_4516" data-name="Path 4516" d="M2328.669,1803.224l-1.759-.853,12.118-25V1626.4l-4.76-14.164,1.854-.623,4.861,14.466v151.738Z" transform="translate(-2132.017 -1470.636)" fill="#fff"/>
            <path id="Path_4517" data-name="Path 4517" d="M2038.843,1807.759l-1.805-.747,5.789-13.991v-166l-2.911-14.217,1.914-.393,2.953,14.411v166.588Z" transform="translate(-1884.192 -1471.315)" fill="#fff"/>
            <path id="Path_4518" data-name="Path 4518" d="M1214.034,1841.86H985.482v-1.955h228.061l14.337-7.7.925,1.722Z" transform="translate(-985.17 -1659.227)" fill="#fff"/>
            <path id="Path_4519" data-name="Path 4519" d="M1214.034,2201.214H985.482v-1.956h228.061l14.337-7.7.925,1.722Z" transform="translate(-985.17 -1966.454)" fill="#fff"/>
            <path id="Path_4520" data-name="Path 4520" d="M985.4,2531.656l-.035-1.954,224.262-4,17.2-8.6.874,1.749-17.6,8.8-.222,0Z" transform="translate(-985.067 -2244.771)" fill="#fff"/>
          </g>
          <rect id="Rectangle_404" data-name="Rectangle 404" width="1.954" height="16.686" transform="matrix(0.029, -1, 1, 0.029, 78.711, 210.458)" fill="#fff"/>
          <rect id="Rectangle_405" data-name="Rectangle 405" width="16.125" height="1.955" transform="translate(72.388 194.822)" fill="#fff"/>
          <rect id="Rectangle_406" data-name="Rectangle 406" width="1.955" height="15.429" transform="translate(78.505 219.653) rotate(-79.046)" fill="#fff"/>
          <g id="Group_1629" data-name="Group 1629" transform="translate(-0.037 -20.878)" opacity="0.4">
            <path id="Path_4521" data-name="Path 4521" d="M1366.947,821.461c-10.928-18.636-.324-49.67,12.656-67.839,15.155-21.212,27.468-16.375,37.97-33.789,19.554-32.423-15.107-62.49,2.019-96.751,14-28.009,42.479-18.543,56.572-50.266,10.17-22.89.23-38.821,15.648-55.828,1.318-1.454,15.757-16.93,33.294-14.127,17.7,2.829,28.2,22.625,31.639,36.292,6.352,25.264-10.5,33.359-13.958,66.071-4.712,44.536,23.729,55.894,13.482,87.971-8.463,26.487-29.809,24.852-38.608,54.406-8.171,27.445,7.266,38.828,0,56.765C1500.947,845.629,1389.236,859.472,1366.947,821.461Z" transform="translate(-1361.46 -501.545)" fill="url(#linear-gradient)"/>
            <path id="Path_4522" data-name="Path 4522" d="M1420.6,838.95c-24.239,0-50.173-5.89-60.063-22.756-10.693-18.236-1.435-49.11,12.7-68.9,7.879-11.029,15.1-15.185,21.48-18.852,6.145-3.535,11.451-6.587,16.448-14.873,9.743-16.155,5.782-31.527,1.589-47.8-4.021-15.6-8.178-31.736.393-48.882,6.873-13.749,17.329-18.746,27.439-23.579,10.784-5.155,21.935-10.485,29.114-26.646,4.375-9.846,4.959-18.244,5.524-26.365.713-10.233,1.385-19.9,10.293-29.724,1.612-1.779,16.277-17.3,34.172-14.435,19.021,3.04,29.337,24.7,32.434,37.019,3.644,14.492-.271,23.675-4.8,34.308-3.575,8.385-7.626,17.889-9.129,32.1-2.323,21.952,3.532,35.826,8.7,48.066,5.361,12.7,9.99,23.67,4.742,40.1-4.169,13.052-11.557,19.542-18.7,25.819-7.587,6.666-15.433,13.56-19.9,28.569-4.257,14.3-1.982,24.217.023,32.969,1.788,7.8,3.477,15.167-.054,23.884-4.312,10.644-15.008,20.1-30.933,27.353-14.415,6.563-32.327,10.9-50.434,12.223C1428.036,838.809,1424.335,838.949,1420.6,838.95Zm94.643-341.213c-14.982,0-26.861,12.588-28.273,14.145-8.453,9.324-9.073,18.232-9.791,28.547-.55,7.9-1.174,16.862-5.688,27.023-7.473,16.82-18.954,22.308-30.059,27.616-10.264,4.907-19.96,9.541-26.532,22.689-8.245,16.493-4.181,32.266-.25,47.521,4.11,15.949,8.36,32.441-1.807,49.3-5.258,8.719-11.033,12.041-17.147,15.558-6.505,3.742-13.232,7.612-20.864,18.294a98.414,98.414,0,0,0-15.138,33.4c-2.226,9.462-3.594,22.934,2.528,33.376,8.1,13.812,29.747,21.819,57.8,21.82q5.573,0,11.464-.426c31.84-2.32,70.361-15.313,79.7-38.361,3.3-8.146,1.752-14.9-.04-22.713-2.06-8.987-4.395-19.173.009-33.963,4.629-15.549,12.69-22.631,20.485-29.48,7.263-6.381,14.123-12.409,18.128-24.945,5.029-15.741.529-26.4-4.681-38.744-5.258-12.458-11.218-26.578-8.842-49.032,1.534-14.506,5.647-24.153,9.276-32.665,4.576-10.733,8.189-19.211,4.707-33.065-2.98-11.855-12.831-32.686-30.846-35.566A26.25,26.25,0,0,0,1515.239,497.737Z" transform="translate(-1355.888 -495.783)" fill="#fff"/>
          </g>
          <g id="Group_1630" data-name="Group 1630" transform="translate(88.727 42.644)" opacity="0.4">
            <path id="Path_4523" data-name="Path 4523" d="M1978.229,1212.872c-9.334-15.918-.276-42.427,10.812-57.947,12.945-18.12,23.463-13.988,32.434-28.863,16.7-27.7-12.905-53.378,1.725-82.644,11.959-23.924,36.285-15.839,48.324-42.936,8.687-19.553.2-33.161,13.366-47.688,1.126-1.242,13.46-14.461,28.44-12.067,15.118,2.417,24.09,19.326,27.025,31,5.426,21.58-8.967,28.494-11.923,56.437-4.024,38.042,20.27,47.744,11.517,75.143-7.228,22.625-25.461,21.228-32.978,46.473-6.979,23.443,6.207,33.167,0,48.488C2092.69,1233.516,1997.269,1245.341,1978.229,1212.872Z" transform="translate(-1973.403 -939.461)" fill="url(#linear-gradient-2)"/>
            <path id="Path_4524" data-name="Path 4524" d="M2023.238,1227.115c-20.748,0-42.956-5.05-51.435-19.508-9.164-15.629-1.245-42.068,10.859-59.01,6.748-9.446,12.935-13,18.393-16.144,5.231-3.01,9.75-5.609,14-12.655,8.292-13.748,4.915-26.851,1.34-40.722-3.44-13.353-7-27.16.347-41.854,5.892-11.788,14.846-16.067,23.5-20.206,9.188-4.392,18.688-8.933,24.8-22.69,3.726-8.387,4.225-15.548,4.707-22.472.61-8.767,1.187-17.046,8.829-25.476,1.382-1.525,13.954-14.831,29.318-12.375,16.319,2.609,25.165,21.17,27.819,31.727,3.124,12.426-.229,20.29-4.111,29.4-3.049,7.153-6.506,15.261-7.788,27.382-1.98,18.715,3.014,30.547,7.42,40.987,4.59,10.875,8.555,20.267,4.055,34.351-3.574,11.187-9.9,16.744-16.016,22.118-6.465,5.681-13.151,11.555-16.957,24.337-3.625,12.177-1.687,20.631.022,28.089,1.533,6.685,2.98,13-.053,20.487-3.7,9.127-12.859,17.233-26.5,23.441-12.329,5.613-27.646,9.326-43.13,10.454C2029.6,1226.995,2026.435,1227.115,2023.238,1227.115Zm80.836-291.46c-12.736,0-22.843,10.711-24.045,12.036-7.187,7.928-7.714,15.514-8.326,24.3-.471,6.763-1,14.428-4.87,23.13-6.4,14.416-16.236,19.115-25.745,23.66-8.745,4.18-17.006,8.129-22.6,19.316-7.019,14.041-3.554,27.488-.2,40.493,3.517,13.652,7.155,27.768-1.559,42.219-4.511,7.479-9.46,10.326-14.7,13.339-5.543,3.189-11.276,6.486-17.777,15.586a83.92,83.92,0,0,0-12.908,28.479c-1.9,8.057-3.062,19.526,2.145,28.405,6.891,11.753,25.335,18.567,49.247,18.568q4.758,0,9.788-.364c27.155-1.979,60-13.049,67.956-32.68,2.8-6.917,1.484-12.662-.041-19.316-1.764-7.694-3.763-16.414.01-29.084,3.966-13.321,10.867-19.384,17.54-25.247,6.189-5.438,12.035-10.574,15.444-21.244,4.279-13.4.445-22.479-3.994-33-4.5-10.657-9.6-22.736-7.564-41.953,1.313-12.412,4.831-20.663,7.935-27.942,3.9-9.144,6.977-16.365,4.013-28.153-2.538-10.093-10.917-27.826-26.231-30.274A22.279,22.279,0,0,0,2104.075,935.655Z" transform="translate(-1967.82 -933.701)" fill="#fff"/>
          </g>
        </g>
      </g>
      <path id="Path_4526" data-name="Path 4526" d="M1581.224,774.913h-.015l-17.431-.054a4.892,4.892,0,0,1-4.76-4.985V726.736a56.81,56.81,0,0,0-15.375-39.094,52.3,52.3,0,0,0-37.229-16.8l-33.59-.68a51.644,51.644,0,0,0-17.4,2.626l-.463-1.391a53.1,53.1,0,0,1,17.9-2.7l33.59.68a53.759,53.759,0,0,1,38.268,17.265,58.277,58.277,0,0,1,15.772,40.1v43.139a3.425,3.425,0,0,0,3.3,3.519l17.431.054h.009a3.137,3.137,0,0,0,2.224-.935,3.553,3.553,0,0,0,1.033-2.541V727.016A84.686,84.686,0,0,0,1561.7,668.91a78,78,0,0,0-55.288-25.187l-33.589-.83a77.138,77.138,0,0,0-42.14,11.266l-.763-1.252a78.577,78.577,0,0,1,42.938-11.48l33.59.83a79.455,79.455,0,0,1,56.321,25.651,86.143,86.143,0,0,1,23.178,59.107v42.956a5.01,5.01,0,0,1-1.464,3.579A4.592,4.592,0,0,1,1581.224,774.913Z" transform="translate(-1349.22 -641.158)" fill="#fff"/>
      <path id="Path_4527" data-name="Path 4527" d="M1726.409,1803.306l-.2-1.452c35.658-5,62.548-37.161,62.548-74.818V1626.364c0-9.6-7.377-17.428-16.443-17.443l-130.6-.225,0-1.466,130.6.225c9.874.016,17.907,8.5,17.907,18.909v100.672C1790.22,1765.42,1762.787,1798.21,1726.409,1803.306ZM1692.1,1695.891l-1.223-.807a26.332,26.332,0,0,0,4.342-14.549,25.589,25.589,0,0,0-7.508-18.309,23.7,23.7,0,0,0-16.959-6.995,24.5,24.5,0,0,0-18.006,8.229l-1.091-.979a25.967,25.967,0,0,1,19.089-8.717h.151a25.177,25.177,0,0,1,17.85,7.421,27.045,27.045,0,0,1,7.939,19.348A27.792,27.792,0,0,1,1692.1,1695.891Z" transform="translate(-1530.29 -1466.887)" fill="#fff"/>
      <circle id="Ellipse_132" data-name="Ellipse 132" cx="4.946" cy="4.946" r="4.946" transform="translate(217.049 182.665) rotate(-45)" fill="#fff"/>
      <circle id="Ellipse_133" data-name="Ellipse 133" cx="4.946" cy="4.946" r="4.946" transform="translate(218.369 159.461) rotate(-80.783)" fill="#fff"/>
      <circle id="Ellipse_134" data-name="Ellipse 134" cx="4.946" cy="4.946" r="4.946" transform="translate(218.369 237.617) rotate(-80.783)" fill="#fff"/>
      <circle id="Ellipse_135" data-name="Ellipse 135" cx="4.946" cy="4.946" r="4.946" transform="translate(218.094 288.067) rotate(-76.718)" fill="#fff"/>
      <circle id="Ellipse_136" data-name="Ellipse 136" cx="4.946" cy="4.946" r="4.946" transform="translate(216.152 127.541) rotate(-76.718)" fill="#fff"/>
      <circle id="Ellipse_137" data-name="Ellipse 137" cx="3.134" cy="3.134" r="3.134" transform="translate(172.113 178.574)" fill="#fff"/>
      <circle id="Ellipse_138" data-name="Ellipse 138" cx="3.134" cy="3.134" r="3.134" transform="matrix(0.16, -0.987, 0.987, 0.16, 171.652, 158.389)" fill="#fff"/>
      <circle id="Ellipse_139" data-name="Ellipse 139" cx="3.134" cy="3.134" r="3.134" transform="matrix(0.924, -0.383, 0.383, 0.924, 171.152, 231.831)" fill="#fff"/>
      <circle id="Ellipse_140" data-name="Ellipse 140" cx="3.134" cy="3.134" r="3.134" transform="translate(218.721 84.196) rotate(-4.731)" fill="#fff"/>
      <circle id="Ellipse_141" data-name="Ellipse 141" cx="3.134" cy="3.134" r="3.134" transform="translate(209.645 43.301)" fill="#fff"/>
      <path id="Path_4528" data-name="Path 4528" d="M2130.014,760.6a3.134,3.134,0,1,1-3.134-3.133A3.134,3.134,0,0,1,2130.014,760.6Z" transform="translate(-1942.405 -740.383)" fill="#fff"/>
      <circle id="Ellipse_142" data-name="Ellipse 142" cx="3.134" cy="3.134" r="3.134" transform="translate(134.913 10.813)" fill="#fff"/>
      <circle id="Ellipse_143" data-name="Ellipse 143" cx="4.946" cy="4.946" r="4.946" transform="translate(201.883 72.323) rotate(-76.718)" fill="#fff"/>
    </g>
    <g id="Group_1634" data-name="Group 1634" transform="translate(476.312 672.797)">
      <path id="Path_4529" data-name="Path 4529" d="M1562.824,2152.058a.41.41,0,0,1-.41-.41V1990.036a.41.41,0,0,1,.82,0v161.612A.41.41,0,0,1,1562.824,2152.058Z" transform="translate(-1418.212 -1984.817)" fill="#d8dee8"/>
      <path id="Path_4530" data-name="Path 4530" d="M1262.663,2117.886a.411.411,0,0,1-.41-.41V1961.941a.41.41,0,0,1,.821,0v155.535A.41.41,0,0,1,1262.663,2117.886Z" transform="translate(-1161.591 -1960.797)" fill="#d8dee8"/>
      <path id="Path_4531" data-name="Path 4531" d="M568.706,2139.3a.4.4,0,0,1-.14-.025.409.409,0,0,1-.245-.525l58.2-160.372a.41.41,0,1,1,.771.279l-58.2,160.372A.41.41,0,0,1,568.706,2139.3Z" transform="translate(-568.297 -1974.972)" fill="#97a6b7"/>
      <path id="Path_4532" data-name="Path 4532" d="M864.918,2174.47a.429.429,0,0,1-.121-.017.411.411,0,0,1-.271-.514l52.237-169.084a.41.41,0,0,1,.783.243l-52.237,169.084A.41.41,0,0,1,864.918,2174.47Z" transform="translate(-821.54 -1997.59)" fill="#97a6b7"/>
      <path id="Path_4533" data-name="Path 4533" d="M1011.714,1963.245l43.677,3.232v.982l-49.916,2.237-37.309-4.572v-.982Z" transform="translate(-910.163 -1962.262)" fill="#d8dee8"/>
      <path id="Path_4534" data-name="Path 4534" d="M1011.714,1956.472l43.677,4.215-49.916,2.238-37.309-4.571Z" transform="translate(-910.163 -1956.472)" fill="#fff"/>
      <path id="Path_4535" data-name="Path 4535" d="M697.712,2854.559a.386.386,0,0,1-.1-.015l-41.588-10.909a.41.41,0,0,1,.208-.793l41.588,10.91a.41.41,0,0,1-.1.807Z" transform="translate(-643.034 -2714.257)" fill="#97a6b7"/>
      <path id="Path_4536" data-name="Path 4536" d="M783.484,2612.408a.511.511,0,0,1-.072-.006l-40.814-7.227a.411.411,0,0,1,.143-.809l40.814,7.228a.41.41,0,0,1-.071.813Z" transform="translate(-717.025 -2510.381)" fill="#97a6b7"/>
      <path id="Path_4537" data-name="Path 4537" d="M875.669,2352.644a.393.393,0,0,1-.053,0l-39.5-5.091a.41.41,0,1,1,.1-.812l39.5,5.091a.41.41,0,0,1-.052.817Z" transform="translate(-796.962 -2290.123)" fill="#97a6b7"/>
      <path id="Path_4538" data-name="Path 4538" d="M943.7,2159.407a.477.477,0,0,1-.064,0L906.5,2153.59a.41.41,0,1,1,.127-.81l37.139,5.812a.41.41,0,0,1-.063.815Z" transform="translate(-857.141 -2124.3)" fill="#97a6b7"/>
    </g>
    <g id="Group_1638" data-name="Group 1638" transform="translate(526.376 486.868)">
      <path id="Path_4539" data-name="Path 4539" d="M1380.763,1925.248s11.158,5.072,11.341,5.881-7.176-.271-10.18-.155-5.475-.771-5.2-2.043,1.324-4.473,1.324-4.473Z" transform="translate(-1309.5 -1743.174)" fill="url(#linear-gradient-9)"/>
      <path id="Path_4540" data-name="Path 4540" d="M1383.133,1897.986l-.679,5.023a3.937,3.937,0,0,1-2.953-.115l-.506-5.51Z" transform="translate(-1311.462 -1720.028)" fill="url(#linear-gradient-10)"/>
      <path id="Path_4541" data-name="Path 4541" d="M1035.365,1902.359l-1.3,2.083a2.485,2.485,0,0,0-.3,1.949c.454,1.732,1.36,5.109,1.756,5.989.538,1.2,7.76,1.912,7.76,1.912s.644-.906-.856-2-2.462-1.266-2.992-2.882a42.322,42.322,0,0,1-.882-6.184Z" transform="translate(-1016.244 -1724.28)" fill="url(#linear-gradient-11)"/>
      <path id="Path_4542" data-name="Path 4542" d="M1048.135,1862.328c-.474.377-2.793,7.417-2.793,7.417s-.751.96-2.177-.457-.646-.636-.646-.636l.268-6.923Z" transform="translate(-1023.612 -1689.544)" fill="url(#linear-gradient-12)"/>
      <path id="Path_4543" data-name="Path 4543" d="M1293.1,1164.53c.589,14.987.613,31.269-.25,48.663-.971,19.588-2.922,37.692-5.381,54.1-.914.029-1.875.034-2.878.006q-1.017-.028-1.969-.1a124.553,124.553,0,0,1-4.135-13.223,127.121,127.121,0,0,1-2.886-15.483c-2.149-16.975.369-18.455-1.375-31.035-1.544-11.141-3.74-11.576-6.319-27.394-2.8-17.163-.715-19.738.3-20.668C1272.521,1155.443,1282.648,1158.138,1293.1,1164.53Z" transform="translate(-1215.293 -1087.508)" fill="url(#linear-gradient-13)"/>
      <path id="Path_4544" data-name="Path 4544" d="M1268.21,1159.416c4.112-3.777,13.516-1.49,23.448,4.274-11.426,12.345-12.672,20.354-11.3,25.55,1.548,5.873,6.255,7.565,6.237,13.987-.022,7.892-7.145,9.982-6.993,18.333.1,5.522,3.23,5.465,3.969,12.285.874,8.07-3.214,10.851-1.89,16.822.57,2.569,2.2,5.925,6.827,9.383-.334,2.452-.676,4.879-1.033,7.26-.913.029-1.874.034-2.877.006q-1.016-.028-1.969-.1a124.59,124.59,0,0,1-4.135-13.223,127.263,127.263,0,0,1-2.887-15.484c-2.148-16.974.37-18.455-1.374-31.035-1.545-11.142-3.741-11.577-6.319-27.4C1265.115,1162.921,1267.2,1160.346,1268.21,1159.416Z" transform="translate(-1215.293 -1087.522)" opacity="0.3" fill="url(#linear-gradient-14)" style="mix-blend-mode: multiply;isolation: isolate"/>
      <path id="Path_4545" data-name="Path 4545" d="M1080.5,1154.929a336.544,336.544,0,0,0-46.134,98.741,6.012,6.012,0,0,1-3.294.511,6.128,6.128,0,0,1-3.731-2.016,96.921,96.921,0,0,1-.855-23.9,82.351,82.351,0,0,1,3.36-17.961c2.717-8.761,4.584-9.253,8.127-18.522,3.678-9.621,2.788-12.022,6.31-24.062a158.852,158.852,0,0,1,7.866-21.11Z" transform="translate(-1009.763 -1078.159)" fill="url(#linear-gradient-15)"/>
      <path id="Path_4546" data-name="Path 4546" d="M1231,799.637c-1.892,2.943-8.4,2.6-12.852,1.008-10.4-3.719-17.055-16.944-17.641-27.469-.126-2.26-.046-4.469-.5-4.536-1.152-.169-4.11,13.494-6.432,25.078a15.708,15.708,0,0,1-7.932.879c-5.294-.867-5.924-4.156-11.844-6.3-3.454-1.251-6.839-1.254-13.608-1.26-7.642-.007-7.853.936-9.325.252a7.718,7.718,0,0,1-.677-.425c-5.442-3.907,10.126-33.6,5.644-61-.5-3.045-1.262-6.172.439-9.22,4.4-7.877,21.766-8.988,32.528-3.8a89.34,89.34,0,0,1,12.3,7.806c1.764,1.309,3.6,2.775,5.51,4.446,4.64,4.052,7.87,6.874,10.531,10.789,10.731,15.789-1.671,28.948,8.064,49.14C1228.548,791.964,1232.978,796.555,1231,799.637Z" transform="translate(-1114.84 -704.596)" fill="url(#linear-gradient-16)"/>
      <path id="Path_4547" data-name="Path 4547" d="M1418.763,711.9a25.84,25.84,0,0,1-5.8,4.817c-2.714,1.485-8.7-1.017-10.081-1.311s.276,3.433,2.888,6,11.243,8.444,13.57,8.542-.375-1.94-1.8-4.314.585-7.282,2.389-8.794S1418.763,711.9,1418.763,711.9Z" transform="translate(-1331.461 -706.506)" fill="url(#linear-gradient-17)"/>
      <path id="Path_4548" data-name="Path 4548" d="M1693.728,1283.338a30.265,30.265,0,0,0,7.116-1.321c2.675-1.036,4.322.644,4.041,1.756s-4.673,2.522-6.409,2.517S1693.728,1283.338,1693.728,1283.338Z" transform="translate(-1580.541 -1193.644)" fill="url(#linear-gradient-18)"/>
      <g id="Group_1635" data-name="Group 1635" transform="translate(84.659 0)">
        <path id="Path_4549" data-name="Path 4549" d="M1511.531,682.575c3.17-.24,6.374-4.145,5.727-5.849-.185-.487-.6-.564-6.8-1.587-3.082-.508-4.623-.717-5.687.135a4.06,4.06,0,0,0-1.317,2.323,10.243,10.243,0,0,0-.01,2.307c.069,1.1.048,1.049.077,1.373a14.223,14.223,0,0,0,1.039,4.045,9.89,9.89,0,0,1,1.263-1.169,8.775,8.775,0,0,1,1.922-1.133A9.9,9.9,0,0,1,1511.531,682.575Z" transform="translate(-1502.467 -674.697)" fill="url(#linear-gradient-19)"/>
        <path id="Path_4550" data-name="Path 4550" d="M1497.99,709.163a5.372,5.372,0,0,0,3,4.365c2.56,1.193,5.956-4.151,5.021-6.191a3.554,3.554,0,0,0-2.266-1.65c-.584-.135-.872-.019-1.822-.259-.876-.222-1.046-.425-1.385-.357-.423.085-.962.567-1.366,2.452-.21-.735-.675-1.229-1.18-1.259a.963.963,0,0,0-.5.141C1496.795,706.848,1496.931,707.973,1497.99,709.163Z" transform="translate(-1497.06 -700.654)" fill="url(#linear-gradient-20)"/>
      </g>
      <path id="Path_4551" data-name="Path 4551" d="M930.635,774.321c-4.285-2.1-13.536-7.479-16.38-17.389-4.735-16.5,12.106-32.23,20.8-38.118,9.968-6.75,19.985-7.84,26.073-8.5,7.552-.822,12.162-1.323,15.624,1.512,8.954,7.333,3.572,31.53-5.292,34.021-2.9.815-4-1.307-10.08-2.772-1.98-.477-16.759-4.037-24.444,3.78-5.379,5.471-6.066,15.278-2.268,24.445Z" transform="translate(-913.431 -704.596)" fill="url(#linear-gradient-21)"/>
      <path id="Path_4552" data-name="Path 4552" d="M1038,1140.875l2.269-1.7a5.417,5.417,0,0,0,3.163.851,4.093,4.093,0,0,1,2.49.8c.283.3,1.6,1.024-.287.835s-2.195.338-1.931,1.283a12.443,12.443,0,0,0,2.644,4.158c.8.567-1.5.946-2.443.6a6.094,6.094,0,0,1-3.56-3.024C1039.939,1143.926,1038,1140.875,1038,1140.875Z" transform="translate(-1019.928 -1071.798)" fill="url(#linear-gradient-22)"/>
      <g id="Group_1637" data-name="Group 1637" transform="translate(24.618 34.12)">
        <path id="Path_4553" data-name="Path 4553" d="M1255.281,961.229l0-.007c-.034-.121-.074-.241-.12-.36-.012-.032-.026-.063-.038-.1-.039-.093-.082-.185-.128-.275-.017-.034-.034-.067-.052-.1-.065-.118-.135-.235-.212-.349l-4.553-6.6a3.99,3.99,0,0,0-3.267-1.732l-79.451.143a45.327,45.327,0,0,0-25.55-25.886l-.038-.016q-.453-.183-.91-.355l-.1-.038q-.466-.175-.936-.341l-.025-.009q-.982-.345-1.983-.646l-.136-.04q-.412-.122-.827-.238l-.221-.06q-.392-.107-.786-.207l-.206-.052q-.988-.245-1.992-.448l-.191-.037q-.4-.078-.794-.149l-.3-.052q-.354-.061-.711-.117l-.31-.048q-.388-.057-.777-.108l-.227-.031q-.5-.064-1.011-.116l-.178-.017q-.413-.042-.829-.076l-.335-.025q-.344-.025-.688-.046l-.362-.02q-.353-.018-.708-.03l-.322-.012c-.34-.01-.681-.017-1.024-.019-24.144-.16-42.987,18.61-41.783,41.926s21.974,41.874,46.089,41.456q.512-.009,1.021-.03l.32-.015q.353-.016.7-.038l.359-.024q.343-.025.685-.054l.332-.029q.412-.038.821-.084l.177-.019q.5-.058,1-.127l.224-.033c.256-.037.512-.075.766-.117l.3-.051c.235-.04.468-.081.7-.125l.291-.054q.393-.076.782-.159l.183-.038q.983-.213,1.947-.469l.2-.053q.387-.1.77-.216l.211-.062q.408-.12.809-.249l.125-.039q.972-.313,1.92-.668l.016-.006q.458-.172.91-.354l.087-.035q.444-.18.882-.369l.029-.012a39.807,39.807,0,0,0,22.866-26.146l13.723-.122,2.432-1.842-2.646-2.286,6.8-.052.213,4.12,3.387-.03,2.432-1.842-2.645-2.274,3.9-.03.212,4.111,5.445-.048,2.433-1.842-2.533-.1,6.976-.058.1,1.939,3.091-.027-.195-3.765,8.269-.064.194,3.756,6.338-.056,2.432-1.842-2.643-2.233,6.749-.052.21,4.067,7.822-.07a3.64,3.64,0,0,0,2.452-.961l10.624-9.859A3.608,3.608,0,0,0,1255.281,961.229Zm-156.629,3.227a8.228,8.228,0,0,1,8.469-8.537,9.2,9.2,0,0,1,9.3,8.442A8.227,8.227,0,0,1,1108,972.9,9.2,9.2,0,0,1,1098.651,964.456Z" transform="translate(-1083.141 -920.77)" fill="url(#linear-gradient-23)"/>
        <g id="Group_1636" data-name="Group 1636" transform="translate(2.432)">
          <path id="Path_4554" data-name="Path 4554" d="M1517.942,1135.34l38.664-.344-.213-4.128,6.8-.052.213,4.12,3.387-.031-.212-4.116,3.9-.03.212,4.111,5.445-.048-.1-1.944,6.977-.058.1,1.94,3.091-.027-.194-3.765,8.269-.065.194,3.756,6.338-.056-.21-4.075,6.748-.052.21,4.067,7.822-.07a3.636,3.636,0,0,0,2.451-.961l10.625-9.859a3.684,3.684,0,0,0,.437-4.811l-4.553-6.6a3.988,3.988,0,0,0-3.266-1.732l-96.382.173Z" transform="translate(-1457.304 -1081.411)" fill="url(#linear-gradient-24)"/>
          <path id="Path_4555" data-name="Path 4555" d="M1099.965,951.841c1.2,23.315,21.975,41.874,46.089,41.456,23.785-.412,41.877-19.178,40.7-41.92s-21.193-41.3-45.007-41.462C1117.6,909.755,1098.762,928.525,1099.965,951.841Zm33.225-.177a8.227,8.227,0,0,1-8.424,8.537,9.2,9.2,0,0,1-9.346-8.442,8.228,8.228,0,0,1,8.469-8.537A9.2,9.2,0,0,1,1133.19,951.663Z" transform="translate(-1099.911 -909.914)" fill="url(#linear-gradient-25)"/>
          <path id="Path_4556" data-name="Path 4556" d="M1141.749,909.915c-24.144-.16-42.987,18.61-41.784,41.926s21.975,41.874,46.089,41.456c19.357-.335,34.937-12.822,39.435-29.676l4.126-.037c-.374-5.188.99-7.773,2.566-9.158,4.423-3.886,10.66,1.445,23.254.11,10.5-1.113,11.577-5.408,21.387-5.193,6.831.149,9.322,2.306,14.971,3.453,5,1.015,11.7,1.078,20.234-2.208a3.787,3.787,0,0,0-.532-3.241l-4.552-6.6a3.99,3.99,0,0,0-3.267-1.732l-79.451.142C1177.99,922.356,1161.129,910.043,1141.749,909.915Zm-26.329,41.843a8.228,8.228,0,0,1,8.469-8.537,9.2,9.2,0,0,1,9.3,8.442,8.227,8.227,0,0,1-8.424,8.537A9.2,9.2,0,0,1,1115.42,951.758Z" transform="translate(-1099.911 -909.914)" opacity="0.3" fill="url(#linear-gradient-26)" style="mix-blend-mode: multiply;isolation: isolate"/>
          <path id="Path_4557" data-name="Path 4557" d="M1160.075,1000.025c.965,18.693,17.6,33.61,36.956,33.32,19.145-.287,33.743-15.37,32.8-33.693s-17.094-33.242-36.258-33.324C1174.194,966.245,1159.11,981.332,1160.075,1000.025Zm24.515-.131a8.227,8.227,0,0,1-8.424,8.537,9.2,9.2,0,0,1-9.346-8.442,8.228,8.228,0,0,1,8.469-8.537A9.2,9.2,0,0,1,1184.591,999.894Z" transform="translate(-1151.311 -958.145)" fill="url(#linear-gradient-27)"/>
        </g>
      </g>
    </g>
    <g id="Group_1640" data-name="Group 1640" transform="translate(705.708 627.944)">
      <path id="Path_4558" data-name="Path 4558" d="M2517.555,3111.9c.962,1.962.692,2.806.453,3.175-.7,1.089-2.392.063-6.8.583a7.4,7.4,0,0,1-2.738-.095c-1.055-.249-2.3-.812-2.248-1.094.019-.1.207-.144.278-.158,1.224-.262,8.888-2.614,8.888-2.614Z" transform="translate(-2454.507 -2899.273)" fill="url(#linear-gradient-28)"/>
      <path id="Path_4559" data-name="Path 4559" d="M2568.336,3082.208l-.685,4.387s-1.883,1.33-2.378-.285a22.747,22.747,0,0,1-.346-4.3Z" transform="translate(-2504.7 -2873.893)" fill="url(#linear-gradient-29)"/>
      <path id="Path_4560" data-name="Path 4560" d="M2435.086,3098.011l1.85,5.051,2.687-.428-.623-4.676Z" transform="translate(-2393.694 -2887.526)" fill="url(#linear-gradient-30)"/>
      <path id="Path_4561" data-name="Path 4561" d="M2413.039,3123.506c1.3-1.544,2.462-1.4,2.7-2.464a2.17,2.17,0,0,0-1.1-2.244c-1.083-.545-2.394.306-2.689.5-2.013,1.308-1.465,3.354-3.361,4.24a5.133,5.133,0,0,0-1.625.965c-.271.255-.941.883-.785,1.316.182.5,1.377.482,2.515.467a4.972,4.972,0,0,0,2.7-.438C2412.308,3125.278,2412.035,3124.7,2413.039,3123.506Z" transform="translate(-2368.96 -2905.189)" fill="url(#linear-gradient-31)"/>
      <path id="Path_4562" data-name="Path 4562" d="M2528.781,2360.175a144.621,144.621,0,0,1-3.62,26.008c-1.787,7.636-2.761,8.942-3.381,14.236-1.349,11.52,2.336,13.252,2.74,26.313a79.476,79.476,0,0,1-5.231,30.127,82.45,82.45,0,0,1-3.925,8.964c-1.345,1.123-3.355.638-5.475.159-.5-13.084-1.219-25.4-1.723-38.487q-3.162-29.568-6.325-59.136Z" transform="translate(-2450.765 -2256.762)" fill="url(#linear-gradient-32)"/>
      <path id="Path_4563" data-name="Path 4563" d="M2509.888,2465.982c-.5-13.084-1.219-25.4-1.723-38.487q-3.162-29.568-6.325-59.136l26.94-8.184c-.033.675-.082,1.327-.122,1.989-12.745,10.6-15.377,19.151-15.381,25.025,0,7.124,3.814,10.736,2.831,21.043-.7,7.371-2.949,8.623-3.09,15.284-.183,8.577,3.395,13.479,5.081,18.474,1.63,4.827,2.1,11.625-1.453,21.205-.461.987-.9,1.87-1.283,2.627C2514.018,2466.947,2512.008,2466.461,2509.888,2465.982Z" transform="translate(-2450.765 -2256.762)" opacity="0.3" fill="url(#linear-gradient-32)" style="mix-blend-mode: multiply;isolation: isolate"/>
      <path id="Path_4564" data-name="Path 4564" d="M2380.848,2345.869a152.89,152.89,0,0,0-12.715,24.9,36.8,36.8,0,0,0-2.793,11.13,35.019,35.019,0,0,0,1.45,12.934,67.6,67.6,0,0,1,3.128,12.973,71.544,71.544,0,0,1-4.855,36.586l-4.792,1.659a262.054,262.054,0,0,1-10.247-42.1c-1.518-9.632-2.675-17.185-2.481-26.745a112.253,112.253,0,0,1,10.636-44.875Q2369.513,2339.1,2380.848,2345.869Z" transform="translate(-2318.831 -2232.963)" fill="url(#linear-gradient-34)"/>
      <path id="Path_4565" data-name="Path 4565" d="M2418.747,1820.6c-10.116,1.515-17.828,3.152-21.367,8.357-3.738,5.5,1.925,9.818,3.227,22.084,1.993,18.779-8.924,25.544-6.23,44.468a48.707,48.707,0,0,0,4.387,14.289,51.289,51.289,0,0,0,15.269,9.069c10.143,3.795,15.229,1.824,28.962,2.905,22.463,1.767,25.69,8.362,35.937,4.569,10.356-3.834,18.023-14.628,15.946-19.356-1.244-2.831-5.4-1.169-11.224-4.737-7.51-4.6-6.1-10.625-12.162-15.95-8.7-7.65-17.391-.3-24.833-6.949-7.527-6.726-8.1-22.7-4.637-32.13,2.263-6.159,2.446-12.9,4.162-19.237a4.089,4.089,0,0,0-.043-2.331c-1.178-3.686-7.859-4.532-12.909-5.124A57.84,57.84,0,0,0,2418.747,1820.6Z" transform="translate(-2358.522 -1795.043)" fill="url(#linear-gradient-35)"/>
      <path id="Path_4566" data-name="Path 4566" d="M2477.9,2223.872c-3.069-2.141-1.257-7.987-5.8-11.209-4.218-2.989-7.638.729-13.9-1.34-8.039-2.654-7.448-10.435-15.148-13.087-5.538-1.907-7.3,1.615-15.342,1.6s-18.485-3.557-24.967-12.211a28.673,28.673,0,0,1-5.039-11.154c-2.3,6.89-4.771,13.544-3.325,23.7a48.778,48.778,0,0,0,4.387,14.29,51.31,51.31,0,0,0,15.269,9.069c10.144,3.794,15.229,1.825,28.961,2.905,22.462,1.768,25.69,8.363,35.937,4.569a29.166,29.166,0,0,0,14.705-12.476C2484.607,2224.8,2480.13,2225.427,2477.9,2223.872Z" transform="translate(-2358.521 -2099.702)" opacity="0.3" fill="url(#linear-gradient-36)" style="mix-blend-mode: multiply;isolation: isolate"/>
      <path id="Path_4567" data-name="Path 4567" d="M2501.034,1702.33s-2.89,5.154-3.143,8.809,3.88,3.478,3.88,3.478l-.205,2.3a5,5,0,0,1-3.357,4.289l-1.643.564s10.584,2.5,16.479-1.473l-1.669-.2a5,5,0,0,1-4.393-4.566l-.08-.99S2508.992,1703.181,2501.034,1702.33Z" transform="translate(-2446.256 -1694.342)" fill="url(#linear-gradient-37)"/>
      <g id="Group_1639" data-name="Group 1639" transform="translate(0 35.899)">
        <path id="Path_4568" data-name="Path 4568" d="M2187.6,1924.624l-13.149-29.348a.9.9,0,0,0-.936-.526l-22.993,2.9a.9.9,0,0,0-.7,1.292l15.5,31.711a.9.9,0,0,0,1.027.48l20.471-5.062Z" transform="translate(-2149.731 -1894.742)" fill="url(#linear-gradient-38)"/>
        <path id="Path_4569" data-name="Path 4569" d="M2205.133,1933.645l-10.647-23.762a.73.73,0,0,0-.758-.427l-18.617,2.348a.73.73,0,0,0-.565,1.046l12.553,25.676a.73.73,0,0,0,.832.389l16.576-4.1Z" transform="translate(-2170.882 -1907.316)" fill="#fff"/>
        <path id="Path_4570" data-name="Path 4570" d="M2217.025,1897.895l-.842-1.9a.662.662,0,0,0-.681-.389l-9.567,1.125a.66.66,0,0,0-.524.929l.942,2.074a.66.66,0,0,0,.691.381l9.467-1.3A.659.659,0,0,0,2217.025,1897.895Z" transform="translate(-2197.282 -1895.473)" fill="url(#linear-gradient-39)"/>
        <path id="Path_4571" data-name="Path 4571" d="M2193.605,1938.494l.044,0,16.863-2.164a.381.381,0,0,0,.33-.426.387.387,0,0,0-.427-.329l-16.863,2.164a.381.381,0,0,0,.053.759Z" transform="translate(-2186.913 -1929.647)" fill="#d8dee8"/>
        <path id="Path_4572" data-name="Path 4572" d="M2199.573,1949.261a.412.412,0,0,0,.048,0l16.778-2.328a.381.381,0,1,0-.1-.754l-16.777,2.328a.381.381,0,0,0,.056.758Z" transform="translate(-2192.013 -1938.712)" fill="#d8dee8"/>
        <path id="Path_4573" data-name="Path 4573" d="M2257.772,1972.45a.369.369,0,0,0,.056,0l9.15-1.524a.381.381,0,1,0-.125-.751l-9.15,1.524a.381.381,0,0,0,.069.756Z" transform="translate(-2241.77 -1959.224)" fill="#d8dee8"/>
      </g>
      <path id="Path_4574" data-name="Path 4574" d="M2204.433,2032.672s-3.748-2.548-4.184-4.345a25.886,25.886,0,0,1-.327-5.177l2.183,4.762a2.559,2.559,0,0,0,1.511-1.872c.455-1.569,1.223-.132.913,1.054A35,35,0,0,0,2204.433,2032.672Z" transform="translate(-2192.631 -1968.626)" fill="url(#linear-gradient-40)"/>
      <path id="Path_4575" data-name="Path 4575" d="M2245.989,1868.838a27.917,27.917,0,0,0-7.6,6.736c-7.5,9.713-4.579,20.062-10.785,23.722-1.776,1.047-4.892,1.9-10.517-.093l-2.157,1.147s-2.634,13.4,13.633,13.9,24.371-19.72,24.371-19.72Z" transform="translate(-2205.337 -1836.696)" fill="url(#linear-gradient-41)"/>
      <path id="Path_4576" data-name="Path 4576" d="M2515.483,1660.465c.552-.034,1.021-.721,1.393-.506.391.225.325,1.241-.034,1.947a2.576,2.576,0,0,1-1.02,1.047,6.75,6.75,0,0,1,1.132,2.721c.441,2.654-1.009,4.75-1.62,5.981-2.754,5.551,1.152,14.5,5.554,19.078,3.576,3.717,5.313,2.291,7.431,5.31,4.123,5.876-1.875,12.108.154,19.942,3.085,11.91,21.7,15.833,22.476,15.986.3.061.509.1.825.156,8.358,1.512,21.025,3.8,30.124-2.888,6.808-5.005,10.072-13.9,9.733-21.808a25.5,25.5,0,0,0-6.833-16.548c-1-1.043-6.906-7.206-15.062-7.454-4.32-.131-5.224,1.373-8.507.36-4.5-1.386-7.2-5.559-8.869-8.146-3.079-4.762-1.766-5.736-4-8.094-4.386-4.618-9.721-1.18-14.423-5.273-4.635-4.035-1.673-9.311-6.155-12.814-4.625-3.612-13.641-2.579-15.648,1.562C2510.407,1654.583,2513.8,1660.568,2515.483,1660.465Z" transform="translate(-2459.156 -1647.256)" fill="url(#linear-gradient-42)"/>
    </g>
  </g>
</svg>
