<svg xmlns="http://www.w3.org/2000/svg" width="39.798" height="39.798" viewBox="0 0 39.798 39.798">
  <g id="legal_and_regulatory_compliance" data-name="legal and regulatory compliance" transform="translate(0 0)">
    <path id="Path_3273" data-name="Path 3273" d="M105.321,133.728l-2.026,2.026-.468-.468a.777.777,0,1,0-1.1,1.1l1.018,1.018a.778.778,0,0,0,1.1,0l2.576-2.576a.777.777,0,0,0-1.1-1.1Zm0,0" transform="translate(-93.61 -123.124)" fill="#10b5df"/>
    <path id="Path_3274" data-name="Path 3274" d="M192.777,135.055H200.2a.777.777,0,1,0,0-1.555h-7.423a.777.777,0,1,0,0,1.555Zm0,0" transform="translate(-177.076 -123.123)" fill="#10b5df"/>
    <path id="Path_3275" data-name="Path 3275" d="M192.777,175.055h3.517a.777.777,0,1,0,0-1.555h-3.517a.777.777,0,1,0,0,1.555Zm0,0" transform="translate(-177.076 -160.014)" fill="#10b5df"/>
    <path id="Path_3276" data-name="Path 3276" d="M105.321,237.728l-2.026,2.026-.468-.468a.777.777,0,1,0-1.1,1.1l1.018,1.018a.778.778,0,0,0,1.1,0l2.576-2.576a.777.777,0,1,0-1.1-1.1Zm0,0" transform="translate(-93.61 -219.04)" fill="#10b5df"/>
    <path id="Path_3277" data-name="Path 3277" d="M192.777,279.055h3.517a.777.777,0,1,0,0-1.555h-3.517a.777.777,0,1,0,0,1.555Zm0,0" transform="translate(-177.076 -255.93)" fill="#10b5df"/>
    <path id="Path_3278" data-name="Path 3278" d="M105.321,342.728l-2.026,2.026-.468-.468a.777.777,0,0,0-1.1,1.1l1.018,1.018a.778.778,0,0,0,1.1,0l2.576-2.576a.777.777,0,1,0-1.1-1.1Zm0,0" transform="translate(-93.61 -315.878)" fill="#10b5df"/>
    <path id="Path_3279" data-name="Path 3279" d="M192.777,344.055H200.2a.777.777,0,0,0,0-1.555h-7.423a.777.777,0,0,0,0,1.555Zm0,0" transform="translate(-177.076 -315.878)" fill="#10b5df"/>
    <path id="Path_3280" data-name="Path 3280" d="M192.777,384.055h3.517a.777.777,0,1,0,0-1.555h-3.517a.777.777,0,1,0,0,1.555Zm0,0" transform="translate(-177.076 -352.769)" fill="#10b5df"/>
    <path id="Path_3281" data-name="Path 3281" d="M39.8,19.9A8.482,8.482,0,0,0,31.4,11.427V6.18a3.891,3.891,0,0,0-3.886-3.886h-8.2A3.9,3.9,0,0,0,15.769,0h-.137a3.9,3.9,0,0,0-3.545,2.293h-8.2A3.891,3.891,0,0,0,0,6.18V35.911A3.891,3.891,0,0,0,3.886,39.8h23.63A3.891,3.891,0,0,0,31.4,35.911V28.371a8.437,8.437,0,0,0,5.478-2.08.757.757,0,0,0,.118-.1A8.452,8.452,0,0,0,39.8,19.9Zm-1.555,0A6.886,6.886,0,0,1,36.7,24.247a6.087,6.087,0,0,0-3-2.772,3.177,3.177,0,0,0,.813-2.124v-.6a3.191,3.191,0,1,0-6.381,0v.6a3.177,3.177,0,0,0,.813,2.124,6.087,6.087,0,0,0-3,2.772A6.917,6.917,0,1,1,38.242,19.9ZM27.13,25.4a4.509,4.509,0,0,1,8.389,0,6.9,6.9,0,0,1-8.389,0Zm2.559-6.045v-.6a1.636,1.636,0,1,1,3.272,0v.6a1.636,1.636,0,0,1-3.272,0ZM29.848,6.18v5.376a8.406,8.406,0,0,0-2.176.7V6.8a.777.777,0,0,0-.777-.777H22.7V4.411a2.1,2.1,0,0,0-.077-.564h4.9A2.334,2.334,0,0,1,29.848,6.18ZM12.632,3.848a.777.777,0,0,0,.75-.574,2.336,2.336,0,0,1,2.25-1.719h.137a2.336,2.336,0,0,1,2.25,1.719.777.777,0,0,0,.75.574h1.809a.564.564,0,0,1,.564.564V6.024H10.26V4.411a.564.564,0,0,1,.564-.564Zm14.884,34.4H3.886a2.334,2.334,0,0,1-2.332-2.332V6.18A2.334,2.334,0,0,1,3.886,3.848h4.9a2.1,2.1,0,0,0-.077.564V6.024h-4.2A.777.777,0,0,0,3.73,6.8V35.289a.777.777,0,0,0,.777.777h8.084a.777.777,0,1,0,0-1.555H5.285V7.579H26.117v5.642a8.48,8.48,0,0,0-3.142,5.24H15.7a.777.777,0,1,0,0,1.555h7.153a8.452,8.452,0,0,0,2.8,6.172.758.758,0,0,0,.115.1q.17.148.348.288v7.935H18.81a.777.777,0,1,0,0,1.555h8.084a.777.777,0,0,0,.777-.777V27.543a8.406,8.406,0,0,0,2.176.7v7.669a2.334,2.334,0,0,1-2.332,2.332Zm0,0" transform="translate(0.001 -0.001)" fill="#10b5df"/>
    <path id="Path_3282" data-name="Path 3282" d="M192.777,40.3a.777.777,0,1,0-.55-.228A.784.784,0,0,0,192.777,40.3Zm0,0" transform="translate(-177.076 -35.738)" fill="#10b5df"/>
    <path id="Path_3283" data-name="Path 3283" d="M192.777,444a.777.777,0,1,0,.55.228A.783.783,0,0,0,192.777,444Zm0,0" transform="translate(-177.076 -409.488)" fill="#10b5df"/>
  </g>
</svg>
