<svg xmlns="http://www.w3.org/2000/svg" width="28.244" height="39.798" viewBox="0 0 28.244 39.798">
  <g id="Group_990" data-name="Group 990" transform="translate(0)">
    <path id="Path_3267" data-name="Path 3267" d="M99.6,0H72.642A.642.642,0,0,0,72,.642V39.156a.642.642,0,0,0,.642.642H99.6a.642.642,0,0,0,.642-.642V.642A.642.642,0,0,0,99.6,0ZM80.345,1.284H91.9v1.6a.964.964,0,0,1-.963.963H81.308a.964.964,0,0,1-.963-.963Zm.963,3.851h9.629a2.249,2.249,0,0,0,2.029-1.284h4.069V36.588H75.209V3.851h4.069A2.249,2.249,0,0,0,81.308,5.135ZM98.96,38.514H73.284V1.284h5.777V2.568H74.568a.642.642,0,0,0-.642.642V37.23a.642.642,0,0,0,.642.642H97.676a.642.642,0,0,0,.642-.642V3.209a.642.642,0,0,0-.642-.642H93.183V1.284H98.96Z" transform="translate(-72)" fill="#10b5df"/>
    <path id="Path_3268" data-name="Path 3268" d="M168.642,91.851H180.2a.642.642,0,0,0,.642-.642V88.642A.642.642,0,0,0,180.2,88H168.642a.642.642,0,0,0-.642.642v2.568A.642.642,0,0,0,168.642,91.851Zm.642-2.568h10.27v1.284h-10.27Z" transform="translate(-160.297 -80.939)" fill="#10b5df"/>
    <path id="Path_3269" data-name="Path 3269" d="M180.2,376H168.642a.642.642,0,0,0-.642.642v2.568a.642.642,0,0,0,.642.642H180.2a.642.642,0,0,0,.642-.642v-2.568A.642.642,0,0,0,180.2,376Zm-.642,2.568h-10.27v-1.284h10.27Z" transform="translate(-160.297 -345.831)" fill="#10b5df"/>
    <path id="Path_3270" data-name="Path 3270" d="M224.642,213.777h2.568a.642.642,0,0,0,.642-.642v-4.493a.642.642,0,0,0-.642-.642h-2.568a.642.642,0,0,0-.642.642v4.493A.642.642,0,0,0,224.642,213.777Zm.642-4.493h1.284v3.21h-1.284Z" transform="translate(-211.804 -191.311)" fill="#10b5df"/>
    <path id="Path_3271" data-name="Path 3271" d="M224.642,291.851h2.568a.642.642,0,0,0,.642-.642v-2.568a.642.642,0,0,0-.642-.642h-2.568a.642.642,0,0,0-.642.642v2.568A.642.642,0,0,0,224.642,291.851Zm.642-2.568h1.284v1.284h-1.284Z" transform="translate(-211.804 -264.892)" fill="#10b5df"/>
    <path id="Path_3272" data-name="Path 3272" d="M136.231,166.093h13.8A2.247,2.247,0,0,0,152,162.755l-6.9-12.422a2.247,2.247,0,0,0-3.928,0l-6.9,12.422a2.247,2.247,0,0,0,1.964,3.338Zm-.842-2.714,6.9-12.422a.963.963,0,0,1,1.683,0l6.9,12.422a.963.963,0,0,1-.842,1.43h-13.8a.963.963,0,0,1-.842-1.43Z" transform="translate(-129.011 -137.208)" fill="#10b5df"/>
  </g>
</svg>
