<svg xmlns="http://www.w3.org/2000/svg" width="48.436" height="48.759" viewBox="0 0 48.436 48.759">
  <g id="risk" transform="translate(-1 -0.586)">
    <path id="Path_3462" data-name="Path 3462" d="M19.435,34h-.183A2.254,2.254,0,0,0,17,36.252a2.355,2.355,0,0,0,.017.279l.673,5.385a1.666,1.666,0,0,0,3.307,0l.673-5.383A2.249,2.249,0,0,0,19.435,34Zm.684,2.337-.673,5.383a.107.107,0,0,1-.206,0l-.673-5.386a.593.593,0,0,1-.005-.084.69.69,0,0,1,.69-.69h.183a.69.69,0,0,1,.69.69.631.631,0,0,1-.005.085Z" transform="translate(-3.5 -7.31)" fill="#10b5df"/>
    <path id="Path_3463" data-name="Path 3463" d="M19.344,48a2.344,2.344,0,1,0,2.344,2.344A2.347,2.347,0,0,0,19.344,48Zm0,3.125a.781.781,0,1,1,.781-.781A.782.782,0,0,1,19.344,51.125Z" transform="translate(-3.5 -10.373)" fill="#10b5df"/>
    <path id="Path_3464" data-name="Path 3464" d="M17.156,31A10.156,10.156,0,1,0,27.312,41.156,10.168,10.168,0,0,0,17.156,31Zm0,18.749a8.593,8.593,0,1,1,8.593-8.593A8.6,8.6,0,0,1,17.156,49.749Z" transform="translate(-1.313 -6.654)" fill="#10b5df"/>
    <path id="Path_3465" data-name="Path 3465" d="M36.375,33.093a2.344,2.344,0,1,0,2.344-2.344v1.562a.781.781,0,1,1-.781.781V23.718a1.562,1.562,0,1,1,3.125,0h1.562a1.562,1.562,0,0,1,3.125,0h1.562V22.156a10.156,10.156,0,0,0-20.312,0v1.562h1.562a1.562,1.562,0,0,1,3.125,0H33.25a1.562,1.562,0,0,1,3.125,0Zm-1.562-12.5a3.1,3.1,0,0,0-2.344,1.08,3.1,3.1,0,0,0-3.825-.705,8.595,8.595,0,0,1,17.024,0,3.1,3.1,0,0,0-3.825.705,3.084,3.084,0,0,0-4.687,0A3.1,3.1,0,0,0,34.812,20.593Z" transform="translate(-5.688 -2.497)" fill="#10b5df"/>
    <path id="Path_3466" data-name="Path 3466" d="M47.084,6.267l-.1-.67h-4.2A15.12,15.12,0,0,1,32.02,1.138L31.468.586l-.552.552A15.12,15.12,0,0,1,20.152,5.6h-4.2l-.1.67c-.01.074-1.032,7.236-1.72,13.392H12.938l-.7,2.073a13.175,13.175,0,0,0-2.879,1.192L7.4,21.952,3.292,26.06l.972,1.96A13.143,13.143,0,0,0,3.072,30.9L1,31.6v5.811l2.073.7a13.175,13.175,0,0,0,1.192,2.879l-.972,1.96L7.4,47.053l1.96-.973a13.133,13.133,0,0,0,2.879,1.193l.7,2.072h5.811l.7-2.073a13.148,13.148,0,0,0,2.879-1.193l1.96.973,4.108-4.108-.972-1.96c.108-.192.191-.4.288-.593l.4.234a6.669,6.669,0,0,0,6.721,0c5.454-3.187,14.606-9.133,14.606-13.153,0-4.689-2.255-20.531-2.351-21.2ZM23.973,45.154,22.258,44.3l-.367.222a11.665,11.665,0,0,1-3.238,1.342l-.416.1-.611,1.814H14.06l-.611-1.814-.416-.1a11.628,11.628,0,0,1-3.238-1.342L9.428,44.3l-1.716.852L5.19,42.632l.852-1.716-.222-.367a11.649,11.649,0,0,1-1.342-3.238l-.1-.416-1.813-.611V32.719l1.814-.611.1-.416a11.612,11.612,0,0,1,1.342-3.238l.222-.367-.852-1.716,2.522-2.522,1.716.852.367-.222a11.65,11.65,0,0,1,3.238-1.342l.416-.1.611-1.813h3.565l.611,1.814.416.1a11.612,11.612,0,0,1,3.238,1.342l.367.222,1.716-.852L26.5,26.372l-.852,1.716.222.367a11.65,11.65,0,0,1,1.342,3.238l.1.416,1.813.611v3.565L27.31,36.9l-.1.416a11.612,11.612,0,0,1-1.342,3.238l-.222.367.852,1.716ZM28.614,30.9a13.175,13.175,0,0,0-1.192-2.879l.972-1.96-4.108-4.108-1.96.972a13.143,13.143,0,0,0-2.879-1.192l-.621-1.845c.4-3.565.891-7.3,1.2-9.6h.124A19.712,19.712,0,0,0,31.468,6.762a19.718,19.718,0,0,0,11.316,3.523h.124c.518,3.842,1.776,13.487,1.837,16.941-.492,1.048-3.952,4.487-12.282,9.353a2.012,2.012,0,0,1-1.777.089V31.6Zm5.427,8.376a5.194,5.194,0,0,1-5.146,0c-.176-.1-.368-.216-.57-.336.1-.277.209-.55.289-.834l.874-.295.195.116a3.546,3.546,0,0,0,3.57,0c8.19-4.784,12.489-8.7,13.018-10.315l.04-.122v-.128c-.029-3.623-1.5-14.665-1.944-17.963l-.092-.676H42.784A18.169,18.169,0,0,1,31.931,5.173l-.463-.341L31,5.173A18.171,18.171,0,0,1,20.152,8.722H18.663L18.57,9.4c-.3,2.186-.847,6.321-1.292,10.261H15.7c.562-4.993,1.334-10.6,1.6-12.5h2.848A16.664,16.664,0,0,0,31.468,2.772,16.664,16.664,0,0,0,42.784,7.159h2.848c.437,3.126,2.241,16.267,2.241,20.312,0,2.262-5.429,6.9-13.832,11.8Z" fill="#10b5df"/>
  </g>
</svg>
