<svg id="hands" xmlns="http://www.w3.org/2000/svg" width="41.057" height="39.798" viewBox="0 0 41.057 39.798">
  <path id="Path_4" data-name="Path 4" d="M55.757,66.187a.559.559,0,0,1-.093-.008L44.925,64.456a.587.587,0,0,1-.486-.672l.393-2.448a2.224,2.224,0,0,1,2.547-1.843l7.508,1.2a2.222,2.222,0,0,1,1.843,2.547l-.392,2.448a.587.587,0,0,1-.581.494Zm-10.067-2.8,9.581,1.537.3-1.869a1.05,1.05,0,0,0-.871-1.2l-7.508-1.2a1.049,1.049,0,0,0-1.2.87Z" transform="translate(-19.544 -26.39)" fill="#10b5df"/>
  <path id="Path_5" data-name="Path 5" d="M48.952,49.845a.628.628,0,0,1-.093-.007.587.587,0,0,1-.486-.672L49.3,43.4a6.327,6.327,0,0,1,3-4.415l.615-3.833a2.209,2.209,0,1,1,4.362.7l-1.232,7.684a.587.587,0,1,1-1.158-.186l1.232-7.684a1.035,1.035,0,0,0-2.045-.328l-.66,4.116a.587.587,0,0,1-.3.425,5.144,5.144,0,0,0-2.652,3.708l-.924,5.763a.587.587,0,0,1-.579.492Z" transform="translate(-21.171 -15.57)" fill="#10b5df"/>
  <path id="Path_6" data-name="Path 6" d="M60.768,44.193a.587.587,0,0,1-.506-.883l3.863-6.591a9.627,9.627,0,0,0,.842-7.86L61.506,18.3a3.7,3.7,0,0,0-1.29,3.515l1,5.611a.587.587,0,0,1-1.155.206l-1-5.614a4.86,4.86,0,0,1,1.855-4.751l.536-.407a.587.587,0,0,1,.912.284L66.081,28.49a10.8,10.8,0,0,1-.943,8.816l-3.863,6.6a.587.587,0,0,1-.507.29Z" transform="translate(-25.561 -8.725)" fill="#10b5df"/>
  <path id="Path_7" data-name="Path 7" d="M9.553,66.187a.587.587,0,0,1-.579-.494L8.58,63.245A2.222,2.222,0,0,1,10.423,60.7l7.508-1.2a2.224,2.224,0,0,1,2.547,1.843l.393,2.448a.587.587,0,0,1-.486.672L9.646,66.18a.561.561,0,0,1-.093.008Zm8.731-5.549a1.09,1.09,0,0,0-.168.013l-7.508,1.2a1.05,1.05,0,0,0-.871,1.2l.3,1.869,9.581-1.537-.3-1.869a1.052,1.052,0,0,0-1.034-.884Z" transform="translate(-4.709 -26.39)" fill="#10b5df"/>
  <path id="Path_8" data-name="Path 8" d="M18.748,49.846a.587.587,0,0,1-.579-.494l-.924-5.763a5.144,5.144,0,0,0-2.652-3.707.587.587,0,0,1-.3-.425l-.66-4.112a1.035,1.035,0,0,0-2.045.328l1.232,7.684a.587.587,0,1,1-1.158.186l-1.232-7.684a2.209,2.209,0,1,1,4.362-.7l.614,3.831a6.327,6.327,0,0,1,3,4.412l.924,5.764a.587.587,0,0,1-.486.672A.63.63,0,0,1,18.748,49.846Z" transform="translate(-5.472 -15.571)" fill="#10b5df"/>
  <path id="Path_9" data-name="Path 9" d="M7.85,44.194a.587.587,0,0,1-.507-.29L3.48,37.31a10.8,10.8,0,0,1-.943-8.816L6.253,17.15a.587.587,0,0,1,.912-.284l.536.407a4.86,4.86,0,0,1,1.855,4.751l-1,5.612A.587.587,0,0,1,7.4,27.429l1-5.611A3.7,3.7,0,0,0,7.111,18.3L3.651,28.86a9.627,9.627,0,0,0,.842,7.86l3.863,6.594a.587.587,0,0,1-.506.883Z" transform="translate(-2.001 -8.727)" fill="#10b5df"/>
  <path id="Path_10" data-name="Path 10" d="M37.983,21.265H20.611a.587.587,0,0,1-.579-.492L18.377,10.648a.587.587,0,0,1,.579-.681H39.638a.587.587,0,0,1,.579.681L38.564,20.773a.587.587,0,0,1-.581.492ZM21.109,20.092H37.484l1.463-8.952h-19.3Z" transform="translate(-8.768 -5.924)" fill="#10b5df"/>
  <path id="Path_11" data-name="Path 11" d="M39.214,8.292a.587.587,0,0,1-.587-.587V5.846H26.88a.587.587,0,0,1-.458-.221l-1.1-1.378H21.993V7.708a.587.587,0,0,1-1.173,0V3.661a.587.587,0,0,1,.587-.587h4.2a.587.587,0,0,1,.458.221l1.1,1.378H39.214a.587.587,0,0,1,.587.587V7.705a.587.587,0,0,1-.587.587Z" transform="translate(-9.782 -3.074)" fill="#10b5df"/>
</svg>
