<svg id="sharing_data" data-name="sharing data" xmlns="http://www.w3.org/2000/svg" width="52.125" height="52.125" viewBox="0 0 52.125 52.125">
  <path id="Path_3358" data-name="Path 3358" d="M194.84,402.335h-6.377l-1.226-1.173a1.374,1.374,0,0,0-.954-.383h-3.965a1.382,1.382,0,0,0-1.381,1.381v8.562a1.382,1.382,0,0,0,1.381,1.381H194.84a1.382,1.382,0,0,0,1.381-1.381v-7.005A1.382,1.382,0,0,0,194.84,402.335Zm-.147,8.24H182.464v-8.269h3.76l1.226,1.173h0a1.374,1.374,0,0,0,.954.383h6.289v6.712Z" transform="translate(-162.516 -359.976)" fill="#10b5df"/>
  <path id="Path_3359" data-name="Path 3359" d="M67.323,39.151a.763.763,0,0,0,.764-.764v-4.67a1.173,1.173,0,0,1,1.172-1.171H85.082v5.841a.764.764,0,1,0,1.527,0V32.546h15.824a1.173,1.173,0,0,1,1.172,1.171v4.67a.764.764,0,1,0,1.527,0v-4.67a2.7,2.7,0,0,0-2.7-2.7H86.609V26.826H97.021a1.772,1.772,0,0,0,1.77-1.77V1.77A1.772,1.772,0,0,0,97.021,0H88.475a.764.764,0,1,0,0,1.527h8.546a.243.243,0,0,1,.243.243V25.056a.243.243,0,0,1-.243.243H74.67a.243.243,0,0,1-.243-.243V1.77a.243.243,0,0,1,.243-.243H85.422a.764.764,0,1,0,0-1.527H74.67A1.772,1.772,0,0,0,72.9,1.77V25.056a1.772,1.772,0,0,0,1.77,1.77H85.082v4.192H69.258a2.7,2.7,0,0,0-2.7,2.7v4.67A.764.764,0,0,0,67.323,39.151Z" transform="translate(-59.783 0)" fill="#10b5df"/>
  <path id="Path_3360" data-name="Path 3360" d="M375.777,402.335h-.862a.764.764,0,0,0,0,1.527h.716v6.712H363.4v-8.269h3.76l1.227,1.173a1.374,1.374,0,0,0,.954.383h2.52a.764.764,0,0,0,0-1.527H369.4l-1.227-1.173a1.374,1.374,0,0,0-.954-.383h-3.965a1.382,1.382,0,0,0-1.381,1.381v8.562a1.382,1.382,0,0,0,1.381,1.381h12.523a1.382,1.382,0,0,0,1.381-1.381v-7.005A1.382,1.382,0,0,0,375.777,402.335Z" transform="translate(-325.033 -359.976)" fill="#10b5df"/>
  <path id="Path_3361" data-name="Path 3361" d="M13.9,402.335H7.527L6.3,401.161a1.374,1.374,0,0,0-.954-.383H1.381A1.382,1.382,0,0,0,0,402.159v8.562A1.382,1.382,0,0,0,1.381,412.1H5.251a.764.764,0,1,0,0-1.527H1.527v-8.269h3.76l1.226,1.173a1.374,1.374,0,0,0,.954.383h6.289v6.712H8.3a.764.764,0,1,0,0,1.527h5.6a1.382,1.382,0,0,0,1.381-1.381v-7.005a1.382,1.382,0,0,0-1.381-1.381Z" transform="translate(0 -359.976)" fill="#10b5df"/>
  <path id="Path_3362" data-name="Path 3362" d="M177.523,74.776a.763.763,0,0,0-.764-.764H158.223a.763.763,0,0,0-.764.764v5.6a.763.763,0,0,0,.764.764H176.76a.763.763,0,0,0,.764-.764ZM176,79.607h-.882V78.591a.764.764,0,0,0-1.527,0v1.016h-1.351V78.591a.764.764,0,0,0-1.527,0v1.016h-1.351V78.591a.764.764,0,0,0-1.527,0v1.016h-8.845V75.539H176v4.068Z" transform="translate(-141.429 -66.477)" fill="#10b5df"/>
  <path id="Path_3363" data-name="Path 3363" d="M181.886,103.018h.613a.764.764,0,0,0,0-1.527h-.613a.764.764,0,0,0,0,1.527Z" transform="translate(-162.683 -91.159)" fill="#10b5df"/>
  <path id="Path_3364" data-name="Path 3364" d="M213.9,103.018h.613a.764.764,0,0,0,0-1.527H213.9a.764.764,0,0,0,0,1.527Z" transform="translate(-191.439 -91.159)" fill="#10b5df"/>
  <path id="Path_3365" data-name="Path 3365" d="M176.76,162.165H158.223a.763.763,0,0,0-.764.764v5.6a.763.763,0,0,0,.764.764H176.76a.763.763,0,0,0,.764-.764v-5.6A.763.763,0,0,0,176.76,162.165Zm-.764,5.6h-.882v-1.016a.764.764,0,0,0-1.527,0v1.016h-1.351v-1.016a.764.764,0,0,0-1.527,0v1.016h-1.351v-1.016a.764.764,0,0,0-1.527,0v1.016h-8.845v-4.068H176v4.068Z" transform="translate(-141.429 -145.656)" fill="#10b5df"/>
  <path id="Path_3366" data-name="Path 3366" d="M181.886,191.173h.613a.764.764,0,1,0,0-1.527h-.613a.764.764,0,1,0,0,1.527Z" transform="translate(-162.683 -170.339)" fill="#10b5df"/>
  <path id="Path_3367" data-name="Path 3367" d="M213.9,191.173h.613a.764.764,0,1,0,0-1.527H213.9a.764.764,0,1,0,0,1.527Z" transform="translate(-191.439 -170.339)" fill="#10b5df"/>
  <path id="Path_3368" data-name="Path 3368" d="M172.6,25.665h2.114a.764.764,0,0,0,0-1.527H172.6a.764.764,0,1,0,0,1.527Z" transform="translate(-154.342 -21.681)" fill="#10b5df"/>
  <path id="Path_3369" data-name="Path 3369" d="M185.912,48.074H172.6a.764.764,0,0,0,0,1.527h13.312a.764.764,0,1,0,0-1.527Z" transform="translate(-154.342 -43.18)" fill="#10b5df"/>
</svg>
