<svg xmlns="http://www.w3.org/2000/svg" width="52.57" height="52.57" viewBox="0 0 52.57 52.57">
  <g id="access" transform="translate(-1 -1)">
    <path id="Path_3311" data-name="Path 3311" d="M43.479,37a8.479,8.479,0,1,0,8.479,8.479A8.489,8.489,0,0,0,43.479,37ZM36.7,45.479a6.743,6.743,0,0,1,1.431-4.153l9.5,9.5A6.771,6.771,0,0,1,36.7,45.479Zm12.135,4.153-9.505-9.505a6.772,6.772,0,0,1,9.505,9.505Z" transform="translate(-5.171 -5.475)" fill="#10b5df"/>
    <path id="Path_3312" data-name="Path 3312" d="M5,5H6.7V6.7H5Z" transform="translate(-0.608 -0.608)" fill="#10b5df"/>
    <path id="Path_3313" data-name="Path 3313" d="M13,5h1.7V6.7H13Z" transform="translate(-1.825 -0.608)" fill="#10b5df"/>
    <path id="Path_3314" data-name="Path 3314" d="M9,5h1.7V6.7H9Z" transform="translate(-1.217 -0.608)" fill="#10b5df"/>
    <path id="Path_3315" data-name="Path 3315" d="M9,17h1.7v1.7H9Z" transform="translate(-1.217 -2.433)" fill="#10b5df"/>
    <path id="Path_3316" data-name="Path 3316" d="M13,17h1.7v1.7H13Z" transform="translate(-1.825 -2.433)" fill="#10b5df"/>
    <path id="Path_3317" data-name="Path 3317" d="M17,17h1.7v1.7H17Z" transform="translate(-2.433 -2.433)" fill="#10b5df"/>
    <path id="Path_3318" data-name="Path 3318" d="M51.027,1H3.544A2.547,2.547,0,0,0,1,3.544V39.156A2.547,2.547,0,0,0,3.544,41.7H26.727a15.874,15.874,0,0,0,7.991,10.955,7.5,7.5,0,0,0,7.181,0A15.876,15.876,0,0,0,49.89,41.7h1.137a2.547,2.547,0,0,0,2.544-2.544V3.544A2.547,2.547,0,0,0,51.027,1ZM3.544,2.7H51.027a.849.849,0,0,1,.848.848v4.24H2.7V3.544A.849.849,0,0,1,3.544,2.7ZM36.612,17.958H6.087v-4.24a.849.849,0,0,1,.848-.848h9.327a.851.851,0,0,1,.678.339l2.289,3.052H35.764a.849.849,0,0,1,.848.848Zm-30.525,1.7H36.612v7.057a5.666,5.666,0,0,0-1.854.972,9.83,9.83,0,0,1-6.119,2.146h-2.2v6.783H6.935a.849.849,0,0,1-.848-.848Zm42.4,19.053a14.183,14.183,0,0,1-7.4,12.459,5.9,5.9,0,0,1-5.557,0,14.184,14.184,0,0,1-7.4-12.459V31.525h.506a11.531,11.531,0,0,0,7.178-2.518,4.094,4.094,0,0,1,4.981,0,11.535,11.535,0,0,0,7.179,2.518h.505ZM51.027,40H50.12c.035-.43.059-.861.059-1.3V29.829h-2.2a9.827,9.827,0,0,1-6.119-2.147,5.7,5.7,0,0,0-3.549-1.245V17.11a2.547,2.547,0,0,0-2.544-2.544H20.078L18.3,12.192a2.557,2.557,0,0,0-2.035-1.017H6.935a2.547,2.547,0,0,0-2.544,2.544V35.764a2.547,2.547,0,0,0,2.544,2.544h19.5v.4c0,.436.024.867.059,1.3H3.544a.849.849,0,0,1-.848-.848V9.479H51.874V39.156A.849.849,0,0,1,51.027,40Z" transform="translate(0 0)" fill="#10b5df"/>
    <path id="Path_3319" data-name="Path 3319" d="M47,13H57.175v1.7H47Z" transform="translate(-6.996 -1.825)" fill="#10b5df"/>
    <path id="Path_3320" data-name="Path 3320" d="M47,17H57.175v1.7H47Z" transform="translate(-6.996 -2.433)" fill="#10b5df"/>
    <path id="Path_3321" data-name="Path 3321" d="M47,21H57.175v1.7H47Z" transform="translate(-6.996 -3.042)" fill="#10b5df"/>
    <path id="Path_3322" data-name="Path 3322" d="M47,25H57.175v1.7H47Z" transform="translate(-6.996 -3.65)" fill="#10b5df"/>
    <path id="Path_3323" data-name="Path 3323" d="M57,29h1.7v1.7H57Z" transform="translate(-8.517 -4.259)" fill="#10b5df"/>
    <path id="Path_3324" data-name="Path 3324" d="M53,29h1.7v1.7H53Z" transform="translate(-7.909 -4.259)" fill="#10b5df"/>
    <path id="Path_3325" data-name="Path 3325" d="M49,29h1.7v1.7H49Z" transform="translate(-7.3 -4.259)" fill="#10b5df"/>
    <path id="Path_3326" data-name="Path 3326" d="M10.7,40.087h5.087a1.7,1.7,0,0,0,1.7-1.7V36.7a1.7,1.7,0,0,0-1.7-1.7H10.7A1.7,1.7,0,0,0,9,36.7v1.7A1.7,1.7,0,0,0,10.7,40.087Zm0-3.392h5.087v1.7H10.7Z" transform="translate(-1.217 -5.171)" fill="#10b5df"/>
  </g>
</svg>
