<svg id="hands-hand-shield-protection-protect" xmlns="http://www.w3.org/2000/svg" width="39.798" height="39.798" viewBox="0 0 39.798 39.798">
  <path id="Path_60" data-name="Path 60" d="M52.276,2a2.653,2.653,0,0,0-2.653,2.653v.119a1.977,1.977,0,0,0-2.653,1.87v.783A1.977,1.977,0,0,0,44.317,9.3V22.257L42.771,24.93a3.322,3.322,0,0,0-.444,1.658v8.7A2,2,0,0,0,41,37.154v2.653a2,2,0,0,0,1.99,1.99h7.96a2,2,0,0,0,1.99-1.99V37.154a2,2,0,0,0-1.327-1.87V32.717a2.009,2.009,0,0,1,.478-1.293l2.043-2.381a3.328,3.328,0,0,0,.8-2.156V4.653A2.653,2.653,0,0,0,52.276,2ZM48.3,6.643a.663.663,0,0,1,1.327,0V16.831a2.642,2.642,0,0,0-1.287.013c-.013,0-.027.013-.04.013ZM45.643,9.3a.663.663,0,0,1,1.327,0V17.74a3.146,3.146,0,0,0-.245.338l-1.081,1.877Zm5.97,30.511a.663.663,0,0,1-.663.663H42.99a.663.663,0,0,1-.663-.663V37.154a.663.663,0,0,1,.663-.663h7.96a.663.663,0,0,1,.663.663ZM53.6,26.887a2,2,0,0,1-.478,1.293l-2.043,2.381a3.341,3.341,0,0,0-.8,2.156v2.448H43.653V26.588a2.031,2.031,0,0,1,.265-.995l3.96-6.852a1.325,1.325,0,0,1,2.3,1.327l-4.311,7.469,1.147.663,4.311-7.469a2.648,2.648,0,0,0-.371-3.131V4.653a1.327,1.327,0,0,1,2.653,0Z" transform="translate(-15.131 -2)" fill="#10b5df"/>
  <rect id="Rectangle_1" data-name="Rectangle 1" width="6.654" height="1.331" transform="translate(28.404 35.914)" fill="#10b5df"/>
  <path id="Path_61" data-name="Path 61" d="M14.6,35.284v-8.7a3.322,3.322,0,0,0-.444-1.658l-1.545-2.673V9.3A1.977,1.977,0,0,0,9.96,7.426V6.643a1.977,1.977,0,0,0-2.653-1.87V4.653A2.653,2.653,0,0,0,2,4.653V26.887a3.328,3.328,0,0,0,.8,2.156l2.043,2.381a2.009,2.009,0,0,1,.478,1.293v2.567a2,2,0,0,0-1.327,1.87v2.653A2,2,0,0,0,5.98,41.8h7.96a2,2,0,0,0,1.99-1.99V37.154a2,2,0,0,0-1.327-1.87ZM9.96,9.3a.663.663,0,0,1,1.327,0V19.955L10.2,18.078a3.146,3.146,0,0,0-.245-.338ZM7.306,6.643a.663.663,0,0,1,1.327,0V16.858c-.013,0-.027-.013-.04-.013a2.564,2.564,0,0,0-1.287-.013ZM3.8,28.18a2,2,0,0,1-.478-1.293V4.653a1.327,1.327,0,0,1,2.653,0V17.6a2.648,2.648,0,0,0-.371,3.131L9.92,28.2l1.148-.663L6.756,20.068a1.325,1.325,0,0,1,2.3-1.327l3.96,6.852a2.031,2.031,0,0,1,.265.995v8.576H6.643V32.717a3.341,3.341,0,0,0-.8-2.156ZM14.6,39.808a.663.663,0,0,1-.663.663H5.98a.663.663,0,0,1-.663-.663V37.154a.663.663,0,0,1,.663-.663h7.96a.663.663,0,0,1,.663.663Z" transform="translate(-2 -2)" fill="#10b5df"/>
  <rect id="Rectangle_2" data-name="Rectangle 2" width="6.654" height="1.331" transform="translate(4.781 35.914)" fill="#10b5df"/>
  <path id="Path_62" data-name="Path 62" d="M35.481,4.693l-7.3-2.653a.659.659,0,0,0-.451,0l-7.3,2.653A.658.658,0,0,0,20,5.316V11.08a8.644,8.644,0,0,0,2.819,6.381l4.7,4.265a.659.659,0,0,0,.889,0l4.7-4.265a8.644,8.644,0,0,0,2.819-6.381V5.316A.658.658,0,0,0,35.481,4.693Zm-.889,6.388a7.309,7.309,0,0,1-2.388,5.4L27.96,20.34l-4.245-3.86a7.309,7.309,0,0,1-2.388-5.4v-5.3L27.96,3.366l6.633,2.414Z" transform="translate(-8.061 -2)" fill="#10b5df"/>
  <path id="Path_63" data-name="Path 63" d="M27.231,14.283l-.938.938,2.653,2.653a.663.663,0,0,0,.938,0l4.643-4.643-.938-.938-4.174,4.174Z" transform="translate(-10.18 -5.466)" fill="#10b5df"/>
</svg>
