<svg xmlns="http://www.w3.org/2000/svg" width="48.911" height="48.911" viewBox="0 0 48.911 48.911">
  <g id="legal_and_regulatory_compliance" data-name="legal and regulatory compliance" transform="translate(0.001 0)">
    <path id="Path_3436" data-name="Path 3436" d="M106.2,133.78l-2.49,2.49-.575-.575a.955.955,0,0,0-1.351,1.351l1.251,1.251a.956.956,0,0,0,1.351,0l3.166-3.166a.955.955,0,1,0-1.351-1.351Zm0,0" transform="translate(-91.805 -120.747)" fill="#10b5df"/>
    <path id="Path_3437" data-name="Path 3437" d="M192.955,135.411h9.123a.955.955,0,1,0,0-1.911h-9.123a.955.955,0,1,0,0,1.911Zm0,0" transform="translate(-173.659 -120.747)" fill="#10b5df"/>
    <path id="Path_3438" data-name="Path 3438" d="M192.955,175.411h4.323a.955.955,0,1,0,0-1.911h-4.323a.955.955,0,1,0,0,1.911Zm0,0" transform="translate(-173.659 -156.926)" fill="#10b5df"/>
    <path id="Path_3439" data-name="Path 3439" d="M106.2,237.78l-2.49,2.49-.575-.575a.955.955,0,0,0-1.351,1.351l1.251,1.251a.956.956,0,0,0,1.351,0l3.166-3.166a.955.955,0,1,0-1.351-1.351Zm0,0" transform="translate(-91.805 -214.812)" fill="#10b5df"/>
    <path id="Path_3440" data-name="Path 3440" d="M192.955,279.411h4.323a.955.955,0,1,0,0-1.911h-4.323a.955.955,0,1,0,0,1.911Zm0,0" transform="translate(-173.659 -250.991)" fill="#10b5df"/>
    <path id="Path_3441" data-name="Path 3441" d="M106.2,342.78l-2.49,2.491-.575-.575a.955.955,0,0,0-1.351,1.351l1.251,1.251a.956.956,0,0,0,1.351,0l3.166-3.166a.955.955,0,1,0-1.351-1.351Zm0,0" transform="translate(-91.805 -309.781)" fill="#10b5df"/>
    <path id="Path_3442" data-name="Path 3442" d="M192.955,344.411h9.123a.955.955,0,1,0,0-1.911h-9.123a.955.955,0,1,0,0,1.911Zm0,0" transform="translate(-173.659 -309.781)" fill="#10b5df"/>
    <path id="Path_3443" data-name="Path 3443" d="M192.955,384.411h4.323a.955.955,0,1,0,0-1.911h-4.323a.955.955,0,1,0,0,1.911Zm0,0" transform="translate(-173.659 -345.96)" fill="#10b5df"/>
    <path id="Path_3444" data-name="Path 3444" d="M48.91,24.456A10.424,10.424,0,0,0,38.593,14.044V7.595a4.782,4.782,0,0,0-4.776-4.776H23.737A4.788,4.788,0,0,0,19.38,0h-.168a4.788,4.788,0,0,0-4.357,2.818H4.776A4.782,4.782,0,0,0,0,7.595v36.54a4.782,4.782,0,0,0,4.776,4.776H33.816a4.782,4.782,0,0,0,4.776-4.776V34.867a10.369,10.369,0,0,0,6.732-2.556.93.93,0,0,0,.144-.128,10.387,10.387,0,0,0,3.441-7.727Zm-1.911,0A8.463,8.463,0,0,1,45.105,29.8a7.481,7.481,0,0,0-3.685-3.406,3.9,3.9,0,0,0,1-2.611v-.741a3.921,3.921,0,1,0-7.843,0v.741a3.9,3.9,0,0,0,1,2.611A7.481,7.481,0,0,0,31.889,29.8,8.5,8.5,0,1,1,47,24.456ZM33.342,31.212a5.542,5.542,0,0,1,10.31,0,8.483,8.483,0,0,1-10.31,0Zm3.145-7.429v-.741a2.011,2.011,0,1,1,4.022,0v.741a2.011,2.011,0,0,1-4.022,0Zm.2-16.188V14.2a10.33,10.33,0,0,0-2.675.86v-6.7a.955.955,0,0,0-.955-.955H27.894V5.422a2.586,2.586,0,0,0-.094-.693h6.017a2.869,2.869,0,0,1,2.866,2.866ZM15.525,4.729a.955.955,0,0,0,.922-.705,2.87,2.87,0,0,1,2.765-2.113h.168a2.87,2.87,0,0,1,2.765,2.113.955.955,0,0,0,.922.705H25.29a.694.694,0,0,1,.693.693V7.4H12.609V5.422a.694.694,0,0,1,.693-.693ZM33.816,47H4.776A2.869,2.869,0,0,1,1.91,44.135V7.595A2.869,2.869,0,0,1,4.776,4.729h6.017a2.586,2.586,0,0,0-.094.693V7.4H5.54a.955.955,0,0,0-.955.955V43.37a.955.955,0,0,0,.955.955h9.935a.955.955,0,0,0,0-1.911H6.5V9.314H32.1v6.934a10.421,10.421,0,0,0-3.861,6.44H19.3a.955.955,0,1,0,0,1.911h8.79a10.387,10.387,0,0,0,3.441,7.585.931.931,0,0,0,.142.126q.209.182.428.353v9.752h-8.98a.955.955,0,0,0,0,1.911h9.935a.955.955,0,0,0,.955-.955V33.849a10.33,10.33,0,0,0,2.675.86v9.425A2.869,2.869,0,0,1,33.816,47Zm0,0" transform="translate(0)" fill="#10b5df"/>
    <path id="Path_3445" data-name="Path 3445" d="M192.955,40.661a.956.956,0,1,0-.675-.28A.963.963,0,0,0,192.955,40.661Zm0,0" transform="translate(-173.659 -35.048)" fill="#10b5df"/>
    <path id="Path_3446" data-name="Path 3446" d="M192.955,444a.955.955,0,1,0,.675.28A.963.963,0,0,0,192.955,444Zm0,0" transform="translate(-173.659 -401.585)" fill="#10b5df"/>
  </g>
</svg>
