<svg id="_002---API" data-name="002---API" xmlns="http://www.w3.org/2000/svg" width="52.831" height="48.425" viewBox="0 0 52.831 48.425">
  <path id="Shape" d="M21.755,52.322a1.622,1.622,0,0,1-.645-.135L15.6,49.9a1.64,1.64,0,0,1-.893-.9,1.594,1.594,0,0,1,.02-1.248l1.312-3.171a17.944,17.944,0,0,1-3.424-3.426l-3.2,1.322a1.608,1.608,0,0,1-1.245,0,1.627,1.627,0,0,1-.88-.876L5.009,36.07a1.621,1.621,0,0,1,.854-2.118l3.12-1.286a.881.881,0,0,1,.671,1.629L6.685,35.517,8.865,40.8l3.717-1.535a.881.881,0,0,1,1.057.308,16.21,16.21,0,0,0,3.984,3.984.88.88,0,0,1,.309,1.058L16.4,48.328l5.284,2.19,1.535-3.711a.88.88,0,0,1,.967-.53,15.908,15.908,0,0,0,5.624-.008.883.883,0,0,1,.969.529l1.543,3.717L37.6,48.327,36.062,44.61a.88.88,0,0,1,.312-1.059,16.033,16.033,0,0,0,3.981-3.974.879.879,0,0,1,1.057-.307l3.715,1.537,2.192-5.287L45.2,34.638a.88.88,0,0,1,.3-1.7.923.923,0,0,1,.347.067l2.263.942a1.61,1.61,0,0,1,.884.888,1.636,1.636,0,0,1,0,1.244L46.7,41.6a1.625,1.625,0,0,1-2.148.876l-3.178-1.316a17.754,17.754,0,0,1-3.423,3.419l1.32,3.2a1.577,1.577,0,0,1,.011,1.229,1.64,1.64,0,0,1-.9.9l-5.517,2.287a1.622,1.622,0,0,1-2.129-.886l-1.325-3.192a17.693,17.693,0,0,1-4.839.007l-1.32,3.189a1.629,1.629,0,0,1-1.5,1.011Zm-.124-1.682h0Zm.164-.074h0Zm15.857-2.1,0,.006Zm-21.3-.015v0Zm21.37-.17h0Zm-21.446,0h0Zm28.805-7.347h0ZM8.741,40.856h0Zm36.5,0h0Zm2.2-5.284h0ZM6.635,35.393h0Z" transform="translate(-0.584 -3.898)" fill="#10b5df"/>
  <path id="Shape-2" data-name="Shape" d="M28.317,42.684a13.274,13.274,0,0,1-12.33-8.49.88.88,0,1,1,1.645-.628,11.437,11.437,0,0,0,21.37,0,.88.88,0,1,1,1.645.628A13.274,13.274,0,0,1,28.317,42.684Z" transform="translate(-1.904 -3.945)" fill="#10b5df"/>
  <path id="Shape-3" data-name="Shape" d="M44.462,30.815H11.446a11.446,11.446,0,1,1,0-22.891l.223,0a13.205,13.205,0,0,1,24.208,0A10.14,10.14,0,0,1,44.983,14.1a8.364,8.364,0,0,1-.521,16.712ZM11.446,9.685a9.685,9.685,0,0,0,0,19.37H44.462a6.6,6.6,0,1,0,0-13.207h-.088a.88.88,0,0,1-.83-.587,8.354,8.354,0,0,0-7.937-5.576c-.086,0-.172,0-.257.006a.888.888,0,0,1-.884-.564,11.444,11.444,0,0,0-21.395.024.879.879,0,0,1-.912.565,7.089,7.089,0,0,0-.713-.031Z" transform="translate(0 0)" fill="#10b5df"/>
  <path id="Shape-4" data-name="Shape" d="M6.439,26.3a.878.878,0,0,1-.684-.326,7.9,7.9,0,0,1,2.79-12.118A.881.881,0,1,1,9.3,15.447a6.19,6.19,0,0,0-3.537,5.569,6.051,6.051,0,0,0,1.362,3.848A.88.88,0,0,1,6.439,26.3Z" transform="translate(-0.478 -1.646)" fill="#10b5df"/>
  <path id="Shape-5" data-name="Shape" d="M16.88,27.327a.881.881,0,0,1-.835-1.159L19.567,15.6a.881.881,0,0,1,1.671.557L17.716,26.724A.88.88,0,0,1,16.88,27.327Z" transform="translate(-1.913 -1.793)" fill="#10b5df"/>
  <path id="Shape-6" data-name="Shape" d="M24.4,27.327a.88.88,0,0,1-.835-.6L20.045,16.159a.881.881,0,1,1,1.671-.557l3.522,10.565a.881.881,0,0,1-.835,1.159Z" transform="translate(-2.391 -1.793)" fill="#10b5df"/>
  <path id="Shape-7" data-name="Shape" d="M22.653,23.761h-4.1a.88.88,0,0,1,0-1.761h4.1a.88.88,0,0,1,0,1.761Z" transform="translate(-2.113 -2.63)" fill="#10b5df"/>
  <path id="Shape-8" data-name="Shape" d="M27.88,27.326a.88.88,0,0,1-.88-.88V15.88a.88.88,0,1,1,1.761,0V26.446A.88.88,0,0,1,27.88,27.326Z" transform="translate(-3.228 -1.793)" fill="#10b5df"/>
  <path id="Shape-9" data-name="Shape" d="M31.4,22.044H27.88a.88.88,0,0,1-.88-.88V15.88a.88.88,0,0,1,.88-.88H31.4a3.522,3.522,0,1,1,0,7.044Zm-2.641-1.761H31.4a1.761,1.761,0,0,0,0-3.522H28.761Z" transform="translate(-3.228 -1.793)" fill="#10b5df"/>
  <path id="Shape-10" data-name="Shape" d="M39.88,27.326a.88.88,0,0,1-.88-.88V15.88a.88.88,0,1,1,1.761,0V26.446A.88.88,0,0,1,39.88,27.326Z" transform="translate(-4.663 -1.793)" fill="#10b5df"/>
  <path id="Shape-11" data-name="Shape" d="M42.163,16.761H36.88a.88.88,0,0,1,0-1.761h5.283a.88.88,0,1,1,0,1.761Z" transform="translate(-4.304 -1.793)" fill="#10b5df"/>
  <path id="Shape-12" data-name="Shape" d="M42.163,28.761H36.88a.88.88,0,1,1,0-1.761h5.283a.88.88,0,1,1,0,1.761Z" transform="translate(-4.304 -3.228)" fill="#10b5df"/>
  <path id="Shape-13" data-name="Shape" d="M18.88,11.044a.881.881,0,0,1-.835-1.159C19.984,4.067,24.838,4,25.044,4a.88.88,0,1,1,0,1.761c-.171,0-3.809.112-5.332,4.681a.88.88,0,0,1-.835.6Z" transform="translate(-2.152 -0.478)" fill="#10b5df"/>
</svg>
