<svg xmlns="http://www.w3.org/2000/svg" width="48.004" height="48.004" viewBox="0 0 48.004 48.004">
  <g id="data_security_loss" data-name="data security loss" transform="translate(0 0)">
    <path id="Path_3421" data-name="Path 3421" d="M10.84,0V20.66a3.183,3.183,0,0,1-.774-2.077V17.034L7.215,19.17a4.491,4.491,0,0,0-.9,6.286L7.9,27.563l1.239-.929-1.58-2.106a2.944,2.944,0,0,1,.589-4.12l.58-.434a4.728,4.728,0,0,0,3.38,3.206l1.057.27v-1a6.659,6.659,0,0,1,1.728-4.493,7.578,7.578,0,0,0,1.324,2.886,4.093,4.093,0,0,1,.132,4.728l-.731,1.1,1.288.859.731-1.1a5.641,5.641,0,0,0-.181-6.515,6.07,6.07,0,0,1-1.194-3.658V14.39l-2.229,2.229a8.237,8.237,0,0,0-1.642,2.347V7.742H46.456V34.067H24.672a12.791,12.791,0,0,0-.813-3.218,5.423,5.423,0,0,1-.283-3.086l.693-3.461-1.984.792a9.875,9.875,0,0,0-5.169,4.756l1.385.693a8.322,8.322,0,0,1,3.68-3.7l-.124.62a6.966,6.966,0,0,0,.364,3.965,11.243,11.243,0,0,1,.807,4.191,10.84,10.84,0,0,1-21.679,0,11.236,11.236,0,0,1,.808-4.192,6.979,6.979,0,0,0,.364-3.965l-.124-.62a8.327,8.327,0,0,1,3.68,3.7l1.385-.693a9.876,9.876,0,0,0-5.169-4.756L.509,24.3,1.2,27.763a5.42,5.42,0,0,1-.283,3.086A12.775,12.775,0,0,0,0,35.616a12.388,12.388,0,0,0,24.776,0H48V0Zm1.549,6.194V1.548H46.456V6.194Zm0,0" fill="#10b5df"/>
    <path id="Path_3422" data-name="Path 3422" d="M144,32h1.549v1.549H144Zm0,0" transform="translate(-130.063 -28.903)" fill="#10b5df"/>
    <path id="Path_3423" data-name="Path 3423" d="M176,32h1.549v1.549H176Zm0,0" transform="translate(-158.966 -28.903)" fill="#10b5df"/>
    <path id="Path_3424" data-name="Path 3424" d="M208,32h1.548v1.549H208Zm0,0" transform="translate(-187.869 -28.903)" fill="#10b5df"/>
    <path id="Path_3425" data-name="Path 3425" d="M60.21,298.377A9.434,9.434,0,0,0,56,306.244a6.968,6.968,0,1,0,13.937,0v-1.05a9.524,9.524,0,0,0-2.769-6.685l-1.44-1.44-.6,1.792a6.939,6.939,0,0,1-1.666,2.7l-.363.363a6.863,6.863,0,0,1-.907-3.418v-1.446Zm2.638,5.984,1.71-1.71a8.49,8.49,0,0,0,1.823-2.722,7.963,7.963,0,0,1,2.008,5.264v1.05a5.42,5.42,0,1,1-10.84,0,7.888,7.888,0,0,1,3.21-6.36,8.4,8.4,0,0,0,1.305,3.3Zm0,0" transform="translate(-50.58 -268.305)" fill="#10b5df"/>
    <path id="Path_3426" data-name="Path 3426" d="M312,96h11.614v1.549H312Zm0,0" transform="translate(-281.804 -86.709)" fill="#10b5df"/>
    <path id="Path_3427" data-name="Path 3427" d="M448,96h1.549v1.549H448Zm0,0" transform="translate(-404.641 -86.709)" fill="#10b5df"/>
    <path id="Path_3428" data-name="Path 3428" d="M312,128h11.614v1.549H312Zm0,0" transform="translate(-281.804 -115.612)" fill="#10b5df"/>
    <path id="Path_3429" data-name="Path 3429" d="M448,128h1.549v1.549H448Zm0,0" transform="translate(-404.641 -115.612)" fill="#10b5df"/>
    <path id="Path_3430" data-name="Path 3430" d="M312,160h11.614v1.549H312Zm0,0" transform="translate(-281.804 -144.515)" fill="#10b5df"/>
    <path id="Path_3431" data-name="Path 3431" d="M448,160h1.549v1.549H448Zm0,0" transform="translate(-404.641 -144.515)" fill="#10b5df"/>
    <path id="Path_3432" data-name="Path 3432" d="M336,220.388h12.388V208H336Zm1.549-10.84h9.291v9.291h-9.291Zm0,0" transform="translate(-303.481 -187.869)" fill="#10b5df"/>
    <path id="Path_3433" data-name="Path 3433" d="M194.84,96H184v7.743h10.84Zm-1.548,6.194h-7.743V97.549h7.743Zm0,0" transform="translate(-166.192 -86.709)" fill="#10b5df"/>
    <path id="Path_3434" data-name="Path 3434" d="M200,192h9.291v1.549H200Zm0,0" transform="translate(-180.643 -173.418)" fill="#10b5df"/>
    <path id="Path_3435" data-name="Path 3435" d="M200,224h9.291v1.549H200Zm0,0" transform="translate(-180.643 -202.321)" fill="#10b5df"/>
  </g>
</svg>
