<svg xmlns="http://www.w3.org/2000/svg" width="62.941" height="48.558" viewBox="0 0 62.941 48.558">
  <path id="Path_3402" data-name="Path 3402" d="M62.019,72.247a.922.922,0,0,0,.922-.922V61.266A2.769,2.769,0,0,0,60.175,58.5H50.832a.922.922,0,0,0,0,1.844h9.343a.923.923,0,0,1,.922.922V66H1.844V61.266a.923.923,0,0,1,.922-.922H47.144a.922.922,0,1,0,0-1.844H2.766A2.769,2.769,0,0,0,0,61.266v5.655a.922.922,0,0,0,.922.922H12.449v5.326a.922.922,0,0,0,.27.652l5.772,5.772a19.238,19.238,0,0,0-.569,4.784c0,.055,0,.108,0,.163H3.53a2.78,2.78,0,0,0-1.686-1.686V70.609a.922.922,0,1,0-1.844,0V83.618a.922.922,0,0,0,.922.922.922.922,0,0,1,0,1.844A.922.922,0,0,0,0,87.306v16.986a2.769,2.769,0,0,0,2.766,2.766H60.175a2.769,2.769,0,0,0,2.766-2.766V75.013a.922.922,0,0,0-.922-.922.922.922,0,1,1,0-1.844ZM61.1,104.292a.923.923,0,0,1-.922.922H2.766a.923.923,0,0,1-.922-.922v-.922H45.177a.922.922,0,1,0,0-1.844H1.844V88.07A2.78,2.78,0,0,0,3.53,86.384H18.147a8.174,8.174,0,0,0,2.6,4.3H18.414a.922.922,0,0,0-.652.27l-3.418,3.418H11.521a2.766,2.766,0,1,0,0,1.844h3.205a.922.922,0,0,0,.652-.27L18.8,92.53h4.456c.176.547.447,1.371.746,2.2.977,2.72,1.439,3.424,2.243,3.424.735,0,1.251-.635,2.176-1.85.114-.15.254-.334.386-.5.109.137.22.282.312.4.929,1.209,1.539,1.949,2.354,1.949s1.425-.741,2.354-1.949c.092-.12.2-.265.312-.4.133.168.273.352.387.5.925,1.216,1.442,1.85,2.176,1.85.8,0,1.266-.7,2.243-3.424.349-.971.66-1.93.826-2.452a10.478,10.478,0,0,0,1.963-1.212l6.211,6.211v5.167a.922.922,0,0,0,.922.922H61.1Zm-51.262-9a.922.922,0,1,1-.922-.922A.923.923,0,0,1,9.835,95.3Zm51.262,6.23H49.786V96.9a.922.922,0,0,0-.27-.652L43.065,89.8a7.98,7.98,0,0,0,1.729-3.412h9.085a2.766,2.766,0,1,0,0-1.844H45.014c0-.054,0-.108,0-.163a19.71,19.71,0,0,0-.42-4.14h4.425a.922.922,0,0,0,.652-.27l5.876-5.876h3.86A2.78,2.78,0,0,0,61.1,75.777ZM55.565,85.462a.922.922,0,1,1,.922.922A.923.923,0,0,1,55.565,85.462Zm5.532-14.9a2.78,2.78,0,0,0-1.686,1.686H55.169a.922.922,0,0,0-.652.27l-5.876,5.876H44.085a12.585,12.585,0,0,0-2.235-4.025.922.922,0,0,0-1.411,1.188c1.814,2.155,2.734,5.123,2.734,8.822a6.982,6.982,0,0,1-4.514,6.38.922.922,0,0,0-.528.581c-.505,1.644-1.171,3.534-1.614,4.532-.185-.228-.38-.485-.527-.679-.77-1.012-1.194-1.57-1.856-1.57s-1.047.52-1.773,1.464c-.233.3-.618.8-.891,1.086-.273-.281-.659-.783-.891-1.086-.725-.944-1.124-1.464-1.773-1.464s-1.086.558-1.856,1.57c-.147.194-.343.451-.527.679-.443-1-1.108-2.888-1.614-4.532a.922.922,0,0,0-.528-.581,6.982,6.982,0,0,1-4.514-6.38c0-7.932,4.266-12.481,11.7-12.481a12.926,12.926,0,0,1,6.182,1.4.922.922,0,1,0,.874-1.624,14.74,14.74,0,0,0-7.056-1.621c-4.118,0-7.545,1.311-9.91,3.791a12.112,12.112,0,0,0-2.421,3.789l-4.845-4.845V67.843H61.1Z" transform="translate(0 -58.5)" fill="#10b5df"/>
</svg>
