<svg xmlns="http://www.w3.org/2000/svg" width="48.317" height="48.434" viewBox="0 0 48.317 48.434">
  <g id="networking" transform="translate(-0.58 0)">
    <g id="Group_1063" data-name="Group 1063" transform="translate(20.703 16.96)">
      <g id="Group_1062" data-name="Group 1062">
        <path id="Path_3405" data-name="Path 3405" d="M204.1,168.121a4.035,4.035,0,1,0,4.035,4.035A4.035,4.035,0,0,0,204.1,168.121Zm0,6.456a2.421,2.421,0,1,1,2.421-2.421A2.421,2.421,0,0,1,204.1,174.577Z" transform="translate(-200.061 -168.121)" fill="#10b5df"/>
      </g>
    </g>
    <g id="Group_1065" data-name="Group 1065" transform="translate(15.861 0)">
      <g id="Group_1064" data-name="Group 1064" transform="translate(0 0)">
        <path id="Path_3406" data-name="Path 3406" d="M169.282,19.343l-1.115-.492q-.065-.233-.14-.452l.62-1.07a.807.807,0,0,0,.006-.8,9.041,9.041,0,0,0-1.161-1.624.806.806,0,0,0-.781-.248l-.93.213V9.7a4.845,4.845,0,0,0-2.507-4.239,3.228,3.228,0,1,0-4.67,0A4.845,4.845,0,0,0,156.1,9.7v5.176l-.93-.213a.806.806,0,0,0-.781.248,9.066,9.066,0,0,0-1.162,1.623.808.808,0,0,0,.006.8l.62,1.07q-.074.216-.139.446l-1.159.494a.807.807,0,0,0-.491.742v1.827a.807.807,0,0,0,.491.742l1.159.494c.043.154.089.3.139.446l-.62,1.07a.807.807,0,0,0-.006.8,9.063,9.063,0,0,0,1.161,1.624.805.805,0,0,0,.781.248l1.172-.268q.173.135.355.262l.113,1.243a.807.807,0,0,0,.465.659,8.706,8.706,0,0,0,1.872.629.81.81,0,0,0,.776-.263l.822-.954h.393l.822.954a.808.808,0,0,0,.776.263,8.722,8.722,0,0,0,1.872-.629.806.806,0,0,0,.464-.658l.114-1.244q.183-.127.355-.262l1.172.268a.806.806,0,0,0,.781-.248,9.094,9.094,0,0,0,1.161-1.623.808.808,0,0,0-.006-.8l-.62-1.07q.076-.219.14-.452l1.115-.492a.808.808,0,0,0,.481-.738V20.081A.808.808,0,0,0,169.282,19.343ZM160.938,1.626a1.614,1.614,0,1,1-1.614,1.614A1.614,1.614,0,0,1,160.938,1.626ZM157.71,9.7a3.228,3.228,0,0,1,6.456,0v2.891a8.557,8.557,0,0,0-1.433-.453.809.809,0,0,0-.776.263l-.822.954h-.393l-.822-.954a.81.81,0,0,0-.777-.263,8.559,8.559,0,0,0-1.433.453V9.7Zm10.439,11.686-.994.439a.808.808,0,0,0-.461.559,6.043,6.043,0,0,1-.3.975.807.807,0,0,0,.048.713l.574.99q-.2.3-.421.589L165.51,25.4a.8.8,0,0,0-.714.181,5.905,5.905,0,0,1-.806.6.807.807,0,0,0-.379.613l-.106,1.153q-.326.128-.65.221l-.74-.859a.807.807,0,0,0-.611-.28h-1.133a.808.808,0,0,0-.611.28l-.74.859c-.216-.062-.433-.136-.65-.221l-.105-1.152a.808.808,0,0,0-.38-.613,5.93,5.93,0,0,1-.805-.6.8.8,0,0,0-.714-.181l-1.081.247q-.226-.286-.421-.589l.574-.99a.808.808,0,0,0,.048-.713,6.016,6.016,0,0,1-.3-.975.807.807,0,0,0-.47-.563l-1.037-.442v-.761l1.037-.442a.807.807,0,0,0,.47-.563,6.039,6.039,0,0,1,.3-.975.808.808,0,0,0-.048-.713l-.574-.99q.2-.3.421-.589l1.081.247a.809.809,0,0,0,.714-.181,5.911,5.911,0,0,1,.806-.6.807.807,0,0,0,.379-.613l.106-1.153q.325-.128.65-.221l.74.859a.808.808,0,0,0,.612.28H161.5a.808.808,0,0,0,.611-.28l.74-.859c.216.062.433.136.65.221l.105,1.152a.808.808,0,0,0,.38.613,5.933,5.933,0,0,1,.805.6.808.808,0,0,0,.714.181l1.081-.248q.226.286.421.589l-.574.99a.808.808,0,0,0-.048.713,6.049,6.049,0,0,1,.3.975.809.809,0,0,0,.461.559l.994.439v.775Z" transform="translate(-152.061 0)" fill="#10b5df"/>
      </g>
    </g>
    <g id="Group_1067" data-name="Group 1067" transform="translate(36.037 35.521)">
      <g id="Group_1066" data-name="Group 1066">
        <path id="Path_3407" data-name="Path 3407" d="M356.1,352.121a4.035,4.035,0,1,0,4.035,4.035A4.035,4.035,0,0,0,356.1,352.121Zm0,6.456a2.421,2.421,0,1,1,2.421-2.421A2.421,2.421,0,0,1,356.1,358.577Z" transform="translate(-352.061 -352.121)" fill="#10b5df"/>
      </g>
    </g>
    <g id="Group_1069" data-name="Group 1069" transform="translate(31.195 18.561)">
      <g id="Group_1068" data-name="Group 1068">
        <path id="Path_3408" data-name="Path 3408" d="M321.28,203.343l-1.115-.492q-.065-.233-.14-.452l.62-1.07a.807.807,0,0,0,.006-.8,9.04,9.04,0,0,0-1.161-1.624.808.808,0,0,0-.781-.248l-.93.213V193.7a4.845,4.845,0,0,0-2.507-4.239,3.228,3.228,0,1,0-4.67,0,4.845,4.845,0,0,0-2.507,4.239v5.176l-.93-.213a.809.809,0,0,0-.781.248,9.069,9.069,0,0,0-1.162,1.623.808.808,0,0,0,.006.8l.62,1.07q-.074.216-.139.446l-1.159.494a.807.807,0,0,0-.491.742v1.827a.807.807,0,0,0,.491.742l1.159.494c.043.154.089.3.139.446l-.62,1.07a.807.807,0,0,0-.006.8,9.066,9.066,0,0,0,1.161,1.624.8.8,0,0,0,.781.248l1.172-.268q.173.135.355.262l.113,1.243a.807.807,0,0,0,.465.659,8.7,8.7,0,0,0,1.872.629.807.807,0,0,0,.776-.263l.822-.954h.393l.822.954a.808.808,0,0,0,.776.263,8.722,8.722,0,0,0,1.872-.629.806.806,0,0,0,.464-.658l.114-1.244q.183-.126.355-.262l1.172.268a.8.8,0,0,0,.781-.248,9.1,9.1,0,0,0,1.161-1.623.808.808,0,0,0-.006-.8l-.62-1.07q.076-.219.14-.452l1.115-.492a.808.808,0,0,0,.481-.738v-1.827A.807.807,0,0,0,321.28,203.343Zm-8.344-17.717a1.614,1.614,0,1,1-1.614,1.614A1.614,1.614,0,0,1,312.937,185.626Zm-3.228,8.07a3.228,3.228,0,1,1,6.456,0v2.891a8.557,8.557,0,0,0-1.433-.453.811.811,0,0,0-.776.263l-.822.954h-.393l-.822-.954a.811.811,0,0,0-.777-.263,8.561,8.561,0,0,0-1.433.453V193.7Zm10.439,11.686-.994.439a.808.808,0,0,0-.461.559,6.037,6.037,0,0,1-.3.975.807.807,0,0,0,.048.713l.574.99q-.2.3-.421.589l-1.081-.247a.8.8,0,0,0-.714.181,5.908,5.908,0,0,1-.806.6.807.807,0,0,0-.379.613l-.106,1.153q-.326.128-.65.221l-.74-.859a.807.807,0,0,0-.611-.28H312.37a.808.808,0,0,0-.611.28l-.74.859c-.216-.062-.433-.136-.65-.221l-.105-1.152a.808.808,0,0,0-.379-.613,5.922,5.922,0,0,1-.805-.6.8.8,0,0,0-.714-.181l-1.081.247q-.226-.286-.421-.589l.574-.99a.808.808,0,0,0,.048-.713,6.015,6.015,0,0,1-.3-.975.807.807,0,0,0-.471-.563l-1.037-.442v-.76l1.037-.442a.807.807,0,0,0,.471-.563,6.041,6.041,0,0,1,.3-.975.807.807,0,0,0-.048-.713l-.574-.99q.2-.3.421-.589l1.081.247a.806.806,0,0,0,.714-.181,5.912,5.912,0,0,1,.806-.6.807.807,0,0,0,.379-.613l.106-1.153q.325-.128.65-.221l.74.859a.808.808,0,0,0,.612.28H313.5a.808.808,0,0,0,.611-.28l.74-.859c.216.062.433.136.65.221l.105,1.152a.808.808,0,0,0,.38.613,5.932,5.932,0,0,1,.805.6.806.806,0,0,0,.714.181l1.081-.248q.226.286.421.589l-.574.99a.808.808,0,0,0-.048.713,6.052,6.052,0,0,1,.3.975.809.809,0,0,0,.461.559l.994.439Z" transform="translate(-304.059 -184)" fill="#10b5df"/>
      </g>
    </g>
    <g id="Group_1071" data-name="Group 1071" transform="translate(5.37 35.521)">
      <g id="Group_1070" data-name="Group 1070">
        <path id="Path_3409" data-name="Path 3409" d="M52.1,352.121a4.035,4.035,0,1,0,4.035,4.035A4.035,4.035,0,0,0,52.1,352.121Zm0,6.456a2.421,2.421,0,1,1,2.421-2.421A2.421,2.421,0,0,1,52.1,358.577Z" transform="translate(-48.061 -352.121)" fill="#10b5df"/>
      </g>
    </g>
    <g id="Group_1073" data-name="Group 1073" transform="translate(0.58 18.561)">
      <g id="Group_1072" data-name="Group 1072" transform="translate(0)">
        <path id="Path_3410" data-name="Path 3410" d="M17.749,203.343l-1.115-.492q-.065-.233-.14-.452l.62-1.07a.807.807,0,0,0,.006-.8,9.062,9.062,0,0,0-1.161-1.624.808.808,0,0,0-.781-.248l-.93.213V193.7a4.845,4.845,0,0,0-2.507-4.239,3.228,3.228,0,1,0-4.67,0A4.845,4.845,0,0,0,4.563,193.7v5.176l-.93-.213a.809.809,0,0,0-.781.248,9.068,9.068,0,0,0-1.162,1.623.808.808,0,0,0,.006.8l.62,1.07q-.076.219-.14.452l-1.114.492a.808.808,0,0,0-.481.738v1.827a.808.808,0,0,0,.481.738l1.115.492q.065.233.14.452l-.62,1.07a.807.807,0,0,0-.006.8,9.062,9.062,0,0,0,1.161,1.624.8.8,0,0,0,.781.248l1.172-.268q.173.135.355.262l.113,1.243a.807.807,0,0,0,.465.659,8.7,8.7,0,0,0,1.872.629.807.807,0,0,0,.776-.263l.822-.954H9.6l.822.954a.808.808,0,0,0,.776.263,8.718,8.718,0,0,0,1.872-.629.806.806,0,0,0,.464-.658l.114-1.244q.183-.127.355-.262l1.172.268a.8.8,0,0,0,.781-.248,9.087,9.087,0,0,0,1.161-1.623.808.808,0,0,0-.006-.8l-.62-1.07q.076-.219.14-.452l1.115-.492a.808.808,0,0,0,.481-.738v-1.827A.808.808,0,0,0,17.749,203.343ZM9.4,185.626a1.614,1.614,0,1,1-1.614,1.614A1.614,1.614,0,0,1,9.4,185.626ZM6.177,193.7a3.228,3.228,0,1,1,6.456,0v2.891a8.558,8.558,0,0,0-1.433-.453.81.81,0,0,0-.776.263l-.822.954H9.208l-.822-.954a.811.811,0,0,0-.777-.263,8.56,8.56,0,0,0-1.433.453V193.7Zm10.439,11.686-.994.439a.808.808,0,0,0-.461.559,6,6,0,0,1-.3.975.807.807,0,0,0,.048.713l.574.99q-.2.3-.421.589l-1.081-.247a.8.8,0,0,0-.714.181,5.9,5.9,0,0,1-.806.6.807.807,0,0,0-.379.613l-.106,1.153q-.326.128-.65.221l-.74-.859a.807.807,0,0,0-.611-.28H8.838a.808.808,0,0,0-.611.28l-.74.859c-.216-.062-.433-.136-.65-.221l-.105-1.152a.808.808,0,0,0-.38-.613,5.928,5.928,0,0,1-.805-.6.8.8,0,0,0-.714-.181l-1.081.247q-.226-.286-.421-.589l.574-.99a.808.808,0,0,0,.048-.713,6.017,6.017,0,0,1-.3-.975.808.808,0,0,0-.461-.559l-.994-.439v-.775l.994-.439a.808.808,0,0,0,.461-.559,6,6,0,0,1,.3-.975.807.807,0,0,0-.048-.713l-.574-.99q.2-.3.421-.589l1.081.247a.807.807,0,0,0,.714-.181,5.918,5.918,0,0,1,.806-.6.807.807,0,0,0,.379-.613l.106-1.153q.325-.128.65-.221l.74.859a.808.808,0,0,0,.612.28H9.972a.808.808,0,0,0,.611-.28l.74-.859c.216.062.433.136.65.221l.105,1.152a.808.808,0,0,0,.38.613,5.938,5.938,0,0,1,.805.6.805.805,0,0,0,.714.181l1.081-.248q.226.286.421.589l-.574.99a.808.808,0,0,0-.048.713,6.007,6.007,0,0,1,.3.975.808.808,0,0,0,.461.559l.994.439v.775Z" transform="translate(-0.58 -184)" fill="#10b5df"/>
      </g>
    </g>
    <g id="Group_1075" data-name="Group 1075" transform="translate(5.098 6.567)">
      <g id="Group_1074" data-name="Group 1074">
        <path id="Path_3411" data-name="Path 3411" d="M56.524,65.1a21.815,21.815,0,0,0-11.158,10.63l1.454.7a20.2,20.2,0,0,1,10.333-9.844Z" transform="translate(-45.366 -65.098)" fill="#10b5df"/>
      </g>
    </g>
    <g id="Group_1077" data-name="Group 1077" transform="translate(18.259 45.803)">
      <g id="Group_1076" data-name="Group 1076">
        <path id="Path_3412" data-name="Path 3412" d="M188.657,454.043a20.385,20.385,0,0,1-12.343.11l-.479,1.542a21.91,21.91,0,0,0,13.329-.119Z" transform="translate(-175.835 -454.043)" fill="#10b5df"/>
      </g>
    </g>
    <g id="Group_1079" data-name="Group 1079" transform="translate(32.39 6.476)">
      <g id="Group_1078" data-name="Group 1078">
        <path id="Path_3413" data-name="Path 3413" d="M316.525,64.2l-.612,1.494a20.154,20.154,0,0,1,10.635,10.139l1.462-.683A21.763,21.763,0,0,0,316.525,64.2Z" transform="translate(-315.913 -64.199)" fill="#10b5df"/>
      </g>
    </g>
  </g>
</svg>
