<svg xmlns="http://www.w3.org/2000/svg" width="50.244" height="50.541" viewBox="0 0 50.244 50.541">
  <g id="misconfiguration_of_the_cloud_platform" data-name="misconfiguration of the cloud platform" transform="translate(-1.502)">
    <path id="Path_3297" data-name="Path 3297" d="M130.76,9.637a10.2,10.2,0,0,0-1.785.157,14.962,14.962,0,0,0-28.528,1.417l1.439.371a13.593,13.593,0,0,1,13.438-10.1c6.144.175,10.86,4.363,12.664,10.06a9.084,9.084,0,0,1,8.22,1.511,8.7,8.7,0,0,1,3.145,7.692,8.8,8.8,0,0,1-5.1,6.944,11.59,11.59,0,0,1-5.1.664v1.486a13.815,13.815,0,0,0,5.178-.571,9.789,9.789,0,0,0,6.348-7.372A10.241,10.241,0,0,0,130.76,9.637Z" transform="translate(-89.144 0)" fill="#10b5df"/>
    <path id="Path_3298" data-name="Path 3298" d="M8.607,144.579A7.167,7.167,0,0,1,3.96,134.064,7.133,7.133,0,0,1,15.4,133l1.08-1.021a8.791,8.791,0,0,0-4.679-2.743v0c-6.294-1.162-11.9,4.808-9.878,11.035a8.63,8.63,0,0,0,6.4,5.763,26.669,26.669,0,0,0,4.937.167v-1.486a30.252,30.252,0,0,1-4.65-.139Z" transform="translate(0 -116.306)" fill="#10b5df"/>
    <path id="Path_3299" data-name="Path 3299" d="M165.178,375.584h1.486v1.486h-1.486Z" transform="translate(-147.464 -338.382)" fill="#10b5df"/>
    <path id="Path_3300" data-name="Path 3300" d="M195.178,375.584h1.486v1.486h-1.486Z" transform="translate(-174.492 -338.382)" fill="#10b5df"/>
    <path id="Path_3301" data-name="Path 3301" d="M285.178,375.584h5.943v1.486h-5.943Z" transform="translate(-255.577 -338.382)" fill="#10b5df"/>
    <path id="Path_3302" data-name="Path 3302" d="M248.174,435.251h1.486v1.486h-1.486Z" transform="translate(-222.239 -392.139)" fill="#10b5df"/>
    <path id="Path_3303" data-name="Path 3303" d="M165.178,465.251h1.486v1.486h-1.486Z" transform="translate(-147.464 -419.167)" fill="#10b5df"/>
    <path id="Path_3304" data-name="Path 3304" d="M195.178,465.251h1.486v1.486h-1.486Z" transform="translate(-174.492 -419.167)" fill="#10b5df"/>
    <path id="Path_3305" data-name="Path 3305" d="M285.178,465.251h5.943v1.486h-5.943Z" transform="translate(-255.577 -419.167)" fill="#10b5df"/>
    <path id="Path_3306" data-name="Path 3306" d="M248.174,315.917h1.486V317.4h-1.486Z" transform="translate(-222.239 -284.625)" fill="#10b5df"/>
    <path id="Path_3307" data-name="Path 3307" d="M165.178,285.918h1.486V287.4h-1.486Z" transform="translate(-147.464 -257.597)" fill="#10b5df"/>
    <path id="Path_3308" data-name="Path 3308" d="M195.178,285.918h1.486V287.4h-1.486Z" transform="translate(-174.492 -257.597)" fill="#10b5df"/>
    <path id="Path_3309" data-name="Path 3309" d="M285.178,285.918h5.943V287.4h-5.943Z" transform="translate(-255.577 -257.597)" fill="#10b5df"/>
    <path id="Path_3310" data-name="Path 3310" d="M152.415,60.362h2.309a2.241,2.241,0,1,0-.027-1.486h-3.768V66.3h-1.486V55.37l1.627-1.627a2.242,2.242,0,1,0-1.018-1.084l-2.1,2.1V66.3h-1.486V50.462l-1.978-1.978a2.244,2.244,0,1,0-.961,1.141l1.453,1.453V66.3H143.5V60.3h-3.775a2.24,2.24,0,1,0,.028,1.486h2.261V66.3h-6.669V73.73h1.519v1.453h-1.519v7.429h1.519v1.453h-1.519v7.429h23.739V84.064h-1.42V82.611h1.42V75.182h-1.42V73.73h1.42V66.3h-6.669Zm4.408-1.536a.754.754,0,1,1-.754.754A.755.755,0,0,1,156.823,58.826ZM152.1,51a.754.754,0,1,1-.754.754A.755.755,0,0,1,152.1,51Zm-10.459-3.307a.754.754,0,1,1,.754.754A.755.755,0,0,1,141.643,47.694Zm-4.016,14.139a.754.754,0,1,1,.754-.754A.755.755,0,0,1,137.627,61.833Zm-.8,14.835H157.6v4.457H136.831Zm19.348,7.4h-6.686V85.55H157.6v4.457H136.831V85.55h8.2V84.064h-6.686V82.611h17.829Zm1.42-11.82h-8.106V73.73h6.686v1.453H138.349V73.73h6.686V72.244h-8.2V67.787H157.6Z" transform="translate(-120.586 -40.952)" fill="#10b5df"/>
  </g>
</svg>
