<svg xmlns="http://www.w3.org/2000/svg" width="41.236" height="44.089" viewBox="0 0 41.236 44.089">
  <g id="budget" transform="translate(-16.567)">
    <path id="Path_3450" data-name="Path 3450" d="M101.472,325.055a.782.782,0,0,1,.781.781.646.646,0,1,0,1.292,0,2.076,2.076,0,0,0-1.427-1.969V323.7a.646.646,0,1,0-1.292,0v.171a2.072,2.072,0,0,0,.646,4.041.781.781,0,1,1-.781.781.646.646,0,0,0-1.292,0,2.076,2.076,0,0,0,1.427,1.969v.171a.646.646,0,0,0,1.292,0v-.171a2.072,2.072,0,0,0-.646-4.041.781.781,0,1,1,0-1.561Z" transform="translate(-75.7 -295.231)" fill="#10b5df"/>
    <path id="Path_3451" data-name="Path 3451" d="M61.481,301.253a.646.646,0,0,0-1.1.672,5.058,5.058,0,1,1-1.651-1.67.646.646,0,1,0,.684-1.1,6.35,6.35,0,1,0,2.07,2.094Z" transform="translate(-30.279 -272.52)" fill="#10b5df"/>
    <path id="Path_3452" data-name="Path 3452" d="M55.731,4.28H53.523V2.072A2.075,2.075,0,0,0,51.451,0H24.346a2.075,2.075,0,0,0-2.073,2.072V9.34a.646.646,0,0,0,1.292,0V2.072a.782.782,0,0,1,.781-.781H51.451a.782.782,0,0,1,.781.781V37.737a.782.782,0,0,1-.781.781H32.3a9.192,9.192,0,0,0,1.928-10.131.65.65,0,0,0,.107.01h5.706a.646.646,0,1,0,0-1.292H34.332a.645.645,0,0,0-.574.35,9.2,9.2,0,0,0-10.193-4.362V11.924a.646.646,0,1,0-1.292,0V23.517a9.205,9.205,0,0,0,3.5,17.719c.263,0,.523-.012.781-.033v.814a2.075,2.075,0,0,0,2.072,2.072H55.731A2.075,2.075,0,0,0,57.8,42.017V6.352A2.075,2.075,0,0,0,55.731,4.28ZM25.772,39.945a7.914,7.914,0,1,1,7.914-7.914A7.923,7.923,0,0,1,25.772,39.945Zm30.739,2.072a.782.782,0,0,1-.781.781H28.626a.782.782,0,0,1-.781-.781V41a9.154,9.154,0,0,0,2.845-1.191H51.451a2.075,2.075,0,0,0,2.072-2.072V5.571h2.207a.782.782,0,0,1,.781.781Z" fill="#10b5df"/>
    <path id="Path_3453" data-name="Path 3453" d="M207.317,33.133h-7.182a1.336,1.336,0,0,0-1.335,1.335v1.475a1.336,1.336,0,0,0,1.335,1.335h7.182a1.336,1.336,0,0,0,1.335-1.335V34.468A1.336,1.336,0,0,0,207.317,33.133Zm.043,2.81a.043.043,0,0,1-.043.043h-7.182a.043.043,0,0,1-.043-.043V34.468a.043.043,0,0,1,.043-.043h7.182a.043.043,0,0,1,.043.043Z" transform="translate(-166.541 -30.28)" fill="#10b5df"/>
    <path id="Path_3454" data-name="Path 3454" d="M288.723,364.467h-5.755a1.336,1.336,0,0,0-1.335,1.335v1.475a1.336,1.336,0,0,0,1.335,1.335h5.755a1.336,1.336,0,0,0,1.335-1.335V365.8a1.336,1.336,0,0,0-1.335-1.335Zm.043,2.81a.043.043,0,0,1-.043.043h-5.755a.043.043,0,0,1-.043-.043V365.8a.043.043,0,0,1,.043-.043h5.755a.043.043,0,0,1,.043.043Z" transform="translate(-242.241 -333.082)" fill="#10b5df"/>
    <path id="Path_3455" data-name="Path 3455" d="M228.852,115.967H216.013a.646.646,0,1,0,0,1.292h12.839a.646.646,0,1,0,0-1.292Z" transform="translate(-181.681 -105.981)" fill="#10b5df"/>
    <path id="Path_3456" data-name="Path 3456" d="M150.435,120.112h1.475a1.336,1.336,0,0,0,1.335-1.335V117.3a1.336,1.336,0,0,0-1.335-1.335h-1.475A1.336,1.336,0,0,0,149.1,117.3v1.475A1.336,1.336,0,0,0,150.435,120.112Zm-.043-2.81a.043.043,0,0,1,.043-.043h1.475a.043.043,0,0,1,.043.043v1.475a.043.043,0,0,1-.043.043h-1.475a.043.043,0,0,1-.043-.043Z" transform="translate(-121.12 -105.981)" fill="#10b5df"/>
    <path id="Path_3457" data-name="Path 3457" d="M216.012,150.392h5.706a.646.646,0,0,0,0-1.292h-5.706a.646.646,0,1,0,0,1.292Z" transform="translate(-181.68 -136.261)" fill="#10b5df"/>
    <path id="Path_3458" data-name="Path 3458" d="M228.852,198.8H216.013a.646.646,0,1,0,0,1.292h12.839a.646.646,0,0,0,0-1.292Z" transform="translate(-181.681 -181.681)" fill="#10b5df"/>
    <path id="Path_3459" data-name="Path 3459" d="M149.1,201.61a1.336,1.336,0,0,0,1.335,1.335h1.475a1.336,1.336,0,0,0,1.335-1.335v-1.475a1.336,1.336,0,0,0-1.335-1.335h-1.475a1.336,1.336,0,0,0-1.335,1.335Zm1.292-1.475a.043.043,0,0,1,.043-.043h1.475a.043.043,0,0,1,.043.043v1.475a.043.043,0,0,1-.043.043h-1.475a.043.043,0,0,1-.043-.043Z" transform="translate(-121.12 -181.681)" fill="#10b5df"/>
    <path id="Path_3460" data-name="Path 3460" d="M216.012,233.225h5.706a.646.646,0,1,0,0-1.292h-5.706a.646.646,0,1,0,0,1.292Z" transform="translate(-181.68 -211.961)" fill="#10b5df"/>
    <path id="Path_3461" data-name="Path 3461" d="M228.852,281.633H216.013a.646.646,0,1,0,0,1.292h12.839a.646.646,0,0,0,0-1.292Z" transform="translate(-181.681 -257.381)" fill="#10b5df"/>
  </g>
</svg>
