<svg xmlns="http://www.w3.org/2000/svg" width="51.245" height="42.704" viewBox="0 0 51.245 42.704">
  <g id="cyber-attack" transform="translate(-16 -56)">
    <path id="Path_3380" data-name="Path 3380" d="M66.391,179.331H62.974V164.811H61.266v14.519H21.979v-20.5h20.5v-1.708h-20.5v-2.562a.855.855,0,0,1,.854-.854H45.039V152H22.833a2.565,2.565,0,0,0-2.562,2.562v24.768H16.854a.854.854,0,0,0-.854.854v1.708a2.565,2.565,0,0,0,2.562,2.562h46.12a2.565,2.565,0,0,0,2.562-2.562v-1.708A.854.854,0,0,0,66.391,179.331Zm-.854,2.562a.855.855,0,0,1-.854.854H18.562a.855.855,0,0,1-.854-.854v-.854H37.852l.6.6a.854.854,0,0,0,.6.25h5.124a.854.854,0,0,0,.6-.25l.6-.6H65.537Z" transform="translate(0 -85.751)" fill="#10b5df"/>
    <ellipse id="Ellipse_87" data-name="Ellipse 87" cx="0.628" cy="1.256" rx="0.628" ry="1.256" transform="translate(23.536 68.56)" fill="#10b5df"/>
    <circle id="Ellipse_88" data-name="Ellipse 88" cx="1.256" cy="1.256" r="1.256" transform="translate(24.792 68.56)" fill="#10b5df"/>
    <circle id="Ellipse_89" data-name="Ellipse 89" cx="1.256" cy="1.256" r="1.256" transform="translate(27.304 68.56)" fill="#10b5df"/>
    <path id="Path_3381" data-name="Path 3381" d="M96,240h2.562v1.708H96Z" transform="translate(-71.459 -164.356)" fill="#10b5df"/>
    <path id="Path_3382" data-name="Path 3382" d="M144,240h10.249v1.708H144Z" transform="translate(-114.335 -164.356)" fill="#10b5df"/>
    <path id="Path_3383" data-name="Path 3383" d="M96,360h2.562v1.708H96Z" transform="translate(-71.459 -271.545)" fill="#10b5df"/>
    <path id="Path_3384" data-name="Path 3384" d="M144,360h7.687v1.708H144Z" transform="translate(-114.335 -271.545)" fill="#10b5df"/>
    <path id="Path_3385" data-name="Path 3385" d="M96,280h2.562v1.708H96Z" transform="translate(-71.459 -200.086)" fill="#10b5df"/>
    <path id="Path_3386" data-name="Path 3386" d="M208,280h8.541v1.708H208Z" transform="translate(-171.502 -200.086)" fill="#10b5df"/>
    <path id="Path_3387" data-name="Path 3387" d="M144,280h5.124v1.708H144Z" transform="translate(-114.335 -200.086)" fill="#10b5df"/>
    <path id="Path_3388" data-name="Path 3388" d="M96,320h2.562v1.708H96Z" transform="translate(-71.459 -235.815)" fill="#10b5df"/>
    <path id="Path_3389" data-name="Path 3389" d="M248,320h7.687v1.708H248Z" transform="translate(-207.232 -235.815)" fill="#10b5df"/>
    <path id="Path_3390" data-name="Path 3390" d="M144,320h9.395v1.708H144Z" transform="translate(-114.335 -235.815)" fill="#10b5df"/>
    <path id="Path_3391" data-name="Path 3391" d="M291.472,65.3a7.322,7.322,0,0,0,4.443-6.738h-1.708A5.616,5.616,0,0,1,290.8,63.73l-1.277.547a8.615,8.615,0,0,0-.518-1.31,5.094,5.094,0,0,0,2.641-4.482V56.854h-1.708v1.631a3.4,3.4,0,0,1-1.857,3.039,6.6,6.6,0,0,0-.7-.741V59.416a3.416,3.416,0,0,0-6.833,0v1.367a6.6,6.6,0,0,0-.7.741,3.4,3.4,0,0,1-1.857-3.039V56.854h-1.708v1.631a5.094,5.094,0,0,0,2.641,4.482,8.616,8.616,0,0,0-.518,1.31l-1.277-.547a5.616,5.616,0,0,1-3.407-5.168H272a7.322,7.322,0,0,0,4.443,6.738l1.6.685c-.025.221-.041.446-.051.671L275.833,68.2A9.17,9.17,0,0,0,272,75.644h1.708a7.459,7.459,0,0,1,3.117-6.058l1.278-.913a9.255,9.255,0,0,0,.419,1.652l-1.056.792a5.149,5.149,0,0,0-2.05,4.1v2.135h1.708V75.217a3.433,3.433,0,0,1,1.367-2.733l.784-.588q.177.285.376.551a5.13,5.13,0,0,0,8.614,0q.2-.265.376-.551l.784.588a3.433,3.433,0,0,1,1.367,2.733v2.135H292.5V75.217a5.149,5.149,0,0,0-2.05-4.1l-1.056-.792a9.263,9.263,0,0,0,.419-1.651l1.278.913a7.459,7.459,0,0,1,3.117,6.058h1.708a9.17,9.17,0,0,0-3.833-7.448l-2.157-1.541c-.01-.226-.026-.45-.051-.671Zm-9.223-5.884a1.708,1.708,0,0,1,3.416,0v.315a4.794,4.794,0,0,0-3.416,0Zm1.708,13.665c-2.355,0-4.27-2.682-4.27-5.979s1.916-5.979,4.27-5.979,4.27,2.682,4.27,5.979S286.312,73.082,283.957,73.082Z" transform="translate(-228.67)" fill="#10b5df"/>
  </g>
</svg>
