<svg id="urban-property" xmlns="http://www.w3.org/2000/svg" width="39.798" height="39.798" viewBox="0 0 39.798 39.798">
  <path id="Path_3284" data-name="Path 3284" d="M480,480h1.284v1.284H480Zm0,0" transform="translate(-441.486 -441.486)" fill="#10b5df"/>
  <path id="Path_3285" data-name="Path 3285" d="M0,480H1.284v1.284H0Zm0,0" transform="translate(0 -441.486)" fill="#10b5df"/>
  <path id="Path_3286" data-name="Path 3286" d="M96,182.419h3.851V176H96Zm1.284-5.135h1.284v3.851H97.284Zm0,0" transform="translate(-88.297 -161.878)" fill="#10b5df"/>
  <path id="Path_3287" data-name="Path 3287" d="M160,176v6.419h3.851V176Zm2.568,5.135h-1.284v-3.851h1.284Zm0,0" transform="translate(-147.162 -161.878)" fill="#10b5df"/>
  <path id="Path_3288" data-name="Path 3288" d="M65.379,29.527H64.1V26.96H62.169V8.987H59.6V6.419H57.034V3.851H54.467V0H53.183V3.851H50.615V6.419H48.048V8.987H46.764V7.7H36.493v3.851H34.568v10.27H33.284V38.514H32V39.8H66.663V38.514H65.379ZM64.1,30.811v7.7H55.108v-7.7Zm-1.284-1.284H56.392V28.243h6.419ZM51.9,5.135H55.75V6.419H51.9ZM49.331,7.7h8.987V8.987H49.331ZM60.886,10.27V26.96H55.108v2.568H53.825v8.987H52.541V29.527H51.257V26.96H49.973V21.824H48.689V11.554H46.764V10.27ZM39.7,32.095H37.135V30.811H39.7Zm6.419-5.135H37.135V25.676h8.987ZM42.27,28.243h7.7v1.284h-7.7Zm8.987,2.568v7.7H40.987v-7.7ZM37.777,8.987h7.7v2.568h-7.7Zm-1.926,3.851H47.406v8.987H35.851Zm-1.284,10.27H48.689V26.96H47.406V24.392H35.851v3.851h5.135v1.284H35.851v3.851H39.7v5.135H34.568Zm0,0" transform="translate(-29.432)" fill="#10b5df"/>
  <path id="Path_3289" data-name="Path 3289" d="M167.7,400H160v3.851h7.7Zm-6.419,1.284h1.926v1.284h-1.926Zm5.135,1.284h-1.926v-1.284h1.926Zm0,0" transform="translate(-147.162 -367.905)" fill="#10b5df"/>
  <path id="Path_3290" data-name="Path 3290" d="M342.419,400H336v3.851h6.419Zm-5.135,1.284h1.284v1.284h-1.284Zm3.851,1.284h-1.284v-1.284h1.284Zm0,0" transform="translate(-309.04 -367.905)" fill="#10b5df"/>
  <path id="Path_3291" data-name="Path 3291" d="M331.851,144H328v3.851h3.851Zm-1.284,2.568h-1.284v-1.284h1.284Zm0,0" transform="translate(-301.682 -132.446)" fill="#10b5df"/>
  <path id="Path_3292" data-name="Path 3292" d="M331.851,208H328v3.851h3.851Zm-1.284,2.568h-1.284v-1.284h1.284Zm0,0" transform="translate(-301.682 -191.311)" fill="#10b5df"/>
  <path id="Path_3293" data-name="Path 3293" d="M331.851,272H328v3.851h3.851Zm-1.284,2.568h-1.284v-1.284h1.284Zm0,0" transform="translate(-301.682 -250.176)" fill="#10b5df"/>
  <path id="Path_3294" data-name="Path 3294" d="M267.851,144H264v3.851h3.851Zm-1.284,2.568h-1.284v-1.284h1.284Zm0,0" transform="translate(-242.817 -132.446)" fill="#10b5df"/>
  <path id="Path_3295" data-name="Path 3295" d="M267.851,208H264v3.851h3.851Zm-1.284,2.568h-1.284v-1.284h1.284Zm0,0" transform="translate(-242.817 -191.311)" fill="#10b5df"/>
  <path id="Path_3296" data-name="Path 3296" d="M267.851,272H264v3.851h3.851Zm-1.284,2.568h-1.284v-1.284h1.284Zm0,0" transform="translate(-242.817 -250.176)" fill="#10b5df"/>
</svg>
