<svg xmlns="http://www.w3.org/2000/svg" width="50.604" height="36.848" viewBox="0 0 50.604 36.848">
  <g id="hijack" transform="translate(-2 -36.252)">
    <g id="Group_994" data-name="Group 994" transform="translate(2 36.252)">
      <path id="Path_3330" data-name="Path 3330" d="M50.425,73.1H4.179A2.181,2.181,0,0,1,2,70.921V38.431a2.181,2.181,0,0,1,2.179-2.179H50.425A2.181,2.181,0,0,1,52.6,38.431v32.49A2.181,2.181,0,0,1,50.425,73.1ZM4.179,37.055A1.377,1.377,0,0,0,2.8,38.431v32.49A1.377,1.377,0,0,0,4.179,72.3H50.425A1.377,1.377,0,0,0,51.8,70.921V38.431a1.377,1.377,0,0,0-1.376-1.376Z" transform="translate(-2 -36.252)" fill="#10b5df"/>
    </g>
    <g id="Group_996" data-name="Group 996" transform="translate(2.402 36.654)">
      <path id="Path_3332" data-name="Path 3332" d="M52.023,38.252H5.777A1.777,1.777,0,0,0,4,40.029v5.029H53.8V40.029a1.777,1.777,0,0,0-1.777-1.777Z" transform="translate(-4 -38.252)" fill="#fff"/>
    </g>
    <g id="Group_999" data-name="Group 999" transform="translate(2 36.252)">
      <path id="Path_3335" data-name="Path 3335" d="M52.2,43.861H2.4a.4.4,0,0,1-.4-.4V38.431a2.181,2.181,0,0,1,2.179-2.179H50.425A2.181,2.181,0,0,1,52.6,38.431V43.46a.4.4,0,0,1-.4.4Zm-49.4-.8h49V38.431a1.377,1.377,0,0,0-1.376-1.376H4.179A1.377,1.377,0,0,0,2.8,38.431Z" transform="translate(-2 -36.252)" fill="#10b5df"/>
    </g>
    <g id="Group_1001" data-name="Group 1001" transform="translate(4.008 38.483)">
      <path id="Path_3337" data-name="Path 3337" d="M13.573,50.511a1.573,1.573,0,1,1,1.573-1.573A1.575,1.575,0,0,1,13.573,50.511Zm0-2.343a.77.77,0,1,0,.77.77A.771.771,0,0,0,13.573,48.167Z" transform="translate(-12 -47.364)" fill="#10b5df"/>
    </g>
    <g id="Group_1003" data-name="Group 1003" transform="translate(8.277 38.483)">
      <path id="Path_3339" data-name="Path 3339" d="M34.832,50.511a1.573,1.573,0,1,1,1.573-1.573A1.575,1.575,0,0,1,34.832,50.511Zm0-2.343a.77.77,0,1,0,.77.77A.771.771,0,0,0,34.832,48.167Z" transform="translate(-33.259 -47.364)" fill="#10b5df"/>
    </g>
    <g id="Group_1005" data-name="Group 1005" transform="translate(12.546 38.483)">
      <path id="Path_3341" data-name="Path 3341" d="M56.091,50.511a1.573,1.573,0,1,1,1.573-1.573A1.575,1.575,0,0,1,56.091,50.511Zm0-2.343a.77.77,0,1,0,.77.77A.771.771,0,0,0,56.091,48.167Z" transform="translate(-54.518 -47.364)" fill="#10b5df"/>
    </g>
    <g id="Group_1018" data-name="Group 1018" transform="translate(18.704 46.188)">
      <path id="Path_3354" data-name="Path 3354" d="M101.978,99.693H85.586a.4.4,0,0,1-.395-.476l2.462-13.156a.4.4,0,0,1,.479-.319l5.65,1.212,5.65-1.212a.4.4,0,0,1,.479.319l2.462,13.156a.4.4,0,0,1-.395.476Zm-15.908-.8h15.425L99.2,86.614l-5.331,1.144a.391.391,0,0,1-.168,0l-5.331-1.144Z" transform="translate(-85.185 -85.733)" fill="#10b5df"/>
    </g>
    <g id="Group_1019" data-name="Group 1019" transform="translate(11.805 59.344)">
      <path id="Path_3355" data-name="Path 3355" d="M79.722,155.448h-26.8a2.1,2.1,0,1,1,0-4.2h26.8a2.1,2.1,0,1,1,0,4.2Zm-26.8-3.4a1.3,1.3,0,1,0,0,2.592h26.8a1.3,1.3,0,1,0,0-2.592Z" transform="translate(-50.827 -151.249)" fill="#10b5df"/>
    </g>
    <g id="Group_1020" data-name="Group 1020" transform="translate(18.704 55.465)">
      <path id="Path_3356" data-name="Path 3356" d="M101.978,136.612H85.586a.4.4,0,0,1-.395-.476l.726-3.879a.4.4,0,0,1,.395-.328h14.94a.4.4,0,0,1,.395.328l.726,3.879a.4.4,0,0,1-.395.476Zm-15.908-.8h15.425l-.576-3.076H86.646Z" transform="translate(-85.185 -131.93)" fill="#10b5df"/>
    </g>
    <g id="Group_1021" data-name="Group 1021" transform="translate(18.704 62.74)">
      <path id="Path_3357" data-name="Path 3357" d="M98.422,175.349a3.963,3.963,0,0,1-3.958-3.958v-.227a.681.681,0,1,0-1.361,0v.227a3.958,3.958,0,0,1-7.917,0V168.56a.4.4,0,0,1,.4-.4h16.392a.4.4,0,0,1,.4.4v2.831A3.963,3.963,0,0,1,98.422,175.349Zm-4.639-5.669a1.486,1.486,0,0,1,1.484,1.484v.227a3.155,3.155,0,0,0,6.31,0v-2.429H85.988v2.429a3.155,3.155,0,0,0,6.31,0v-.227A1.486,1.486,0,0,1,93.783,169.68Z" transform="translate(-85.185 -168.158)" fill="#10b5df"/>
    </g>
  </g>
</svg>
