<svg xmlns="http://www.w3.org/2000/svg" width="35.061" height="46.793" viewBox="0 0 35.061 46.793">
  <g id="lock_in" data-name="lock in" transform="translate(-64.183)">
    <g id="Group_1081" data-name="Group 1081" transform="translate(68.612)">
      <g id="Group_1080" data-name="Group 1080">
        <path id="Path_3447" data-name="Path 3447" d="M125.748,0a13.116,13.116,0,0,0-13.1,13.1v6.415a.791.791,0,0,0,.791.791h4.392a.791.791,0,0,0,.791-.791V13.1a7.127,7.127,0,1,1,14.253,0v6.415a.792.792,0,0,0,.792.791h4.392a.791.791,0,0,0,.791-.791V13.1A13.116,13.116,0,0,0,125.748,0Zm11.519,18.725h-2.81V13.1a8.709,8.709,0,1,0-17.418,0v5.624h-2.81V13.1a11.519,11.519,0,1,1,23.038,0Z" transform="translate(-112.647)" fill="#10b5df"/>
      </g>
    </g>
    <g id="Group_1083" data-name="Group 1083" transform="translate(64.183 18.725)">
      <g id="Group_1082" data-name="Group 1082" transform="translate(0)">
        <path id="Path_3448" data-name="Path 3448" d="M95.846,204.89H67.582a3.4,3.4,0,0,0-3.4,3.4v21.27a3.4,3.4,0,0,0,3.4,3.4H95.846a3.4,3.4,0,0,0,3.4-3.4v-21.27A3.4,3.4,0,0,0,95.846,204.89Zm1.816,24.669a1.819,1.819,0,0,1-1.816,1.817H67.582a1.819,1.819,0,0,1-1.817-1.817v-21.27a1.819,1.819,0,0,1,1.817-1.817H95.846a1.819,1.819,0,0,1,1.816,1.817Z" transform="translate(-64.183 -204.89)" fill="#10b5df"/>
      </g>
    </g>
    <g id="Group_1085" data-name="Group 1085" transform="translate(77.591 26.532)">
      <g id="Group_1084" data-name="Group 1084" transform="translate(0)">
        <path id="Path_3449" data-name="Path 3449" d="M217.672,297.57a4.123,4.123,0,1,0-5.321,0l-.889,4.237a.791.791,0,0,0,.774.954h5.551a.791.791,0,0,0,.774-.954Zm-1.3-1a.791.791,0,0,0-.349.83l.793,3.78h-3.6L214,297.4a.791.791,0,0,0-.349-.83,2.54,2.54,0,1,1,2.714,0Z" transform="translate(-210.889 -290.307)" fill="#10b5df"/>
      </g>
    </g>
  </g>
</svg>
