<svg xmlns="http://www.w3.org/2000/svg" width="44.98" height="52.579" viewBox="0 0 44.98 52.579">
  <g id="sevices_attack" data-name="sevices attack" transform="translate(-37 0)">
    <g id="Group_1043" data-name="Group 1043" transform="translate(65.346 0)">
      <g id="Group_1042" data-name="Group 1042" transform="translate(0 0)">
        <path id="Path_3392" data-name="Path 3392" d="M322.678,6.878V1.027A1.027,1.027,0,0,0,320.945.28L317.854,3.2,314.763.28a1.027,1.027,0,0,0-1.733.746V6.878a1.027,1.027,0,0,0,.321.746l2.443,2.31a4.729,4.729,0,0,0-2.665,4.251v6.162a4.724,4.724,0,0,0,9.448,0V14.185a4.73,4.73,0,0,0-2.664-4.25l2.443-2.311A1.027,1.027,0,0,0,322.678,6.878Zm-7.594-.442V3.411l1.743,1.649V8.085Zm2.77,16.581a2.674,2.674,0,0,1-2.6-2.044h5.19A2.674,2.674,0,0,1,317.854,23.017Zm2.67-4.1h-5.34V15.427h5.34Zm-.127-5.545H315.31a2.67,2.67,0,0,1,5.087,0Zm.227-6.938-1.743,1.649V5.06l1.743-1.649Z" transform="translate(-313.03 0)" fill="#10b5df"/>
      </g>
    </g>
    <g id="Group_1045" data-name="Group 1045" transform="translate(54.869 8.728)">
      <g id="Group_1044" data-name="Group 1044" transform="translate(0)">
        <path id="Path_3393" data-name="Path 3393" d="M219.266,85h-7.24a1.027,1.027,0,1,0,0,2.054h7.24a1.027,1.027,0,0,0,0-2.054Z" transform="translate(-210.999 -84.999)" fill="#10b5df"/>
      </g>
    </g>
    <g id="Group_1047" data-name="Group 1047" transform="translate(37 8.728)">
      <g id="Group_1046" data-name="Group 1046" transform="translate(0)">
        <path id="Path_3394" data-name="Path 3394" d="M77.667,85H75.1a1.027,1.027,0,0,0,0,2.054h2.567a2.262,2.262,0,0,1,2.259,2.259V111.19c-.031,0-.062,0-.094,0H54.657a4.7,4.7,0,0,0,.83-2.67v-6.162a4.73,4.73,0,0,0-2.664-4.25l2.443-2.311a1.027,1.027,0,0,0,.321-.746V89.2a1.027,1.027,0,0,0-1.733-.746l-3.091,2.924-3.091-2.924a1.027,1.027,0,0,0-1.733.746v5.851a1.027,1.027,0,0,0,.321.746L48.7,98.1a4.729,4.729,0,0,0-2.665,4.251v6.162a4.7,4.7,0,0,0,.83,2.67H39.054V89.312a2.262,2.262,0,0,1,2.259-2.259h4.621a1.027,1.027,0,1,0,0-2.054H41.313A4.318,4.318,0,0,0,37,89.312v25.571a4.318,4.318,0,0,0,4.313,4.313H54.359v3.491H50.351a1.027,1.027,0,0,0-1.027,1.027v4.108a1.027,1.027,0,0,0,1.027,1.027H68.636a1.027,1.027,0,0,0,1.027-1.027v-4.108a1.027,1.027,0,0,0-1.027-1.027H64.628V119.2H77.667a4.318,4.318,0,0,0,4.313-4.313V89.312A4.318,4.318,0,0,0,77.667,85ZM51.79,93.229l1.743-1.649V94.6L51.79,96.254Zm-3.8,1.376V91.58l1.743,1.649v3.025Zm2.77,5.079a2.675,2.675,0,0,1,2.543,1.858H48.219A2.674,2.674,0,0,1,50.763,99.684Zm-2.67,3.912h5.34v3.492h-5.34Zm5.265,5.545a2.669,2.669,0,0,1-5.19,0Zm14.251,15.6V126.8H51.378v-2.054Zm-11.2-2.054V119.2h6.162v3.491Zm23.513-7.8a2.262,2.262,0,0,1-2.259,2.259H41.313a2.262,2.262,0,0,1-2.259-2.259V113.24H79.832c.032,0,.063,0,.094,0Z" transform="translate(-37 -84.999)" fill="#10b5df"/>
      </g>
    </g>
    <g id="Group_1049" data-name="Group 1049" transform="translate(61.236 14.069)">
      <g id="Group_1048" data-name="Group 1048" transform="translate(0)">
        <path id="Path_3395" data-name="Path 3395" d="M274.027,137A1.027,1.027,0,0,0,273,138.028v4.85a1.027,1.027,0,0,0,2.054,0v-4.85A1.027,1.027,0,0,0,274.027,137Z" transform="translate(-273 -137.001)" fill="#10b5df"/>
      </g>
    </g>
    <g id="Group_1051" data-name="Group 1051" transform="translate(61.235 22.49)">
      <g id="Group_1050" data-name="Group 1050" transform="translate(0)">
        <path id="Path_3396" data-name="Path 3396" d="M274.752,219.3a1.026,1.026,0,1,0,.3.726A1.035,1.035,0,0,0,274.752,219.3Z" transform="translate(-272.999 -219.001)" fill="#10b5df"/>
      </g>
    </g>
    <g id="Group_1053" data-name="Group 1053" transform="translate(61.235 26.392)">
      <g id="Group_1052" data-name="Group 1052" transform="translate(0)">
        <path id="Path_3397" data-name="Path 3397" d="M274.752,257.3a1.026,1.026,0,1,0,.3.726A1.035,1.035,0,0,0,274.752,257.3Z" transform="translate(-272.999 -257.001)" fill="#10b5df"/>
      </g>
    </g>
    <g id="Group_1055" data-name="Group 1055" transform="translate(61.236 30.294)">
      <g id="Group_1054" data-name="Group 1054" transform="translate(0)">
        <path id="Path_3398" data-name="Path 3398" d="M274.753,295.3a1.026,1.026,0,1,0,.3.726A1.035,1.035,0,0,0,274.753,295.3Z" transform="translate(-273 -295.001)" fill="#10b5df"/>
      </g>
    </g>
    <g id="Group_1057" data-name="Group 1057" transform="translate(49.736 0)">
      <g id="Group_1056" data-name="Group 1056">
        <path id="Path_3399" data-name="Path 3399" d="M162.773.3a1.027,1.027,0,0,0-1.753.726A1.027,1.027,0,1,0,162.773.3Z" transform="translate(-161.02 -0.001)" fill="#10b5df"/>
      </g>
    </g>
    <g id="Group_1059" data-name="Group 1059" transform="translate(49.736 4.364)">
      <g id="Group_1058" data-name="Group 1058">
        <path id="Path_3400" data-name="Path 3400" d="M162.773,42.8a1.026,1.026,0,1,0,.3.726A1.035,1.035,0,0,0,162.773,42.8Z" transform="translate(-161.02 -42.501)" fill="#10b5df"/>
      </g>
    </g>
    <g id="Group_1061" data-name="Group 1061" transform="translate(49.736 8.729)">
      <g id="Group_1060" data-name="Group 1060">
        <path id="Path_3401" data-name="Path 3401" d="M162.773,85.3a1.026,1.026,0,1,0,.3.726A1.035,1.035,0,0,0,162.773,85.3Z" transform="translate(-161.02 -85.001)" fill="#10b5df"/>
      </g>
    </g>
  </g>
</svg>
