<svg id="Group_2" data-name="Group 2" xmlns="http://www.w3.org/2000/svg" width="40.124" height="40.124" viewBox="0 0 40.124 40.124">
  <path id="Path_46" data-name="Path 46" d="M44,34.133h-.669a.669.669,0,0,0,0,1.338H44a.669.669,0,0,0,0-1.338Z" transform="translate(-39.323 -31.458)" fill="#10b5df"/>
  <path id="Path_47" data-name="Path 47" d="M86.671,34.133H86a.669.669,0,1,0,0,1.337h.669a.669.669,0,0,0,0-1.337Z" transform="translate(-78.647 -31.458)" fill="#10b5df"/>
  <path id="Path_48" data-name="Path 48" d="M129.338,34.133h-.669a.669.669,0,1,0,0,1.337h.669a.669.669,0,0,0,0-1.337Z" transform="translate(-117.97 -31.458)" fill="#10b5df"/>
  <path id="Path_49" data-name="Path 49" d="M189.392,34.133H171.336a.669.669,0,0,0,0,1.337h18.056a.669.669,0,0,0,0-1.337Z" transform="translate(-157.292 -31.458)" fill="#10b5df"/>
  <path id="Path_50" data-name="Path 50" d="M38.787,24.075h-.669V20.731A7.321,7.321,0,0,0,36.112,15.7V3.344A3.348,3.348,0,0,0,32.768,0H3.344A3.348,3.348,0,0,0,0,3.344V30.093a3.348,3.348,0,0,0,3.344,3.344H21.4v2.006a4.686,4.686,0,0,0,4.681,4.681h9.362a4.686,4.686,0,0,0,4.681-4.681V25.412A1.337,1.337,0,0,0,38.787,24.075Zm-2.006-3.344v3.344H24.743V20.731a6.019,6.019,0,0,1,12.037,0ZM1.338,3.344A2.006,2.006,0,0,1,3.344,1.337H32.768a2.006,2.006,0,0,1,2.006,2.006V5.35H1.338ZM21.4,25.412V32.1H3.344a2.006,2.006,0,0,1-2.006-2.006V6.687H34.775v7.886a7.347,7.347,0,0,0-11.369,6.158v3.344h-.669A1.337,1.337,0,0,0,21.4,25.412Zm17.387,1.337H36.781a.669.669,0,1,0,0,1.337h2.006v1.337H36.781a.669.669,0,1,0,0,1.337h2.006V32.1H36.781a.669.669,0,1,0,0,1.337h2.006v1.338H36.781a.669.669,0,1,0,0,1.337H38.72a3.35,3.35,0,0,1-3.277,2.675H26.081A3.35,3.35,0,0,1,22.8,36.112h1.939a.669.669,0,1,0,0-1.337H22.737V33.437h2.006a.669.669,0,1,0,0-1.337H22.737V30.762h2.006a.669.669,0,1,0,0-1.337H22.737V28.087h2.006a.669.669,0,1,0,0-1.337H22.737V25.412h16.05v1.337Z" fill="#10b5df"/>
  <path id="Path_51" data-name="Path 51" d="M368.279,370.822v1.461a.669.669,0,0,0,1.337,0v-1.461a2,2,0,1,0-1.337,0Zm.669-2.552a.669.669,0,1,1-.669.669A.669.669,0,0,1,368.948,368.271Z" transform="translate(-338.186 -338.177)" fill="#10b5df"/>
  <path id="Path_52" data-name="Path 52" d="M58.556,123.479a.669.669,0,0,0-.669.669v2.006h-5.35V120.8h2.675a.669.669,0,1,0,0-1.337H52.538A1.337,1.337,0,0,0,51.2,120.8v5.35a1.337,1.337,0,0,0,1.338,1.338h5.35a1.338,1.338,0,0,0,1.338-1.338v-2.006A.669.669,0,0,0,58.556,123.479Z" transform="translate(-47.188 -110.105)" fill="#10b5df"/>
  <path id="Path_53" data-name="Path 53" d="M78.038,122.341a.669.669,0,0,0-.946.946l1.338,1.337a.669.669,0,0,0,.473.2h.03a.669.669,0,0,0,.484-.239l3.344-4.012a.669.669,0,1,0-1.027-.857l-2.876,3.451Z" transform="translate(-70.878 -110.108)" fill="#10b5df"/>
  <path id="Path_54" data-name="Path 54" d="M58.556,268.546a.669.669,0,0,0-.669.669v2.006h-5.35v-5.35h2.675a.669.669,0,1,0,0-1.337H52.538a1.337,1.337,0,0,0-1.338,1.337v5.35a1.337,1.337,0,0,0,1.338,1.337h5.35a1.337,1.337,0,0,0,1.338-1.337v-2.006A.669.669,0,0,0,58.556,268.546Z" transform="translate(-47.188 -243.803)" fill="#10b5df"/>
  <path id="Path_55" data-name="Path 55" d="M78.038,267.409a.669.669,0,0,0-.946.946l1.338,1.337a.669.669,0,0,0,.473.2h.03a.669.669,0,0,0,.484-.239l3.344-4.012a.669.669,0,0,0-1.027-.857l-2.876,3.451Z" transform="translate(-70.878 -243.808)" fill="#10b5df"/>
  <path id="Path_56" data-name="Path 56" d="M179.869,129.337h5.35a.669.669,0,0,0,0-1.337h-5.35a.669.669,0,0,0,0,1.337Z" transform="translate(-165.156 -117.969)" fill="#10b5df"/>
  <path id="Path_57" data-name="Path 57" d="M189.231,171.336a.669.669,0,0,0-.669-.669h-8.694a.669.669,0,1,0,0,1.337h8.694A.669.669,0,0,0,189.231,171.336Z" transform="translate(-165.156 -157.292)" fill="#10b5df"/>
  <path id="Path_58" data-name="Path 58" d="M185.219,273.067h-5.35a.669.669,0,1,0,0,1.337h5.35a.669.669,0,1,0,0-1.337Z" transform="translate(-165.156 -251.667)" fill="#10b5df"/>
  <path id="Path_59" data-name="Path 59" d="M184.551,315.733H179.87a.669.669,0,1,0,0,1.337h4.681a.669.669,0,1,0,0-1.337Z" transform="translate(-165.157 -290.99)" fill="#10b5df"/>
</svg>
