<svg xmlns="http://www.w3.org/2000/svg" width="52.255" height="50.514" viewBox="0 0 52.255 50.514">
  <g id="malicious_insider" data-name="malicious insider" transform="translate(0 -8.533)">
    <g id="Group_1023" data-name="Group 1023" transform="translate(0 8.533)">
      <g id="Group_1022" data-name="Group 1022" transform="translate(0 0)">
        <path id="Path_3370" data-name="Path 3370" d="M48.771,8.533H3.485A3.489,3.489,0,0,0,0,12.018v28.74a.871.871,0,0,0,.871.871H51.384a.871.871,0,0,0,.871-.871V12.018A3.489,3.489,0,0,0,48.771,8.533Zm1.743,31.353H1.742V12.018a1.744,1.744,0,0,1,1.743-1.743H48.771a1.744,1.744,0,0,1,1.743,1.743Z" transform="translate(0 -8.533)" fill="#10b5df"/>
      </g>
    </g>
    <g id="Group_1025" data-name="Group 1025" transform="translate(0 39.886)">
      <g id="Group_1024" data-name="Group 1024">
        <path id="Path_3371" data-name="Path 3371" d="M51.385,315.733H.871A.871.871,0,0,0,0,316.6v4.354a3.489,3.489,0,0,0,3.485,3.485H48.771a3.489,3.489,0,0,0,3.485-3.485V316.6A.871.871,0,0,0,51.385,315.733Zm-.871,5.225a1.745,1.745,0,0,1-1.743,1.743H3.485a1.745,1.745,0,0,1-1.743-1.743v-3.483H50.514v3.483Z" transform="translate(0 -315.733)" fill="#10b5df"/>
      </g>
    </g>
    <g id="Group_1027" data-name="Group 1027" transform="translate(22.644 43.37)">
      <g id="Group_1026" data-name="Group 1026">
        <path id="Path_3372" data-name="Path 3372" d="M227.963,349.867h-5.226a.871.871,0,1,0,0,1.742h5.226a.871.871,0,1,0,0-1.742Z" transform="translate(-221.867 -349.867)" fill="#10b5df"/>
      </g>
    </g>
    <g id="Group_1029" data-name="Group 1029" transform="translate(3.484 12.017)">
      <g id="Group_1028" data-name="Group 1028" transform="translate(0 0)">
        <path id="Path_3373" data-name="Path 3373" d="M78.551,42.667H35a.871.871,0,0,0-.871.871v27.87a.871.871,0,0,0,.871.871H78.551a.871.871,0,0,0,.871-.871V43.538A.871.871,0,0,0,78.551,42.667ZM77.68,70.536h-41.8V44.409h41.8Z" transform="translate(-34.134 -42.667)" fill="#10b5df"/>
      </g>
    </g>
    <g id="Group_1031" data-name="Group 1031" transform="translate(12.193 53.821)">
      <g id="Group_1030" data-name="Group 1030">
        <path id="Path_3374" data-name="Path 3374" d="M144.724,452.267H122.08a2.613,2.613,0,1,0,0,5.226h22.644a2.613,2.613,0,1,0,0-5.226Zm0,3.484H122.08a.871.871,0,1,1,0-1.742h22.644a.871.871,0,1,1,0,1.742Z" transform="translate(-119.467 -452.267)" fill="#10b5df"/>
      </g>
    </g>
    <g id="Group_1033" data-name="Group 1033" transform="translate(15.677 46.854)">
      <g id="Group_1032" data-name="Group 1032">
        <path id="Path_3375" data-name="Path 3375" d="M173.632,390.968c-2.89,0-4.355-2.051-4.355-6.1a.871.871,0,0,0-.871-.871H159.7a.871.871,0,0,0-.871.871c0,4.045-1.465,6.1-4.355,6.1a.871.871,0,0,0,0,1.742h19.16a.871.871,0,0,0,0-1.742Zm-14.918,0a8.344,8.344,0,0,0,1.831-5.226h7.015a8.334,8.334,0,0,0,1.831,5.226Z" transform="translate(-153.601 -384.001)" fill="#10b5df"/>
      </g>
    </g>
    <g id="Group_1035" data-name="Group 1035" transform="translate(30.488 26.822)">
      <g id="Group_1034" data-name="Group 1034">
        <path id="Path_3376" data-name="Path 3376" d="M309.851,195.1l-2.1-2.1,1.17-1.17a.871.871,0,0,0-.365-1.45l-8.709-2.613a.871.871,0,0,0-1.084,1.084l2.613,8.709a.87.87,0,0,0,1.45.366l1.231-1.232,2.1,2.1a.87.87,0,0,0,1.231,0l2.463-2.464A.87.87,0,0,0,309.851,195.1Zm-3.079,1.848-1.914-1.915a1.138,1.138,0,0,0-1.608,0l-.629.629-1.729-5.763,5.763,1.729-.674.674a.987.987,0,0,0,0,1.394l2.02,2.021Z" transform="translate(-298.723 -187.731)" fill="#10b5df"/>
      </g>
    </g>
    <g id="Group_1037" data-name="Group 1037" transform="translate(11.322 15.5)">
      <g id="Group_1036" data-name="Group 1036" transform="translate(0 0)">
        <path id="Path_3377" data-name="Path 3377" d="M136.191,76.8H111.8a.871.871,0,0,0-.871.871v4.355a.871.871,0,0,0,.871.871h24.386a.871.871,0,0,0,.871-.871V77.671A.871.871,0,0,0,136.191,76.8Zm-.871,4.355H112.676V78.542H135.32Z" transform="translate(-110.934 -76.8)" fill="#10b5df"/>
      </g>
    </g>
    <g id="Group_1039" data-name="Group 1039" transform="translate(14.806 25.081)">
      <g id="Group_1038" data-name="Group 1038">
        <path id="Path_3378" data-name="Path 3378" d="M152.905,170.667h-6.967a.871.871,0,0,0-.871.871v3.484a.871.871,0,0,0,.871.871h6.967a.871.871,0,0,0,.871-.871v-3.484A.871.871,0,0,0,152.905,170.667Zm-.871,3.484h-5.226v-1.742h5.226Z" transform="translate(-145.067 -170.667)" fill="#10b5df"/>
      </g>
    </g>
    <g id="Group_1041" data-name="Group 1041" transform="translate(11.322 15.5)">
      <g id="Group_1040" data-name="Group 1040" transform="translate(0 0)">
        <path id="Path_3379" data-name="Path 3379" d="M136.191,76.8H111.8a.871.871,0,0,0-.871.871V94.218a.871.871,0,0,0,.871.871h20.733a.872.872,0,0,0,.834-1.122l-1.1-3.676,3.671,1.1a.871.871,0,0,0,1.121-.834V77.671A.871.871,0,0,0,136.191,76.8Zm-.871,12.588-4.1-1.23a.871.871,0,0,0-1.084,1.085l1.231,4.1H112.676V78.542H135.32Z" transform="translate(-110.934 -76.8)" fill="#10b5df"/>
      </g>
    </g>
  </g>
</svg>
