<svg xmlns="http://www.w3.org/2000/svg" width="48.012" height="48.012" viewBox="0 0 48.012 48.012">
  <g id="integration" transform="translate(0 0)">
    <path id="Path_3414" data-name="Path 3414" d="M211.872,304a3.872,3.872,0,1,0,3.872,3.872A3.876,3.876,0,0,0,211.872,304Zm0,6.2a2.323,2.323,0,1,1,2.323-2.323A2.326,2.326,0,0,1,211.872,310.2Zm0,0" transform="translate(-187.866 -274.574)" fill="#10b5df"/>
    <path id="Path_3415" data-name="Path 3415" d="M240,32h6.2v1.549H240Zm0,0" transform="translate(-216.769 -28.902)" fill="#10b5df"/>
    <path id="Path_3416" data-name="Path 3416" d="M240,64h6.2v1.549H240Zm0,0" transform="translate(-216.769 -57.805)" fill="#10b5df"/>
    <path id="Path_3417" data-name="Path 3417" d="M192,96h10.841v1.549H192Zm0,0" transform="translate(-173.415 -86.707)" fill="#10b5df"/>
    <path id="Path_3418" data-name="Path 3418" d="M192,128h10.841v1.549H192Zm0,0" transform="translate(-173.415 -115.61)" fill="#10b5df"/>
    <path id="Path_3419" data-name="Path 3419" d="M192,160h10.841v1.549H192Zm0,0" transform="translate(-173.415 -144.512)" fill="#10b5df"/>
    <path id="Path_3420" data-name="Path 3420" d="M48.011,24.78v-6.2H37.17v6.2h4.646v7.744H32.524V31.191l-1.9-.634.9-1.792-2.98-2.98-1.793.9-.633-1.9H24.78V20.134h7.744V10.841h9.293v4.326l-1.776-1.776-1.1,1.1,3.645,3.645,3.645-3.645-1.1-1.1-1.776,1.776V9.293H32.524V0H20.587l-5.1,5.1V9.293H4.646v5.874L2.87,13.391l-1.1,1.1L5.42,18.131l3.645-3.645-1.1-1.1L6.195,15.167V10.841h9.293v9.293h7.744V24.78H21.9l-.633,1.9-1.793-.9-2.98,2.98.9,1.792-1.9.634v1.333H6.195V24.78h4.646v-6.2H0v6.2H4.646v12.5a3.1,3.1,0,1,0,1.549,0V34.073h4.646v9.435a2.323,2.323,0,1,0,1.549,0V34.073h3.1v1.333l1.9.634-.9,1.792,2.98,2.98,1.793-.9.633,1.9h4.214l.633-1.9,1.793.9,2.98-2.98-.9-1.792,1.9-.634V34.073h3.1v9.435a2.323,2.323,0,1,0,1.549,0V34.073h4.646V37.28a3.1,3.1,0,1,0,1.549,0V24.78ZM20.134,2.644v2h-2ZM17.036,6.2h4.646V1.549h9.293V18.585H17.036ZM1.548,20.134H9.292v3.1H1.548ZM6.969,40.268A1.549,1.549,0,1,1,5.42,38.719,1.55,1.55,0,0,1,6.969,40.268Zm4.646,6.2a.774.774,0,1,1,.774-.774A.775.775,0,0,1,11.615,46.463Zm19.36-12.174-1.776.593-.131.341c-.039.1-.078.2-.12.293l-.15.335.837,1.674-1.4,1.4-1.674-.837-.335.15c-.1.043-.192.081-.29.119l-.345.13L25,40.268H23.014l-.593-1.779-.345-.13c-.1-.037-.2-.076-.29-.119l-.335-.15-1.674.837-1.4-1.4.837-1.674-.15-.335c-.043-.1-.081-.194-.12-.293l-.131-.341-1.776-.593V32.307l1.776-.593.131-.341c.039-.1.078-.2.12-.294l.15-.335-.837-1.674,1.4-1.4,1.674.837.335-.15c.1-.043.192-.081.29-.119l.345-.13.593-1.779H25l.593,1.779.345.13c.1.037.2.076.29.119l.335.15,1.674-.837,1.4,1.4L28.8,30.745l.15.335c.043.1.081.194.12.293l.131.341,1.776.593ZM36.4,46.463a.774.774,0,1,1,.774-.774A.775.775,0,0,1,36.4,46.463Zm7.744-6.2a1.549,1.549,0,1,1-1.549-1.549A1.55,1.55,0,0,1,44.139,40.268ZM38.719,20.134h7.744v3.1H38.719Zm0,0" transform="translate(0)" fill="#10b5df"/>
  </g>
</svg>
