<svg xmlns="http://www.w3.org/2000/svg" width="201.699" height="129" viewBox="0 0 201.699 129">
  <g id="Group_1616" data-name="Group 1616" transform="translate(-184.864 -145)">
    <path id="Path_4437" data-name="Path 4437" d="M232.2,273.768s-24.479-23.759-8.906-51.713,36.489-13.9,35.477-46.431,48.1-35.331,63.737-25.9,15.54,20.8,47.814,17.037,38.44,27.578,30.043,43.55c-11.913,22.661,33.064,18.923,4.723,63.454Z" transform="translate(-30.657)" fill="#ebf3fa"/>
    <g id="Group_1602" data-name="Group 1602" transform="translate(308.55 188.704)">
      <path id="Path_4438" data-name="Path 4438" d="M1779.87,790.881s5.2-22.045,22.748-24.469a4.326,4.326,0,0,1,4.551,3.34c1.137,3.759-5.651,3.786-9.847,5.3S1783.344,782.973,1779.87,790.881Z" transform="translate(-1779.382 -761.725)" fill="#aec3ff" opacity="0.3"/>
      <path id="Path_4439" data-name="Path 4439" d="M1773.687,731.409s-1.824-18.261,10.981-24.741a3.5,3.5,0,0,1,4.367,1.36c1.861,2.581-3.332,4.39-6.148,6.654S1774.266,724.435,1773.687,731.409Z" transform="translate(-1773.598 -706.379)" fill="#aec3ff" opacity="0.3"/>
    </g>
    <rect id="Rectangle_403" data-name="Rectangle 403" width="201.699" height="0.554" rx="0.277" transform="translate(184.864 273.446)" fill="#2e3552"/>
    <path id="Path_4440" data-name="Path 4440" d="M553.1,1341.829c-2.709-6.173,7.117-11.476,7.117-11.476s12.949,4.191,14.808,3.042-10.371-5.745-10.371-5.745c3.018-2.953,14.588-5.658,14.588-5.658s7.805,10.771,9.324,9.2-7.4-9.184-7.4-9.184c3.932-1.6,9.864-.287,9.864-.287,8.542,3.041,4.2,13.852,4.2,13.852a21.623,21.623,0,0,0,8.318,6.006h0a15.7,15.7,0,0,1,2.662,1.24l-.863.7c-.257-.175-.515-.336-.774-.481l0,0-.011-.006c-.167-.086-.4-.207-.7-.353h0c-.68-.3-1.165-.542-1.5-.726l0,0c-2.1-.984-4.936-2.179-6.052-2.011a2.147,2.147,0,0,0-.134-.545l.134.545c1.073,4.358-5.892,10.838-10.689,13.309s-3.938-.135-3.239-3.805,5.744-6.915,6.521-8.759-1.824-.968-4.4,1.454-1.736,6.272-5.83,10.266-14.189-1.625-14.189-1.625c3.827-1.516,7.956-7.626,7.317-8.852s-8.683,5.427-10.2,6.131S555.809,1348,553.1,1341.829Z" transform="translate(-339.132 -1084.641)" fill="#cde0fb"/>
    <path id="Path_4441" data-name="Path 4441" d="M1598.108,1358.062c3.952-4.663-3.214-11.816-3.214-11.816s-12.338.29-13.656-1.19,10.5-2.308,10.5-2.308c-1.858-3.347-11.213-8.693-11.213-8.693s-9.571,7.34-10.484,5.581,8.806-6.067,8.806-6.067c-3-2.409-8.5-2.8-8.5-2.8-8.21.432-7.231,10.952-7.231,10.952a19.608,19.608,0,0,1-8.783,3.066h0a14.218,14.218,0,0,0-2.634.388l.57.828c.269-.085.535-.158.8-.218h0l.011,0c.167-.031.405-.075.7-.127h0c.669-.088,1.153-.169,1.491-.243h0c2.076-.313,4.854-.616,5.78-.181a1.947,1.947,0,0,1,.257-.439l-.257.439c-2.06,3.509,2.315,10.943,5.844,14.333s3.457.9,3.8-2.469-3.2-7.5-3.4-9.3,1.835-.369,3.446,2.4-.115,5.9,2.409,10.43,12.752,2.26,12.752,2.26c-2.933-2.308-4.94-8.687-4.067-9.587s6.141,6.964,7.281,7.969S1594.156,1362.725,1598.108,1358.062Z" transform="translate(-1260.424 -1093.453)" fill="#cde0fb"/>
    <path id="Path_4442" data-name="Path 4442" d="M857.543,481.7c4.073-6.835,15.906-1.03,15.906-1.03s4.851,15.315,7.23,16.313-1.591-13.9-1.591-13.9c4.906.875,15.439,10.137,15.439,10.137s-5,14.884-2.446,15.266,3.752-13.4,3.752-13.4c4.234,2.681,7.039,9.281,7.039,9.281,2.934,10.292-10.433,13.528-10.433,13.528a25.524,25.524,0,0,0-.067,12.11h0a18.514,18.514,0,0,1,.634,3.407l-1.26-.353c-.008-.367-.03-.725-.068-1.074a.007.007,0,0,0,0-.006l0-.015c-.032-.219-.078-.531-.138-.912h0s0,0,0,0c-.174-.862-.278-1.491-.33-1.939a.019.019,0,0,1,0,0c-.491-2.689-1.29-6.237-2.218-7.193a2.529,2.529,0,0,0,.431-.5l-.431.5c-3.451,4.019-14.452,1.77-20.116-1.145s-2.57-3.876,1.435-5.721,10.582.778,12.887.26-.321-2.416-4.413-3.229-7.217,2.632-13.86,1.437-8.167-14.747-8.167-14.747c4.08,2.638,12.782,2.415,13.522.961s-11.168-4.622-12.887-5.6S853.469,488.535,857.543,481.7Z" transform="translate(-618.177 -307.417)" fill="#cde0fb" opacity="0.5"/>
    <g id="Group_1604" data-name="Group 1604" transform="translate(284.847 164.213)">
      <g id="Group_1603" data-name="Group 1603" transform="translate(0 0)">
        <path id="Path_4443" data-name="Path 4443" d="M1469.132,414.369a3.126,3.126,0,0,1,.236-1.225,2.864,2.864,0,0,1,.669-.974,3.072,3.072,0,0,1,1.039-.643,3.827,3.827,0,0,1,1.368-.231,3.914,3.914,0,0,1,1.378.231,3.054,3.054,0,0,1,1.049.643,2.865,2.865,0,0,1,.668.974,3.128,3.128,0,0,1,.237,1.225,3.054,3.054,0,0,1-.237,1.215,2.883,2.883,0,0,1-.668.964,3.044,3.044,0,0,1-1.049.643,3.915,3.915,0,0,1-1.378.231,3.828,3.828,0,0,1-1.368-.231,3.061,3.061,0,0,1-1.039-.643,2.882,2.882,0,0,1-.669-.964A3.052,3.052,0,0,1,1469.132,414.369Zm5.78-5.713h-4.936l-.7-16.867h6.335Z" transform="translate(-1469.132 -391.789)" fill="#0f8faf"/>
      </g>
    </g>
    <g id="Group_1606" data-name="Group 1606" transform="translate(269.942 152.974)">
      <g id="Group_1605" data-name="Group 1605" transform="translate(0)">
        <path id="Path_4444" data-name="Path 4444" d="M1277.678,264.761a2.4,2.4,0,0,1,.182-.94,2.2,2.2,0,0,1,.513-.747,2.356,2.356,0,0,1,.8-.493,2.937,2.937,0,0,1,1.05-.177,3.005,3.005,0,0,1,1.058.177,2.343,2.343,0,0,1,.805.493,2.2,2.2,0,0,1,.513.747,2.4,2.4,0,0,1,.182.94,2.343,2.343,0,0,1-.182.932,2.214,2.214,0,0,1-.513.74,2.336,2.336,0,0,1-.805.493,3.007,3.007,0,0,1-1.058.177,2.938,2.938,0,0,1-1.05-.177,2.348,2.348,0,0,1-.8-.493,2.213,2.213,0,0,1-.513-.74A2.341,2.341,0,0,1,1277.678,264.761Zm4.436-4.385h-3.789l-.537-12.945h4.862Z" transform="translate(-1277.678 -247.431)" fill="#aec3ff"/>
      </g>
    </g>
    <g id="Group_1608" data-name="Group 1608" transform="translate(343.541 174.847)">
      <g id="Group_1607" data-name="Group 1607">
        <path id="Path_4445" data-name="Path 4445" d="M2223.052,545.72a2.4,2.4,0,0,1,.181-.94,2.2,2.2,0,0,1,.513-.747,2.354,2.354,0,0,1,.8-.493,2.936,2.936,0,0,1,1.05-.177,3,3,0,0,1,1.057.177,2.341,2.341,0,0,1,.805.493,2.2,2.2,0,0,1,.513.747,2.4,2.4,0,0,1,.182.94,2.342,2.342,0,0,1-.182.932,2.214,2.214,0,0,1-.513.74,2.335,2.335,0,0,1-.805.493,3,3,0,0,1-1.057.177,2.935,2.935,0,0,1-1.05-.177,2.347,2.347,0,0,1-.8-.493,2.212,2.212,0,0,1-.513-.74A2.342,2.342,0,0,1,2223.052,545.72Zm4.436-4.385H2223.7l-.537-12.945h4.862Z" transform="translate(-2223.052 -528.39)" fill="#aec3ff"/>
      </g>
    </g>
    <g id="Group_1610" data-name="Group 1610" transform="translate(322.507 207.758)">
      <g id="Group_1609" data-name="Group 1609" transform="translate(0 0)">
        <path id="Path_4446" data-name="Path 4446" d="M1965.571,1093.694a25.548,25.548,0,0,1-2.789,4.159h0a8.379,8.379,0,0,1-3.058,2.55l-.007,0c-.048.016-.095.032-.142.045a.011.011,0,0,1-.007,0h0a1.666,1.666,0,0,1-.531.068c-3-.135-6.166-6.574-6.166-6.574a2.29,2.29,0,0,1,.666-1.3,2.7,2.7,0,0,1,.9-.594s3.233,3.32,4.023,3.559c.5.15,1.15-2.169,2.086-5.08s4.224-3.63,4.224-3.63S1968.1,1089.007,1965.571,1093.694Z" transform="translate(-1952.871 -1076.33)" fill="#aec3ff"/>
        <path id="Path_4447" data-name="Path 4447" d="M2042.108,1200.682h0a8.374,8.374,0,0,1-3.058,2.55l-.007,0-.142.045-.008,0h0a2.324,2.324,0,0,0,1.165-1.472c.157-.963-.862-1.751,1.7-3.24C2043.25,1197.7,2042.108,1200.682,2042.108,1200.682Z" transform="translate(-2032.197 -1179.16)" fill="#94b0ed"/>
        <path id="Path_4448" data-name="Path 4448" d="M2050.075,1749.113h7.035c.5-.342-.136-3.684-.136-3.684s-1.92-.729-2.252.753-2.446,1.951-3.564,2.132A1.2,1.2,0,0,0,2050.075,1749.113Z" transform="translate(-2042.507 -1683.426)" fill="#24406d"/>
        <path id="Path_4449" data-name="Path 4449" d="M2083.226,1321.318s-.222,4.1-.5,8.86c-.2,3.41-.427,7.156-.622,9.961-.026.372-.052.728-.076,1.064-.007.1-.015.208-.022.311a62.56,62.56,0,0,1-2.188,11.8,3.43,3.43,0,0,1-2.872-.346s-1.363-15.973-1.868-22.416c-.372-4.742-.688-11.647-.688-11.647Z" transform="translate(-2064.929 -1290.273)" fill="#ff9e55"/>
        <path id="Path_4450" data-name="Path 4450" d="M2127.491,1404.723c-.2,3.41-.427,7.156-.622,9.961-1.293-3.05-3.935-14.94-3.935-14.94Z" transform="translate(-2109.694 -1364.818)" fill="#ed7d2b"/>
        <path id="Path_4451" data-name="Path 4451" d="M2184.1,1749.113h7.036c.5-.342-.136-3.684-.136-3.684s-1.92-.729-2.252.753-2.446,1.951-3.564,2.132A1.2,1.2,0,0,0,2184.1,1749.113Z" transform="translate(-2166.102 -1683.426)" fill="#24406d"/>
        <path id="Path_4452" data-name="Path 4452" d="M2098.939,1310.783s5.024,12.506,6.63,17.247c1.144,3.377,4.371,15.223,4.371,15.223a3.242,3.242,0,0,0,2.582-.4s1.2-12.1-1.224-15.515c-1.286-1.811-.32-18.821-5.535-18.967S2098.939,1310.783,2098.939,1310.783Z" transform="translate(-2087.567 -1280.554)" fill="#ff9e55"/>
        <path id="Path_4453" data-name="Path 4453" d="M2077.762,1094.715c-.021,1.778-.041,3.084-.036,3.414.014,1.076-.674,1.319-1.383,1.483,0,0-.655.141-1.482.281a16.314,16.314,0,0,1-2.476.265,22.332,22.332,0,0,1-6.48-1.067c-.664,0-.966-1.027-1.075-2.46-.074-.97.226-10.646.263-13.063a6.307,6.307,0,0,1,1.243-3.568c2.463-2.178,9.733-1.9,11.041-.4.324.371.418,3.954.429,7.878C2077.812,1090,2077.786,1092.672,2077.762,1094.715Z" transform="translate(-2056.102 -1068.509)" fill="#aec3ff"/>
        <path id="Path_4454" data-name="Path 4454" d="M2128.18,1042.827c-.928,1.005-4.045.857-3.952-.021.013-.108.033-.751.043-.85.008-.08.016-.158.022-.232.021-.216.038-.407.052-.573.042-.481.055-.742.055-.742h0c.089-.025,2.094-.594,3.09-.83a1.612,1.612,0,0,1,.552-.092C2127.741,1041.726,2128.484,1042.5,2128.18,1042.827Z" transform="translate(-2110.886 -1032.599)" fill="#ffb27d"/>
        <path id="Path_4455" data-name="Path 4455" d="M2129.016,1041.435s-.837.85-3.254.911c.042-.481.055-.742.055-.742h0c.089-.025,2.094-.594,3.09-.83C2129.086,1040.846,2128.853,1041.314,2129.016,1041.435Z" transform="translate(-2112.302 -1033.795)" fill="#ed975d"/>
        <path id="Path_4456" data-name="Path 4456" d="M2113.712,977.526a7.56,7.56,0,0,0,1.392.325c1.141.154,2.641.063,3.113-1.317.794-2.323,1.808-3.717-.528-4.665a3.709,3.709,0,0,0-2.594-.341,1.879,1.879,0,0,0-.961.832C2113.679,973.07,2112.767,977.119,2113.712,977.526Z" transform="translate(-2100.809 -969.836)" fill="#ffb27d"/>
        <path id="Path_4457" data-name="Path 4457" d="M2120.4,951.849a1.1,1.1,0,0,0,.421,2.005,8.1,8.1,0,0,1,1.37.251c.581.258,1.08.532.943,1.433-.046.307-.2.68.593.495a.384.384,0,0,1,.287.017c.327.194-.091,1.135-.217,1.339,0,0-.181.674.221,1,.049.039.84.385,2.748-2.534a2.71,2.71,0,0,0,.123-2.484,4.359,4.359,0,0,0-4.182-2.251A4.634,4.634,0,0,0,2120.4,951.849Z" transform="translate(-2106.898 -951.124)" fill="#233862"/>
        <path id="Path_4458" data-name="Path 4458" d="M2203,1190.093c-.355,1.65-.265,1.667-.809,1.234-2.219-1.763-1.57-2.687-1.078-4.216s-1.237-3.919,0-4.937c1.21-1,1.9.61,1.93.681C2203.046,1185.381,2203.021,1188.049,2203,1190.093Z" transform="translate(-2181.337 -1163.887)" fill="#94b0ed"/>
        <path id="Path_4459" data-name="Path 4459" d="M2182.338,1285.014s-.836,1.368-1.385,1.319-1.288-.253-1.715.155-1.116,1.459-.923,1.739.966.032,1.522-.275,1.431.151,1.9-.2a16.262,16.262,0,0,0,1.583-1.731Z" transform="translate(-2160.733 -1259.02)" fill="#ffb27d"/>
        <path id="Path_4460" data-name="Path 4460" d="M2208.355,1093.576s6.941,6.531,6.04,10.875c-.411,1.979-1.685,3.65-5.081,6.354a6.671,6.671,0,0,1-1.959-2.012s3.083-4.342,2.964-5.081c-.146-.9-2.25-3.174-3.005-3.527S2206.627,1094.334,2208.355,1093.576Z" transform="translate(-2187.082 -1082.486)" fill="#aec3ff"/>
        <path id="Path_4461" data-name="Path 4461" d="M2199.117,1296.031s-.732-.32-.967-.457-.183.085-.111.2a.812.812,0,0,0,.555.385A.917.917,0,0,0,2199.117,1296.031Z" transform="translate(-2178.896 -1268.718)" fill="#ffb27d"/>
      </g>
    </g>
    <g id="Group_1612" data-name="Group 1612" transform="translate(212.433 205.926)">
      <path id="Path_4462" data-name="Path 4462" d="M605.419,942.544c-.251-.484,5.475-2.227,5.565,2.55,0,0,10.725-.264,5.6-6.242-1.773-2.07-1.591-3.781-1.537-5.374s-1.1-6.223-5.074-5.757a2.956,2.956,0,0,0-2.337.25C604.689,929.5,598.079,944.3,605.419,942.544Z" transform="translate(-597.165 -927.59)" fill="#163560"/>
      <path id="Path_4463" data-name="Path 4463" d="M870.234,1161.026s.7-1.063,1.261-1.084,1.6-.312,1.521-.1-.729.229-.792.354.959.313,1.25.334.979,0,.959.146a3.311,3.311,0,0,1-2.1.667,5.835,5.835,0,0,0-1.923.25Z" transform="translate(-844.445 -1141.688)" fill="#ffb27d"/>
      <path id="Path_4464" data-name="Path 4464" d="M740.543,1079.872a10.466,10.466,0,0,0,1.068,1.615,6.25,6.25,0,0,0,3.715,2.476,3.986,3.986,0,0,0,2.207-.358h0a10.065,10.065,0,0,0,3.417-2.857,1.6,1.6,0,0,0-.219-1.574s-3.939.886-4.314.7-2.681-5.3-3.1-6.156a4.672,4.672,0,0,0-2.284-2.331Z" transform="translate(-724.851 -1060.19)" fill="#aec3ff"/>
      <path id="Path_4465" data-name="Path 4465" d="M752.791,1176.416a6.251,6.251,0,0,0,3.715,2.476,3.988,3.988,0,0,0,2.207-.358c-.076.01-2.024.251-2.8-1.139-.792-1.417-1.649-3.668-2.825-2.918C752.579,1174.8,752.6,1175.606,752.791,1176.416Z" transform="translate(-736.031 -1155.119)" fill="#94b0ed"/>
      <path id="Path_4466" data-name="Path 4466" d="M539.979,1720.351s-1.2,1.1-.967,1.876,1.319,1.3,1.466,2.251.733,1.472,1.26,1.472h2.516s.388-.67-.55-.872-1.292-1.321-1.233-2.36a18.312,18.312,0,0,0-.088-2.424l-1.993-.462Z" transform="translate(-538.981 -1658.153)" fill="#1d3356"/>
      <path id="Path_4467" data-name="Path 4467" d="M680.482,1732.485s-.432,4.646.1,4.906l6.752-.014s0-.779-1.085-.952-2.99-.808-3.312-2.223S680.482,1732.485,680.482,1732.485Z" transform="translate(-669.312 -1669.822)" fill="#1d3356"/>
      <path id="Path_4468" data-name="Path 4468" d="M615.206,1070.133a26.869,26.869,0,0,0,0,3.121c.067,1.129,1.208,2.64,1.37,3.014.406.938.865,1.09.865,1.09l3.545.869,1.247.305,3.931-1.174s1.791-5,1.072-7.811a21.621,21.621,0,0,0-1.817-4.767s-2.665-1.052-7.385-.266Z" transform="translate(-609.231 -1053.585)" fill="#aec3ff"/>
      <path id="Path_4469" data-name="Path 4469" d="M629.066,1172.625a11.034,11.034,0,0,0,.333,2.553c.406.938.865,1.09.865,1.09l3.545.869,1.54-.453s-5.14-.779-4.571-5.2Z" transform="translate(-622.053 -1152.495)" fill="#f2ccaa"/>
      <path id="Path_4470" data-name="Path 4470" d="M676.022,1242.691s1.947,6.06,2.072,8.123-3.721,29.308-3.876,30.259c-.146.9-1.259,1.467-1.259,1.467a1.684,1.684,0,0,1-1.242.1,3.073,3.073,0,0,1-1.334-.629s-1.515-19.431-.578-26.372a109.942,109.942,0,0,0,.949-12.944Z" transform="translate(-659.339 -1218.16)" fill="#233862"/>
      <path id="Path_4471" data-name="Path 4471" d="M564.094,1240.371s-2.97,3.984-3.247,6.678-.434,12.155-1.024,14.78-2.757,7.679-2.757,15.869a1.634,1.634,0,0,0,.921.719,7.6,7.6,0,0,0,.81.224,1.273,1.273,0,0,0,1.424-.676c1.465-2.95,6.132-12.464,6.371-14.438.169-1.4,1.643-10.647,4.857-16.075.772-1.3-.474-6.485-.474-6.485Z" transform="translate(-555.659 -1216.02)" fill="#2b478b"/>
      <path id="Path_4472" data-name="Path 4472" d="M650.908,1230.676a4.082,4.082,0,0,1-2.334.65c-1.854.037-6.45-.473-6.45-.473a3.8,3.8,0,0,0-.2,1.173s5.612,1.416,8.864.207A2.055,2.055,0,0,0,650.908,1230.676Z" transform="translate(-633.913 -1207.08)" fill="#233862"/>
      <g id="Group_1611" data-name="Group 1611" transform="translate(14.259 23.928)">
        <path id="Path_4473" data-name="Path 4473" d="M722.139,1235.9a.853.853,0,1,1,.846.958A.908.908,0,0,1,722.139,1235.9Zm.28,0a.575.575,0,1,0,.566-.677A.63.63,0,0,0,722.419,1235.9Z" transform="translate(-722.139 -1234.942)" fill="#fff"/>
      </g>
      <path id="Path_4474" data-name="Path 4474" d="M571.284,1155.895l4.557,3.968a.791.791,0,0,0,1.115-.077l5.815-6.678a.79.79,0,0,0-.077-1.115l-4.557-3.969a.791.791,0,0,0-1.115.077l-5.815,6.678A.791.791,0,0,0,571.284,1155.895Z" transform="translate(-568.519 -1130.683)" fill="#f78248"/>
      <path id="Path_4475" data-name="Path 4475" d="M656.373,1244.992c.065.017,2.421.294,2.421.781a1.465,1.465,0,0,1-1.341,1.282,7.737,7.737,0,0,1-1.479-1.132Z" transform="translate(-646.865 -1220.281)" fill="#ffb27d"/>
      <path id="Path_4476" data-name="Path 4476" d="M675.811,1030.706a7.839,7.839,0,0,0,.42-2.866l.178.035,2.993.593s-.068.942-.07,1.829c0,.007,0,.015,0,.022,0,.771.521,1.544-.716,1.849C678.235,1032.263,675.248,1032.071,675.811,1030.706Z" transform="translate(-665.094 -1020.035)" fill="#ffb27d"/>
      <path id="Path_4477" data-name="Path 4477" d="M687.322,1028.883s-.068.942-.07,1.829c-1.675-.047-2.56-1.575-2.923-2.422Z" transform="translate(-673.013 -1020.45)" fill="#e8945b"/>
      <path id="Path_4478" data-name="Path 4478" d="M682.461,967.5s-3.963.065-3.965-2.4-.516-4.122,2.014-4.268,3.022.8,3.224,1.619S683.492,967.416,682.461,967.5Z" transform="translate(-667.593 -958.224)" fill="#ffb27d"/>
      <path id="Path_4479" data-name="Path 4479" d="M667.223,954.285s-1.085,2.9-2.75,3.324a3.278,3.278,0,0,1-2.387-.018,4.714,4.714,0,0,0,1.542-2.786S666.4,952.907,667.223,954.285Z" transform="translate(-652.502 -951.745)" fill="#163560"/>
      <path id="Path_4480" data-name="Path 4480" d="M724.618,957.655a2.458,2.458,0,0,1,1.136.887,3.99,3.99,0,0,1,.536,2.266s.817-1.968-.1-3.082C725.214,956.546,724.618,957.655,724.618,957.655Z" transform="translate(-710.166 -954.879)" fill="#163560"/>
      <path id="Path_4481" data-name="Path 4481" d="M661.1,1243.355a2.693,2.693,0,0,1,.942-.129c.377.053.657-.008.657.1s-.487.155-.591.206A5.127,5.127,0,0,1,661.1,1243.355Z" transform="translate(-651.597 -1218.645)" fill="#ffb27d"/>
      <path id="Path_4482" data-name="Path 4482" d="M568.966,1067.964a4.8,4.8,0,0,0-3.891,2.818c-1.078,2.621-3.124,7.022-3.124,7.762s1.143,3.022,7.28,4.335c0,0,.635-.668.6-1.2,0,0-3.831-3.29-3.821-3.675.019-.727.628-1.688,3.991-5.052C570.912,1072.041,568.966,1067.964,568.966,1067.964Z" transform="translate(-560.163 -1057.036)" fill="#aec3ff"/>
    </g>
    <g id="Group_1615" data-name="Group 1615" transform="translate(245.183 194.52)">
      <g id="Group_1614" data-name="Group 1614" transform="translate(0 0)">
        <path id="Path_4483" data-name="Path 4483" d="M1014.314,781.076h-30.4a2.772,2.772,0,0,0-1.96.812l-21.493,21.493a2.772,2.772,0,0,0-.812,1.96v30.4a2.771,2.771,0,0,0,.812,1.96l21.493,21.493a2.772,2.772,0,0,0,1.96.812h30.4a2.771,2.771,0,0,0,1.96-.812l21.493-21.493a2.772,2.772,0,0,0,.812-1.96v-30.4a2.772,2.772,0,0,0-.812-1.96l-21.493-21.493A2.772,2.772,0,0,0,1014.314,781.076Z" transform="translate(-959.653 -781.076)" fill="#10b5df"/>
        <g id="Group_1613" data-name="Group 1613" transform="translate(3.951 3.951)">
          <path id="Path_4484" data-name="Path 4484" d="M1058.975,902.849h-26.119a3.958,3.958,0,0,1-2.817-1.167l-18.469-18.469a3.957,3.957,0,0,1-1.167-2.816v-26.12a3.957,3.957,0,0,1,1.167-2.816l18.469-18.469a3.957,3.957,0,0,1,2.817-1.167h26.119a3.957,3.957,0,0,1,2.817,1.167l18.469,18.469a3.957,3.957,0,0,1,1.167,2.816V880.4a3.957,3.957,0,0,1-1.167,2.816l-18.469,18.469A3.957,3.957,0,0,1,1058.975,902.849Zm-26.119-68.316a1.266,1.266,0,0,0-.9.373l-18.469,18.469a1.266,1.266,0,0,0-.373.9V880.4a1.266,1.266,0,0,0,.373.9l18.469,18.469a1.266,1.266,0,0,0,.9.373h26.119a1.267,1.267,0,0,0,.9-.373l18.469-18.469a1.267,1.267,0,0,0,.373-.9v-26.12a1.266,1.266,0,0,0-.373-.9l-18.469-18.469a1.266,1.266,0,0,0-.9-.373Z" transform="translate(-1010.403 -831.825)" fill="#ffe5d4"/>
        </g>
        <path id="Path_4485" data-name="Path 4485" d="M1323.134,1003.748l-.532-.461a3.225,3.225,0,0,0-4.535.326l-3.005,3.471a.709.709,0,0,1-1.244-.464h0a7.617,7.617,0,0,0-.044-.815V983.952a2.617,2.617,0,0,0-2.609-2.61h-.193a2.617,2.617,0,0,0-2.609,2.61v14.223a.625.625,0,0,1-.625.625h0a.69.69,0,0,1-.69-.69V981.2a2.53,2.53,0,0,0-2.522-2.522h-.367a2.53,2.53,0,0,0-2.522,2.522v17.025a.579.579,0,0,1-.578.579h0a.736.736,0,0,1-.736-.736V984.491a2.617,2.617,0,0,0-2.61-2.61h-.193a2.617,2.617,0,0,0-2.609,2.61v13.682a.626.626,0,0,1-.626.626h0a.689.689,0,0,1-.689-.689v-10.7a2.617,2.617,0,0,0-2.61-2.61h-.193a2.617,2.617,0,0,0-2.609,2.61v18.8c0,.052,0,.1.005.155,0,.087-.005.175-.005.263v10.345a7.667,7.667,0,0,0,7.645,7.645h10.345a7.656,7.656,0,0,0,6.429-3.522,16.2,16.2,0,0,1,1.355-1.829l9.5-10.977A3.224,3.224,0,0,0,1323.134,1003.748Z" transform="translate(-1262.604 -963.291)" fill="#ffe5d4"/>
      </g>
    </g>
  </g>
</svg>
