<svg xmlns="http://www.w3.org/2000/svg" xmlns:xlink="http://www.w3.org/1999/xlink" width="164.979" height="164" viewBox="0 0 164.979 164">
  <defs>
    <linearGradient id="linear-gradient" x1="1.091" y1="1.163" x2="0.386" y2="0.408" gradientUnits="objectBoundingBox">
      <stop offset="0" stop-color="#dae3fe"/>
      <stop offset="1" stop-color="#e9effd"/>
    </linearGradient>
    <linearGradient id="linear-gradient-2" y1="0.5" x2="1" y2="0.5" gradientUnits="objectBoundingBox">
      <stop offset="0" stop-color="#09005d"/>
      <stop offset="1" stop-color="#1a0f91"/>
    </linearGradient>
    <linearGradient id="linear-gradient-3" x1="1.323" y1="0.021" x2="0.034" y2="0.708" gradientUnits="objectBoundingBox">
      <stop offset="0" stop-color="#4f52ff"/>
      <stop offset="1" stop-color="#4042e2"/>
    </linearGradient>
    <linearGradient id="linear-gradient-4" x1="0.571" y1="0.385" x2="-2.067" y2="3.776" xlink:href="#linear-gradient-3"/>
    <linearGradient id="linear-gradient-6" x1="0.168" y1="0.318" x2="2.168" y2="0.866" xlink:href="#linear-gradient-2"/>
    <linearGradient id="linear-gradient-7" x1="1.406" y1="0.512" x2="5.004" y2="0.56" xlink:href="#linear-gradient-2"/>
    <linearGradient id="linear-gradient-8" x1="-9.109" y1="0.5" x2="-8.109" y2="0.5" xlink:href="#linear-gradient-2"/>
    <linearGradient id="linear-gradient-9" x1="-22.236" y1="0.318" x2="-20.236" y2="0.866" xlink:href="#linear-gradient-2"/>
    <linearGradient id="linear-gradient-10" x1="-156.808" y1="0.512" x2="-153.21" y2="0.56" xlink:href="#linear-gradient-2"/>
    <linearGradient id="linear-gradient-11" y1="0.5" x2="1" y2="0.5" gradientUnits="objectBoundingBox">
      <stop offset="0" stop-color="#febbba"/>
      <stop offset="1" stop-color="#ff928e"/>
    </linearGradient>
    <linearGradient id="linear-gradient-13" x1="0.508" y1="1.162" x2="0.501" y2="0.545" xlink:href="#linear-gradient-3"/>
    <linearGradient id="linear-gradient-14" x1="0.539" y1="-0.093" x2="0.506" y2="0.69" xlink:href="#linear-gradient-3"/>
    <linearGradient id="linear-gradient-16" x1="1.872" y1="-1.669" x2="0.597" y2="0.314" xlink:href="#linear-gradient-3"/>
    <linearGradient id="linear-gradient-17" x1="0.953" y1="-0.153" x2="0.074" y2="1.115" xlink:href="#linear-gradient-3"/>
    <linearGradient id="linear-gradient-18" x1="0.411" y1="0.932" x2="0.634" y2="-0.163" gradientUnits="objectBoundingBox">
      <stop offset="0" stop-color="#0f8faf"/>
      <stop offset="1" stop-color="#10b5df"/>
    </linearGradient>
    <linearGradient id="linear-gradient-19" x1="0.864" y1="-0.394" x2="0.318" y2="0.974" xlink:href="#linear-gradient-18"/>
    <linearGradient id="linear-gradient-20" x1="0.516" y1="-9.336" x2="0.508" y2="-4.75" xlink:href="#linear-gradient-18"/>
    <clipPath id="clip-path">
      <path id="Path_4266" data-name="Path 4266" d="M1024.63,1161.346l44.079-36.71a1.006,1.006,0,0,0-.549-1.774c-.31-.031-3.807-41.625-4.129-41.607L982,1088.87c-1.031.058-3.3,39.164-4.128,39.667a1,1,0,0,0-.147,1.585l33.209,30.885A10.592,10.592,0,0,0,1024.63,1161.346Z" transform="translate(-977.407 -1081.256)" fill="none"/>
    </clipPath>
    <linearGradient id="linear-gradient-21" x1="0.657" y1="-0.028" x2="0.33" y2="1.17" gradientUnits="objectBoundingBox">
      <stop offset="0" stop-color="#ff928e"/>
      <stop offset="1" stop-color="#fe7062"/>
    </linearGradient>
    <linearGradient id="linear-gradient-22" x1="0.5" y1="-8.27" x2="0.5" y2="-5.631" gradientUnits="objectBoundingBox">
      <stop offset="0" stop-color="#e1473d"/>
      <stop offset="1" stop-color="#e9605a"/>
    </linearGradient>
    <linearGradient id="linear-gradient-23" x1="0.5" y1="-5.74" x2="0.5" y2="-3.237" xlink:href="#linear-gradient-22"/>
    <linearGradient id="linear-gradient-24" x1="0.5" y1="-7.373" x2="0.5" y2="-4.985" xlink:href="#linear-gradient-22"/>
    <linearGradient id="linear-gradient-25" x1="0.5" y1="-6.663" x2="0.5" y2="-3.835" xlink:href="#linear-gradient-22"/>
    <linearGradient id="linear-gradient-26" x1="0.5" y1="-3.087" x2="0.5" y2="-1.862" xlink:href="#linear-gradient-22"/>
    <linearGradient id="linear-gradient-27" x1="0.443" y1="0.025" x2="0.574" y2="1.573" xlink:href="#linear-gradient-18"/>
    <linearGradient id="linear-gradient-28" x1="0.422" y1="-0.02" x2="0.7" y2="1.608" xlink:href="#linear-gradient-18"/>
    <linearGradient id="linear-gradient-29" x1="-11.663" y1="0.5" x2="-10.663" y2="0.5" xlink:href="#linear-gradient-2"/>
    <linearGradient id="linear-gradient-30" x1="-11.14" y1="-42.682" x2="-11.288" y2="-13.23" gradientUnits="objectBoundingBox">
      <stop offset="0" stop-color="#53d8ff"/>
      <stop offset="1" stop-color="#3840f7"/>
    </linearGradient>
    <linearGradient id="linear-gradient-31" x1="-30.227" y1="-0.843" x2="-30.734" y2="2.39" xlink:href="#linear-gradient-11"/>
    <linearGradient id="linear-gradient-32" x1="-7.423" y1="-39.924" x2="-7.524" y2="-11.71" xlink:href="#linear-gradient-30"/>
    <linearGradient id="linear-gradient-33" x1="-8.102" y1="0.5" x2="-7.102" y2="0.5" xlink:href="#linear-gradient-2"/>
    <linearGradient id="linear-gradient-34" x1="-26.311" y1="-1.316" x2="-26.791" y2="1.399" xlink:href="#linear-gradient-11"/>
    <linearGradient id="linear-gradient-35" x1="0.484" y1="0.526" x2="1.93" y2="-0.715" xlink:href="#linear-gradient-2"/>
    <linearGradient id="linear-gradient-36" x1="2.065" y1="-1.35" x2="1.229" y2="-0.408" xlink:href="#linear-gradient-21"/>
    <linearGradient id="linear-gradient-37" x1="0.699" y1="-0.143" x2="-0.009" y2="2.143" xlink:href="#linear-gradient-11"/>
    <linearGradient id="linear-gradient-38" x1="0.447" y1="0.412" x2="-0.055" y2="3.293" xlink:href="#linear-gradient-11"/>
    <linearGradient id="linear-gradient-39" x1="1.987" y1="-0.97" x2="1.326" y2="-0.359" xlink:href="#linear-gradient-21"/>
    <linearGradient id="linear-gradient-40" x1="3.246" y1="-3.101" x2="2.063" y2="-1.609" xlink:href="#linear-gradient-21"/>
    <linearGradient id="linear-gradient-41" x1="0.54" y1="1.217" x2="0.415" y2="-0.22" xlink:href="#linear-gradient-11"/>
    <linearGradient id="linear-gradient-42" x1="2.333" y1="0.199" x2="5.139" y2="-0.265" xlink:href="#linear-gradient-11"/>
    <linearGradient id="linear-gradient-43" x1="-35.108" y1="-22.139" x2="-34.019" y2="-22.139" xlink:href="#linear-gradient-2"/>
    <linearGradient id="linear-gradient-44" x1="-50.362" y1="15.247" x2="-57.266" y2="18.44" xlink:href="#linear-gradient-11"/>
    <linearGradient id="linear-gradient-45" x1="-28.123" y1="9.144" x2="-25.101" y2="10.916" xlink:href="#linear-gradient-11"/>
    <linearGradient id="linear-gradient-46" x1="-13.935" y1="8.991" x2="-12.29" y2="10.951" xlink:href="#linear-gradient-11"/>
    <linearGradient id="linear-gradient-47" x1="0.244" y1="0.957" x2="0.656" y2="0.003" xlink:href="#linear-gradient-21"/>
  </defs>
  <g id="Group_1472" data-name="Group 1472" transform="translate(-446.635 -455)">
    <path id="Path_4225" data-name="Path 4225" d="M601.7,594.422a62.447,62.447,0,0,1-10.97,8.893c-28.409,18.946-60.884,13.485-70.924,11.619-16.2-3.011-29.873-5.136-41.622-15.737-26.7-24.089-25.4-74.341-5-105.47,2.419-3.691,22.787-33.846,55.332-38.095.8-.1,1.39-.163,1.91-.218,5.035-.532,36.233-3.342,61.673,17.945a75.825,75.825,0,0,1,14.936,16.926C626.912,520.935,626.974,568.406,601.7,594.422Z" transform="translate(-10.7 0)" fill="url(#linear-gradient)"/>
    <g id="Group_1436" data-name="Group 1436" transform="translate(567.526 457.631)">
      <path id="Path_4226" data-name="Path 4226" d="M2510.693,606.062s-1.914-63.724,14.75-104.053c1.12-2.711,4.272-2.792,5.553-.134C2539.562,519.651,2560.789,575.061,2510.693,606.062Z" transform="translate(-2510.627 -499.928)" fill="#bdd0fb"/>
      <path id="Path_4227" data-name="Path 4227" d="M2579.844,924.639c-.087.181.122.358.229.193,3.931-6.066,18.063-34.247,15.184-80.652-.009-.149-.192-.15-.193,0C2594.966,855.177,2593.647,896.029,2579.844,924.639Z" transform="translate(-2575.77 -823.912)" fill="#fff" opacity="0.5"/>
    </g>
    <g id="Group_1437" data-name="Group 1437" transform="translate(581.288 491.077)">
      <path id="Path_4228" data-name="Path 4228" d="M2747.377,1163.224s-4.7-10.859,1.152-26.7c5.426-14.7,19.432-49.368,19.2-64.912a.636.636,0,0,1,1.211-.285,78.018,78.018,0,0,1,5.747,46.1C2769.6,1145.853,2747.377,1163.224,2747.377,1163.224Z" transform="translate(-2745.594 -1070.959)" fill="#91b3fa"/>
      <path id="Path_4229" data-name="Path 4229" d="M2829.732,1317.859a27.149,27.149,0,0,1,.976,4.8c.025.2.056.405.079.608l.056.611.111,1.223.06,1.226c.016.409.049.818.04,1.227a57.923,57.923,0,0,1-.708,9.79c-.1.815-.278,1.614-.43,2.419s-.292,1.613-.506,2.4l-.588,2.387c-.089.4-.22.789-.336,1.182l-.356,1.176-.356,1.176-.18.587-.207.579-.827,2.314c-.141.384-.269.775-.42,1.154l-.452,1.138-.9,2.277c-1.229,3.025-2.481,6.042-3.806,9.026-.651,1.5-1.327,2.983-1.994,4.472l-2.049,4.444c-1.369,2.96-2.742,5.918-4.016,8.912-.329.745-.621,1.5-.925,2.258-.157.376-.288.76-.428,1.141s-.282.762-.409,1.148c-.238.775-.5,1.544-.688,2.334-.227.781-.354,1.582-.506,2.38v.005a.1.1,0,0,1-.116.079.1.1,0,0,1-.08-.11,28.861,28.861,0,0,1,1.058-4.8c.118-.392.256-.777.383-1.166s.253-.779.4-1.16c.286-.766.561-1.537.871-2.293,1.211-3.037,2.56-6.011,3.88-8.994l1.982-4.472c.656-1.492,1.321-2.98,1.961-4.478,1.3-2.99,2.546-6,3.772-9.017l.9-2.272.449-1.136c.15-.379.281-.762.422-1.143l.833-2.288.208-.572.182-.581.359-1.163a72.007,72.007,0,0,0,2.307-9.453,57.452,57.452,0,0,0,.925-9.689c.018-.406-.007-.812-.006-1.218l-.016-1.219-.067-1.217-.034-.609c-.015-.2-.038-.4-.056-.607-.042-.4-.071-.811-.124-1.214l-.166-1.209a24.055,24.055,0,0,0-.483-2.393.013.013,0,0,1,.008-.016A.013.013,0,0,1,2829.732,1317.859Z" transform="translate(-2806.008 -1303.389)" fill="#fff" opacity="0.45"/>
    </g>
    <g id="Group_1439" data-name="Group 1439" transform="translate(514.765 455)">
      <path id="Path_4230" data-name="Path 4230" d="M2363.483,923.78s9.121,4.354,12.492,7.692l-13.087-.58Z" transform="translate(-2318.781 -896.323)" fill="url(#linear-gradient-2)"/>
      <path id="Path_4231" data-name="Path 4231" d="M1984.729,983.353s6.748,1.8,8.549,2.36c2.322.726,5.515,18.721,5.8,25.977s-1.037,32.943-1.037,32.943l-35.969-.047-.581-54.665,13.5-6.676Z" transform="translate(-1940.898 -952.305)" fill="#91b3fa"/>
      <path id="Path_4232" data-name="Path 4232" d="M2196.013,1144.3l6.208,37.25a3.263,3.263,0,0,1-.314,2.022l-4.551,8.884a1.17,1.17,0,0,1-2.087-.01l-4.516-9.032a3.262,3.262,0,0,1-.335-1.695l2.692-36.984Z" transform="translate(-2156.405 -1103.925)" fill="url(#linear-gradient-3)"/>
      <path id="Path_4233" data-name="Path 4233" d="M2212.724,1054.939l-.229,2.134a1.662,1.662,0,0,0,.173.934l.729,1.422a1.66,1.66,0,0,0,1.388.9c.351.019.756.034,1.141.033a1.661,1.661,0,0,0,1.556-1.093l.469-1.289a1.664,1.664,0,0,0,.076-.851l-.405-2.349a1.661,1.661,0,0,0-1.691-1.378l-1.61.052A1.661,1.661,0,0,0,2212.724,1054.939Z" transform="translate(-2177.188 -1018.354)" fill="url(#linear-gradient-4)"/>
      <path id="Path_4234" data-name="Path 4234" d="M2260.735,993.1l3.177,8.808a1.126,1.126,0,0,0,2.078.1l3.776-8-2.131-4.571Z" transform="translate(-2222.611 -958.137)" fill="#bdd0fb"/>
      <path id="Path_4235" data-name="Path 4235" d="M2118.9,988.2l6.531,4.354-2.29,7.7a1.126,1.126,0,0,1-2.119.111l-3.428-8.248Z" transform="translate(-2087.852 -956.971)" fill="#bdd0fb"/>
      <path id="Path_4236" data-name="Path 4236" d="M1637.978,1012.978l-20.668,8.963a12.416,12.416,0,0,0-7.468,11.844l1.432,38.792h36.49l-2.24-46.683Z" transform="translate(-1609.834 -980.297)" fill="url(#linear-gradient-2)"/>
      <path id="Path_4237" data-name="Path 4237" d="M2021.2,953.512a15.251,15.251,0,0,0-9.318,4.752.892.892,0,0,0-.12,1.011c1.327,2.522,6.894,13.271,8.218,18.521a1.173,1.173,0,0,1-.655,1.356l-1.265.571a2.866,2.866,0,0,0-1.536,3.531c2.385,7.051,9.063,27.23,9.506,33.34l-1.5-47.764s-4.343-8.933-4.924-10.094S2021.2,953.512,2021.2,953.512Z" transform="translate(-1988.121 -924.314)" fill="url(#linear-gradient-6)"/>
      <path id="Path_4238" data-name="Path 4238" d="M1854.414,1512.244a.281.281,0,0,1-.29-.255l-1.649-31.677a.277.277,0,0,1,.276-.281.283.283,0,0,1,.3.255l1.649,31.677a.277.277,0,0,1-.276.281Z" transform="translate(-1838.262 -1419.994)" fill="url(#linear-gradient-7)"/>
      <path id="Path_4239" data-name="Path 4239" d="M2328.784,1012.978l20.668,8.963a12.416,12.416,0,0,1,7.468,11.844l-1.432,38.792H2319l2.24-46.683Z" transform="translate(-2277.46 -980.297)" fill="url(#linear-gradient-8)"/>
      <path id="Path_4240" data-name="Path 4240" d="M2324.219,953.512a15.251,15.251,0,0,1,9.318,4.752.893.893,0,0,1,.121,1.011c-1.327,2.522-6.895,13.271-8.218,18.521a1.173,1.173,0,0,0,.655,1.356l1.265.571a2.867,2.867,0,0,1,1.536,3.531c-2.385,7.051-9.063,27.23-9.506,33.34l1.5-47.764s4.343-8.933,4.924-10.094S2324.219,953.512,2324.219,953.512Z" transform="translate(-2277.829 -924.314)" fill="url(#linear-gradient-9)"/>
      <path id="Path_4241" data-name="Path 4241" d="M2686.171,1512.244a.281.281,0,0,0,.29-.255l1.649-31.677a.277.277,0,0,0-.276-.281.283.283,0,0,0-.3.255l-1.649,31.677a.277.277,0,0,0,.276.281Z" transform="translate(-2622.856 -1419.994)" fill="url(#linear-gradient-10)"/>
      <path id="Path_4242" data-name="Path 4242" d="M2085.381,741.432s.29,16.834,10.159,16.979,9.723-20.463,9.723-20.463Z" transform="translate(-2057.528 -721.376)" fill="url(#linear-gradient-11)"/>
      <path id="Path_4243" data-name="Path 4243" d="M2057.938,816.046l21.516-.9a.453.453,0,0,1,.458.563l-.25,1a.453.453,0,0,1-.383.34l-.952.119-.57,2.659a2.218,2.218,0,0,1-2.169,1.753h-3.13a2.218,2.218,0,0,1-2.077-1.439l-.666-1.776a.873.873,0,0,0-.818-.567h0a.873.873,0,0,0-.838.629l-.454,1.556a2.218,2.218,0,0,1-2.129,1.6H2062.5a2.217,2.217,0,0,1-2.129-1.6l-.637-2.185h-1.545a.453.453,0,0,1-.437-.334l-.232-.851A.453.453,0,0,1,2057.938,816.046Z" transform="translate(-2031.283 -794.055)" fill="url(#linear-gradient-2)"/>
      <path id="Path_4244" data-name="Path 4244" d="M1932.425,711.329l-9.308-2.968-11.175-.14v-.005l-.218,0-.218,0v.005l-11.175.14-9.308,2.968a.731.731,0,0,0-.471.927.719.719,0,0,0,.2.311c.834.74,5.8,3.776,20.969,3.641,15.891.135,20.134-2.9,20.968-3.641a.72.72,0,0,0,.2-.311A.731.731,0,0,0,1932.425,711.329Z" transform="translate(-1874.075 -693.385)" fill="url(#linear-gradient-13)"/>
      <path id="Path_4245" data-name="Path 4245" d="M2049.337,469.88a46.139,46.139,0,0,1,4.53-13.436,2.1,2.1,0,0,1,2.944-.74l2.43,1.535a2.1,2.1,0,0,0,2.5-.2l1.729-1.519a2.1,2.1,0,0,1,3.193.518c1.827,3.141,5.05,9.122,6.239,14.107a1.54,1.54,0,0,1-1.089,1.85,42.754,42.754,0,0,1-21.345-.344A1.541,1.541,0,0,1,2049.337,469.88Z" transform="translate(-2023.571 -455)" fill="url(#linear-gradient-14)"/>
      <g id="Group_1438" data-name="Group 1438" transform="translate(25.741 12.145)">
        <path id="Path_4246" data-name="Path 4246" d="M2072.083,662.583c-11.957,3.149-19.74.745-22.167-.229-.257,1.086-.447,2.028-.578,2.736a1.541,1.541,0,0,0,1.134,1.773,42.755,42.755,0,0,0,21.345.344,1.54,1.54,0,0,0,1.089-1.85C2072.691,664.457,2072.41,663.525,2072.083,662.583Z" transform="translate(-2049.312 -662.354)" fill="url(#linear-gradient-2)"/>
      </g>
    </g>
    <g id="Group_1440" data-name="Group 1440" transform="translate(539.261 472.926)">
      <path id="Path_4247" data-name="Path 4247" d="M2054.7,1354.8l-25.772,21.238a2.4,2.4,0,0,0-.2,3.522l.16.166a2.233,2.233,0,0,0,3.168.048l24.022-23.455Z" transform="translate(-2028.057 -1320.021)" fill="url(#linear-gradient-16)"/>
      <ellipse id="Ellipse_108" data-name="Ellipse 108" cx="18.281" cy="17.952" rx="18.281" ry="17.952" transform="translate(17.71 12.2) rotate(-19.492)" fill="#fff" opacity="0.19"/>
      <path id="Path_4248" data-name="Path 4248" d="M2393.86,813.481a19.979,19.979,0,1,0,25.841,12.043A20.161,20.161,0,0,0,2393.86,813.481Zm12.351,34.9a17.044,17.044,0,1,1,10.674-21.855A17.2,17.2,0,0,1,2406.211,848.376Z" transform="translate(-2359.591 -809.288)" fill="url(#linear-gradient-17)"/>
      <path id="Path_4249" data-name="Path 4249" d="M2405.19,862.139a.052.052,0,0,1-.047-.029c-.214-.424-.414-.862-.594-1.3a.052.052,0,1,1,.1-.04c.18.438.379.873.591,1.295a.052.052,0,0,1-.046.076Zm-1.732-5.312a.052.052,0,0,1-.051-.044,18.3,18.3,0,0,1-.218-3.889,18.711,18.711,0,0,1,3.681-10.206,19.3,19.3,0,0,1,19.624-7.318.052.052,0,1,1-.023.1,19.2,19.2,0,0,0-19.517,7.278,18.607,18.607,0,0,0-3.66,10.149,18.22,18.22,0,0,0,.217,3.867.052.052,0,0,1-.043.06Z" transform="translate(-2381.195 -830.589)" fill="#fff"/>
      <path id="Path_4250" data-name="Path 4250" d="M2042.624,1687.505a1.827,1.827,0,0,1-1.908-1.028,1.8,1.8,0,0,1,.528-2.021l3.062-2.642a.044.044,0,1,1,.058.067l-3.062,2.642a1.707,1.707,0,0,0-.5,1.921,1.758,1.758,0,0,0,1.858.973h0a.044.044,0,0,1,0,.088Z" transform="translate(-2039.859 -1627.874)" fill="#fff"/>
      <path id="Path_4251" data-name="Path 4251" d="M2119.856,1662.486a.044.044,0,0,1-.029-.078l.4-.342a.044.044,0,0,1,.062,0,.044.044,0,0,1,0,.062l-.4.342A.044.044,0,0,1,2119.856,1662.486Z" transform="translate(-2114.438 -1609.282)" fill="#fff"/>
    </g>
    <g id="Group_1443" data-name="Group 1443" transform="translate(447.038 517.453)">
      <g id="Group_1442" data-name="Group 1442" transform="translate(7.333 0)">
        <path id="Path_4252" data-name="Path 4252" d="M724.63,1609.015a2.588,2.588,0,0,1-2.581,2.579H582.454a2.588,2.588,0,0,1-2.581-2.579l-1.162-80.221a4.5,4.5,0,0,1,4.734-3.979l136.427-3.53a6.505,6.505,0,0,1,6.675,6.653Z" transform="translate(-578.711 -1521.282)" fill="url(#linear-gradient-18)"/>
        <path id="Path_4253" data-name="Path 4253" d="M779.48,1655.709a2.449,2.449,0,0,1-2.442,2.442H643.219a2.449,2.449,0,0,1-2.442-2.442l-1.1-72.825a6.01,6.01,0,0,1,6.3-5.865l130.753-3.508a4.572,4.572,0,0,1,4.691,4.678Z" transform="translate(-636.11 -1570.451)" fill="url(#linear-gradient-19)"/>
        <g id="Group_1441" data-name="Group 1441" transform="translate(5.37 6.997)">
          <path id="Path_4254" data-name="Path 4254" d="M670.929,1669.776a.2.2,0,0,1-.2-.2l-.332-22.62a4.789,4.789,0,0,1,1.384-3.591,6.584,6.584,0,0,1,4.361-1.5l41.755-1.12h.005a.2.2,0,0,1,.005.4l-41.767,1.12a6.172,6.172,0,0,0-4.086,1.394,4.407,4.407,0,0,0-1.261,3.3l.332,22.616a.2.2,0,0,1-.2.2Z" transform="translate(-670.398 -1640.744)" fill="#91b3fa"/>
        </g>
        <path id="Path_4255" data-name="Path 4255" d="M754.721,1739.621c.14-6.019.088-59.32-.257-63.923s6.824-5.467,17.831-5.985,103.878-2.569,106.27-2.763c5.375-.436,6.487,7.6,5.95,25.039-.4,13.1-1.074,34.689-1.382,44.615a5.477,5.477,0,0,1-5.465,5.309c-22.349.062-108,.307-113.706.477C757.4,1742.585,754.666,1742.007,754.721,1739.621Z" transform="translate(-744.159 -1658.402)" fill="#91b3fa" opacity="0.24"/>
      </g>
      <rect id="Rectangle_187" data-name="Rectangle 187" width="164.577" height="7.049" rx="3.524" transform="translate(0 87.358)" fill="url(#linear-gradient-20)"/>
    </g>
    <g id="Group_1451" data-name="Group 1451" transform="translate(475.26 491.68)">
      <g id="Group_1444" data-name="Group 1444" transform="translate(1.649 10.34)">
        <path id="Path_4256" data-name="Path 4256" d="M1009.172,1259.986l-45.666,35.836a6.332,6.332,0,0,0,2.952.562l86.533-4.265a6.23,6.23,0,0,0,3.842-1.551l-33.971-30.211A11.027,11.027,0,0,0,1009.172,1259.986Z" transform="translate(-963.506 -1257.785)" fill="#7d97f4"/>
      </g>
      <path id="Path_4257" data-name="Path 4257" d="M1024.75,1862.347h-83.3a6.09,6.09,0,0,1-6.09-6.09v-54.243a6.09,6.09,0,0,1,5.751-6.08l86.517-4.822a6.09,6.09,0,0,1,6.419,6.411l-3.214,59.065A6.09,6.09,0,0,1,1024.75,1862.347Z" transform="translate(-935.358 -1749.526)" fill="#72c9df"/>
      <g id="Group_1445" data-name="Group 1445" transform="translate(1.915 41.577)">
        <path id="Path_4258" data-name="Path 4258" d="M1015.822,1829.618l45.536-37.923a6.052,6.052,0,0,0-2.954-.581l-86.517,4.822a6.069,6.069,0,0,0-3.836,1.648l34.079,31.694A10.593,10.593,0,0,0,1015.822,1829.618Z" transform="translate(-968.051 -1791.104)" fill="#7d97f4"/>
      </g>
      <g id="Group_1450" data-name="Group 1450" transform="translate(2.463)">
        <g id="Group_1449" data-name="Group 1449" clip-path="url(#clip-path)">
          <g id="Group_1448" data-name="Group 1448" transform="translate(12.113 8.834)">
            <path id="Path_4259" data-name="Path 4259" d="M1249.916,1315.287h-65.7v-74.646a5.39,5.39,0,0,1,5.08-5.382l54.922-3.165a5.39,5.39,0,0,1,5.7,5.382Z" transform="translate(-1184.213 -1232.085)" fill="url(#linear-gradient-21)"/>
            <path id="Path_4260" data-name="Path 4260" d="M1283.8,1406.809H1222.6v-69.537a5.021,5.021,0,0,1,4.733-5.013l51.163-2.948a5.022,5.022,0,0,1,5.311,5.013Z" transform="translate(-1220.35 -1323.608)" fill="#fff" opacity="0.67"/>
            <g id="Group_1447" data-name="Group 1447" transform="translate(11.23 16.929)">
              <g id="Group_1446" data-name="Group 1446">
                <path id="Path_4261" data-name="Path 4261" d="M1908.26,1948.01a3,3,0,0,0-3.991.612h0a.883.883,0,0,1-1.237.119l-2.961-2.389a2.876,2.876,0,0,1-2.175,2.807l2.841,2.27a.938.938,0,0,1,.148,1.33h0a2.936,2.936,0,0,0,.463,4.172h0a3.009,3.009,0,0,0,4.2-.46h0a2.929,2.929,0,0,1,3.376-4.177h0A2.944,2.944,0,0,0,1908.26,1948.01Z" transform="translate(-1867.325 -1921.444)" fill="url(#linear-gradient-22)"/>
                <path id="Path_4262" data-name="Path 4262" d="M1379.921,1531.042a3.475,3.475,0,0,0,4.486-.526h0a1,1,0,0,1,1.365-.086l3.15,2.516a10.207,10.207,0,0,1,2.061-3.058l-2.713-2.188a.967.967,0,0,1-.164-1.4h0a3.046,3.046,0,0,0-.512-4.39,3.388,3.388,0,0,0-4.634.228h0a2.936,2.936,0,0,0-.349,3.379,3.348,3.348,0,0,0-3.462.9h0A3.068,3.068,0,0,0,1379.921,1531.042Z" transform="translate(-1378.269 -1521.11)" fill="url(#linear-gradient-23)"/>
                <path id="Path_4263" data-name="Path 4263" d="M1389.072,1926.7a2.924,2.924,0,0,1-1.417-3.255,2.422,2.422,0,0,0,.061-.405l-4.4,3.149a1.015,1.015,0,0,1-1.362-.184l-.047-.059a3.491,3.491,0,0,0-4.666-.63h0a2.983,2.983,0,0,0-.6,4.389h0a3.488,3.488,0,0,0,3.44,1.147,2.959,2.959,0,0,0,.3,3.388h0a3.427,3.427,0,0,0,4.616.559h0a2.981,2.981,0,0,0,.583-4.332h0a.946.946,0,0,1,.185-1.378Z" transform="translate(-1375.944 -1899.496)" fill="url(#linear-gradient-24)"/>
                <path id="Path_4264" data-name="Path 4264" d="M1914.692,1560.441a9.946,9.946,0,0,1,2.069,3l2.238-1.619a.9.9,0,0,1,1.235.208h0a3.063,3.063,0,0,0,4.109.819,2.9,2.9,0,0,0,.623-4.161h0a3.075,3.075,0,0,0-3.038-1.205,2.98,2.98,0,0,0-.255-3.229,3.065,3.065,0,0,0-4.194-.765h0a2.907,2.907,0,0,0-.548,4.152h0a.929.929,0,0,1-.174,1.324Z" transform="translate(-1883.137 -1551.097)" fill="url(#linear-gradient-25)"/>
              </g>
              <path id="Path_4265" data-name="Path 4265" d="M1588.1,1638.2a11.466,11.466,0,0,0-12.3-.121,8.962,8.962,0,0,0-3.21,12.051,5.14,5.14,0,0,1,.775,3.787,1.363,1.363,0,0,0,1.03,1.7,11.891,11.891,0,0,0,2.267.416c1.32.133,1.677.535,1.437,1.76a4.842,4.842,0,0,1-.125.475c-.243.8.062,1.294.867,1.6a9.8,9.8,0,0,0,6.355.28c1.822-.521,2.019-.876,1.5-2.369a1.143,1.143,0,0,1-.037-.24c-.11-.932.179-1.3,1.128-1.4.573-.062,1.156-.057,1.717-.161,1.42-.264,1.833-.842,1.628-2.244a3.346,3.346,0,0,1,.294-2.479c1-1.522,1.259-3.247,1.3-5.923C1592.855,1642.667,1591.2,1640.02,1588.1,1638.2Zm-8.572,14.279a17.292,17.292,0,0,1-2.045.478c-1.275-.081-2.091-.571-2.308-1.458a2.176,2.176,0,0,1,1.29-2.656,7.422,7.422,0,0,1,2.058-.439,1.954,1.954,0,0,1,2.344,1.452A1.983,1.983,0,0,1,1579.523,1652.476Zm3.781,3.836-1.637-.011a.911.911,0,0,1-.851-1.281l.981-2.057a.741.741,0,0,1,1.325.016l1.006,2.07A.882.882,0,0,1,1583.3,1656.312Zm6.119-4.576c-.212.849-1,1.3-2.526,1.246a11.959,11.959,0,0,1-1.546-.381,2.1,2.1,0,0,1-1.469-2.729,1.424,1.424,0,0,1,1.4-1.263,9.495,9.495,0,0,1,2.825.448A2.191,2.191,0,0,1,1589.423,1651.736Z" transform="translate(-1560.008 -1629.598)" fill="url(#linear-gradient-26)"/>
            </g>
          </g>
        </g>
      </g>
    </g>
    <g id="Group_1460" data-name="Group 1460" transform="translate(452.943 460.922)">
      <g id="Group_1456" data-name="Group 1456" transform="translate(0 5.415)" opacity="0.88">
        <g id="Group_1452" data-name="Group 1452">
          <path id="Path_4267" data-name="Path 4267" d="M559.432,1143.149a.2.2,0,0,1-.195-.163q-.072-.393-.132-.788a.2.2,0,0,1,.393-.059q.059.39.13.776a.2.2,0,0,1-.159.231A.2.2,0,0,1,559.432,1143.149Z" transform="translate(-558.823 -1113.071)" fill="#10b5df"/>
          <path id="Path_4268" data-name="Path 4268" d="M554.555,675.322a.2.2,0,0,1-.2-.189c-.019-.4-.028-.8-.028-1.2q0-.194,0-.389a.2.2,0,0,1,.4.006q0,.192,0,.383c0,.391.01.787.028,1.177a.2.2,0,0,1-.189.208Zm.144-4.121h-.023a.2.2,0,0,1-.174-.22c.056-.478.126-.96.209-1.435l.024-.133a.2.2,0,0,1,.391.071l-.023.131c-.081.467-.151.942-.206,1.412A.2.2,0,0,1,554.7,671.2Zm.809-4.042a.2.2,0,0,1-.055-.008.2.2,0,0,1-.136-.245c.145-.506.307-1.014.483-1.509a.2.2,0,1,1,.374.133c-.173.487-.333.987-.476,1.485A.2.2,0,0,1,555.508,667.159Zm1.455-3.857a.2.2,0,0,1-.085-.019.2.2,0,0,1-.094-.264c.226-.475.47-.95.726-1.411a.2.2,0,1,1,.347.193c-.252.454-.492.921-.714,1.389A.2.2,0,0,1,556.963,663.3Zm2.072-3.567a.2.2,0,0,1-.163-.312c.3-.432.62-.86.947-1.271a.2.2,0,0,1,.311.247c-.322.405-.636.826-.932,1.252A.2.2,0,0,1,559.035,659.735Zm2.629-3.178a.2.2,0,0,1-.142-.337c.368-.377.752-.747,1.142-1.1a.2.2,0,1,1,.266.294c-.384.347-.762.711-1.124,1.082A.2.2,0,0,1,561.664,656.557Zm3.111-2.706a.2.2,0,0,1-.118-.358c.424-.312.864-.614,1.305-.9a.2.2,0,1,1,.215.334c-.435.28-.867.577-1.285.885A.2.2,0,0,1,564.776,653.851Zm28.622-.824a.2.2,0,0,1-.108-.032c-.434-.283-.883-.555-1.333-.81a.2.2,0,0,1,.2-.345c.458.259.914.536,1.354.823a.2.2,0,0,1-.108.365Zm-25.113-1.34a.2.2,0,0,1-.09-.375c.467-.238.95-.465,1.433-.674a.2.2,0,1,1,.158.364c-.476.206-.951.43-1.411.664A.2.2,0,0,1,568.284,651.688Zm21.484-.618a.2.2,0,0,1-.079-.017c-.474-.207-.962-.4-1.448-.58a.2.2,0,1,1,.136-.373c.495.18.99.378,1.472.589a.2.2,0,0,1-.08.38Zm-17.671-.944a.2.2,0,0,1-.06-.388c.5-.159,1.015-.3,1.523-.431a.2.2,0,1,1,.1.385c-.5.125-1.005.267-1.5.424A.2.2,0,0,1,572.1,650.125Zm13.77-.391a.2.2,0,0,1-.049-.006c-.5-.127-1.015-.24-1.524-.336a.2.2,0,0,1,.073-.39c.517.1,1.038.212,1.548.341a.2.2,0,0,1-.048.391Zm-9.753-.526a.2.2,0,0,1-.028-.395c.521-.074,1.051-.133,1.575-.174a.2.2,0,0,1,.214.182.2.2,0,0,1-.182.213c-.516.041-1.037.1-1.55.172Zm5.686-.158h-.017c-.517-.044-1.041-.073-1.557-.085a.2.2,0,0,1,0-.4h0c.525.012,1.057.041,1.582.086a.2.2,0,0,1-.017.4Z" transform="translate(-554.328 -648.567)" fill="#10b5df"/>
          <path id="Path_4269" data-name="Path 4269" d="M1254.234,744.632a.2.2,0,0,1-.13-.048q-.3-.257-.6-.5a.2.2,0,0,1,.25-.309q.311.252.614.512a.2.2,0,0,1-.13.349Z" transform="translate(-1212.48 -738.153)" fill="#10b5df"/>
        </g>
        <g id="Group_1453" data-name="Group 1453" transform="translate(7.878 22.71)">
          <path id="Path_4270" data-name="Path 4270" d="M1411.372,1037.482a.2.2,0,0,1-.2-.186q-.026-.393-.063-.784a.2.2,0,1,1,.395-.039q.039.4.065.8a.2.2,0,0,1-.185.211Z" transform="translate(-1368.805 -1036.295)" fill="#10b5df"/>
          <path id="Path_4271" data-name="Path 4271" d="M747.946,1117.372a.2.2,0,0,1,0-.4c.51-.01,1.025-.037,1.533-.078a.2.2,0,0,1,.214.181.2.2,0,0,1-.182.214c-.516.042-1.039.069-1.557.08Zm-2.512-.075h-.016c-.515-.041-1.036-.1-1.55-.172a.2.2,0,1,1,.056-.393c.505.072,1.019.129,1.526.169a.2.2,0,0,1-.016.4Zm6.548-.335a.2.2,0,0,1-.036-.394c.5-.093,1-.2,1.5-.325a.2.2,0,0,1,.1.385c-.5.125-1.013.236-1.522.33A.2.2,0,0,1,751.982,1116.962Zm-10.554-.31a.21.21,0,0,1-.047-.006c-.5-.123-1.008-.263-1.5-.416a.2.2,0,0,1,.117-.379c.487.151.985.289,1.48.409a.2.2,0,0,1-.047.391Zm14.467-.747a.2.2,0,0,1-.067-.385c.479-.172.959-.361,1.427-.563a.2.2,0,1,1,.157.364c-.475.2-.963.4-1.45.572A.2.2,0,0,1,755.9,1115.9Zm-18.319-.529a.2.2,0,0,1-.077-.016c-.476-.2-.953-.422-1.416-.653a.2.2,0,0,1,.177-.355c.456.228.925.444,1.394.643a.2.2,0,0,1-.078.381Zm22.014-1.146a.2.2,0,0,1-.1-.372c.445-.247.888-.51,1.319-.785a.2.2,0,1,1,.213.335c-.437.279-.888.547-1.34.8A.2.2,0,0,1,759.589,1114.229Zm-25.608-.737a.2.2,0,0,1-.106-.031c-.437-.277-.872-.571-1.292-.874a.2.2,0,0,1,.232-.322c.413.3.841.588,1.271.86a.2.2,0,0,1-.106.366Zm28.987-1.508a.2.2,0,0,1-.123-.354c.4-.315.8-.647,1.177-.986a.2.2,0,1,1,.264.3c-.387.344-.789.681-1.2,1A.2.2,0,0,1,762.969,1111.985Zm2.977-2.757a.2.2,0,0,1-.146-.333c.345-.375.683-.766,1-1.162a.2.2,0,0,1,.308.25c-.326.4-.67.8-1.02,1.181A.2.2,0,0,1,765.945,1109.228Zm2.5-3.2a.2.2,0,0,1-.166-.307c.28-.426.55-.867.8-1.31a.2.2,0,1,1,.344.2c-.257.45-.532.9-.816,1.331A.2.2,0,0,1,768.441,1106.027Zm1.946-3.562a.2.2,0,0,1-.08-.017.2.2,0,0,1-.1-.262c.207-.464.4-.942.58-1.421a.2.2,0,0,1,.372.139c-.181.487-.38.972-.589,1.443A.2.2,0,0,1,770.387,1102.465Zm1.343-3.828a.2.2,0,0,1-.051-.006.2.2,0,0,1-.141-.242c.129-.491.245-.994.344-1.5a.2.2,0,1,1,.389.077c-.1.509-.218,1.02-.349,1.519A.2.2,0,0,1,771.73,1098.637Zm.714-3.994h-.019a.2.2,0,0,1-.178-.217c.05-.509.084-1.024.1-1.531a.2.2,0,0,1,.4.014c-.018.516-.053,1.039-.1,1.556A.2.2,0,0,1,772.443,1094.643Z" transform="translate(-729.944 -1089.399)" fill="#10b5df"/>
          <path id="Path_4272" data-name="Path 4272" d="M689.618,1390.843a.2.2,0,0,1-.132-.05q-.3-.266-.589-.54a.2.2,0,0,1,.273-.288q.285.27.58.532a.2.2,0,0,1-.132.347Z" transform="translate(-688.835 -1369.199)" fill="#10b5df"/>
        </g>
        <g id="Group_1455" data-name="Group 1455" transform="translate(5.99 5.75)">
          <path id="Path_4273" data-name="Path 4273" d="M661.024,778.59a.3.3,0,0,0,.327.127l3.56-.9a16,16,0,0,0,4.285,2.918l.466,3.641a.3.3,0,0,0,.238.257l4.314.9a.3.3,0,0,0,.321-.141l1.878-3.154a16,16,0,0,0,5.093-.97l2.906,2.247a.3.3,0,0,0,.35.014l3.684-2.417a.3.3,0,0,0,.127-.327l-.9-3.56a16,16,0,0,0,2.918-4.285l3.641-.466a.3.3,0,0,0,.257-.238l.9-4.314a.3.3,0,0,0-.141-.321l-3.154-1.878a16,16,0,0,0-.97-5.093l2.247-2.906a.3.3,0,0,0,.014-.35l-2.416-3.684a.3.3,0,0,0-.327-.127l-3.56.9a16,16,0,0,0-4.285-2.918l-.466-3.641a.3.3,0,0,0-.238-.257l-4.314-.9a.3.3,0,0,0-.321.141l-1.878,3.154a16,16,0,0,0-5.093.97l-2.906-2.247a.3.3,0,0,0-.35-.014l-3.684,2.416a.3.3,0,0,0-.127.327l.9,3.56a16,16,0,0,0-2.918,4.285l-3.641.466a.3.3,0,0,0-.257.238l-.9,4.314a.3.3,0,0,0,.141.321l3.154,1.878a16,16,0,0,0,.97,5.092l-2.247,2.906a.3.3,0,0,0-.014.35Z" transform="translate(-656.597 -746.743)" fill="#10b5df"/>
          <g id="Group_1454" data-name="Group 1454" transform="translate(15.185 15.185)">
            <path id="Path_4274" data-name="Path 4274" d="M920.061,1014.419a4.21,4.21,0,1,1,.183,0Q920.153,1014.419,920.061,1014.419Zm.17-.3h0Zm-.164-7.524c-.051,0-.1,0-.155,0a3.615,3.615,0,0,0,.307,7.223h0a3.615,3.615,0,0,0-.152-7.226Z" transform="translate(-915.856 -1005.999)" fill="#bdd0fb"/>
          </g>
          <path id="Path_4275" data-name="Path 4275" d="M813.337,912.105a11.039,11.039,0,0,1-2.246-.232q-.4-.083-.787-.194a11.022,11.022,0,0,1-1.071-.367l-.024-.01q-.168-.068-.333-.141a.3.3,0,0,1,.241-.544,10.415,10.415,0,0,0,2.1.673q.38.079.762.13a10.244,10.244,0,0,0,4.321-.347l.032-.01h0A10.359,10.359,0,0,0,818.694,910l.007,0,.052-.032.07-.044.053-.034.105-.068a10.267,10.267,0,0,0,4.45-6.539,10.416,10.416,0,0,0,.22-2.125A10.335,10.335,0,0,0,803.2,899.07a10.321,10.321,0,0,0,.354,5.493.3.3,0,0,1-.562.2,10.931,10.931,0,1,1,21.258-3.609,11.029,11.029,0,0,1-.232,2.247,10.938,10.938,0,0,1-10.678,8.709Z" transform="translate(-793.846 -881.835)" fill="#bdd0fb"/>
        </g>
      </g>
      <path id="Path_4276" data-name="Path 4276" d="M1289.458,617.582l1.948-.663a8.966,8.966,0,0,0,2.523,1.44l.422,2.013a.169.169,0,0,0,.144.133l2.449.309a.169.169,0,0,0,.173-.093l.909-1.845a8.967,8.967,0,0,0,2.8-.768l1.723,1.126a.169.169,0,0,0,.2-.008l1.951-1.513a.169.169,0,0,0,.056-.188l-.663-1.948a8.962,8.962,0,0,0,1.44-2.523l2.013-.422a.169.169,0,0,0,.133-.144l.309-2.449a.169.169,0,0,0-.093-.173l-1.845-.909a8.962,8.962,0,0,0-.768-2.8l1.126-1.723a.169.169,0,0,0-.008-.2l-1.513-1.95a.169.169,0,0,0-.188-.056l-1.949.663a8.962,8.962,0,0,0-2.523-1.44l-.422-2.013a.169.169,0,0,0-.144-.133L1297.21,599a.169.169,0,0,0-.173.093l-.909,1.845a8.965,8.965,0,0,0-2.8.768l-1.723-1.126a.169.169,0,0,0-.2.008l-1.95,1.513a.169.169,0,0,0-.056.188l.663,1.948a8.962,8.962,0,0,0-1.44,2.523l-2.013.422a.169.169,0,0,0-.133.144l-.309,2.449a.169.169,0,0,0,.093.173l1.845.909a8.965,8.965,0,0,0,.768,2.8l-1.126,1.723a.169.169,0,0,0,.008.2l1.513,1.95A.169.169,0,0,0,1289.458,617.582Z" transform="translate(-1243.303 -596.485)" fill="#10b5df"/>
      <g id="Group_1457" data-name="Group 1457" transform="translate(51.284 10.931)">
        <path id="Path_4277" data-name="Path 4277" d="M1432.4,747.726a2.491,2.491,0,1,1,.3-.019h0A2.493,2.493,0,0,1,1432.4,747.726Zm.268-.314h0Zm-.262-4.07a1.921,1.921,0,0,0-.234.014,1.894,1.894,0,0,0,.46,3.761h0a1.895,1.895,0,0,0-.226-3.775Z" transform="translate(-1429.913 -742.746)" fill="#bdd0fb"/>
      </g>
      <g id="Group_1458" data-name="Group 1458" transform="translate(40.385 0)">
        <path id="Path_4278" data-name="Path 4278" d="M1262.9,874.326a.2.2,0,0,1-.176-.107c-.123-.239-.24-.484-.348-.727a.2.2,0,0,1,.363-.16c.1.236.217.473.337.7a.2.2,0,0,1-.176.289Z" transform="translate(-1261.275 -854.641)" fill="#10b5df"/>
        <path id="Path_4279" data-name="Path 4279" d="M1244.319,572.692a.2.2,0,0,1-.193-.154,13.624,13.624,0,0,1-.241-1.378q-.011-.087-.02-.174a.2.2,0,1,1,.395-.042c.006.056.012.111.019.167a13.358,13.358,0,0,0,.234,1.338.2.2,0,0,1-.149.238A.2.2,0,0,1,1244.319,572.692Zm-.293-4.043h-.016a.2.2,0,0,1-.182-.214,13.413,13.413,0,0,1,.219-1.558.2.2,0,0,1,.389.078,12.939,12.939,0,0,0-.212,1.512A.2.2,0,0,1,1244.026,568.649Zm.945-3.942a.2.2,0,0,1-.183-.274,13.5,13.5,0,0,1,.682-1.417.2.2,0,0,1,.347.193,13.167,13.167,0,0,0-.662,1.375A.2.2,0,0,1,1244.971,564.708Zm2.1-3.47a.2.2,0,0,1-.152-.326,13.583,13.583,0,0,1,1.077-1.145.2.2,0,1,1,.273.288,13.123,13.123,0,0,0-1.045,1.112A.2.2,0,0,1,1247.066,561.238Zm3.043-2.676a.2.2,0,0,1-.107-.366,13.417,13.417,0,0,1,1.374-.766.2.2,0,0,1,.172.357,13.035,13.035,0,0,0-1.332.743A.2.2,0,0,1,1250.109,558.562Zm3.711-1.626a.2.2,0,0,1-.051-.39,13.6,13.6,0,0,1,1.54-.312.2.2,0,1,1,.056.393,13.214,13.214,0,0,0-1.495.3A.2.2,0,0,1,1253.82,556.936Zm5.571-.266-.033,0a13.013,13.013,0,0,0-1.518-.161.2.2,0,0,1-.189-.207.193.193,0,0,1,.208-.189,13.42,13.42,0,0,1,1.564.166.2.2,0,0,1-.032.394Z" transform="translate(-1243.827 -556.11)" fill="#10b5df"/>
        <path id="Path_4280" data-name="Path 4280" d="M1548.767,570.712a.2.2,0,0,1-.08-.017c-.238-.105-.482-.2-.724-.295a.2.2,0,0,1,.139-.372c.249.093.5.2.745.3a.2.2,0,0,1-.081.38Z" transform="translate(-1530.028 -569.201)" fill="#10b5df"/>
      </g>
      <g id="Group_1459" data-name="Group 1459" transform="translate(47.674 8.169)">
        <path id="Path_4281" data-name="Path 4281" d="M1678.432,696.713a.2.2,0,0,1-.188-.134c-.084-.245-.177-.491-.276-.731a.2.2,0,0,1,.367-.151c.1.247.2.5.284.753a.2.2,0,0,1-.123.252A.2.2,0,0,1,1678.432,696.713Z" transform="translate(-1659.815 -695.574)" fill="#10b5df"/>
        <path id="Path_4282" data-name="Path 4282" d="M1425.159,764.8a.2.2,0,0,1-.017-.4q.218-.019.437-.046c.351-.043.7-.1,1.049-.171a.2.2,0,1,1,.079.389c-.355.073-.718.132-1.08.176q-.225.028-.45.047Zm-2.474-.011h-.02a13.393,13.393,0,0,1-1.528-.241.2.2,0,1,1,.084-.388,13.026,13.026,0,0,0,1.483.234.2.2,0,0,1-.019.4Zm6.348-.93a.2.2,0,0,1-.075-.382,12.982,12.982,0,0,0,1.353-.65.2.2,0,1,1,.192.347,13.327,13.327,0,0,1-1.394.67A.2.2,0,0,1,1429.033,763.857Zm3.416-2.057a.2.2,0,0,1-.127-.351,13.1,13.1,0,0,0,1.1-1.024.2.2,0,0,1,.287.274,13.579,13.579,0,0,1-1.13,1.055A.2.2,0,0,1,1432.449,761.8Zm2.648-2.98a.2.2,0,0,1-.166-.307,13.113,13.113,0,0,0,.744-1.3.2.2,0,0,1,.355.177,13.57,13.57,0,0,1-.767,1.343A.2.2,0,0,1,1435.1,758.82Zm1.645-3.632a.2.2,0,0,1-.054-.007.2.2,0,0,1-.137-.245,12.944,12.944,0,0,0,.321-1.467.2.2,0,1,1,.392.062,13.323,13.323,0,0,1-.331,1.512A.2.2,0,0,1,1436.742,755.188Zm.483-3.958a.2.2,0,0,1-.2-.192c-.012-.4-.043-.8-.091-1.2q-.018-.147-.039-.293a.2.2,0,1,1,.392-.057q.022.15.04.3c.05.411.082.828.094,1.239a.2.2,0,0,1-.192.2Z" transform="translate(-1417.894 -746.167)" fill="#10b5df"/>
        <path id="Path_4283" data-name="Path 4283" d="M1369.191,984.8a.2.2,0,0,1-.078-.016c-.244-.1-.49-.217-.731-.338a.2.2,0,1,1,.177-.355c.234.117.473.227.709.328a.2.2,0,0,1-.078.381Z" transform="translate(-1368.273 -967.175)" fill="#10b5df"/>
      </g>
      <path id="Path_4284" data-name="Path 4284" d="M1372.569,690.371a6.343,6.343,0,0,1-.8-.05h0a6.3,6.3,0,0,1-1.3-.305.3.3,0,1,1,.2-.561,5.7,5.7,0,0,0,1.173.276l.082.01a5.622,5.622,0,0,0,4.052-1.119l.044-.034a5.622,5.622,0,0,0,2.145-3.763,5.729,5.729,0,0,0,.046-.72,5.66,5.66,0,1,0-10.843,2.286.3.3,0,0,1-.545.24,6.255,6.255,0,1,1,11.983-2.527,6.388,6.388,0,0,1-.05.8,6.256,6.256,0,0,1-6.192,5.472Z" transform="translate(-1318.744 -670.73)" fill="#bdd0fb"/>
    </g>
    <g id="Group_1461" data-name="Group 1461" transform="translate(545.407 573.378)">
      <path id="Path_4285" data-name="Path 4285" d="M2164.561,2490.554h-1.789a.091.091,0,0,1-.091-.091v-7.684a6.2,6.2,0,0,1,5.452-6.155l3.95-.48a6.113,6.113,0,0,1,5.789,2.628,6.328,6.328,0,0,1,1.057,3.575v3.1a.091.091,0,0,1-.091.091h-1.79a.091.091,0,0,1-.091-.091V2482.3a4.286,4.286,0,0,0-.484-2.037,4.144,4.144,0,0,0-4.153-2.162l-3.95.48a4.229,4.229,0,0,0-3.719,4.2v7.684A.091.091,0,0,1,2164.561,2490.554Z" transform="translate(-2160.942 -2476.101)" fill="url(#linear-gradient-27)"/>
      <path id="Path_4286" data-name="Path 4286" d="M2134.142,2677.338l17.278-.957a1.224,1.224,0,0,1,1.292,1.222v13.688a1.224,1.224,0,0,1-1.224,1.225h-16.863a1.224,1.224,0,0,1-1.224-1.185l-.415-12.73A1.224,1.224,0,0,1,2134.142,2677.338Z" transform="translate(-2132.986 -2664.649)" fill="url(#linear-gradient-28)"/>
      <path id="Path_4287" data-name="Path 4287" d="M2258.006,2742.034l-1.046-3.006a1.007,1.007,0,0,1,.229-1.038,2.847,2.847,0,1,0-3.819.213,1.015,1.015,0,0,1,.33,1.121l-.943,2.71a1.015,1.015,0,0,0,.958,1.348h3.333A1.015,1.015,0,0,0,2258.006,2742.034Z" transform="translate(-2245.327 -2718.089)" fill="#91b3fa"/>
    </g>
    <g id="Group_1468" data-name="Group 1468" transform="translate(446.635 526.552)">
      <g id="Group_1462" data-name="Group 1462" transform="translate(13.886 43.194)">
        <path id="Path_4288" data-name="Path 4288" d="M739.991,3164.059a.562.562,0,0,0-.015-.146c-.73-2.893-4.352-4.7-4.352-4.7l-1.435.113a9.955,9.955,0,0,0-.587,4.811c0,.019.01.038.015.057A34.073,34.073,0,0,0,739.991,3164.059Z" transform="translate(-730.595 -3115.574)" fill="url(#linear-gradient-29)"/>
        <path id="Path_4289" data-name="Path 4289" d="M735.311,3242.015a.622.622,0,0,0,.455.46,19.685,19.685,0,0,0,5.485-.078.523.523,0,0,0,.433-.521A34.056,34.056,0,0,1,735.311,3242.015Z" transform="translate(-732.289 -3193.392)" fill="url(#linear-gradient-30)"/>
        <path id="Path_4290" data-name="Path 4290" d="M735.222,3124.64l.608,2.926a.478.478,0,0,0,.409.394,4.048,4.048,0,0,0,.942-.015.6.6,0,0,0,.476-.707l-.423-2.6Z" transform="translate(-732.205 -3083.022)" fill="url(#linear-gradient-31)"/>
        <path id="Path_4291" data-name="Path 4291" d="M904.778,3237.109a8.571,8.571,0,0,1-2.829-.4c0,.157,0,.318.005.484a.313.313,0,0,0,.3.318l8.7-.056a.4.4,0,0,0,.32-.579C910.135,3236.967,907.229,3237.178,904.778,3237.109Z" transform="translate(-889.167 -3188.524)" fill="url(#linear-gradient-32)"/>
        <path id="Path_4292" data-name="Path 4292" d="M911.282,3171.026a.405.405,0,0,0-.034-.065,11.09,11.09,0,0,0-6.595-4.14l-1.856-.059a8.9,8.9,0,0,0-.842,4.1,8.563,8.563,0,0,0,2.829.4C907.234,3171.331,910.141,3171.12,911.282,3171.026Z" transform="translate(-889.173 -3122.677)" fill="url(#linear-gradient-33)"/>
        <path id="Path_4293" data-name="Path 4293" d="M909.043,3110.568c.029.137.415,2.219.565,3.026a.4.4,0,0,0,.363.343,4.249,4.249,0,0,0,1.271-.1.549.549,0,0,0,.381-.576l-.208-3.293Z" transform="translate(-895.845 -3069.209)" fill="url(#linear-gradient-34)"/>
        <path id="Path_4294" data-name="Path 4294" d="M696.219,2415.609s1.843,18.94,3.685,39.814a.8.8,0,0,1-.657.808,9.673,9.673,0,0,1-2.075.24.769.769,0,0,1-.733-.642c-.628-3.68-5.106-23.433-6.281-27.78,0,0-1.35,18.466-.919,28.046a.454.454,0,0,1-.4.472,7.619,7.619,0,0,1-1.666,0,.608.608,0,0,1-.541-.516c-.447-3.115-3.02-21.655-2.911-35.011.006-.753.884-6.941.884-6.941Z" transform="translate(-683.718 -2414.094)" fill="url(#linear-gradient-35)"/>
      </g>
      <g id="Group_1464" data-name="Group 1464" transform="translate(23.286 7.735)">
        <g id="Group_1463" data-name="Group 1463" transform="translate(0 5.211)">
          <path id="Path_4295" data-name="Path 4295" d="M857.1,1951.082c-.366,2.6-.752,3.2-1.052,3.216-.955.049-.763-5.817-4.256-8.785-2.207-1.874-5.221-2.029-7.585-1.81l3.31,11.871c.482,1.182,2.582,5.964,7.335,7.415a5.434,5.434,0,0,0,3.747.16c2.644-1.136,3.884-5.793,2.7-11.625C860.741,1951.316,859.972,1951.1,857.1,1951.082Z" transform="translate(-844.203 -1940.934)" fill="url(#linear-gradient-36)"/>
          <path id="Path_4296" data-name="Path 4296" d="M1049.954,1897.668l.437,2.473a19.348,19.348,0,0,1,.4,7.674c.6.025,1.237.068,1.9.133.814.08,1.583.186,2.3.308a44.29,44.29,0,0,0-2.427-8.184C1051.335,1898.29,1051.188,1899.45,1049.954,1897.668Z" transform="translate(-1037.903 -1897.668)" fill="url(#linear-gradient-37)"/>
        </g>
        <path id="Path_4297" data-name="Path 4297" d="M1035.046,1808.694a1.631,1.631,0,0,0-1.29.579l-3.12,3.7s-.568-.116-.621-1.2a1.35,1.35,0,0,0-1.208-1.218s.167,1.517.484,3.761a4.758,4.758,0,0,0,1.557,2.788l1.8-.621a20.534,20.534,0,0,0,3.255-7.759Z" transform="translate(-1017.995 -1808.693)" fill="url(#linear-gradient-38)"/>
      </g>
      <path id="Path_4298" data-name="Path 4298" d="M633.292,1935.33c.208-.055,1.629-1.523,1.843-1.564,3.5-.667,12.245-3.022,18.1,1.295.015.125.024.224.03.307a3.253,3.253,0,0,1,.241.413,19.729,19.729,0,0,0,1.975,3.084,2.01,2.01,0,0,0-.407.577c-1.406,3.012-6.736,15.04-5.8,22.395a.7.7,0,0,1-.589.782c-2.069.286-8.23.984-11.414-.331a.487.487,0,0,1-.3-.459,54.057,54.057,0,0,0-2.39-15.6,8.668,8.668,0,0,1-.216-.875c-.029.059-.056.118-.084.177Z" transform="translate(-622.359 -1917.537)" fill="url(#linear-gradient-39)"/>
      <path id="Path_4299" data-name="Path 4299" d="M525.073,1942.329c-6.532.478-7.9,4.21-12.411,1.928l.8,6.99a12.134,12.134,0,0,0,7.385,3.579Z" transform="translate(-508.795 -1926.766)" fill="url(#linear-gradient-40)"/>
      <path id="Path_4300" data-name="Path 4300" d="M773,1834.4a17.133,17.133,0,0,0-1.727,6.619c.241.09,3.453,2.318,5.6.161a19.548,19.548,0,0,1-.267-5.995Z" transform="translate(-752.255 -1825.158)" fill="url(#linear-gradient-41)"/>
      <g id="Group_1465" data-name="Group 1465" transform="translate(19.054)">
        <path id="Path_4301" data-name="Path 4301" d="M815.647,1726.55c.062.1,1.667,7.67,1.667,7.67l-4.342.825-2.588-6.949S814.617,1724.883,815.647,1726.55Z" transform="translate(-808.132 -1723.175)" fill="url(#linear-gradient-42)"/>
        <path id="Path_4302" data-name="Path 4302" d="M775.849,1682.168a.637.637,0,0,0-.1.551l1.06,3.71a.617.617,0,0,0,.07.159c.171.274.786,1.1,1.616.422a5.6,5.6,0,0,1,1.954-1.231.634.634,0,0,1,.754.494,23.7,23.7,0,0,1,.477,3.465.632.632,0,0,1-.556.653,17.611,17.611,0,0,1-3.97.086.635.635,0,0,1-.514-.4c-.371-.962-1.424-3.655-1.838-4.369-.385-.664-1.406-.726-1.877-.718a.639.639,0,0,1-.473-.2,1.4,1.4,0,0,1,.043-2.192.635.635,0,0,0,.034-.885,1.4,1.4,0,0,1,0-2.064,1.98,1.98,0,0,1,2.343-.458.659.659,0,0,0,.768-.192.42.42,0,0,1,.383-.164.616.616,0,0,0,.669-.57,1.626,1.626,0,0,1,1.36-1.564c1.9-.467,2.958,1.409,2.991,2.762s-2.059,1.743-3.266,1.578C776.89,1680.921,776.17,1681.73,775.849,1682.168Z" transform="translate(-771.94 -1676.629)" fill="url(#linear-gradient-43)"/>
        <path id="Path_4303" data-name="Path 4303" d="M787.146,1813.911s-.4-2.4-1.369-2.571-1.961.567-1.074,1.938A1.6,1.6,0,0,0,787.146,1813.911Z" transform="translate(-783.631 -1803.426)" fill="url(#linear-gradient-44)"/>
      </g>
      <g id="Group_1467" data-name="Group 1467" transform="translate(0 1.86)">
        <path id="Path_4304" data-name="Path 4304" d="M738.189,1708.395a2.231,2.231,0,0,1,.553.052c.459.1,1.07.333.911.775-.239.663-1.48.044-2.141,1.112-.582.942-.106,1.965-.284,2.98a2.526,2.526,0,0,1-.845,1.515c-.2.129-1.755.376-1.84.1l-.433-1.405c-.389-1.264,1.107-3.37,1.879-4.222A3.007,3.007,0,0,1,738.189,1708.395Z" transform="translate(-717.213 -1708.393)" fill="url(#linear-gradient-45)"/>
        <g id="Group_1466" data-name="Group 1466" transform="translate(0 4.248)">
          <path id="Path_4305" data-name="Path 4305" d="M606.6,1781.75l-1.49,1.24a19.356,19.356,0,0,0-6.438,4.2,8.489,8.489,0,0,0-2.832-3.134,31.616,31.616,0,0,1,5.024-2.008C606.68,1779.708,606.6,1781.75,606.6,1781.75Z" transform="translate(-587.104 -1780.924)" fill="url(#linear-gradient-46)"/>
          <path id="Path_4306" data-name="Path 4306" d="M458.207,1837.492c-4.7,4.838-3.325,2.379-3.362,6.5a70.664,70.664,0,0,1-1.348,7.408c-14.367-6.207-2.377-14.678,1.878-17.044A8.49,8.49,0,0,1,458.207,1837.492Z" transform="translate(-446.635 -1831.229)" fill="url(#linear-gradient-47)"/>
        </g>
      </g>
    </g>
  </g>
</svg>
