<svg xmlns="http://www.w3.org/2000/svg" xmlns:xlink="http://www.w3.org/1999/xlink" width="163.436" height="164.471" viewBox="0 0 163.436 164.471">
  <defs>
    <linearGradient id="linear-gradient" x1="1.089" y1="1.009" x2="0.334" y2="0.364" gradientUnits="objectBoundingBox">
      <stop offset="0" stop-color="#dae3fe"/>
      <stop offset="1" stop-color="#e9effd"/>
    </linearGradient>
    <linearGradient id="linear-gradient-2" x1="0.397" y1="-0.354" x2="-0.376" y2="1.649" gradientUnits="objectBoundingBox">
      <stop offset="0" stop-color="#0f8faf"/>
      <stop offset="1" stop-color="#10b5df"/>
    </linearGradient>
    <linearGradient id="linear-gradient-3" x1="-0.898" y1="0.932" x2="-0.675" y2="-0.163" gradientUnits="objectBoundingBox">
      <stop offset="0" stop-color="#09005d"/>
      <stop offset="1" stop-color="#1a0f91"/>
    </linearGradient>
    <linearGradient id="linear-gradient-4" x1="-0.284" y1="-1.658" x2="-1.176" y2="3.408" xlink:href="#linear-gradient-3"/>
    <linearGradient id="linear-gradient-5" x1="1.547" y1="-0.453" x2="1.146" y2="-0.125" gradientUnits="objectBoundingBox">
      <stop offset="0" stop-color="#ff928e"/>
      <stop offset="1" stop-color="#fe7062"/>
    </linearGradient>
    <linearGradient id="linear-gradient-6" x1="5.381" y1="0.417" x2="6.04" y2="1.226" xlink:href="#linear-gradient-3"/>
    <linearGradient id="linear-gradient-7" x1="7.783" y1="0.26" x2="9.144" y2="1.995" xlink:href="#linear-gradient-3"/>
    <linearGradient id="linear-gradient-8" x1="1.61" y1="0.212" x2="1.158" y2="0.899" gradientUnits="objectBoundingBox">
      <stop offset="0" stop-color="#febbba"/>
      <stop offset="1" stop-color="#ff928e"/>
    </linearGradient>
    <linearGradient id="linear-gradient-9" x1="1.576" y1="-0.457" x2="0.358" y2="0.524" xlink:href="#linear-gradient-5"/>
    <linearGradient id="linear-gradient-10" x1="0.755" y1="0.791" x2="1.452" y2="-1.379" xlink:href="#linear-gradient-8"/>
    <linearGradient id="linear-gradient-11" x1="-2.192" y1="1.062" x2="-2.081" y2="0.1" xlink:href="#linear-gradient-8"/>
    <linearGradient id="linear-gradient-12" x1="-0.618" y1="0.82" x2="-0.929" y2="-0.114" xlink:href="#linear-gradient-8"/>
    <linearGradient id="linear-gradient-13" x1="-0.349" y1="-0.467" x2="-0.172" y2="0.954" xlink:href="#linear-gradient-3"/>
    <linearGradient id="linear-gradient-14" x1="-8.072" y1="2.058" x2="-9.545" y2="-0.895" xlink:href="#linear-gradient-8"/>
    <linearGradient id="linear-gradient-15" x1="3.36" y1="0.5" x2="4.36" y2="0.5" xlink:href="#linear-gradient-3"/>
    <linearGradient id="linear-gradient-16" x1="2.391" y1="-0.604" x2="1.651" y2="0.973" xlink:href="#linear-gradient-3"/>
    <linearGradient id="linear-gradient-17" x1="2.382" y1="-4.979" x2="-0.903" y2="4.529" gradientUnits="objectBoundingBox">
      <stop offset="0" stop-color="#e1473d"/>
      <stop offset="1" stop-color="#e9605a"/>
    </linearGradient>
    <linearGradient id="linear-gradient-18" x1="1.098" y1="-5.386" x2="0.088" y2="4.552" xlink:href="#linear-gradient-17"/>
    <linearGradient id="linear-gradient-19" x1="0.87" y1="-5.586" x2="0.313" y2="3.494" xlink:href="#linear-gradient-17"/>
  </defs>
  <g id="Group_1471" data-name="Group 1471" transform="translate(-463.815 -455)">
    <path id="Path_4174" data-name="Path 4174" d="M695.623,636.476c-15.173,36.248-55.589,56.554-90.638,51.077-5.7-.891-21.339-3.546-35.182-16.072-26.649-24.113-32.348-71.86-10.851-105.508,15.646-24.49,43.693-38.373,70.343-37.678,5.74.15,27.74,1.071,47.074,17.247a73.208,73.208,0,0,1,14.748,16.978C704.372,583.551,705.511,612.853,695.623,636.476Z" transform="translate(-77.164 -68.966)" fill="url(#linear-gradient)"/>
    <g id="Group_1415" data-name="Group 1415" transform="translate(463.815 501.413)">
      <path id="Path_4175" data-name="Path 4175" d="M464.715,1304.484A29.988,29.988,0,0,1,507.1,1284.2a3.481,3.481,0,0,0,4.916-2.325c5.315-21.123,24.02-36.728,46.282-36.728,26.4,0,47.8,21.941,47.8,49.006,0,.718-.014,1.7-.026,2.642.093,2.024.955,2.883,2.242,3.1a21.723,21.723,0,0,1-2.474,43.266H494.045C474.908,1343.163,459.924,1324.931,464.715,1304.484Z" transform="translate(-463.815 -1245.151)" fill="url(#linear-gradient-2)"/>
      <path id="Path_4176" data-name="Path 4176" d="M613.658,1476.884a26.776,26.776,0,0,1,37.845-18.107,3.107,3.107,0,0,0,4.39-2.076c4.746-18.86,21.447-32.793,41.323-32.793,23.569,0,42.675,19.59,42.675,43.756,0,.641-.013,1.518-.024,2.358.083,1.807.853,2.574,2,2.767a19.4,19.4,0,0,1-2.209,38.63H639.846C622.759,1511.42,609.381,1495.141,613.658,1476.884Z" transform="translate(-604.099 -1413.408)" fill="#91b3fa" opacity="0.21"/>
    </g>
    <g id="Group_1420" data-name="Group 1420" transform="translate(479.119 556.631)">
      <path id="Path_4177" data-name="Path 4177" d="M827.87,2241.225a1.653,1.653,0,0,0,1.649,1.647h89.167a1.653,1.653,0,0,0,1.649-1.647l.742-51.242a2.872,2.872,0,0,0-3.024-2.542l-87.143-2.255a4.156,4.156,0,0,0-4.264,4.25Z" transform="translate(-820.636 -2185.185)" fill="url(#linear-gradient-3)"/>
      <path id="Path_4178" data-name="Path 4178" d="M855.305,2270.955a1.565,1.565,0,0,0,1.56,1.56h85.477a1.565,1.565,0,0,0,1.56-1.56l.7-46.517a3.839,3.839,0,0,0-4.024-3.746l-83.519-2.241a2.92,2.92,0,0,0-3,2.989Z" transform="translate(-846.444 -2216.496)" fill="#10b5df"/>
      <g id="Group_1416" data-name="Group 1416" transform="translate(66.436 4.367)">
        <path id="Path_4179" data-name="Path 4179" d="M2364.133,2668.313h0a.229.229,0,0,1-.226-.232l.055-3.772a.228.228,0,0,1,.228-.225h0a.229.229,0,0,1,.227.232l-.055,3.772A.228.228,0,0,1,2364.133,2668.313Z" transform="translate(-2334.034 -2640.319)" fill="#fff"/>
        <path id="Path_4180" data-name="Path 4180" d="M1885.626,2278.277h0a.229.229,0,0,1-.225-.232l.212-14.449a2.713,2.713,0,0,0-.774-2.032,3.817,3.817,0,0,0-2.526-.862l-26.695-.716a.229.229,0,0,1-.222-.234.219.219,0,0,1,.235-.222l26.679.716a4.2,4.2,0,0,1,2.846.989,3.156,3.156,0,0,1,.915,2.365l-.212,14.453A.229.229,0,0,1,1885.626,2278.277Z" transform="translate(-1855.391 -2259.528)" fill="#fff"/>
      </g>
      <rect id="Rectangle_177" data-name="Rectangle 177" width="105.124" height="4.502" rx="2.251" transform="translate(105.124 61.941) rotate(180)" fill="url(#linear-gradient-4)"/>
      <path id="Path_4181" data-name="Path 4181" d="M943.971,2341.44H911.06a2.2,2.2,0,0,1-2.2-2.2v-42.958a2.2,2.2,0,0,1,2.281-2.2l32.911,1.259a2.2,2.2,0,0,1,2.113,2.2v41.7A2.2,2.2,0,0,1,943.971,2341.44Z" transform="translate(-898.026 -2287.69)" fill="#0f8faf"/>
      <g id="Group_1417" data-name="Group 1417" transform="translate(17.286 23.251)">
        <rect id="Rectangle_178" data-name="Rectangle 178" width="22.426" height="2.897" rx="1.449" fill="#fff" opacity="0.51"/>
        <rect id="Rectangle_179" data-name="Rectangle 179" width="22.426" height="2.897" rx="1.449" transform="translate(0.044 4.627)" fill="#fff" opacity="0.51"/>
        <rect id="Rectangle_180" data-name="Rectangle 180" width="22.426" height="2.897" rx="1.449" transform="translate(0.175 9.35)" fill="#fff" opacity="0.51"/>
        <rect id="Rectangle_181" data-name="Rectangle 181" width="22.426" height="2.897" rx="1.449" transform="translate(0.22 13.977)" fill="#fff" opacity="0.51"/>
      </g>
      <g id="Group_1419" data-name="Group 1419" transform="translate(55.279 7.867)">
        <rect id="Rectangle_182" data-name="Rectangle 182" width="32.242" height="2.897" rx="1.449" transform="translate(0 15.38)" fill="#fff" opacity="0.51"/>
        <rect id="Rectangle_183" data-name="Rectangle 183" width="32.242" height="2.897" rx="1.449" transform="translate(0.1 20.01)" fill="#fff" opacity="0.51"/>
        <rect id="Rectangle_184" data-name="Rectangle 184" width="19.105" height="2.897" rx="1.449" transform="translate(0.1 24.734)" fill="#fff" opacity="0.51"/>
        <g id="Group_1418" data-name="Group 1418" transform="translate(8.501)" opacity="0.51">
          <path id="Path_4182" data-name="Path 4182" d="M1836.234,2323.7h-.491a.441.441,0,0,1-.441-.442v-1.679a1.088,1.088,0,0,0-1.088-1.088h-3.043a1.088,1.088,0,0,0-1.088,1.088v1.679a.442.442,0,0,1-.442.442h-.491a.442.442,0,0,1-.442-.442v-1.679a2.462,2.462,0,0,1,2.462-2.462h3.043a2.462,2.462,0,0,1,2.462,2.462v1.679A.442.442,0,0,1,1836.234,2323.7Z" transform="translate(-1827.62 -2319.116)" fill="#fff"/>
          <path id="Path_4183" data-name="Path 4183" d="M1819.4,2403.874h-8.3a.921.921,0,0,0-.921.921v6.372a.921.921,0,0,0,.921.921h8.3a.921.921,0,0,0,.921-.921v-6.372A.921.921,0,0,0,1819.4,2403.874Zm-2.963,6.158a.341.341,0,0,1-.332.421H1814.4a.341.341,0,0,1-.332-.421l.4-1.663a1.539,1.539,0,1,1,1.577,0Z" transform="translate(-1810.18 -2398.895)" fill="#fff"/>
        </g>
      </g>
    </g>
    <g id="Group_1429" data-name="Group 1429" transform="translate(526.416 455)">
      <g id="Group_1424" data-name="Group 1424" transform="translate(0 0)">
        <g id="Group_1421" data-name="Group 1421" transform="translate(0 31.763)">
          <path id="Path_4184" data-name="Path 4184" d="M2365.083,1113.307a.2.2,0,0,1-.173-.294q.191-.344.37-.692a.2.2,0,0,1,.352.182q-.183.353-.376.7A.2.2,0,0,1,2365.083,1113.307Z" transform="translate(-2315.818 -1105.373)" fill="#91b3fa"/>
          <path id="Path_4185" data-name="Path 4185" d="M1569.562,1068.647l-.35,0a.2.2,0,0,1,0-.4h0c.512.007,1.028,0,1.539-.025a.2.2,0,0,1,.207.189.2.2,0,0,1-.189.207C1570.372,1068.638,1569.964,1068.647,1569.562,1068.647Zm-2.862-.154h-.022c-.516-.056-1.037-.128-1.547-.213a.2.2,0,0,1,.065-.39c.5.084,1.016.155,1.525.21a.2.2,0,0,1-.021.394Zm6.573-.106a.2.2,0,0,1-.028-.393c.506-.071,1.017-.159,1.517-.26a.2.2,0,1,1,.078.388c-.508.1-1.026.191-1.54.263Zm-10.571-.639a.2.2,0,0,1-.051-.007c-.5-.134-1-.284-1.5-.447a.2.2,0,0,1,.124-.375c.485.16.981.309,1.474.44a.2.2,0,0,1-.051.389Zm14.543-.236a.2.2,0,0,1-.057-.387c.49-.148.981-.313,1.459-.49a.2.2,0,1,1,.137.371c-.486.179-.984.346-1.481.5A.2.2,0,0,1,1577.245,1067.511Zm-18.38-1.112a.2.2,0,0,1-.079-.017c-.475-.209-.95-.436-1.41-.672a.2.2,0,0,1,.181-.352c.453.233.92.455,1.389.662a.2.2,0,0,1-.08.379Zm22.17-.365a.2.2,0,0,1-.086-.376c.46-.222.92-.46,1.367-.709a.2.2,0,1,1,.192.346c-.454.252-.921.495-1.388.72A.2.2,0,0,1,1581.035,1066.034Zm-25.752-1.558a.2.2,0,0,1-.107-.031c-.437-.28-.87-.577-1.289-.881a.2.2,0,0,1,.233-.32c.412.3.84.592,1.27.868a.2.2,0,0,1-.107.364Zm29.268-.486a.2.2,0,0,1-.113-.361c.421-.29.839-.6,1.242-.911a.2.2,0,0,1,.243.312c-.409.319-.833.63-1.26.925A.2.2,0,0,1,1584.552,1063.99Zm-32.51-1.966a.2.2,0,0,1-.131-.05c-.387-.343-.77-.7-1.139-1.069a.2.2,0,1,1,.279-.281c.363.361.741.716,1.122,1.053a.2.2,0,0,1-.131.346Zm35.674-.594a.2.2,0,0,1-.136-.342c.372-.351.739-.717,1.089-1.088a.2.2,0,1,1,.288.271c-.355.376-.727.748-1.1,1.1A.2.2,0,0,1,1587.715,1061.43Zm-38.506-2.326a.2.2,0,0,1-.152-.071c-.331-.4-.656-.811-.964-1.229a.2.2,0,1,1,.318-.235c.3.411.624.819.95,1.211a.2.2,0,0,1-.152.324Zm41.243-.681a.2.2,0,0,1-.156-.319c.315-.4.621-.822.91-1.242a.2.2,0,1,1,.326.224c-.293.426-.6.85-.923,1.26A.2.2,0,0,1,1590.452,1058.423Zm-43.6-2.634a.2.2,0,0,1-.17-.1c-.268-.446-.525-.9-.765-1.363a.2.2,0,1,1,.351-.183c.236.451.489.9.753,1.342a.2.2,0,0,1-.169.3Zm-1.818-3.638a.2.2,0,0,1-.183-.123c-.2-.482-.379-.974-.545-1.464a.2.2,0,1,1,.375-.127c.163.482.344.967.537,1.442a.2.2,0,0,1-.183.272Z" transform="translate(-1543.431 -1047.097)" fill="#91b3fa"/>
          <path id="Path_4186" data-name="Path 4186" d="M1529.926,996.912a.2.2,0,0,1-.192-.153q-.091-.388-.171-.778a.2.2,0,1,1,.387-.079q.078.384.168.767a.2.2,0,0,1-.147.238A.2.2,0,0,1,1529.926,996.912Z" transform="translate(-1529.559 -995.744)" fill="#91b3fa"/>
        </g>
        <g id="Group_1422" data-name="Group 1422" transform="translate(3.522)">
          <path id="Path_4187" data-name="Path 4187" d="M1589.72,655.349a.2.2,0,0,1-.167-.3q.212-.336.434-.667a.2.2,0,1,1,.328.221q-.219.326-.428.658A.2.2,0,0,1,1589.72,655.349Z" transform="translate(-1589.522 -642.585)" fill="#91b3fa"/>
          <path id="Path_4188" data-name="Path 4188" d="M1669.854,474.389a.2.2,0,0,1-.19-.142c-.151-.515-.32-1.033-.5-1.538a.2.2,0,0,1,.372-.134c.186.512.357,1.038.511,1.561a.2.2,0,0,1-.19.253Zm-1.532-3.992a.2.2,0,0,1-.178-.112c-.233-.485-.484-.968-.746-1.436a.2.2,0,1,1,.345-.193c.266.475.521.965.757,1.458a.2.2,0,0,1-.093.264A.2.2,0,0,1,1668.321,470.4Zm-2.16-3.69a.2.2,0,0,1-.162-.084c-.308-.439-.634-.876-.968-1.3a.2.2,0,0,1,.309-.246c.34.427.671.87.983,1.316a.2.2,0,0,1-.162.311Zm-42.084-1.726a.2.2,0,0,1-.152-.324c.347-.418.713-.832,1.087-1.231a.2.2,0,0,1,.289.271c-.369.393-.729.8-1.071,1.213A.2.2,0,0,1,1624.077,464.981Zm39.359-1.569a.2.2,0,0,1-.142-.06c-.373-.384-.763-.763-1.161-1.126a.2.2,0,1,1,.266-.292c.4.368.8.753,1.179,1.143a.2.2,0,0,1-.142.335Zm-36.373-1.491a.2.2,0,0,1-.13-.347c.411-.359.839-.71,1.27-1.043a.2.2,0,1,1,.242.313c-.425.328-.846.673-1.251,1.028A.2.2,0,0,1,1627.063,461.921Zm33.16-1.326a.2.2,0,0,1-.118-.039c-.431-.32-.878-.631-1.327-.924a.2.2,0,1,1,.216-.331c.456.3.91.613,1.347.938a.2.2,0,0,1-.118.356Zm-29.723-1.22a.2.2,0,0,1-.1-.366c.463-.288.941-.566,1.421-.825a.2.2,0,1,1,.188.348c-.473.256-.944.529-1.4.813A.2.2,0,0,1,1630.5,459.374Zm26.1-1.041a.194.194,0,0,1-.09-.022c-.477-.246-.968-.48-1.46-.7a.2.2,0,0,1,.159-.362c.5.219,1,.457,1.482.707a.2.2,0,0,1-.091.373Zm-22.295-.917a.2.2,0,0,1-.076-.38c.5-.209,1.019-.405,1.536-.583a.2.2,0,0,1,.129.374c-.509.176-1.018.369-1.513.575A.2.2,0,0,1,1634.3,457.416Zm18.349-.728a.2.2,0,0,1-.061-.01c-.51-.166-1.033-.317-1.553-.451a.2.2,0,0,1,.1-.383c.528.136,1.059.29,1.577.458a.2.2,0,0,1-.061.386Zm-14.281-.587a.2.2,0,0,1-.045-.39c.532-.125,1.074-.235,1.61-.327a.2.2,0,0,1,.067.39c-.528.09-1.062.2-1.586.322A.2.2,0,0,1,1638.37,456.1Zm10.122-.4-.03,0c-.531-.081-1.071-.147-1.606-.2a.2.2,0,1,1,.036-.394c.543.049,1.091.117,1.63.2a.2.2,0,0,1-.03.393Zm-5.894-.243a.2.2,0,0,1-.014-.395c.543-.038,1.1-.06,1.641-.064h0a.2.2,0,0,1,0,.4c-.538,0-1.082.026-1.617.063Z" transform="translate(-1621.861 -455)" fill="#91b3fa"/>
          <path id="Path_4189" data-name="Path 4189" d="M2414.045,823.586a.2.2,0,0,1-.2-.167q-.06-.387-.132-.773a.2.2,0,1,1,.389-.073q.073.392.135.785a.2.2,0,0,1-.165.226Z" transform="translate(-2365.301 -800.83)" fill="#91b3fa"/>
        </g>
        <g id="Group_1423" data-name="Group 1423" transform="translate(5.491 6.319)">
          <path id="Path_4190" data-name="Path 4190" d="M1663.993,582.325a.318.318,0,0,0-.19-.316l-3.545-1.54a16.843,16.843,0,0,0-1.688-5.187l1.956-3.331a.317.317,0,0,0-.032-.367l-3.013-3.523a.318.318,0,0,0-.358-.089l-3.593,1.417a16.839,16.839,0,0,0-4.863-2.471l-.972-3.741a.317.317,0,0,0-.283-.237l-4.622-.36a.317.317,0,0,0-.316.19l-1.54,3.545a16.838,16.838,0,0,0-5.187,1.688l-3.331-1.956a.318.318,0,0,0-.367.032l-3.523,3.014a.318.318,0,0,0-.089.358l1.417,3.593a16.832,16.832,0,0,0-2.471,4.863l-3.741.972a.318.318,0,0,0-.237.283l-.36,4.622a.317.317,0,0,0,.19.316l3.545,1.54a16.837,16.837,0,0,0,1.688,5.187l-1.956,3.331a.318.318,0,0,0,.033.367l3.014,3.523a.318.318,0,0,0,.358.089l3.593-1.417a16.834,16.834,0,0,0,4.863,2.471l.972,3.741a.318.318,0,0,0,.283.237l4.622.36a.317.317,0,0,0,.316-.19l1.54-3.545a16.839,16.839,0,0,0,5.187-1.688l3.331,1.956a.317.317,0,0,0,.367-.033l3.523-3.014a.317.317,0,0,0,.089-.358l-1.417-3.593a16.839,16.839,0,0,0,2.471-4.863l3.741-.972a.317.317,0,0,0,.237-.283Z" transform="translate(-1623.043 -562.58)" fill="#91b3fa"/>
          <path id="Path_4191" data-name="Path 4191" d="M1900.918,844.842a4.426,4.426,0,1,1,.754-.064A4.467,4.467,0,0,1,1900.918,844.842Zm.017-8.235a3.866,3.866,0,0,0-.652.056,3.82,3.82,0,1,0,2.851.647h0A3.793,3.793,0,0,0,1900.935,836.607Z" transform="translate(-1880.452 -819.952)" fill="#fff" opacity="0.7"/>
          <path id="Path_4192" data-name="Path 4192" d="M1785.936,738.627q-.453,0-.91-.036a11.485,11.485,0,0,1-10.592-11.43q0-.454.036-.911a11.483,11.483,0,0,1,20.175-6.573,11.546,11.546,0,0,1,1.384,2.015l-.522.282a10.944,10.944,0,0,0-1.313-1.911,10.89,10.89,0,0,0-19.133,6.233q-.034.434-.034.864a10.892,10.892,0,0,0,21.216,3.45l.563.188a11.491,11.491,0,0,1-10.87,7.828Z" transform="translate(-1765.54 -706.667)" fill="#fff" opacity="0.7"/>
        </g>
      </g>
      <g id="Group_1428" data-name="Group 1428" transform="translate(46.359 25.283)">
        <g id="Group_1425" data-name="Group 1425" transform="translate(0 16.304)">
          <path id="Path_4193" data-name="Path 4193" d="M2744.818,1223.906a.2.2,0,0,1-.17-.3c.133-.224.26-.454.378-.682a.2.2,0,1,1,.351.182c-.121.235-.252.471-.388.7A.2.2,0,0,1,2744.818,1223.906Z" transform="translate(-2719.607 -1219.305)" fill="#91b3fa"/>
          <path id="Path_4194" data-name="Path 4194" d="M2348.584,1225.537h-.016a13.965,13.965,0,0,1-1.6-.22.2.2,0,0,1,.076-.388,13.551,13.551,0,0,0,1.556.214.2.2,0,0,1-.015.395Zm2.586-.042a.2.2,0,0,1-.022-.394,13.514,13.514,0,0,0,1.548-.265.2.2,0,0,1,.089.385,13.862,13.862,0,0,1-1.594.273Zm-6.645-.916a.2.2,0,0,1-.074-.014,13.831,13.831,0,0,1-1.459-.7.2.2,0,0,1,.191-.346,13.47,13.47,0,0,0,1.417.676.2.2,0,0,1-.075.381Zm10.668-.177a.2.2,0,0,1-.081-.378,13.367,13.367,0,0,0,1.394-.724.2.2,0,0,1,.2.34,13.756,13.756,0,0,1-1.435.746A.194.194,0,0,1,2355.195,1224.4Zm-14.241-1.969a.2.2,0,0,1-.126-.046,13.935,13.935,0,0,1-1.178-1.106.2.2,0,0,1,.287-.272,13.527,13.527,0,0,0,1.145,1.075.2.2,0,0,1-.127.35Zm17.74-.3a.2.2,0,0,1-.132-.345l.116-.1a13.662,13.662,0,0,0,.994-1.006.2.2,0,1,1,.3.263,13.955,13.955,0,0,1-1.023,1.036l-.119.108A.2.2,0,0,1,2358.694,1222.135Zm-20.5-2.829a.2.2,0,0,1-.167-.091,13.769,13.769,0,0,1-.791-1.411.2.2,0,0,1,.356-.173,13.415,13.415,0,0,0,.768,1.37.2.2,0,0,1-.166.3Z" transform="translate(-2336.137 -1214.317)" fill="#91b3fa"/>
          <path id="Path_4195" data-name="Path 4195" d="M2319.167,1164.157a.2.2,0,0,1-.191-.147c-.068-.257-.13-.52-.183-.781a.2.2,0,1,1,.387-.079c.052.253.111.508.177.758a.2.2,0,0,1-.14.242A.209.209,0,0,1,2319.167,1164.157Z" transform="translate(-2318.79 -1162.992)" fill="#91b3fa"/>
        </g>
        <g id="Group_1426" data-name="Group 1426" transform="translate(1.809)">
          <path id="Path_4196" data-name="Path 4196" d="M2349.786,983.266a.2.2,0,0,1-.167-.3c.142-.226.292-.45.447-.666a.2.2,0,0,1,.322.23c-.15.21-.3.428-.435.647A.2.2,0,0,1,2349.786,983.266Z" transform="translate(-2349.588 -976.528)" fill="#91b3fa"/>
          <path id="Path_4197" data-name="Path 4197" d="M2407.6,894.082a.2.2,0,0,1-.182-.12,13.187,13.187,0,0,0-.686-1.384.2.2,0,0,1,.344-.2,13.805,13.805,0,0,1,.706,1.426.2.2,0,0,1-.182.275Zm-2.157-3.489a.2.2,0,0,1-.151-.07q-.151-.178-.31-.352c-.241-.264-.5-.522-.757-.766a.2.2,0,1,1,.27-.289c.269.251.531.517.779.789q.163.179.319.362a.2.2,0,0,1-.15.326Zm-19.756-1.014a.2.2,0,0,1-.136-.341q.12-.114.243-.227c.309-.282.634-.553.967-.805a.2.2,0,1,1,.239.315c-.323.245-.639.509-.939.782q-.12.11-.237.221A.2.2,0,0,1,2385.685,889.579Zm16.659-1.677a.2.2,0,0,1-.105-.031,13.4,13.4,0,0,0-1.351-.748.2.2,0,0,1,.171-.357,13.818,13.818,0,0,1,1.391.77.2.2,0,0,1-.106.365Zm-13.3-.683a.2.2,0,0,1-.088-.375,13.839,13.839,0,0,1,1.463-.624.2.2,0,0,1,.134.372,13.377,13.377,0,0,0-1.421.607A.2.2,0,0,1,2389.04,887.219Zm9.546-.957a.2.2,0,0,1-.051-.007,13.484,13.484,0,0,0-1.514-.31.2.2,0,0,1-.167-.224.2.2,0,0,1,.224-.167,13.872,13.872,0,0,1,1.558.319.2.2,0,0,1-.051.389Zm-5.639-.289a.2.2,0,0,1-.031-.393,13.913,13.913,0,0,1,1.583-.158.2.2,0,1,1,.017.4,13.536,13.536,0,0,0-1.538.153Z" transform="translate(-2383.378 -885.421)" fill="#91b3fa"/>
          <path id="Path_4198" data-name="Path 4198" d="M2772.014,1068.706a.2.2,0,0,1-.2-.167c-.04-.255-.088-.513-.142-.766a.2.2,0,0,1,.387-.083c.056.26.1.526.146.788a.2.2,0,0,1-.165.226Z" transform="translate(-2746.879 -1056.836)" fill="#91b3fa"/>
        </g>
        <g id="Group_1427" data-name="Group 1427" transform="translate(2.917 3.33)">
          <path id="Path_4199" data-name="Path 4199" d="M2389.481,952.263a.163.163,0,0,0-.1-.162l-1.821-.791a8.656,8.656,0,0,0-.867-2.665l1-1.711a.163.163,0,0,0-.017-.189l-1.548-1.81a.163.163,0,0,0-.184-.046l-1.846.728a8.651,8.651,0,0,0-2.5-1.269l-.5-1.922a.163.163,0,0,0-.145-.122l-2.374-.185a.163.163,0,0,0-.162.1l-.791,1.821a8.649,8.649,0,0,0-2.665.867l-1.711-1.005a.163.163,0,0,0-.189.017l-1.81,1.548a.163.163,0,0,0-.046.184l.728,1.846a8.651,8.651,0,0,0-1.269,2.5l-1.922.5a.163.163,0,0,0-.122.145l-.185,2.374a.163.163,0,0,0,.1.162l1.821.791a8.65,8.65,0,0,0,.867,2.665l-1.005,1.711a.163.163,0,0,0,.017.189l1.548,1.81a.164.164,0,0,0,.184.046l1.846-.728a8.648,8.648,0,0,0,2.5,1.269l.5,1.922a.163.163,0,0,0,.145.122l2.375.185a.163.163,0,0,0,.162-.1l.791-1.821a8.651,8.651,0,0,0,2.665-.867l1.711,1.005a.163.163,0,0,0,.189-.017l1.81-1.548a.164.164,0,0,0,.046-.184l-.728-1.846a8.653,8.653,0,0,0,1.269-2.5l1.922-.5a.163.163,0,0,0,.122-.145Z" transform="translate(-2368.446 -942.12)" fill="#91b3fa"/>
          <path id="Path_4200" data-name="Path 4200" d="M2508.875,1084.942a2.419,2.419,0,1,1,.412-.035A2.442,2.442,0,0,1,2508.875,1084.942Zm.008-4.229a1.816,1.816,0,1,0,1.048.333h0A1.807,1.807,0,0,0,2508.883,1080.712Z" transform="translate(-2498.363 -1072.012)" fill="#fff" opacity="0.7"/>
          <path id="Path_4201" data-name="Path 4201" d="M2449.86,1030.429q-.238,0-.479-.019a6.043,6.043,0,1,1,5.062-9.953l.051.06a6.083,6.083,0,0,1,.623.9l0,0,.008.014.014.025.008.014.023.043-.522.282a5.49,5.49,0,0,0-.657-.957h0a5.449,5.449,0,1,0,1.025,5.278l.563.188a6.048,6.048,0,0,1-5.72,4.12Z" transform="translate(-2439.383 -1013.867)" fill="#fff" opacity="0.7"/>
        </g>
      </g>
    </g>
    <g id="Group_1432" data-name="Group 1432" transform="translate(546.919 508.77)">
      <g id="Group_1430" data-name="Group 1430" transform="translate(0 0)">
        <path id="Path_4202" data-name="Path 4202" d="M1879.35,1383.017a2.343,2.343,0,0,1,1.812-.624c7.118.64,20.4-2.789,29.077-11.669.6-.617,1.7-.268,2.392.248,9.652,7.214,25.653,8.708,31.207,9.014a2.344,2.344,0,0,1,2.2,2.1c5.051,48.786-26.713,66.464-33.3,69.585a2.349,2.349,0,0,1-2.244-.13c-32.834-20.452-31.429-47.049-31.884-66.756A2.346,2.346,0,0,1,1879.35,1383.017Z" transform="translate(-1878.609 -1370.396)" fill="url(#linear-gradient-5)"/>
        <path id="Path_4203" data-name="Path 4203" d="M1968.43,1515.938a.784.784,0,0,1-.421-.123c-12.588-8.047-20.792-17.667-25.082-29.41-3.831-10.488-4.018-21.167-4.184-30.59l-.022-1.256a.768.768,0,0,1,.221-.557.777.777,0,0,1,.559-.234h0c7.8,0,19.5-3.442,28.078-11.132a.778.778,0,0,1,.949-.069c9.429,6.257,22.88,8.079,30.058,8.608a.775.775,0,0,1,.717.708c1.669,19.036-2.291,35.132-11.768,47.843a56.488,56.488,0,0,1-18.752,16.125h0A.777.777,0,0,1,1968.43,1515.938Zm.208-.37.073.142-.073-.142a56.145,56.145,0,0,0,18.642-16.032c9.429-12.646,13.367-28.669,11.706-47.624a.456.456,0,0,0-.422-.417c-7.21-.531-20.722-2.363-30.212-8.66a.458.458,0,0,0-.559.041c-8.645,7.746-20.435,11.213-28.285,11.213h0a.464.464,0,0,0-.337.138.451.451,0,0,0-.13.327l.023,1.256c.165,9.4.352,20.048,4.165,30.486,4.265,11.674,12.427,21.242,24.953,29.25A.461.461,0,0,0,1968.638,1515.569Z" transform="translate(-1935.19 -1438.208)" fill="#fff" opacity="0.61"/>
      </g>
      <g id="Group_1431" data-name="Group 1431" transform="translate(18.674 17.183)">
        <path id="Path_4204" data-name="Path 4204" d="M2275.286,1676.783H2273.8a1.335,1.335,0,0,1-1.335-1.335v-5.075a3.289,3.289,0,0,0-3.289-3.289h-9.2a3.289,3.289,0,0,0-3.29,3.289v5.075a1.335,1.335,0,0,1-1.335,1.335h-1.485a1.335,1.335,0,0,1-1.335-1.335v-5.075a7.444,7.444,0,0,1,7.444-7.444h9.2a7.444,7.444,0,0,1,7.444,7.444v5.075A1.335,1.335,0,0,1,2275.286,1676.783Z" transform="translate(-2249.243 -1662.929)" fill="#fff" opacity="0.61"/>
        <path id="Path_4205" data-name="Path 4205" d="M2224.4,1919.172h-25.1a2.784,2.784,0,0,0-2.785,2.785v19.262A2.785,2.785,0,0,0,2199.3,1944h25.1a2.785,2.785,0,0,0,2.785-2.785v-19.262A2.784,2.784,0,0,0,2224.4,1919.172Zm-8.958,18.617a1.032,1.032,0,0,1-1,1.273h-5.176a1.032,1.032,0,0,1-1-1.273l1.208-5.027a4.652,4.652,0,1,1,4.767,0Z" transform="translate(-2196.519 -1904.12)" fill="#fff" opacity="0.61"/>
      </g>
    </g>
    <g id="Group_1434" data-name="Group 1434" transform="translate(464.551 490.268)">
      <path id="Path_4206" data-name="Path 4206" d="M676.844,1811.972s2.033.108,2.282,4.29a24.155,24.155,0,0,1-11.081,5.231c-.478.075.668-3.263.841-3.715C669.706,1815.626,672.288,1814.24,676.844,1811.972Z" transform="translate(-656.676 -1767.531)" fill="url(#linear-gradient-6)"/>
      <path id="Path_4207" data-name="Path 4207" d="M750.017,1471.74h-4.29s-13.166-14.541-21.8-16.008c0,0-6.011,7.673.32,22.01a2.093,2.093,0,0,0,3,.987,1.716,1.716,0,0,0,.685-.816l-.509-12.241s11.231,9.823,13.183,11.718S752.476,1478.13,750.017,1471.74Z" transform="translate(-706.956 -1432.217)" fill="#7d97f4"/>
      <path id="Path_4208" data-name="Path 4208" d="M502.589,2186.313a16.127,16.127,0,0,1,8.8-3.85l1.4.855a15.232,15.232,0,0,1-2.521,2.7,17.6,17.6,0,0,1-5.726,2.3C502.675,2188.573,502.4,2187.448,502.589,2186.313Z" transform="translate(-501 -2116.26)" fill="url(#linear-gradient-7)"/>
      <path id="Path_4209" data-name="Path 4209" d="M654.984,1876.28c1.107.358,1.594,1.927,4.4.89a24.874,24.874,0,0,0,5.78-3.045c.023.2.043.414.056.639,0,0-4.97,4.727-11.338,5.733a.634.634,0,0,1-.685-.854A15.989,15.989,0,0,1,654.984,1876.28Z" transform="translate(-642.774 -1826.033)" fill="#91b3fa"/>
      <path id="Path_4210" data-name="Path 4210" d="M476.586,2244.7a14.859,14.859,0,0,1,1.354-1.345c-.189,1.135.085,2.261,1.949,2.013a17.6,17.6,0,0,0,5.726-2.3,12.378,12.378,0,0,1-8.335,3.2A.945.945,0,0,1,476.586,2244.7Z" transform="translate(-476.351 -2173.305)" fill="#91b3fa"/>
      <path id="Path_4211" data-name="Path 4211" d="M667.35,1781.1l-20.089.217s-11.472,9.491-13.553,23.964c0,0-.345,1.064,1.728,1.246a39.821,39.821,0,0,0,11.458-12.539c5.545-9.82,16.531-5.4,16.531-5.4,5.278,1.165,9.479.731,12.553-4Z" transform="translate(-624.445 -1738.469)" fill="#7d97f4"/>
      <path id="Path_4212" data-name="Path 4212" d="M919.6,1505.6s-2.163,10.838-12.759,15.125l-3.769-.444-.889,1.418,8.841.282a24.182,24.182,0,0,0,11.561-11.15C922.72,1510.567,924.925,1506.014,919.6,1505.6Z" transform="translate(-877.172 -1479.16)" fill="url(#linear-gradient-8)"/>
      <path id="Path_4213" data-name="Path 4213" d="M1173.6,1354.968a57.888,57.888,0,0,0,2.988-13.18,28.4,28.4,0,0,0-2.924-2.213.813.813,0,0,1-.318-1.054,62.586,62.586,0,0,1,6.2-8.531c2.036-.508,10.384-4.478,16.264,3.565,2.524,3.452-.5,14.077-11.949,25.081C1180.18,1359.235,1176.735,1358.174,1173.6,1354.968Z" transform="translate(-1132.329 -1312.518)" fill="url(#linear-gradient-9)"/>
      <path id="Path_4214" data-name="Path 4214" d="M963.966,1578.635s-6.832,8.09-15.568,9.273c0,0-2.257-2.058-3.936-1.323s-3.98,3.978-3.98,3.978H951.7s10.605-.374,15.9-6.8C967.176,1581.507,965.9,1580.163,963.966,1578.635Z" transform="translate(-913.218 -1547.901)" fill="url(#linear-gradient-10)"/>
      <path id="Path_4215" data-name="Path 4215" d="M1331.6,1256.236l1.495,4.986a.548.548,0,0,1-.213.61,5.57,5.57,0,0,1-5.182.521.813.813,0,0,1-.523-.7l-.354-4.344Z" transform="translate(-1276.867 -1244.439)" fill="url(#linear-gradient-11)"/>
      <g id="Group_1433" data-name="Group 1433" transform="translate(42.715)">
        <path id="Path_4216" data-name="Path 4216" d="M1259.117,1132.882s.735,5.169,2.72,6.758,5.854.393,7.16-3.5l-2.6-6.662Z" transform="translate(-1255.853 -1125.123)" fill="url(#linear-gradient-12)"/>
        <path id="Path_4217" data-name="Path 4217" d="M1214.383,1064.067a.256.256,0,0,1-.333-.205,6.685,6.685,0,0,0-.613-2.065s.189-.678-1.714.346-4.762,2.529-6.445,1.633c-1.641-.874-3.3-5.271,1.034-4.456a.256.256,0,0,0,.3-.268,2.638,2.638,0,0,1,1.7-2.918,2.419,2.419,0,0,1,2.793.641.254.254,0,0,0,.4-.007,2.951,2.951,0,0,1,3.64-1.1c1.554.685,1.8,1.642,1.77,2.239a.255.255,0,0,0,.363.243,1.535,1.535,0,0,1,1.975.586c1.014,1.27-.435,2.372-.87,2.661a.256.256,0,0,0-.116.211c0,.661-.107,3.542-1.551,5.168a.258.258,0,0,1-.429-.074l-1.112-2.65a.257.257,0,0,0-.316-.145Z" transform="translate(-1203.548 -1055.404)" fill="url(#linear-gradient-13)"/>
        <path id="Path_4218" data-name="Path 4218" d="M1387.6,1179.222s.679-2.766,1.71-1.868-.269,2.875-1.45,3.251Z" transform="translate(-1376.793 -1170.022)" fill="url(#linear-gradient-14)"/>
      </g>
      <path id="Path_4219" data-name="Path 4219" d="M719.439,1496.215l-5.036-16.795a1.717,1.717,0,0,0-1.528-1.22l-6.8-.465a.964.964,0,0,0-.976,1.281l5.63,16.039a1.412,1.412,0,0,0,1.19.937l6.7.744Z" transform="translate(-691.612 -1452.926)" fill="url(#linear-gradient-15)"/>
      <path id="Path_4220" data-name="Path 4220" d="M787.844,1574.4c.376.759,1.025,1.2,1.45.993s.465-1,.089-1.755-1.025-1.2-1.45-.993S787.468,1573.643,787.844,1574.4Z" transform="translate(-769.304 -1542.215)" fill="#91b3fa"/>
      <path id="Path_4221" data-name="Path 4221" d="M925.84,1769.187h.033l14.267-.721a.639.639,0,1,0-.065-1.277l-14.267.721a.639.639,0,0,0,.032,1.278Z" transform="translate(-898.836 -1725.377)" fill="url(#linear-gradient-16)"/>
      <path id="Path_4222" data-name="Path 4222" d="M1228.244,1439.9a.1.1,0,0,1-.1-.1,30.506,30.506,0,0,1,1.161-7.037.1.1,0,1,1,.19.055,30.293,30.293,0,0,0-1.153,6.981.1.1,0,0,1-.1.1Z" transform="translate(-1183.985 -1410.528)" fill="url(#linear-gradient-17)"/>
      <path id="Path_4223" data-name="Path 4223" d="M1338.7,1469.842a.1.1,0,0,1-.078-.16,35.87,35.87,0,0,0,4.193-6.671.1.1,0,0,1,.184.073,36.07,36.07,0,0,1-4.222,6.721A.1.1,0,0,1,1338.7,1469.842Z" transform="translate(-1287.956 -1439.009)" fill="url(#linear-gradient-18)"/>
      <path id="Path_4224" data-name="Path 4224" d="M1405.792,1562.6l-.564-.8a.1.1,0,0,1,.161-.114l.472.667c4.4-1.929,7.124-7.193,7.151-7.246a.1.1,0,0,1,.176.09c-.028.054-2.813,5.439-7.323,7.37Z" transform="translate(-1350.648 -1525.704)" fill="url(#linear-gradient-19)"/>
    </g>
  </g>
</svg>
