<svg xmlns="http://www.w3.org/2000/svg" xmlns:xlink="http://www.w3.org/1999/xlink" width="203.461" height="128.127" viewBox="0 0 203.461 128.127">
  <defs>
    <linearGradient id="linear-gradient" y1="0.5" x2="1" y2="0.5" gradientUnits="objectBoundingBox">
      <stop offset="0" stop-color="#dae3fe"/>
      <stop offset="1" stop-color="#e9effd"/>
    </linearGradient>
    <linearGradient id="linear-gradient-6" x1="0.563" y1="0.236" x2="0.125" y2="1.943" gradientUnits="objectBoundingBox">
      <stop offset="0" stop-color="#fe7062"/>
      <stop offset="1" stop-color="#ff928e"/>
    </linearGradient>
    <linearGradient id="linear-gradient-7" x1="0.593" y1="-2.498" x2="0.551" y2="-1.147" gradientUnits="objectBoundingBox">
      <stop offset="0" stop-color="#ff928e"/>
      <stop offset="1" stop-color="#feb3b1"/>
    </linearGradient>
    <linearGradient id="linear-gradient-8" x1="0.63" y1="-22.884" x2="0.582" y2="-14.138" xlink:href="#linear-gradient-7"/>
    <linearGradient id="linear-gradient-9" x1="0.67" y1="-10.035" x2="0.609" y2="-6.306" xlink:href="#linear-gradient-7"/>
    <linearGradient id="linear-gradient-10" x1="0.655" y1="-2.692" x2="0.585" y2="-1.217" xlink:href="#linear-gradient-7"/>
    <linearGradient id="linear-gradient-11" x1="0.722" y1="-2.267" x2="0.622" y2="-0.939" xlink:href="#linear-gradient-7"/>
    <linearGradient id="linear-gradient-12" x1="0.621" y1="-1.92" x2="0.575" y2="-0.943" xlink:href="#linear-gradient-7"/>
    <linearGradient id="linear-gradient-13" x1="0.697" y1="-4.943" x2="0.619" y2="-2.851" xlink:href="#linear-gradient-7"/>
    <linearGradient id="linear-gradient-14" x1="0.929" y1="-9.59" x2="0.708" y2="-4.38" xlink:href="#linear-gradient-7"/>
    <linearGradient id="linear-gradient-15" x1="0.876" y1="-8.36" x2="0.656" y2="-3.15" xlink:href="#linear-gradient-7"/>
    <linearGradient id="linear-gradient-16" x1="1.078" y1="-13.123" x2="0.858" y2="-7.912" xlink:href="#linear-gradient-7"/>
    <linearGradient id="linear-gradient-17" x1="0.913" y1="-9.218" x2="0.692" y2="-4.008" xlink:href="#linear-gradient-7"/>
    <linearGradient id="linear-gradient-18" x1="0.99" y1="-11.05" x2="0.77" y2="-5.84" xlink:href="#linear-gradient-7"/>
    <linearGradient id="linear-gradient-19" x1="1.103" y1="-13.713" x2="0.883" y2="-8.503" xlink:href="#linear-gradient-7"/>
    <linearGradient id="linear-gradient-20" x1="1.127" y1="-14.276" x2="0.906" y2="-9.066" xlink:href="#linear-gradient-7"/>
    <linearGradient id="linear-gradient-21" x1="1.145" y1="-14.718" x2="0.925" y2="-9.508" xlink:href="#linear-gradient-7"/>
    <linearGradient id="linear-gradient-22" x1="0.908" y1="-9.116" x2="0.688" y2="-3.905" xlink:href="#linear-gradient-7"/>
    <linearGradient id="linear-gradient-23" x1="1.011" y1="-11.551" x2="0.791" y2="-6.341" xlink:href="#linear-gradient-7"/>
    <linearGradient id="linear-gradient-24" x1="0.393" y1="0.97" x2="-0.421" y2="3.48" xlink:href="#linear-gradient-6"/>
    <linearGradient id="linear-gradient-25" x1="0.592" y1="0.222" x2="-0.078" y2="2.47" xlink:href="#linear-gradient-6"/>
    <linearGradient id="linear-gradient-26" x1="0.245" y1="0.907" x2="1.349" y2="-0.548" gradientUnits="objectBoundingBox">
      <stop offset="0" stop-color="#e1473d"/>
      <stop offset="1" stop-color="#e9605a"/>
    </linearGradient>
    <linearGradient id="linear-gradient-27" x1="171.559" y1="78.572" x2="173.439" y2="71.697" gradientUnits="objectBoundingBox">
      <stop offset="0" stop-color="#09005d"/>
      <stop offset="1" stop-color="#1a0f91"/>
    </linearGradient>
    <linearGradient id="linear-gradient-28" x1="198.075" y1="-12.943" x2="194.376" y2="11.132" gradientUnits="objectBoundingBox">
      <stop offset="0" stop-color="#53d8ff"/>
      <stop offset="1" stop-color="#3840f7"/>
    </linearGradient>
    <linearGradient id="linear-gradient-29" x1="1.897" y1="-1.465" x2="1.036" y2="-0.268" xlink:href="#linear-gradient-7"/>
    <linearGradient id="linear-gradient-30" x1="510.77" y1="-0.843" x2="510.264" y2="2.39" xlink:href="#linear-gradient-7"/>
    <linearGradient id="linear-gradient-31" x1="134.176" y1="-5.387" x2="131.66" y2="17.678" xlink:href="#linear-gradient-28"/>
    <linearGradient id="linear-gradient-32" x1="119.21" y1="88.911" x2="120.516" y2="81.191" xlink:href="#linear-gradient-27"/>
    <linearGradient id="linear-gradient-33" x1="518.896" y1="-0.224" x2="518.381" y2="2.539" xlink:href="#linear-gradient-7"/>
    <linearGradient id="linear-gradient-34" x1="0" y1="0.5" x2="1" y2="0.5" xlink:href="#linear-gradient-26"/>
    <linearGradient id="linear-gradient-35" x1="32.072" y1="-0.048" x2="31.144" y2="2.025" xlink:href="#linear-gradient-6"/>
    <linearGradient id="linear-gradient-36" x1="1.732" y1="-0.346" x2="-0.367" y2="1.373" xlink:href="#linear-gradient-7"/>
    <linearGradient id="linear-gradient-37" x1="0.842" y1="0.024" x2="-1.535" y2="2.749" xlink:href="#linear-gradient-7"/>
    <linearGradient id="linear-gradient-38" x1="0.595" y1="-0.905" x2="0.39" y2="3.004" xlink:href="#linear-gradient-7"/>
    <linearGradient id="linear-gradient-39" x1="1.286" y1="0.078" x2="0.507" y2="0.508" xlink:href="#linear-gradient-7"/>
    <linearGradient id="linear-gradient-40" x1="0.596" y1="-0.955" x2="0.566" y2="-0.449" xlink:href="#linear-gradient-26"/>
    <linearGradient id="linear-gradient-41" x1="206.968" y1="241.156" x2="209.426" y2="238.508" xlink:href="#linear-gradient-7"/>
    <linearGradient id="linear-gradient-42" x1="-9.231" y1="1.712" x2="-20.224" y2="3.086" xlink:href="#linear-gradient-6"/>
    <linearGradient id="linear-gradient-43" x1="347.734" y1="-0.866" x2="346.811" y2="0.839" xlink:href="#linear-gradient-6"/>
    <linearGradient id="linear-gradient-48" x1="2.527" y1="-13.912" x2="1.93" y2="-11.988" xlink:href="#linear-gradient-27"/>
    <linearGradient id="linear-gradient-49" x1="0.5" y1="0.348" x2="0.5" y2="1.479" xlink:href="#linear-gradient-6"/>
    <linearGradient id="linear-gradient-50" x1="-0.16" y1="-0.191" x2="1.984" y2="2.225" xlink:href="#linear-gradient-7"/>
    <linearGradient id="linear-gradient-51" x1="-172.046" y1="-0.938" x2="-169.775" y2="1.478" xlink:href="#linear-gradient-7"/>
    <linearGradient id="linear-gradient-52" x1="0.897" y1="-0.17" x2="0.341" y2="0.767" xlink:href="#linear-gradient-27"/>
    <linearGradient id="linear-gradient-53" x1="2.267" y1="2.255" x2="-2.813" y2="-2.832" gradientUnits="objectBoundingBox">
      <stop offset="0" stop-color="#4042e2"/>
      <stop offset="1" stop-color="#4f52ff"/>
    </linearGradient>
    <linearGradient id="linear-gradient-54" x1="2.58" y1="-4.058" x2="-0.86" y2="3.366" xlink:href="#linear-gradient-7"/>
    <linearGradient id="linear-gradient-55" x1="0.077" y1="1.062" x2="2.611" y2="-2.206" xlink:href="#linear-gradient-53"/>
    <linearGradient id="linear-gradient-56" x1="3.788" y1="-6.36" x2="0.301" y2="1.144" xlink:href="#linear-gradient-7"/>
    <linearGradient id="linear-gradient-57" x1="0.524" y1="0.523" x2="1.255" y2="-0.826" xlink:href="#linear-gradient-53"/>
    <linearGradient id="linear-gradient-58" x1="0.489" y1="-0.848" x2="0.495" y2="-0.118" xlink:href="#linear-gradient-53"/>
    <linearGradient id="linear-gradient-59" x1="0.51" y1="0.028" x2="0.466" y2="2.116" xlink:href="#linear-gradient-7"/>
    <linearGradient id="linear-gradient-60" x1="0.535" y1="0.04" x2="0.457" y2="0.995" xlink:href="#linear-gradient-7"/>
    <linearGradient id="linear-gradient-61" x1="1.247" y1="-1.154" x2="0.981" y2="-0.578" xlink:href="#linear-gradient-27"/>
    <linearGradient id="linear-gradient-62" x1="0.721" y1="-1.213" x2="0.22" y2="2.506" xlink:href="#linear-gradient-7"/>
    <linearGradient id="linear-gradient-63" x1="0" y1="0.5" x2="1" y2="0.5" xlink:href="#linear-gradient-53"/>
  </defs>
  <g id="Group_1768" data-name="Group 1768" transform="translate(-121.68 -135.789)">
    <path id="Path_4940" data-name="Path 4940" d="M421.987,206.065c-3.35-3.672-7.311-7.254-8.344-12.24-1.787-8.628,5.856-15.984,8.358-24.411a21.9,21.9,0,0,0-2.361-17.544,19.553,19.553,0,0,0-14.383-9.072c-9.887-.96-19.564,6.091-29.3,4.049-7.8-1.635-13.961-8.849-21.878-9.621-9.316-.909-17.045,7.23-25.941,10.294-10.64,3.665-22.177-.165-32.638-4.369S274.03,134.258,263,136.27c-12.275,2.239-22.566,13.56-24.208,26.628-1.627,12.951,12.018,23.347.4,38.9-3.63,4.859-6.044,11.625-4.44,17.583,1.559,5.788,8.194,9.449,8.242,15.468.038,4.751-4.195,8.532-4.536,13.27-.293,4.067,2.471,7.826,5.867,9.754s7.336,2.4,11.168,2.835l-1.129,1.285c19.3,1.833,38.715,1.425,58.087,1.016l91.646-1.938c3.14-.066,6.356-.148,9.281-1.356s5.549-3.795,5.995-7.085c.758-5.6-4.771-10.458-4.26-16.089.652-7.19,10.218-9.963,12.038-16.924C428.443,214.693,425.337,209.737,421.987,206.065Z" transform="translate(-102.313)" fill="url(#linear-gradient)"/>
    <g id="Group_1739" data-name="Group 1739" transform="translate(259.1 137.543)">
      <path id="Path_4941" data-name="Path 4941" d="M1660.068,155.546c2.815,8.425,17.193,58.126-27.021,80,0,0-17.889-30.283,25.743-80.254A.752.752,0,0,1,1660.068,155.546Z" transform="translate(-1629.416 -155.032)" fill="#bdd0fb"/>
      <path id="Path_4942" data-name="Path 4942" d="M1788.4,252.028c-.221,2.832-.5,5.655-.8,8.477s-.642,5.64-1.012,8.454c-.74,5.628-1.606,11.241-2.646,16.824s-2.249,11.138-3.757,16.621q-1.118,4.115-2.54,8.146a71.8,71.8,0,0,1-3.283,7.894.382.382,0,1,1-.684-.339v0h0a71.135,71.135,0,0,0,3.3-7.79q1.439-3.987,2.577-8.082c1.537-5.449,2.776-10.983,3.853-16.546s1.974-11.164,2.75-16.781q.582-4.212,1.066-8.438c.321-2.816.619-5.638.857-8.46v0a.162.162,0,0,1,.323.026Z" transform="translate(-1760.49 -243.029)" fill="url(#linear-gradient)"/>
    </g>
    <g id="Group_1740" data-name="Group 1740" transform="translate(256.344 146.707)">
      <path id="Path_4943" data-name="Path 4943" d="M1658.609,256.414a.845.845,0,0,0-1.6-.37c-3.837,7.572-14.521,27.112-26.8,36.172-19.994,14.752-36.717,41.824-29.192,59.051C1601.02,351.267,1660.214,352.069,1658.609,256.414Z" transform="translate(-1599.181 -255.583)" fill="#bdd0fb"/>
      <path id="Path_4944" data-name="Path 4944" d="M1728.213,385.467c-.071.246-.153.457-.231.681l-.244.661-.5,1.315c-.34.875-.689,1.745-1.041,2.615q-1.063,2.607-2.184,5.188c-1.5,3.442-3.083,6.844-4.722,10.221s-3.36,6.714-5.151,10.013l-.67,1.238-.686,1.229c-.461.818-.907,1.644-1.381,2.454l-1.407,2.439-1.444,2.418A182.669,182.669,0,0,1,1695.8,444.5c-.286.373-.583.737-.883,1.1l-.895,1.088-.895,1.088c-.3.359-.615.71-.922,1.065-.62.705-1.224,1.425-1.858,2.118l-1.913,2.069a99.442,99.442,0,0,1-8.217,7.7.1.1,0,0,1-.124-.145h0a106.857,106.857,0,0,0,8.051-7.826l1.885-2.081c.624-.7,1.219-1.421,1.83-2.13.3-.357.61-.71.907-1.071l.881-1.094.88-1.094c.3-.363.588-.729.868-1.1l1.709-2.228c.565-.746,1.109-1.508,1.665-2.261.275-.378.556-.753.827-1.135l.8-1.151.8-1.151c.27-.383.537-.767.794-1.158,2.112-3.093,4.1-6.268,6.059-9.46,3.891-6.4,7.452-13,10.8-19.706q2.5-5.032,4.814-10.159,1.158-2.561,2.264-5.146c.365-.863.728-1.727,1.081-2.595l.523-1.3.254-.655c.08-.217.168-.443.233-.646l.006-.02a.095.095,0,0,1,.181.055Z" transform="translate(-1672.685 -373.519)" fill="url(#linear-gradient)"/>
    </g>
    <g id="Group_1741" data-name="Group 1741" transform="translate(263.347 185.896)">
      <path id="Path_4945" data-name="Path 4945" d="M1676.018,761.346s.575-12.156,13.145-24.144c11.663-11.123,40.288-36.813,47.111-51.275a.654.654,0,0,1,1.248.285,80.255,80.255,0,0,1-15.548,45.182C1704.406,755.354,1676.018,761.346,1676.018,761.346Z" transform="translate(-1676.018 -685.545)" fill="#91b3fa"/>
      <path id="Path_4946" data-name="Path 4946" d="M1765.051,837.494a28,28,0,0,1-1.277,4.872c-.068.2-.132.4-.2.6l-.225.589-.451,1.179-.5,1.159c-.17.385-.325.777-.519,1.151a59.563,59.563,0,0,1-5.089,8.717c-.458.709-.988,1.364-1.492,2.039s-1,1.357-1.556,1.991l-1.623,1.938c-.263.329-.56.629-.845.939l-.861.925-.861.925-.432.461-.453.441-1.811,1.763c-.3.291-.6.593-.91.875l-.932.848-1.864,1.7-1.883,1.674c-.629.556-1.253,1.118-1.89,1.665q-1.9,1.654-3.826,3.277c-1.279,1.089-2.574,2.156-3.864,3.23l-3.9,3.18c-2.6,2.117-5.209,4.228-7.739,6.42-.641.54-1.253,1.109-1.875,1.669-.315.276-.609.572-.911.862s-.605.577-.9.876c-.57.609-1.165,1.2-1.691,1.847l-.407.476c-.067.08-.138.157-.2.24l-.187.251-.748,1.005,0,0a.1.1,0,0,1-.156-.11,29.683,29.683,0,0,1,3.15-3.947c.287-.308.588-.6.882-.9s.587-.6.9-.889c.612-.577,1.214-1.165,1.844-1.722,2.494-2.256,5.086-4.392,7.656-6.548s5.146-4.3,7.695-6.481,5.068-4.389,7.566-6.623l1.858-1.692.929-.846c.31-.282.6-.577.907-.865l1.8-1.738.451-.435.431-.455.858-.912a73.961,73.961,0,0,0,6.407-7.693,59.058,59.058,0,0,0,5.233-8.538c.2-.367.361-.754.545-1.129l.536-1.134.488-1.155.244-.578c.077-.194.147-.391.222-.587.144-.393.3-.782.434-1.178l.392-1.193a24.732,24.732,0,0,0,.633-2.43.012.012,0,0,1,.013-.01A.013.013,0,0,1,1765.051,837.494Z" transform="translate(-1709.584 -823.632)" fill="#bdd0fb"/>
    </g>
    <g id="Group_1742" data-name="Group 1742" transform="translate(122.925 143.005)">
      <path id="Path_4947" data-name="Path 4947" d="M181.575,295.544S169.39,244.1,144.138,216.027a3.205,3.205,0,0,0-5.478,1.288C134.177,233.684,125.574,283.335,181.575,295.544Z" transform="translate(-135.342 -214.959)" fill="#91b3fa"/>
      <path id="Path_4948" data-name="Path 4948" d="M258.476,458.453a.14.14,0,0,1-.182.212c-5.2-3.864-25.283-22.853-32.7-60.692a.1.1,0,0,1,.189-.049C228.307,406.7,238.617,439.039,258.476,458.453Z" transform="translate(-217.368 -381.185)" fill="#bdd0fb"/>
    </g>
    <g id="Group_1743" data-name="Group 1743" transform="translate(155.32 136.297)">
      <path id="Path_4949" data-name="Path 4949" d="M510.684,204.7s4.857-37.023-4.776-61.888a2.264,2.264,0,0,0-3.94-.523C494.9,151.973,476.773,182.6,510.684,204.7Z" transform="translate(-490.768 -141.362)" fill="#bdd0fb"/>
      <path id="Path_4950" data-name="Path 4950" d="M602.7,317.2a.1.1,0,0,1-.173.094c-2.461-3.854-10.962-21.429-6.368-48.27a.069.069,0,0,1,.137.015C595.765,275.463,594.461,299.4,602.7,317.2Z" transform="translate(-585.34 -257.336)" fill="url(#linear-gradient)"/>
    </g>
    <g id="Group_1744" data-name="Group 1744" transform="translate(121.68 207.478)">
      <path id="Path_4951" data-name="Path 4951" d="M121.809,922.835a.267.267,0,0,1,.167-.494,51.338,51.338,0,0,1,33.347,18.48c11.3,13.907,16.955,25.515,18.884,29.919a1.243,1.243,0,0,1-1.261,1.736c-5.606-.558-21.222-2.943-27.754-12.474C137.385,948.612,133.4,929.991,121.809,922.835Z" transform="translate(-121.68 -922.339)" fill="#bdd0fb"/>
      <path id="Path_4952" data-name="Path 4952" d="M269.025,1014.073s14.745,5.564,37.917,40.178C306.942,1054.251,281.811,1020.7,269.025,1014.073Z" transform="translate(-255.595 -1005.712)" fill="url(#linear-gradient)"/>
    </g>
    <g id="Group_1748" data-name="Group 1748" transform="translate(146.135 171.906)">
      <g id="Group_1747" data-name="Group 1747" transform="translate(7.097)">
        <path id="Path_4953" data-name="Path 4953" d="M609.086,616.969a2.5,2.5,0,0,1-2.5,2.5H471.48a2.5,2.5,0,0,1-2.5-2.5l-1.124-77.643a4.351,4.351,0,0,1,4.582-3.852l132.042-3.417a6.3,6.3,0,0,1,6.461,6.44Z" transform="translate(-467.857 -532.056)" fill="#10b5df"/>
        <path id="Path_4954" data-name="Path 4954" d="M641.085,644.1a2.371,2.371,0,0,1-2.364,2.364H509.2a2.371,2.371,0,0,1-2.364-2.364l-1.061-70.485a5.817,5.817,0,0,1,6.1-5.676l126.55-3.4a4.425,4.425,0,0,1,4.54,4.528Z" transform="translate(-502.323 -561.58)" fill="#0f8faf"/>
        <g id="Group_1745" data-name="Group 1745" transform="translate(5.199 6.773)">
          <path id="Path_4955" data-name="Path 4955" d="M530.035,1007.518a.191.191,0,0,1-.191-.188l-.084-5.716a.191.191,0,0,1,.188-.194h0a.191.191,0,0,1,.191.188l.084,5.716a.191.191,0,0,1-.188.194Z" transform="translate(-529.317 -965.414)" fill="#91b3fa"/>
          <path id="Path_4956" data-name="Path 4956" d="M525.409,634.468a.191.191,0,0,1-.191-.188l-.322-21.893a4.635,4.635,0,0,1,1.339-3.475,6.367,6.367,0,0,1,4.221-1.456l40.413-1.084a.191.191,0,1,1,.01.382l-40.424,1.084a5.97,5.97,0,0,0-3.956,1.35,4.265,4.265,0,0,0-1.221,3.2l.321,21.889a.191.191,0,0,1-.188.194Z" transform="translate(-524.897 -606.372)" fill="#91b3fa"/>
        </g>
        <g id="Group_1746" data-name="Group 1746" transform="translate(9.963 8.257)" opacity="0.22">
          <path id="Path_4957" data-name="Path 4957" d="M577.424,693c.136-5.826.085-57.413-.249-61.868s6.6-5.291,17.258-5.792,100.539-2.487,102.853-2.674c5.2-.422,6.279,7.354,5.758,24.234-.391,12.682-1.039,33.574-1.337,43.181a5.3,5.3,0,0,1-5.289,5.138c-21.63.06-104.533.3-110.051.462C580.016,695.868,577.37,695.309,577.424,693Z" transform="translate(-577.163 -622.648)" fill="#10b5df"/>
        </g>
      </g>
      <rect id="Rectangle_409" data-name="Rectangle 409" width="159.286" height="6.822" rx="3.411" transform="translate(0 84.55)" fill="#10b5df"/>
    </g>
    <g id="Group_1749" data-name="Group 1749" transform="translate(256.874 151.796)">
      <path id="Path_4958" data-name="Path 4958" d="M1637.746,311.586l-31.107-.173a1.633,1.633,0,0,0-1.409,2.473l.156.26a1.632,1.632,0,0,0,1.4.792h30.951a1.633,1.633,0,0,0,1.633-1.633v-.087A1.633,1.633,0,0,0,1637.746,311.586Z" transform="translate(-1604.994 -311.413)" fill="#91b3fa"/>
      <path id="Path_4959" data-name="Path 4959" d="M2012.017,315.344v.051a1.633,1.633,0,0,0,1.633,1.633h6.906a1.633,1.633,0,0,0,1.578-1.211h0a1.633,1.633,0,0,0-1.566-2.054l-6.905-.051A1.633,1.633,0,0,0,2012.017,315.344Z" transform="translate(-1974.92 -313.502)" fill="#91b3fa"/>
    </g>
    <g id="Group_1750" data-name="Group 1750" transform="translate(256.874 157.657)">
      <path id="Path_4960" data-name="Path 4960" d="M1630.263,375.9l-23.624-.173a1.633,1.633,0,0,0-1.409,2.473l.156.26a1.632,1.632,0,0,0,1.4.792h23.469a1.633,1.633,0,0,0,1.633-1.633v-.087A1.633,1.633,0,0,0,1630.263,375.9Z" transform="translate(-1604.994 -375.723)" fill="#91b3fa"/>
      <path id="Path_4961" data-name="Path 4961" d="M1929.917,379.654v.051a1.633,1.633,0,0,0,1.633,1.633h6.906a1.633,1.633,0,0,0,1.577-1.211h0a1.633,1.633,0,0,0-1.566-2.054l-6.905-.051A1.633,1.633,0,0,0,1929.917,379.654Z" transform="translate(-1900.302 -377.812)" fill="#91b3fa"/>
    </g>
    <path id="Path_4962" data-name="Path 4962" d="M842.187,214.863H808.96a14.261,14.261,0,1,0,.193,6.2H825.6v3.585a2.434,2.434,0,0,0,2.434,2.434h.089a2.434,2.434,0,0,0,2.434-2.434v-3.585h6.2v5.533a2.434,2.434,0,0,0,2.434,2.434h.089a2.434,2.434,0,0,0,2.434-2.434v-5.533h.472a3.069,3.069,0,0,0,3.069-3.069v-.059A3.069,3.069,0,0,0,842.187,214.863ZM795.152,227.2a8.793,8.793,0,1,1,8.793-8.793A8.793,8.793,0,0,1,795.152,227.2Z" transform="translate(-599.137 -62.132)" fill="url(#linear-gradient-6)"/>
    <g id="Group_1753" data-name="Group 1753" transform="translate(166.425 183.458)">
      <g id="Group_1751" data-name="Group 1751" transform="translate(2.96 4.583)">
        <path id="Path_4963" data-name="Path 4963" d="M674.726,790.15a.763.763,0,0,1-.567-.218.771.771,0,0,1-.237-.559v-2.756a2.493,2.493,0,0,0-2.482-2.494V775.9a2.5,2.5,0,0,0-2.5-2.5h-8.1v1.719h8.1a.779.779,0,0,1,.778.778v8.244l-22.126.312a.793.793,0,0,1-.557-.224.772.772,0,0,1-.232-.554V757.268h-1.719v26.411a2.5,2.5,0,0,0,2.532,2.5l23.8-.335a.8.8,0,0,1,.557.224.772.772,0,0,1,.232.554v2.756a2.5,2.5,0,0,0,2.494,2.5h.089l9.382-.324-.059-1.718Z" transform="translate(-645.087 -752.876)" fill="url(#linear-gradient-7)"/>
        <path id="Path_4964" data-name="Path 4964" d="M707.184,1152.556a2.508,2.508,0,0,0-2.454,2.5.778.778,0,0,1-.778.778h-9.63v1.719h9.63a2.5,2.5,0,0,0,2.5-2.5.781.781,0,0,1,.764-.777l20.733-.354-.029-1.718Z" transform="translate(-689.835 -1111.814)" fill="url(#linear-gradient-8)"/>
        <path id="Path_4965" data-name="Path 4965" d="M786.841,1194.5v.927a.779.779,0,0,1-.778.778H771.2a2.5,2.5,0,0,0-2.5,2.5v3.348a2.5,2.5,0,0,0,2.493,2.5l.1,0,8.614-.319-.064-1.718-8.614.319a.778.778,0,0,1-.807-.777v-3.348a.778.778,0,0,1,.778-.778h14.867a2.5,2.5,0,0,0,2.5-2.5v-.927a.779.779,0,0,1,.778-.778h6.192v-1.718h-6.192A2.5,2.5,0,0,0,786.841,1194.5Z" transform="translate(-757.434 -1147.992)" fill="url(#linear-gradient-9)"/>
        <path id="Path_4966" data-name="Path 4966" d="M811.336,758.732h.016c3.152-.015,8.851-.035,11.607-.006a.78.78,0,0,1,.768.778v17.559a2.5,2.5,0,0,0,2.5,2.5h5.047V777.84h-5.047a.779.779,0,0,1-.778-.778V759.5a2.5,2.5,0,0,0-2.468-2.5c-2.768-.03-8.477-.009-11.634.006h-.007a1.584,1.584,0,0,1-1.58-1.565c-.013-1.322-.022-3.167,0-4.448a.774.774,0,0,1,.724-.763l9.581-.661-.118-1.714-9.581.661a2.483,2.483,0,0,0-2.324,2.446c-.024,1.3-.014,3.162,0,4.5A3.306,3.306,0,0,0,811.336,758.732Z" transform="translate(-793.173 -744.327)" fill="url(#linear-gradient-10)"/>
        <path id="Path_4967" data-name="Path 4967" d="M1465.538,743.51a2.492,2.492,0,0,0,2.227-2.482V727.494a.781.781,0,0,1,.668-.77l3.872-.553a2.508,2.508,0,0,0,2.143-2.471V709.079h-1.719V723.7a.782.782,0,0,1-.668.77l-3.873.553a2.508,2.508,0,0,0-2.143,2.471v13.534a.777.777,0,0,1-.694.773l-7.324.8.186,1.709Z" transform="translate(-1383.934 -709.079)" fill="url(#linear-gradient-11)"/>
        <path id="Path_4968" data-name="Path 4968" d="M1485.3,875.112v-6.555a.78.78,0,0,1,.771-.778l3.138-.028a2.491,2.491,0,0,0,2.473-2.412l.683-20.335-1.718-.058-.683,20.336a.776.776,0,0,1-.771.751l-3.138.028a2.5,2.5,0,0,0-2.474,2.5v6.532l-1.29-.017a2.5,2.5,0,0,0-2.529,2.5v12.724a.772.772,0,0,1-.231.553.781.781,0,0,1-.556.224l-11.621-.149a.781.781,0,0,1-.768-.778v-9.159a2.5,2.5,0,0,0-2.5-2.5h-5.047v1.719h5.047a.779.779,0,0,1,.778.778v9.159a2.506,2.506,0,0,0,2.464,2.5l11.621.149h.033a2.5,2.5,0,0,0,2.5-2.5V877.569a.778.778,0,0,1,.788-.778l12.854.169.023-1.719Z" transform="translate(-1384.86 -832.563)" fill="url(#linear-gradient-12)"/>
        <path id="Path_4969" data-name="Path 4969" d="M1470.9,1056.488l.168,12.262,1.719-.024-.169-12.335,4.688-.265a2.5,2.5,0,0,0,2.355-2.492V1046.4h-1.719v7.237a.778.778,0,0,1-.734.776l-18.7,1.058.1,1.716Z" transform="translate(-1384.376 -1015.652)" fill="url(#linear-gradient-13)"/>
      </g>
      <g id="Group_1752" data-name="Group 1752" transform="translate(0 0)">
        <path id="Path_4970" data-name="Path 4970" d="M1780.747,786.632l-3.89.745a1.778,1.778,0,0,0-1.444,1.746V793.8a1.778,1.778,0,0,0,1.778,1.778h3.89a1.778,1.778,0,0,0,1.778-1.778v-5.418A1.778,1.778,0,0,0,1780.747,786.632Z" transform="translate(-1669.431 -774.951)" fill="url(#linear-gradient-14)"/>
        <path id="Path_4971" data-name="Path 4971" d="M1594.28,658.828l-3.89.745a1.778,1.778,0,0,0-1.443,1.746v4.674a1.778,1.778,0,0,0,1.778,1.778h3.89a1.778,1.778,0,0,0,1.778-1.778v-5.418A1.778,1.778,0,0,0,1594.28,658.828Z" transform="translate(-1499.96 -658.796)" fill="url(#linear-gradient-15)"/>
        <path id="Path_4972" data-name="Path 4972" d="M1826.84,1136.52l-3.89.745a1.778,1.778,0,0,0-1.444,1.746v4.673a1.778,1.778,0,0,0,1.778,1.778h3.89a1.778,1.778,0,0,0,1.778-1.778v-5.418A1.778,1.778,0,0,0,1826.84,1136.52Z" transform="translate(-1711.323 -1092.949)" fill="url(#linear-gradient-16)"/>
        <path id="Path_4973" data-name="Path 4973" d="M617.946,709.112l-3.89.745a1.778,1.778,0,0,0-1.444,1.746v4.673a1.778,1.778,0,0,0,1.778,1.778h3.89a1.778,1.778,0,0,0,1.778-1.778v-5.418A1.778,1.778,0,0,0,617.946,709.112Z" transform="translate(-612.612 -704.497)" fill="url(#linear-gradient-17)"/>
        <path id="Path_4974" data-name="Path 4974" d="M783.462,895.579l-3.89.745a1.778,1.778,0,0,0-1.444,1.746v4.674a1.778,1.778,0,0,0,1.778,1.778h3.89a1.778,1.778,0,0,0,1.778-1.778v-5.418A1.778,1.778,0,0,0,783.462,895.579Z" transform="translate(-763.042 -873.969)" fill="url(#linear-gradient-18)"/>
        <path id="Path_4975" data-name="Path 4975" d="M645.183,1153.281l-3.89.745a1.778,1.778,0,0,0-1.444,1.746v4.674a1.778,1.778,0,0,0,1.778,1.778h3.89a1.778,1.778,0,0,0,1.778-1.778v-5.418A1.778,1.778,0,0,0,645.183,1153.281Z" transform="translate(-637.367 -1108.183)" fill="url(#linear-gradient-19)"/>
        <path id="Path_4976" data-name="Path 4976" d="M1571.233,1241.276l-3.89.745a1.778,1.778,0,0,0-1.444,1.746v4.674a1.778,1.778,0,0,0,1.778,1.778h3.89a1.778,1.778,0,0,0,1.778-1.778v-5.419A1.778,1.778,0,0,0,1571.233,1241.276Z" transform="translate(-1479.013 -1188.157)" fill="url(#linear-gradient-20)"/>
        <path id="Path_4977" data-name="Path 4977" d="M865.172,1260.132l-3.89.745a1.778,1.778,0,0,0-1.444,1.746v4.674a1.778,1.778,0,0,0,1.778,1.778h3.89a1.778,1.778,0,0,0,1.778-1.778v-5.419A1.778,1.778,0,0,0,865.172,1260.132Z" transform="translate(-837.305 -1205.295)" fill="url(#linear-gradient-21)"/>
        <path id="Path_4978" data-name="Path 4978" d="M904.98,709.112l-3.89.745a1.778,1.778,0,0,0-1.443,1.746v4.673a1.778,1.778,0,0,0,1.778,1.778h3.89a1.778,1.778,0,0,0,1.778-1.778v-5.418A1.778,1.778,0,0,0,904.98,709.112Z" transform="translate(-873.485 -704.497)" fill="url(#linear-gradient-22)"/>
        <path id="Path_4979" data-name="Path 4979" d="M1644.563,975.194l-3.89.745a1.778,1.778,0,0,0-1.444,1.746v4.673a1.778,1.778,0,0,0,1.778,1.778h3.89a1.778,1.778,0,0,0,1.778-1.778V976.94A1.778,1.778,0,0,0,1644.563,975.194Z" transform="translate(-1545.66 -946.327)" fill="url(#linear-gradient-23)"/>
      </g>
    </g>
    <g id="Group_1755" data-name="Group 1755" transform="translate(204.729 189.759)">
      <g id="Group_1754" data-name="Group 1754" transform="translate(0 0)">
        <path id="Path_4980" data-name="Path 4980" d="M1077.31,758.44h-4.16V741.863a12.905,12.905,0,0,1,11.338-12.8l8.505-1.034a12.893,12.893,0,0,1,14.449,12.8V755.3h-4.16V740.829a8.733,8.733,0,0,0-9.787-8.67l-8.505,1.034a8.741,8.741,0,0,0-7.68,8.67Z" transform="translate(-1069.479 -727.936)" fill="url(#linear-gradient-24)"/>
        <path id="Path_4981" data-name="Path 4981" d="M1035.316,1001.6l36.466-2.02a2.584,2.584,0,0,1,2.727,2.58v28.888a2.584,2.584,0,0,1-2.584,2.584h-35.589a2.584,2.584,0,0,1-2.583-2.5l-.876-26.868A2.584,2.584,0,0,1,1035.316,1001.6Z" transform="translate(-1032.875 -974.818)" fill="url(#linear-gradient-25)"/>
        <path id="Path_4982" data-name="Path 4982" d="M1206.733,1095.332l-2.207-6.345a2.125,2.125,0,0,1,.483-2.191,6.009,6.009,0,1,0-8.06.448,2.142,2.142,0,0,1,.7,2.367l-1.99,5.721a2.141,2.141,0,0,0,2.022,2.845h7.034A2.141,2.141,0,0,0,1206.733,1095.332Z" transform="translate(-1179.972 -1044.793)" fill="url(#linear-gradient-26)"/>
      </g>
    </g>
    <g id="Group_1757" data-name="Group 1757" transform="translate(144.683 191.167)">
      <path id="Path_4983" data-name="Path 4983" d="M448.826,1284.842a.3.3,0,0,0-.008-.079,4.832,4.832,0,0,0-2.344-2.529l-.773.061a5.362,5.362,0,0,0-.316,2.592c0,.01.005.021.008.031A18.332,18.332,0,0,0,448.826,1284.842Z" transform="translate(-438.84 -1233.122)" fill="url(#linear-gradient-27)"/>
      <path id="Path_4984" data-name="Path 4984" d="M445.959,1310.926a.334.334,0,0,0,.245.248,10.6,10.6,0,0,0,2.955-.042.281.281,0,0,0,.233-.281A18.343,18.343,0,0,1,445.959,1310.926Z" transform="translate(-439.406 -1259.13)" fill="url(#linear-gradient-28)"/>
      <path id="Path_4985" data-name="Path 4985" d="M395.658,1008.136a7.2,7.2,0,0,1-1.675,1.225,13.915,13.915,0,0,0,3.062,2.723l.379.85,1.214-1.455A6.589,6.589,0,0,1,395.658,1008.136Z" transform="translate(-392.168 -984.006)" fill="url(#linear-gradient-29)"/>
      <path id="Path_4986" data-name="Path 4986" d="M445.928,1270.264l.327,1.576a.258.258,0,0,0,.22.212,2.192,2.192,0,0,0,.507-.008.324.324,0,0,0,.257-.381l-.228-1.4Z" transform="translate(-439.378 -1222.243)" fill="url(#linear-gradient-30)"/>
      <path id="Path_4987" data-name="Path 4987" d="M505.173,1309.324a4.619,4.619,0,0,1-1.524-.218c0,.085,0,.171,0,.261a.169.169,0,0,0,.161.172l4.689-.03a.214.214,0,0,0,.172-.312C508.059,1309.247,506.493,1309.361,505.173,1309.324Z" transform="translate(-491.838 -1257.544)" fill="url(#linear-gradient-31)"/>
      <path id="Path_4988" data-name="Path 4988" d="M508.675,1287.189a.219.219,0,0,0-.019-.036,5.975,5.975,0,0,0-3.553-2.23l-1-.032a4.8,4.8,0,0,0-.454,2.207,4.617,4.617,0,0,0,1.524.218C506.495,1287.354,508.061,1287.24,508.675,1287.189Z" transform="translate(-491.84 -1235.537)" fill="url(#linear-gradient-32)"/>
      <path id="Path_4989" data-name="Path 4989" d="M506.593,1265.852c.011.074.148,1.207.2,1.646a.218.218,0,0,0,.184.2,2.3,2.3,0,0,0,.687-.011.3.3,0,0,0,.224-.3v-1.778Z" transform="translate(-494.514 -1218.012)" fill="url(#linear-gradient-33)"/>
      <path id="Path_4990" data-name="Path 4990" d="M434.449,1041.494a89.011,89.011,0,0,1,2.368,20.7.446.446,0,0,1-.354.435,5.184,5.184,0,0,1-1.118.13.414.414,0,0,1-.395-.346c-.338-1.983-2.278-13.152-3.384-14.966,0,0-.727,9.948-.495,15.109a.245.245,0,0,1-.216.254,4.121,4.121,0,0,1-.9,0,.327.327,0,0,1-.292-.278,150.7,150.7,0,0,1-1.568-18.861,10.941,10.941,0,0,1,1.073-2.17Z" transform="translate(-423.172 -1014.323)" fill="url(#linear-gradient-34)"/>
      <path id="Path_4991" data-name="Path 4991" d="M393.227,824.988a8.227,8.227,0,0,1-5.674,4.519c-2.639.5-7.378,1.112-9.283,1.352a2.334,2.334,0,0,0-1.474.792c-1.5,1.732-4.782,6.475-.915,11.255a7.205,7.205,0,0,0,1.675-1.225,5.907,5.907,0,0,1,.434-4.636,4.409,4.409,0,0,0,.115.444,27.5,27.5,0,0,1,1.3,7.923.248.248,0,0,0,.156.232c1.626.652,4.757.264,5.807.107a.353.353,0,0,0,.3-.4c-.516-3.736,2.131-9.883,2.83-11.422a1.021,1.021,0,0,1,.508-.508,10.908,10.908,0,0,0,6.44-7.1A3.824,3.824,0,0,0,393.227,824.988Z" transform="translate(-374.065 -817.55)" fill="url(#linear-gradient-35)"/>
      <path id="Path_4992" data-name="Path 4992" d="M586.517,783.006a12.138,12.138,0,0,0,.19-5.674H585.8a14.748,14.748,0,0,1-1.492,4.344A3.824,3.824,0,0,1,586.517,783.006Z" transform="translate(-565.142 -774.238)" fill="url(#linear-gradient-36)"/>
      <path id="Path_4993" data-name="Path 4993" d="M593.957,746.965s-1.387-1.8-.936-2.731,1.995-.845,1.995-.845l.217.733a.924.924,0,0,1-.022.587l-.853,2.256Z" transform="translate(-572.983 -743.387)" fill="url(#linear-gradient-37)"/>
      <path id="Path_4994" data-name="Path 4994" d="M447.915,849.068l-.313,3.2a4.006,4.006,0,0,0,3.112-.382l-.921-2.91Z" transform="translate(-440.9 -839.354)" fill="url(#linear-gradient-38)"/>
      <g id="Group_1756" data-name="Group 1756" transform="translate(5.547 4.478)">
        <path id="Path_4995" data-name="Path 4995" d="M450.22,808.578c.043.041,1.83,3.549,1.83,3.549l-2.025.977-2.187-3.073S449.494,807.9,450.22,808.578Z" transform="translate(-446.661 -806.992)" fill="url(#linear-gradient-39)"/>
        <path id="Path_4996" data-name="Path 4996" d="M437,795.644a.324.324,0,0,0,.024.284l1.01,1.683a.308.308,0,0,0,.055.069.53.53,0,0,0,.849-.006,2.846,2.846,0,0,1,.8-.863.323.323,0,0,1,.436.143,12.042,12.042,0,0,1,.691,1.639.321.321,0,0,1-.187.394,8.968,8.968,0,0,1-1.939.566.323.323,0,0,1-.305-.13c-.309-.424-1.181-1.608-1.479-1.9-.276-.276-.787-.172-1.017-.106a.324.324,0,0,1-.258-.034.711.711,0,0,1-.268-1.083.323.323,0,0,0-.1-.439.715.715,0,0,1-.274-1.014,1.007,1.007,0,0,1,1.091-.534.336.336,0,0,0,.352-.2.213.213,0,0,1,.167-.131.313.313,0,0,0,.254-.368.827.827,0,0,1,.462-.948c.874-.48,1.639.3,1.833.963s-.782,1.128-1.4,1.206C437.348,794.894,437.1,795.386,437,795.644Z" transform="translate(-434.929 -792.519)" fill="url(#linear-gradient-40)"/>
        <path id="Path_4997" data-name="Path 4997" d="M446.614,843.233s-.388-1.137-.886-1.095-.889.537-.272,1.094C446.222,843.925,446.614,843.233,446.614,843.233Z" transform="translate(-444.209 -837.614)" fill="url(#linear-gradient-41)"/>
      </g>
      <path id="Path_4998" data-name="Path 4998" d="M410.745,914.351a10.127,10.127,0,0,1-.415-3.981l.181.021a9.927,9.927,0,0,0,.405,3.9Z" transform="translate(-406.985 -895.151)" fill="url(#linear-gradient-42)"/>
      <path id="Path_4999" data-name="Path 4999" d="M446.776,1085.589a.091.091,0,0,1-.088-.068c-.2-.771-1.7-1.619-1.712-1.627a.091.091,0,1,1,.089-.158c.064.036,1.58.894,1.8,1.74a.091.091,0,0,1-.065.111A.088.088,0,0,1,446.776,1085.589Z" transform="translate(-438.471 -1052.704)" fill="url(#linear-gradient-43)"/>
    </g>
    <g id="Group_1760" data-name="Group 1760" transform="translate(286.288 159.378)">
      <path id="Path_5000" data-name="Path 5000" d="M2090.088,402.41l-.945-.215a.8.8,0,0,1-.563-.482,8.535,8.535,0,0,0-.937-1.711.8.8,0,0,1-.1-.735l.329-.913a.959.959,0,0,0-.3-1.071l-.951-.765a.958.958,0,0,0-1.111-.064l-.821.516a.8.8,0,0,1-.74.057,8.559,8.559,0,0,0-1.873-.549.8.8,0,0,1-.592-.446l-.412-.877a.959.959,0,0,0-.971-.544l-1.213.132a.959.959,0,0,0-.831.74l-.215.945a.8.8,0,0,1-.482.563,8.553,8.553,0,0,0-1.712.937.8.8,0,0,1-.735.1L2074,397.7a.958.958,0,0,0-1.071.3l-.765.951a.959.959,0,0,0-.064,1.111l.517.821a.8.8,0,0,1,.056.74,8.559,8.559,0,0,0-.549,1.873.8.8,0,0,1-.446.591l-.877.413a.958.958,0,0,0-.544.97l.131,1.213a.958.958,0,0,0,.74.831l.945.215a.8.8,0,0,1,.562.482,8.548,8.548,0,0,0,.938,1.711.8.8,0,0,1,.1.735l-.328.913a.958.958,0,0,0,.3,1.071l.951.765a.958.958,0,0,0,1.111.065l.821-.516a.8.8,0,0,1,.74-.057,8.553,8.553,0,0,0,1.873.549.8.8,0,0,1,.591.446l.413.877a.958.958,0,0,0,.97.544l1.213-.132a.958.958,0,0,0,.831-.74l.215-.945a.8.8,0,0,1,.482-.563,8.54,8.54,0,0,0,1.711-.937.8.8,0,0,1,.735-.1l.913.328a.958.958,0,0,0,1.071-.3l.765-.951a.958.958,0,0,0,.064-1.111l-.516-.821a.8.8,0,0,1-.057-.74,8.544,8.544,0,0,0,.549-1.873.8.8,0,0,1,.446-.591l.876-.413a.958.958,0,0,0,.545-.97l-.132-1.213A.959.959,0,0,0,2090.088,402.41Zm-8.007,9.5a7.1,7.1,0,1,1,5.474-8.421A7.1,7.1,0,0,1,2082.081,411.911Zm3.057-7.032a4.6,4.6,0,1,1-4.6-4.6A4.6,4.6,0,0,1,2085.137,404.879Z" transform="translate(-2057.259 -394.606)" fill="#7d97f4"/>
      <g id="Group_1758" data-name="Group 1758" transform="translate(20.584 19.737)">
        <path id="Path_5001" data-name="Path 5001" d="M2167.969,616.82l-.686-.156a.581.581,0,0,1-.409-.35,6.216,6.216,0,0,0-.681-1.243.583.583,0,0,1-.075-.533l.238-.663a.7.7,0,0,0-.219-.778l-.69-.555a.7.7,0,0,0-.807-.047l-.6.375a.582.582,0,0,1-.537.041,6.2,6.2,0,0,0-1.36-.4.583.583,0,0,1-.43-.324l-.3-.637a.7.7,0,0,0-.7-.4l-.881.1a.7.7,0,0,0-.6.537l-.156.686a.584.584,0,0,1-.35.409,6.208,6.208,0,0,0-1.243.681.583.583,0,0,1-.534.075l-.663-.238a.7.7,0,0,0-.778.219l-.555.691a.7.7,0,0,0-.047.806l.375.6a.583.583,0,0,1,.042.537,6.212,6.212,0,0,0-.4,1.36.583.583,0,0,1-.324.43l-.637.3a.7.7,0,0,0-.4.7l.1.881a.7.7,0,0,0,.538.6l.686.156a.583.583,0,0,1,.408.35,6.234,6.234,0,0,0,.681,1.243.583.583,0,0,1,.075.533l-.238.663a.7.7,0,0,0,.218.778l.691.555a.7.7,0,0,0,.807.047l.6-.375a.582.582,0,0,1,.537-.041,6.212,6.212,0,0,0,1.36.4.58.58,0,0,1,.429.324l.3.637a.7.7,0,0,0,.7.4l.881-.1a.7.7,0,0,0,.6-.537l.156-.686a.581.581,0,0,1,.35-.409,6.2,6.2,0,0,0,1.242-.681.583.583,0,0,1,.534-.075l.663.238a.7.7,0,0,0,.777-.219l.556-.691a.7.7,0,0,0,.047-.807l-.375-.6a.582.582,0,0,1-.042-.537,6.186,6.186,0,0,0,.4-1.36.582.582,0,0,1,.324-.429l.637-.3a.7.7,0,0,0,.4-.7l-.1-.881A.7.7,0,0,0,2167.969,616.82Zm-5.815,6.9a5.158,5.158,0,1,1,3.975-6.115A5.158,5.158,0,0,1,2162.154,623.72Zm2.622-5.26a3.692,3.692,0,1,1-3.692-3.692A3.692,3.692,0,0,1,2164.776,618.459Z" transform="translate(-2153.563 -611.152)" fill="#7d97f4"/>
      </g>
      <g id="Group_1759" data-name="Group 1759" transform="translate(0 16.753)">
        <path id="Path_5002" data-name="Path 5002" d="M1946.023,591.613l-.589-.7a.76.76,0,0,1-.148-.687,8.11,8.11,0,0,0,.274-1.829.759.759,0,0,1,.343-.614l.771-.5a.908.908,0,0,0,.387-.981l-.279-1.123a.908.908,0,0,0-.8-.686l-.916-.081a.761.761,0,0,1-.591-.381,8.111,8.111,0,0,0-1.1-1.488.76.76,0,0,1-.19-.676l.191-.9a.908.908,0,0,0-.42-.967l-.991-.6a.908.908,0,0,0-1.052.082l-.7.589a.759.759,0,0,1-.687.148,8.109,8.109,0,0,0-1.829-.274.76.76,0,0,1-.614-.343l-.5-.771a.908.908,0,0,0-.981-.387l-1.123.279a.908.908,0,0,0-.686.8l-.081.916a.76.76,0,0,1-.381.591,8.088,8.088,0,0,0-1.488,1.1.76.76,0,0,1-.676.19l-.9-.191a.908.908,0,0,0-.967.42l-.6.991a.908.908,0,0,0,.082,1.051l.59.7a.76.76,0,0,1,.148.686,8.1,8.1,0,0,0-.274,1.829.76.76,0,0,1-.344.614l-.771.5a.908.908,0,0,0-.387.981l.279,1.123a.908.908,0,0,0,.8.686l.916.081a.76.76,0,0,1,.591.381,8.145,8.145,0,0,0,1.1,1.488.759.759,0,0,1,.191.676l-.191.9a.909.909,0,0,0,.42.967l.991.6a.908.908,0,0,0,1.051-.082l.7-.59a.76.76,0,0,1,.687-.148,8.112,8.112,0,0,0,1.829.274.76.76,0,0,1,.614.344l.5.771a.908.908,0,0,0,.981.387l1.123-.279a.909.909,0,0,0,.686-.8l.081-.916a.761.761,0,0,1,.381-.591,8.1,8.1,0,0,0,1.488-1.1.76.76,0,0,1,.676-.191l.9.191a.908.908,0,0,0,.967-.42l.6-.991A.908.908,0,0,0,1946.023,591.613Zm-11.493,2.578a6.732,6.732,0,1,1,8.962-3.216A6.733,6.733,0,0,1,1934.531,594.191Z" transform="translate(-1927.718 -578.417)" fill="#7d97f4"/>
      </g>
    </g>
    <g id="Group_1762" data-name="Group 1762" transform="translate(133.451 242.736)">
      <path id="Path_5003" data-name="Path 5003" d="M287.426,1329.726h-34.6c-1.1,0-2-.49-2-1.094v-18.3c0-.6.891-1.093,1.993-1.094l34.881-.051c1.11,0,2.009.492,2,1.1l-.277,18.353C289.418,1329.239,288.525,1329.726,287.426,1329.726Z" transform="translate(-250.824 -1309.184)" fill="#7d97f4"/>
      <path id="Path_5004" data-name="Path 5004" d="M305.174,1324.554l-30.942.1c-1.118,0-2.02.5-2.015,1.115l.216,15.393c.005.6.889,1.094,1.99,1.105l30.064.3c1.123.011,2.048-.48,2.064-1.095l.662-15.8C307.23,1325.058,306.31,1324.55,305.174,1324.554Z" transform="translate(-270.268 -1323.153)" fill="#91b3fa"/>
      <path id="Path_5005" data-name="Path 5005" d="M370.179,1336.9v.117c0,.183-.271.332-.606.332h-23.84c-.335,0-.606-.149-.606-.332v-.117c0-.183.272-.332.606-.332h23.84C369.908,1336.571,370.179,1336.72,370.179,1336.9Z" transform="translate(-336.531 -1334.075)" fill="#bdd0fb"/>
      <path id="Path_5006" data-name="Path 5006" d="M370.827,1352.85h0c-.017.174-.277.311-.594.314l-20.85.208c-.339,0-.618-.146-.618-.332v-.027c0-.181.266-.329.6-.332l20.85-.181C370.563,1352.5,370.846,1352.657,370.827,1352.85Z" transform="translate(-339.838 -1348.552)" fill="#bdd0fb"/>
      <g id="Group_1761" data-name="Group 1761" transform="translate(3.094 5.379)">
        <path id="Path_5007" data-name="Path 5007" d="M314.792,1381.594h-.021l-28.2-.185a2.172,2.172,0,0,1-1.532-.54.9.9,0,0,1-.271-.659l.726-10.879c.022-.65.815-1.14,1.853-1.13l28.151.3a2.168,2.168,0,0,1,1.52.541.9.9,0,0,1,.27.656s0,.008,0,.012l-.676,10.752C316.592,1381.1,315.811,1381.594,314.792,1381.594Zm-27.478-12.63c-.678,0-1.053.286-1.057.405l-.726,10.879c0,.025.041.073.059.092a1.467,1.467,0,0,0,.986.3l28.2.186h.016c.678,0,1.053-.287,1.057-.406l.676-10.755a.193.193,0,0,0-.058-.1,1.461,1.461,0,0,0-.977-.305l-28.151-.3Zm29.593.721h0Z" transform="translate(-284.769 -1368.199)" fill="#bdd0fb"/>
      </g>
      <path id="Path_5008" data-name="Path 5008" d="M323.324,1391.969H292.612a.382.382,0,1,1,0-.764h30.712a.382.382,0,1,1,0,.764Z" transform="translate(-288.456 -1383.729)" fill="#bdd0fb"/>
    </g>
    <g id="Group_1763" data-name="Group 1763" transform="translate(153.119 249.529)">
      <path id="Path_5009" data-name="Path 5009" d="M506.837,1397.462H468.818c-1.212,0-2.2-.328-2.2-.732v-12.25c0-.4.979-.731,2.189-.732l38.323-.034c1.219,0,2.208.33,2.2.737l-.3,12.284C509.026,1397.136,508.045,1397.462,506.837,1397.462Z" transform="translate(-466.623 -1383.713)" fill="#7d97f4"/>
      <path id="Path_5010" data-name="Path 5010" d="M526.338,1394l-34,.07c-1.229,0-2.219.336-2.214.747l.237,10.3c.006.4.977.732,2.187.74l33.031.2c1.234.008,2.25-.321,2.268-.733l.727-10.573C528.6,1394.337,527.585,1394,526.338,1394Z" transform="translate(-487.986 -1393.062)" fill="#bdd0fb"/>
      <path id="Path_5011" data-name="Path 5011" d="M597.757,1402.266v.078c0,.123-.3.222-.666.222H570.9c-.368,0-.666-.1-.666-.222v-.078c0-.123.3-.222.666-.222H597.09C597.458,1402.044,597.757,1402.143,597.757,1402.266Z" transform="translate(-560.788 -1400.373)" fill="url(#linear-gradient)"/>
      <path id="Path_5012" data-name="Path 5012" d="M598.468,1412.939h0c-.019.116-.3.208-.653.21l-22.907.139c-.373,0-.678-.1-.678-.222v-.018c0-.121.292-.22.656-.222l22.907-.121C598.178,1412.7,598.489,1412.81,598.468,1412.939Z" transform="translate(-564.421 -1410.062)" fill="url(#linear-gradient)"/>
      <path id="Path_5013" data-name="Path 5013" d="M537.28,1431.043h-.021l-30.983-.124a2.847,2.847,0,0,1-1.768-.49.6.6,0,0,1-.175-.452c0-.007,0-.013,0-.02l.8-7.266c.05-.648,1.1-.876,2-.866l30.929.2a2.839,2.839,0,0,1,1.755.49.6.6,0,0,1,.176.45c0,.006,0,.013,0,.019l-.743,7.2C539.208,1430.813,538.169,1431.043,537.28,1431.043Zm-32.175-1.107a2.535,2.535,0,0,0,1.174.219l30.983.124h.018a2.518,2.518,0,0,0,1.208-.229l.727-7.041a2.521,2.521,0,0,0-1.164-.219l-30.929-.2a2.551,2.551,0,0,0-1.237.229Zm33.377.165c0,.006,0,.013,0,.02Zm1.123-7.156h0Zm-33.713-.2h0Z" transform="translate(-500.895 -1418.352)" fill="url(#linear-gradient)"/>
      <path id="Path_5014" data-name="Path 5014" d="M546.654,1437.989H512.911a.382.382,0,0,1,0-.764h33.743a.382.382,0,0,1,0,.764Z" transform="translate(-508.345 -1432.348)" fill="url(#linear-gradient)"/>
    </g>
    <g id="Group_1767" data-name="Group 1767" transform="translate(282.012 227.959)">
      <g id="Group_1766" data-name="Group 1766">
        <path id="Path_5015" data-name="Path 5015" d="M1993.719,1179.7c-.028.053-1.8,1.361-1.8,1.361s.392,2.806,1.985,3.915c1.751,1.219,4.225-1,4.225-1s1.968.468,3.015-3.63c.24-.94-1.146-1.02-2.819-.846C1996.163,1179.715,1993.719,1179.7,1993.719,1179.7Z" transform="translate(-1981.787 -1176.469)" fill="url(#linear-gradient-48)"/>
        <path id="Path_5016" data-name="Path 5016" d="M1945.488,1276.118a7.49,7.49,0,0,1,2.278-1.06c.306-.083,1.958.4,2.979.373,1.4-.032,2.829-.67,3.984-.382a8.344,8.344,0,0,1,2.63,1.046c1.624,1.155,2.577,3.308,3.158,5.441a7.436,7.436,0,0,1-2.484,1.631l-.256,10.367-6.13,3.136-7-3.513.251-10.131a10.588,10.588,0,0,1-2.385-1.411C1942.352,1281.239,1943.528,1277.466,1945.488,1276.118Z" transform="translate(-1936.877 -1263.316)" fill="url(#linear-gradient-49)"/>
        <path id="Path_5017" data-name="Path 5017" d="M1937.318,1347.333s-2.977,8.255,3.813,11.648c1.41-.187.867-2.529.867-2.529s-2.95-.653-2.064-7.539A19.069,19.069,0,0,0,1937.318,1347.333Z" transform="translate(-1931.576 -1329.079)" fill="url(#linear-gradient-50)"/>
        <path id="Path_5018" data-name="Path 5018" d="M2090.916,1347.333s2.049,8.617-3.812,11.648c-1.41-.187-.867-2.529-.867-2.529s2.377-1.171,2.064-7.539A19.069,19.069,0,0,1,2090.916,1347.333Z" transform="translate(-2067.419 -1329.079)" fill="url(#linear-gradient-51)"/>
        <rect id="Rectangle_410" data-name="Rectangle 410" width="13.443" height="9.079" rx="4.539" transform="translate(7.692 21.403)" fill="url(#linear-gradient-52)"/>
        <g id="Group_1764" data-name="Group 1764" transform="translate(20.722 32.9)">
          <path id="Path_5019" data-name="Path 5019" d="M2122.755,1508.881a27.092,27.092,0,0,0-5.094-.163l-.145.392-.239,1.947a40.478,40.478,0,0,0,5.055.609,1.577,1.577,0,0,0,.469-.07c.051-.046.1-.093.148-.144A1.835,1.835,0,0,0,2122.755,1508.881Z" transform="translate(-2116.446 -1508.608)" fill="url(#linear-gradient-53)"/>
          <path id="Path_5020" data-name="Path 5020" d="M2108.354,1508.023l.6.026a1.159,1.159,0,0,1,.845.437,1.425,1.425,0,0,1,.31.976,1.121,1.121,0,0,1-.326.743.911.911,0,0,1-.7.268l-.921-.066Z" transform="translate(-2108.161 -1508.023)" fill="url(#linear-gradient-54)"/>
        </g>
        <g id="Group_1765" data-name="Group 1765" transform="translate(0 32.848)">
          <path id="Path_5021" data-name="Path 5021" d="M1881.47,1507.589a27.106,27.106,0,0,1,5.1-.007l.135.4.191,1.953a40.4,40.4,0,0,1-5.069.454,1.582,1.582,0,0,1-.467-.084c-.05-.047-.1-.1-.144-.149A1.833,1.833,0,0,1,1881.47,1507.589Z" transform="translate(-1880.801 -1507.452)" fill="url(#linear-gradient-55)"/>
          <path id="Path_5022" data-name="Path 5022" d="M1937.411,1508.029l-.6.007a1.152,1.152,0,0,0-.856.411,1.419,1.419,0,0,0-.334.966,1.131,1.131,0,0,0,.307.752.917.917,0,0,0,.7.289l.923-.037Z" transform="translate(-1930.62 -1507.976)" fill="url(#linear-gradient-56)"/>
        </g>
        <path id="Path_5023" data-name="Path 5023" d="M1970.789,1428.921a2.635,2.635,0,0,0-3.856-1.115,96.71,96.71,0,0,1-17.335,6.813,8.821,8.821,0,0,1,.378,2.315q.007.26-.008.513c6.22-.32,12.971-2.394,18.772-4.217A3.206,3.206,0,0,0,1970.789,1428.921Z" transform="translate(-1943.328 -1401.851)" fill="url(#linear-gradient-57)"/>
        <path id="Path_5024" data-name="Path 5024" d="M1913.784,1434.87a5.347,5.347,0,0,1,.523-2.506c.01-.035.023-.069.035-.1-.463-.144-1.062-.338-1.848-.6a88.657,88.657,0,0,1-14.348-6.253,2.626,2.626,0,0,0-4,1.634,3.02,3.02,0,0,0,2.108,3.707c4.643,1.545,2.225,1.116,3.742,1.6a63.454,63.454,0,0,0,13.8,2.719C1913.791,1435,1913.787,1434.935,1913.784,1434.87Z" transform="translate(-1892.825 -1399.665)" fill="url(#linear-gradient-58)"/>
        <path id="Path_5025" data-name="Path 5025" d="M2000.276,1249.3a3.553,3.553,0,0,0,3.627,2.629,3.133,3.133,0,0,0,3.336-2.638l-2-.428-.167-2.23-3.01.223-.056,2.118Z" transform="translate(-1989.387 -1237.555)" fill="url(#linear-gradient-59)"/>
        <path id="Path_5026" data-name="Path 5026" d="M2010.946,1177.32s-3.45,6.682.642,8.3c2.886,1.143,4.7-4.437,4.156-5.949-.835-2.337-1.384-2.06-1.384-2.06Z" transform="translate(-1997.849 -1174.561)" fill="url(#linear-gradient-60)"/>
        <path id="Path_5027" data-name="Path 5027" d="M2000.23,1149.2c1.7.469.248,4.164-2.318,3.29s-3.574-.861-3.973-.157-.486,3.206-1.353,1.97c-.951-1.356-1.481-4.077-.315-4.954,1.042-.784,1.285-2,2.535-1.957,1.659.056,2.942-.68,3.691-.149C1999.357,1147.855,1998.976,1148.859,2000.23,1149.2Z" transform="translate(-1981.504 -1147.052)" fill="url(#linear-gradient-61)"/>
        <path id="Path_5028" data-name="Path 5028" d="M2006.767,1208.26s-.736-.792-.854.163.26,2.183.7,1.509A2.305,2.305,0,0,0,2006.767,1208.26Z" transform="translate(-1994.49 -1202.401)" fill="url(#linear-gradient-62)"/>
      </g>
      <path id="Path_5029" data-name="Path 5029" d="M2030.864,1400.946a.82.82,0,0,1-.668.99.881.881,0,0,1-1-.743.838.838,0,0,1,.631-1.031A.949.949,0,0,1,2030.864,1400.946Z" transform="translate(-2015.657 -1377.085)" fill="url(#linear-gradient-63)"/>
    </g>
  </g>
</svg>
