<svg xmlns="http://www.w3.org/2000/svg" xmlns:xlink="http://www.w3.org/1999/xlink" width="129.771" height="129" viewBox="0 0 129.771 129">
  <defs>
    <linearGradient id="linear-gradient" x1="1.091" y1="1.163" x2="0.386" y2="0.408" gradientUnits="objectBoundingBox">
      <stop offset="0" stop-color="#dae3fe"/>
      <stop offset="1" stop-color="#e9effd"/>
    </linearGradient>
    <linearGradient id="linear-gradient-2" y1="0.5" x2="1" y2="0.5" gradientUnits="objectBoundingBox">
      <stop offset="0" stop-color="#09005d"/>
      <stop offset="1" stop-color="#1a0f91"/>
    </linearGradient>
    <linearGradient id="linear-gradient-3" x1="1.323" y1="0.021" x2="0.034" y2="0.708" gradientUnits="objectBoundingBox">
      <stop offset="0" stop-color="#4f52ff"/>
      <stop offset="1" stop-color="#4042e2"/>
    </linearGradient>
    <linearGradient id="linear-gradient-4" x1="0.571" y1="0.385" x2="-2.067" y2="3.776" xlink:href="#linear-gradient-3"/>
    <linearGradient id="linear-gradient-6" x1="0.168" y1="0.318" x2="2.168" y2="0.866" xlink:href="#linear-gradient-2"/>
    <linearGradient id="linear-gradient-7" x1="1.406" y1="0.512" x2="5.004" y2="0.56" xlink:href="#linear-gradient-2"/>
    <linearGradient id="linear-gradient-8" x1="-9.109" y1="0.5" x2="-8.109" y2="0.5" xlink:href="#linear-gradient-2"/>
    <linearGradient id="linear-gradient-9" x1="-22.236" y1="0.318" x2="-20.236" y2="0.866" xlink:href="#linear-gradient-2"/>
    <linearGradient id="linear-gradient-10" x1="-156.808" y1="0.512" x2="-153.21" y2="0.56" xlink:href="#linear-gradient-2"/>
    <linearGradient id="linear-gradient-11" y1="0.5" x2="1" y2="0.5" gradientUnits="objectBoundingBox">
      <stop offset="0" stop-color="#febbba"/>
      <stop offset="1" stop-color="#ff928e"/>
    </linearGradient>
    <linearGradient id="linear-gradient-13" x1="0.508" y1="1.162" x2="0.501" y2="0.545" xlink:href="#linear-gradient-3"/>
    <linearGradient id="linear-gradient-14" x1="0.539" y1="-0.093" x2="0.506" y2="0.69" xlink:href="#linear-gradient-3"/>
    <linearGradient id="linear-gradient-16" x1="1.872" y1="-1.669" x2="0.597" y2="0.314" xlink:href="#linear-gradient-3"/>
    <linearGradient id="linear-gradient-17" x1="0.953" y1="-0.153" x2="0.074" y2="1.115" xlink:href="#linear-gradient-3"/>
    <linearGradient id="linear-gradient-18" x1="0.411" y1="0.932" x2="0.634" y2="-0.163" gradientUnits="objectBoundingBox">
      <stop offset="0" stop-color="#0f8faf"/>
      <stop offset="1" stop-color="#10b5df"/>
    </linearGradient>
    <linearGradient id="linear-gradient-19" x1="0.864" y1="-0.394" x2="0.318" y2="0.974" xlink:href="#linear-gradient-18"/>
    <linearGradient id="linear-gradient-20" x1="0.516" y1="-9.336" x2="0.508" y2="-4.75" xlink:href="#linear-gradient-18"/>
    <clipPath id="clip-path">
      <path id="Path_4266" data-name="Path 4266" d="M1014.552,1144.254l34.672-28.876a.791.791,0,0,0-.432-1.395c-.243-.025-2.995-32.742-3.248-32.728l-64.521,5.989c-.811.045-2.6,30.806-3.247,31.2a.788.788,0,0,0-.116,1.247l26.122,24.293A8.332,8.332,0,0,0,1014.552,1144.254Z" transform="translate(-977.407 -1081.256)" fill="none"/>
    </clipPath>
    <linearGradient id="linear-gradient-21" x1="0.657" y1="-0.028" x2="0.33" y2="1.17" gradientUnits="objectBoundingBox">
      <stop offset="0" stop-color="#ff928e"/>
      <stop offset="1" stop-color="#fe7062"/>
    </linearGradient>
    <linearGradient id="linear-gradient-22" x1="0.5" y1="-8.27" x2="0.5" y2="-5.631" gradientUnits="objectBoundingBox">
      <stop offset="0" stop-color="#e1473d"/>
      <stop offset="1" stop-color="#e9605a"/>
    </linearGradient>
    <linearGradient id="linear-gradient-23" x1="0.5" y1="-5.74" x2="0.5" y2="-3.237" xlink:href="#linear-gradient-22"/>
    <linearGradient id="linear-gradient-24" x1="0.5" y1="-7.373" x2="0.5" y2="-4.985" xlink:href="#linear-gradient-22"/>
    <linearGradient id="linear-gradient-25" x1="0.5" y1="-6.663" x2="0.5" y2="-3.835" xlink:href="#linear-gradient-22"/>
    <linearGradient id="linear-gradient-26" x1="0.5" y1="-3.087" x2="0.5" y2="-1.862" xlink:href="#linear-gradient-22"/>
    <linearGradient id="linear-gradient-27" x1="0.443" y1="0.025" x2="0.574" y2="1.573" xlink:href="#linear-gradient-18"/>
    <linearGradient id="linear-gradient-28" x1="0.422" y1="-0.02" x2="0.7" y2="1.608" xlink:href="#linear-gradient-18"/>
    <linearGradient id="linear-gradient-29" x1="-11.663" y1="0.5" x2="-10.663" y2="0.5" xlink:href="#linear-gradient-2"/>
    <linearGradient id="linear-gradient-30" x1="-11.14" y1="-42.682" x2="-11.288" y2="-13.23" gradientUnits="objectBoundingBox">
      <stop offset="0" stop-color="#53d8ff"/>
      <stop offset="1" stop-color="#3840f7"/>
    </linearGradient>
    <linearGradient id="linear-gradient-31" x1="-30.227" y1="-0.843" x2="-30.734" y2="2.39" xlink:href="#linear-gradient-11"/>
    <linearGradient id="linear-gradient-32" x1="-7.423" y1="-39.924" x2="-7.524" y2="-11.71" xlink:href="#linear-gradient-30"/>
    <linearGradient id="linear-gradient-33" x1="-8.102" y1="0.5" x2="-7.102" y2="0.5" xlink:href="#linear-gradient-2"/>
    <linearGradient id="linear-gradient-34" x1="-26.311" y1="-1.316" x2="-26.791" y2="1.399" xlink:href="#linear-gradient-11"/>
    <linearGradient id="linear-gradient-35" x1="0.484" y1="0.526" x2="1.93" y2="-0.715" xlink:href="#linear-gradient-2"/>
    <linearGradient id="linear-gradient-36" x1="2.065" y1="-1.35" x2="1.229" y2="-0.408" xlink:href="#linear-gradient-21"/>
    <linearGradient id="linear-gradient-37" x1="0.699" y1="-0.143" x2="-0.009" y2="2.143" xlink:href="#linear-gradient-11"/>
    <linearGradient id="linear-gradient-38" x1="0.447" y1="0.412" x2="-0.055" y2="3.293" xlink:href="#linear-gradient-11"/>
    <linearGradient id="linear-gradient-39" x1="1.987" y1="-0.97" x2="1.326" y2="-0.359" xlink:href="#linear-gradient-21"/>
    <linearGradient id="linear-gradient-40" x1="3.246" y1="-3.101" x2="2.063" y2="-1.609" xlink:href="#linear-gradient-21"/>
    <linearGradient id="linear-gradient-41" x1="0.54" y1="1.217" x2="0.415" y2="-0.22" xlink:href="#linear-gradient-11"/>
    <linearGradient id="linear-gradient-42" x1="2.333" y1="0.199" x2="5.139" y2="-0.265" xlink:href="#linear-gradient-11"/>
    <linearGradient id="linear-gradient-43" x1="-35.108" y1="-22.139" x2="-34.019" y2="-22.139" xlink:href="#linear-gradient-2"/>
    <linearGradient id="linear-gradient-44" x1="-50.362" y1="15.247" x2="-57.266" y2="18.44" xlink:href="#linear-gradient-11"/>
    <linearGradient id="linear-gradient-45" x1="-28.123" y1="9.144" x2="-25.101" y2="10.916" xlink:href="#linear-gradient-11"/>
    <linearGradient id="linear-gradient-46" x1="-13.935" y1="8.991" x2="-12.29" y2="10.951" xlink:href="#linear-gradient-11"/>
    <linearGradient id="linear-gradient-47" x1="0.244" y1="0.957" x2="0.656" y2="0.003" xlink:href="#linear-gradient-21"/>
  </defs>
  <g id="Group_1583" data-name="Group 1583" transform="translate(-446.635 -455)">
    <path id="Path_4225" data-name="Path 4225" d="M571.036,564.668a49.113,49.113,0,0,1-8.628,7c-22.346,14.9-47.891,10.607-55.788,9.139-12.742-2.369-23.5-4.04-32.739-12.378-21-18.948-19.978-58.476-3.932-82.961,1.9-2.9,17.924-26.623,43.524-29.965.626-.082,1.093-.128,1.5-.172,3.96-.419,28.5-2.629,48.511,14.115a59.645,59.645,0,0,1,11.749,13.314C590.864,506.864,590.914,544.2,571.036,564.668Z" transform="translate(-10.842 0)" fill="url(#linear-gradient)"/>
    <g id="Group_1436" data-name="Group 1436" transform="translate(541.726 457.07)">
      <path id="Path_4226" data-name="Path 4226" d="M2510.679,583.412s-1.5-50.124,11.6-81.847a2.3,2.3,0,0,1,4.368-.105C2533.387,515.442,2550.084,559.027,2510.679,583.412Z" transform="translate(-2510.627 -499.928)" fill="#bdd0fb"/>
      <path id="Path_4227" data-name="Path 4227" d="M2579.84,907.445c-.069.142.1.281.179.152,3.092-4.772,14.208-26.938,11.944-63.44-.007-.117-.151-.118-.152,0C2591.735,852.807,2590.7,884.94,2579.84,907.445Z" transform="translate(-2576.636 -828.214)" fill="#fff" opacity="0.5"/>
    </g>
    <g id="Group_1437" data-name="Group 1437" transform="translate(552.552 483.378)">
      <path id="Path_4228" data-name="Path 4228" d="M2747,1143.533s-3.694-8.541.907-21c4.268-11.562,15.284-38.833,15.105-51.059a.5.5,0,0,1,.953-.224,61.372,61.372,0,0,1,4.52,36.258C2764.476,1129.87,2747,1143.533,2747,1143.533Z" transform="translate(-2745.594 -1070.959)" fill="#91b3fa"/>
      <path id="Path_4229" data-name="Path 4229" d="M2825.471,1317.857a21.332,21.332,0,0,1,.767,3.775c.02.159.044.319.062.479l.044.48.087.961.047.964c.013.322.039.643.032.965a45.649,45.649,0,0,1-.557,7.7c-.076.641-.22,1.27-.338,1.9s-.23,1.269-.4,1.891l-.462,1.878c-.07.314-.174.62-.265.929l-.28.925-.281.925-.141.462-.163.455-.651,1.82c-.11.3-.212.609-.331.908l-.355.9-.71,1.791c-.967,2.379-1.952,4.752-2.994,7.1-.512,1.177-1.043,2.346-1.569,3.518l-1.611,3.5c-1.077,2.329-2.157,4.655-3.159,7.01-.259.586-.488,1.183-.727,1.776-.124.3-.227.6-.336.9s-.222.6-.322.9c-.188.61-.4,1.215-.542,1.836-.179.615-.278,1.244-.4,1.872v0a.078.078,0,0,1-.154-.024,22.729,22.729,0,0,1,.832-3.773c.093-.308.2-.611.3-.917s.2-.613.316-.913c.225-.6.441-1.209.685-1.8.953-2.389,2.013-4.728,3.052-7.074l1.559-3.517c.516-1.173,1.04-2.344,1.543-3.522q1.529-3.528,2.967-7.093l.707-1.787.353-.894c.119-.3.222-.6.332-.9l.656-1.8.163-.45.143-.457.283-.915a56.609,56.609,0,0,0,1.814-7.436,45.148,45.148,0,0,0,.727-7.621c.014-.32,0-.639,0-.959l-.013-.959-.052-.958-.026-.479c-.012-.16-.03-.318-.045-.478-.033-.318-.056-.638-.1-.955l-.13-.951a18.651,18.651,0,0,0-.38-1.882.01.01,0,0,1,.006-.012A.01.01,0,0,1,2825.471,1317.857Z" transform="translate(-2806.81 -1306.475)" fill="#fff" opacity="0.45"/>
    </g>
    <g id="Group_1439" data-name="Group 1439" transform="translate(500.225 455)">
      <path id="Path_4230" data-name="Path 4230" d="M2363.356,923.78s7.175,3.424,9.826,6.05l-10.293-.457Z" transform="translate(-2328.194 -902.183)" fill="url(#linear-gradient-2)"/>
      <path id="Path_4231" data-name="Path 4231" d="M1979.771,983.329s5.307,1.413,6.724,1.856c1.826.571,4.338,14.726,4.566,20.433s-.816,25.913-.816,25.913l-28.293-.037-.457-43,10.616-5.251Z" transform="translate(-1945.293 -958.908)" fill="#91b3fa"/>
      <path id="Path_4232" data-name="Path 4232" d="M2194.817,1144.3l4.884,29.3a2.564,2.564,0,0,1-.248,1.591l-3.579,6.988a.92.92,0,0,1-1.641-.008l-3.552-7.1a2.558,2.558,0,0,1-.264-1.333l2.117-29.091Z" transform="translate(-2163.662 -1112.541)" fill="url(#linear-gradient-3)"/>
      <path id="Path_4233" data-name="Path 4233" d="M2212.673,1054.611l-.18,1.678a1.316,1.316,0,0,0,.136.735l.574,1.118a1.306,1.306,0,0,0,1.091.709c.276.015.6.027.9.026a1.307,1.307,0,0,0,1.224-.86l.369-1.014a1.3,1.3,0,0,0,.061-.669l-.319-1.848a1.306,1.306,0,0,0-1.33-1.084l-1.266.041A1.308,1.308,0,0,0,2212.673,1054.611Z" transform="translate(-2184.72 -1025.834)" fill="url(#linear-gradient-4)"/>
      <path id="Path_4234" data-name="Path 4234" d="M2260.735,992.32l2.5,6.929a.886.886,0,0,0,1.634.078l2.97-6.291-1.677-3.6Z" transform="translate(-2230.747 -964.817)" fill="#bdd0fb"/>
      <path id="Path_4235" data-name="Path 4235" d="M2118.62,988.2l5.136,3.425-1.8,6.058a.886.886,0,0,1-1.667.087l-2.7-6.488Z" transform="translate(-2094.199 -963.636)" fill="#bdd0fb"/>
      <path id="Path_4236" data-name="Path 4236" d="M1631.972,1012.978l-16.257,7.05a9.766,9.766,0,0,0-5.874,9.316l1.127,30.514h28.7l-1.762-36.72Z" transform="translate(-1609.834 -987.271)" fill="url(#linear-gradient-2)"/>
      <path id="Path_4237" data-name="Path 4237" d="M2019.162,953.512a12,12,0,0,0-7.33,3.738.7.7,0,0,0-.094.795c1.043,1.984,5.423,10.439,6.464,14.569a.922.922,0,0,1-.515,1.067l-.995.449a2.255,2.255,0,0,0-1.208,2.777c1.876,5.546,7.128,21.419,7.477,26.225l-1.182-37.571s-3.416-7.026-3.872-7.939S2019.162,953.512,2019.162,953.512Z" transform="translate(-1993.143 -930.545)" fill="url(#linear-gradient-6)"/>
      <path id="Path_4238" data-name="Path 4238" d="M1854,1505.369a.221.221,0,0,1-.228-.2l-1.3-24.917a.218.218,0,0,1,.217-.22.223.223,0,0,1,.239.2l1.3,24.916a.218.218,0,0,1-.217.221Z" transform="translate(-1841.295 -1432.806)" fill="url(#linear-gradient-7)"/>
      <path id="Path_4239" data-name="Path 4239" d="M2326.7,1012.978l16.257,7.05a9.768,9.768,0,0,1,5.874,9.316l-1.127,30.514H2319l1.762-36.72Z" transform="translate(-2286.324 -987.271)" fill="url(#linear-gradient-8)"/>
      <path id="Path_4240" data-name="Path 4240" d="M2323.188,953.512a12,12,0,0,1,7.33,3.738.7.7,0,0,1,.095.795c-1.044,1.984-5.423,10.439-6.464,14.569a.924.924,0,0,0,.515,1.067l1,.449a2.255,2.255,0,0,1,1.208,2.777c-1.876,5.546-7.129,21.419-7.477,26.225l1.181-37.571s3.416-7.026,3.873-7.939S2323.188,953.512,2323.188,953.512Z" transform="translate(-2286.698 -930.545)" fill="url(#linear-gradient-9)"/>
      <path id="Path_4241" data-name="Path 4241" d="M2686.109,1505.369a.221.221,0,0,0,.228-.2l1.3-24.917a.218.218,0,0,0-.217-.22.223.223,0,0,0-.239.2l-1.3,24.916a.219.219,0,0,0,.217.221Z" transform="translate(-2636.306 -1432.806)" fill="url(#linear-gradient-10)"/>
      <path id="Path_4242" data-name="Path 4242" d="M2085.381,740.689s.229,13.242,7.991,13.356,7.648-16.1,7.648-16.1Z" transform="translate(-2063.472 -724.913)" fill="url(#linear-gradient-11)"/>
      <path id="Path_4243" data-name="Path 4243" d="M2057.845,815.855l16.924-.705a.356.356,0,0,1,.361.443l-.2.788a.356.356,0,0,1-.3.267l-.749.094-.448,2.091a1.745,1.745,0,0,1-1.706,1.379h-2.462a1.744,1.744,0,0,1-1.633-1.132l-.524-1.4a.689.689,0,0,0-.644-.446h0a.686.686,0,0,0-.658.495l-.357,1.224a1.745,1.745,0,0,1-1.675,1.256h-2.341a1.744,1.744,0,0,1-1.675-1.256l-.5-1.718h-1.215a.357.357,0,0,1-.344-.263l-.183-.669A.356.356,0,0,1,2057.845,815.855Z" transform="translate(-2036.879 -798.556)" fill="url(#linear-gradient-2)"/>
      <path id="Path_4244" data-name="Path 4244" d="M1923.481,710.665l-7.322-2.335-8.79-.11v0l-.171,0-.171,0v0l-8.79.11-7.322,2.335a.575.575,0,0,0-.371.729.564.564,0,0,0,.16.245c.656.582,4.564,2.97,16.494,2.864,12.5.106,15.837-2.281,16.494-2.864a.563.563,0,0,0,.16-.245A.575.575,0,0,0,1923.481,710.665Z" transform="translate(-1877.584 -696.55)" fill="url(#linear-gradient-13)"/>
      <path id="Path_4245" data-name="Path 4245" d="M2049.332,466.7a36.292,36.292,0,0,1,3.564-10.569,1.651,1.651,0,0,1,2.316-.582l1.911,1.207a1.648,1.648,0,0,0,1.968-.155l1.361-1.2a1.647,1.647,0,0,1,2.511.407c1.437,2.471,3.972,7.176,4.908,11.1a1.211,1.211,0,0,1-.857,1.455,33.631,33.631,0,0,1-16.79-.271A1.212,1.212,0,0,1,2049.332,466.7Z" transform="translate(-2029.064 -455)" fill="url(#linear-gradient-14)"/>
      <g id="Group_1438" data-name="Group 1438" transform="translate(20.247 9.553)">
        <path id="Path_4246" data-name="Path 4246" d="M2067.223,662.534c-9.4,2.477-15.527.586-17.436-.18-.2.855-.352,1.595-.455,2.152a1.212,1.212,0,0,0,.892,1.394,33.628,33.628,0,0,0,16.79.271,1.211,1.211,0,0,0,.857-1.455A22.751,22.751,0,0,0,2067.223,662.534Z" transform="translate(-2049.312 -662.354)" fill="url(#linear-gradient-2)"/>
      </g>
    </g>
    <g id="Group_1440" data-name="Group 1440" transform="translate(519.494 469.1)">
      <path id="Path_4247" data-name="Path 4247" d="M2049.018,1354.8l-20.272,16.705a1.89,1.89,0,0,0-.159,2.77l.126.13a1.757,1.757,0,0,0,2.492.038l18.9-18.449Z" transform="translate(-2028.057 -1327.443)" fill="url(#linear-gradient-16)"/>
      <ellipse id="Ellipse_108" data-name="Ellipse 108" cx="14.38" cy="14.121" rx="14.38" ry="14.121" transform="translate(13.93 9.597) rotate(-19.492)" fill="#fff" opacity="0.19"/>
      <path id="Path_4248" data-name="Path 4248" d="M2390.948,813.226a15.715,15.715,0,1,0,20.327,9.473A15.859,15.859,0,0,0,2390.948,813.226Zm9.715,27.448a13.407,13.407,0,1,1,8.4-17.191A13.529,13.529,0,0,1,2400.663,840.674Z" transform="translate(-2363.993 -809.929)" fill="url(#linear-gradient-17)"/>
      <path id="Path_4249" data-name="Path 4249" d="M2404.758,856.329a.041.041,0,0,1-.037-.023c-.167-.333-.325-.678-.467-1.024a.041.041,0,1,1,.076-.031c.141.344.3.687.464,1.018a.04.04,0,0,1-.018.055A.039.039,0,0,1,2404.758,856.329Zm-1.363-4.178a.041.041,0,0,1-.04-.034,14.381,14.381,0,0,1-.171-3.059,14.714,14.714,0,0,1,2.9-8.028,15.181,15.181,0,0,1,15.436-5.756.041.041,0,1,1-.018.08,15.1,15.1,0,0,0-15.352,5.725,14.637,14.637,0,0,0-2.879,7.983,14.413,14.413,0,0,0,.17,3.042.04.04,0,0,1-.033.047Z" transform="translate(-2385.884 -831.512)" fill="#fff"/>
      <path id="Path_4250" data-name="Path 4250" d="M2042.191,1686.289a1.437,1.437,0,0,1-1.5-.809,1.412,1.412,0,0,1,.415-1.59l2.409-2.078a.035.035,0,0,1,.049,0,.035.035,0,0,1,0,.049l-2.408,2.078a1.342,1.342,0,0,0-.4,1.511,1.382,1.382,0,0,0,1.461.765h0a.035.035,0,0,1,.035.034.035.035,0,0,1-.035.035Z" transform="translate(-2040.016 -1639.383)" fill="#fff"/>
      <path id="Path_4251" data-name="Path 4251" d="M2119.846,1662.394a.034.034,0,0,1-.026-.012.035.035,0,0,1,0-.049l.313-.269a.034.034,0,1,1,.044.052l-.312.27A.035.035,0,0,1,2119.846,1662.394Z" transform="translate(-2115.584 -1620.544)" fill="#fff"/>
    </g>
    <g id="Group_1443" data-name="Group 1443" transform="translate(446.952 504.125)">
      <g id="Group_1442" data-name="Group 1442" transform="translate(5.768 0)">
        <path id="Path_4252" data-name="Path 4252" d="M693.49,1590.291a2.036,2.036,0,0,1-2.031,2.029h-109.8a2.036,2.036,0,0,1-2.031-2.029l-.914-63.1a3.536,3.536,0,0,1,3.724-3.13l107.312-2.776a5.117,5.117,0,0,1,5.251,5.233Z" transform="translate(-578.711 -1521.282)" fill="url(#linear-gradient-18)"/>
        <path id="Path_4253" data-name="Path 4253" d="M749.646,1638.167a1.927,1.927,0,0,1-1.921,1.921H642.464a1.926,1.926,0,0,1-1.921-1.921l-.862-57.284a4.728,4.728,0,0,1,4.956-4.613l102.849-2.759a3.6,3.6,0,0,1,3.689,3.68Z" transform="translate(-636.872 -1571.103)" fill="url(#linear-gradient-19)"/>
        <g id="Group_1441" data-name="Group 1441" transform="translate(4.224 5.504)">
          <path id="Path_4254" data-name="Path 4254" d="M670.815,1663.58a.156.156,0,0,1-.156-.154l-.261-17.793a3.766,3.766,0,0,1,1.088-2.824,5.177,5.177,0,0,1,3.431-1.184l32.844-.882h0a.156.156,0,0,1,0,.312l-32.853.881a4.858,4.858,0,0,0-3.214,1.1,3.467,3.467,0,0,0-.992,2.6l.261,17.79a.156.156,0,0,1-.154.158Z" transform="translate(-670.398 -1640.744)" fill="#91b3fa"/>
        </g>
        <path id="Path_4255" data-name="Path 4255" d="M754.664,1724.108c.11-4.734.069-46.66-.2-50.281s5.368-4.3,14.026-4.708,81.71-2.021,83.59-2.173c4.228-.343,5.1,5.977,4.68,19.7-.318,10.307-.844,27.285-1.087,35.094a4.308,4.308,0,0,1-4.3,4.176c-17.579.049-84.955.242-89.44.375C756.77,1726.44,754.62,1725.986,754.664,1724.108Z" transform="translate(-746.355 -1660.222)" fill="#91b3fa" opacity="0.24"/>
      </g>
      <rect id="Rectangle_187" data-name="Rectangle 187" width="129.454" height="5.544" rx="2.772" transform="translate(0 68.715)" fill="url(#linear-gradient-20)"/>
    </g>
    <g id="Group_1451" data-name="Group 1451" transform="translate(469.151 483.852)">
      <g id="Group_1444" data-name="Group 1444" transform="translate(1.297 8.133)">
        <path id="Path_4256" data-name="Path 4256" d="M999.426,1259.516l-35.92,28.188a4.986,4.986,0,0,0,2.322.442l68.066-3.355a4.9,4.9,0,0,0,3.022-1.22l-26.721-23.763A8.674,8.674,0,0,0,999.426,1259.516Z" transform="translate(-963.506 -1257.785)" fill="#7d97f4"/>
      </g>
      <path id="Path_4257" data-name="Path 4257" d="M1005.673,1847.143H940.148a4.79,4.79,0,0,1-4.79-4.79v-42.667a4.791,4.791,0,0,1,4.523-4.783l68.053-3.793a4.79,4.79,0,0,1,5.049,5.043l-2.528,46.46A4.79,4.79,0,0,1,1005.673,1847.143Z" transform="translate(-935.358 -1758.399)" fill="#72c9df"/>
      <g id="Group_1445" data-name="Group 1445" transform="translate(1.506 32.704)">
        <path id="Path_4258" data-name="Path 4258" d="M1005.627,1821.4l35.818-29.83a4.761,4.761,0,0,0-2.324-.457l-68.053,3.793a4.775,4.775,0,0,0-3.017,1.3l26.807,24.93A8.332,8.332,0,0,0,1005.627,1821.4Z" transform="translate(-968.051 -1791.104)" fill="#7d97f4"/>
      </g>
      <g id="Group_1450" data-name="Group 1450" transform="translate(1.937)">
        <g id="Group_1449" data-name="Group 1449" clip-path="url(#clip-path)">
          <g id="Group_1448" data-name="Group 1448" transform="translate(9.528 6.949)">
            <path id="Path_4259" data-name="Path 4259" d="M1235.894,1297.53h-51.681v-58.715a4.24,4.24,0,0,1,4-4.233l43.2-2.49a4.24,4.24,0,0,1,4.484,4.233Z" transform="translate(-1184.213 -1232.085)" fill="url(#linear-gradient-21)"/>
            <path id="Path_4260" data-name="Path 4260" d="M1270.742,1390.268H1222.6v-54.7a3.949,3.949,0,0,1,3.722-3.943l40.244-2.319a3.95,3.95,0,0,1,4.177,3.944Z" transform="translate(-1220.83 -1324.823)" fill="#fff" opacity="0.67"/>
            <g id="Group_1447" data-name="Group 1447" transform="translate(8.833 13.316)">
              <g id="Group_1446" data-name="Group 1446">
                <path id="Path_4261" data-name="Path 4261" d="M1906.048,1947.656a2.36,2.36,0,0,0-3.139.481h0a.7.7,0,0,1-.973.093l-2.329-1.879a2.262,2.262,0,0,1-1.711,2.208l2.235,1.785a.738.738,0,0,1,.116,1.046h0a2.309,2.309,0,0,0,.365,3.281h0a2.366,2.366,0,0,0,3.3-.361h0a2.3,2.3,0,0,1,2.656-3.286h0A2.316,2.316,0,0,0,1906.048,1947.656Z" transform="translate(-1873.849 -1926.759)" fill="url(#linear-gradient-22)"/>
                <path id="Path_4262" data-name="Path 4262" d="M1379.6,1528.923a2.733,2.733,0,0,0,3.529-.414h0a.788.788,0,0,1,1.074-.068l2.478,1.979a8.031,8.031,0,0,1,1.621-2.4l-2.134-1.721a.761.761,0,0,1-.129-1.1h0a2.4,2.4,0,0,0-.4-3.453,2.665,2.665,0,0,0-3.645.179h0a2.31,2.31,0,0,0-.275,2.658,2.633,2.633,0,0,0-2.724.71h0A2.414,2.414,0,0,0,1379.6,1528.923Z" transform="translate(-1378.3 -1521.11)" fill="url(#linear-gradient-23)"/>
                <path id="Path_4263" data-name="Path 4263" d="M1386.271,1925.916a2.3,2.3,0,0,1-1.115-2.56,1.919,1.919,0,0,0,.048-.319l-3.457,2.477a.8.8,0,0,1-1.071-.144l-.038-.046a2.746,2.746,0,0,0-3.67-.5h0a2.346,2.346,0,0,0-.469,3.453h0a2.743,2.743,0,0,0,2.706.9,2.328,2.328,0,0,0,.232,2.665h0a2.7,2.7,0,0,0,3.631.44h0a2.345,2.345,0,0,0,.459-3.407h0a.744.744,0,0,1,.146-1.083Z" transform="translate(-1375.944 -1904.52)" fill="url(#linear-gradient-24)"/>
                <path id="Path_4264" data-name="Path 4264" d="M1914.692,1558.845a7.839,7.839,0,0,1,1.627,2.359l1.76-1.274a.706.706,0,0,1,.971.164h0a2.41,2.41,0,0,0,3.232.644,2.284,2.284,0,0,0,.49-3.273h0a2.418,2.418,0,0,0-2.389-.948,2.344,2.344,0,0,0-.2-2.54,2.411,2.411,0,0,0-3.3-.6h0a2.287,2.287,0,0,0-.431,3.266h0a.731.731,0,0,1-.137,1.042Z" transform="translate(-1889.871 -1551.495)" fill="url(#linear-gradient-25)"/>
              </g>
              <path id="Path_4265" data-name="Path 4265" d="M1584.545,1637.8a9.019,9.019,0,0,0-9.672-.095,7.049,7.049,0,0,0-2.525,9.479,4.044,4.044,0,0,1,.609,2.979,1.073,1.073,0,0,0,.811,1.336,9.345,9.345,0,0,0,1.784.327c1.038.1,1.319.421,1.13,1.385a3.7,3.7,0,0,1-.1.373c-.191.628.049,1.018.682,1.261a7.708,7.708,0,0,0,5,.22c1.434-.41,1.588-.689,1.179-1.864a.924.924,0,0,1-.029-.189c-.086-.733.141-1.021.888-1.1.45-.049.91-.045,1.351-.127,1.117-.208,1.442-.662,1.281-1.766a2.633,2.633,0,0,1,.232-1.95c.79-1.2.991-2.554,1.021-4.659C1588.289,1641.319,1586.985,1639.237,1584.545,1637.8Zm-6.743,11.232a13.584,13.584,0,0,1-1.609.376c-1-.063-1.644-.449-1.816-1.147a1.712,1.712,0,0,1,1.015-2.089,5.84,5.84,0,0,1,1.618-.345,1.537,1.537,0,0,1,1.844,1.143A1.56,1.56,0,0,1,1577.8,1649.034Zm2.974,3.018-1.288-.009a.717.717,0,0,1-.669-1.008l.772-1.618a.583.583,0,0,1,1.042.013l.791,1.628A.694.694,0,0,1,1580.776,1652.052Zm4.813-3.6c-.167.668-.785,1.021-1.987.98a9.409,9.409,0,0,1-1.216-.3,1.65,1.65,0,0,1-1.155-2.147,1.12,1.12,0,0,1,1.1-.994,7.463,7.463,0,0,1,2.223.353A1.723,1.723,0,0,1,1585.59,1648.452Z" transform="translate(-1562.452 -1631.039)" fill="url(#linear-gradient-26)"/>
            </g>
          </g>
        </g>
      </g>
    </g>
    <g id="Group_1460" data-name="Group 1460" transform="translate(451.597 459.658)">
      <g id="Group_1456" data-name="Group 1456" transform="translate(0 4.26)" opacity="0.88">
        <g id="Group_1452" data-name="Group 1452">
          <path id="Path_4267" data-name="Path 4267" d="M559.362,1142.9a.157.157,0,0,1-.154-.128c-.038-.206-.072-.413-.1-.62a.156.156,0,1,1,.309-.047q.046.307.1.611a.156.156,0,0,1-.125.182Z" transform="translate(-558.883 -1119.238)" fill="#10b5df"/>
          <path id="Path_4268" data-name="Path 4268" d="M554.506,669.612a.156.156,0,0,1-.156-.149c-.015-.312-.022-.628-.022-.941,0-.1,0-.2,0-.306a.156.156,0,0,1,.312,0q0,.151,0,.3c0,.307.007.619.022.926a.156.156,0,0,1-.148.163Zm.113-3.241H554.6a.156.156,0,0,1-.137-.173c.044-.376.1-.755.165-1.128l.019-.1a.156.156,0,1,1,.307.056l-.018.1c-.064.367-.119.741-.162,1.111A.156.156,0,0,1,554.619,666.371Zm.637-3.18a.16.16,0,0,1-.043-.006.156.156,0,0,1-.107-.193c.114-.4.242-.8.38-1.187a.156.156,0,1,1,.294.1c-.136.383-.262.776-.374,1.168A.156.156,0,0,1,555.256,663.191Zm1.145-3.034a.153.153,0,0,1-.067-.015.156.156,0,0,1-.074-.208c.177-.374.37-.747.571-1.11a.156.156,0,0,1,.273.151c-.2.357-.387.725-.562,1.092A.156.156,0,0,1,556.4,660.157Zm1.63-2.806a.156.156,0,0,1-.128-.245c.237-.34.488-.676.745-1a.156.156,0,0,1,.245.194c-.253.319-.5.65-.734.984A.156.156,0,0,1,558.03,657.352Zm2.068-2.5a.156.156,0,0,1-.112-.265c.289-.3.592-.588.9-.865a.156.156,0,0,1,.209.232c-.3.273-.6.559-.884.851A.155.155,0,0,1,560.1,654.852Zm2.447-2.128a.156.156,0,0,1-.093-.282c.334-.245.679-.483,1.027-.707a.156.156,0,1,1,.169.262c-.342.22-.682.454-1.01.7A.155.155,0,0,1,562.546,652.724Zm22.514-.648a.154.154,0,0,1-.085-.025c-.341-.222-.694-.437-1.049-.637a.156.156,0,1,1,.153-.272c.36.2.719.421,1.066.647a.156.156,0,0,1-.085.287Zm-19.754-1.054a.156.156,0,0,1-.071-.3c.368-.187.747-.366,1.127-.53a.156.156,0,0,1,.124.286c-.375.162-.748.338-1.11.522A.155.155,0,0,1,565.306,651.022Zm16.9-.486a.152.152,0,0,1-.062-.013c-.373-.163-.756-.317-1.139-.456a.156.156,0,1,1,.107-.293c.389.142.779.3,1.157.463a.156.156,0,0,1-.062.3Zm-13.9-.743a.156.156,0,0,1-.047-.305c.4-.125.8-.239,1.2-.339a.156.156,0,1,1,.075.3c-.394.1-.791.21-1.18.333A.161.161,0,0,1,568.306,649.793Zm10.831-.308a.155.155,0,0,1-.038,0c-.394-.1-.8-.189-1.2-.264a.156.156,0,0,1,.058-.307c.407.077.817.167,1.217.268a.156.156,0,0,1-.038.307Zm-7.671-.414a.156.156,0,0,1-.022-.31c.41-.059.826-.1,1.239-.137a.156.156,0,1,1,.025.311c-.406.032-.816.077-1.219.135Zm4.472-.124h-.013c-.407-.035-.819-.057-1.225-.067a.156.156,0,0,1,0-.312h0c.413.01.831.032,1.244.068a.156.156,0,0,1-.013.312Z" transform="translate(-554.328 -648.567)" fill="#10b5df"/>
          <path id="Path_4269" data-name="Path 4269" d="M1254.062,744.439a.156.156,0,0,1-.1-.038q-.234-.2-.475-.4a.156.156,0,0,1,.2-.243q.245.2.483.4a.156.156,0,0,1-.1.274Z" transform="translate(-1221.218 -739.343)" fill="#10b5df"/>
        </g>
        <g id="Group_1453" data-name="Group 1453" transform="translate(6.197 17.863)">
          <path id="Path_4270" data-name="Path 4270" d="M1411.316,1037.229a.156.156,0,0,1-.156-.146q-.02-.309-.05-.617a.156.156,0,1,1,.31-.031q.031.312.051.627a.156.156,0,0,1-.146.166Z" transform="translate(-1377.833 -1036.295)" fill="#10b5df"/>
          <path id="Path_4271" data-name="Path 4271" d="M744.65,1112.107a.156.156,0,0,1,0-.312c.4-.008.806-.029,1.206-.062a.153.153,0,0,1,.168.142.156.156,0,0,1-.143.169c-.405.033-.818.054-1.225.062Zm-1.976-.059h-.013c-.4-.032-.815-.078-1.219-.135a.156.156,0,1,1,.044-.309c.4.056.8.1,1.2.133a.156.156,0,0,1-.012.312Zm5.151-.263a.156.156,0,0,1-.028-.309c.394-.073.79-.16,1.178-.256a.156.156,0,0,1,.076.3c-.394.1-.8.186-1.2.26Zm-8.3-.244a.171.171,0,0,1-.037,0c-.4-.1-.793-.207-1.182-.327a.156.156,0,0,1,.092-.3c.383.119.775.227,1.164.322a.156.156,0,0,1-.037.308Zm11.38-.588a.156.156,0,0,1-.053-.3c.377-.135.754-.284,1.122-.443a.156.156,0,1,1,.123.287c-.374.161-.758.313-1.14.45A.148.148,0,0,1,750.9,1110.953Zm-14.41-.416a.156.156,0,0,1-.061-.012c-.375-.159-.749-.332-1.114-.514a.156.156,0,0,1,.139-.279c.359.179.728.349,1.1.505a.156.156,0,0,1-.061.3Zm17.316-.9a.156.156,0,0,1-.076-.292c.35-.194.7-.4,1.037-.617a.156.156,0,1,1,.168.263c-.344.219-.7.43-1.054.627A.155.155,0,0,1,753.809,1109.635Zm-20.143-.579a.154.154,0,0,1-.083-.024c-.344-.218-.686-.449-1.016-.687a.156.156,0,1,1,.183-.253c.325.235.661.462,1,.677a.156.156,0,0,1-.084.288Zm22.8-1.186a.156.156,0,0,1-.1-.279c.315-.247.626-.508.926-.775a.156.156,0,1,1,.207.233c-.3.271-.621.536-.94.787A.154.154,0,0,1,756.467,1107.87Zm2.342-2.169a.156.156,0,0,1-.115-.262c.271-.3.537-.6.79-.914a.156.156,0,1,1,.242.2c-.257.316-.527.629-.8.929A.155.155,0,0,1,758.808,1105.7Zm1.963-2.517a.152.152,0,0,1-.085-.026.156.156,0,0,1-.045-.216c.22-.335.433-.682.632-1.03a.156.156,0,1,1,.271.155c-.2.354-.418.706-.642,1.047A.156.156,0,0,1,760.771,1103.184Zm1.531-2.8a.157.157,0,0,1-.143-.22c.162-.364.316-.74.456-1.117a.156.156,0,0,1,.293.109c-.143.383-.3.765-.464,1.136A.157.157,0,0,1,762.3,1100.382Zm1.056-3.011a.158.158,0,0,1-.04-.005.156.156,0,0,1-.111-.191c.1-.386.192-.782.27-1.176a.156.156,0,0,1,.306.061c-.079.4-.172.8-.275,1.195A.156.156,0,0,1,763.358,1097.37Zm.561-3.142H763.9a.156.156,0,0,1-.14-.17c.039-.4.066-.805.081-1.2a.156.156,0,0,1,.312.011c-.015.406-.042.817-.082,1.224A.156.156,0,0,1,763.919,1094.229Z" transform="translate(-730.49 -1090.104)" fill="#10b5df"/>
          <path id="Path_4272" data-name="Path 4272" d="M689.451,1390.644a.156.156,0,0,1-.1-.04q-.235-.209-.463-.425a.156.156,0,1,1,.215-.227q.225.212.456.418a.156.156,0,0,1-.1.273Z" transform="translate(-688.835 -1373.619)" fill="#10b5df"/>
        </g>
        <g id="Group_1455" data-name="Group 1455" transform="translate(4.712 4.523)">
          <path id="Path_4273" data-name="Path 4273" d="M660.079,771.794a.238.238,0,0,0,.257.1l2.8-.711a12.586,12.586,0,0,0,3.37,2.3l.366,2.864a.237.237,0,0,0,.187.2l3.393.705a.237.237,0,0,0,.252-.111l1.477-2.481a12.589,12.589,0,0,0,4.006-.763l2.286,1.768a.237.237,0,0,0,.275.011l2.9-1.9a.238.238,0,0,0,.1-.257l-.711-2.8a12.583,12.583,0,0,0,2.3-3.37l2.864-.366a.238.238,0,0,0,.2-.187l.705-3.393a.237.237,0,0,0-.111-.252l-2.481-1.477a12.587,12.587,0,0,0-.763-4.006l1.767-2.286a.237.237,0,0,0,.011-.275l-1.9-2.9a.237.237,0,0,0-.257-.1l-2.8.71a12.587,12.587,0,0,0-3.37-2.3l-.366-2.864a.237.237,0,0,0-.187-.2l-3.393-.705a.237.237,0,0,0-.252.111l-1.477,2.481a12.581,12.581,0,0,0-4.006.763l-2.286-1.767a.237.237,0,0,0-.275-.011l-2.9,1.9a.238.238,0,0,0-.1.257l.71,2.8a12.583,12.583,0,0,0-2.3,3.37l-2.864.366a.237.237,0,0,0-.2.187L656.6,760.6a.237.237,0,0,0,.111.252l2.481,1.477a12.593,12.593,0,0,0,.763,4.006l-1.767,2.286a.238.238,0,0,0-.011.275Z" transform="translate(-656.597 -746.743)" fill="#10b5df"/>
          <g id="Group_1454" data-name="Group 1454" transform="translate(11.944 11.944)">
            <path id="Path_4274" data-name="Path 4274" d="M919.164,1012.622a3.309,3.309,0,1,1,.144,0Zm.134-.237h0Zm-.129-5.918-.122,0a2.843,2.843,0,1,0,.241,5.681h0a2.843,2.843,0,0,0-.119-5.684Z" transform="translate(-915.856 -1005.999)" fill="#bdd0fb"/>
          </g>
          <path id="Path_4275" data-name="Path 4275" d="M811,907.439a8.682,8.682,0,0,1-1.767-.182q-.312-.065-.619-.153a8.7,8.7,0,0,1-.842-.288l-.019-.008q-.132-.053-.262-.111a.234.234,0,0,1-.139-.214.231.231,0,0,1,.02-.095.234.234,0,0,1,.309-.119,8.183,8.183,0,0,0,1.648.529q.3.062.6.1a8.057,8.057,0,0,0,3.4-.273l.025-.008h0a8.148,8.148,0,0,0,1.861-.839l.006,0,.041-.025.055-.035.042-.027.083-.053a8.075,8.075,0,0,0,3.5-5.143,8.185,8.185,0,0,0,.173-1.671,8.13,8.13,0,0,0-16.089-1.636,8.12,8.12,0,0,0,.279,4.321.234.234,0,1,1-.442.154,8.6,8.6,0,1,1,16.721-2.839,8.679,8.679,0,0,1-.183,1.767,8.6,8.6,0,0,1-8.4,6.85Z" transform="translate(-795.668 -883.629)" fill="#bdd0fb"/>
        </g>
      </g>
      <path id="Path_4276" data-name="Path 4276" d="M1288.755,613.616l1.533-.521a7.057,7.057,0,0,0,1.984,1.132l.332,1.583a.133.133,0,0,0,.114.1l1.926.243a.133.133,0,0,0,.136-.073l.715-1.451a7.058,7.058,0,0,0,2.2-.6l1.355.886a.133.133,0,0,0,.155-.006l1.534-1.19a.133.133,0,0,0,.044-.148l-.521-1.533a7.045,7.045,0,0,0,1.132-1.984l1.584-.332a.134.134,0,0,0,.1-.114l.243-1.927a.133.133,0,0,0-.073-.136l-1.451-.715a7.048,7.048,0,0,0-.6-2.2l.886-1.355a.133.133,0,0,0-.006-.154l-1.191-1.534a.133.133,0,0,0-.148-.044l-1.533.521a7.04,7.04,0,0,0-1.984-1.132l-.332-1.584a.133.133,0,0,0-.114-.1l-1.927-.243a.132.132,0,0,0-.136.073l-.715,1.451a7.063,7.063,0,0,0-2.2.6l-1.355-.885a.133.133,0,0,0-.155.006l-1.534,1.19a.133.133,0,0,0-.044.148l.521,1.533a7.057,7.057,0,0,0-1.132,1.984l-1.583.332a.133.133,0,0,0-.1.114l-.243,1.926a.133.133,0,0,0,.073.136l1.451.715a7.047,7.047,0,0,0,.6,2.2l-.886,1.355a.134.134,0,0,0,.006.154l1.191,1.534A.133.133,0,0,0,1288.755,613.616Z" transform="translate(-1252.45 -597.021)" fill="#10b5df"/>
      <g id="Group_1457" data-name="Group 1457" transform="translate(40.34 8.599)">
        <path id="Path_4277" data-name="Path 4277" d="M1431.87,746.663a1.958,1.958,0,1,1,.24-.015h0A1.97,1.97,0,0,1,1431.87,746.663Zm.211-.247h0Zm-.206-3.2a1.529,1.529,0,0,0-.184.011,1.49,1.49,0,0,0,.362,2.958h0a1.49,1.49,0,0,0-.178-2.969Z" transform="translate(-1429.913 -742.746)" fill="#bdd0fb"/>
      </g>
      <g id="Group_1458" data-name="Group 1458" transform="translate(31.766 0)">
        <path id="Path_4278" data-name="Path 4278" d="M1262.786,874.089a.156.156,0,0,1-.139-.084c-.1-.188-.189-.38-.273-.572a.156.156,0,0,1,.286-.126c.082.185.171.372.265.555a.156.156,0,0,1-.138.227Z" transform="translate(-1261.507 -858.604)" fill="#10b5df"/>
        <path id="Path_4279" data-name="Path 4279" d="M1244.214,569.153a.156.156,0,0,1-.152-.121,10.693,10.693,0,0,1-.189-1.084c-.005-.045-.011-.091-.016-.137a.156.156,0,1,1,.31-.033c0,.044.01.088.015.131a10.493,10.493,0,0,0,.184,1.052.156.156,0,0,1-.117.187A.164.164,0,0,1,1244.214,569.153Zm-.23-3.18h-.013a.156.156,0,0,1-.143-.168,10.378,10.378,0,0,1,.172-1.226.156.156,0,0,1,.306.062,10.1,10.1,0,0,0-.167,1.189A.156.156,0,0,1,1243.984,565.974Zm.743-3.1a.156.156,0,0,1-.144-.216,10.609,10.609,0,0,1,.536-1.115.156.156,0,0,1,.273.151,10.363,10.363,0,0,0-.521,1.082A.156.156,0,0,1,1244.727,562.873Zm1.648-2.729a.156.156,0,0,1-.12-.256,10.644,10.644,0,0,1,.847-.9.156.156,0,0,1,.215.227,10.326,10.326,0,0,0-.822.875A.157.157,0,0,1,1246.375,560.144Zm2.394-2.105a.156.156,0,0,1-.084-.287,10.5,10.5,0,0,1,1.08-.6.156.156,0,0,1,.136.281,10.253,10.253,0,0,0-1.048.585A.154.154,0,0,1,1248.769,558.039Zm2.918-1.279a.156.156,0,0,1-.04-.307,10.733,10.733,0,0,1,1.211-.246.156.156,0,1,1,.044.309,10.409,10.409,0,0,0-1.176.239A.16.16,0,0,1,1251.687,556.76Zm4.382-.209-.026,0a10.226,10.226,0,0,0-1.194-.126.156.156,0,0,1-.149-.163.152.152,0,0,1,.163-.149,10.545,10.545,0,0,1,1.23.13.156.156,0,0,1-.026.31Z" transform="translate(-1243.827 -556.11)" fill="#10b5df"/>
        <path id="Path_4280" data-name="Path 4280" d="M1548.568,570.564a.154.154,0,0,1-.063-.013c-.187-.083-.379-.161-.569-.232a.156.156,0,0,1,.109-.292c.2.073.393.153.587.239a.156.156,0,0,1-.064.3Z" transform="translate(-1533.828 -569.375)" fill="#10b5df"/>
      </g>
      <g id="Group_1459" data-name="Group 1459" transform="translate(37.5 6.425)">
        <path id="Path_4281" data-name="Path 4281" d="M1678.33,696.47a.157.157,0,0,1-.148-.105c-.066-.193-.139-.387-.217-.575a.156.156,0,0,1,.289-.119c.08.194.155.394.223.593a.156.156,0,0,1-.1.2A.153.153,0,0,1,1678.33,696.47Z" transform="translate(-1663.686 -695.574)" fill="#10b5df"/>
        <path id="Path_4282" data-name="Path 4282" d="M1424.268,761.494a.156.156,0,0,1-.014-.312q.172-.015.343-.036c.277-.034.554-.079.825-.135a.156.156,0,1,1,.062.306c-.279.057-.565.1-.849.139q-.177.022-.354.037Zm-1.946-.009h-.015a10.567,10.567,0,0,1-1.2-.189.156.156,0,0,1,.067-.305,10.278,10.278,0,0,0,1.166.184.156.156,0,0,1-.016.311Zm4.994-.732a.156.156,0,0,1-.059-.3,10.2,10.2,0,0,0,1.064-.511.156.156,0,1,1,.151.273,10.536,10.536,0,0,1-1.1.527A.165.165,0,0,1,1427.315,760.753Zm2.686-1.618a.156.156,0,0,1-.1-.276,10.3,10.3,0,0,0,.863-.805.156.156,0,0,1,.226.216,10.556,10.556,0,0,1-.889.83A.155.155,0,0,1,1430,759.135Zm2.083-2.344a.152.152,0,0,1-.085-.025.156.156,0,0,1-.046-.216,10.278,10.278,0,0,0,.586-1.025.156.156,0,0,1,.28.139,10.666,10.666,0,0,1-.6,1.057A.156.156,0,0,1,1432.084,756.791Zm1.294-2.857a.154.154,0,0,1-.042-.006.156.156,0,0,1-.108-.192,10.127,10.127,0,0,0,.253-1.154.156.156,0,1,1,.308.049,10.411,10.411,0,0,1-.26,1.189A.156.156,0,0,1,1433.378,753.934Zm.38-3.114a.156.156,0,0,1-.156-.151c-.009-.314-.034-.632-.072-.946-.009-.077-.02-.154-.031-.231a.156.156,0,0,1,.309-.045c.011.079.022.158.032.237.04.324.065.652.074.974a.156.156,0,0,1-.151.161Z" transform="translate(-1418.553 -746.838)" fill="#10b5df"/>
        <path id="Path_4283" data-name="Path 4283" d="M1369,984.647a.154.154,0,0,1-.061-.013c-.192-.082-.385-.171-.575-.266a.156.156,0,1,1,.139-.279c.184.092.372.179.558.258a.156.156,0,0,1-.062.3Z" transform="translate(-1368.273 -970.781)" fill="#10b5df"/>
      </g>
      <path id="Path_4284" data-name="Path 4284" d="M1371.232,687.7a4.978,4.978,0,0,1-.626-.039h0a4.95,4.95,0,0,1-1.019-.24.234.234,0,0,1,.155-.442,4.484,4.484,0,0,0,.923.217l.064.008a4.424,4.424,0,0,0,3.187-.88l.035-.027a4.421,4.421,0,0,0,1.687-2.96,4.475,4.475,0,0,0,.036-.567,4.452,4.452,0,1,0-8.529,1.8.234.234,0,1,1-.429.188,4.92,4.92,0,1,1,9.425-1.988,4.99,4.99,0,0,1-.039.626,4.921,4.921,0,0,1-4.871,4.3Z" transform="translate(-1328.893 -672.251)" fill="#bdd0fb"/>
    </g>
    <g id="Group_1461" data-name="Group 1461" transform="translate(524.328 548.115)">
      <path id="Path_4285" data-name="Path 4285" d="M2164.16,2487.47h-1.407a.071.071,0,0,1-.072-.071v-6.044a4.877,4.877,0,0,1,4.288-4.841l3.107-.377a4.81,4.81,0,0,1,4.553,2.067,4.978,4.978,0,0,1,.832,2.812v2.441a.071.071,0,0,1-.071.072h-1.408a.072.072,0,0,1-.072-.072v-2.479a3.371,3.371,0,0,0-.381-1.6,3.259,3.259,0,0,0-3.267-1.7l-3.107.377a3.326,3.326,0,0,0-2.925,3.3v6.044A.071.071,0,0,1,2164.16,2487.47Z" transform="translate(-2161.313 -2476.102)" fill="url(#linear-gradient-27)"/>
      <path id="Path_4286" data-name="Path 4286" d="M2133.9,2677.134l13.591-.753a.963.963,0,0,1,1.016.961v10.767a.963.963,0,0,1-.963.963h-13.264a.963.963,0,0,1-.963-.932l-.326-10.013A.963.963,0,0,1,2133.9,2677.134Z" transform="translate(-2132.986 -2667.153)" fill="url(#linear-gradient-28)"/>
      <path id="Path_4287" data-name="Path 4287" d="M2256.792,2740.137l-.823-2.365a.789.789,0,0,1,.18-.816,2.239,2.239,0,1,0-3,.167.8.8,0,0,1,.259.882l-.742,2.132a.8.8,0,0,0,.753,1.06h2.622A.8.8,0,0,0,2256.792,2740.137Z" transform="translate(-2246.818 -2721.301)" fill="#91b3fa"/>
    </g>
    <g id="Group_1468" data-name="Group 1468" transform="translate(446.635 511.282)">
      <g id="Group_1462" data-name="Group 1462" transform="translate(10.923 33.976)">
        <path id="Path_4288" data-name="Path 4288" d="M738.608,3163.025a.446.446,0,0,0-.011-.115c-.574-2.276-3.423-3.693-3.423-3.693l-1.129.089a7.83,7.83,0,0,0-.461,3.784c0,.015.008.03.012.044A26.769,26.769,0,0,0,738.608,3163.025Z" transform="translate(-731.218 -3124.888)" fill="url(#linear-gradient-29)"/>
        <path id="Path_4289" data-name="Path 4289" d="M735.311,3241.985a.49.49,0,0,0,.358.361,15.493,15.493,0,0,0,4.314-.061.412.412,0,0,0,.341-.41A26.764,26.764,0,0,1,735.311,3241.985Z" transform="translate(-732.934 -3203.739)" fill="url(#linear-gradient-30)"/>
        <path id="Path_4290" data-name="Path 4290" d="M735.222,3124.64l.478,2.3a.376.376,0,0,0,.322.31,3.2,3.2,0,0,0,.741-.012.473.473,0,0,0,.375-.556l-.332-2.044Z" transform="translate(-732.849 -3091.904)" fill="url(#linear-gradient-31)"/>
        <path id="Path_4291" data-name="Path 4291" d="M904.175,3237.022a6.742,6.742,0,0,1-2.225-.317c0,.124,0,.25,0,.381a.246.246,0,0,0,.235.25l6.846-.044a.313.313,0,0,0,.252-.456C908.388,3236.91,906.1,3237.077,904.175,3237.022Z" transform="translate(-891.895 -3198.806)" fill="url(#linear-gradient-32)"/>
        <path id="Path_4292" data-name="Path 4292" d="M909.291,3170.116a.337.337,0,0,0-.027-.052,8.724,8.724,0,0,0-5.187-3.257l-1.46-.046a7,7,0,0,0-.662,3.223,6.731,6.731,0,0,0,2.225.318C906.107,3170.356,908.394,3170.19,909.291,3170.116Z" transform="translate(-891.9 -3132.085)" fill="url(#linear-gradient-33)"/>
        <path id="Path_4293" data-name="Path 4293" d="M909.043,3110.441c.023.107.327,1.745.444,2.38a.317.317,0,0,0,.285.269,3.343,3.343,0,0,0,1-.078.432.432,0,0,0,.3-.452l-.164-2.591Z" transform="translate(-898.662 -3077.908)" fill="url(#linear-gradient-34)"/>
        <path id="Path_4294" data-name="Path 4294" d="M693.552,2415.286s1.45,14.9,2.9,31.317a.626.626,0,0,1-.517.635,7.576,7.576,0,0,1-1.632.189.6.6,0,0,1-.576-.5c-.494-2.9-4.016-18.432-4.941-21.852,0,0-1.062,14.526-.723,22.061a.357.357,0,0,1-.315.371,5.974,5.974,0,0,1-1.31,0,.478.478,0,0,1-.426-.406c-.351-2.449-2.375-17.033-2.289-27.539.005-.592.7-5.46.7-5.46Z" transform="translate(-683.718 -2414.094)" fill="url(#linear-gradient-35)"/>
      </g>
      <g id="Group_1464" data-name="Group 1464" transform="translate(18.317 6.084)">
        <g id="Group_1463" data-name="Group 1463" transform="translate(0 4.099)">
          <path id="Path_4295" data-name="Path 4295" d="M854.345,1949.49c-.288,2.046-.592,2.517-.828,2.529-.752.039-.6-4.576-3.348-6.91a7.989,7.989,0,0,0-5.966-1.424l2.6,9.337c.379.93,2.031,4.691,5.77,5.833a4.277,4.277,0,0,0,2.948.125c2.08-.894,3.055-4.557,2.125-9.144A9.113,9.113,0,0,0,854.345,1949.49Z" transform="translate(-844.203 -1941.509)" fill="url(#linear-gradient-36)"/>
          <path id="Path_4296" data-name="Path 4296" d="M1049.954,1897.668l.344,1.945a15.225,15.225,0,0,1,.318,6.037c.475.02.973.053,1.493.1.641.063,1.245.146,1.812.243a34.823,34.823,0,0,0-1.909-6.438C1051.04,1898.157,1050.925,1899.07,1049.954,1897.668Z" transform="translate(-1040.475 -1897.668)" fill="url(#linear-gradient-37)"/>
        </g>
        <path id="Path_4297" data-name="Path 4297" d="M1033.715,1808.694a1.283,1.283,0,0,0-1.015.455l-2.454,2.907s-.447-.091-.489-.947a1.062,1.062,0,0,0-.95-.958s.131,1.193.38,2.958a3.742,3.742,0,0,0,1.225,2.193l1.42-.489a16.152,16.152,0,0,0,2.56-6.1Z" transform="translate(-1020.302 -1808.693)" fill="url(#linear-gradient-38)"/>
      </g>
      <path id="Path_4298" data-name="Path 4298" d="M633.292,1934.731c.164-.043,1.281-1.2,1.449-1.23,2.755-.525,9.631-2.377,14.234,1.019.011.1.019.176.023.241a2.552,2.552,0,0,1,.19.325,15.528,15.528,0,0,0,1.553,2.426,1.58,1.58,0,0,0-.32.454c-1.106,2.369-5.3,11.83-4.561,17.615a.547.547,0,0,1-.464.615c-1.627.225-6.474.774-8.978-.26a.384.384,0,0,1-.237-.361,42.513,42.513,0,0,0-1.88-12.272,6.871,6.871,0,0,1-.17-.688l-.066.139Z" transform="translate(-624.692 -1920.735)" fill="url(#linear-gradient-39)"/>
      <path id="Path_4299" data-name="Path 4299" d="M522.424,1942.329c-5.138.376-6.211,3.312-9.762,1.516l.629,5.5a9.544,9.544,0,0,0,5.809,2.816Z" transform="translate(-509.62 -1930.088)" fill="url(#linear-gradient-40)"/>
      <path id="Path_4300" data-name="Path 4300" d="M772.627,1834.4a13.479,13.479,0,0,0-1.358,5.206c.19.071,2.716,1.824,4.408.127a15.374,15.374,0,0,1-.21-4.715Z" transform="translate(-756.312 -1827.13)" fill="url(#linear-gradient-41)"/>
      <g id="Group_1465" data-name="Group 1465" transform="translate(14.987)">
        <path id="Path_4301" data-name="Path 4301" d="M814.524,1726.448c.048.078,1.311,6.033,1.311,6.033l-3.416.648-2.035-5.466S813.713,1725.137,814.524,1726.448Z" transform="translate(-808.613 -1723.793)" fill="url(#linear-gradient-42)"/>
        <path id="Path_4302" data-name="Path 4302" d="M775.015,1680.986a.5.5,0,0,0-.077.433l.834,2.918a.471.471,0,0,0,.055.125c.135.216.619.866,1.271.332a4.416,4.416,0,0,1,1.537-.969.5.5,0,0,1,.593.389,18.653,18.653,0,0,1,.375,2.725.5.5,0,0,1-.437.514,13.838,13.838,0,0,1-3.123.068.5.5,0,0,1-.4-.316c-.292-.757-1.12-2.875-1.446-3.437-.3-.522-1.106-.571-1.476-.565a.5.5,0,0,1-.372-.154,1.1,1.1,0,0,1,.034-1.725.5.5,0,0,0,.026-.7,1.1,1.1,0,0,1,0-1.624,1.557,1.557,0,0,1,1.843-.361.519.519,0,0,0,.6-.151.33.33,0,0,1,.3-.129.485.485,0,0,0,.526-.448,1.279,1.279,0,0,1,1.07-1.23c1.5-.368,2.326,1.108,2.352,2.172s-1.62,1.371-2.568,1.241C775.834,1680,775.267,1680.641,775.015,1680.986Z" transform="translate(-771.94 -1676.629)" fill="url(#linear-gradient-43)"/>
        <path id="Path_4303" data-name="Path 4303" d="M786.551,1813.357s-.318-1.885-1.077-2.022-1.543.446-.845,1.525A1.258,1.258,0,0,0,786.551,1813.357Z" transform="translate(-783.786 -1805.11)" fill="url(#linear-gradient-44)"/>
      </g>
      <g id="Group_1467" data-name="Group 1467" transform="translate(0 1.463)">
        <path id="Path_4304" data-name="Path 4304" d="M737.305,1708.395a1.736,1.736,0,0,1,.435.041c.361.076.842.261.717.609-.188.521-1.164.034-1.684.875-.458.741-.083,1.545-.223,2.344a1.988,1.988,0,0,1-.665,1.192c-.155.1-1.381.3-1.448.078l-.341-1.105c-.306-.994.871-2.651,1.478-3.321A2.365,2.365,0,0,1,737.305,1708.395Z" transform="translate(-720.805 -1708.393)" fill="url(#linear-gradient-45)"/>
        <g id="Group_1466" data-name="Group 1466" transform="translate(0 3.342)">
          <path id="Path_4305" data-name="Path 4305" d="M604.307,1781.574l-1.172.975a15.222,15.222,0,0,0-5.064,3.3,6.679,6.679,0,0,0-2.228-2.465,24.847,24.847,0,0,1,3.952-1.579C604.368,1779.967,604.307,1781.574,604.307,1781.574Z" transform="translate(-588.969 -1780.924)" fill="url(#linear-gradient-46)"/>
          <path id="Path_4306" data-name="Path 4306" d="M455.737,1836.824c-3.7,3.806-2.615,1.872-2.645,5.115a55.608,55.608,0,0,1-1.06,5.827c-11.3-4.882-1.87-11.546,1.477-13.407A6.677,6.677,0,0,1,455.737,1836.824Z" transform="translate(-446.635 -1831.897)" fill="url(#linear-gradient-47)"/>
        </g>
      </g>
    </g>
  </g>
</svg>
