<svg xmlns="http://www.w3.org/2000/svg" xmlns:xlink="http://www.w3.org/1999/xlink" width="128.533" height="128" viewBox="0 0 128.533 128">
  <defs>
    <linearGradient id="linear-gradient" x1="1.051" y1="0.838" x2="-0.723" y2="-0.247" gradientUnits="objectBoundingBox">
      <stop offset="0" stop-color="#0f8faf"/>
      <stop offset="1" stop-color="#10b5df"/>
    </linearGradient>
    <linearGradient id="linear-gradient-2" x1="0.5" y1="0" x2="0.5" y2="1" xlink:href="#linear-gradient"/>
    <linearGradient id="linear-gradient-6" x1="-0.434" y1="-2.808" x2="1.03" y2="2.188" gradientUnits="objectBoundingBox">
      <stop offset="0" stop-color="#ffc444"/>
      <stop offset="0.996" stop-color="#f36f56"/>
    </linearGradient>
    <linearGradient id="linear-gradient-7" x1="-0.277" y1="-3.449" x2="0.707" y2="1.437" xlink:href="#linear-gradient-6"/>
    <linearGradient id="linear-gradient-9" x1="-0.26" y1="-5.205" x2="0.666" y2="1.693" xlink:href="#linear-gradient-6"/>
    <linearGradient id="linear-gradient-10" x1="-0.34" y1="-5.415" x2="0.581" y2="1.403" xlink:href="#linear-gradient-6"/>
    <linearGradient id="linear-gradient-14" x1="0.586" y1="-0.02" x2="0.297" y2="1.731" xlink:href="#linear-gradient"/>
    <linearGradient id="linear-gradient-15" y1="0.5" x2="1" y2="0.5" gradientUnits="objectBoundingBox">
      <stop offset="0" stop-color="#311944"/>
      <stop offset="1" stop-color="#a03976"/>
    </linearGradient>
    <linearGradient id="linear-gradient-16" x1="0" y1="0.5" x2="1" y2="0.5" xlink:href="#linear-gradient"/>
    <linearGradient id="linear-gradient-17" y1="0.5" x2="1" y2="0.5" gradientUnits="objectBoundingBox">
      <stop offset="0" stop-color="#444b8c"/>
      <stop offset="0.996" stop-color="#26264f"/>
    </linearGradient>
    <linearGradient id="linear-gradient-19" x1="0.73" y1="0.758" x2="-0.115" y2="-0.571" xlink:href="#linear-gradient"/>
    <linearGradient id="linear-gradient-20" y1="0.5" x2="1" y2="0.5" gradientUnits="objectBoundingBox">
      <stop offset="0" stop-color="#311944"/>
      <stop offset="1" stop-color="#893976"/>
    </linearGradient>
    <linearGradient id="linear-gradient-21" x1="1.069" y1="-0.986" x2="0.322" y2="0.94" xlink:href="#linear-gradient"/>
    <linearGradient id="linear-gradient-23" x1="0.908" y1="-0.734" x2="0.034" y2="2.341" xlink:href="#linear-gradient"/>
    <linearGradient id="linear-gradient-24" x1="-2.944" y1="-0.378" x2="-1.627" y2="2.004" xlink:href="#linear-gradient-6"/>
    <linearGradient id="linear-gradient-25" x1="-1.336" y1="1.155" x2="9.374" y2="-2.542" xlink:href="#linear-gradient-6"/>
    <linearGradient id="linear-gradient-26" x1="-14.315" y1="4.307" x2="-13.263" y2="5.756" xlink:href="#linear-gradient-17"/>
    <linearGradient id="linear-gradient-27" x1="-40.685" y1="3.547" x2="-40.685" y2="2.195" xlink:href="#linear-gradient-6"/>
    <linearGradient id="linear-gradient-28" x1="-18.632" y1="4.854" x2="-17.3" y2="6.642" xlink:href="#linear-gradient-17"/>
    <linearGradient id="linear-gradient-29" x1="-7.829" y1="-0.515" x2="-6.735" y2="0.793" xlink:href="#linear-gradient-17"/>
    <linearGradient id="linear-gradient-30" x1="-41.051" y1="1.222" x2="-41.051" y2="-0.193" xlink:href="#linear-gradient-6"/>
    <linearGradient id="linear-gradient-31" x1="0.623" y1="1.071" x2="0.389" y2="0.243" gradientUnits="objectBoundingBox">
      <stop offset="0.004" stop-color="#e38ddd"/>
      <stop offset="1" stop-color="#9571f6"/>
    </linearGradient>
    <linearGradient id="linear-gradient-32" x1="-0.885" y1="0.911" x2="8.851" y2="-1.979" xlink:href="#linear-gradient-6"/>
    <linearGradient id="linear-gradient-33" x1="-10.225" y1="-1.298" x2="-8.864" y2="0.479" xlink:href="#linear-gradient-17"/>
    <linearGradient id="linear-gradient-34" x1="-16.356" y1="0.884" x2="-15.839" y2="-0.213" xlink:href="#linear-gradient-6"/>
    <linearGradient id="linear-gradient-35" x1="0.49" y1="0.185" x2="0.583" y2="2.5" gradientUnits="objectBoundingBox">
      <stop offset="0" stop-color="#ab316d"/>
      <stop offset="1" stop-color="#792d3d"/>
    </linearGradient>
    <linearGradient id="linear-gradient-36" x1="-24.053" y1="-2.784" x2="-8.05" y2="10.461" xlink:href="#linear-gradient-6"/>
    <linearGradient id="linear-gradient-37" x1="0.405" y1="-1.346" x2="0.689" y2="4.864" xlink:href="#linear-gradient-35"/>
    <linearGradient id="linear-gradient-38" x1="-0.283" y1="0.99" x2="8.555" y2="-3.392" xlink:href="#linear-gradient-6"/>
  </defs>
  <g id="Cyber_security_software" data-name="Cyber security software" transform="translate(-449.167 -455)">
    <path id="Path_4577" data-name="Path 4577" d="M480.066,462.693c-4.317,6.18.745,16.2-5.661,20.847-6.235,4.524-13.9-2.892-19.771,1-8.717,5.777-7.125,32.213,5.62,48.637,3.833,4.94,7.035,6.861,8.454,12.448,3.046,12-7.659,19.131-5.622,25.064,4.587,13.358,75.125,24.567,103.429-15.579,13.219-18.75,15.2-45.825,3.386-66.388C548.559,451.567,489.752,448.827,480.066,462.693Z" transform="translate(0 0)" fill="#f4f7fa"/>
    <g id="Group_1645" data-name="Group 1645" transform="translate(450.069 456.594)">
      <path id="Path_4578" data-name="Path 4578" d="M572.764,1602.712l-2.063-.017a16.046,16.046,0,0,0-.728-2.715l1.79-1.014a1.013,1.013,0,0,0,.374-1.39l-1.765-3.073a1.033,1.033,0,0,0-1.4-.392l-1.813,1.021a16.553,16.553,0,0,0-1.989-2l1.052-1.8a1.03,1.03,0,0,0-.376-1.4l-3.079-1.816a1.025,1.025,0,0,0-1.409.353l-1.059,1.805a16.465,16.465,0,0,0-2.731-.76V1587.4a1.054,1.054,0,0,0-1.037-1.045l-3.591-.061a1.016,1.016,0,0,0-1.042,1.013v2.121a16.283,16.283,0,0,0-2.755.68l-1.072-1.849a1.066,1.066,0,0,0-1.431-.4l-3.141,1.738a1.017,1.017,0,0,0-.385,1.409l1.076,1.85a16.214,16.214,0,0,0-2.038,1.973l-1.865-1.082a1.059,1.059,0,0,0-1.443.361l-1.827,3.084a1.035,1.035,0,0,0,.387,1.423l1.851,1.068a15.879,15.879,0,0,0-.753,2.746l-2.138-.018a1.039,1.039,0,0,0-1.06,1.031v3.591a1.057,1.057,0,0,0,1.06,1.045l2.121.012a16.037,16.037,0,0,0,.742,2.772l-1.824,1.027a1.026,1.026,0,0,0-.387,1.417l1.827,3.109a1.067,1.067,0,0,0,1.443.381l1.81-1.025a16.542,16.542,0,0,0,2.056,2.032l-1.04,1.773a1.026,1.026,0,0,0,.385,1.414l3.141,1.781a1.057,1.057,0,0,0,1.431-.381l1.027-1.757a16.458,16.458,0,0,0,2.8.733v2.028a1.033,1.033,0,0,0,1.042,1.028l3.591-.011a1.036,1.036,0,0,0,1.037-1.031v-2.022a16.291,16.291,0,0,0,2.776-.737l1.014,1.743a1.034,1.034,0,0,0,1.409.372l3.079-1.774a1.022,1.022,0,0,0,.376-1.4l-1.016-1.753a16.209,16.209,0,0,0,2.007-2l1.76,1.015a1.024,1.024,0,0,0,1.4-.372l1.765-3.049a1.022,1.022,0,0,0-.374-1.395L570,1610.982a15.869,15.869,0,0,0,.718-2.72l2.047.011a1.013,1.013,0,0,0,1.02-1.014v-3.52A1.03,1.03,0,0,0,572.764,1602.712Zm-18.026-7.692a10.537,10.537,0,0,1,10.441,10.466,10.362,10.362,0,0,1-10.441,10.322,10.532,10.532,0,0,1-10.556-10.467A10.359,10.359,0,0,1,554.738,1595.02Z" transform="translate(-532.271 -1536.169)" fill="url(#linear-gradient)"/>
      <g id="Group_1644" data-name="Group 1644" transform="translate(16.906 0)">
        <path id="Path_4579" data-name="Path 4579" d="M1134.929,745.352l-1.867-.051a14.048,14.048,0,0,0-.66-2.407l1.62-.861a.87.87,0,0,0,.338-1.218l-1.6-2.743a.963.963,0,0,0-1.267-.373l-1.644.866a15.279,15.279,0,0,0-1.806-1.805l.955-1.568a.908.908,0,0,0-.341-1.247l-2.8-1.669a.937.937,0,0,0-1.282.282l-.964,1.574a15.632,15.632,0,0,0-2.49-.728v-1.871a.975.975,0,0,0-.946-.947l-3.281-.131a.891.891,0,0,0-.953.875v1.879a15.1,15.1,0,0,0-2.523.546l-.983-1.663a1.011,1.011,0,0,0-1.313-.386l-2.886,1.477a.876.876,0,0,0-.354,1.244l.99,1.665a14.225,14.225,0,0,0-1.874,1.712l-1.717-1a.984.984,0,0,0-1.33.293l-1.685,2.708a.915.915,0,0,0,.358,1.274l1.707.985a13.527,13.527,0,0,0-.694,2.429l-1.973-.054a.923.923,0,0,0-.979.9v3.2a.981.981,0,0,0,.979.948l1.957.045a14.037,14.037,0,0,0,.684,2.478l-1.682.885a.887.887,0,0,0-.358,1.256l1.685,2.793a1.013,1.013,0,0,0,1.33.36l1.666-.885a15.325,15.325,0,0,0,1.891,1.834l-.956,1.561a.9.9,0,0,0,.354,1.262l2.886,1.622a.98.98,0,0,0,1.313-.32l.942-1.545a15.632,15.632,0,0,0,2.565.687v1.8a.946.946,0,0,0,.953.923l3.281.034a.917.917,0,0,0,.946-.9v-1.789a15.075,15.075,0,0,0,2.53-.616l.923,1.554a.964.964,0,0,0,1.282.347l2.8-1.527a.881.881,0,0,0,.341-1.229l-.923-1.561a14.188,14.188,0,0,0,1.822-1.741l1.6.92a.934.934,0,0,0,1.267-.309l1.6-2.662a.9.9,0,0,0-.338-1.235l-1.6-.929a13.515,13.515,0,0,0,.65-2.387l1.852.043a.885.885,0,0,0,.922-.876v-3.1A.941.941,0,0,0,1134.929,745.352Zm-16.387-7.128a9.7,9.7,0,0,1,9.512,9.445,9.125,9.125,0,0,1-9.512,8.966,9.7,9.7,0,0,1-9.674-9.449A9.127,9.127,0,0,1,1118.542,738.225Z" transform="translate(-1088.714 -719.457)" fill="#0f8faf"/>
        <g id="Group_1643" data-name="Group 1643">
          <path id="Path_4580" data-name="Path 4580" d="M868.539,489.908c-16.283-.809-29.828,11.333-29.828,27.142s13.546,28.634,29.828,28.646c15.83.011,28.343-12.158,28.343-27.18S884.369,490.695,868.539,489.908Zm0,49.118c-12.347-.081-22.554-9.838-22.554-21.792s10.207-21.2,22.554-20.655c12.085.53,21.695,10.272,21.695,21.771S880.624,539.105,868.539,539.026Z" transform="translate(-838.711 -489.87)" fill="#fff" opacity="0.74"/>
          <g id="Group_1642" data-name="Group 1642" transform="translate(0 0.001)">
            <path id="Path_4581" data-name="Path 4581" d="M927.707,1315.263l-6.266,3.31a29.677,29.677,0,0,0,10.115,10.288l3.57-5.835A22.534,22.534,0,0,1,927.707,1315.263Z" transform="translate(-917.659 -1277.532)" fill="url(#linear-gradient-2)"/>
            <path id="Path_4582" data-name="Path 4582" d="M1736.568,598.284l5.823-3.069a29.816,29.816,0,0,0-9.364-8.944l-3.4,5.569A22.711,22.711,0,0,1,1736.568,598.284Z" transform="translate(-1688.897 -581.866)" fill="url(#linear-gradient-2)"/>
            <path id="Path_4583" data-name="Path 4583" d="M957.333,568.887a21.162,21.162,0,0,1,7.308-6.053l-3.558-6a27.807,27.807,0,0,0-10.022,8.412Z" transform="translate(-945.925 -553.77)" fill="url(#linear-gradient-2)"/>
            <path id="Path_4584" data-name="Path 4584" d="M845.985,1068.616c0-.256.011-.509.02-.762l-7.283-.188q-.011.382-.011.767a27.339,27.339,0,0,0,3.143,12.705l6.292-3.316A20.772,20.772,0,0,1,845.985,1068.616Z" transform="translate(-838.711 -1041.254)" fill="url(#linear-gradient-2)"/>
            <path id="Path_4585" data-name="Path 4585" d="M1923.887,1097.528a20.1,20.1,0,0,1-2.007,8.784l5.8,3.372a26.412,26.412,0,0,0,2.853-11.989q0-.365-.01-.729l-6.657-.172C1923.877,1097.038,1923.887,1097.282,1923.887,1097.528Z" transform="translate(-1872.365 -1069.05)" opacity="0.25" fill="url(#linear-gradient-6)"/>
            <path id="Path_4586" data-name="Path 4586" d="M1762.894,1329.14a20.869,20.869,0,0,1-7.017,7.365l3.4,5.742a27.457,27.457,0,0,0,9.409-9.75Z" transform="translate(-1713.949 -1290.774)" opacity="0.25" fill="url(#linear-gradient-7)"/>
            <path id="Path_4587" data-name="Path 4587" d="M1896.912,808.393a20.986,20.986,0,0,1,3.05,9.018l6.674.18a27.535,27.535,0,0,0-3.925-12.262Z" transform="translate(-1848.537 -790.91)" fill="url(#linear-gradient-2)"/>
            <path id="Path_4588" data-name="Path 4588" d="M1182.089,1503a23.146,23.146,0,0,1-10.559-2.956l-3.558,5.824a30.445,30.445,0,0,0,14.118,3.814Z" transform="translate(-1152.919 -1453.87)" opacity="0.25" fill="url(#linear-gradient-9)"/>
            <path id="Path_4589" data-name="Path 4589" d="M1515.954,1504.462a22.238,22.238,0,0,1-10.343,2.763v6.674a29.244,29.244,0,0,0,13.744-3.7Z" transform="translate(-1475.124 -1458.082)" opacity="0.25" fill="url(#linear-gradient-10)"/>
            <path id="Path_4590" data-name="Path 4590" d="M1199.793,498.4a22.44,22.44,0,0,1,9.27-1.815v-6.682a29.515,29.515,0,0,0-12.825,2.49Z" transform="translate(-1179.894 -489.893)" fill="url(#linear-gradient-2)"/>
            <path id="Path_4591" data-name="Path 4591" d="M847.759,776.858a20.053,20.053,0,0,1,3.277-9.149l-6.262-3.631a26.359,26.359,0,0,0-4.315,12.583Z" transform="translate(-840.379 -751.544)" fill="url(#linear-gradient-2)"/>
            <path id="Path_4592" data-name="Path 4592" d="M1505.611,498.271a23.167,23.167,0,0,1,9.1,2.582l3.413-5.579a30.464,30.464,0,0,0-12.514-3.677Z" transform="translate(-1475.124 -491.519)" fill="url(#linear-gradient-2)"/>
          </g>
        </g>
      </g>
      <path id="Path_4593" data-name="Path 4593" d="M485.345,1193.7l-.911.008a6.553,6.553,0,0,0-.321-1.15l.79-.445a.428.428,0,0,0,.165-.594l-.779-1.295a.46.46,0,0,0-.617-.156l-.8.448a6.979,6.979,0,0,0-.877-.836l.464-.774a.425.425,0,0,0-.166-.594l-1.356-.748a.466.466,0,0,0-.62.161l-.466.776a7.323,7.323,0,0,0-1.2-.3v-.9a.446.446,0,0,0-.456-.436l-1.578,0a.449.449,0,0,0-.458.439v.9a7.456,7.456,0,0,0-1.209.311l-.47-.776a.471.471,0,0,0-.628-.159l-1.377.762a.429.429,0,0,0-.169.6l.471.776a7.192,7.192,0,0,0-.893.852l-.816-.444a.477.477,0,0,0-.631.164l-.8,1.321a.427.427,0,0,0,.169.6l.81.439a6.648,6.648,0,0,0-.329,1.169l-.935.008a.457.457,0,0,0-.463.444v1.521a.447.447,0,0,0,.463.436l.928-.01a6.548,6.548,0,0,0,.325,1.17l-.8.447a.432.432,0,0,0-.169.6l.8,1.306a.471.471,0,0,0,.631.152l.792-.446a6.985,6.985,0,0,0,.9.849l-.456.759a.424.424,0,0,0,.169.6l1.377.737a.476.476,0,0,0,.628-.17l.45-.752a7.35,7.35,0,0,0,1.229.294v.861a.439.439,0,0,0,.458.43l1.578-.026a.455.455,0,0,0,.456-.444v-.859a7.448,7.448,0,0,0,1.221-.33l.446.734a.461.461,0,0,0,.62.15l1.356-.773a.43.43,0,0,0,.166-.6l-.448-.739a7.18,7.18,0,0,0,.885-.865l.776.421a.465.465,0,0,0,.617-.167l.779-1.309a.423.423,0,0,0-.165-.591l-.778-.424a6.636,6.636,0,0,0,.317-1.163l.9-.009a.448.448,0,0,0,.45-.439v-1.5A.438.438,0,0,0,485.345,1193.7Zm-7.94-3.138a4.467,4.467,0,0,1,4.594,4.372,4.568,4.568,0,0,1-4.594,4.458,4.467,4.467,0,0,1-4.632-4.372A4.568,4.568,0,0,1,477.4,1190.559Z" transform="translate(-468.889 -1155)" fill="url(#linear-gradient-14)"/>
    </g>
    <g id="Group_1649" data-name="Group 1649" transform="translate(527.103 464.368)">
      <g id="Group_1648" data-name="Group 1648" transform="translate(0 0)" style="isolation: isolate">
        <g id="Group_1646" data-name="Group 1646" transform="translate(0 1.738)">
          <path id="Path_4594" data-name="Path 4594" d="M2178.966,697.954c5.02.263,9.264,4.757,9.48,10.035a9.791,9.791,0,0,1-.049,1.473,6.809,6.809,0,0,1,2.854-.452,8.627,8.627,0,0,1,7.822,8.281,6.909,6.909,0,0,1-6.566,7.5c-.2.005-.406,0-.612-.006l-34.334-1.916a4.812,4.812,0,0,1-3.547-4.441,3.789,3.789,0,0,1,3.948-4.12,4.136,4.136,0,0,1,1.385.319,10.8,10.8,0,0,1-.352-2.319c-.223-5.457,3.8-9.662,8.992-9.39a9.439,9.439,0,0,1,2.789.583A8.114,8.114,0,0,1,2178.966,697.954Z" transform="translate(-2154.01 -697.942)" fill="url(#linear-gradient-15)"/>
        </g>
        <g id="Group_1647" data-name="Group 1647" transform="translate(2.29)">
          <path id="Path_4595" data-name="Path 4595" d="M2229.06,659.938c5.019.263,9.264,4.757,9.479,10.035a9.791,9.791,0,0,1-.049,1.473,6.812,6.812,0,0,1,2.854-.452,8.627,8.627,0,0,1,7.822,8.281,6.909,6.909,0,0,1-6.566,7.5c-.2.005-.406,0-.612-.006l-34.334-1.916a4.812,4.812,0,0,1-3.547-4.441,3.789,3.789,0,0,1,3.948-4.12,4.135,4.135,0,0,1,1.385.319,10.782,10.782,0,0,1-.352-2.319c-.223-5.457,3.8-9.662,8.992-9.39a9.443,9.443,0,0,1,2.789.583A8.114,8.114,0,0,1,2229.06,659.938Z" transform="translate(-2204.103 -659.926)" fill="url(#linear-gradient-16)"/>
        </g>
      </g>
    </g>
    <g id="Group_1651" data-name="Group 1651" transform="translate(542.599 490.03)">
      <g id="Group_1650" data-name="Group 1650" transform="translate(0 0)">
        <path id="Path_4596" data-name="Path 4596" d="M2493.9,1225.975a.917.917,0,0,1-.917-.917v-2.865a.917.917,0,0,1,1.834,0v2.865A.917.917,0,0,1,2493.9,1225.975Z" transform="translate(-2492.984 -1221.277)" fill="#413974"/>
        <path id="Path_4597" data-name="Path 4597" d="M2493.9,1386.528a.917.917,0,0,1-.917-.917v-4.4a.917.917,0,0,1,1.834,0v4.4A.917.917,0,0,1,2493.9,1386.528Z" transform="translate(-2492.984 -1373.021)" fill="#413974"/>
        <path id="Path_4598" data-name="Path 4598" d="M2493.9,1577.672a.917.917,0,0,1-.917-.917v-2.865a.917.917,0,1,1,1.834,0v2.865A.917.917,0,0,1,2493.9,1577.672Z" transform="translate(-2492.984 -1556.896)" fill="#413974"/>
      </g>
    </g>
    <g id="Group_1653" data-name="Group 1653" transform="translate(490.955 501.112)">
      <g id="Group_1652" data-name="Group 1652" transform="translate(0)">
        <path id="Path_4599" data-name="Path 4599" d="M1364.183,1468.4a.917.917,0,0,1-.917-.917v-2.865a.917.917,0,0,1,1.834,0v2.865A.917.917,0,0,1,1364.183,1468.4Z" transform="translate(-1363.266 -1463.706)" fill="#413974"/>
        <path id="Path_4600" data-name="Path 4600" d="M1364.183,1628.957a.917.917,0,0,1-.917-.917v-4.4a.917.917,0,0,1,1.834,0v4.4A.917.917,0,0,1,1364.183,1628.957Z" transform="translate(-1363.266 -1615.45)" fill="#413974"/>
        <path id="Path_4601" data-name="Path 4601" d="M1364.183,1820.1a.917.917,0,0,1-.917-.917v-2.865a.917.917,0,0,1,1.834,0v2.865A.917.917,0,0,1,1364.183,1820.1Z" transform="translate(-1363.266 -1799.326)" fill="#413974"/>
      </g>
    </g>
    <g id="Group_1655" data-name="Group 1655" transform="translate(517.581 486.092)">
      <g id="Group_1654" data-name="Group 1654">
        <path id="Path_4602" data-name="Path 4602" d="M1946.635,1139.832a.917.917,0,0,1-.917-.917v-2.865a.917.917,0,1,1,1.834,0v2.865A.917.917,0,0,1,1946.635,1139.832Z" transform="translate(-1945.718 -1135.133)" fill="#413974"/>
        <path id="Path_4603" data-name="Path 4603" d="M1946.635,1300.385a.917.917,0,0,1-.917-.917v-4.4a.917.917,0,0,1,1.834,0v4.4A.917.917,0,0,1,1946.635,1300.385Z" transform="translate(-1945.718 -1286.878)" fill="#413974"/>
        <path id="Path_4604" data-name="Path 4604" d="M1946.635,1491.53a.917.917,0,0,1-.917-.917v-2.865a.917.917,0,0,1,1.834,0v2.865A.917.917,0,0,1,1946.635,1491.53Z" transform="translate(-1945.718 -1470.753)" fill="#413974"/>
      </g>
    </g>
    <g id="Group_1657" data-name="Group 1657" transform="translate(471.729 517.385)">
      <g id="Group_1656" data-name="Group 1656" transform="translate(0)">
        <path id="Path_4605" data-name="Path 4605" d="M943.62,1824.369a.917.917,0,0,1-.917-.917v-2.865a.917.917,0,1,1,1.834,0v2.865A.917.917,0,0,1,943.62,1824.369Z" transform="translate(-942.703 -1819.67)" fill="#413974"/>
        <path id="Path_4606" data-name="Path 4606" d="M943.62,1984.921a.917.917,0,0,1-.917-.917v-4.4a.917.917,0,1,1,1.834,0v4.4A.917.917,0,0,1,943.62,1984.921Z" transform="translate(-942.703 -1971.414)" fill="#413974"/>
        <path id="Path_4607" data-name="Path 4607" d="M943.62,2176.066a.917.917,0,0,1-.917-.917v-2.865a.917.917,0,1,1,1.834,0v2.865A.917.917,0,0,1,943.62,2176.066Z" transform="translate(-942.703 -2155.29)" fill="#413974"/>
      </g>
    </g>
    <g id="Group_1661" data-name="Group 1661" transform="translate(463.179 530.017)">
      <path id="Path_4608" data-name="Path 4608" d="M851.247,2942.76l-78.428-.668v1.978a1.053,1.053,0,0,0,.805,1.075l22.177,3.9a3.116,3.116,0,0,0,.8.036l53.8-4.441a1,1,0,0,0,.852-1.049Z" transform="translate(-772.035 -2903.412)" fill="#26264f"/>
      <g id="Group_1658" data-name="Group 1658" transform="translate(0)">
        <path id="Path_4609" data-name="Path 4609" d="M806.423,2132.169l-49.156,3.619a1.49,1.49,0,0,1-1.595-1.537v-36.6a1.626,1.626,0,0,1,1.595-1.655h49.156a1.412,1.412,0,0,1,1.311,1.5v33.09A1.544,1.544,0,0,1,806.423,2132.169Z" transform="translate(-755.673 -2095.992)" fill="#26264f"/>
        <path id="Path_4610" data-name="Path 4610" d="M823.569,2132.169l-49.156,3.619a1.49,1.49,0,0,1-1.595-1.537v-36.6a1.626,1.626,0,0,1,1.595-1.655h49.156a1.412,1.412,0,0,1,1.311,1.5v33.09A1.544,1.544,0,0,1,823.569,2132.169Z" transform="translate(-772.035 -2095.992)" fill="url(#linear-gradient-17)"/>
        <path id="Path_4611" data-name="Path 4611" d="M866.674,2174.2l-45.783,3.143a1.221,1.221,0,0,1-1.3-1.261v-32.047a1.332,1.332,0,0,1,1.3-1.356l45.783-.2a1.156,1.156,0,0,1,1.081,1.225V2172.9A1.263,1.263,0,0,1,866.674,2174.2Z" transform="translate(-816.671 -2140.358)" fill="#fff"/>
        <path id="Path_4612" data-name="Path 4612" d="M1359.687,2105.046a.568.568,0,1,1-.565-.615A.594.594,0,0,1,1359.687,2105.046Z" transform="translate(-1330.995 -2104.045)" fill="#fff"/>
      </g>
      <path id="Path_4613" data-name="Path 4613" d="M825.529,2882.762l-52.71,3.809,22.982,4.036a3.1,3.1,0,0,0,.8.037l54.65-4.511-24.88-3.345A4.064,4.064,0,0,0,825.529,2882.762Z" transform="translate(-772.035 -2846.785)" fill="url(#linear-gradient-17)"/>
      <path id="Path_4614" data-name="Path 4614" d="M941.062,2899.838l43.882-3.218,13.581,1.811-43.5,3.44Z" transform="translate(-932.587 -2860.02)" fill="#26264f"/>
      <g id="Group_1660" data-name="Group 1660" transform="translate(3.003 2.24)">
        <path id="Path_4615" data-name="Path 4615" d="M841.054,2178.423l-18.677,1.257a.949.949,0,0,1-1.013-.947v-32.711a.949.949,0,0,1,.945-.949l18.745-.076Z" transform="translate(-821.364 -2144.997)" fill="#d8dee8"/>
        <path id="Path_4616" data-name="Path 4616" d="M1368.905,2446.006l-19.678.692v-1.99l19.678-.617Z" transform="translate(-1325.096 -2430.418)" fill="#d8dee8"/>
        <path id="Path_4617" data-name="Path 4617" d="M1368.905,2514.633l-19.678.814v-1.99l19.678-.739Z" transform="translate(-1325.096 -2495.908)" fill="#d8dee8"/>
        <path id="Path_4618" data-name="Path 4618" d="M974.057,2463.4l-11.3.385V2462.3l11.3-.354Z" transform="translate(-956.293 -2447.459)" fill="#fff"/>
        <path id="Path_4619" data-name="Path 4619" d="M974.057,2515.586l-11.3.436v-1.487l11.3-.4Z" transform="translate(-956.293 -2497.255)" fill="#fff"/>
        <path id="Path_4620" data-name="Path 4620" d="M974.057,2567.768l-11.3.487v-1.487l11.3-.456Z" transform="translate(-956.293 -2547.051)" fill="#fff"/>
        <path id="Path_4621" data-name="Path 4621" d="M974.057,2619.949l-11.3.538V2619l11.3-.507Z" transform="translate(-956.293 -2596.848)" fill="#fff"/>
        <path id="Path_4622" data-name="Path 4622" d="M1357.922,2593.821l-8.7.414v-1.99l8.7-.381Z" transform="translate(-1325.096 -2571.436)" fill="#d8dee8"/>
        <g id="Group_1659" data-name="Group 1659" transform="translate(31.426 3.631)">
          <path id="Path_4623" data-name="Path 4623" d="M1508.817,2291.639v2.989a1.545,1.545,0,0,0,1.621,1.522l2.217-.058a1.623,1.623,0,0,0,1.6-1.59v-2.958Zm2.042,3.09.412-1.249a.539.539,0,0,1-.3-.479.578.578,0,0,1,.574-.566.551.551,0,0,1,.573.543.566.566,0,0,1-.3.491l.411,1.228Z" transform="translate(-1508.817 -2288.477)" fill="#d8dee8"/>
          <path id="Path_4624" data-name="Path 4624" d="M1517.987,2227.244a.412.412,0,0,1-.426-.406,1.6,1.6,0,0,0-1.647-1.572,1.66,1.66,0,0,0-1.658,1.625.433.433,0,0,1-.432.424.417.417,0,0,1-.433-.41,2.522,2.522,0,0,1,2.523-2.469,2.426,2.426,0,0,1,2.5,2.389A.428.428,0,0,1,1517.987,2227.244Z" transform="translate(-1513.182 -2224.435)" fill="#d8dee8"/>
        </g>
      </g>
      <path id="Path_4625" data-name="Path 4625" d="M774.414,2135.788l48.907-3.6.249-.018a1.319,1.319,0,0,0,.866-.438A10.96,10.96,0,0,1,817.32,2129c-2.832-2.591-2.341-5.147-5.394-6.851-3.809-2.125-6.8.568-9.694-2.089-1.752-1.611-.892-2.812-3.048-5.22-2.388-2.666-3.943-1.77-6.343-4.169-3.035-3.034-1.517-5.4-4.131-7.574-3.171-2.643-6.591-.2-9.61-2.731a7.718,7.718,0,0,1-2.389-4.372h-2.3a1.626,1.626,0,0,0-1.595,1.655v36.6A1.49,1.49,0,0,0,774.414,2135.788Z" transform="translate(-772.035 -2095.992)" fill="#fff" opacity="0.48" style="mix-blend-mode: soft-light;isolation: isolate"/>
    </g>
    <g id="Group_1663" data-name="Group 1663" transform="translate(495.857 501.092)">
      <path id="Path_4626" data-name="Path 4626" d="M1498.226,1531.615a7.144,7.144,0,0,1-3.888-1.005,75.171,75.171,0,0,1-13.508-10.238c-5.985-5.835-9.424-11.766-10.177-17.59l-.012-.091-.146-24.851c0-4.911,3.2-8.9,9.218-11.518,4.969-2.164,11.555-3.237,18.513-3.036,6.877.2,13.24,1.618,17.95,3.982,5.6,2.81,8.536,6.76,8.536,11.443l-.133,23.746-.011.087c-.687,5.577-3.852,11.342-9.444,17.172a78,78,0,0,1-13.036,10.677A7.4,7.4,0,0,1,1498.226,1531.615Z" transform="translate(-1470.495 -1463.262)" fill="#10b5df"/>
      <path id="Path_4627" data-name="Path 4627" d="M1535.727,1531.615a6.978,6.978,0,0,1-3.836-1.005,74.269,74.269,0,0,1-13.33-10.238c-5.906-5.835-9.3-11.766-10.042-17.59l-.012-.091-.144-24.851c0-4.911,3.161-8.9,9.1-11.518,4.9-2.164,11.4-3.237,18.268-3.036,6.786.2,13.065,1.618,17.713,3.982,5.525,2.81,8.424,6.76,8.424,11.443l-.131,23.746-.011.087c-.678,5.577-3.8,11.342-9.319,17.172a77.183,77.183,0,0,1-12.864,10.677A7.235,7.235,0,0,1,1535.727,1531.615Z" transform="translate(-1506.632 -1463.262)" fill="#0f8faf"/>
      <path id="Path_4628" data-name="Path 4628" d="M1544.256,1509.722l.145,24.726c1.628,12.616,16.454,22.83,22.911,26.71a5.7,5.7,0,0,0,6.052-.163c6.323-4.16,20.337-14.634,21.834-26.764l.133-23.68C1595.331,1492.983,1544.256,1491.377,1544.256,1509.722Z" transform="translate(-1540.884 -1495.127)" fill="url(#linear-gradient-19)"/>
      <path id="Path_4629" data-name="Path 4629" d="M1672.545,1653.721a.882.882,0,0,1-.478-.127,70.187,70.187,0,0,1-12.3-9.387c-4.843-4.757-7.636-9.383-8.277-13.727l-.142-24.316c.006-2.333,1.853-4.33,5.473-5.928,4.042-1.784,9.781-2.72,15.721-2.579,5.881.14,11.453,1.323,15.313,3.239,3.414,1.694,5.141,3.692,5.146,5.944l-.132,23.475c-.6,4.2-3.219,8.736-7.823,13.5a72.911,72.911,0,0,1-12.026,9.757A.913.913,0,0,1,1672.545,1653.721Z" transform="translate(-1643.083 -1591.501)" fill="url(#linear-gradient-20)"/>
      <path id="Path_4630" data-name="Path 4630" d="M1693.154,1684.1a68.2,68.2,0,0,1-11.626-8.947c-4.551-4.479-7.185-8.778-7.8-12.755l-.141-24.175c0-1.668,1.538-3.2,4.546-4.53,3.829-1.7,9.314-2.589,15.025-2.46,5.656.127,10.988,1.244,14.652,3.057,2.847,1.409,4.287,2.945,4.291,4.572l-.132,23.388c-.581,3.859-3.065,8.079-7.41,12.567A70.827,70.827,0,0,1,1693.154,1684.1Z" transform="translate(-1664.299 -1623.546)" fill="#f4f7fa"/>
      <g id="Group_1662" data-name="Group 1662" transform="translate(17.859 17.575)">
        <path id="Path_4631" data-name="Path 4631" d="M1881.768,2095.582l-18.081.161a2.491,2.491,0,0,0-2.522,2.42v11.585a2.335,2.335,0,0,0,2.513,2.279l18.017-.738a2.426,2.426,0,0,0,2.328-2.37l.057-11.067A2.266,2.266,0,0,0,1881.768,2095.582Z" transform="translate(-1861.165 -2084.251)" fill="url(#linear-gradient-21)"/>
        <path id="Path_4632" data-name="Path 4632" d="M2070.583,2194.746a2.239,2.239,0,0,0-2.435-2.206,2.391,2.391,0,0,0-2.239,2.184,2.179,2.179,0,0,0,1.166,2.058.807.807,0,0,1,.405.862l-.522,2.927a.588.588,0,0,0,.618.686l1.323-.046a.637.637,0,0,0,.617-.726l-.506-2.9a.863.863,0,0,1,.431-.878A2.312,2.312,0,0,0,2070.583,2194.746Z" transform="translate(-2056.546 -2176.772)" fill="url(#linear-gradient-20)"/>
        <path id="Path_4633" data-name="Path 4633" d="M1917.966,1857.9a.965.965,0,0,1-.98-.964l.011-2.523a4.689,4.689,0,0,0-4.7-4.646l-5.9-.059a4.8,4.8,0,0,0-4.927,4.7l0,2.6a1.036,1.036,0,0,1-1.052,1.008,1.023,1.023,0,0,1-1.055-1V1854.4a6.826,6.826,0,0,1,7.04-6.684l5.9.082a6.672,6.672,0,0,1,6.655,6.613l-.012,2.513A.986.986,0,0,1,1917.966,1857.9Z" transform="translate(-1897.617 -1847.718)" fill="url(#linear-gradient-23)"/>
      </g>
    </g>
    <g id="Group_1666" data-name="Group 1666" transform="translate(530.052 499.489)">
      <g id="Group_1665" data-name="Group 1665">
        <path id="Path_4634" data-name="Path 4634" d="M2224.172,1835.632l-1.418-1.547a5.255,5.255,0,0,0-1.261-1.087c-1.14-.7-2.71-1.042-2.945-.643-.267.453,1.224,1.8,1.732,2.238l2.1,1.528Z" transform="translate(-2218.516 -1813.717)" fill="url(#linear-gradient-24)"/>
        <path id="Path_4635" data-name="Path 4635" d="M2772.077,1677.6c.385.145,6.257,2.481,7.464,8.609.1.495,1.041,5.76-2.53,9.48-4,4.171-11.714,4.068-14.774.581a6.249,6.249,0,0,1-1.3-2.472h0l.806-2.142a5.25,5.25,0,0,1,3.039-1.646c1.764-.435,3.1.351,4.106-.5a2.661,2.661,0,0,0,.769-1.753c.338-2.061-.825-3.329-.91-4.6-.063-.95-.4-3.032.844-4.389A4,4,0,0,1,2772.077,1677.6Z" transform="translate(-2736.139 -1666.195)" fill="url(#linear-gradient-25)"/>
        <path id="Path_4636" data-name="Path 4636" d="M3054.661,3161.911c.069-.377,1.287-.719,1.89-.213.3.251.506.76.332.989-.063.084.2.23-.052.233C3056.011,3162.93,3054.594,3162.286,3054.661,3161.911Z" transform="translate(-3016.435 -3082.209)" fill="url(#linear-gradient-26)"/>
        <path id="Path_4637" data-name="Path 4637" d="M3071.112,3109.928l1.253-.177c-.581-.7-.473-2.925-.473-2.925l-1.333.3s.152.611.41,1.512A5.908,5.908,0,0,1,3071.112,3109.928Z" transform="translate(-3031.609 -3030.088)" fill="url(#linear-gradient-27)"/>
        <path id="Path_4638" data-name="Path 4638" d="M3079.765,3167.758s1.508-.348,1.672-.048.29,1.1-.667,1.074S3079.679,3168.011,3079.765,3167.758Z" transform="translate(-3040.373 -3088.072)" fill="url(#linear-gradient-28)"/>
        <path id="Path_4639" data-name="Path 4639" d="M2678.443,3195.726c.121-.364,1.375-.531,1.9.053.261.29.395.823.191,1.026-.074.074.161.255-.084.224C2679.637,3196.924,2678.323,3196.088,2678.443,3195.726Z" transform="translate(-2657.411 -3114.609)" fill="url(#linear-gradient-29)"/>
        <path id="Path_4640" data-name="Path 4640" d="M2702.616,3147.672h1.266c-.477-.773-.059-2.962-.059-2.962l-1.361.108s.065.626.194,1.555A5.9,5.9,0,0,1,2702.616,3147.672Z" transform="translate(-2680.339 -3066.24)" fill="url(#linear-gradient-30)"/>
        <path id="Path_4641" data-name="Path 4641" d="M2584.461,2141.191a58.6,58.6,0,0,0-1.962,8.98c-1.537,11.182,1.73,11.539,1.12,23.929-.195,3.955,3.427,13.075,3.746,13.277a3.9,3.9,0,0,0,.5.02,5,5,0,0,0,1.275-.212c.574-.1,2.642-5.7,2.162-9.032-.339-2.357-.241-4.887-.044-9.947.032-.82,2.13-15.95,2.13-15.95h0c.638,5.6,1.372,10.359,2.008,14.048,2.044,11.854,8.689,19.028,9.036,19.144a1.407,1.407,0,0,0,1.2-.082.831.831,0,0,0,.3-.343,97.466,97.466,0,0,0-2.079-20.636c-2.942-12.775-1.661-15.765-2.593-21.471C2600.459,2137.979,2584.461,2141.191,2584.461,2141.191Z" transform="translate(-2565.463 -2107.617)" fill="url(#linear-gradient-31)"/>
        <path id="Path_4642" data-name="Path 4642" d="M2617.193,1652.749c-1.954-.057-6.443-.747-8.916,1.478-.043.038.463.309.214.6a16.172,16.172,0,0,0-1.746,2.505,16.84,16.84,0,0,0-1.468,3.63,31.207,31.207,0,0,0-1.158,6.333c-.452,5.945,0,8.688.4,10.553a20.578,20.578,0,0,0,11.74,1.724,18.328,18.328,0,0,0,5.853-1.928c-1.407-4.26-.3-6.54.218-8.641.743-3,.754-2.769,1.366-5.149,1.009-3.927,1.174-7.94.481-8.761C2622.31,1652.881,2618.942,1652.8,2617.193,1652.749Z" transform="translate(-2586.311 -1642.345)" fill="url(#linear-gradient-32)"/>
        <path id="Path_4643" data-name="Path 4643" d="M2702.859,3205.251s1.542-.133,1.662.186.133,1.13-.811.971S2702.74,3205.49,2702.859,3205.251Z" transform="translate(-2680.67 -3123.988)" fill="url(#linear-gradient-33)"/>
        <g id="Group_1664" data-name="Group 1664" transform="translate(24.178)">
          <path id="Path_4644" data-name="Path 4644" d="M2748.624,1511.592a3.4,3.4,0,0,1-.275-2.444c.255-1.057.349-1.218.545-1.441l.277-.293.036-.025a3.964,3.964,0,0,1,1.069-.356c.5-.025,1.508,1.756,2.087,4.5.047.1.094.2.14.3.287.623.534,1.235.745,1.833,3.357.284,3.823.678,3.838.905.031.479-1.882,1.032-3.32,1.243-3.138.459-6.363-.368-6.348-.953.006-.255.63-.587,3.29-.935l-.187-1.32A2.991,2.991,0,0,1,2748.624,1511.592Z" transform="translate(-2747.418 -1503.427)" fill="url(#linear-gradient-34)"/>
          <path id="Path_4645" data-name="Path 4645" d="M2757.781,1431.666a3.26,3.26,0,0,0,1.1,1.719,1.449,1.449,0,0,1,.392.251.44.44,0,0,1,.074.086c.325.48-.35,1.326-.125,1.519.163.141.673-.241.781-.111s-.3.538-.179.686c.088.111.35-.082.586.062.117.072.111.155.286.424a2.745,2.745,0,0,0,.312.4c.421.415,1.29.376,1.4.137.029-.067-.021-.1-.025-.3a1.525,1.525,0,0,1,.062-.411,3.956,3.956,0,0,1,.785-1.047,2.81,2.81,0,0,0,.722-1.457c.007-.063.01-.109.011-.142a3.227,3.227,0,0,0-.634-2.064c-.715-.811-1.647-.087-2.754-.785-1.277-.8-1.076-2.424-1.657-2.442C2758.274,1428.17,2757.362,1430.117,2757.781,1431.666Z" transform="translate(-2757.206 -1428.19)" fill="url(#linear-gradient-35)"/>
          <path id="Path_4646" data-name="Path 4646" d="M2794.253,1572.572c.13-.337.562-.168.662.2a.69.69,0,0,1-.516.859C2794.036,1573.647,2794.078,1573.026,2794.253,1572.572Z" transform="translate(-2791.988 -1565.798)" fill="url(#linear-gradient-36)"/>
        </g>
        <path id="Path_4647" data-name="Path 4647" d="M2985.777,1917.091a.046.046,0,0,1-.045-.041,11.887,11.887,0,0,1,.583-4.959c.094-.327.181-.636.258-.946.422-1.7.607-2.36.8-3.056.127-.452.258-.919.462-1.7a.045.045,0,1,1,.088.023c-.2.782-.335,1.25-.462,1.7-.2.7-.38,1.352-.8,3.053-.077.311-.165.621-.259.949a11.807,11.807,0,0,0-.58,4.924.046.046,0,0,1-.04.05Z" transform="translate(-2950.597 -1884.496)" fill="#9b305e"/>
        <path id="Path_4648" data-name="Path 4648" d="M2762.991,1562.028l-.312.748s-.312.9-.722.561c-.336-.275-.4-.25-.409-.232s0,.008,0,.008-.009-.179-.012-.337a2.884,2.884,0,0,0-.174.984,1.6,1.6,0,0,0,.324,1.2,1.233,1.233,0,0,0,.847.361,3.254,3.254,0,0,0,.9-.336,4.333,4.333,0,0,1-1.022-.511c-.136-.373.339-.72.523-1.608A3.25,3.25,0,0,0,2762.991,1562.028Z" transform="translate(-2736.543 -1555.91)" fill="url(#linear-gradient-37)"/>
        <path id="Path_4649" data-name="Path 4649" d="M2298.3,1692.7a3.912,3.912,0,0,0-1.281,1.594,11.842,11.842,0,0,0,4.135,5.151,12.173,12.173,0,0,0,13.941-.292c4.877-3.726,5.692-10.872,3.644-13.932a3.414,3.414,0,0,0-2.215-1.643c-.76-.084-1.795.23-3.43,2.144-3.406,3.988-2.2,6.478-4.215,7.645C2305.866,1695.117,2301.382,1690.548,2298.3,1692.7Z" transform="translate(-2293.434 -1671.892)" fill="url(#linear-gradient-38)"/>
        <path id="Path_4650" data-name="Path 4650" d="M2624.469,1913.034a.046.046,0,0,1-.01-.09c.048-.01,4.78-1.1,6.911-6.98a.046.046,0,0,1,.086.031,11.64,11.64,0,0,1-4.3,5.766,8.5,8.5,0,0,1-2.676,1.271Z" transform="translate(-2605.868 -1884.095)" fill="#9b305e"/>
      </g>
    </g>
    <path id="Path_4651" data-name="Path 4651" d="M2575.008,862.461l-.691.006a4.955,4.955,0,0,0-.244-.873l.6-.337a.324.324,0,0,0,.125-.451l-.591-.982a.349.349,0,0,0-.468-.118l-.606.34a5.294,5.294,0,0,0-.666-.634l.352-.587a.323.323,0,0,0-.126-.451l-1.029-.568a.353.353,0,0,0-.471.122l-.354.589a5.577,5.577,0,0,0-.912-.228v-.682a.338.338,0,0,0-.346-.331l-1.2,0a.341.341,0,0,0-.347.333v.683a5.648,5.648,0,0,0-.917.236l-.357-.589a.357.357,0,0,0-.476-.12l-1.044.578a.325.325,0,0,0-.128.456l.358.589a5.44,5.44,0,0,0-.677.647l-.619-.337a.362.362,0,0,0-.479.125l-.606,1a.324.324,0,0,0,.128.455l.615.333a5.046,5.046,0,0,0-.25.887l-.71.006a.347.347,0,0,0-.352.337v1.154a.339.339,0,0,0,.352.331l.7-.007a4.956,4.956,0,0,0,.246.888l-.605.339a.327.327,0,0,0-.128.458l.606.991a.358.358,0,0,0,.479.116l.6-.339a5.309,5.309,0,0,0,.683.644l-.346.575a.322.322,0,0,0,.128.453l1.044.559a.361.361,0,0,0,.476-.129l.342-.57a5.585,5.585,0,0,0,.933.223v.653a.333.333,0,0,0,.347.326l1.2-.02a.345.345,0,0,0,.346-.337v-.652a5.653,5.653,0,0,0,.927-.25l.339.557a.349.349,0,0,0,.471.114l1.029-.587a.327.327,0,0,0,.126-.453l-.34-.561a5.426,5.426,0,0,0,.671-.656l.589.319a.353.353,0,0,0,.468-.127l.591-.993a.321.321,0,0,0-.125-.449l-.59-.321a5.047,5.047,0,0,0,.241-.882l.685-.007a.34.34,0,0,0,.342-.333v-1.137A.332.332,0,0,0,2575.008,862.461Zm-6.024-2.381a3.389,3.389,0,0,1,3.486,3.317,3.466,3.466,0,0,1-3.486,3.382,3.389,3.389,0,0,1-3.514-3.317A3.466,3.466,0,0,1,2568.984,860.08Z" transform="translate(-2016.745 -383.886)" fill="#fff"/>
  </g>
</svg>
