<svg xmlns="http://www.w3.org/2000/svg" width="22.205" height="27.201" viewBox="0 0 22.205 27.201">
  <g id="startup" transform="translate(-2.564 13.666) rotate(-45)">
    <g id="Group_3429" data-name="Group 3429" transform="translate(9.497 9.074)">
      <g id="Group_3428" data-name="Group 3428">
        <path id="Path_6783" data-name="Path 6783" d="M252.232,240.529a.378.378,0,1,0,0,.534A.377.377,0,0,0,252.232,240.529Z" transform="translate(-251.587 -240.418)" fill="#10b5df"/>
      </g>
    </g>
    <g id="Group_3431" data-name="Group 3431" transform="translate(11.725 3.828)">
      <g id="Group_3430" data-name="Group 3430">
        <path id="Path_6784" data-name="Path 6784" d="M313.824,101.969a1.887,1.887,0,1,0,0,2.669A1.886,1.886,0,0,0,313.824,101.969Zm-.534,2.135a1.132,1.132,0,1,1,0-1.6A1.134,1.134,0,0,1,313.29,104.1Z" transform="translate(-310.603 -101.415)" fill="#10b5df"/>
      </g>
    </g>
    <g id="Group_3433" data-name="Group 3433" transform="translate(3.626 0)">
      <g id="Group_3432" data-name="Group 3432" transform="translate(0 0)">
        <path id="Path_6785" data-name="Path 6785" d="M111.609.11a.376.376,0,0,0-.28-.11A16.768,16.768,0,0,0,106.8.939,12.637,12.637,0,0,0,102,3.847c-.279.279-.551.575-.811.883a2.766,2.766,0,0,0-2.844-.164,5.346,5.346,0,0,0-2.327,4.352.378.378,0,0,0,.644.267,2.4,2.4,0,0,1,2-.67l.132.132a13.276,13.276,0,0,0-.623,1.833,1.068,1.068,0,0,0,.046.656,3.575,3.575,0,0,0-1.019.719c-.972.972-1.169,3.34-1.177,3.44a.377.377,0,0,0,.376.407h.03c.1-.008,2.468-.205,3.44-1.177a3.574,3.574,0,0,0,.719-1.019,1.066,1.066,0,0,0,.656.045,13.277,13.277,0,0,0,1.833-.623l.132.132a2.4,2.4,0,0,1-.67,2,.377.377,0,0,0,.267.644,5.346,5.346,0,0,0,4.352-2.327,2.766,2.766,0,0,0-.164-2.844c.308-.26.6-.532.883-.811a12.638,12.638,0,0,0,2.908-4.8,16.767,16.767,0,0,0,.938-4.533A.377.377,0,0,0,111.609.11Zm-14.747,8A4.361,4.361,0,0,1,98.7,5.232a2.011,2.011,0,0,1,2.01.095,15.261,15.261,0,0,0-1.586,2.585.4.4,0,0,0-.2-.117A3.226,3.226,0,0,0,96.862,8.106Zm2.469,5.883a5.139,5.139,0,0,1-2.506.9,5.139,5.139,0,0,1,.9-2.506,2.72,2.72,0,0,1,.966-.635l1.27,1.27A2.72,2.72,0,0,1,99.331,13.989Zm1.721-1.171a.354.354,0,0,1-.33-.107l-.739-.739L99.008,11a.354.354,0,0,1-.107-.33,12.255,12.255,0,0,1,.471-1.442l3.121,3.121A12.248,12.248,0,0,1,101.052,12.818Zm5.435.2a4.361,4.361,0,0,1-2.874,1.839,3.213,3.213,0,0,0,.309-2.073.394.394,0,0,0-.115-.191,15.267,15.267,0,0,0,2.585-1.586A2.011,2.011,0,0,1,106.488,13.018Zm.851-3.833a13.7,13.7,0,0,1-1.089.977,14.5,14.5,0,0,1-3.009,1.865L99.692,8.478a14.5,14.5,0,0,1,1.865-3.009,13.7,13.7,0,0,1,.977-1.089,11.769,11.769,0,0,1,4.29-2.649l3.163,3.163A11.769,11.769,0,0,1,107.338,9.185Zm2.92-5.087L107.621,1.46a16.97,16.97,0,0,1,3.312-.674A16.971,16.971,0,0,1,110.259,4.1Z" transform="translate(-96.018 0)" fill="#10b5df"/>
      </g>
    </g>
    <g id="Group_3435" data-name="Group 3435" transform="translate(7.362 15.48)">
      <g id="Group_3434" data-name="Group 3434">
        <path id="Path_6786" data-name="Path 6786" d="M196.732,410.232a.377.377,0,0,0-.534,0l-1.067,1.068a.377.377,0,1,0,.534.534l1.067-1.068A.377.377,0,0,0,196.732,410.232Z" transform="translate(-195.021 -410.121)" fill="#10b5df"/>
      </g>
    </g>
    <g id="Group_3437" data-name="Group 3437" transform="translate(2.024 10.142)">
      <g id="Group_3436" data-name="Group 3436">
        <path id="Path_6787" data-name="Path 6787" d="M55.3,268.812a.377.377,0,0,0-.534,0L53.7,269.879a.377.377,0,1,0,.534.534l1.068-1.067A.377.377,0,0,0,55.3,268.812Z" transform="translate(-53.592 -268.701)" fill="#10b5df"/>
      </g>
    </g>
    <g id="Group_3439" data-name="Group 3439" transform="translate(3.204 16.014)">
      <g id="Group_3438" data-name="Group 3438">
        <path id="Path_6788" data-name="Path 6788" d="M88.053,424.382a.377.377,0,0,0-.534,0l-2.557,2.556a.377.377,0,1,0,.534.534l2.557-2.556A.377.377,0,0,0,88.053,424.382Z" transform="translate(-84.851 -424.271)" fill="#10b5df"/>
      </g>
    </g>
    <g id="Group_3441" data-name="Group 3441" transform="translate(0.184 16.014)">
      <g id="Group_3440" data-name="Group 3440">
        <path id="Path_6789" data-name="Path 6789" d="M8.053,424.382a.378.378,0,0,0-.534,0l-2.557,2.556a.377.377,0,1,0,.534.534l2.557-2.556A.377.377,0,0,0,8.053,424.382Z" transform="translate(-4.851 -424.271)" fill="#10b5df"/>
      </g>
    </g>
    <g id="Group_3443" data-name="Group 3443" transform="translate(0.001 12.811)">
      <g id="Group_3442" data-name="Group 3442" transform="translate(0)">
        <path id="Path_6790" data-name="Path 6790" d="M3.2,339.521a.377.377,0,0,0-.534,0L.112,342.078a.377.377,0,0,0,.534.534L3.2,340.055A.377.377,0,0,0,3.2,339.521Z" transform="translate(-0.001 -339.41)" fill="#10b5df"/>
      </g>
    </g>
    <g id="Group_3445" data-name="Group 3445" transform="translate(10.565 7.473)">
      <g id="Group_3444" data-name="Group 3444">
        <path id="Path_6791" data-name="Path 6791" d="M281.049,198.1a.377.377,0,0,0-.534,0l-.534.534a.377.377,0,0,0,.534.534l.534-.534A.377.377,0,0,0,281.049,198.1Z" transform="translate(-279.871 -197.99)" fill="#10b5df"/>
      </g>
    </g>
  </g>
</svg>
