<svg xmlns="http://www.w3.org/2000/svg" xmlns:xlink="http://www.w3.org/1999/xlink" width="197.172" height="196.001" viewBox="0 0 197.172 196.001">
  <defs>
    <linearGradient id="linear-gradient" x1="1.091" y1="1.163" x2="0.386" y2="0.408" gradientUnits="objectBoundingBox">
      <stop offset="0" stop-color="#dae3fe"/>
      <stop offset="1" stop-color="#e9effd"/>
    </linearGradient>
    <linearGradient id="linear-gradient-2" y1="0.5" x2="1" y2="0.5" gradientUnits="objectBoundingBox">
      <stop offset="0" stop-color="#09005d"/>
      <stop offset="1" stop-color="#1a0f91"/>
    </linearGradient>
    <linearGradient id="linear-gradient-3" x1="1.323" y1="0.021" x2="0.034" y2="0.708" gradientUnits="objectBoundingBox">
      <stop offset="0" stop-color="#4f52ff"/>
      <stop offset="1" stop-color="#4042e2"/>
    </linearGradient>
    <linearGradient id="linear-gradient-4" x1="0.571" y1="0.385" x2="-2.067" y2="3.776" xlink:href="#linear-gradient-3"/>
    <linearGradient id="linear-gradient-6" x1="0.168" y1="0.318" x2="2.168" y2="0.866" xlink:href="#linear-gradient-2"/>
    <linearGradient id="linear-gradient-7" x1="1.406" y1="0.512" x2="5.004" y2="0.56" xlink:href="#linear-gradient-2"/>
    <linearGradient id="linear-gradient-8" x1="-9.109" y1="0.5" x2="-8.109" y2="0.5" xlink:href="#linear-gradient-2"/>
    <linearGradient id="linear-gradient-9" x1="-22.236" y1="0.318" x2="-20.236" y2="0.866" xlink:href="#linear-gradient-2"/>
    <linearGradient id="linear-gradient-10" x1="-156.808" y1="0.512" x2="-153.21" y2="0.56" xlink:href="#linear-gradient-2"/>
    <linearGradient id="linear-gradient-11" y1="0.5" x2="1" y2="0.5" gradientUnits="objectBoundingBox">
      <stop offset="0" stop-color="#febbba"/>
      <stop offset="1" stop-color="#ff928e"/>
    </linearGradient>
    <linearGradient id="linear-gradient-13" x1="0.508" y1="1.162" x2="0.501" y2="0.545" xlink:href="#linear-gradient-3"/>
    <linearGradient id="linear-gradient-14" x1="0.539" y1="-0.093" x2="0.506" y2="0.69" xlink:href="#linear-gradient-3"/>
    <linearGradient id="linear-gradient-16" x1="1.872" y1="-1.669" x2="0.597" y2="0.314" xlink:href="#linear-gradient-3"/>
    <linearGradient id="linear-gradient-17" x1="0.953" y1="-0.153" x2="0.074" y2="1.115" xlink:href="#linear-gradient-3"/>
    <linearGradient id="linear-gradient-18" x1="0.411" y1="0.932" x2="0.634" y2="-0.163" gradientUnits="objectBoundingBox">
      <stop offset="0" stop-color="#0f8faf"/>
      <stop offset="1" stop-color="#10b5df"/>
    </linearGradient>
    <linearGradient id="linear-gradient-19" x1="0.864" y1="-0.394" x2="0.318" y2="0.974" xlink:href="#linear-gradient-18"/>
    <linearGradient id="linear-gradient-20" x1="0.516" y1="-9.336" x2="0.508" y2="-4.75" xlink:href="#linear-gradient-18"/>
    <clipPath id="clip-path">
      <path id="Path_4266" data-name="Path 4266" d="M1033.844,1176.974l52.68-43.874a1.2,1.2,0,0,0-.656-2.119c-.37-.037-4.55-49.747-4.934-49.726l-98.032,9.1c-1.233.069-3.944,46.806-4.934,47.407a1.2,1.2,0,0,0-.176,1.9l39.689,36.911A12.659,12.659,0,0,0,1033.844,1176.974Z" transform="translate(-977.407 -1081.256)" fill="none"/>
    </clipPath>
    <linearGradient id="linear-gradient-21" x1="0.657" y1="-0.028" x2="0.33" y2="1.17" gradientUnits="objectBoundingBox">
      <stop offset="0" stop-color="#ff928e"/>
      <stop offset="1" stop-color="#fe7062"/>
    </linearGradient>
    <linearGradient id="linear-gradient-22" x1="0.5" y1="-8.27" x2="0.5" y2="-5.631" gradientUnits="objectBoundingBox">
      <stop offset="0" stop-color="#e1473d"/>
      <stop offset="1" stop-color="#e9605a"/>
    </linearGradient>
    <linearGradient id="linear-gradient-23" x1="0.5" y1="-5.74" x2="0.5" y2="-3.237" xlink:href="#linear-gradient-22"/>
    <linearGradient id="linear-gradient-24" x1="0.5" y1="-7.373" x2="0.5" y2="-4.985" xlink:href="#linear-gradient-22"/>
    <linearGradient id="linear-gradient-25" x1="0.5" y1="-6.663" x2="0.5" y2="-3.835" xlink:href="#linear-gradient-22"/>
    <linearGradient id="linear-gradient-26" x1="0.5" y1="-3.087" x2="0.5" y2="-1.862" xlink:href="#linear-gradient-22"/>
    <linearGradient id="linear-gradient-27" x1="0.443" y1="0.025" x2="0.574" y2="1.573" xlink:href="#linear-gradient-18"/>
    <linearGradient id="linear-gradient-28" x1="0.422" y1="-0.02" x2="0.7" y2="1.608" xlink:href="#linear-gradient-18"/>
    <linearGradient id="linear-gradient-29" x1="-11.663" y1="0.5" x2="-10.663" y2="0.5" xlink:href="#linear-gradient-2"/>
    <linearGradient id="linear-gradient-30" x1="-11.14" y1="-42.682" x2="-11.288" y2="-13.23" gradientUnits="objectBoundingBox">
      <stop offset="0" stop-color="#53d8ff"/>
      <stop offset="1" stop-color="#3840f7"/>
    </linearGradient>
    <linearGradient id="linear-gradient-31" x1="-30.227" y1="-0.843" x2="-30.734" y2="2.39" xlink:href="#linear-gradient-11"/>
    <linearGradient id="linear-gradient-32" x1="-7.423" y1="-39.924" x2="-7.524" y2="-11.71" xlink:href="#linear-gradient-30"/>
    <linearGradient id="linear-gradient-33" x1="-8.102" y1="0.5" x2="-7.102" y2="0.5" xlink:href="#linear-gradient-2"/>
    <linearGradient id="linear-gradient-34" x1="-26.311" y1="-1.316" x2="-26.791" y2="1.399" xlink:href="#linear-gradient-11"/>
    <linearGradient id="linear-gradient-35" x1="0.484" y1="0.526" x2="1.93" y2="-0.715" xlink:href="#linear-gradient-2"/>
    <linearGradient id="linear-gradient-36" x1="2.065" y1="-1.35" x2="1.229" y2="-0.408" xlink:href="#linear-gradient-21"/>
    <linearGradient id="linear-gradient-37" x1="0.699" y1="-0.143" x2="-0.009" y2="2.143" xlink:href="#linear-gradient-11"/>
    <linearGradient id="linear-gradient-38" x1="0.447" y1="0.412" x2="-0.055" y2="3.293" xlink:href="#linear-gradient-11"/>
    <linearGradient id="linear-gradient-39" x1="1.987" y1="-0.97" x2="1.326" y2="-0.359" xlink:href="#linear-gradient-21"/>
    <linearGradient id="linear-gradient-40" x1="3.246" y1="-3.101" x2="2.063" y2="-1.609" xlink:href="#linear-gradient-21"/>
    <linearGradient id="linear-gradient-41" x1="0.54" y1="1.217" x2="0.415" y2="-0.22" xlink:href="#linear-gradient-11"/>
    <linearGradient id="linear-gradient-42" x1="2.333" y1="0.199" x2="5.139" y2="-0.265" xlink:href="#linear-gradient-11"/>
    <linearGradient id="linear-gradient-43" x1="-35.108" y1="-22.139" x2="-34.019" y2="-22.139" xlink:href="#linear-gradient-2"/>
    <linearGradient id="linear-gradient-44" x1="-50.362" y1="15.247" x2="-57.266" y2="18.44" xlink:href="#linear-gradient-11"/>
    <linearGradient id="linear-gradient-45" x1="-28.123" y1="9.144" x2="-25.101" y2="10.916" xlink:href="#linear-gradient-11"/>
    <linearGradient id="linear-gradient-46" x1="-13.935" y1="8.991" x2="-12.29" y2="10.951" xlink:href="#linear-gradient-11"/>
    <linearGradient id="linear-gradient-47" x1="0.244" y1="0.957" x2="0.656" y2="0.003" xlink:href="#linear-gradient-21"/>
  </defs>
  <g id="Group_1583" data-name="Group 1583" transform="translate(-446.635 -455)">
    <path id="Path_4225" data-name="Path 4225" d="M629.745,621.627a74.623,74.623,0,0,1-13.11,10.629c-33.953,22.643-72.764,16.116-84.764,13.886-19.36-3.6-35.7-6.138-49.743-18.808-31.905-28.79-30.354-88.847-5.974-126.05,2.891-4.411,27.233-40.45,66.129-45.528.951-.124,1.661-.2,2.283-.261,6.017-.636,43.3-3.995,73.707,21.446a90.623,90.623,0,0,1,17.851,20.229C659.871,533.8,659.947,590.535,629.745,621.627Z" transform="translate(-10.57 0)" fill="url(#linear-gradient)"/>
    <g id="Group_1436" data-name="Group 1436" transform="translate(591.115 458.145)">
      <path id="Path_4226" data-name="Path 4226" d="M2510.707,626.772s-2.287-76.158,17.629-124.357c1.339-3.24,5.106-3.337,6.636-.16C2545.209,523.5,2570.578,589.721,2510.707,626.772Z" transform="translate(-2510.627 -499.928)" fill="#bdd0fb"/>
      <path id="Path_4227" data-name="Path 4227" d="M2579.848,940.361c-.1.216.146.427.272.231,4.7-7.25,21.588-40.93,18.147-96.389-.011-.178-.23-.179-.231,0C2597.922,857.345,2596.345,906.168,2579.848,940.361Z" transform="translate(-2574.98 -819.979)" fill="#fff" opacity="0.5"/>
    </g>
    <g id="Group_1437" data-name="Group 1437" transform="translate(607.563 498.117)">
      <path id="Path_4228" data-name="Path 4228" d="M2747.725,1181.227s-5.612-12.977,1.378-31.911c6.485-17.567,23.222-59,22.951-77.578a.76.76,0,0,1,1.448-.341,93.246,93.246,0,0,1,6.867,55.09C2774.284,1160.467,2747.725,1181.227,2747.725,1181.227Z" transform="translate(-2745.594 -1070.959)" fill="#91b3fa"/>
      <path id="Path_4229" data-name="Path 4229" d="M2833.628,1317.86a32.38,32.38,0,0,1,1.166,5.736c.03.242.067.484.095.727l.066.73.132,1.461.072,1.465c.02.489.06.978.049,1.467a69.4,69.4,0,0,1-.847,11.7c-.115.974-.334,1.93-.514,2.892-.2.959-.349,1.928-.6,2.874l-.7,2.853c-.106.478-.264.943-.4,1.412l-.426,1.406-.426,1.406-.214.7-.247.692-.988,2.765c-.168.46-.322.926-.5,1.379l-.539,1.361-1.079,2.721c-1.469,3.615-2.965,7.221-4.549,10.787-.778,1.789-1.585,3.565-2.383,5.345l-2.448,5.312c-1.636,3.539-3.277,7.073-4.8,10.652-.394.89-.741,1.8-1.1,2.7-.187.449-.345.908-.511,1.364s-.337.911-.488,1.372c-.286.927-.6,1.846-.824,2.79-.271.934-.422,1.89-.6,2.844l0,.007a.118.118,0,0,1-.234-.037,34.495,34.495,0,0,1,1.264-5.732c.141-.468.306-.928.458-1.393s.3-.932.48-1.386c.341-.916.669-1.838,1.04-2.741,1.447-3.63,3.059-7.184,4.638-10.748l2.368-5.344c.785-1.783,1.58-3.561,2.345-5.352q2.323-5.36,4.508-10.776l1.074-2.716.537-1.358c.18-.452.337-.911.5-1.365l1-2.735.248-.684.217-.695.43-1.39a86,86,0,0,0,2.757-11.3,68.565,68.565,0,0,0,1.1-11.579c.022-.486-.007-.97-.006-1.457l-.02-1.457-.079-1.455-.04-.728c-.019-.243-.045-.484-.068-.726-.05-.483-.085-.969-.148-1.45l-.2-1.446a28.246,28.246,0,0,0-.577-2.86.015.015,0,0,1,.009-.019A.016.016,0,0,1,2833.628,1317.86Z" transform="translate(-2805.275 -1300.568)" fill="#fff" opacity="0.45"/>
    </g>
    <g id="Group_1439" data-name="Group 1439" transform="translate(528.059 455)">
      <path id="Path_4230" data-name="Path 4230" d="M2363.6,923.78s10.9,5.2,14.929,9.192l-15.64-.694Z" transform="translate(-2310.174 -890.965)" fill="url(#linear-gradient-2)"/>
      <path id="Path_4231" data-name="Path 4231" d="M1989.263,983.373s8.064,2.147,10.216,2.82c2.775.867,6.591,22.374,6.938,31.046s-1.24,39.371-1.24,39.371l-42.988-.056-.694-65.332,16.13-7.978Z" transform="translate(-1936.879 -946.268)" fill="#91b3fa"/>
      <path id="Path_4232" data-name="Path 4232" d="M2197.106,1144.3l7.42,44.518a3.892,3.892,0,0,1-.376,2.417l-5.438,10.618a1.4,1.4,0,0,1-2.494-.012l-5.4-10.795a3.888,3.888,0,0,1-.4-2.026l3.217-44.2Z" transform="translate(-2149.769 -1096.047)" fill="url(#linear-gradient-3)"/>
      <path id="Path_4233" data-name="Path 4233" d="M2212.77,1055.239l-.273,2.55a2,2,0,0,0,.207,1.117l.872,1.7a1.984,1.984,0,0,0,1.658,1.077c.419.023.9.041,1.364.04a1.985,1.985,0,0,0,1.859-1.307l.56-1.541a1.98,1.98,0,0,0,.092-1.016l-.484-2.807a1.985,1.985,0,0,0-2.021-1.647l-1.923.062A1.988,1.988,0,0,0,2212.77,1055.239Z" transform="translate(-2170.3 -1011.515)" fill="url(#linear-gradient-4)"/>
      <path id="Path_4234" data-name="Path 4234" d="M2260.735,993.816l3.8,10.527a1.346,1.346,0,0,0,2.483.118l4.513-9.558-2.547-5.464Z" transform="translate(-2215.171 -952.029)" fill="#bdd0fb"/>
      <path id="Path_4235" data-name="Path 4235" d="M2119.154,988.2l7.8,5.2-2.735,9.2a1.346,1.346,0,0,1-2.534.133l-4.1-9.857Z" transform="translate(-2082.049 -950.877)" fill="#bdd0fb"/>
      <path id="Path_4236" data-name="Path 4236" d="M1643.47,1012.978l-24.7,10.712a14.838,14.838,0,0,0-8.925,14.155l1.712,46.362h43.61l-2.678-55.792Z" transform="translate(-1609.834 -973.919)" fill="url(#linear-gradient-2)"/>
      <path id="Path_4237" data-name="Path 4237" d="M2023.061,953.512a18.229,18.229,0,0,0-11.136,5.679,1.064,1.064,0,0,0-.143,1.208c1.585,3.014,8.239,15.861,9.821,22.135a1.4,1.4,0,0,1-.782,1.621l-1.512.682a3.426,3.426,0,0,0-1.836,4.22c2.85,8.427,10.831,32.543,11.361,39.846l-1.8-57.084s-5.191-10.676-5.884-12.063S2023.061,953.512,2023.061,953.512Z" transform="translate(-1983.528 -918.616)" fill="url(#linear-gradient-6)"/>
      <path id="Path_4238" data-name="Path 4238" d="M1854.791,1518.529a.336.336,0,0,1-.346-.3l-1.97-37.858a.331.331,0,0,1,.329-.335.339.339,0,0,1,.364.3l1.971,37.857a.332.332,0,0,1-.33.335Z" transform="translate(-1835.489 -1408.279)" fill="url(#linear-gradient-7)"/>
      <path id="Path_4239" data-name="Path 4239" d="M2330.693,1012.978l24.7,10.712a14.841,14.841,0,0,1,8.925,14.155l-1.712,46.362H2319l2.677-55.792Z" transform="translate(-2269.355 -973.919)" fill="url(#linear-gradient-8)"/>
      <path id="Path_4240" data-name="Path 4240" d="M2325.16,953.512a18.228,18.228,0,0,1,11.137,5.679,1.066,1.066,0,0,1,.144,1.208c-1.586,3.014-8.24,15.861-9.822,22.135a1.4,1.4,0,0,0,.783,1.621l1.512.682a3.426,3.426,0,0,1,1.836,4.22c-2.85,8.427-10.832,32.543-11.36,39.846l1.794-57.084s5.19-10.676,5.885-12.063S2325.16,953.512,2325.16,953.512Z" transform="translate(-2269.719 -918.616)" fill="url(#linear-gradient-9)"/>
      <path id="Path_4241" data-name="Path 4241" d="M2686.228,1518.529a.336.336,0,0,0,.346-.3l1.971-37.858a.331.331,0,0,0-.33-.335.337.337,0,0,0-.362.3l-1.972,37.857a.333.333,0,0,0,.33.335Z" transform="translate(-2610.558 -1408.279)" fill="url(#linear-gradient-10)"/>
      <path id="Path_4242" data-name="Path 4242" d="M2085.381,742.112s.347,20.119,12.141,20.293,11.62-24.455,11.62-24.455Z" transform="translate(-2052.093 -718.142)" fill="url(#linear-gradient-11)"/>
      <path id="Path_4243" data-name="Path 4243" d="M2058.023,816.221l25.713-1.072a.541.541,0,0,1,.548.673l-.3,1.2a.541.541,0,0,1-.458.406l-1.138.142-.681,3.177a2.651,2.651,0,0,1-2.592,2.1h-3.741a2.65,2.65,0,0,1-2.481-1.72l-.8-2.122a1.047,1.047,0,0,0-.979-.677h0a1.042,1.042,0,0,0-1,.752l-.542,1.859a2.652,2.652,0,0,1-2.544,1.909h-3.557a2.651,2.651,0,0,1-2.544-1.909l-.761-2.611h-1.846a.542.542,0,0,1-.522-.4l-.278-1.017A.541.541,0,0,1,2058.023,816.221Z" transform="translate(-2026.166 -789.938)" fill="url(#linear-gradient-2)"/>
      <path id="Path_4244" data-name="Path 4244" d="M1940.6,711.937l-11.124-3.547-13.355-.167v-.006l-.26,0-.26,0v.006l-13.355.167-11.125,3.547a.873.873,0,0,0-.563,1.108.859.859,0,0,0,.243.372c1,.885,6.935,4.512,25.06,4.351,18.992.161,24.062-3.466,25.06-4.351a.857.857,0,0,0,.243-.372A.873.873,0,0,0,1940.6,711.937Z" transform="translate(-1870.867 -690.491)" fill="url(#linear-gradient-13)"/>
      <path id="Path_4245" data-name="Path 4245" d="M2049.342,472.784c.595-3.214,2.2-10.427,5.415-16.058a2.508,2.508,0,0,1,3.518-.884l2.9,1.834a2.5,2.5,0,0,0,2.99-.236l2.068-1.816a2.5,2.5,0,0,1,3.815.619c2.184,3.754,6.035,10.9,7.457,16.86a1.84,1.84,0,0,1-1.3,2.211c-3.643.981-13.064,2.775-25.51-.411A1.841,1.841,0,0,1,2049.342,472.784Z" transform="translate(-2018.548 -455)" fill="url(#linear-gradient-14)"/>
      <g id="Group_1438" data-name="Group 1438" transform="translate(30.764 14.515)">
        <path id="Path_4246" data-name="Path 4246" d="M2076.526,662.628c-14.289,3.764-23.591.89-26.492-.274-.307,1.3-.535,2.423-.691,3.27a1.842,1.842,0,0,0,1.356,2.118c12.446,3.187,21.867,1.393,25.51.411a1.839,1.839,0,0,0,1.3-2.211C2077.254,664.867,2076.917,663.753,2076.526,662.628Z" transform="translate(-2049.311 -662.354)" fill="url(#linear-gradient-2)"/>
      </g>
    </g>
    <g id="Group_1440" data-name="Group 1440" transform="translate(557.335 476.424)">
      <path id="Path_4247" data-name="Path 4247" d="M2059.9,1354.8l-30.8,25.381a2.872,2.872,0,0,0-.241,4.209l.191.2a2.669,2.669,0,0,0,3.787.058l28.709-28.032Z" transform="translate(-2028.057 -1313.236)" fill="url(#linear-gradient-16)"/>
      <ellipse id="Ellipse_108" data-name="Ellipse 108" cx="21.849" cy="21.455" rx="21.849" ry="21.455" transform="translate(21.166 14.581) rotate(-19.492)" fill="#fff" opacity="0.19"/>
      <path id="Path_4248" data-name="Path 4248" d="M2396.522,813.713a23.877,23.877,0,1,0,30.884,14.394A24.1,24.1,0,0,0,2396.522,813.713Zm14.76,41.7A20.37,20.37,0,1,1,2424.04,829.3,20.555,20.555,0,0,1,2411.282,855.417Z" transform="translate(-2355.566 -808.703)" fill="url(#linear-gradient-17)"/>
      <path id="Path_4249" data-name="Path 4249" d="M2405.585,867.451a.063.063,0,0,1-.057-.034c-.254-.506-.494-1.03-.709-1.556a.062.062,0,0,1,.033-.081.063.063,0,0,1,.083.034c.215.523.452,1.044.705,1.547a.061.061,0,0,1-.055.09Zm-2.07-6.348a.062.062,0,0,1-.062-.052,21.838,21.838,0,0,1-.26-4.648,22.36,22.36,0,0,1,4.4-12.2,23.067,23.067,0,0,1,23.454-8.745.063.063,0,0,1,.047.075.063.063,0,0,1-.075.047,22.941,22.941,0,0,0-23.326,8.7,22.239,22.239,0,0,0-4.375,12.13,21.915,21.915,0,0,0,.258,4.621.06.06,0,0,1-.05.072Z" transform="translate(-2376.907 -829.744)" fill="#fff"/>
      <path id="Path_4250" data-name="Path 4250" d="M2043.02,1688.619a2.184,2.184,0,0,1-2.281-1.229,2.145,2.145,0,0,1,.63-2.415l3.66-3.157a.052.052,0,0,1,.074.005.053.053,0,0,1-.006.075l-3.659,3.158a2.039,2.039,0,0,0-.6,2.3,2.1,2.1,0,0,0,2.22,1.163h0a.053.053,0,0,1,.053.052.054.054,0,0,1-.053.053Z" transform="translate(-2039.716 -1617.351)" fill="#fff"/>
      <path id="Path_4251" data-name="Path 4251" d="M2119.864,1662.57a.053.053,0,0,1-.034-.093l.475-.409a.052.052,0,1,1,.068.079l-.474.41A.052.052,0,0,1,2119.864,1662.57Z" transform="translate(-2113.389 -1598.985)" fill="#fff"/>
    </g>
    <g id="Group_1443" data-name="Group 1443" transform="translate(447.117 529.64)">
      <g id="Group_1442" data-name="Group 1442" transform="translate(8.764 0)">
        <path id="Path_4252" data-name="Path 4252" d="M753.1,1626.133a3.093,3.093,0,0,1-3.085,3.083H583.184a3.093,3.093,0,0,1-3.085-3.083l-1.388-95.875a5.372,5.372,0,0,1,5.658-4.756l163.048-4.219a7.774,7.774,0,0,1,7.978,7.952Z" transform="translate(-578.711 -1521.282)" fill="url(#linear-gradient-18)"/>
        <path id="Path_4253" data-name="Path 4253" d="M806.76,1671.749a2.927,2.927,0,0,1-2.919,2.919H643.91a2.927,2.927,0,0,1-2.919-2.919l-1.31-87.036a7.184,7.184,0,0,1,7.53-7.01l156.267-4.192a5.464,5.464,0,0,1,5.606,5.591Z" transform="translate(-635.413 -1569.854)" fill="url(#linear-gradient-19)"/>
        <g id="Group_1441" data-name="Group 1441" transform="translate(6.418 8.362)">
          <path id="Path_4254" data-name="Path 4254" d="M671.032,1675.441a.237.237,0,0,1-.237-.233l-.4-27.034a5.723,5.723,0,0,1,1.654-4.292,7.864,7.864,0,0,1,5.213-1.8l49.9-1.34h.007a.237.237,0,0,1,.006.474l-49.917,1.339a7.381,7.381,0,0,0-4.884,1.666,5.268,5.268,0,0,0-1.508,3.947l.4,27.03a.237.237,0,0,1-.234.241Z" transform="translate(-670.398 -1640.744)" fill="#91b3fa"/>
        </g>
        <path id="Path_4255" data-name="Path 4255" d="M754.774,1753.8c.167-7.193.1-70.895-.308-76.4s8.155-6.534,21.31-7.153,124.148-3.071,127.006-3.3c6.424-.521,7.753,9.081,7.111,29.925-.483,15.66-1.283,41.457-1.651,53.321a6.546,6.546,0,0,1-6.531,6.344c-26.71.074-129.079.367-135.894.57C757.975,1757.347,754.707,1756.657,754.774,1753.8Z" transform="translate(-742.15 -1656.737)" fill="#91b3fa" opacity="0.24"/>
      </g>
      <rect id="Rectangle_187" data-name="Rectangle 187" width="196.691" height="8.424" rx="4.212" transform="translate(0 104.404)" fill="url(#linear-gradient-20)"/>
    </g>
    <g id="Group_1451" data-name="Group 1451" transform="translate(480.846 498.838)">
      <g id="Group_1444" data-name="Group 1444" transform="translate(1.97 12.357)">
        <path id="Path_4256" data-name="Path 4256" d="M1018.083,1260.416l-54.577,42.829a7.574,7.574,0,0,0,3.528.672l103.418-5.1a7.444,7.444,0,0,0,4.591-1.854l-40.6-36.105A13.179,13.179,0,0,0,1018.083,1260.416Z" transform="translate(-963.506 -1257.785)" fill="#7d97f4"/>
      </g>
      <path id="Path_4257" data-name="Path 4257" d="M1042.193,1876.249H942.636a7.278,7.278,0,0,1-7.278-7.278v-64.827a7.279,7.279,0,0,1,6.873-7.267l103.4-5.763a7.277,7.277,0,0,1,7.672,7.662l-3.842,70.59A7.278,7.278,0,0,1,1042.193,1876.249Z" transform="translate(-935.358 -1741.414)" fill="#72c9df"/>
      <g id="Group_1445" data-name="Group 1445" transform="translate(2.289 49.69)">
        <path id="Path_4258" data-name="Path 4258" d="M1025.143,1837.133l54.422-45.323a7.235,7.235,0,0,0-3.531-.694l-103.4,5.763a7.257,7.257,0,0,0-4.584,1.97l40.73,37.879A12.659,12.659,0,0,0,1025.143,1837.133Z" transform="translate(-968.051 -1791.104)" fill="#7d97f4"/>
      </g>
      <g id="Group_1450" data-name="Group 1450" transform="translate(2.943)">
        <g id="Group_1449" data-name="Group 1449" clip-path="url(#clip-path)">
          <g id="Group_1448" data-name="Group 1448" transform="translate(14.477 10.558)">
            <path id="Path_4259" data-name="Path 4259" d="M1262.736,1331.521h-78.523V1242.31a6.442,6.442,0,0,1,6.072-6.431l65.638-3.782a6.442,6.442,0,0,1,6.813,6.431Z" transform="translate(-1184.213 -1232.086)" fill="url(#linear-gradient-21)"/>
            <path id="Path_4260" data-name="Path 4260" d="M1295.747,1421.932H1222.6v-83.105a6,6,0,0,1,5.656-5.991l61.147-3.524a6,6,0,0,1,6.346,5.992Z" transform="translate(-1219.911 -1322.497)" fill="#fff" opacity="0.67"/>
            <g id="Group_1447" data-name="Group 1447" transform="translate(13.421 20.232)">
              <g id="Group_1446" data-name="Group 1446">
                <path id="Path_4261" data-name="Path 4261" d="M1910.283,1948.333a3.585,3.585,0,0,0-4.77.731h0a1.056,1.056,0,0,1-1.479.142l-3.539-2.855a3.437,3.437,0,0,1-2.6,3.355l3.4,2.713a1.121,1.121,0,0,1,.177,1.59h0a3.508,3.508,0,0,0,.554,4.985h0a3.6,3.6,0,0,0,5.016-.549h0a3.5,3.5,0,0,1,4.035-4.992h0A3.519,3.519,0,0,0,1910.283,1948.333Z" transform="translate(-1861.359 -1916.584)" fill="url(#linear-gradient-22)"/>
                <path id="Path_4262" data-name="Path 4262" d="M1380.215,1532.98a4.153,4.153,0,0,0,5.362-.628h0a1.2,1.2,0,0,1,1.632-.1l3.765,3.007a12.2,12.2,0,0,1,2.463-3.654l-3.242-2.616a1.156,1.156,0,0,1-.2-1.669h0a3.64,3.64,0,0,0-.613-5.246,4.049,4.049,0,0,0-5.538.272h0a3.509,3.509,0,0,0-.417,4.039,4,4,0,0,0-4.138,1.078h0A3.667,3.667,0,0,0,1380.215,1532.98Z" transform="translate(-1378.241 -1521.111)" fill="url(#linear-gradient-23)"/>
                <path id="Path_4263" data-name="Path 4263" d="M1391.634,1927.411a3.5,3.5,0,0,1-1.694-3.89,2.916,2.916,0,0,0,.074-.484l-5.253,3.763a1.213,1.213,0,0,1-1.627-.219l-.057-.07a4.172,4.172,0,0,0-5.576-.753h0a3.565,3.565,0,0,0-.713,5.246h0a4.167,4.167,0,0,0,4.111,1.371,3.538,3.538,0,0,0,.353,4.049h0a4.1,4.1,0,0,0,5.517.669h0a3.564,3.564,0,0,0,.7-5.177h0a1.131,1.131,0,0,1,.221-1.646Z" transform="translate(-1375.944 -1894.902)" fill="url(#linear-gradient-24)"/>
                <path id="Path_4264" data-name="Path 4264" d="M1914.692,1561.9a11.908,11.908,0,0,1,2.473,3.583l2.674-1.935a1.072,1.072,0,0,1,1.476.249h0a3.662,3.662,0,0,0,4.911.979,3.47,3.47,0,0,0,.744-4.974h0a3.673,3.673,0,0,0-3.63-1.44,3.563,3.563,0,0,0-.3-3.86,3.663,3.663,0,0,0-5.013-.914h0a3.475,3.475,0,0,0-.655,4.962h0a1.11,1.11,0,0,1-.208,1.583Z" transform="translate(-1876.979 -1550.733)" fill="url(#linear-gradient-25)"/>
              </g>
              <path id="Path_4265" data-name="Path 4265" d="M1591.342,1638.558c-4.895-2.877-9.88-2.965-14.695-.144a10.71,10.71,0,0,0-3.836,14.4,6.144,6.144,0,0,1,.926,4.525,1.629,1.629,0,0,0,1.232,2.031,14.184,14.184,0,0,0,2.71.5c1.578.159,2,.64,1.717,2.1a5.7,5.7,0,0,1-.149.567c-.29.955.074,1.547,1.036,1.917a11.711,11.711,0,0,0,7.595.335c2.178-.623,2.413-1.047,1.792-2.832a1.4,1.4,0,0,1-.044-.287c-.131-1.114.214-1.551,1.349-1.673.684-.074,1.382-.069,2.052-.193,1.7-.315,2.19-1.006,1.946-2.683a4,4,0,0,1,.352-2.963c1.2-1.819,1.506-3.881,1.551-7.079C1597.03,1643.9,1595.049,1640.737,1591.342,1638.558Zm-10.245,17.065a20.606,20.606,0,0,1-2.444.571c-1.524-.1-2.5-.682-2.759-1.743a2.6,2.6,0,0,1,1.542-3.173,8.874,8.874,0,0,1,2.459-.525,2.336,2.336,0,0,1,2.8,1.736A2.37,2.37,0,0,1,1581.1,1655.623Zm4.519,4.585-1.957-.013a1.089,1.089,0,0,1-1.016-1.531l1.173-2.459a.885.885,0,0,1,1.583.019l1.2,2.474A1.054,1.054,0,0,1,1585.615,1660.208Zm7.313-5.47c-.254,1.015-1.192,1.551-3.019,1.489a14.281,14.281,0,0,1-1.847-.455,2.507,2.507,0,0,1-1.756-3.262,1.7,1.7,0,0,1,1.673-1.51,11.344,11.344,0,0,1,3.377.536A2.619,2.619,0,0,1,1592.929,1654.739Z" transform="translate(-1557.773 -1628.281)" fill="url(#linear-gradient-26)"/>
            </g>
          </g>
        </g>
      </g>
    </g>
    <g id="Group_1460" data-name="Group 1460" transform="translate(454.174 462.077)">
      <g id="Group_1456" data-name="Group 1456" transform="translate(0 6.472)" opacity="0.88">
        <g id="Group_1452" data-name="Group 1452">
          <path id="Path_4267" data-name="Path 4267" d="M559.5,1143.38a.238.238,0,0,1-.233-.194c-.057-.313-.11-.627-.157-.943a.237.237,0,1,1,.469-.071q.07.466.155.928a.238.238,0,0,1-.233.28Z" transform="translate(-558.769 -1107.431)" fill="#10b5df"/>
          <path id="Path_4268" data-name="Path 4268" d="M554.6,680.543a.237.237,0,0,1-.237-.226c-.022-.474-.034-.955-.034-1.429,0-.154,0-.31,0-.464a.237.237,0,0,1,.475.007q0,.229,0,.457c0,.467.011.941.034,1.407a.237.237,0,0,1-.226.248Zm.172-4.925-.028,0a.237.237,0,0,1-.208-.263c.067-.571.151-1.148.25-1.714l.028-.159a.237.237,0,1,1,.467.085l-.028.156c-.1.558-.18,1.126-.246,1.688A.237.237,0,0,1,554.771,675.618Zm.967-4.831a.244.244,0,0,1-.066-.009.237.237,0,0,1-.163-.293c.173-.6.367-1.211.578-1.8a.237.237,0,1,1,.447.159c-.207.582-.4,1.18-.568,1.775A.237.237,0,0,1,555.738,670.787Zm1.739-4.609a.233.233,0,0,1-.1-.023.237.237,0,0,1-.113-.315c.27-.568.561-1.135.867-1.687a.237.237,0,0,1,.415.23c-.3.542-.588,1.1-.853,1.66A.237.237,0,0,1,557.477,666.177Zm2.477-4.263a.237.237,0,0,1-.194-.373c.36-.516.741-1.028,1.132-1.519a.237.237,0,0,1,.372.3c-.385.484-.76.987-1.115,1.5A.237.237,0,0,1,559.953,661.914Zm3.142-3.8a.237.237,0,0,1-.17-.4c.44-.451.9-.893,1.365-1.314a.237.237,0,0,1,.318.352c-.459.415-.911.849-1.343,1.293A.236.236,0,0,1,563.1,658.116Zm3.719-3.233a.237.237,0,0,1-.141-.428c.507-.373,1.032-.734,1.56-1.073a.237.237,0,1,1,.256.4c-.52.334-1.036.69-1.535,1.057A.236.236,0,0,1,566.814,654.883Zm34.207-.985a.235.235,0,0,1-.129-.038c-.518-.338-1.055-.663-1.593-.968a.237.237,0,1,1,.233-.413c.547.309,1.092.64,1.619.984a.237.237,0,0,1-.13.436Zm-30.014-1.6a.237.237,0,0,1-.108-.448c.558-.284,1.135-.556,1.713-.806a.237.237,0,0,1,.188.435c-.569.246-1.136.513-1.686.793A.236.236,0,0,1,571.008,652.3Zm25.677-.739a.231.231,0,0,1-.095-.02c-.567-.248-1.149-.481-1.731-.693a.237.237,0,1,1,.162-.445c.591.215,1.183.452,1.759.7a.237.237,0,0,1-.095.455Zm-21.119-1.129a.237.237,0,0,1-.072-.464c.6-.19,1.213-.363,1.821-.515a.237.237,0,1,1,.115.46c-.6.149-1.2.319-1.792.507A.244.244,0,0,1,575.565,650.429Zm16.457-.468a.233.233,0,0,1-.058-.007c-.6-.152-1.212-.287-1.821-.4a.237.237,0,0,1,.088-.466c.618.116,1.241.254,1.85.407a.237.237,0,0,1-.058.467Zm-11.656-.629a.237.237,0,0,1-.033-.472c.623-.089,1.256-.159,1.882-.209a.237.237,0,1,1,.038.473c-.617.049-1.24.118-1.852.205Zm6.8-.189h-.021c-.618-.053-1.244-.087-1.861-.1a.237.237,0,0,1,.005-.474h.006c.627.014,1.263.049,1.891.1a.237.237,0,0,1-.02.473Z" transform="translate(-554.328 -648.567)" fill="#10b5df"/>
          <path id="Path_4269" data-name="Path 4269" d="M1254.392,744.809a.237.237,0,0,1-.155-.057q-.355-.307-.722-.6a.237.237,0,0,1,.3-.369q.372.3.733.612a.237.237,0,0,1-.154.417Z" transform="translate(-1204.49 -737.066)" fill="#10b5df"/>
        </g>
        <g id="Group_1453" data-name="Group 1453" transform="translate(9.416 27.141)">
          <path id="Path_4270" data-name="Path 4270" d="M1411.423,1037.714a.237.237,0,0,1-.236-.222q-.03-.47-.075-.937a.237.237,0,1,1,.471-.046q.047.475.077.953a.237.237,0,0,1-.221.252Z" transform="translate(-1360.55 -1036.295)" fill="#10b5df"/>
          <path id="Path_4271" data-name="Path 4271" d="M750.96,1122.186a.237.237,0,0,1,0-.474c.609-.012,1.225-.044,1.832-.093a.233.233,0,0,1,.255.216.237.237,0,0,1-.217.256c-.616.05-1.242.083-1.861.095Zm-3-.09h-.019c-.615-.049-1.238-.118-1.852-.205a.237.237,0,1,1,.067-.469c.6.085,1.218.154,1.823.2a.237.237,0,0,1-.019.473Zm7.826-.4a.237.237,0,0,1-.043-.47c.6-.111,1.2-.242,1.79-.389a.237.237,0,0,1,.115.46c-.6.15-1.21.282-1.819.395A.231.231,0,0,1,755.783,1121.7Zm-12.613-.371a.26.26,0,0,1-.057-.007c-.6-.147-1.2-.314-1.8-.5a.237.237,0,0,1,.14-.453c.582.181,1.177.345,1.768.49a.237.237,0,0,1-.056.467Zm17.29-.893a.237.237,0,0,1-.08-.461c.573-.206,1.146-.432,1.705-.672a.237.237,0,1,1,.188.436c-.568.245-1.151.475-1.733.683A.224.224,0,0,1,760.46,1120.431Zm-21.894-.632a.238.238,0,0,1-.092-.019c-.569-.242-1.139-.5-1.693-.78a.237.237,0,0,1,.212-.424c.546.272,1.106.531,1.666.768a.238.238,0,0,1-.093.456Zm26.309-1.369a.237.237,0,0,1-.115-.444c.531-.3,1.062-.61,1.576-.938a.237.237,0,1,1,.255.4c-.522.333-1.061.653-1.6.953A.236.236,0,0,1,764.875,1118.43Zm-30.605-.88a.234.234,0,0,1-.126-.037c-.523-.331-1.042-.682-1.544-1.044a.237.237,0,0,1,.278-.385c.494.357,1,.7,1.52,1.028a.237.237,0,0,1-.127.438Zm34.644-1.8a.237.237,0,0,1-.147-.423c.478-.376.952-.772,1.407-1.178a.237.237,0,1,1,.315.354c-.462.412-.943.814-1.429,1.2A.235.235,0,0,1,768.914,1115.747Zm3.558-3.3a.237.237,0,0,1-.175-.4c.412-.448.816-.916,1.2-1.389a.237.237,0,1,1,.368.3c-.39.481-.8.955-1.219,1.411A.235.235,0,0,1,772.471,1112.452Zm2.983-3.825a.231.231,0,0,1-.13-.039.236.236,0,0,1-.068-.328c.335-.509.658-1.036.96-1.565a.237.237,0,0,1,.412.235c-.307.538-.635,1.073-.975,1.59A.236.236,0,0,1,775.454,1108.627Zm2.326-4.258a.238.238,0,0,1-.217-.334c.247-.553.48-1.125.693-1.7a.237.237,0,0,1,.445.165c-.217.582-.454,1.162-.7,1.725A.238.238,0,0,1,777.78,1104.37Zm1.6-4.575a.236.236,0,0,1-.229-.3c.154-.586.292-1.188.411-1.787a.237.237,0,0,1,.465.092c-.121.608-.261,1.219-.417,1.815A.237.237,0,0,1,779.385,1099.795Zm.853-4.773h-.023a.237.237,0,0,1-.213-.259c.059-.608.1-1.224.122-1.831a.237.237,0,0,1,.474.017c-.022.616-.064,1.242-.125,1.859A.236.236,0,0,1,780.237,1095.021Z" transform="translate(-729.445 -1088.754)" fill="#10b5df"/>
          <path id="Path_4272" data-name="Path 4272" d="M689.771,1391.025a.236.236,0,0,1-.157-.06q-.357-.317-.7-.645a.237.237,0,1,1,.326-.344q.341.322.693.635a.237.237,0,0,1-.157.414Z" transform="translate(-688.835 -1365.157)" fill="#10b5df"/>
        </g>
        <g id="Group_1455" data-name="Group 1455" transform="translate(7.159 6.872)">
          <path id="Path_4273" data-name="Path 4273" d="M661.888,784.8a.362.362,0,0,0,.391.152l4.255-1.08a19.124,19.124,0,0,0,5.121,3.488l.556,4.352a.361.361,0,0,0,.285.307l5.155,1.072a.361.361,0,0,0,.383-.169l2.244-3.77A19.129,19.129,0,0,0,686.364,788l3.473,2.686a.36.36,0,0,0,.418.016l4.4-2.888a.361.361,0,0,0,.152-.391l-1.08-4.255a19.121,19.121,0,0,0,3.488-5.121l4.351-.556a.361.361,0,0,0,.307-.284l1.071-5.156a.359.359,0,0,0-.169-.383l-3.77-2.244a19.124,19.124,0,0,0-1.159-6.086l2.685-3.473a.361.361,0,0,0,.016-.418l-2.888-4.4a.36.36,0,0,0-.39-.152l-4.255,1.079a19.125,19.125,0,0,0-5.121-3.488l-.557-4.352a.36.36,0,0,0-.284-.307l-5.156-1.071a.36.36,0,0,0-.383.169l-2.244,3.77a19.112,19.112,0,0,0-6.086,1.159l-3.473-2.685a.36.36,0,0,0-.418-.016l-4.4,2.888a.361.361,0,0,0-.152.39l1.079,4.255a19.118,19.118,0,0,0-3.488,5.121l-4.352.556a.36.36,0,0,0-.307.284L656.6,767.8a.36.36,0,0,0,.168.383l3.77,2.244a19.132,19.132,0,0,0,1.159,6.086l-2.685,3.473a.361.361,0,0,0-.016.418Z" transform="translate(-656.597 -746.743)" fill="#10b5df"/>
          <g id="Group_1454" data-name="Group 1454" transform="translate(18.148 18.148)">
            <path id="Path_4274" data-name="Path 4274" d="M920.882,1016.062a5.031,5.031,0,1,1,.218,0C921.028,1016.061,920.955,1016.062,920.882,1016.062Zm.2-.36h0Zm-.2-8.991c-.061,0-.123,0-.185,0a4.32,4.32,0,1,0,.366,8.632h0a4.32,4.32,0,0,0-.181-8.636Z" transform="translate(-915.856 -1005.999)" fill="#bdd0fb"/>
          </g>
          <path id="Path_4275" data-name="Path 4275" d="M815.474,916.372a13.191,13.191,0,0,1-2.684-.277q-.474-.1-.941-.232a13.217,13.217,0,0,1-1.28-.438l-.029-.011q-.2-.081-.4-.168a.356.356,0,0,1-.211-.325.349.349,0,0,1,.03-.144.356.356,0,0,1,.469-.181,12.431,12.431,0,0,0,2.5.8q.454.1.91.155a12.242,12.242,0,0,0,5.164-.415l.039-.012h0a12.378,12.378,0,0,0,2.828-1.274l.009-.005.062-.038.084-.052.064-.041.125-.081a12.27,12.27,0,0,0,5.318-7.815,12.431,12.431,0,0,0,.262-2.539,12.352,12.352,0,0,0-24.446-2.486,12.336,12.336,0,0,0,.423,6.565.356.356,0,0,1-.672.234,13.064,13.064,0,1,1,25.406-4.314,13.191,13.191,0,0,1-.277,2.685,13.071,13.071,0,0,1-12.762,10.408Z" transform="translate(-792.18 -880.195)" fill="#bdd0fb"/>
        </g>
      </g>
      <path id="Path_4276" data-name="Path 4276" d="M1290.1,621.209l2.329-.792a10.725,10.725,0,0,0,3.015,1.721l.5,2.405a.2.2,0,0,0,.173.159l2.927.369a.2.2,0,0,0,.207-.111l1.086-2.205a10.723,10.723,0,0,0,3.348-.917l2.058,1.346a.2.2,0,0,0,.235-.009l2.331-1.809a.2.2,0,0,0,.068-.225l-.792-2.328a10.7,10.7,0,0,0,1.72-3.015l2.406-.5a.2.2,0,0,0,.16-.173l.369-2.927a.2.2,0,0,0-.111-.206l-2.205-1.086a10.71,10.71,0,0,0-.918-3.348l1.346-2.059a.2.2,0,0,0-.009-.234l-1.809-2.331a.2.2,0,0,0-.224-.067l-2.329.792a10.7,10.7,0,0,0-3.014-1.72l-.5-2.406a.2.2,0,0,0-.173-.159l-2.927-.37a.2.2,0,0,0-.206.111l-1.087,2.2a10.732,10.732,0,0,0-3.348.918l-2.058-1.345a.2.2,0,0,0-.235.009L1290.1,602.7a.2.2,0,0,0-.067.225l.792,2.329a10.725,10.725,0,0,0-1.721,3.015l-2.406.5a.2.2,0,0,0-.159.173l-.37,2.927a.2.2,0,0,0,.111.207l2.2,1.086a10.709,10.709,0,0,0,.918,3.348l-1.346,2.059a.2.2,0,0,0,.009.234l1.809,2.331A.2.2,0,0,0,1290.1,621.209Z" transform="translate(-1234.938 -595.995)" fill="#10b5df"/>
      <g id="Group_1457" data-name="Group 1457" transform="translate(61.291 13.065)">
        <path id="Path_4277" data-name="Path 4277" d="M1432.887,748.7a2.975,2.975,0,1,1,.364-.022h0A3,3,0,0,1,1432.887,748.7Zm.32-.375h0Zm-.313-4.865a2.34,2.34,0,0,0-.28.017,2.264,2.264,0,0,0,.549,4.495h0a2.264,2.264,0,0,0,1.12-4.031A2.244,2.244,0,0,0,1432.894,743.457Z" transform="translate(-1429.914 -742.746)" fill="#bdd0fb"/>
      </g>
      <g id="Group_1458" data-name="Group 1458" transform="translate(48.265 0)">
        <path id="Path_4278" data-name="Path 4278" d="M1263.007,874.543a.237.237,0,0,1-.211-.128c-.147-.286-.287-.578-.415-.868a.237.237,0,0,1,.434-.192c.124.282.26.565.4.843a.237.237,0,0,1-.21.345Z" transform="translate(-1261.063 -851.016)" fill="#10b5df"/>
        <path id="Path_4279" data-name="Path 4279" d="M1244.415,575.928a.237.237,0,0,1-.23-.185,16.26,16.26,0,0,1-.288-1.646c-.008-.069-.016-.138-.024-.208a.237.237,0,1,1,.471-.05c.007.067.015.133.023.2a15.983,15.983,0,0,0,.279,1.6.237.237,0,0,1-.178.284A.248.248,0,0,1,1244.415,575.928Zm-.35-4.832h-.019a.236.236,0,0,1-.217-.255,15.761,15.761,0,0,1,.262-1.862.237.237,0,0,1,.465.093,15.348,15.348,0,0,0-.254,1.807A.237.237,0,0,1,1244.065,571.1Zm1.129-4.711a.238.238,0,0,1-.219-.328,16.138,16.138,0,0,1,.815-1.693.237.237,0,0,1,.415.23,15.763,15.763,0,0,0-.792,1.644A.237.237,0,0,1,1245.194,566.386Zm2.5-4.147a.237.237,0,0,1-.182-.389,16.157,16.157,0,0,1,1.286-1.369.237.237,0,0,1,.326.344,15.68,15.68,0,0,0-1.249,1.329A.238.238,0,0,1,1247.7,562.239Zm3.637-3.2a.237.237,0,0,1-.128-.437,15.96,15.96,0,0,1,1.641-.915.237.237,0,0,1,.206.427,15.579,15.579,0,0,0-1.592.888A.234.234,0,0,1,1251.336,559.04Zm4.434-1.943a.237.237,0,0,1-.061-.466,16.316,16.316,0,0,1,1.84-.373.237.237,0,1,1,.068.469,15.814,15.814,0,0,0-1.787.362A.243.243,0,0,1,1255.77,557.1Zm6.658-.318a.263.263,0,0,1-.039,0,15.534,15.534,0,0,0-1.814-.192.237.237,0,0,1-.226-.248.23.23,0,0,1,.248-.226,16.025,16.025,0,0,1,1.869.2.237.237,0,0,1-.039.471Z" transform="translate(-1243.827 -556.11)" fill="#10b5df"/>
        <path id="Path_4280" data-name="Path 4280" d="M1548.949,570.848a.235.235,0,0,1-.1-.02c-.285-.126-.576-.245-.865-.352a.237.237,0,0,1,.166-.444c.3.111.6.233.891.363a.237.237,0,0,1-.1.454Z" transform="translate(-1526.553 -569.043)" fill="#10b5df"/>
      </g>
      <g id="Group_1459" data-name="Group 1459" transform="translate(56.976 9.763)">
        <path id="Path_4281" data-name="Path 4281" d="M1678.525,696.935a.238.238,0,0,1-.225-.16c-.1-.294-.211-.587-.329-.874a.237.237,0,0,1,.438-.181c.121.3.236.6.34.9a.237.237,0,0,1-.147.3A.233.233,0,0,1,1678.525,696.935Z" transform="translate(-1656.275 -695.574)" fill="#10b5df"/>
        <path id="Path_4282" data-name="Path 4282" d="M1425.974,767.82a.237.237,0,0,1-.021-.473q.261-.023.521-.055c.421-.052.842-.12,1.254-.2a.237.237,0,1,1,.095.464c-.425.087-.858.157-1.291.211q-.27.033-.538.057Zm-2.957-.013h-.023a16.051,16.051,0,0,1-1.827-.288.237.237,0,0,1,.1-.464,15.626,15.626,0,0,0,1.772.279.237.237,0,0,1-.024.473Zm7.587-1.112a.237.237,0,0,1-.09-.456,15.479,15.479,0,0,0,1.617-.777.237.237,0,1,1,.23.414,16,16,0,0,1-1.667.8A.251.251,0,0,1,1430.6,766.694Zm4.081-2.458a.237.237,0,0,1-.151-.419,15.626,15.626,0,0,0,1.311-1.224.237.237,0,0,1,.343.327,16.052,16.052,0,0,1-1.351,1.261A.235.235,0,0,1,1434.686,764.236Zm3.165-3.561a.232.232,0,0,1-.129-.038.237.237,0,0,1-.07-.328,15.644,15.644,0,0,0,.89-1.558.237.237,0,0,1,.425.211,16.24,16.24,0,0,1-.917,1.605A.237.237,0,0,1,1437.851,760.675Zm1.966-4.341a.233.233,0,0,1-.064-.009.237.237,0,0,1-.165-.292,15.367,15.367,0,0,0,.385-1.753.237.237,0,1,1,.468.074,15.793,15.793,0,0,1-.4,1.807A.237.237,0,0,1,1439.817,756.334Zm.577-4.731a.237.237,0,0,1-.237-.23c-.014-.476-.051-.96-.109-1.437-.014-.117-.03-.234-.047-.35a.237.237,0,0,1,.469-.068c.018.12.034.24.048.361.061.492.1.99.113,1.481a.237.237,0,0,1-.229.244Z" transform="translate(-1417.292 -745.552)" fill="#10b5df"/>
        <path id="Path_4283" data-name="Path 4283" d="M1369.371,984.945a.234.234,0,0,1-.093-.019c-.291-.124-.585-.26-.873-.4a.237.237,0,1,1,.212-.424c.28.14.565.272.848.392a.237.237,0,0,1-.093.455Z" transform="translate(-1368.273 -963.878)" fill="#10b5df"/>
      </g>
      <path id="Path_4284" data-name="Path 4284" d="M1373.792,692.812a7.556,7.556,0,0,1-.95-.06h0a7.512,7.512,0,0,1-1.549-.365.356.356,0,0,1,.235-.671,6.809,6.809,0,0,0,1.4.33l.1.012a6.721,6.721,0,0,0,4.842-1.338l.053-.041a6.717,6.717,0,0,0,2.564-4.5,6.816,6.816,0,0,0,.054-.861,6.764,6.764,0,1,0-12.958,2.732.356.356,0,1,1-.651.286,7.475,7.475,0,1,1,14.321-3.02,7.62,7.62,0,0,1-.06.952,7.477,7.477,0,0,1-7.4,6.54Z" transform="translate(-1309.464 -669.338)" fill="#bdd0fb"/>
    </g>
    <g id="Group_1461" data-name="Group 1461" transform="translate(564.68 596.477)">
      <path id="Path_4285" data-name="Path 4285" d="M2164.928,2493.374h-2.138a.108.108,0,0,1-.11-.107v-9.183a7.41,7.41,0,0,1,6.516-7.356l4.721-.573a7.307,7.307,0,0,1,6.918,3.14,7.564,7.564,0,0,1,1.264,4.273v3.708a.108.108,0,0,1-.108.109h-2.139a.109.109,0,0,1-.109-.109v-3.766a5.12,5.12,0,0,0-.579-2.435,4.95,4.95,0,0,0-4.963-2.582l-4.721.573a5.054,5.054,0,0,0-4.444,5.017v9.183A.108.108,0,0,1,2164.928,2493.374Z" transform="translate(-2160.603 -2476.102)" fill="url(#linear-gradient-27)"/>
      <path id="Path_4286" data-name="Path 4286" d="M2134.368,2677.526l20.649-1.144a1.462,1.462,0,0,1,1.544,1.46V2694.2a1.463,1.463,0,0,1-1.463,1.464h-20.153a1.463,1.463,0,0,1-1.462-1.416l-.5-15.214A1.463,1.463,0,0,1,2134.368,2677.526Z" transform="translate(-2132.986 -2662.36)" fill="url(#linear-gradient-28)"/>
      <path id="Path_4287" data-name="Path 4287" d="M2259.117,2743.769l-1.25-3.594a1.2,1.2,0,0,1,.273-1.239,3.4,3.4,0,1,0-4.564.254,1.213,1.213,0,0,1,.394,1.34l-1.127,3.239a1.213,1.213,0,0,0,1.145,1.611h3.983A1.213,1.213,0,0,0,2259.117,2743.769Z" transform="translate(-2243.963 -2715.15)" fill="#91b3fa"/>
    </g>
    <g id="Group_1468" data-name="Group 1468" transform="translate(446.635 540.514)">
      <g id="Group_1462" data-name="Group 1462" transform="translate(16.596 51.623)">
        <path id="Path_4288" data-name="Path 4288" d="M741.255,3165a.683.683,0,0,0-.017-.175c-.872-3.458-5.2-5.611-5.2-5.611l-1.715.135a11.9,11.9,0,0,0-.7,5.75c0,.022.011.045.018.067A40.686,40.686,0,0,0,741.255,3165Z" transform="translate(-730.026 -3107.058)" fill="url(#linear-gradient-29)"/>
        <path id="Path_4289" data-name="Path 4289" d="M735.311,3242.042a.745.745,0,0,0,.544.549,23.542,23.542,0,0,0,6.555-.092.626.626,0,0,0,.518-.623A40.666,40.666,0,0,1,735.311,3242.042Z" transform="translate(-731.7 -3183.932)" fill="url(#linear-gradient-30)"/>
        <path id="Path_4290" data-name="Path 4290" d="M735.222,3124.64l.726,3.5a.573.573,0,0,0,.489.471,4.844,4.844,0,0,0,1.125-.018.719.719,0,0,0,.57-.845l-.505-3.105Z" transform="translate(-731.617 -3074.902)" fill="url(#linear-gradient-31)"/>
        <path id="Path_4291" data-name="Path 4291" d="M905.331,3237.188a10.262,10.262,0,0,1-3.381-.482c0,.188,0,.379.006.579a.374.374,0,0,0,.357.38l10.4-.067a.475.475,0,0,0,.382-.692C911.732,3237.017,908.259,3237.271,905.331,3237.188Z" transform="translate(-886.673 -3179.122)" fill="url(#linear-gradient-32)"/>
        <path id="Path_4292" data-name="Path 4292" d="M913.1,3171.858a.523.523,0,0,0-.041-.078,13.255,13.255,0,0,0-7.881-4.948l-2.218-.07a10.643,10.643,0,0,0-1.006,4.9,10.226,10.226,0,0,0,3.381.482C908.264,3172.223,911.738,3171.97,913.1,3171.858Z" transform="translate(-886.678 -3114.075)" fill="url(#linear-gradient-33)"/>
        <path id="Path_4293" data-name="Path 4293" d="M909.043,3110.687c.035.162.5,2.652.675,3.617a.481.481,0,0,0,.434.408,5.071,5.071,0,0,0,1.519-.119.656.656,0,0,0,.455-.687l-.249-3.937Z" transform="translate(-893.27 -3061.257)" fill="url(#linear-gradient-34)"/>
        <path id="Path_4294" data-name="Path 4294" d="M698.659,2415.9s2.2,22.635,4.4,47.583a.951.951,0,0,1-.786.965,11.513,11.513,0,0,1-2.48.287.918.918,0,0,1-.876-.767c-.75-4.4-6.1-28.006-7.507-33.2,0,0-1.613,22.07-1.1,33.52a.542.542,0,0,1-.479.564,9.088,9.088,0,0,1-1.991-.006.726.726,0,0,1-.647-.616c-.534-3.722-3.609-25.88-3.479-41.842.008-.9,1.056-8.3,1.056-8.3Z" transform="translate(-683.718 -2414.094)" fill="url(#linear-gradient-35)"/>
      </g>
      <g id="Group_1464" data-name="Group 1464" transform="translate(27.83 9.245)">
        <g id="Group_1463" data-name="Group 1463" transform="translate(0 6.228)">
          <path id="Path_4295" data-name="Path 4295" d="M859.612,1952.536c-.437,3.109-.9,3.824-1.257,3.843-1.142.059-.912-6.953-5.087-10.5-2.637-2.24-6.239-2.425-9.065-2.163q1.978,7.094,3.956,14.187c.576,1.413,3.086,7.127,8.767,8.862a6.5,6.5,0,0,0,4.479.191c3.16-1.358,4.641-6.924,3.229-13.893C863.969,1952.817,863.049,1952.554,859.612,1952.536Z" transform="translate(-844.203 -1940.409)" fill="url(#linear-gradient-36)"/>
          <path id="Path_4296" data-name="Path 4296" d="M1049.954,1897.668l.523,2.955a23.131,23.131,0,0,1,.484,9.172c.721.03,1.479.08,2.268.159.973.1,1.892.223,2.752.369-.454-3.677-2.9-9.781-2.9-9.781C1051.6,1898.412,1051.429,1899.8,1049.954,1897.668Z" transform="translate(-1035.552 -1897.668)" fill="url(#linear-gradient-37)"/>
        </g>
        <path id="Path_4297" data-name="Path 4297" d="M1036.264,1808.694a1.949,1.949,0,0,0-1.542.692l-3.729,4.418s-.679-.138-.743-1.438a1.614,1.614,0,0,0-1.444-1.456s.2,1.813.578,4.495a5.685,5.685,0,0,0,1.861,3.332l2.157-.742a24.541,24.541,0,0,0,3.889-9.273Z" transform="translate(-1015.884 -1808.693)" fill="url(#linear-gradient-38)"/>
      </g>
      <path id="Path_4298" data-name="Path 4298" d="M633.292,1935.877c.249-.065,1.947-1.819,2.2-1.868,4.186-.8,14.634-3.611,21.627,1.548.017.149.029.268.036.366a3.877,3.877,0,0,1,.288.493,23.6,23.6,0,0,0,2.36,3.686,2.4,2.4,0,0,0-.486.69c-1.68,3.6-8.05,17.974-6.93,26.764a.83.83,0,0,1-.7.935c-2.473.342-9.836,1.176-13.641-.395a.583.583,0,0,1-.36-.548,64.592,64.592,0,0,0-2.856-18.646,10.455,10.455,0,0,1-.258-1.046c-.034.071-.067.141-.1.211Z" transform="translate(-620.226 -1914.612)" fill="url(#linear-gradient-39)"/>
      <path id="Path_4299" data-name="Path 4299" d="M527.494,1942.329c-7.806.571-9.437,5.032-14.832,2.3l.955,8.354a14.5,14.5,0,0,0,8.827,4.278Z" transform="translate(-508.04 -1923.73)" fill="url(#linear-gradient-40)"/>
      <path id="Path_4300" data-name="Path 4300" d="M773.332,1834.4a20.482,20.482,0,0,0-2.063,7.91c.288.108,4.127,2.771,6.7.193-.55-1.769-.459-4.432-.319-7.164Z" transform="translate(-748.544 -1823.355)" fill="url(#linear-gradient-41)"/>
      <g id="Group_1465" data-name="Group 1465" transform="translate(22.771)">
        <path id="Path_4301" data-name="Path 4301" d="M816.674,1726.644c.073.119,1.992,9.167,1.992,9.167l-5.189.985-3.093-8.305S815.442,1724.652,816.674,1726.644Z" transform="translate(-807.693 -1722.61)" fill="url(#linear-gradient-42)"/>
        <path id="Path_4302" data-name="Path 4302" d="M776.612,1683.249a.761.761,0,0,0-.118.658l1.267,4.434a.718.718,0,0,0,.084.19c.2.327.94,1.316,1.931.5a6.714,6.714,0,0,1,2.335-1.472.759.759,0,0,1,.9.591,28.341,28.341,0,0,1,.57,4.14.755.755,0,0,1-.664.781,21.031,21.031,0,0,1-4.745.1.758.758,0,0,1-.614-.481c-.444-1.15-1.7-4.368-2.2-5.222-.46-.793-1.681-.868-2.243-.858a.765.765,0,0,1-.565-.233,1.673,1.673,0,0,1,.051-2.621.758.758,0,0,0,.04-1.056,1.679,1.679,0,0,1,0-2.467,2.366,2.366,0,0,1,2.8-.548.788.788,0,0,0,.918-.229.5.5,0,0,1,.458-.2.736.736,0,0,0,.8-.681,1.943,1.943,0,0,1,1.625-1.869c2.275-.559,3.535,1.683,3.574,3.3s-2.461,2.083-3.9,1.885C777.856,1681.758,777,1682.725,776.612,1683.249Z" transform="translate(-771.94 -1676.629)" fill="url(#linear-gradient-43)"/>
        <path id="Path_4303" data-name="Path 4303" d="M787.691,1814.417s-.483-2.865-1.637-3.073-2.344.678-1.284,2.317C786.088,1815.7,787.691,1814.417,787.691,1814.417Z" transform="translate(-783.489 -1801.887)" fill="url(#linear-gradient-44)"/>
      </g>
      <g id="Group_1467" data-name="Group 1467" transform="translate(0 2.224)">
        <path id="Path_4304" data-name="Path 4304" d="M739,1708.4a2.635,2.635,0,0,1,.661.063c.548.116,1.279.4,1.089.925-.286.792-1.769.052-2.558,1.33-.7,1.125-.126,2.348-.339,3.562a3.021,3.021,0,0,1-1.01,1.811c-.236.154-2.1.449-2.2.118l-.518-1.679c-.465-1.51,1.323-4.028,2.245-5.045A3.593,3.593,0,0,1,739,1708.4Z" transform="translate(-713.928 -1708.393)" fill="url(#linear-gradient-45)"/>
        <g id="Group_1466" data-name="Group 1466" transform="translate(0 5.077)">
          <path id="Path_4305" data-name="Path 4305" d="M608.7,1781.912l-1.781,1.482a23.124,23.124,0,0,0-7.694,5.016,10.15,10.15,0,0,0-3.385-3.745,37.756,37.756,0,0,1,6-2.4C608.8,1779.47,608.7,1781.912,608.7,1781.912Z" transform="translate(-585.398 -1780.924)" fill="url(#linear-gradient-46)"/>
          <path id="Path_4306" data-name="Path 4306" d="M460.465,1838.1c-5.615,5.782-3.974,2.844-4.018,7.772a84.493,84.493,0,0,1-1.611,8.854c-17.17-7.417-2.841-17.542,2.244-20.37A10.146,10.146,0,0,1,460.465,1838.1Z" transform="translate(-446.635 -1830.619)" fill="url(#linear-gradient-47)"/>
        </g>
      </g>
    </g>
  </g>
</svg>
