<svg xmlns="http://www.w3.org/2000/svg" width="514.247" height="289.399" viewBox="0 0 514.247 289.399">
  <g id="Group_3175" data-name="Group 3175" transform="translate(-103.309 -106.156)">
    <path id="Path_6241" data-name="Path 6241" d="M787.386,384.024c14.19.736,24.761-12.548,31.864-24.854,15.646-27.106,27.536-59.346,18.607-89.343-7.311-24.562-27.526-43.729-34.618-68.356-2.569-8.922-3.329-18.315-6.273-27.12a58.158,58.158,0,0,0-37.828-36.645c-11.892-3.559-24.549-3.156-36.9-4.418-46.96-4.8-91.621-33.829-138.122-25.707-9.152,1.6-18.267,4.762-25.337,10.788-5.031,4.288-8.806,9.821-12.789,15.1a199.562,199.562,0,0,1-18.682,21.387c-7.353,7.3-15.36,14.078-24.545,18.87-16.943,8.841-36.589,10.343-55.331,14.081s-38.4,10.891-48.923,26.847c-3.554,5.391-5.852,11.508-7.762,17.676-15.436,49.837-4.863,106.127,26.151,148.081Z" transform="translate(-233.561 0)" fill="#dde7fe"/>
    <g id="Group_3145" data-name="Group 3145" transform="translate(528.101 171.253)">
      <path id="Path_6242" data-name="Path 6242" d="M2806.341,684.462a.508.508,0,0,1-.094-.019.473.473,0,0,1-.311-.592c20.252-65.2,38.556-111.19,51.541-129.506.288-.407.5-.7.576-.849a.473.473,0,0,1,.834.447,11.226,11.226,0,0,1-.639.95c-12.929,18.237-31.186,64.135-51.409,129.24A.473.473,0,0,1,2806.341,684.462Z" transform="translate(-2779.101 -543.633)" fill="#bdd1f9"/>
      <path id="Path_6243" data-name="Path 6243" d="M3118.635,503.151c-1.537,2.055-9.213,5.783-9.8,5.344s.821-8.855,2.358-10.91a4.646,4.646,0,1,1,7.441,5.566Z" transform="translate(-3031.291 -495.721)" fill="#bdd1f9"/>
      <path id="Path_6244" data-name="Path 6244" d="M3033.066,559.929c.732,2.521-.949,11.088-1.669,11.3s-6.729-6.124-7.461-8.645a4.754,4.754,0,0,1,9.13-2.652Z" transform="translate(-2960.533 -546.344)" fill="#bdd1f9"/>
      <path id="Path_6245" data-name="Path 6245" d="M3080.234,619.972c-2.622.146-10.589-3.422-10.631-4.17s7.482-5.177,10.1-5.323a4.754,4.754,0,0,1,.528,9.492Z" transform="translate(-2998.727 -591.297)" fill="#bdd1f9"/>
      <path id="Path_6246" data-name="Path 6246" d="M2866.259,810.472c1.678,4.075.422,18.674-.741,19.153s-12.336-9-14.014-13.076a7.979,7.979,0,0,1,14.755-6.077Z" transform="translate(-2816.569 -753.76)" fill="#bdd1f9"/>
      <path id="Path_6247" data-name="Path 6247" d="M2956.571,897.071c-4.348.717-18.29-3.794-18.494-5.035s11.548-9.992,15.9-10.71a7.979,7.979,0,0,1,2.6,15.745Z" transform="translate(-2889.176 -816.802)" fill="#bdd1f9"/>
      <path id="Path_6248" data-name="Path 6248" d="M2784.876,911.631c3.1,4.412,5.534,22.178,4.274,23.063S2772,927.271,2768.9,922.859a9.764,9.764,0,1,1,15.977-11.229Z" transform="translate(-2746.791 -838.675)" fill="#bdd1f9"/>
      <path id="Path_6249" data-name="Path 6249" d="M2915.991,1019.707c-5.383.326-21.785-6.921-21.878-8.457s15.315-10.709,20.7-11.035a9.764,9.764,0,1,1,1.18,19.492Z" transform="translate(-2852.561 -915.898)" fill="#bdd1f9"/>
      <path id="Path_6250" data-name="Path 6250" d="M2741.285,1038.825c3.1,4.412,5.534,22.178,4.274,23.063s-17.151-7.423-20.251-11.835a9.764,9.764,0,1,1,15.977-11.228Z" transform="translate(-2710.484 -944.615)" fill="#bdd1f9"/>
      <path id="Path_6251" data-name="Path 6251" d="M2872.4,1146.9c-5.383.326-21.785-6.921-21.878-8.457s15.315-10.709,20.7-11.035a9.764,9.764,0,0,1,1.18,19.492Z" transform="translate(-2816.253 -1021.838)" fill="#bdd1f9"/>
      <path id="Path_6252" data-name="Path 6252" d="M2660.461,1211.351c4.548,2.9,13.564,18.4,12.737,19.7s-18.685-.33-23.233-3.229a9.764,9.764,0,0,1,10.5-16.468Z" transform="translate(-2645.448 -1090.494)" fill="#bdd1f9"/>
      <path id="Path_6253" data-name="Path 6253" d="M2829.287,1273.49c-5.3,1-22.479-4.143-22.764-5.656s13.856-12.54,19.156-13.536a9.764,9.764,0,0,1,3.608,19.192Z" transform="translate(-2779.604 -1127.399)" fill="#bdd1f9"/>
      <path id="Path_6254" data-name="Path 6254" d="M2990.152,640.017c.744,2.561-.964,11.265-1.7,11.477s-6.837-6.222-7.581-8.783a4.83,4.83,0,1,1,9.276-2.694Z" transform="translate(-2924.665 -613.003)" fill="#bdd1f9"/>
      <path id="Path_6255" data-name="Path 6255" d="M3036,701.975c-2.663.148-10.759-3.476-10.8-4.236s7.6-5.26,10.264-5.408a4.83,4.83,0,1,1,.537,9.644Z" transform="translate(-2961.741 -659.471)" fill="#bdd1f9"/>
      <path id="Path_6256" data-name="Path 6256" d="M2923.209,709.923c1.352,3.54-.053,16.063-1.063,16.449s-10.4-8.013-11.757-11.553a6.861,6.861,0,1,1,12.82-4.9Z" transform="translate(-2865.74 -670.452)" fill="#bdd1f9"/>
      <path id="Path_6257" data-name="Path 6257" d="M2997.712,795.473c-3.783.21-15.285-4.939-15.345-6.019s10.8-7.473,14.583-7.683a6.862,6.862,0,1,1,.762,13.7Z" transform="translate(-2926.068 -733.963)" fill="#bdd1f9"/>
    </g>
    <g id="Group_3146" data-name="Group 3146" transform="translate(103.309 275.535)">
      <path id="Path_6258" data-name="Path 6258" d="M172.905,1187.3a.216.216,0,0,0,.036-.023.212.212,0,0,0,.037-.3c-18.752-24.1-33.662-40.467-41.984-46.087-.185-.125-.318-.215-.375-.265a.212.212,0,0,0-.279.318,5.045,5.045,0,0,0,.417.3c8.286,5.6,23.162,21.932,41.887,46A.211.211,0,0,0,172.905,1187.3Z" transform="translate(-125.763 -1137.1)" fill="#0b0755"/>
      <path id="Path_6259" data-name="Path 6259" d="M104.269,1123.62c.967.618,4.768.969,4.944.693s-1.739-3.578-2.707-4.2a2.078,2.078,0,0,0-2.238,3.5Z" transform="translate(-103.309 -1119.79)" fill="#0b0755"/>
      <path id="Path_6260" data-name="Path 6260" d="M151.929,1132.741c.091,1.171,2.145,4.492,2.479,4.466s1.851-3.624,1.761-4.795a2.126,2.126,0,0,0-4.24.329Z" transform="translate(-143.799 -1128.669)" fill="#0b0755"/>
      <path id="Path_6261" data-name="Path 6261" d="M129.935,1169.706c1.12-.352,3.893-3.1,3.793-3.421s-3.948-.988-5.068-.636a2.126,2.126,0,1,0,1.275,4.056Z" transform="translate(-123.183 -1157.903)" fill="#0b0755"/>
      <path id="Path_6262" data-name="Path 6262" d="M249.853,1213.4c-.06,1.97,2.766,7.883,3.329,7.9s3.745-5.712,3.806-7.682a3.569,3.569,0,1,0-7.134-.218Z" transform="translate(-225.365 -1194.878)" fill="#0b0755"/>
      <path id="Path_6263" data-name="Path 6263" d="M206.459,1271.2c1.933-.385,7.058-4.47,6.948-5.022s-6.409-2.363-8.342-1.978a3.569,3.569,0,1,0,1.394,7Z" transform="translate(-185.669 -1240.026)" fill="#0b0755"/>
      <path id="Path_6264" data-name="Path 6264" d="M293.637,1244.06c-.6,2.335,1.179,10.156,1.845,10.327s6.009-5.81,6.612-8.145a4.367,4.367,0,1,0-8.457-2.182Z" transform="translate(-261.731 -1220.565)" fill="#0b0755"/>
      <path id="Path_6265" data-name="Path 6265" d="M231.657,1319.014c2.3-.712,8.028-6.33,7.825-6.988s-8.1-2.069-10.4-1.357a4.367,4.367,0,1,0,2.578,8.345Z" transform="translate(-205.498 -1278.61)" fill="#0b0755"/>
      <path id="Path_6266" data-name="Path 6266" d="M331.929,1290.432c-.6,2.335,1.179,10.156,1.845,10.328s6.009-5.81,6.612-8.146a4.367,4.367,0,1,0-8.457-2.182Z" transform="translate(-293.625 -1259.188)" fill="#0b0755"/>
      <path id="Path_6267" data-name="Path 6267" d="M269.949,1365.386c2.3-.712,8.028-6.33,7.825-6.988s-8.1-2.069-10.4-1.357a4.367,4.367,0,0,0,2.578,8.345Z" transform="translate(-237.392 -1317.234)" fill="#0b0755"/>
      <path id="Path_6268" data-name="Path 6268" d="M385.486,1349.918c-1.447,1.93-2.778,9.839-2.227,10.252s7.769-3.083,9.216-5.013a4.367,4.367,0,1,0-6.989-5.239Z" transform="translate(-336.373 -1310.007)" fill="#0b0755"/>
      <path id="Path_6269" data-name="Path 6269" d="M308.626,1411.42c2.376-.418,8.757-5.277,8.637-5.955s-7.776-3.065-10.152-2.647a4.367,4.367,0,0,0,1.514,8.6Z" transform="translate(-270.049 -1355.483)" fill="#0b0755"/>
      <path id="Path_6270" data-name="Path 6270" d="M182.244,1159.551c.092,1.19,2.179,4.564,2.519,4.537s1.881-3.682,1.789-4.871a2.16,2.16,0,0,0-4.307.334Z" transform="translate(-169.049 -1150.968)" fill="#0b0755"/>
      <path id="Path_6271" data-name="Path 6271" d="M160.917,1197.179c1.138-.358,3.956-3.151,3.853-3.476s-4.011-1-5.149-.646a2.16,2.16,0,0,0,1.3,4.122Z" transform="translate(-148.952 -1180.73)" fill="#0b0755"/>
      <path id="Path_6272" data-name="Path 6272" d="M214.11,1179.571c-.008,1.695,2.553,6.715,3.037,6.718s3.093-4.994,3.1-6.689a3.069,3.069,0,0,0-6.138-.029Z" transform="translate(-195.595 -1167.038)" fill="#0b0755"/>
      <path id="Path_6273" data-name="Path 6273" d="M179.5,1233.469c1.617-.508,5.62-4.476,5.475-4.938s-5.7-1.426-7.315-.918a3.069,3.069,0,1,0,1.84,5.855Z" transform="translate(-163.444 -1209.476)" fill="#0b0755"/>
    </g>
    <g id="Group_3147" data-name="Group 3147" transform="translate(169.302 172.275)">
      <path id="Path_6274" data-name="Path 6274" d="M580.229,646.207a.344.344,0,0,0,.067.006.335.335,0,0,0,.33-.34c-.766-48.312-4.035-83.194-9.2-98.22-.115-.334-.2-.575-.222-.692a.335.335,0,1,0-.656.137,7.957,7.957,0,0,0,.244.772c5.148,14.961,8.4,49.769,9.168,98.013A.335.335,0,0,0,580.229,646.207Z" transform="translate(-558.455 -539.199)" fill="#bdd1f9"/>
      <path id="Path_6275" data-name="Path 6275" d="M542.256,506.276c.634,1.7,5.1,5.762,5.591,5.581s1.206-6.178.572-7.879a3.288,3.288,0,0,0-6.162,2.3Z" transform="translate(-534.727 -501.838)" fill="#bdd1f9"/>
      <path id="Path_6276" data-name="Path 6276" d="M589.813,563.322c-1,1.566-1.564,7.719-1.117,8s5.79-2.818,6.789-4.385a3.364,3.364,0,1,0-5.672-3.62Z" transform="translate(-573.451 -551.753)" fill="#bdd1f9"/>
      <path id="Path_6277" data-name="Path 6277" d="M530.524,589.125c1.751.621,7.873-.214,8.05-.714s-4.05-5.006-5.8-5.627a3.364,3.364,0,0,0-2.249,6.341Z" transform="translate(-523.263 -569.096)" fill="#bdd1f9"/>
      <path id="Path_6278" data-name="Path 6278" d="M620.385,763.046c-1.951,2.433-4.007,12.6-3.312,13.155s10.171-3.656,12.123-6.089a5.647,5.647,0,1,0-8.81-7.066Z" transform="translate(-597.101 -717.637)" fill="#bdd1f9"/>
      <path id="Path_6279" data-name="Path 6279" d="M521.6,794.708c2.81,1.353,13.177,1.067,13.563.265s-5.852-9.087-8.662-10.44a5.647,5.647,0,0,0-4.9,10.175Z" transform="translate(-515.033 -736.827)" fill="#bdd1f9"/>
      <path id="Path_6280" data-name="Path 6280" d="M627.709,845.929c-2.984,2.379-8.176,13.96-7.5,14.812s13.126-1.625,16.111-4a6.911,6.911,0,1,0-8.614-10.809Z" transform="translate(-599.78 -787.176)" fill="#bdd1f9"/>
      <path id="Path_6281" data-name="Path 6281" d="M502.81,881.756c3.591,1.294,16.174-.361,16.543-1.385s-8.268-10.324-11.858-11.617a6.91,6.91,0,1,0-4.684,13Z" transform="translate(-498.24 -807.099)" fill="#bdd1f9"/>
      <path id="Path_6282" data-name="Path 6282" d="M631.975,941c-2.985,2.379-8.176,13.96-7.5,14.812s13.126-1.625,16.111-4A6.911,6.911,0,1,0,631.975,941Z" transform="translate(-603.333 -866.357)" fill="#bdd1f9"/>
      <path id="Path_6283" data-name="Path 6283" d="M507.076,976.823c3.591,1.294,16.174-.361,16.543-1.386s-8.268-10.324-11.858-11.617a6.911,6.911,0,1,0-4.685,13Z" transform="translate(-501.793 -886.28)" fill="#bdd1f9"/>
      <path id="Path_6284" data-name="Path 6284" d="M639.335,1074.259c-3.666,1.063-12.877,9.793-12.574,10.839s12.756,3.5,16.422,2.435a6.911,6.911,0,0,0-3.848-13.275Z" transform="translate(-605.279 -978.379)" fill="#bdd1f9"/>
      <path id="Path_6285" data-name="Path 6285" d="M512.237,1071.712c3.4,1.732,16.092,1.664,16.586.694s-6.912-11.277-10.313-13.009a6.911,6.911,0,1,0-6.273,12.315Z" transform="translate(-506.754 -965.6)" fill="#bdd1f9"/>
      <path id="Path_6286" data-name="Path 6286" d="M602.341,626.176c-1.016,1.591-1.589,7.843-1.135,8.133s5.882-2.863,6.9-4.455a3.418,3.418,0,0,0-5.763-3.678Z" transform="translate(-583.869 -604.083)" fill="#bdd1f9"/>
      <path id="Path_6287" data-name="Path 6287" d="M543.323,653.452c1.779.631,8-.218,8.179-.726s-4.115-5.086-5.894-5.717a3.418,3.418,0,0,0-2.286,6.443Z" transform="translate(-533.893 -622.586)" fill="#bdd1f9"/>
      <path id="Path_6288" data-name="Path 6288" d="M613.105,684.682c-1.623,2.135-3.164,10.919-2.555,11.383s8.663-3.369,10.286-5.5a4.856,4.856,0,0,0-7.731-5.879Z" transform="translate(-591.67 -652.532)" fill="#bdd1f9"/>
      <path id="Path_6289" data-name="Path 6289" d="M526.512,719.886c2.528.9,11.365-.309,11.62-1.031s-5.846-7.226-8.373-8.123a4.856,4.856,0,0,0-3.247,9.154Z" transform="translate(-519.094 -675.592)" fill="#bdd1f9"/>
    </g>
    <g id="Group_3148" data-name="Group 3148" transform="translate(525.659 274.627)">
      <path id="Path_6290" data-name="Path 6290" d="M2635.637,1210.981s-32.345-55.212,70.776-94.442C2706.413,1116.539,2704.411,1230.159,2635.637,1210.981Z" transform="translate(-2630.83 -1116.174)" fill="#7c9af2"/>
      <path id="Path_6291" data-name="Path 6291" d="M2707.2,1115.469l-73.722,87.06C2628.736,1186.189,2626.962,1145.993,2707.2,1115.469Z" transform="translate(-2631.483 -1115.283)" fill="#91b5f8"/>
      <path id="Path_6292" data-name="Path 6292" d="M2660.457,1198.113a.184.184,0,0,1-.12-.044.186.186,0,0,1-.022-.262l70.609-83.384a.186.186,0,0,1,.284.24l-70.609,83.384A.186.186,0,0,1,2660.457,1198.113Z" transform="translate(-2655.351 -1114.357)" fill="#060633"/>
      <path id="Path_6293" data-name="Path 6293" d="M2862.419,1355.137a.186.186,0,0,1-.024-.37l30.083-4.031a.186.186,0,0,1,.05.368l-30.083,4.031Z" transform="translate(-2823.566 -1311.235)" fill="#060633"/>
      <path id="Path_6294" data-name="Path 6294" d="M2771.9,1336.594a.187.187,0,0,1-.182-.223l5.943-29.2a.186.186,0,0,1,.365.074l-5.944,29.2A.186.186,0,0,1,2771.9,1336.594Z" transform="translate(-2748.175 -1274.831)" fill="#060633"/>
    </g>
    <g id="Group_3149" data-name="Group 3149" transform="translate(545.304 324.816)">
      <path id="Path_6295" data-name="Path 6295" d="M2748.575,1459.743s-7.373-45.482,72.072-45.029C2820.647,1414.714,2789.776,1490.494,2748.575,1459.743Z" transform="translate(-2748.395 -1414.711)" fill="#91b5f8"/>
      <path id="Path_6296" data-name="Path 6296" d="M2821.548,1414.731l-72.072,45.029S2784.211,1495.086,2821.548,1414.731Z" transform="translate(-2749.295 -1414.728)" fill="#7c9af2"/>
      <path id="Path_6297" data-name="Path 6297" d="M2984.6,1530.223l-.034.006-19.5,2.053a.269.269,0,1,1-.056-.535l19.5-2.053a.269.269,0,0,1,.09.529Z" transform="translate(-2928.614 -1510.479)" fill="#91b5f8"/>
      <path id="Path_6298" data-name="Path 6298" d="M2820.283,1653.612a.275.275,0,0,1-.061.007l-25.95.115a.269.269,0,1,1,0-.537l25.95-.115a.269.269,0,0,1,.063.531Z" transform="translate(-2786.381 -1613.249)" fill="#91b5f8"/>
    </g>
    <g id="Group_3150" data-name="Group 3150" transform="translate(142.24 248.072)">
      <path id="Path_6299" data-name="Path 6299" d="M387.85,1083.709s53.854-47.818-42.838-125.736C345.012,957.973,307.564,1080.269,387.85,1083.709Z" transform="translate(-336.289 -957.55)" fill="#6d8ad1"/>
      <path id="Path_6300" data-name="Path 6300" d="M388.025,956.555l48.563,118.861C447.353,1059.581,463.258,1017.179,388.025,956.555Z" transform="translate(-379.38 -956.369)" fill="#91b5f8"/>
      <path id="Path_6301" data-name="Path 6301" d="M433.61,1069.656a.186.186,0,0,1-.172-.115L386.926,955.7a.186.186,0,1,1,.344-.141L433.782,1069.4a.186.186,0,0,1-.1.242A.184.184,0,0,1,433.61,1069.656Z" transform="translate(-378.453 -955.442)" fill="#060633"/>
      <path id="Path_6302" data-name="Path 6302" d="M378.935,1237.72a.184.184,0,0,1-.081-.019l-30.791-14.8a.186.186,0,0,1,.161-.335l30.791,14.8a.186.186,0,0,1-.081.354Z" transform="translate(-346.008 -1177.918)" fill="#060633"/>
      <path id="Path_6303" data-name="Path 6303" d="M592.032,1291.34h-.021a.186.186,0,0,1-.164-.206l3.812-33.317a.186.186,0,0,1,.37.042l-3.813,33.317A.186.186,0,0,1,592.032,1291.34Z" transform="translate(-549.142 -1207.152)" fill="#060633"/>
    </g>
    <g id="Group_3151" data-name="Group 3151" transform="translate(113.351 311.508)">
      <path id="Path_6304" data-name="Path 6304" d="M236.343,1396.941s15.61-49.454-72.941-61.873C163.4,1335.068,185.455,1424.486,236.343,1396.941Z" transform="translate(-163.402 -1335.068)" fill="#3b4acc"/>
      <path id="Path_6305" data-name="Path 6305" d="M163.4,1335.068l72.941,61.873S191.912,1430.634,163.4,1335.068Z" transform="translate(-163.402 -1335.068)" fill="#7c9af2"/>
      <path id="Path_6306" data-name="Path 6306" d="M251.624,1479.559l.037.012,21.385,5.459a.3.3,0,0,0,.15-.586l-21.385-5.459a.3.3,0,0,0-.187.574Z" transform="translate(-236.724 -1454.928)" fill="#3b4acc"/>
      <path id="Path_6307" data-name="Path 6307" d="M378.76,1638.479a.308.308,0,0,0,.067.018l28.882,4.349a.3.3,0,1,0,.09-.6l-28.882-4.35a.3.3,0,0,0-.156.581Z" transform="translate(-342.614 -1587.292)" fill="#3b4acc"/>
    </g>
    <ellipse id="Ellipse_150" data-name="Ellipse 150" cx="218.638" cy="16.522" rx="218.638" ry="16.522" transform="translate(141.489 362.51)" fill="#bdd1f9"/>
    <g id="Group_3154" data-name="Group 3154" transform="translate(276.583 203.355)">
      <path id="Path_6308" data-name="Path 6308" d="M1594.572,1482.522s-2.5,32.014.908,35.419,8.4,6.584,8.854,8.628-14.757-.227-16.119-2.27-1.135-5.449-2.5-14.985-3.406-26.792-3.406-26.792Z" transform="translate(-1508.443 -1349.729)" fill="#fb9391"/>
      <path id="Path_6309" data-name="Path 6309" d="M1627.352,1709.961c-.31-1.391-2.721-3.307-5.3-5.463-.569,4.371-9.153-.111-12.1-1.791.3,2.481.575,3.918,1.285,4.983C1612.6,1709.734,1627.807,1712,1627.352,1709.961Z" transform="translate(-1531.462 -1533.122)" fill="#0b0755"/>
      <path id="Path_6310" data-name="Path 6310" d="M1491.243,1482.522s-2.5,32.014.908,35.419,8.4,6.584,8.854,8.628-14.757-.227-16.119-2.27-1.135-5.449-2.5-14.985-3.406-26.792-3.406-26.792Z" transform="translate(-1422.38 -1349.729)" fill="#fb9391"/>
      <path id="Path_6311" data-name="Path 6311" d="M1524.023,1709.961c-.309-1.391-2.721-3.307-5.3-5.463-.569,4.371-9.153-.111-12.1-1.791.3,2.481.575,3.918,1.285,4.983C1509.266,1709.734,1524.478,1712,1524.023,1709.961Z" transform="translate(-1445.399 -1533.122)" fill="#0b0755"/>
      <g id="Group_3152" data-name="Group 3152" transform="translate(0 54.794)">
        <rect id="Rectangle_870" data-name="Rectangle 870" width="3.718" height="17.358" transform="translate(18.726 34.572)" fill="#060633"/>
        <rect id="Rectangle_871" data-name="Rectangle 871" width="48.652" height="14.551" rx="7.276" transform="translate(52.756 62.686) rotate(180)" fill="#fa7267"/>
        <path id="Rectangle_872" data-name="Rectangle 872" d="M18.888,0h0A18.888,18.888,0,0,1,37.776,18.888v0A18.888,18.888,0,0,1,18.888,37.776h0A18.888,18.888,0,0,1,0,18.888v0A18.888,18.888,0,0,1,18.888,0Z" transform="translate(37.776 37.776) rotate(180)" fill="#fa7267"/>
        <rect id="Rectangle_873" data-name="Rectangle 873" width="3.718" height="52.534" transform="translate(27.57 62.686)" fill="#060633"/>
        <path id="Path_6312" data-name="Path 6312" d="M1237.406,1700.831h-36.964a1.115,1.115,0,1,1,0-2.23h36.964a1.115,1.115,0,1,1,0,2.23Z" transform="translate(-1189.456 -1584.496)" fill="#060633"/>
        <path id="Path_6313" data-name="Path 6313" d="M1393.948,1712.261a2.717,2.717,0,1,1,2.717,2.717A2.717,2.717,0,0,1,1393.948,1712.261Z" transform="translate(-1351.556 -1593.61)" fill="#060633"/>
        <path id="Path_6314" data-name="Path 6314" d="M1210.8,1712.261a2.717,2.717,0,1,1,2.717,2.717A2.717,2.717,0,0,1,1210.8,1712.261Z" transform="translate(-1199.011 -1593.61)" fill="#060633"/>
        <path id="Path_6315" data-name="Path 6315" d="M1300.106,1712.261a2.717,2.717,0,1,1,2.717,2.717A2.717,2.717,0,0,1,1300.106,1712.261Z" transform="translate(-1273.395 -1593.61)" fill="#060633"/>
      </g>
      <path id="Path_6316" data-name="Path 6316" d="M1280.556,1222.643s-1.543,15.882,4.85,19.629,25.041,8.387,26.022,11.6,1.436,22.4,1.436,22.4a58.14,58.14,0,0,0,33.9-2.409s0-30.377-5.175-34.8c-10.855-9.272-26.768-14.633-26.768-14.633Z" transform="translate(-1256.975 -1133.276)" fill="#060633"/>
      <path id="Path_6317" data-name="Path 6317" d="M1648.237,996.844a45.587,45.587,0,0,1,.431-6.121c.379-1.622-.457-3.475.5-3.584s1.522,3.045,1.522,3.045,2.189-2.586,2.741-3.483,1.947-2.25,2.635-1.9-2.265,4.476-2.265,4.476,2.827-3.228,3.532-3.038-2.29,4.825-2.29,4.825,2.847-3.59,3.316-3.677.6.51-.1,2.026a15.876,15.876,0,0,1-1.8,2.884,35.932,35.932,0,0,1,2.552-2.566c.362-.193,1-.195-.272,1.941s-4.781,6.3-7.378,7.675Z" transform="translate(-1563.353 -935.132)" fill="#fb9391"/>
      <path id="Path_6318" data-name="Path 6318" d="M1369.683,1279.262a45.569,45.569,0,0,1,5.283,3.122c1.281,1.064,3.312,1.144,2.981,2.051s-3.4,0-3.4,0,1.335,3.115,1.89,4.009,1.142,2.747.519,3.2-2.991-4.027-2.991-4.027,1.623,3.972,1.138,4.517-3.293-4.205-3.293-4.205,1.938,4.152,1.806,4.61-.724.307-1.767-1a15.883,15.883,0,0,1-1.773-2.9,36.046,36.046,0,0,1,1.155,3.43c.01.41-.274.983-1.615-1.111s-3.5-7.094-3.567-10.031Z" transform="translate(-1328.315 -1180.434)" fill="#fb9391"/>
      <path id="Path_6319" data-name="Path 6319" d="M1244.064,896.924s-14.9,4.283-18.861,9.1-8.782,28.961-7.443,35.359,23.556,24.6,23.556,24.6l7.227-5.954-2.945-5.476s12.4,2.846,20.254,0l-.357-14.931s3.391,6.731,10.886,6.731S1294.4,926.2,1294.4,926.2l-5.532-4.3s-7.426,7.223-12.413,8.575a1.985,1.985,0,0,1-2.45-1.392c-1.389-5.2-6.07-21.841-10.12-25.742C1259.071,898.708,1244.064,896.924,1244.064,896.924Z" transform="translate(-1204.619 -861.985)" fill="#4851ec"/>
      <path id="Path_6320" data-name="Path 6320" d="M1492.987,1029.98a.093.093,0,0,1-.093-.09l-.357-10.579a.1.1,0,0,1,.011-.048,16.289,16.289,0,0,0,1.862-6.736c0-3.314-3.683-7.035-3.72-7.072a.093.093,0,0,1,.131-.131c.038.038,3.775,3.814,3.775,7.2a16.424,16.424,0,0,1-1.873,6.8l.356,10.553a.093.093,0,0,1-.09.1Z" transform="translate(-1432.11 -952.248)" fill="#060633"/>
      <path id="Path_6321" data-name="Path 6321" d="M1327.951,1059.588a.093.093,0,0,1-.076-.039l-10.812-15.358a3.608,3.608,0,0,1-.643-2.392l1.668-18.8a.091.091,0,0,1,.1-.084.093.093,0,0,1,.084.1l-1.668,18.8a3.42,3.42,0,0,0,.609,2.269l10.812,15.358a.092.092,0,0,1-.076.146Z" transform="translate(-1286.971 -966.925)" fill="#060633"/>
      <path id="Path_6322" data-name="Path 6322" d="M1327.911,727.034c.4-.081,7.914-4.187,4.843-13.971s-12.07-8.848-16.428-7.26-10.7,9.839-5.92,16.814,9.308,9.011,9.308,9.011Z" transform="translate(-1280.554 -701.969)" fill="#0b0755"/>
      <g id="Group_3153" data-name="Group 3153" transform="translate(29.906 3.472)">
        <path id="Path_6323" data-name="Path 6323" d="M1450.293,796.2s.786-1.271,1.454-.785c1.7,1.241-.043,3.012-1.139,3.416Z" transform="translate(-1428.391 -780.821)" fill="#ea6868"/>
        <path id="Path_6324" data-name="Path 6324" d="M1339.151,711.906A10.16,10.16,0,0,0,1331,726.444a43.885,43.885,0,0,0,4.262,8.335,10.112,10.112,0,0,1,1.99,7.132l-.286,2.57c6,2.77,8.509.225,8.509.225l-.2-6.4h0c6.367-.962,5.147-12.729,5.038-16.215l-.01,0c0-.131,0-.262,0-.394A10.161,10.161,0,0,0,1339.151,711.906Z" transform="translate(-1328.19 -711.315)" fill="#fb9391"/>
        <path id="Path_6325" data-name="Path 6325" d="M1329.779,719.562a43.312,43.312,0,0,0-3.276,4.194,10.976,10.976,0,0,0-2.423,5.014,13.1,13.1,0,0,1-3.748-4.878,9.569,9.569,0,0,1-1.024-2.68,10.615,10.615,0,0,1,.341-4.038,11.094,11.094,0,0,1,1.893-4.856,8.442,8.442,0,0,1,2.783-2.057,14.3,14.3,0,0,1,7.867-1.579,10.3,10.3,0,0,1,6.994,3.715c2.151,2.752,2.5,6.459,2.758,9.941a10.273,10.273,0,0,0-2.358-3.753,8.714,8.714,0,0,0-2.112-1.978,42.719,42.719,0,0,1-4.316-2.217C1332.585,716.562,1331.285,717.93,1329.779,719.562Z" transform="translate(-1319.223 -708.614)" fill="#0b0755"/>
        <path id="Path_6326" data-name="Path 6326" d="M1433.8,796.325a.887.887,0,1,0-.943.827A.887.887,0,0,0,1433.8,796.325Z" transform="translate(-1413.178 -780.882)" fill="#060633"/>
        <path id="Path_6327" data-name="Path 6327" d="M1381.529,804.028a.887.887,0,1,0-.943.827A.887.887,0,0,0,1381.529,804.028Z" transform="translate(-1369.642 -787.298)" fill="#060633"/>
        <path id="Path_6328" data-name="Path 6328" d="M1406.116,833.073s-1.244-.644-1.684-.48a1.322,1.322,0,0,0-.641.731,1.025,1.025,0,0,0-.866-.482,9.855,9.855,0,0,0-2.294,1.233s1.929,2.189,3.566,1.743c1.667-.455,1.919-2.744,1.919-2.744Z" transform="translate(-1387.027 -811.853)" fill="#ea6868"/>
        <path id="Path_6329" data-name="Path 6329" d="M1372.361,795.665a.369.369,0,0,1-.257-.644,4.428,4.428,0,0,1,2.8-.969.369.369,0,0,1,.365.373.377.377,0,0,1-.373.364,3.687,3.687,0,0,0-2.3.783A.369.369,0,0,1,1372.361,795.665Z" transform="translate(-1363.165 -779.775)" fill="#0b0755"/>
        <path id="Path_6330" data-name="Path 6330" d="M1426.249,788.588a.369.369,0,0,1-.067-.69,4.379,4.379,0,0,1,2.954-.151.369.369,0,1,1-.214.706,3.67,3.67,0,0,0-2.424.112A.367.367,0,0,1,1426.249,788.588Z" transform="translate(-1408.134 -774.368)" fill="#0b0755"/>
        <path id="Path_6331" data-name="Path 6331" d="M1410.61,804.277a1.578,1.578,0,0,0,1.384-1.445.31.31,0,0,0-.077-.217,4.587,4.587,0,0,1-.931-2.816.31.31,0,0,0-.62-.022,5.211,5.211,0,0,0,.992,3.137c-.054.246-.288.8-1.285.784a.311.311,0,0,0-.011.621A2.762,2.762,0,0,0,1410.61,804.277Z" transform="translate(-1394.629 -784.295)" fill="#ea6868"/>
        <path id="Path_6332" data-name="Path 6332" d="M1400.63,836.6a52.606,52.606,0,0,0,5.486-1s-.848,1.8-2.136,1.915A8.349,8.349,0,0,1,1400.63,836.6Z" transform="translate(-1387.027 -814.381)" fill="#fff"/>
        <path id="Path_6333" data-name="Path 6333" d="M1369.728,796.69a3.031,3.031,0,1,1,2.965-3.683h0a3.03,3.03,0,0,1-2.307,3.611A3.052,3.052,0,0,1,1369.728,796.69Zm.007-5.876a2.845,2.845,0,1,0,2.777,2.232h0A2.849,2.849,0,0,0,1369.734,790.815Z" transform="translate(-1358.769 -776.924)" fill="#060633"/>
        <path id="Path_6334" data-name="Path 6334" d="M1421.988,787.538a3.031,3.031,0,1,1,2.965-3.683h0a3.03,3.03,0,0,1-2.307,3.611A3.054,3.054,0,0,1,1421.988,787.538Zm.011-5.877a2.845,2.845,0,1,0,.606,5.623,2.844,2.844,0,0,0,2.166-3.39h0a2.847,2.847,0,0,0-2.772-2.233Z" transform="translate(-1402.297 -769.3)" fill="#060633"/>
        <path id="Path_6335" data-name="Path 6335" d="M1345.346,810.7l-.02-.185,3.656-.381.02.185Z" transform="translate(-1340.964 -793.172)" fill="#060633"/>
        <path id="Path_6336" data-name="Path 6336" d="M1402.108,802.889l-.124-.139a2.669,2.669,0,0,1,3.067-.573l-.094.161A2.447,2.447,0,0,0,1402.108,802.889Z" transform="translate(-1388.155 -786.334)" fill="#060633"/>
        <path id="Path_6337" data-name="Path 6337" d="M1335.706,810.891a1.508,1.508,0,0,0-.813-.692,2.546,2.546,0,0,0-2.78.346c-1.208,1.286,1.4,4.515,3.833,2.794C1335.947,813.338,1336.633,812.608,1335.706,810.891Z" transform="translate(-1329.705 -793.012)" fill="#fb9391"/>
      </g>
      <path id="Path_6338" data-name="Path 6338" d="M1298.087,692.729a6.235,6.235,0,1,0-4.748,7.431A6.235,6.235,0,0,0,1298.087,692.729Z" transform="translate(-1261.448 -687.834)" fill="#0b0755"/>
    </g>
    <g id="Group_3155" data-name="Group 3155" transform="translate(371.445 181.51)">
      <path id="Path_6339" data-name="Path 6339" d="M1950.526,595.023c.08,2.807,3.455,5.146,2.53,7.8-.205.589-.613,1.1-.778,1.7a2.883,2.883,0,0,0,1.908,3.225,5.513,5.513,0,0,0,4-.316c1.265-.528,2.415-1.3,3.663-1.868,2.8-1.273,5.946-1.466,8.963-2.059,3.061-.6,6.1-1.637,9.214-1.42,3.588.25,6.823,2.13,10.183,3.414a31.826,31.826,0,0,0,10.742,2.088,11.567,11.567,0,0,0,5.589-1,7.807,7.807,0,0,0,3.335-9.625,9.293,9.293,0,0,0-4.156-4.621c-1.644-.917-3.741-1.225-4.981-2.761-1.737-2.151-.672-5.367-1.357-8.045a7.9,7.9,0,0,0-4.57-5c-1.958-.838-4.391-.954-5.862-2.677-1.6-1.873-1.067-4.465-1.354-6.713a11.137,11.137,0,0,0-5.3-7.774,14.361,14.361,0,0,0-2.646-1.284c-6.174-2.265-14.218-.7-16.385,6.356-.664,2.163-.616,4.581-1.8,6.51-1.285,2.1-3.872,3.336-4.586,5.688-.9,2.957,1.638,6.131.8,9.105-.546,1.944-2.361,3.2-3.968,4.423S1950.469,593.005,1950.526,595.023Z" transform="translate(-1909.99 -557.108)" fill="#060633"/>
      <path id="Path_6340" data-name="Path 6340" d="M2047.779,1653.174s-.2,14.833-1.763,16.454c-.89.926-18.578,2.868-19.077.5s12.967-5.611,13.965-9.975a27.765,27.765,0,0,0,.5-8.479Z" transform="translate(-1973.625 -1468.772)" fill="#fb9391"/>
      <path id="Path_6341" data-name="Path 6341" d="M1744.544,1620.04s-3.559,7.829-4.271,9.253-1.424,6.406-2.847,6.584-16.726,1.779-17.082-.712,13.524-6.584,14.413-8.541,4.27-10.143,4.27-10.143Z" transform="translate(-1718.267 -1439.459)" fill="#fb9391"/>
      <path id="Path_6342" data-name="Path 6342" d="M1860.909,1009.625s9.975,16.674,10.868,25.309-5.508,40.941-5.434,43.026.9,6.848.043,10.124-6.221,13.1-5.477,15.781-1.34,15.483-1.34,15.483h-11.612s1.489-15.186,0-21.736-1.489-17.27-1.489-21.736v-33.348s-7.146,13.7-7.444,15.483-.6,3.275-2.978,9.528-7.742,11.315-8.635,13.995-1.191,5.36-2.68,8.039-5.062,3.871-6.551,10.421-7.444,15.781-7.444,15.781l-12.8-4.466s9.528-24.714,9.528-25.607,4.466-5.658,4.466-14.292,5.36-20.247,6.848-22.332,15.186-39.155,20.694-41.685S1860.909,1009.625,1860.909,1009.625Z" transform="translate(-1782.897 -931.532)" fill="#91b5f8"/>
      <path id="Path_6343" data-name="Path 6343" d="M1968.236,750.484c6.029.223,15.409,2.9,20.768,11.836a83.882,83.882,0,0,1,7.816,17.2l-12.952,4.69-1.34-5.136s-3.35,16.3-6.7,17.642-5.583-1.117-7.593-1.34-8.486,1.786-13.846.223-5.583-5.583-6.253-10.272-1.563-8.933-1.563-8.933l-2.01,1.563L1934.211,767.6s12.14-12.425,18.839-14.435A86.341,86.341,0,0,1,1968.236,750.484Z" transform="translate(-1896.402 -718.171)" fill="#fff"/>
      <path id="Path_6344" data-name="Path 6344" d="M2231.694,929.892s.88,13.865,0,20.565-8.026,21.141-8.026,21.141l-4.317-4.466s7.168-19.993,3.51-34.04Z" transform="translate(-2133.896 -867.6)" fill="#fb9391"/>
      <path id="Path_6345" data-name="Path 6345" d="M2024.331,657.216s-1-1.107-1.571-.508c-1.449,1.527.587,2.953,1.738,3.151Z" transform="translate(-1969.737 -639.916)" fill="#ea6868"/>
      <path id="Path_6346" data-name="Path 6346" d="M2036.611,561.608a10.154,10.154,0,0,1,10.637,12.816,43.823,43.823,0,0,1-2.682,8.963,10.105,10.105,0,0,0-.666,7.37l.745,2.475c-5.4,3.808-8.4,1.275-8.4,1.275l-.887-5.841h0c-6.432.206-7.361-11.581-7.884-15.027h.01c-.025-.129-.049-.257-.069-.387A10.155,10.155,0,0,1,2036.611,561.608Z" transform="translate(-1973.939 -560.826)" fill="#fb9391"/>
      <path id="Path_6347" data-name="Path 6347" d="M2037.977,568.588a43.349,43.349,0,0,1,3.979,3.53,10.972,10.972,0,0,1,3.288,4.491,13.1,13.1,0,0,0,2.8-5.472,9.558,9.558,0,0,0,.521-2.819,10.6,10.6,0,0,0-1.065-3.907,11.083,11.083,0,0,0-2.738-4.43,8.433,8.433,0,0,0-3.108-1.519,14.285,14.285,0,0,0-8.018-.13,10.29,10.29,0,0,0-6.2,4.916c-1.616,3.093-1.286,6.8-.913,10.27a10.268,10.268,0,0,1,1.639-4.115,8.7,8.7,0,0,1,1.718-2.325,42.732,42.732,0,0,0,3.842-2.959C2034.676,566.147,2036.2,567.256,2037.977,568.588Z" transform="translate(-1973.033 -557.699)" fill="#060633"/>
      <path id="Path_6348" data-name="Path 6348" d="M2129.788,651.367a1.506,1.506,0,0,1,.674-.827,2.544,2.544,0,0,1,2.795-.163c1.42,1.046-.564,4.692-3.263,3.439C2129.994,653.817,2129.187,653.222,2129.788,651.367Z" transform="translate(-2059.113 -634.489)" fill="#fb9391"/>
      <path id="Path_6349" data-name="Path 6349" d="M2044.558,654.2a.886.886,0,1,1,1.076.643A.886.886,0,0,1,2044.558,654.2Z" transform="translate(-1988.288 -637.053)" fill="#060633"/>
      <path id="Path_6350" data-name="Path 6350" d="M2094.894,652.23a.886.886,0,1,1,1.076.642A.886.886,0,0,1,2094.894,652.23Z" transform="translate(-2030.213 -635.416)" fill="#060633"/>
      <path id="Path_6351" data-name="Path 6351" d="M2061.887,692.991s.7-.622,1.158-.54a1.32,1.32,0,0,1,.762.6,1.025,1.025,0,0,1,.765-.63,12.766,12.766,0,0,1,2.125.213s-1.2,2.47-2.875,2.219a2.223,2.223,0,0,1-1.9-1.787Z" transform="translate(-2002.744 -669.804)" fill="#ea6868"/>
      <path id="Path_6352" data-name="Path 6352" d="M2062.475,692.818a5.245,5.245,0,0,0,3.634-1.364.125.125,0,0,0-.171-.182c-.111.1-2.754,2.536-5.094.552a.125.125,0,0,0-.162.19A3.311,3.311,0,0,0,2062.475,692.818Z" transform="translate(-2001.704 -668.825)" fill="#240d39"/>
      <path id="Path_6353" data-name="Path 6353" d="M2095.578,642.078a.369.369,0,0,0,.1-.686,4.424,4.424,0,0,0-2.942-.291.369.369,0,0,0-.268.447.378.378,0,0,0,.447.267,3.685,3.685,0,0,1,2.415.226A.369.369,0,0,0,2095.578,642.078Z" transform="translate(-2028.205 -626.958)" fill="#060633"/>
      <path id="Path_6354" data-name="Path 6354" d="M2040.517,642.425a.368.368,0,0,0-.025-.692,4.375,4.375,0,0,0-2.946.241.368.368,0,1,0,.3.671,3.67,3.67,0,0,1,2.416-.211A.367.367,0,0,0,2040.517,642.425Z" transform="translate(-1982.29 -627.467)" fill="#060633"/>
      <path id="Path_6355" data-name="Path 6355" d="M2066.342,657.811a1.577,1.577,0,0,1-1.622-1.17.31.31,0,0,1,.036-.227,4.582,4.582,0,0,0,.406-2.936.31.31,0,0,1,.606-.134,5.208,5.208,0,0,1-.407,3.263c.1.233.428.736,1.405.538a.31.31,0,0,1,.124.608A2.766,2.766,0,0,1,2066.342,657.811Z" transform="translate(-2005.097 -637.06)" fill="#ea6868"/>
      <path id="Path_6356" data-name="Path 6356" d="M2007.646,851.77a.078.078,0,0,1-.077-.07c-.407-4.438,3.026-10.7,3.061-10.763a.077.077,0,0,1,.135.075c-.034.063-3.445,6.284-3.042,10.674a.077.077,0,0,1-.07.084Z" transform="translate(-1957.474 -793.475)" fill="#272035"/>
      <path id="Path_6357" data-name="Path 6357" d="M2120.371,911.852a13.918,13.918,0,0,1-7.026-2.214.077.077,0,0,1,.088-.127c.061.042,6.126,4.175,11.379.965a.077.077,0,1,1,.08.132A8.536,8.536,0,0,1,2120.371,911.852Z" transform="translate(-2045.575 -850.613)" fill="#272035"/>
      <path id="Path_6358" data-name="Path 6358" d="M2047.295,1724.947c-9.051,4.613-12.07,3.047-13.07,1.577-3.707,1.824-7.5,3.355-7.229,4.633.5,2.369,18.187.427,19.077-.5C2046.643,1730.065,2047.031,1727.7,2047.295,1724.947Z" transform="translate(-1973.672 -1529.801)" fill="#474fea"/>
      <path id="Path_6359" data-name="Path 6359" d="M1727.181,1696.9c-3.571,1.592-7.016,3.257-6.836,4.514.356,2.491,15.659.89,17.082.712,1.292-.161,2-4.279,2.649-6.1C1732.487,1700.276,1728.652,1698.164,1727.181,1696.9Z" transform="translate(-1718.268 -1505.713)" fill="#474fea"/>
      <path id="Path_6360" data-name="Path 6360" d="M2184.674,1147.544a49.346,49.346,0,0,0-5.3,4.009c-1.248,1.3-3.424,1.639-2.957,2.574s3.664-.418,3.664-.418-1.053,3.516-1.542,4.547-.891,3.1-.165,3.513,2.724-4.7,2.724-4.7-1.258,4.474-.67,5,3.026-4.93,3.026-4.93-1.575,4.707-1.377,5.183.817.242,1.779-1.289a17.218,17.218,0,0,0,1.551-3.342,38.981,38.981,0,0,0-.821,3.833c.039.443.415,1.024,1.6-1.394s2.9-8.065,2.605-11.234Z" transform="translate(-2098.082 -1048.882)" fill="#fb9391"/>
      <path id="Path_6361" data-name="Path 6361" d="M1721.507,775.788a49.383,49.383,0,0,0-1.917-6.364c-.788-1.623-.347-3.78-1.386-3.666s-.881,3.581-.881,3.581-2.931-2.209-3.728-3.025-2.594-1.912-3.236-1.375,3.462,4.188,3.462,4.188-3.758-2.735-4.457-2.366,3.572,4.551,3.572,4.551-3.866-3.113-4.382-3.092-.51.682.591,2.116a17.193,17.193,0,0,0,2.6,2.615,38.96,38.96,0,0,0-3.309-2.1c-.428-.117-1.1.034.751,1.986s6.557,5.518,9.629,6.346Z" transform="translate(-1707.949 -730.091)" fill="#fb9391"/>
      <path id="Path_6362" data-name="Path 6362" d="M1801.085,839.4s-9.794,11.733-17.778,10.448-18.832-20.7-18.832-20.7l3.861-2.356s12.029,13.159,16.232,12.318,10.137-6.088,10.137-6.088Z" transform="translate(-1755.029 -781.729)" fill="#fb9391"/>
    </g>
    <g id="Group_3156" data-name="Group 3156" transform="translate(503.348 258.149)">
      <rect id="Rectangle_874" data-name="Rectangle 874" width="3.718" height="17.358" transform="translate(30.312 34.572)" fill="#060633"/>
      <path id="Rectangle_875" data-name="Rectangle 875" d="M7.276,0h34.1a7.276,7.276,0,0,1,7.276,7.276v0a7.276,7.276,0,0,1-7.276,7.276H7.276A7.276,7.276,0,0,1,0,7.276v0A7.276,7.276,0,0,1,7.276,0Z" transform="translate(0 48.135)" fill="#fa7267"/>
      <path id="Rectangle_876" data-name="Rectangle 876" d="M18.888,0h0A18.888,18.888,0,0,1,37.776,18.888v0A18.888,18.888,0,0,1,18.888,37.776h0A18.888,18.888,0,0,1,0,18.888v0A18.888,18.888,0,0,1,18.888,0Z" transform="translate(14.98 0)" fill="#fa7267"/>
      <rect id="Rectangle_877" data-name="Rectangle 877" width="3.718" height="52.534" transform="translate(21.469 62.686)" fill="#060633"/>
      <path id="Path_6363" data-name="Path 6363" d="M2557.482,1700.831h-36.964a1.115,1.115,0,1,1,0-2.23h36.964a1.115,1.115,0,1,1,0,2.23Z" transform="translate(-2515.712 -1584.496)" fill="#060633"/>
      <path id="Path_6364" data-name="Path 6364" d="M2532.252,1712.261a2.717,2.717,0,1,0-2.717,2.717A2.717,2.717,0,0,0,2532.252,1712.261Z" transform="translate(-2521.888 -1593.61)" fill="#060633"/>
      <path id="Path_6365" data-name="Path 6365" d="M2715.4,1712.261a2.717,2.717,0,1,0-2.717,2.717A2.717,2.717,0,0,0,2715.4,1712.261Z" transform="translate(-2674.435 -1593.61)" fill="#060633"/>
      <path id="Path_6366" data-name="Path 6366" d="M2626.095,1712.261a2.717,2.717,0,1,0-2.717,2.717A2.717,2.717,0,0,0,2626.095,1712.261Z" transform="translate(-2600.05 -1593.61)" fill="#060633"/>
    </g>
    <g id="Group_3159" data-name="Group 3159" transform="translate(473.74 201.006)">
      <path id="Path_6367" data-name="Path 6367" d="M2331.384,940.44a45.557,45.557,0,0,0-.431-6.121c-.379-1.622.458-3.474-.5-3.584s-1.522,3.045-1.522,3.045-2.189-2.586-2.741-3.483-1.947-2.25-2.635-1.9,2.265,4.476,2.265,4.476-2.827-3.227-3.531-3.038,2.29,4.825,2.29,4.825-2.848-3.59-3.316-3.677-.6.51.1,2.026a15.887,15.887,0,0,0,1.8,2.884,36.022,36.022,0,0,0-2.552-2.566c-.362-.193-1-.195.272,1.941s4.781,6.3,7.378,7.675Z" transform="translate(-2320.128 -885.805)" fill="#fb9391"/>
      <path id="Path_6368" data-name="Path 6368" d="M2400.375,1645.33s-.709,9.433-.781,9.565.675,1.289.675,1.289l2.916.523,2.662-1.224s1.445-9.2,1.723-10.558S2400.375,1645.33,2400.375,1645.33Z" transform="translate(-2386.312 -1482.22)" fill="#fb9391"/>
      <path id="Path_6369" data-name="Path 6369" d="M2351.811,1706.828a7.582,7.582,0,0,1-6.234-.77s-11.193,4.2-10.851,7.385c0,0-.476.95,4.373.745s12.386-.421,12.588-.533S2352.838,1714.056,2351.811,1706.828Z" transform="translate(-2332.275 -1533.564)" fill="#0b0755"/>
      <path id="Path_6370" data-name="Path 6370" d="M2543.424,1642.533s.133,9.246.061,9.378.675,1.289.675,1.289l2.917.523,2.662-1.224s-.235-8.6.044-9.951S2543.424,1642.533,2543.424,1642.533Z" transform="translate(-2506.111 -1480.162)" fill="#fb9391"/>
      <path id="Path_6371" data-name="Path 6371" d="M2495.981,1701.287a7.582,7.582,0,0,1-6.235-.77s-11.193,4.2-10.851,7.385c0,0-.477.95,4.374.745s12.386-.421,12.588-.533S2497.008,1708.514,2495.981,1701.287Z" transform="translate(-2452.354 -1528.949)" fill="#0b0755"/>
      <g id="Group_3157" data-name="Group 3157" transform="translate(45.742 1.221)">
        <path id="Path_6372" data-name="Path 6372" d="M2596.092,761.554s-.709-1.317-1.405-.871c-1.774,1.138-.269,2.945.8,3.414Z" transform="translate(-2593.868 -747.306)" fill="#ea6868"/>
        <path id="Path_6373" data-name="Path 6373" d="M2602.639,690.721l.01,0c.007-.131.014-.262.026-.393a10.166,10.166,0,1,1,18.995,5.888c-1.154,2.283-2.164,4.233-3.191,5.838a14.526,14.526,0,0,0-2.208,8.947l.19,2.471c-6.523,2.745-9.08-.594-9.08-.594l.293-4.478a1.129,1.129,0,0,0-.958-1.186l-.01,0C2599.036,706.011,2602.323,694.2,2602.639,690.721Z" transform="translate(-2600.366 -681.086)" fill="#fb9391"/>
        <path id="Path_6374" data-name="Path 6374" d="M2666.975,771.942a.946.946,0,1,1,.856,1.028A.947.947,0,0,1,2666.975,771.942Z" transform="translate(-2654.756 -756.043)" fill="#060633"/>
        <path id="Path_6375" data-name="Path 6375" d="M2617.765,757.343a.946.946,0,1,1,.857,1.028A.946.946,0,0,1,2617.765,757.343Z" transform="translate(-2613.769 -743.884)" fill="#060633"/>
        <path id="Path_6376" data-name="Path 6376" d="M2669.3,757.388a.549.549,0,0,0,.291-.053.555.555,0,0,0,.259-.741,2.973,2.973,0,0,0-3.948-1.314.555.555,0,0,0,.4,1.033,1.871,1.871,0,0,1,2.545.763A.555.555,0,0,0,2669.3,757.388Z" transform="translate(-2653.572 -742.652)" fill="#060633"/>
        <path id="Path_6377" data-name="Path 6377" d="M2617.227,743.756a.554.554,0,0,0,.549-.793,2.972,2.972,0,0,0-3.948-1.314.555.555,0,1,0,.4,1.033,1.871,1.871,0,0,1,2.545.763A.554.554,0,0,0,2617.227,743.756Z" transform="translate(-2610.199 -731.297)" fill="#060633"/>
        <path id="Path_6378" data-name="Path 6378" d="M2706.6,737.8l-3.371,6.6-1.807-.536-.3-8.936Z" transform="translate(-2683.199 -725.93)" fill="#060633"/>
        <path id="Path_6379" data-name="Path 6379" d="M2698.417,782.837a1.509,1.509,0,0,1,.854-.642,2.548,2.548,0,0,1,2.756.511c1.13,1.357-1.672,4.425-4,2.562C2698.031,785.267,2697.389,784.5,2698.417,782.837Z" transform="translate(-2680.46 -765.148)" fill="#fb9391"/>
        <path id="Path_6380" data-name="Path 6380" d="M2632.366,771.848a1.894,1.894,0,0,0,1.724.105.164.164,0,0,0-.148-.294,1.544,1.544,0,0,1-1.809-.429c-.135-.147-.2-.262-.2-.342.005-.113.153-.246.358-.43a4.842,4.842,0,0,0,1.642-2.858.165.165,0,1,0-.321-.072,4.49,4.49,0,0,1-1.541,2.685c-.254.228-.455.408-.467.659a.822.822,0,0,0,.283.58A2.179,2.179,0,0,0,2632.366,771.848Z" transform="translate(-2625.301 -752.977)" fill="#ea6868"/>
        <path id="Path_6381" data-name="Path 6381" d="M2607.07,712.207s-1.548.889-2.465,7c0,0,.129-6.895.96-7.58S2607.07,712.207,2607.07,712.207Z" transform="translate(-2602.811 -706.356)" fill="#060633"/>
      </g>
      <path id="Path_6382" data-name="Path 6382" d="M2455.314,1146.88l-33.186-9.618-12.16,9.3.671,11.386-.045,0-13.609,11.169a15.082,15.082,0,0,0-5.453,10.308l-4.253,47.362h11.644l12.447-47.138v47.138h10.43l7.632-43.219,17.285-11.673a20,20,0,0,0,8.8-17.093Z" transform="translate(-2376.058 -1059.814)" fill="#2f3dbc"/>
      <path id="Path_6383" data-name="Path 6383" d="M2623.365,867.622h-10.131l-3.927,16.983v32.58s9.3,4.505,21.547-1.386l-3.571-38.125Z" transform="translate(-2560.985 -835.231)" fill="#fff"/>
      <path id="Path_6384" data-name="Path 6384" d="M2693.438,867.622s15.287,6.47,18.291,10.629c2.774,3.841,2.385.188,10.375,21.748a8.921,8.921,0,0,1-1.111,8.293,6.017,6.017,0,0,1-2.8,2.108l-7.873,2.937.833,20.022-15.25,1.5Z" transform="translate(-2631.058 -835.231)" fill="#4851ec"/>
      <path id="Path_6385" data-name="Path 6385" d="M2535.656,867.622s-15.287,6.47-18.291,10.629.578,55.108.578,55.108l15.25,1.5Z" transform="translate(-2483.407 -835.231)" fill="#4851ec"/>
      <path id="Path_6386" data-name="Path 6386" d="M2633.678,871.256l-1.781,3.033,3.711,42.891-5.725,9.242-4.25-9.473,4.117-42.919-1.3-3.033,3.494-1.3Z" transform="translate(-2574.583 -836.959)" fill="#fa7267"/>
      <path id="Path_6387" data-name="Path 6387" d="M2642.938,858.594l-.759-1.666-4.764,1.666-3.942-1.811-.667,1.811.839,3.119,3.6-2.336,3.509,2.553Z" transform="translate(-2580.558 -826.202)" fill="#fff"/>
      <path id="Path_6388" data-name="Path 6388" d="M2618.226,674.667c-.291-.3-.827-.537-1.072-.2a.727.727,0,0,0-.088.484,4.476,4.476,0,0,0,.341,1.414c-1.708-2-4.556-2.623-7.187-2.584s-5.245.614-7.873.485c-1.042-.051-2.292-.125-2.9.72a1.788,1.788,0,0,0,.1,2.04,3.148,3.148,0,0,0,1.829,1.109,1.419,1.419,0,0,0-1.782,2.013,2.853,2.853,0,0,0,2.379,1.028,80.507,80.507,0,0,0,8.593.243l-1.25,1.009a1.074,1.074,0,0,0-.357.407.805.805,0,0,0,.124.714,2.123,2.123,0,0,0,1.673.853,8.628,8.628,0,0,0,1.932-.209,15.333,15.333,0,0,1,2.833-.2,1.421,1.421,0,0,1,.576.1,1.828,1.828,0,0,1,.568.544,8.2,8.2,0,0,0,4.116,2.188c.469.143,1.089.234,1.35-.181a1.086,1.086,0,0,0,.121-.549,12.7,12.7,0,0,0-1.582-6.548.714.714,0,0,0,1.3.042c.4-.756-.55-1.379-1.084-1.69-.489-.284-.953-.344-1.316-.819C2618.989,676.336,2618.931,675.389,2618.226,674.667Z" transform="translate(-2552.54 -673.78)" fill="#060633"/>
      <path id="Path_6389" data-name="Path 6389" d="M2624.708,802.371l-5.353-1.294s.307,2.967,2.252,2.967A4.108,4.108,0,0,0,2624.708,802.371Z" transform="translate(-2569.354 -779.806)" fill="#fff"/>
      <path id="Path_6390" data-name="Path 6390" d="M2699.4,870.354l-3,12.373,3,1.254-4.423,25.653-1.539-42.012Z" transform="translate(-2631.057 -835.231)" fill="#2f3dbc"/>
      <path id="Path_6391" data-name="Path 6391" d="M2382.4,912.307a17.36,17.36,0,0,0-7.2,8.94c-2.141,6.156-5.15,15.763-9.18,17.213-3.212,1.156-8.888-12.613-8.888-12.613l-7.495,2.609s4.693,28.1,19.273,25.582c9.267-1.6,12.313-21.949,12.313-21.949Z" transform="translate(-2344.705 -872.449)" fill="#4851ec"/>
      <path id="Path_6392" data-name="Path 6392" d="M2597.127,870.354l3,12.373-3,1.254,4.423,25.653,1.539-42.012Z" transform="translate(-2550.84 -835.231)" fill="#2f3dbc"/>
      <g id="Group_3158" data-name="Group 3158" transform="translate(50.687 70.55)">
        <path id="Path_6393" data-name="Path 6393" d="M2637.713,1098.808a46.34,46.34,0,0,0-5.988-1.756c-1.68-.213-3.151-1.667-3.594-.791s2.364,2.53,2.364,2.53-3.241,1.171-4.291,1.38-2.834,1.059-2.741,1.84,5.069-.574,5.069-.574-4.078,1.552-4.146,2.291,5.411-.474,5.411-.474-4.431,1.443-4.679,1.86.274.751,1.967.621a16.144,16.144,0,0,0,3.388-.7,36.586,36.586,0,0,0-3.35,1.524c-.312.277-.54.886,1.947.428s7.7-2.325,9.929-4.316Z" transform="translate(-2623.459 -1095.983)" fill="#fb9391"/>
      </g>
      <path id="Path_6394" data-name="Path 6394" d="M2530.522,1282.927h0a.186.186,0,0,1-.186-.186,20.854,20.854,0,0,1,3.786-11.273c2.372-3.106,13.763-10.1,14.247-10.4a.186.186,0,1,1,.194.317c-.117.072-11.815,7.254-14.145,10.3a20.452,20.452,0,0,0-3.709,11.048A.186.186,0,0,1,2530.522,1282.927Z" transform="translate(-2495.21 -1162.913)" fill="#0b0755"/>
      <path id="Path_6395" data-name="Path 6395" d="M2709.277,1031.1a.093.093,0,0,1-.089-.065l-2.476-8.03a.093.093,0,0,1,.042-.108l13.5-7.777-3.763-8.986a.093.093,0,1,1,.171-.072l3.794,9.062a.093.093,0,0,1-.039.117l-13.505,7.781,2.43,7.879,12.011-2.395a.09.09,0,0,1,.109.073.093.093,0,0,1-.073.109l-12.094,2.411Z" transform="translate(-2642.11 -950.487)" fill="#17152b"/>
    </g>
    <rect id="Rectangle_878" data-name="Rectangle 878" width="272.704" height="5.889" transform="translate(239.786 288.617)" fill="#060633"/>
    <path id="Path_6396" data-name="Path 6396" d="M2230.055,1302.65h-.029a.558.558,0,0,1-.529-.585l4.551-89.172a.558.558,0,0,1,1.114.057l-4.55,89.172A.558.558,0,0,1,2230.055,1302.65Z" transform="translate(-1770.901 -921.359)" fill="#060633"/>
    <path id="Path_6397" data-name="Path 6397" d="M2469.056,1302.651a.557.557,0,0,1-.557-.529l-4.55-89.172a.558.558,0,0,1,1.114-.057l4.55,89.172a.558.558,0,0,1-.528.585Z" transform="translate(-1966.176 -921.359)" fill="#060633"/>
    <g id="Group_3160" data-name="Group 3160" transform="translate(449.081 263.262)">
      <path id="Path_6398" data-name="Path 6398" d="M2172.559,1046.394l34.584-.048,10.88,25.288-34.584.048Z" transform="translate(-2172.559 -1046.346)" fill="#0b0755"/>
      <rect id="Rectangle_879" data-name="Rectangle 879" width="23.154" height="1.531" transform="translate(61.827 25.265) rotate(179.92)" fill="#0b0755"/>
      <path id="Path_6399" data-name="Path 6399" d="M2282.043,1112.308a1.522,1.522,0,1,0-1.531,1.514A1.523,1.523,0,0,0,2282.043,1112.308Z" transform="translate(-2261.212 -1100.01)" fill="#fff"/>
    </g>
    <g id="Group_3167" data-name="Group 3167" transform="translate(170.914 233.668)">
      <path id="Path_6400" data-name="Path 6400" d="M800.866,1636.026a.931.931,0,0,1-.9-1.151l5.45-22.271a.929.929,0,0,1,1.806.442l-5.45,22.272A.93.93,0,0,1,800.866,1636.026Z" transform="translate(-751.134 -1487.798)" fill="#0b0755"/>
      <path id="Path_6401" data-name="Path 6401" d="M617.359,1585.974a.931.931,0,0,1-.9-1.151l7.907-32.313a.93.93,0,0,1,1.806.442l-7.907,32.313A.93.93,0,0,1,617.359,1585.974Z" transform="translate(-598.291 -1437.745)" fill="#0b0755"/>
      <path id="Path_6402" data-name="Path 6402" d="M539.2,1061.438c54.465,0,44,56.013,61.162,55.051s25.126,39.495-37.293,39.495S489.069,1061.438,539.2,1061.438Z" transform="translate(-507.886 -1029.322)" fill="#fa7267"/>
      <g id="Group_3166" data-name="Group 3166" transform="translate(10.768 0)">
        <path id="Path_6403" data-name="Path 6403" d="M1109.727,1643.929s-.133,9.246-.061,9.378-.675,1.289-.675,1.289l-2.917.522-2.661-1.224s.234-8.6-.044-9.951S1109.727,1643.929,1109.727,1643.929Z" transform="translate(-1014.625 -1513.986)" fill="#fb9391"/>
        <path id="Path_6404" data-name="Path 6404" d="M1101.336,1702.682a7.581,7.581,0,0,0,6.234-.77s11.193,4.2,10.851,7.385c0,0,.477.951-4.373.745s-12.386-.421-12.589-.533S1100.309,1709.91,1101.336,1702.682Z" transform="translate(-1012.548 -1562.773)" fill="#0b0755"/>
        <path id="Path_6405" data-name="Path 6405" d="M940.727,1643.929s-.133,9.246-.061,9.378-.675,1.289-.675,1.289l-2.917.522-2.662-1.224s.235-8.6-.044-9.951S940.727,1643.929,940.727,1643.929Z" transform="translate(-873.865 -1513.986)" fill="#fb9391"/>
        <path id="Path_6406" data-name="Path 6406" d="M932.336,1702.682a7.582,7.582,0,0,0,6.235-.77s11.193,4.2,10.851,7.385c0,0,.477.951-4.373.745s-12.386-.421-12.588-.533S931.309,1709.91,932.336,1702.682Z" transform="translate(-871.788 -1562.773)" fill="#0b0755"/>
        <g id="Group_3162" data-name="Group 3162" transform="translate(18.983)">
          <g id="Group_3161" data-name="Group 3161" transform="translate(1.329 3.831)">
            <path id="Path_6407" data-name="Path 6407" d="M817.465,987.2s.976-1.17,1.58-.583c1.539,1.5-.331,2.994-1.495,3.244Z" transform="translate(-796.815 -970.698)" fill="#ea6868"/>
            <path id="Path_6408" data-name="Path 6408" d="M720.093,904.057h-.01c.02-.132.039-.264.054-.4a10.354,10.354,0,1,0-20.153,2.017c.688,2.513,1.3,4.665,2,6.475a14.79,14.79,0,0,1,.385,9.378l-.692,2.428c5.952,4.065,9.183,1.252,9.183,1.252l.617-4.528a1.15,1.15,0,0,1,1.2-.989h.011C720.583,920.048,719.7,907.589,720.093,904.057Z" transform="translate(-698.555 -892.168)" fill="#fb9391"/>
            <path id="Path_6409" data-name="Path 6409" d="M746.181,983.3a.964.964,0,1,0-1.064.852A.963.963,0,0,0,746.181,983.3Z" transform="translate(-735.842 -967.181)" fill="#050521"/>
            <path id="Path_6410" data-name="Path 6410" d="M798.258,978.729a.964.964,0,1,0-1.064.852A.964.964,0,0,0,798.258,978.729Z" transform="translate(-779.217 -963.374)" fill="#050521"/>
            <path id="Path_6411" data-name="Path 6411" d="M733.709,967.31a.565.565,0,0,1-.387-.9,3.028,3.028,0,0,1,4.207-.509.565.565,0,1,1-.613.949,1.906,1.906,0,0,0-2.695.244A.564.564,0,0,1,733.709,967.31Z" transform="translate(-726.637 -953.065)" fill="#050521"/>
            <path id="Path_6412" data-name="Path 6412" d="M788.448,964.287a.565.565,0,0,1-.387-.9,3.027,3.027,0,0,1,4.207-.509.565.565,0,0,1-.613.949,1.906,1.906,0,0,0-2.695.244A.564.564,0,0,1,788.448,964.287Z" transform="translate(-772.229 -950.547)" fill="#050521"/>
            <path id="Path_6413" data-name="Path 6413" d="M693.888,942.228l2.023,7.271,1.912-.168,2.115-8.858Z" transform="translate(-693.888 -932.402)" fill="#0b0755"/>
            <path id="Path_6414" data-name="Path 6414" d="M699.306,985.95a1.537,1.537,0,0,0-.721-.814,2.594,2.594,0,0,0-2.854-.05c-1.4,1.124.769,4.756,3.467,3.368C699.2,988.454,699.995,987.816,699.306,985.95Z" transform="translate(-695.056 -969.211)" fill="#fb9391"/>
            <path id="Path_6415" data-name="Path 6415" d="M773.93,989.08a1.929,1.929,0,0,1-1.742-.245.168.168,0,0,1,.207-.264,1.572,1.572,0,0,0,1.892-.061c.164-.119.254-.22.266-.3.018-.114-.1-.276-.27-.5a4.93,4.93,0,0,1-1.058-3.186.168.168,0,0,1,.335-.006,4.574,4.574,0,0,0,.992,2.992c.207.279.371.5.332.752a.836.836,0,0,1-.4.521A2.222,2.222,0,0,1,773.93,989.08Z" transform="translate(-759.051 -968.948)" fill="#ea6868"/>
            <path id="Path_6416" data-name="Path 6416" d="M758.646,1020.548s3.855.912,6.458.032c0,0-.947,2.937-3.244,2.926S758.646,1020.548,758.646,1020.548Z" transform="translate(-747.825 -999.096)" fill="#fff"/>
            <path id="Path_6417" data-name="Path 6417" d="M815.522,935.362s1.364,1.2,1.037,7.489c0,0,1.272-6.907.582-7.76S815.522,935.362,815.522,935.362Z" transform="translate(-795.197 -927.652)" fill="#0b0755"/>
          </g>
          <path id="Path_6418" data-name="Path 6418" d="M686.822,880.557a10.826,10.826,0,0,1,1.634-4.254,2.86,2.86,0,0,1-2.111-.29c-.58-.443-.565-1.586.149-1.734.416-.086.813.2,1.233.256.958.132,1.655-.889,1.963-1.806s.577-2,1.452-2.411a1.612,1.612,0,0,1,.888-.137,5.167,5.167,0,0,1-.46,3.32,13.531,13.531,0,0,1,4.194-3.417,5.333,5.333,0,0,1,4.069-.663c.28,1.089-1.53,1.6-1.762,2.705a24.317,24.317,0,0,1,7.37-.667,4.873,4.873,0,0,1,1.86.391,1.9,1.9,0,0,1,1.115,1.452,1.492,1.492,0,0,1-1.567,1.547,15.6,15.6,0,0,1,3.491,2.02,1.972,1.972,0,1,1-.606,2.749,1.9,1.9,0,0,1,.728,1.958,1.5,1.5,0,0,1-1.323.827,4.413,4.413,0,0,1-1.607-.307l-7.906-2.562a9.136,9.136,0,0,1,2.139,3.968,12.4,12.4,0,0,1-6.533-2.858,12.332,12.332,0,0,1-1.137,3.249.915.915,0,0,1-.336.413c-.534.289-.963-.5-1.442-.877a1.976,1.976,0,0,0-2.1.1c-1.127.614-1.908,1.508-2.769.174A4.99,4.99,0,0,1,686.822,880.557Z" transform="translate(-685.933 -869.242)" fill="#0b0755"/>
        </g>
        <path id="Path_6419" data-name="Path 6419" d="M733.341,1341.486s10.829.877,14.3,14.674c2.018,8.017,1.226,34.123,1.226,34.123l-14.041,2.2s1.26-29.174-9.615-38.164c0,0,2.2,5.925-5.767,39.64H709.026l-3.474-34.531s-24.519.817-31.875-5.312-8.094-13.466-8.094-13.466l34.656-5.267Z" transform="translate(-650.001 -1257.491)" fill="#4851ec"/>
        <path id="Path_6420" data-name="Path 6420" d="M593.417,1066.42s.681-5.245,1.771-4.972,10.761,2.031,11.715,1.833,0,4.433,0,4.433,10.887.991,13.612,5.622,9.06,22.219,11.376,23.718a79.879,79.879,0,0,1,6.887,5.668l-18.835,10.594-17.842-.835s-12.906,7.735-22.986,1.712-8.309-37.625,1.226-43.21S593.417,1066.42,593.417,1066.42Z" transform="translate(-572.329 -1029.322)" fill="#fff"/>
        <path id="Path_6421" data-name="Path 6421" d="M846.039,1208.69a.1.1,0,0,1-.037-.008c-5.41-2.363-8.321-25.8-8.442-26.792a.093.093,0,0,1,.081-.1.09.09,0,0,1,.1.081c.03.243,3.019,24.324,8.332,26.645a.093.093,0,0,1-.037.178Z" transform="translate(-793.239 -1129.559)" fill="#0b0755"/>
        <path id="Path_6422" data-name="Path 6422" d="M679.3,1234.037a.093.093,0,0,1-.037-.178l3.959-1.73-.555-6.913c-.988-.194-12.212-2.384-17.543-3.007a.093.093,0,0,1-.082-.091c-.009-.528-.2-12.957.621-14.794a.093.093,0,1,1,.17.075c-.766,1.724-.621,13.534-.606,14.634,5.592.662,17.425,2.99,17.545,3.013a.093.093,0,0,1,.074.084l.566,7.049a.093.093,0,0,1-.055.093l-4.019,1.756A.091.091,0,0,1,679.3,1234.037Z" transform="translate(-649.531 -1150.785)" fill="#0b0755"/>
        <path id="Path_6423" data-name="Path 6423" d="M911.074,1380.367a.093.093,0,0,1-.091-.076,13.913,13.913,0,0,0-3.623-6.24c-2.787-2.931-8.266-6.579-18.541-7.322a.093.093,0,0,1-.086-.1.1.1,0,0,1,.1-.086c10.343.748,15.863,4.431,18.672,7.389a14.089,14.089,0,0,1,3.662,6.325.093.093,0,0,1-.074.109Z" transform="translate(-835.861 -1283.444)" fill="#0b0755"/>
        <g id="Group_3164" data-name="Group 3164" transform="translate(33.403 74.879)">
          <g id="Group_3163" data-name="Group 3163" transform="translate(0.663 0.441)">
            <path id="Path_6424" data-name="Path 6424" d="M779.056,1319.987l.725.022c2.236.07,8.926.3,9.7.573.934.329-1.877,6.165-1.877,6.165s-8.039.44-10.626-1.285S779.056,1319.987,779.056,1319.987Z" transform="translate(-776.198 -1319.987)" fill="#f78181"/>
            <path id="Path_6425" data-name="Path 6425" d="M838.115,1355.078s4.484,2.028,4.881,1.585-3.511-2.707-3.511-2.707Z" transform="translate(-827.769 -1348.281)" fill="#f78181"/>
            <path id="Path_6426" data-name="Path 6426" d="M845.425,1344.719s6.639,2.731,7.141,1.814-6.844-3.288-6.844-3.288Z" transform="translate(-833.857 -1339.358)" fill="#f78181"/>
            <path id="Path_6427" data-name="Path 6427" d="M850.708,1334.986s6.852,2.14,7.272,1.183-7.105-2.677-7.105-2.677Z" transform="translate(-838.257 -1331.235)" fill="#f78181"/>
            <path id="Path_6428" data-name="Path 6428" d="M852.787,1324.658s6.4,2.09,6.8,1.13-6.634-2.624-6.634-2.624Z" transform="translate(-839.989 -1322.633)" fill="#f78181"/>
          </g>
          <path id="Path_6429" data-name="Path 6429" d="M777.281,1317.981l-5.051-.632.465,5.71,2.6.582Z" transform="translate(-772.23 -1317.349)" fill="#f78181"/>
        </g>
        <g id="Group_3165" data-name="Group 3165" transform="translate(29.565 57.793)">
          <path id="Path_6430" data-name="Path 6430" d="M902.513,1215.15l-36.963-.052-11.628,27.027,36.963.052Z" transform="translate(-836.433 -1215.099)" fill="#91b5f8"/>
          <rect id="Rectangle_880" data-name="Rectangle 880" width="24.746" height="1.636" transform="translate(0.002 25.367) rotate(0.08)" fill="#91b5f8"/>
          <path id="Path_6431" data-name="Path 6431" d="M1011.474,1285.6a1.627,1.627,0,1,1,1.636,1.618A1.627,1.627,0,0,1,1011.474,1285.6Z" transform="translate(-967.657 -1272.456)" fill="#fff"/>
        </g>
      </g>
    </g>
    <g id="Group_3168" data-name="Group 3168" transform="translate(340.651 126.437)">
      <path id="Path_6432" data-name="Path 6432" d="M1576.551,251.946c0-13.486-11.839-24.42-26.444-24.42s-26.444,10.933-26.444,24.42a23.389,23.389,0,0,0,7.32,16.865,21.053,21.053,0,0,1,6.471,15.126h0a8.371,8.371,0,0,0,8.371,8.371h8.564a8.371,8.371,0,0,0,8.371-8.371h0a21.054,21.054,0,0,1,6.471-15.126A23.388,23.388,0,0,0,1576.551,251.946Z" transform="translate(-1523.663 -227.526)" fill="#fa7267"/>
      <path id="Path_6433" data-name="Path 6433" d="M1708.1,395.964a.311.311,0,0,1-.311-.295c-.146-2.722,3.981-45.251,4.156-47.061a.311.311,0,0,1,.62.06c-.043.442-4.3,44.292-4.154,46.967a.311.311,0,0,1-.294.328Z" transform="translate(-1677.023 -328.141)" fill="#060633"/>
      <path id="Path_6434" data-name="Path 6434" d="M1630.48,395.964h-.017a.311.311,0,0,1-.294-.328c.144-2.675-4.111-46.524-4.154-46.967a.311.311,0,1,1,.62-.06c.176,1.809,4.3,44.339,4.156,47.061A.312.312,0,0,1,1630.48,395.964Z" transform="translate(-1608.91 -328.141)" fill="#060633"/>
      <path id="Path_6435" data-name="Path 6435" d="M1637.652,366.641a3.855,3.855,0,0,1-2.333-.823,2.6,2.6,0,0,1-1.754.523,3.075,3.075,0,0,1-2.279-1.62,24.9,24.9,0,0,1-1.409-4.491.156.156,0,0,1,.3-.064,24.845,24.845,0,0,0,1.374,4.4,2.766,2.766,0,0,0,2.038,1.466,2.276,2.276,0,0,0,1.48-.42l0,0a5.973,5.973,0,0,1-1.718-3.547,4.685,4.685,0,0,1,.493-3.232,1.887,1.887,0,0,1,.853-.785,1.823,1.823,0,0,1,2.17,1.013,4.594,4.594,0,0,1,.267,2.443,7.672,7.672,0,0,1-.792,3.183,3.649,3.649,0,0,1-.771.935,3.271,3.271,0,0,0,3.165.5,2.959,2.959,0,0,0,1.092-.821,2.31,2.31,0,0,1-.9-.97,3.786,3.786,0,0,1-.3-1.449,13.267,13.267,0,0,1,.466-4.265.156.156,0,0,1,.1-.106,1.166,1.166,0,0,1,1.236.475,2.856,2.856,0,0,1,.443,1.2,8.565,8.565,0,0,1,.091,3.481,4.447,4.447,0,0,1-.663,1.531,2.578,2.578,0,0,0,1.752.095,3.012,3.012,0,0,0,.9-.458,4.619,4.619,0,0,1-.463-.947,9.464,9.464,0,0,1,.188-6.839.155.155,0,0,1,.092-.086,1.541,1.541,0,0,1,1.716.711,3.754,3.754,0,0,1,.476,1.792,8.617,8.617,0,0,1-.341,3.567,4.489,4.489,0,0,1-1.24,1.855,1.582,1.582,0,0,0,1.081.649,1.622,1.622,0,0,0,.928-.239,2.264,2.264,0,0,0,1.057-2.24.156.156,0,1,1,.307-.05,2.551,2.551,0,0,1-1.206,2.558,1.9,1.9,0,0,1-1.111.28,1.872,1.872,0,0,1-1.3-.761,3.322,3.322,0,0,1-.988.5,2.9,2.9,0,0,1-2.034-.14,3.29,3.29,0,0,1-1.251.96A3.082,3.082,0,0,1,1637.652,366.641Zm-2.439-8.387a1.037,1.037,0,0,0-.4.078,1.59,1.59,0,0,0-.708.662,4.447,4.447,0,0,0-.449,3.021,5.668,5.668,0,0,0,1.621,3.362l.047.042a3.348,3.348,0,0,0,.745-.89,7.4,7.4,0,0,0,.752-3.055,4.341,4.341,0,0,0-.236-2.279A1.659,1.659,0,0,0,1635.214,358.254Zm4.154.528a12.959,12.959,0,0,0-.431,4.078,3.514,3.514,0,0,0,.27,1.331,2.018,2.018,0,0,0,.813.859,4.116,4.116,0,0,0,.64-1.46,8.28,8.28,0,0,0-.094-3.352,2.6,2.6,0,0,0-.386-1.073A.9.9,0,0,0,1639.367,358.782Zm3.565-1.552a9.151,9.151,0,0,0-.153,6.545,4.3,4.3,0,0,0,.416.854,4.186,4.186,0,0,0,1.13-1.708,8.329,8.329,0,0,0,.323-3.438,3.488,3.488,0,0,0-.427-1.646A1.27,1.27,0,0,0,1642.932,357.23Z" transform="translate(-1612.126 -335.272)" fill="#060633"/>
      <path id="Rectangle_881" data-name="Rectangle 881" d="M0,0H21.256a0,0,0,0,1,0,0V0a6.073,6.073,0,0,1-6.073,6.073H6.073A6.073,6.073,0,0,1,0,0V0A0,0,0,0,1,0,0Z" transform="translate(15.816 72.12)" fill="#424be1"/>
      <path id="Path_6436" data-name="Path 6436" d="M1622.047,647.555a43.567,43.567,0,0,1-12.185-1.9,2.024,2.024,0,1,1,1.257-3.849c.187.06,11.74,3.725,18.963.114a2.024,2.024,0,0,1,1.811,3.621A22.157,22.157,0,0,1,1622.047,647.555Z" transform="translate(-1594.295 -572.497)" fill="#060633"/>
      <path id="Path_6437" data-name="Path 6437" d="M1622.047,627.867a43.56,43.56,0,0,1-12.185-1.9,2.024,2.024,0,1,1,1.257-3.849c.187.06,11.74,3.725,18.963.114a2.024,2.024,0,0,1,1.811,3.621A22.156,22.156,0,0,1,1622.047,627.867Z" transform="translate(-1594.295 -556.098)" fill="#424be1"/>
      <path id="Path_6438" data-name="Path 6438" d="M1622.047,608.181a43.558,43.558,0,0,1-12.185-1.9,2.024,2.024,0,1,1,1.257-3.849c.187.06,11.74,3.725,18.963.114a2.024,2.024,0,1,1,1.811,3.621A22.157,22.157,0,0,1,1622.047,608.181Z" transform="translate(-1594.295 -539.702)" fill="#060633"/>
    </g>
    <g id="Group_3171" data-name="Group 3171" transform="translate(231.448 131.274)">
      <circle id="Ellipse_151" data-name="Ellipse 151" cx="18.135" cy="18.135" r="18.135" transform="matrix(0.987, -0.16, 0.16, 0.987, 0, 5.81)" fill="#dde7fe"/>
      <circle id="Ellipse_152" data-name="Ellipse 152" cx="14.426" cy="14.426" r="14.426" transform="translate(6.028 6.247)" fill="#fff"/>
      <circle id="Ellipse_153" data-name="Ellipse 153" cx="1.615" cy="1.615" r="1.615" transform="translate(18.822 18.914)" fill="#dde7fe"/>
      <g id="Group_3169" data-name="Group 3169" transform="translate(19.147 8.903)">
        <path id="Path_6439" data-name="Path 6439" d="M986.023,321.694H985.7a.32.32,0,0,1,0-.641h0l.015-9.954-.4.581a.32.32,0,1,1-.527-.364l.987-1.43a.32.32,0,0,1,.584.182l-.018,11.306A.321.321,0,0,1,986.023,321.694Z" transform="translate(-984.734 -309.747)" fill="#dde7fe"/>
        <path id="Path_6440" data-name="Path 6440" d="M992.047,311.727a.32.32,0,0,1-.248-.118l-1.09-1.338a.321.321,0,0,1,.5-.405l1.09,1.338a.321.321,0,0,1-.249.523Z" transform="translate(-989.65 -309.748)" fill="#dde7fe"/>
      </g>
      <g id="Group_3170" data-name="Group 3170" transform="translate(13.356 19.171)">
        <path id="Path_6441" data-name="Path 6441" d="M951.348,379.345a.319.319,0,0,1-.23-.1l-.952-.986a.32.32,0,0,1,.23-.543h0l7.521.017a.321.321,0,0,1,.32.32v.323a.321.321,0,0,1-.641,0v0l-6.444-.015.426.441a.32.32,0,0,1-.23.543Z" transform="translate(-950.076 -376.628)" fill="#dde7fe"/>
        <path id="Path_6442" data-name="Path 6442" d="M950.4,372.925a.321.321,0,0,1-.248-.523l.89-1.09a.321.321,0,0,1,.5.406l-.89,1.09A.321.321,0,0,1,950.4,372.925Z" transform="translate(-950.076 -371.194)" fill="#dde7fe"/>
      </g>
    </g>
    <g id="Group_3172" data-name="Group 3172" transform="translate(510.478 172.993)">
      <path id="Path_6443" data-name="Path 6443" d="M2555,533.759h-14.384a.63.63,0,0,1-.63-.63V518.744a.63.63,0,0,1,.63-.63H2555a.63.63,0,0,1,.63.63v14.384A.63.63,0,0,1,2555,533.759Zm-13.754-1.261h13.124V519.375h-13.124Z" transform="translate(-2539.982 -516.112)" fill="#7c9af2"/>
      <path id="Path_6444" data-name="Path 6444" d="M2560.75,520.415h-.012a.63.63,0,0,1-.54-.325,25.461,25.461,0,0,0-4.461-5.738.631.631,0,0,1,.835-.945,24.706,24.706,0,0,1,4.183,5.156,137.441,137.441,0,0,1,8.26-12.19.63.63,0,0,1,.988.783,139.621,139.621,0,0,0-8.715,12.955A.631.631,0,0,1,2560.75,520.415Z" transform="translate(-2552.928 -506.134)" fill="#7c9af2"/>
    </g>
    <g id="Group_3173" data-name="Group 3173" transform="translate(482.118 150.467)">
      <path id="Path_6445" data-name="Path 6445" d="M2385.281,398.957H2370.9a.63.63,0,0,1-.63-.63V383.942a.63.63,0,0,1,.63-.63h14.384a.63.63,0,0,1,.631.63v14.384A.63.63,0,0,1,2385.281,398.957Zm-13.754-1.261h13.124V384.573h-13.124Z" transform="translate(-2370.266 -381.31)" fill="#7c9af2"/>
      <path id="Path_6446" data-name="Path 6446" d="M2391.034,385.612h-.012a.631.631,0,0,1-.539-.325,25.475,25.475,0,0,0-4.461-5.738.631.631,0,0,1,.835-.945,24.7,24.7,0,0,1,4.183,5.156,137.68,137.68,0,0,1,8.26-12.19.63.63,0,0,1,.989.783,139.5,139.5,0,0,0-8.715,12.955A.631.631,0,0,1,2391.034,385.612Z" transform="translate(-2383.211 -371.332)" fill="#7c9af2"/>
    </g>
    <g id="Group_3174" data-name="Group 3174" transform="translate(243.337 202.214)">
      <path id="Path_6447" data-name="Path 6447" d="M966.293,682.121h-25v45.167H973.31V688.335Z" transform="translate(-941.298 -681.935)" fill="#fff"/>
      <path id="Path_6448" data-name="Path 6448" d="M1098.947,687.609h-8.993a.186.186,0,0,1-.186-.186v-6.228a.186.186,0,1,1,.372,0v6.042h8.807a.186.186,0,0,1,0,.372Z" transform="translate(-1064.959 -681.009)" fill="#dde7fe"/>
      <path id="Path_6449" data-name="Path 6449" d="M1007.087,716.444H993.734a.186.186,0,0,1,0-.372h13.353a.186.186,0,1,1,0,.372Z" transform="translate(-984.817 -710.213)" fill="#7c9af2"/>
      <path id="Path_6450" data-name="Path 6450" d="M982.41,751.321H955.435a.186.186,0,0,1,0-.372H982.41a.186.186,0,0,1,0,.372Z" transform="translate(-952.918 -739.262)" fill="#7c9af2"/>
      <path id="Path_6451" data-name="Path 6451" d="M982.41,763.475H955.435a.186.186,0,0,1,0-.372H982.41a.186.186,0,0,1,0,.372Z" transform="translate(-952.918 -749.385)" fill="#7c9af2"/>
      <path id="Path_6452" data-name="Path 6452" d="M982.41,780.827H955.435a.186.186,0,0,1,0-.372H982.41a.186.186,0,0,1,0,.372Z" transform="translate(-952.918 -763.838)" fill="#7c9af2"/>
      <path id="Path_6453" data-name="Path 6453" d="M982.41,792.981H955.435a.186.186,0,0,1,0-.372H982.41a.186.186,0,0,1,0,.372Z" transform="translate(-952.918 -773.961)" fill="#7c9af2"/>
      <path id="Path_6454" data-name="Path 6454" d="M982.41,805.137H955.435a.186.186,0,0,1,0-.372H982.41a.186.186,0,0,1,0,.372Z" transform="translate(-952.918 -784.085)" fill="#7c9af2"/>
      <path id="Path_6455" data-name="Path 6455" d="M982.41,817.291H955.435a.186.186,0,0,1,0-.372H982.41a.186.186,0,0,1,0,.372Z" transform="translate(-952.918 -794.208)" fill="#7c9af2"/>
      <path id="Path_6456" data-name="Path 6456" d="M982.41,863.389H955.435a.186.186,0,0,1,0-.372H982.41a.186.186,0,0,1,0,.372Z" transform="translate(-952.918 -832.603)" fill="#7c9af2"/>
      <path id="Path_6457" data-name="Path 6457" d="M982.41,875.543H955.435a.186.186,0,0,1,0-.372H982.41a.186.186,0,0,1,0,.372Z" transform="translate(-952.918 -842.727)" fill="#7c9af2"/>
      <path id="Path_6458" data-name="Path 6458" d="M982.41,887.7H955.435a.186.186,0,0,1,0-.372H982.41a.186.186,0,0,1,0,.372Z" transform="translate(-952.918 -852.85)" fill="#7c9af2"/>
      <path id="Path_6459" data-name="Path 6459" d="M982.41,899.852H955.435a.186.186,0,0,1,0-.372H982.41a.186.186,0,0,1,0,.372Z" transform="translate(-952.918 -862.973)" fill="#7c9af2"/>
    </g>
  </g>
</svg>
