<svg xmlns="http://www.w3.org/2000/svg" width="23" height="23" viewBox="0 0 23 23">
  <g id="Group_7560" data-name="Group 7560" transform="translate(-0.034)">
    <g id="Ellipse_110" data-name="Ellipse 110" transform="translate(0.034)" fill="none" stroke="#10b5df" stroke-width="1">
      <circle cx="11.5" cy="11.5" r="11.5" stroke="none"/>
      <circle cx="11.5" cy="11.5" r="11" fill="none"/>
    </g>
    <path id="Path_4310" data-name="Path 4310" d="M97.034,115.422a.569.569,0,0,0-.623-.031,3.29,3.29,0,0,1-.973.216l-.211.028a2.736,2.736,0,0,0-1.742-.628,2.7,2.7,0,0,0-2.7,2.512A5.544,5.544,0,0,1,87.44,115.6a.569.569,0,0,0-.961.134,7.619,7.619,0,0,0-.354,2.8,4.689,4.689,0,0,0,2.228,3.553,3.892,3.892,0,0,1-2.013.31.57.57,0,0,0-.368,1.048,6.7,6.7,0,0,0,3.579,1.032,6.53,6.53,0,0,0,6.643-6.368c.117-.17.341-.5.719-1.083a3.89,3.89,0,0,0,.341-1.018A.569.569,0,0,0,97.034,115.422Zm-1.867,2.167a.571.571,0,0,0-.108.334,5.42,5.42,0,0,1-5.507,5.413,5.615,5.615,0,0,1-1.018-.093,4.885,4.885,0,0,0,1.253-.7.569.569,0,0,0-.091-.959c-.024-.013-2.431-1.278-2.431-3.05a12.112,12.112,0,0,1,.074-1.416,6.7,6.7,0,0,0,4.037,1.612h.034a.569.569,0,0,0,.53-.791,1.534,1.534,0,0,1,1.545-1.791,1.587,1.587,0,0,1,1.146.487.571.571,0,0,0,.52.166c.129-.024.278-.044.435-.064l.17-.023C95.329,117.364,95.175,117.579,95.167,117.589Z" transform="translate(-79.155 -108.241)" fill="#10b5df"/>
  </g>
</svg>
