<svg xmlns="http://www.w3.org/2000/svg" id="aaad40a5-7364-4ec7-ba7e-4b0d8562ce25" data-name="Layer 1" viewBox="0 0 99.11 99.11"><path d="M449.31,509l10.42-2.29V493.55l-10.42-2.28h0a40,40,0,0,0-5.2-12.55h0l5.75-9-9.29-9.3-9,5.76h0A39.75,39.75,0,0,0,419,461h0l-2.28-10.42H403.61L401.32,461h0a39.75,39.75,0,0,0-12.55,5.21h0l-9-5.76-9.29,9.3,5.76,9h0a40,40,0,0,0-5.2,12.55h0l-10.43,2.28v13.14L371.05,509h0a39.91,39.91,0,0,0,5.2,12.54h0l-5.76,9,9.29,9.29,9-5.76h0a40,40,0,0,0,12.55,5.2h0l2.29,10.43h13.14L419,539.25h0a40,40,0,0,0,12.55-5.2h0l9,5.76,9.29-9.29-5.75-9h0A39.91,39.91,0,0,0,449.3,509Z" transform="translate(-360.62 -450.57)" style="fill:#10B5DF"></path><circle cx="49.56" cy="49.55" r="28.88" style="fill:#0A84A3"></circle><path d="M410.18,531.3a31.18,31.18,0,1,1,31.17-31.18A31.21,31.21,0,0,1,410.18,531.3Zm0-57.76a26.58,26.58,0,1,0,26.57,26.58A26.61,26.61,0,0,0,410.18,473.54Z" transform="translate(-360.62 -450.57)" style="fill:#000000"></path><polygon points="49.55 27.31 54.54 42.66 70.68 42.66 57.62 52.14 62.61 67.49 49.55 58.01 36.5 67.49 41.49 52.14 28.43 42.66 44.57 42.66 49.55 27.31" style="fill:#fff"></polygon></svg>