<svg xmlns="http://www.w3.org/2000/svg" xmlns:xlink="http://www.w3.org/1999/xlink" id="fb50e6f2-bd02-45cd-b7b5-baf4d0f9cc4b" data-name="Layer 1" viewBox="0 0 42.86 62.3"><defs><linearGradient id="ab826096-7346-426c-a383-278c2d537c1e" x1="400.41" y1="511.01" x2="419.94" y2="511.01" gradientUnits="userSpaceOnUse"><stop offset="0" stop-color="#f2f6f7"></stop><stop offset="1" stop-color="#fff"></stop></linearGradient></defs><path d="M398.77,499.21V482.93a11.41,11.41,0,0,1,11.41-11.41h0a11.4,11.4,0,0,1,11.4,11.41v16.28" transform="translate(-388.75 -468.97)" style="fill:none;stroke:#191e2a;stroke-miterlimit:10;stroke-width:5.09999990463257px"></path><rect x="21.43" y="21.78" width="21.43" height="40.52" style="fill:#10B5DF"></rect><rect y="21.78" width="21.43" height="40.52" style="fill:#0a84a3"></rect><path d="M412.2,509.6a5.2,5.2,0,1,0-4.05,0,9.76,9.76,0,0,0-7.74,9.56v3.25h19.53v-3.25A9.76,9.76,0,0,0,412.2,509.6Z" transform="translate(-388.75 -468.97)" style="fill:url(#ab826096-7346-426c-a383-278c2d537c1e)"></path></svg>