<svg xmlns="http://www.w3.org/2000/svg" id="b46058ed-0c15-4f12-b0ae-13f05a6d2339" data-name="Layer 1" viewBox="0 0 92.61 92.61"><polygon points="10.68 78.55 3.67 92.61 42.05 92.61 10.68 78.55" style="fill:#000000"></polygon><polygon points="73.43 78.55 80.44 92.61 42.05 92.61 73.43 78.55" style="fill:#000000"></polygon><circle cx="42.05" cy="50.56" r="42.05" style="fill:#10B5DF"></circle><circle cx="42.05" cy="50.56" r="25.22" style="fill:#0A84A3"></circle><circle cx="42.05" cy="50.56" r="9.17" style="fill:#fff"></circle><path d="M405.92,506.67a2.27,2.27,0,0,1-1.62-.67,2.29,2.29,0,0,1,0-3.25L431,476.05a2.3,2.3,0,0,1,3.26,3.25L407.55,506A2.29,2.29,0,0,1,405.92,506.67Z" transform="translate(-363.87 -453.81)" style="fill:#000000"></path><polygon points="88.23 16.98 75.54 17.07 75.64 4.39 80.03 0 79.93 12.68 92.61 12.59 88.23 16.98" style="fill:#000000"></polygon><polygon points="77.42 27.79 64.73 27.88 64.83 15.2 71.9 8.13 71.8 20.81 84.49 20.72 77.42 27.79" style="fill:#000000"></polygon></svg>