<svg id="gap-assessment" data-name="Layer 1" xmlns="http://www.w3.org/2000/svg" viewBox="0 0 54.46 49.32"><path d="M437.23,502.77h0a27.23,27.23,0,0,0-54.46,0h0A27.11,27.11,0,0,0,389,520.14H431a27.11,27.11,0,0,0,6.26-17.37Z" transform="translate(-382.77 -475.54)" style="fill:#10B5DF"></path><path d="M387.59,502.77A22.41,22.41,0,0,1,410,480.36v22.41Z" transform="translate(-382.77 -475.54)" style="fill:#fff"></path><path d="M406.39,502.28,410,488.56l3.61,13.72a3.73,3.73,0,1,1-7.22,0Z" transform="translate(-382.77 -475.54)" style="fill:#000000"></path><path d="M427.41,502.77h5a22.41,22.41,0,0,0-44.82,0h5" transform="translate(-382.77 -475.54)" style="fill:none;stroke:#000000;stroke-miterlimit:10;stroke-width:3px"></path><line x1="14.66" y1="14.66" x2="11.38" y2="11.38" style="fill:none;stroke:#000000;stroke-miterlimit:10;stroke-width:3px"></line><line x1="27.23" y1="4.82" x2="27.23" y2="9.66" style="fill:none;stroke:#000000;stroke-miterlimit:10;stroke-width:3px"></line><line x1="39.8" y1="14.66" x2="43.08" y2="11.38" style="fill:none;stroke:#000000;stroke-miterlimit:10;stroke-width:3px"></line><rect x="13.13" y="39.88" width="29.94" height="9.44" style="fill:#0A84A3"></rect></svg>