<svg id="cmmc" data-name="Layer 1" xmlns="http://www.w3.org/2000/svg" viewBox="0 0 74.42 58.12"><polygon points="74.42 39.12 54.16 39.12 54.16 24.65 74.42 24.65 69.41 31.89 74.42 39.12" style="fill:#10B5DF"></polygon><polygon points="0 24.65 20.25 24.65 20.25 39.12 0 39.12 5 31.89 0 24.65" style="fill:#0A84A3"></polygon><polygon points="10.27 33.32 15.02 36.47 14.22 32.11 10.27 33.32" style="fill:#000000"></polygon><polygon points="64.15 33.32 59.39 36.47 60.2 32.11 64.15 33.32" style="fill:#000000"></polygon><path d="M410,479H384.89V497.6a27.28,27.28,0,0,0,11.81,22.48l13.3,9.18Z" transform="translate(-372.79 -471.14)" style="fill:#10B5DF"></path><path d="M410,479h25.11V497.6a27.28,27.28,0,0,1-11.81,22.48L410,529.26Z" transform="translate(-372.79 -471.14)" style="fill:#0A84A3"></path><path d="M410,471.14a12.19,12.19,0,0,1-7.9,7.9,12.18,12.18,0,0,1,7.9,7.89,12.18,12.18,0,0,1,7.9-7.89A12.19,12.19,0,0,1,410,471.14Z" transform="translate(-372.79 -471.14)" style="fill:#000000"></path><rect x="10.27" y="18.85" width="53.88" height="14.47" style="fill:#000000"></rect><line x1="16.47" y1="26.08" x2="57.94" y2="26.08" style="fill:none;stroke:#fff;stroke-miterlimit:10;stroke-width:3px"></line></svg>