<svg id="soc-2" data-name="Layer 1" xmlns="http://www.w3.org/2000/svg" viewBox="0 0 54.46 54.42"><path d="M411.5,485a15.21,15.21,0,0,1,12.33,8.79l11.38-3.93A27.25,27.25,0,0,0,411.5,473Z" transform="translate(-382.77 -472.99)" style="fill:#000000"></path><path d="M396.29,493.57A15.22,15.22,0,0,1,408.5,485V473A27.24,27.24,0,0,0,385,489.44Z" transform="translate(-382.77 -472.99)" style="fill:#0A84A3"></path><path d="M418,513.14a15.07,15.07,0,0,1-16,0l-7.33,9.56a27.22,27.22,0,0,0,30.61.06Z" transform="translate(-382.77 -472.99)" style="fill:#000000"></path><path d="M424.81,496.65a15.07,15.07,0,0,1-4.45,14.68l7.29,9.58a27.23,27.23,0,0,0,8.54-28.19Z" transform="translate(-382.77 -472.99)" style="fill:#10B5DF"></path><path d="M392.28,520.84l7.32-9.55a15,15,0,0,1-4.34-14.9L384,492.25a27.21,27.21,0,0,0,8.33,28.59Z" transform="translate(-382.77 -472.99)" style="fill:#10B5DF"></path><path d="M413.21,497.07a3.25,3.25,0,1,0-4.47,3l-1.89,7.38h6.21l-1.89-7.38A3.24,3.24,0,0,0,413.21,497.07Z" transform="translate(-382.77 -472.99)" style="fill:#000000"></path></svg>