<svg xmlns="http://www.w3.org/2000/svg" width="23" height="23" viewBox="0 0 23 23">
  <g id="Group_7559" data-name="Group 7559" transform="translate(-1277 -19)">
    <g id="Ellipse_113" data-name="Ellipse 113" transform="translate(1277 19)" fill="none" stroke="#10b5df" stroke-width="1">
      <circle cx="11.5" cy="11.5" r="11.5" stroke="none"/>
      <circle cx="11.5" cy="11.5" r="11" fill="none"/>
    </g>
    <g id="yelp" transform="translate(1283.311 24.552)">
      <path id="Path_3708" data-name="Path 3708" d="M101.285,408.088a.383.383,0,0,0-.66-.186l-2.041,2.253a.4.4,0,0,0,.055.583,4.522,4.522,0,0,0,2.751.923h.1a.4.4,0,0,0,.382-.47Zm0,0" transform="translate(-96.769 -400.916)" fill="#10b5df"/>
      <path id="Path_3709" data-name="Path 3709" d="M47.249,4.938a.383.383,0,0,0,.665-.285L47.6.367a.4.4,0,0,0-.138-.273A.393.393,0,0,0,47.173,0a4.585,4.585,0,0,0-2.755,1.232.4.4,0,0,0-.021.554Zm0,0" transform="translate(-43.493 0)" fill="#10b5df"/>
      <path id="Path_3710" data-name="Path 3710" d="M306.634,381.317a.4.4,0,0,0-.288-.154l-3.066-.2a.383.383,0,0,0-.346.59l1.686,2.593a.4.4,0,0,0,.277.176.4.4,0,0,0,.056,0,.4.4,0,0,0,.26-.1,4.525,4.525,0,0,0,1.5-2.591A.4.4,0,0,0,306.634,381.317Zm0,0" transform="translate(-297.72 -374.549)" fill="#10b5df"/>
      <path id="Path_3711" data-name="Path 3711" d="M296.988,131.534a.383.383,0,0,0,.1-.012l3.011-.768a.4.4,0,0,0,.267-.54A4.526,4.526,0,0,0,298.352,128a.4.4,0,0,0-.557.2l-1.16,2.812a.383.383,0,0,0,.353.529Zm0,0" transform="translate(-291.56 -125.796)" fill="#10b5df"/>
      <path id="Path_3712" data-name="Path 3712" d="M.314,256.446a.382.382,0,0,0-.19-.347l-2.553-1.482a.4.4,0,0,0-.328-.032.4.4,0,0,0-.239.228,4.526,4.526,0,0,0-.141,2.986.4.4,0,0,0,.219.25.4.4,0,0,0,.162.035.4.4,0,0,0,.17-.038L.1,256.776a.382.382,0,0,0,.219-.33Zm0,0" transform="translate(3.326 -250.282)" fill="#10b5df"/>
    </g>
  </g>
</svg>
