<?xml version="1.0" encoding="utf-8"?>
<!-- Generator: Adobe Illustrator 15.1.0, SVG Export Plug-In . SVG Version: 6.00 Build 0)  -->
<!DOCTYPE svg PUBLIC "-//W3C//DTD SVG 1.1//EN" "http://www.w3.org/Graphics/SVG/1.1/DTD/svg11.dtd">
<svg version="1.1" id="Bold" xmlns="http://www.w3.org/2000/svg" xmlns:xlink="http://www.w3.org/1999/xlink" x="0px" y="0px"
	 width="512px" height="512px" viewBox="0 0 512 512" enable-background="new 0 0 512 512" xml:space="preserve">
<path fill="#10B4DF" d="M511.871,512v-0.021H512V324.203c0-91.862-19.776-162.625-127.169-162.625
	c-51.626,0-86.271,28.331-100.415,55.189h-1.493v-46.613H181.099v341.824h106.026V342.721c0-44.566,8.448-87.659,63.637-87.659
	c54.379,0,55.189,50.858,55.189,90.517V512H511.871z"/>
<path fill="#10B4DF" d="M8.448,170.176h106.155V512H8.448V170.176z"/>
<path fill="#10B4DF" d="M61.483,0C27.541,0,0,27.542,0,61.482c0,33.941,27.541,62.059,61.482,62.059s61.482-28.118,61.482-62.059
	C122.944,27.542,95.403,0,61.483,0z"/>
</svg>
