<?xml version="1.0" encoding="utf-8"?>
<!-- Generator: Adobe Illustrator 15.1.0, SVG Export Plug-In . SVG Version: 6.00 Build 0)  -->
<!DOCTYPE svg PUBLIC "-//W3C//DTD SVG 1.1//EN" "http://www.w3.org/Graphics/SVG/1.1/DTD/svg11.dtd">
<svg version="1.1" id="Bold" xmlns="http://www.w3.org/2000/svg" xmlns:xlink="http://www.w3.org/1999/xlink" x="0px" y="0px"
	 width="512px" height="512px" viewBox="0 0 512 512" enable-background="new 0 0 512 512" xml:space="preserve">
<path fill="#10B4DF" d="M257.323,376.789c0.811-19.925-27.008-29.76-39.019-14.314c-25.898,31.275-74.518,88.085-77.312,95.083
	c-7.403,21.333,27.307,34.943,49.322,43.179c23.915,8.96,40.938,12.607,51.029,10.88c7.296-1.515,11.989-5.291,14.293-11.371
	C257.536,495.019,257.344,381.461,257.323,376.789z"/>
<path fill="#10B4DF" d="M245.803,13.696c-1.707-6.613-6.294-10.88-13.803-12.8c-22.123-5.803-105.941,17.877-121.558,34.646
	c-4.992,5.077-6.784,10.986-5.291,17.664l106.347,170.667c21.718,34.73,49.024,24.299,47.232-14.528h-0.021
	C257.301,183.765,247.104,22.144,245.803,13.696z"/>
<path fill="#10B4DF" d="M200.811,325.057c20.096-6.188,18.603-35.648,1.493-42.561c-45.632-18.795-107.946-45.099-112.747-45.099
	c-18.688-1.109-22.293,25.621-24.191,44.714c-1.707,17.281-1.792,33.109-0.299,47.553c1.408,15.232,4.715,30.784,19.904,31.68
	C91.563,361.322,199.808,325.376,200.811,325.057L200.811,325.057z"/>
<path fill="#10B4DF" d="M437.632,257.109c8.597-5.995,7.296-14.934,7.402-17.877c-2.304-21.845-39.04-77.013-57.43-85.952
	c-6.997-3.243-13.099-3.051-18.304,0.618c-6.891,4.672-69.12,94.806-72.811,98.539c-12.096,16.362,5.205,39.914,23.296,35.157
	l-0.299,0.618C326.762,285.76,432,260.864,437.632,257.109z"/>
<path fill="#10B4DF" d="M326.848,332.502c-18.795-6.721-36.522,17.279-25.6,33.728c3.093,5.269,59.925,100.373,64.917,103.914
	c4.8,4.075,10.815,4.673,17.706,2.027c19.307-7.723,61.12-61.354,63.83-82.282c1.088-7.425-0.896-13.206-6.102-17.366
	C437.397,368.768,326.848,332.502,326.848,332.502z"/>
</svg>
